<?xml version="1.0" encoding="UTF-8"?>
<svg id="Vrstva_1" data-name="Vrstva 1" xmlns="http://www.w3.org/2000/svg" viewBox="0 0 283.46 226.77">
  <defs>
    <style>
      .cls-1 {
        fill: #020303;
        stroke: #020303;
        stroke-miterlimit: 10;
      }

      .cls-1, .cls-2 {
        stroke-width:.7px;
      }

      .cls-3 {
        isolation: isolate;
      }

      .cls-4 {
        fill: #1e1e1c;
      }

      .cls-4, .cls-5 {
        stroke-width: 0px;
      }

      .cls-5 {
        fill: #1d1d1b;
      }

      .cls-2 {
        fill: none;
        stroke: #010101;
        stroke-linecap: round;
        stroke-linejoin: round;
      }
    
.cls-1{stroke:#ffffff;fill:#ffffff}
.cls-2{stroke:#ffffff}
.cls-4{fill:#ffffff}
.cls-5{fill:#24466f}
</style>
  </defs>
  <g>
    <g class="cls-3">
      <path class="cls-4" d="m57.64,194.61c.94-1.33,2.65-2.51,5.14-3.54l-3.1-1.7.35-.64,3.84,2.11-.35.64c-2.61,1.13-4.32,2.31-5.14,3.53l-.73-.4Z"/>
      <path class="cls-4" d="m60.91,196.41l.33-.63,3.06-.65c.91-.19,1.49-.53,1.76-1.01.17-.31.21-.61.12-.9-.09-.29-.3-.52-.62-.7-.38-.21-.75-.25-1.09-.11-.34.14-.61.42-.79.86l-.67-.43c.28-.6.68-.99,1.22-1.17.54-.18,1.1-.11,1.68.21.54.3.89.69,1.06,1.17.16.48.11.97-.17,1.47-.19.34-.46.61-.83.83-.37.21-.87.38-1.49.51l-2.2.45,2.72,1.5-.36.65-3.73-2.05Z"/>
      <path class="cls-4" d="m65.93,198.1l.77.42-.45.82-.77-.42.45-.82Z"/>
      <path class="cls-4" d="m67.34,199.94l2.54-4.62c-.52.13-1.06.09-1.65-.1l.35-.64c.63.19,1.27.16,1.9-.1l.57.31-3.03,5.52-.68-.37Z"/>
      <path class="cls-4" d="m73.1,195.83l-1.28,1.33-.86-.47,1.69-1.1.45.25Zm1.17.64l-1.28,1.33-.87-.48,1.69-1.1.46.25Z"/>
    </g>
    <g class="cls-3">
      <path class="cls-4" d="m63.04,183.85l2.54-4.62c-.52.13-1.06.09-1.65-.1l.35-.64c.63.19,1.27.16,1.9-.1l.57.31-3.03,5.52-.68-.37Z"/>
      <path class="cls-4" d="m66.54,185.86c-.59-.32-.98-.74-1.18-1.24-.2-.5-.16-1,.11-1.5.18-.32.43-.55.76-.7.33-.15.68-.19,1.05-.11-.19-.25-.29-.51-.33-.81-.03-.29.02-.56.15-.8.24-.43.59-.69,1.05-.79.46-.09.96,0,1.49.3.52.28.86.65,1.03,1.09.17.44.13.88-.1,1.31-.13.24-.33.43-.6.56-.26.13-.55.18-.85.15.26.27.42.59.47.94.05.36-.01.7-.19,1.02-.27.49-.67.79-1.2.9-.53.1-1.08,0-1.66-.32Zm.33-.63c.37.21.72.27,1.05.21.33-.07.58-.25.75-.56.17-.31.2-.62.08-.93-.12-.31-.37-.57-.74-.78-.38-.21-.73-.28-1.06-.21-.33.06-.58.25-.75.56-.17.31-.19.62-.07.94.12.31.37.58.75.78Zm1.48-2.68c.3.17.59.22.86.17s.48-.21.63-.48c.15-.26.17-.52.07-.78-.1-.26-.31-.47-.62-.65-.33-.18-.63-.24-.9-.19-.28.05-.48.21-.62.48-.14.27-.16.53-.05.79.1.26.31.48.63.65Z"/>
      <path class="cls-4" d="m70.88,188.24c-.54-.3-.91-.69-1.11-1.18-.2-.49-.2-.99.02-1.5l.74.27c-.14.34-.14.67-.01.99.13.32.38.58.73.77.38.21.75.27,1.09.19.34-.08.61-.3.8-.65.2-.36.24-.7.13-1.01-.11-.32-.35-.58-.73-.79-.22-.12-.46-.17-.7-.16l-.06-.63,2.69-.77-2.68-1.47.35-.64,3.53,1.94-.34.62-2.41.67c.58.25.95.62,1.13,1.12.18.5.12,1.01-.18,1.56-.29.54-.71.87-1.26.99-.54.13-1.12.02-1.72-.31Z"/>
      <path class="cls-4" d="m75.65,190.86c-.68-.37-1.06-.91-1.15-1.62-.09-.71.11-1.5.58-2.36.48-.87,1.04-1.46,1.68-1.76.64-.31,1.31-.27,1.98.1.67.37,1.05.91,1.14,1.62s-.1,1.5-.58,2.36c-.47.86-1.04,1.45-1.68,1.75-.65.31-1.31.28-1.98-.09Zm.36-.65c.44.24.88.23,1.33-.03.45-.26.87-.72,1.24-1.4.37-.67.54-1.27.52-1.79-.02-.52-.25-.9-.69-1.14-.45-.25-.9-.24-1.35.02-.45.26-.86.73-1.23,1.41-.37.67-.54,1.27-.52,1.79.02.52.26.9.71,1.15Z"/>
    </g>
  </g>
  <g>
    <path class="cls-2" d="m89.54,66.72c-1.01-.58-2.02-1.17-3.03-1.75"/>
    <path class="cls-2" d="m89.55,66.88s.01,0,.02,0,.01,0,.02,0c0,0,.02-.01.02-.02,0-.01.01-.03,0-.04,0,0,0,0,0,0"/>
    <line class="cls-2" x1="81.18" y1="69.31" x2="89.55" y2="66.88"/>
    <path class="cls-2" d="m237.28,192.01c.58-.17,1.16-.34,1.74-.51"/>
    <line class="cls-2" x1="108.98" y1="61.16" x2="150.11" y2="143.61"/>
    <path class="cls-2" d="m97.07,61.81s.04.05.08.07"/>
    <path class="cls-2" d="m108.91,61.09c-1.01-.58-2.02-1.17-3.03-1.75"/>
    <path class="cls-2" d="m108.92,61.25s.01,0,.02,0,.01,0,.02,0c0,0,.02-.01.02-.02,0-.01.01-.03,0-.04,0,0,0,0,0,0"/>
    <line class="cls-2" x1="100.54" y1="63.69" x2="108.92" y2="61.25"/>
    <path class="cls-2" d="m183.46,209.19v-5.44"/>
    <path class="cls-2" d="m182.93,203.9v5.93"/>
    <path class="cls-2" d="m183.26,203.18c-12.78-14.89-25.57-29.77-38.35-44.66"/>
    <path class="cls-2" d="m144.38,158.67c12.78,14.89,25.57,29.77,38.35,44.66"/>
    <path class="cls-2" d="m144.71,158.4c-10.93-1.45-21.85-2.89-32.78-4.34"/>
    <path class="cls-2" d="m111.41,154.21c10.93,1.45,21.85,2.89,32.78,4.34"/>
    <path class="cls-2" d="m154.68,108.32s-.02-.01-.02-.01c0,0-.02,0-.03,0-.02,0-.04,0-.06.01"/>
    <line class="cls-2" x1="128.35" y1="55.54" x2="154.68" y2="108.32"/>
    <path class="cls-2" d="m116.44,56.18s.04.05.08.07"/>
    <line class="cls-2" x1="145.15" y1="102.6" x2="147.79" y2="101.83"/>
    <line class="cls-2" x1="146.84" y1="104.38" x2="149.19" y2="103.7"/>
    <line class="cls-2" x1="144.21" y1="100.73" x2="147.26" y2="99.84"/>
    <line class="cls-2" x1="149.62" y1="104.44" x2="146.52" y2="105.34"/>
    <line class="cls-2" x1="146.89" y1="104.33" x2="149.23" y2="103.65"/>
    <line class="cls-2" x1="148.22" y1="102.56" x2="146.28" y2="103.12"/>
    <line class="cls-2" x1="145.13" y1="102.56" x2="147.84" y2="101.78"/>
    <line class="cls-2" x1="146.52" y1="105.34" x2="145.13" y2="102.56"/>
    <line class="cls-2" x1="147.7" y1="100.58" x2="144.59" y2="101.48"/>
    <line class="cls-2" x1="144.2" y1="100.69" x2="147.31" y2="99.79"/>
    <line class="cls-2" x1="144.59" y1="101.48" x2="144.2" y2="100.69"/>
    <line class="cls-2" x1="154.58" y1="108.32" x2="146.2" y2="110.75"/>
    <path class="cls-2" d="m128.29,55.63s.02,0,.02,0c0,0,.01,0,.02,0,0,0,.02-.01.02-.02,0-.01.01-.03,0-.04,0,0,0,0,0,0"/>
    <line class="cls-2" x1="142.09" y1="157.64" x2="190.51" y2="143.57"/>
    <path class="cls-2" d="m142.16,157.63s-.09,0-.12.03c-.04.03-.06.07-.08.1-.03.08-.04.17-.04.26"/>
    <path class="cls-2" d="m199.19,150.94c-.04.13-.08.26-.12.4"/>
    <path class="cls-2" d="m192.63,143.84c-.69-.09-1.37-.18-2.06-.27"/>
    <path class="cls-2" d="m193.31,143.93c-.23-.03-.45-.06-.68-.09"/>
    <line class="cls-2" x1="199.12" y1="150.64" x2="193.39" y2="143.98"/>
    <path class="cls-2" d="m144.97,158.05c1.91,2.22,3.81,4.44,5.72,6.66"/>
    <line class="cls-2" x1="151.47" y1="165.69" x2="208.71" y2="149.07"/>
    <path class="cls-2" d="m214.26,156.98c.09-.33.19-.65.29-.97"/>
    <line class="cls-2" x1="164.56" y1="180.94" x2="221.8" y2="164.31"/>
    <path class="cls-2" d="m227.35,172.22c.1-.33.19-.65.29-.97"/>
    <path class="cls-2" d="m164.67,180.99c1.89,2.2,3.77,4.4,5.66,6.59"/>
    <path class="cls-2" d="m68.02,70.25s.04.05.08.07"/>
    <path class="cls-2" d="m79.85,69.53c-1.01-.58-2.02-1.17-3.03-1.75"/>
    <path class="cls-2" d="m79.87,69.69s.01,0,.02,0,.01,0,.02,0c0,0,.02-.01.02-.02,0-.01.01-.03,0-.04,0,0,0,0,0,0"/>
    <line class="cls-2" x1="71.49" y1="72.13" x2="79.87" y2="69.69"/>
    <line class="cls-2" x1="128.36" y1="155.79" x2="176.79" y2="141.73"/>
    <path class="cls-2" d="m145.93,111.09s.09-.1.13-.15"/>
    <path class="cls-2" d="m146.06,110.95c4.8,9.61,9.59,19.23,14.39,28.84"/>
    <line class="cls-2" x1="154.79" y1="108.41" x2="146.06" y2="110.95"/>
    <path class="cls-2" d="m169.35,137.42s-.08-.03-.11-.06c-.03-.03-.05-.07-.07-.1"/>
    <line class="cls-2" x1="207.94" y1="148.53" x2="199.22" y2="151.06"/>
    <path class="cls-2" d="m196.9,143.28c-.41-.05-.82-.11-1.24-.16"/>
    <path class="cls-2" d="m195.66,143.12c-3.5-4.07-6.99-8.14-10.49-12.21"/>
    <path class="cls-2" d="m184.9,130.67c-11.51-6.37-23.02-12.73-34.53-19.1"/>
    <path class="cls-2" d="m150.37,111.57c-.27-.55-.55-1.09-.82-1.64"/>
    <path class="cls-2" d="m149.55,109.93c11.78,6.52,23.56,13.03,35.35,19.55"/>
    <path class="cls-2" d="m190.14,127.97c-11.78-6.52-23.56-13.03-35.35-19.55"/>
    <line class="cls-2" x1="196.9" y1="143.28" x2="202.13" y2="141.76"/>
    <path class="cls-2" d="m185.46,129.96c3.81,4.44,7.63,8.88,11.44,13.32"/>
    <path class="cls-2" d="m202.13,141.76c-3.81-4.44-7.63-8.88-11.44-13.32"/>
    <line class="cls-2" x1="99.3" y1="63.98" x2="140.43" y2="146.42"/>
    <path class="cls-2" d="m87.39,64.62s.04.05.08.07"/>
    <path class="cls-2" d="m99.22,63.91c-1.01-.58-2.02-1.17-3.03-1.75"/>
    <path class="cls-2" d="m99.24,64.07s.01,0,.02,0,.01,0,.02,0c0,0,.02-.01.02-.02,0-.01.01-.03,0-.04,0,0,0,0,0,0"/>
    <line class="cls-2" x1="90.86" y1="66.5" x2="99.24" y2="64.07"/>
    <line class="cls-2" x1="121.57" y1="154.89" x2="169.99" y2="140.83"/>
    <path class="cls-2" d="m121.51,155.08c.01.08.03.16.04.25"/>
    <path class="cls-2" d="m175.9,141.6c-1.96-.26-3.92-.52-5.88-.78"/>
    <path class="cls-2" d="m121.6,154.89c1.96.26,3.92.52,5.88.78"/>
    <line class="cls-2" x1="114.48" y1="153.95" x2="162.9" y2="139.89"/>
    <path class="cls-2" d="m82.34,95.94c9.69,19.42,19.38,38.85,29.07,58.27"/>
    <path class="cls-2" d="m81.76,104.02l.05-8.02"/>
    <path class="cls-2" d="m106.35,153.54c-8.16-16.37-16.33-32.73-24.49-49.1"/>
    <path class="cls-2" d="m111.41,154.21c-1.68-.22-3.37-.45-5.05-.67"/>
    <path class="cls-2" d="m158.79,116.23c3.52,7.05,7.04,14.1,10.55,21.15"/>
    <line class="cls-2" x1="240.94" y1="190.28" x2="183.7" y2="206.9"/>
    <line class="cls-2" x1="177.66" y1="196.18" x2="234.89" y2="179.56"/>
    <path class="cls-2" d="m241.01,190.14c0-1.13.01-2.25.02-3.38"/>
    <path class="cls-2" d="m240.94,186.53c-1.98-2.31-3.96-4.62-5.95-6.92"/>
    <line class="cls-2" x1="158.02" y1="173.31" x2="215.25" y2="156.69"/>
    <path class="cls-2" d="m220.81,164.6c.1-.32.19-.65.29-.97"/>
    <path class="cls-2" d="m158.12,173.36c1.89,2.2,3.77,4.4,5.66,6.59"/>
    <line class="cls-2" x1="118.67" y1="58.35" x2="159.8" y2="140.8"/>
    <path class="cls-2" d="m106.76,59s.04.05.08.07"/>
    <path class="cls-2" d="m118.59,58.28c-1.01-.58-2.02-1.17-3.03-1.75"/>
    <path class="cls-2" d="m118.6,58.44s.02,0,.02,0c0,0,.01,0,.02,0,0,0,.02-.01.02-.02,0-.01.01-.03,0-.04,0,0,0,0,0-.01"/>
    <line class="cls-2" x1="110.23" y1="60.87" x2="118.6" y2="58.44"/>
    <line class="cls-2" x1="171.11" y1="188.56" x2="228.35" y2="171.94"/>
    <path class="cls-2" d="m233.9,179.85c.1-.32.19-.65.29-.97"/>
    <path class="cls-2" d="m171.22,188.61c1.89,2.2,3.77,4.4,5.66,6.59"/>
    <line class="cls-2" x1="135.16" y1="156.69" x2="183.58" y2="142.63"/>
    <path class="cls-2" d="m189.67,143.82c-.01-.06-.02-.12-.03-.19"/>
    <line class="cls-2" x1="151.42" y1="146.22" x2="151.42" y2="146.23"/>
    <path class="cls-2" d="m106.24,153.3c-7.99-1.06-15.98-2.12-23.97-3.17"/>
    <line class="cls-2" x1="161.36" y1="146.21" x2="161.36" y2="146.21"/>
    <line class="cls-2" x1="160.11" y1="143.7" x2="160.1" y2="143.7"/>
    <line class="cls-2" x1="158.8" y1="141.09" x2="158.8" y2="141.08"/>
    <line class="cls-2" x1="117.04" y1="57.39" x2="116.44" y2="56.18"/>
    <line class="cls-2" x1="132.05" y1="151.85" x2="132.05" y2="151.85"/>
    <path class="cls-2" d="m169.34,137.38c8.05,1.07,16.1,2.13,24.14,3.2"/>
    <path class="cls-2" d="m202.1,141.72s.01,0,.02,0"/>
    <path class="cls-2" d="m221.07,163.69c.19.22.38.44.57.67"/>
    <path class="cls-2" d="m234.17,178.94c.19.22.38.44.57.67"/>
    <line class="cls-2" x1="120.06" y1="152.34" x2="120.06" y2="152.33"/>
    <line class="cls-2" x1="78.31" y1="68.64" x2="77.7" y2="67.44"/>
    <path class="cls-2" d="m240.87,190.3v2.22"/>
    <path class="cls-2" d="m193.27,140.33c-7.8-1.03-15.6-2.07-23.4-3.1"/>
    <path class="cls-2" d="m142,151.84h0"/>
    <line class="cls-2" x1="141.99" y1="151.84" x2="141.99" y2="151.83"/>
    <line class="cls-2" x1="140.74" y1="149.33" x2="140.73" y2="149.33"/>
    <line class="cls-2" x1="139.43" y1="146.71" x2="139.43" y2="146.71"/>
    <line class="cls-2" x1="97.68" y1="63.01" x2="97.07" y2="61.81"/>
    <line class="cls-2" x1="142.08" y1="151.81" x2="142.08" y2="151.81"/>
    <path class="cls-2" d="m161.37,146.21h0"/>
    <line class="cls-2" x1="154.56" y1="108.48" x2="154.66" y2="108.37"/>
    <line class="cls-2" x1="161.45" y1="146.19" x2="161.45" y2="146.18"/>
    <path class="cls-2" d="m199.17,151l.05.06"/>
    <line class="cls-2" x1="87.99" y1="65.83" x2="87.39" y2="64.62"/>
    <path class="cls-2" d="m177.53,196.51c.03-.08.05-.17.07-.25"/>
    <line class="cls-2" x1="107.36" y1="60.2" x2="106.76" y2="59"/>
    <path class="cls-2" d="m183.46,207.65c.11-.02.23-.02.33-.01.1,0,.23.03.32.08"/>
    <path class="cls-2" d="m139.97,78.83c.07,0,.13.06.18.11.05.05.09.11.12.17"/>
    <line class="cls-2" x1="139.96" y1="78.82" x2="140.43" y2="78.68"/>
    <path class="cls-2" d="m157.89,173.64c.03-.08.05-.17.07-.25"/>
    <path class="cls-2" d="m170.98,188.88c.02-.08.05-.17.07-.25"/>
    <path class="cls-2" d="m81.75,150.28c8.2,1.09,16.41,2.17,24.61,3.26"/>
    <line class="cls-2" x1="145.72" y1="111.14" x2="160.42" y2="140.61"/>
    <line class="cls-2" x1="199.07" y1="151.33" x2="207.88" y2="148.78"/>
    <path class="cls-2" d="m214.53,156.07c.19.22.38.44.57.67"/>
    <path class="cls-2" d="m227.62,171.31c.19.22.38.44.57.67"/>
    <path class="cls-2" d="m151.34,166.01c.02-.08.05-.17.07-.25"/>
    <path class="cls-2" d="m150.69,165.26c.03-.08.05-.17.07-.25"/>
    <path class="cls-2" d="m164.43,181.26c.02-.08.05-.17.07-.25"/>
    <path class="cls-2" d="m77.78,67.5c1.01.58,2.02,1.17,3.03,1.75"/>
    <path class="cls-2" d="m89.61,66.79s-.04-.05-.08-.07"/>
    <path class="cls-2" d="m86.51,64.97s-.09-.04-.16-.06c-.03,0-.07-.01-.1-.01-.02,0-.04,0-.05,0,0,0-.02,0-.03,0s-.02,0-.02,0"/>
    <path class="cls-2" d="m80.81,69.25s.09.04.16.06c.03,0,.07.01.1.01.02,0,.04,0,.05,0,0,0,.02,0,.03,0,0,0,.02,0,.02,0"/>
    <path class="cls-2" d="m77.77,67.34s-.01,0-.02,0c0,0-.01,0-.02,0-.01,0-.02.01-.02.02,0,.01-.01.03,0,.04,0,0,0,0,0,0"/>
    <line class="cls-2" x1="86.14" y1="64.91" x2="77.77" y2="67.34"/>
    <path class="cls-2" d="m240.87,192.51c-.58.17-1.16.34-1.74.51"/>
    <path class="cls-2" d="m238.66,191.61c-.15-.18-.31-.36-.46-.54"/>
    <path class="cls-2" d="m202.64,141.57c-.25-.03-.51-.07-.76-.1"/>
    <path class="cls-2" d="m202.12,141.72c.08.01.15.07.2.13"/>
    <path class="cls-2" d="m202.84,141.7c-.05-.06-.12-.12-.2-.13"/>
    <path class="cls-2" d="m202.32,141.85c2.08,2.42,4.16,4.84,6.24,7.26"/>
    <path class="cls-2" d="m241.19,186.35c-12.78-14.89-25.57-29.77-38.35-44.66"/>
    <path class="cls-2" d="m241.39,186.92c0-.1-.02-.21-.05-.3-.03-.09-.08-.19-.15-.27"/>
    <path class="cls-2" d="m241.39,192.86v-5.93"/>
    <line class="cls-2" x1="241.39" y1="192.86" x2="240.87" y2="193.01"/>
    <path class="cls-2" d="m238.37,192.97c-.4-.22-.81-.44-1.21-.66"/>
    <path class="cls-2" d="m237.06,192.18c0-.05.05-.09.08-.12.04-.03.09-.05.14-.06"/>
    <path class="cls-2" d="m237.06,192.68c0,.06.06.1.1.13"/>
    <line class="cls-2" x1="237.06" y1="192.68" x2="237.06" y2="192.18"/>
    <path class="cls-2" d="m237.16,192.31s-.1-.07-.1-.13"/>
    <path class="cls-2" d="m237.16,192.8c.4.22.81.44,1.21.66"/>
    <path class="cls-2" d="m238.37,193.47c.11.06.26.08.37.09.12,0,.26,0,.38-.04"/>
    <path class="cls-2" d="m239.12,193.02c-.12.03-.26.05-.38.04-.12,0-.27-.03-.37-.09"/>
    <path class="cls-2" d="m239.12,193.51c.58-.17,1.16-.34,1.74-.51"/>
    <line class="cls-2" x1="240.87" y1="192.51" x2="240.87" y2="193.01"/>
    <path class="cls-2" d="m239.02,191.5l1.84,1.01"/>
    <path class="cls-2" d="m97.15,61.88c1.01.58,2.02,1.17,3.03,1.75"/>
    <path class="cls-2" d="m108.98,61.16s-.04-.05-.08-.07"/>
    <path class="cls-2" d="m105.87,59.34s-.09-.04-.16-.06c-.03,0-.07-.01-.1-.01-.02,0-.04,0-.05,0,0,0-.02,0-.03,0s-.02,0-.02,0"/>
    <path class="cls-2" d="m100.18,63.63s.09.04.16.06c.03,0,.07.01.1.01.02,0,.04,0,.05,0,0,0,.02,0,.03,0,0,0,.02,0,.02,0"/>
    <path class="cls-2" d="m97.13,61.72s-.01,0-.02,0c0,0-.01,0-.02,0-.01,0-.02.01-.02.02,0,.01-.01.03,0,.04,0,0,0,0,0,0"/>
    <line class="cls-2" x1="105.51" y1="59.29" x2="97.13" y2="61.72"/>
    <path class="cls-2" d="m81.68,150.29s.04,0,.07,0"/>
    <line class="cls-2" x1="81.68" y1="150.29" x2="82.2" y2="150.13"/>
    <path class="cls-2" d="m81.51,150.63c0-.07,0-.14.03-.2.02-.06.07-.12.13-.14"/>
    <path class="cls-2" d="m81.51,154.03v-3.4"/>
    <path class="cls-2" d="m89.57,158.46c-2.69-1.48-5.38-2.96-8.06-4.44"/>
    <path class="cls-2" d="m89.66,158.49s-.06-.01-.08-.03"/>
    <path class="cls-2" d="m143.92,165.68c-18.09-2.4-36.18-4.79-54.27-7.19"/>
    <path class="cls-2" d="m144.12,165.8c-.05-.06-.12-.12-.2-.13"/>
    <path class="cls-2" d="m180.98,208.72c-12.29-14.31-24.57-28.61-36.86-42.92"/>
    <path class="cls-2" d="m181.09,208.82s-.08-.06-.12-.1"/>
    <path class="cls-2" d="m182.93,209.83c-.61-.34-1.23-.68-1.84-1.01"/>
    <line class="cls-2" x1="182.93" y1="209.83" x2="183.46" y2="209.68"/>
    <path class="cls-2" d="m183.46,203.75c0-.1-.02-.21-.05-.3-.03-.09-.08-.19-.15-.27"/>
    <path class="cls-2" d="m182.73,203.33c.07.08.12.17.15.27.03.1.05.2.05.3"/>
    <path class="cls-2" d="m144.91,158.52c-.05-.06-.12-.12-.2-.13"/>
    <path class="cls-2" d="m144.19,158.55c.08.01.15.07.2.13"/>
    <line class="cls-2" x1="146.28" y1="103.12" x2="146.89" y2="104.33"/>
    <line class="cls-2" x1="145.72" y1="111.14" x2="145.95" y2="111.08"/>
    <line class="cls-2" x1="119.91" y1="58.06" x2="128.29" y2="55.63"/>
    <path class="cls-2" d="m116.52,56.25c1.01.58,2.02,1.17,3.03,1.75"/>
    <path class="cls-2" d="m128.35,55.54s-.04-.05-.08-.07"/>
    <line class="cls-2" x1="147.79" y1="101.83" x2="148.16" y2="102.57"/>
    <line class="cls-2" x1="146.24" y1="103.17" x2="146.84" y2="104.38"/>
    <line class="cls-2" x1="149.19" y1="103.7" x2="149.57" y2="104.45"/>
    <line class="cls-2" x1="147.84" y1="101.78" x2="147.79" y2="101.83"/>
    <line class="cls-2" x1="146.28" y1="103.12" x2="146.24" y2="103.17"/>
    <line class="cls-2" x1="149.23" y1="103.65" x2="149.19" y2="103.7"/>
    <line class="cls-2" x1="146.89" y1="104.33" x2="146.84" y2="104.38"/>
    <line class="cls-2" x1="147.26" y1="99.84" x2="147.64" y2="100.6"/>
    <line class="cls-2" x1="147.31" y1="99.79" x2="147.26" y2="99.84"/>
    <line class="cls-2" x1="149.23" y1="103.65" x2="149.62" y2="104.44"/>
    <line class="cls-2" x1="147.84" y1="101.78" x2="148.22" y2="102.56"/>
    <line class="cls-2" x1="147.31" y1="99.79" x2="147.7" y2="100.58"/>
    <path class="cls-2" d="m146.2,110.75s-.1.04-.14.06c-.04.02-.09.05-.12.09"/>
    <path class="cls-2" d="m82.27,150.13s-.05,0-.07,0"/>
    <line class="cls-2" x1="145.94" y1="110.9" x2="145.72" y2="111.14"/>
    <path class="cls-2" d="m154.66,108.37s.01-.01.02-.02c0,0,0-.02,0-.02"/>
    <path class="cls-2" d="m125.24,53.72s-.09-.04-.16-.06c-.03,0-.07-.01-.1-.01-.02,0-.04,0-.05,0,0,0-.02,0-.03,0s-.02,0-.02,0"/>
    <path class="cls-2" d="m128.27,55.47c-1.01-.58-2.02-1.17-3.03-1.75"/>
    <path class="cls-2" d="m119.55,58s.09.04.16.06c.03,0,.07.01.1.01.02,0,.03,0,.05,0,0,0,.02,0,.03,0,0,0,.02,0,.02,0"/>
    <path class="cls-2" d="m116.5,56.09s-.01,0-.02,0c0,0-.01,0-.02,0-.01,0-.02.01-.02.02,0,.01-.01.03,0,.04,0,0,0,0,0,0"/>
    <line class="cls-2" x1="124.88" y1="53.66" x2="116.5" y2="56.09"/>
    <path class="cls-2" d="m151.58,165.74c1.89,2.2,3.77,4.4,5.66,6.59"/>
    <path class="cls-2" d="m207.71,149.35c.06-.19.11-.39.17-.58"/>
    <path class="cls-2" d="m142.16,157.63c.91.12,1.82.24,2.74.36"/>
    <path class="cls-2" d="m190.51,143.57s.04,0,.07,0"/>
    <path class="cls-2" d="m199.19,150.94s0-.11,0-.16c-.01-.05-.04-.1-.07-.14"/>
    <line class="cls-2" x1="207.88" y1="148.78" x2="207.87" y2="148.76"/>
    <path class="cls-2" d="m193.33,143.93s0,0-.01,0"/>
    <path class="cls-2" d="m193.39,143.98s-.04-.04-.07-.05"/>
    <path class="cls-2" d="m144.89,158s.06.03.08.05"/>
    <path class="cls-2" d="m150.69,164.71s.06.09.07.14c.01.05.02.11,0,.16"/>
    <path class="cls-2" d="m151.47,165.69s.04,0,.06,0c.02.01.03.02.05.04"/>
    <path class="cls-2" d="m157.31,172.63c-.03.08-.05.17-.07.25"/>
    <path class="cls-2" d="m214.55,156s0-.11,0-.16c-.01-.05-.04-.1-.07-.14"/>
    <path class="cls-2" d="m157.24,172.33s.06.09.07.14c.01.05.02.11,0,.16"/>
    <path class="cls-2" d="m214.47,155.71c-1.89-2.2-3.77-4.4-5.66-6.59"/>
    <path class="cls-2" d="m208.81,149.11s-.03-.03-.05-.04c-.02,0-.04-.02-.06,0"/>
    <path class="cls-2" d="m151.41,165.76s.03-.06.06-.07"/>
    <path class="cls-2" d="m164.56,180.94s.04,0,.06,0c.02.01.03.02.05.04"/>
    <path class="cls-2" d="m170.4,187.87c-.02.08-.05.17-.07.25"/>
    <path class="cls-2" d="m227.64,171.25s0-.11,0-.16c-.01-.05-.04-.1-.07-.14"/>
    <path class="cls-2" d="m170.33,187.58s.06.09.07.14c.01.05.02.11,0,.16"/>
    <path class="cls-2" d="m227.57,170.95c-1.89-2.2-3.77-4.4-5.66-6.59"/>
    <path class="cls-2" d="m221.9,164.36s-.03-.03-.05-.04c-.02-.01-.04-.02-.06,0"/>
    <path class="cls-2" d="m164.51,181.01s.03-.06.06-.07"/>
    <path class="cls-2" d="m128.3,155.98c.01.08.03.16.04.25"/>
    <path class="cls-2" d="m182.69,142.5c-1.96-.26-3.92-.52-5.88-.78"/>
    <path class="cls-2" d="m134.43,156.79c.01.08.03.16.04.25"/>
    <path class="cls-2" d="m199.15,151.3l-.05-.06"/>
    <path class="cls-2" d="m189.67,143.8s.03,0,.04,0"/>
    <line class="cls-2" x1="129.75" y1="149.52" x2="129.74" y2="149.52"/>
    <path class="cls-2" d="m120.83,154.99c.01.08.03.16.04.25"/>
    <line class="cls-2" x1="149.12" y1="143.9" x2="149.11" y2="143.89"/>
    <path class="cls-2" d="m135.1,156.88c.01.08.03.16.04.25"/>
    <path class="cls-2" d="m189.49,143.4c-1.96-.26-3.92-.52-5.88-.78"/>
    <path class="cls-2" d="m141.22,157.69c.01.08.03.16.04.25"/>
    <path class="cls-2" d="m182.86,142.84s-.01-.07-.02-.11"/>
    <line class="cls-2" x1="131.05" y1="152.14" x2="131.05" y2="152.14"/>
    <line class="cls-2" x1="79.93" y1="69.6" x2="121.06" y2="152.04"/>
    <line class="cls-2" x1="141.73" y1="149.04" x2="141.73" y2="149.04"/>
    <path class="cls-2" d="m161.31,140.35c-.21-.03-.42-.06-.63-.08"/>
    <line class="cls-2" x1="81.79" y1="97.85" x2="68.02" y2="70.25"/>
    <path class="cls-2" d="m176.07,141.94l-.02-.11"/>
    <path class="cls-2" d="m155.75,108.95c-4.99-10-9.97-19.99-14.96-29.99"/>
    <path class="cls-2" d="m132.31,154.65s0,0,0,0"/>
    <line class="cls-2" x1="132.3" y1="154.65" x2="132.3" y2="154.65"/>
    <line class="cls-2" x1="132.4" y1="154.63" x2="132.4" y2="154.62"/>
    <path class="cls-2" d="m68.1,70.32c1.01.58,2.02,1.17,3.03,1.75"/>
    <path class="cls-2" d="m79.93,69.6s-.04-.05-.08-.07"/>
    <path class="cls-2" d="m76.82,67.78s-.09-.04-.16-.06c-.03,0-.07-.01-.1-.01-.02,0-.04,0-.05,0,0,0-.02,0-.03,0,0,0-.02,0-.02,0"/>
    <path class="cls-2" d="m71.13,72.07s.09.04.16.06c.03,0,.07.01.1.01.02,0,.03,0,.05,0,0,0,.02,0,.03,0,0,0,.02,0,.02,0"/>
    <path class="cls-2" d="m68.08,70.16s-.01,0-.02,0-.01,0-.02,0c-.01,0-.02.01-.02.02,0,.01-.01.03,0,.04,0,0,0,0,0,.01"/>
    <line class="cls-2" x1="76.46" y1="67.72" x2="68.08" y2="70.16"/>
    <path class="cls-2" d="m128.39,155.79c1.96.26,3.92.52,5.88.78"/>
    <path class="cls-2" d="m128.36,155.79s.02,0,.03,0"/>
    <path class="cls-2" d="m176.81,141.73s-.02,0-.03,0"/>
    <path class="cls-2" d="m128.3,155.98s0-.07,0-.11c0-.03.02-.07.06-.08"/>
    <path class="cls-2" d="m182.85,142.73s-.02-.09-.05-.14c-.02-.04-.06-.08-.11-.09"/>
    <path class="cls-2" d="m134.27,156.57s.09.05.11.09c.02.04.04.09.05.14"/>
    <line class="cls-2" x1="89.61" y1="66.79" x2="130.74" y2="149.23"/>
    <path class="cls-2" d="m193.52,140.62c-8.05-1.07-16.11-2.13-24.16-3.2"/>
    <path class="cls-2" d="m160.45,139.79s.04.07.07.1c.03.03.07.06.11.06"/>
    <path class="cls-2" d="m160.63,139.95c.47.06.94.12,1.4.19"/>
    <path class="cls-2" d="m160.68,140.27c-.08-.01-.16-.07-.21-.13-.06-.06-.11-.13-.14-.21"/>
    <path class="cls-2" d="m160.32,139.93c-4.8-9.61-9.59-19.23-14.39-28.84"/>
    <path class="cls-2" d="m202.25,141.9s-.09-.1-.15-.13"/>
    <path class="cls-2" d="m207.94,148.53c-1.9-2.21-3.79-4.42-5.69-6.63"/>
    <line class="cls-2" x1="199.15" y1="151.3" x2="207.87" y2="148.76"/>
    <path class="cls-2" d="m199.22,151.06c-.02.08-.05.16-.07.24"/>
    <path class="cls-2" d="m207.87,148.76c.02-.08.05-.16.07-.24"/>
    <path class="cls-2" d="m185.18,130.91c-.08-.09-.17-.18-.28-.23"/>
    <path class="cls-2" d="m184.9,129.49c.21.12.4.29.55.47"/>
    <path class="cls-2" d="m190.69,128.44c-.16-.18-.34-.35-.56-.47"/>
    <path class="cls-2" d="m185.42,208.51c0,.05-.05.09-.08.12-.04.03-.09.05-.14.06"/>
    <path class="cls-2" d="m185.2,208.68c-.58.17-1.16.34-1.74.51"/>
    <line class="cls-2" x1="185.42" y1="208.51" x2="185.42" y2="209"/>
    <path class="cls-2" d="m183.46,209.68c.58-.17,1.16-.34,1.74-.51"/>
    <line class="cls-2" x1="183.46" y1="209.19" x2="183.46" y2="209.68"/>
    <path class="cls-2" d="m185.2,209.18s.1-.03.14-.06c.04-.02.08-.06.08-.12"/>
    <path class="cls-2" d="m185.32,208.38s.1.07.1.13"/>
    <path class="cls-2" d="m184.11,207.72c.4.22.81.44,1.21.66"/>
    <path class="cls-2" d="m87.47,64.69c1.01.58,2.02,1.17,3.03,1.75"/>
    <path class="cls-2" d="m99.3,63.98s-.04-.05-.08-.07"/>
    <path class="cls-2" d="m96.19,62.16s-.09-.04-.16-.06c-.03,0-.07-.01-.1-.01-.02,0-.04,0-.05,0,0,0-.02,0-.03,0,0,0-.02,0-.02,0"/>
    <path class="cls-2" d="m90.5,66.44s.09.04.16.06c.03,0,.07.01.1.01.02,0,.03,0,.05,0,0,0,.02,0,.03,0s.02,0,.02,0"/>
    <path class="cls-2" d="m87.45,64.53s-.01,0-.02,0-.01,0-.02,0c-.01,0-.02.01-.02.02,0,.01-.01.03,0,.04,0,0,0,0,0,.01"/>
    <line class="cls-2" x1="95.83" y1="62.1" x2="87.45" y2="64.53"/>
    <path class="cls-2" d="m177.76,196.23c1.98,2.31,3.96,4.62,5.95,6.92"/>
    <path class="cls-2" d="m135.19,156.69c1.96.26,3.92.52,5.88.78"/>
    <line class="cls-2" x1="161.1" y1="143.41" x2="161.1" y2="143.41"/>
    <line class="cls-2" x1="150.42" y1="146.52" x2="150.42" y2="146.51"/>
    <path class="cls-2" d="m127.63,155.89c.01.08.03.16.04.25"/>
    <path class="cls-2" d="m169.27,141.04l-.02-.11"/>
    <path class="cls-2" d="m121.57,154.89s.02,0,.03,0"/>
    <path class="cls-2" d="m170.02,140.83s-.02,0-.03,0"/>
    <path class="cls-2" d="m121.51,155.08s0-.07,0-.11c0-.03.02-.07.06-.08"/>
    <path class="cls-2" d="m176.05,141.83s-.02-.09-.05-.14c-.02-.04-.06-.08-.11-.09"/>
    <path class="cls-2" d="m127.47,155.67s.09.05.11.09c.02.04.04.09.05.14"/>
    <path class="cls-2" d="m114.51,153.95c2.06.27,4.11.54,6.17.82"/>
    <path class="cls-2" d="m114.48,153.95s.02,0,.03,0"/>
    <path class="cls-2" d="m114.41,154.07c0,.1-.01.21-.02.31"/>
    <path class="cls-2" d="m169.26,140.93s-.02-.09-.05-.14c-.02-.04-.06-.08-.11-.09"/>
    <path class="cls-2" d="m162.93,139.89s-.02,0-.03,0"/>
    <path class="cls-2" d="m114.41,154.07s0-.05.02-.07c0-.02.03-.04.05-.05"/>
    <path class="cls-2" d="m169.1,140.7c-2.06-.27-4.11-.54-6.17-.82"/>
    <path class="cls-2" d="m120.68,154.77s.09.05.11.09c.02.04.04.09.05.14"/>
    <path class="cls-2" d="m240.94,190.28s.04-.03.05-.06c0-.02.01-.05.01-.08"/>
    <path class="cls-2" d="m81.97,95.66c.08-.02.17.03.22.08.06.05.11.13.14.2"/>
    <line class="cls-2" x1="81.97" y1="95.66" x2="82.49" y2="95.51"/>
    <path class="cls-2" d="m111.93,154.06c-9.69-19.42-19.38-38.85-29.07-58.27"/>
    <path class="cls-2" d="m82.86,95.78c-.04-.07-.08-.14-.14-.2-.06-.05-.14-.1-.22-.08"/>
    <path class="cls-2" d="m81.8,96c0-.07,0-.14.03-.2.02-.06.07-.12.13-.14"/>
    <path class="cls-2" d="m81.86,104.44c-.06-.13-.1-.28-.1-.42"/>
    <line class="cls-2" x1="111.93" y1="154.06" x2="111.41" y2="154.21"/>
    <path class="cls-2" d="m169.34,137.38h-.08"/>
    <path class="cls-2" d="m140.79,78.96c-.04-.07-.08-.14-.14-.2-.06-.05-.14-.1-.22-.08"/>
    <line class="cls-2" x1="169.34" y1="137.38" x2="169.86" y2="137.23"/>
    <path class="cls-2" d="m140.27,79.11c4.89,9.79,9.77,19.59,14.66,29.38"/>
    <path class="cls-2" d="m169.86,137.23c-3.42-6.85-6.83-13.7-10.25-20.54"/>
    <path class="cls-2" d="m177.66,196.18s.04,0,.06,0c.02.01.03.02.05.04"/>
    <path class="cls-2" d="m183.77,206.76s0,.05-.01.08c0,.02-.03.05-.05.06"/>
    <path class="cls-2" d="m183.7,206.9s-.04,0-.06,0c-.02-.01-.03-.02-.05-.04"/>
    <path class="cls-2" d="m183.79,203.39c0,1.13-.01,2.25-.02,3.38"/>
    <path class="cls-2" d="m241.02,186.76c0-.08-.03-.17-.08-.23"/>
    <path class="cls-2" d="m183.71,203.16c.05.06.08.15.08.23"/>
    <path class="cls-2" d="m235,179.61s-.03-.03-.05-.04c-.02-.01-.04-.02-.06,0"/>
    <path class="cls-2" d="m177.6,196.25s.03-.06.06-.07"/>
    <path class="cls-2" d="m183.6,206.85c-.05-.05-.09-.11-.14-.16"/>
    <path class="cls-2" d="m158.02,173.31s.04,0,.06,0c.02,0,.03.02.05.04"/>
    <path class="cls-2" d="m163.86,180.25c-.02.08-.05.17-.07.25"/>
    <path class="cls-2" d="m221.09,163.63s0-.11,0-.16c-.01-.05-.04-.1-.07-.14"/>
    <path class="cls-2" d="m163.79,179.95s.06.09.07.14c.01.05.02.11,0,.16"/>
    <path class="cls-2" d="m221.02,163.33c-1.89-2.2-3.77-4.4-5.66-6.59"/>
    <path class="cls-2" d="m215.36,156.74s-.03-.03-.05-.04-.04-.02-.06,0"/>
    <path class="cls-2" d="m157.96,173.38s.03-.06.06-.07"/>
    <path class="cls-2" d="m106.83,59.07c1.01.58,2.02,1.17,3.03,1.75"/>
    <path class="cls-2" d="m118.67,58.35s-.04-.05-.08-.07"/>
    <path class="cls-2" d="m115.56,56.53s-.09-.04-.16-.06c-.03,0-.07-.01-.1-.01-.02,0-.04,0-.05,0,0,0-.02,0-.03,0,0,0-.02,0-.02,0"/>
    <path class="cls-2" d="m109.86,60.82s.09.04.16.06c.03,0,.07.01.1.01.02,0,.04,0,.05,0,0,0,.02,0,.03,0s.02,0,.02,0"/>
    <path class="cls-2" d="m106.82,58.91s-.01,0-.02,0-.01,0-.02,0c-.01,0-.02.01-.02.02,0,.01-.01.03,0,.04,0,0,0,0,0,.01"/>
    <line class="cls-2" x1="115.19" y1="56.47" x2="106.82" y2="58.91"/>
    <path class="cls-2" d="m171.11,188.56s.04,0,.06,0c.02,0,.03.02.05.04"/>
    <path class="cls-2" d="m176.95,195.5c-.03.08-.05.17-.07.25"/>
    <path class="cls-2" d="m234.19,178.87s0-.11,0-.16c-.01-.05-.04-.1-.07-.14"/>
    <path class="cls-2" d="m77.7,67.43s.04.05.08.07"/>
    <path class="cls-2" d="m234.11,178.58c-1.89-2.2-3.77-4.4-5.66-6.59"/>
    <path class="cls-2" d="m228.45,171.98s-.03-.03-.05-.04c-.02,0-.04-.02-.06,0"/>
    <path class="cls-2" d="m171.05,188.63s.03-.06.06-.07"/>
    <path class="cls-2" d="m135.16,156.69s.02,0,.03,0"/>
    <path class="cls-2" d="m189.64,143.63s-.02-.09-.05-.14c-.02-.04-.06-.08-.11-.09"/>
    <path class="cls-2" d="m183.61,142.62s-.02,0-.03,0"/>
    <path class="cls-2" d="m135.1,156.88s0-.07,0-.11c0-.03.02-.07.06-.08"/>
    <path class="cls-2" d="m141.07,157.47s.09.05.11.09c.02.04.04.09.05.14"/>
    <path class="cls-2" d="m176.88,195.2s.06.09.07.14c.01.05.02.11,0,.16"/>
    <line class="cls-2" x1="140.79" y1="78.96" x2="140.27" y2="79.11"/>
    <line class="cls-2" x1="82.34" y1="95.94" x2="82.86" y2="95.78"/>
    <line class="cls-2" x1="196.78" y1="143.26" x2="193.58" y2="144.19"/>
    <line class="cls-2" x1="131.66" y1="148.96" x2="90.5" y2="66.44"/>
    <line class="cls-2" x1="202.25" y1="141.9" x2="193.73" y2="144.37"/>
    <line class="cls-2" x1="190.43" y1="128.18" x2="185.2" y2="129.7"/>
    <line class="cls-2" x1="202.75" y1="141.62" x2="202.23" y2="141.77"/>
    <line class="cls-2" x1="144.3" y1="158.59" x2="144.82" y2="158.44"/>
    <line class="cls-2" x1="119.55" y1="58" x2="145.94" y2="110.9"/>
    <line class="cls-2" x1="182.88" y1="203.6" x2="183.4" y2="203.45"/>
    <line class="cls-2" x1="238.74" y1="193.06" x2="238.74" y2="193.55"/>
    <line class="cls-2" x1="241.34" y1="186.62" x2="241.02" y2="186.71"/>
    <line class="cls-2" x1="183.77" y1="203.26" x2="241" y2="186.64"/>
    <line class="cls-2" x1="176.95" y1="195.34" x2="234.18" y2="178.72"/>
    <line class="cls-2" x1="170.4" y1="187.72" x2="227.64" y2="171.09"/>
    <line class="cls-2" x1="163.86" y1="180.1" x2="221.09" y2="163.47"/>
    <line class="cls-2" x1="157.31" y1="172.47" x2="214.54" y2="155.85"/>
    <line class="cls-2" x1="150.76" y1="164.85" x2="199.18" y2="150.78"/>
    <line class="cls-2" x1="193.37" y1="143.95" x2="144.94" y2="158.02"/>
    <line class="cls-2" x1="189.6" y1="143.49" x2="141.17" y2="157.56"/>
    <line class="cls-2" x1="182.8" y1="142.59" x2="134.38" y2="156.66"/>
    <line class="cls-2" x1="176" y1="141.69" x2="127.58" y2="155.76"/>
    <line class="cls-2" x1="169.21" y1="140.79" x2="120.78" y2="154.86"/>
    <line class="cls-2" x1="112.04" y1="154.07" x2="71.13" y2="72.07"/>
    <line class="cls-2" x1="141.35" y1="146.15" x2="100.18" y2="63.63"/>
    <line class="cls-2" x1="121.98" y1="151.77" x2="80.81" y2="69.25"/>
    <line class="cls-2" x1="151.03" y1="143.34" x2="109.86" y2="60.82"/>
    <line class="cls-2" x1="169.35" y1="137.42" x2="160.63" y2="139.95"/>
    <line class="cls-2" x1="169.18" y1="137.25" x2="160.45" y2="139.79"/>
  </g>
  <path class="cls-2" d="m78.71,152.62c-16.79-9.24-33.58-18.47-50.37-27.71"/>
  <line class="cls-2" x1="32.02" y1="126.93" x2="32.02" y2="49.51"/>
  <path class="cls-2" d="m1.11,156.29c17.31-5.03,34.63-10.06,51.94-15.09"/>
  <line class="cls-2" x1="131.73" y1="224.92" x2="4.96" y2="155.17"/>
  <path class="cls-2" d="m126.93,226.31c17.63-5.12,35.25-10.24,52.88-15.36"/>
  <line class="cls-2" x1="28.54" y1="47.49" x2="65.35" y2="68.75"/>
  <line class="cls-2" x1="243.8" y1="194.25" x2="276.04" y2="211.97"/>
  <polyline class="cls-1" points="31.97 49.54 33.25 54.59 30.78 54.59 31.97 49.54"/>
  <g>
    <g>
      <path class="cls-5" d="m29.15,95.57c-1.6-.18-3.44-1.11-5.51-2.77v3.5h-.72v-4.33h.72c2.22,1.72,4.06,2.65,5.51,2.78v.83Z"/>
      <path class="cls-5" d="m24.98,89.38c0-.64.2-1.17.6-1.58.4-.41.9-.62,1.52-.62s1.13.21,1.53.64c.4.42.6.97.6,1.62,0,.69-.26,1.25-.78,1.68-.52.42-1.21.64-2.07.64-1.12,0-1.98-.27-2.6-.8-.62-.53-.93-1.23-.93-2.09,0-.65.19-1.22.57-1.7l.63.41c-.32.37-.48.81-.48,1.3,0,.6.22,1.1.66,1.5.44.4,1,.61,1.68.62-.28-.14-.51-.36-.68-.65-.17-.29-.25-.62-.25-.97Zm3.12,1.08c.27-.27.4-.61.4-1.03s-.13-.76-.4-1.02-.61-.4-1.02-.41c-.41,0-.75.14-1.01.41s-.4.61-.4,1.03.13.76.4,1.03c.26.27.6.41,1.01.41s.76-.13,1.02-.41Z"/>
      <path class="cls-5" d="m24.98,84.06c0-.64.2-1.17.6-1.58.4-.41.9-.62,1.52-.62s1.13.21,1.53.64c.4.42.6.97.6,1.62,0,.69-.26,1.25-.78,1.68-.52.42-1.21.64-2.07.64-1.12,0-1.98-.27-2.6-.8-.62-.53-.93-1.23-.93-2.09,0-.65.19-1.22.57-1.7l.63.41c-.32.37-.48.81-.48,1.3,0,.6.22,1.1.66,1.5.44.4,1,.61,1.68.62-.28-.14-.51-.36-.68-.65-.17-.29-.25-.62-.25-.97Zm3.12,1.08c.27-.27.4-.61.4-1.03s-.13-.76-.4-1.02-.61-.4-1.02-.41c-.41,0-.75.14-1.01.41s-.4.61-.4,1.03.13.76.4,1.03c.26.27.6.41,1.01.41s.76-.13,1.02-.41Z"/>
    </g>
    <g>
      <path class="cls-5" d="m41.39,96.94c0,.61-.16,1.12-.49,1.53-.33.41-.76.64-1.31.7l-.12-.77c.36-.04.65-.2.86-.46.21-.27.32-.6.32-1,0-.43-.12-.78-.36-1.04-.24-.26-.55-.39-.94-.39s-.72.12-.94.37-.34.58-.34,1.01c0,.25.07.48.2.69l-.52.35-1.95-1.97v3.03h-.72v-3.98h.7l1.73,1.77c-.06-.62.08-1.12.43-1.51.34-.39.82-.59,1.43-.59s1.09.21,1.46.62c.37.41.55.96.55,1.64Z"/>
      <path class="cls-5" d="m41.39,91.56c0,.77-.29,1.35-.86,1.77s-1.35.62-2.33.62-1.75-.21-2.33-.62-.86-1-.86-1.77.29-1.35.86-1.76,1.35-.62,2.32-.62,1.75.21,2.32.62.86,1,.86,1.76Zm-.73,0c0-.49-.22-.87-.66-1.14-.44-.27-1.04-.41-1.8-.41s-1.36.14-1.8.41c-.44.27-.66.65-.66,1.14s.22.89.66,1.16c.44.27,1.04.4,1.81.4s1.36-.13,1.8-.4c.44-.27.66-.65.66-1.16Z"/>
      <path class="cls-5" d="m40.4,88.2v-.87h.93v.87h-.93Z"/>
      <path class="cls-5" d="m41.32,86.45h-.7s-2.02-2.33-2.02-2.33c-.6-.69-1.17-1.04-1.71-1.04-.35,0-.63.11-.84.32-.21.22-.31.51-.31.87,0,.43.14.77.42,1,.28.23.65.32,1.12.28l-.05.78c-.65.05-1.18-.12-1.59-.5-.41-.38-.61-.9-.61-1.55,0-.61.17-1.1.51-1.47.34-.37.79-.56,1.36-.56.38,0,.75.11,1.11.33.36.22.74.57,1.15,1.05l1.44,1.69v-3.07h.73v4.21Z"/>
      <path class="cls-5" d="m35.02,78.62l1.76.48v.98l-1.76-.94v-.52Zm0,1.32l1.76.48v.97l-1.76-.94v-.51Z"/>
    </g>
  </g>
  <polyline class="cls-1" points="32.05 126.87 30.88 122.28 33.13 122.28 32.05 126.87"/>
  <polyline class="cls-1" points="4.97 155.21 10 156.55 8.79 158.71 4.97 155.21"/>
  <polyline class="cls-1" points="131.7 224.91 126.67 223.57 127.88 221.41 131.7 224.91"/>
  <polyline class="cls-1" points="272.38 209.9 273.61 204.84 271.14 204.87 272.38 209.9"/>
  <g>
    <g>
      <path class="cls-5" d="m89.61,20.84c.62-.18,1.18-.13,1.68.14.51.27.84.7,1.01,1.29.17.6.1,1.15-.19,1.65-.3.5-.77.84-1.4,1.02-.67.19-1.28.09-1.83-.29-.55-.38-.94-.99-1.18-1.82-.31-1.07-.29-1.98.06-2.72s.93-1.23,1.75-1.46c.63-.18,1.22-.15,1.79.08l-.22.72c-.45-.21-.91-.24-1.38-.11-.58.16-1,.51-1.26,1.05-.27.54-.31,1.13-.14,1.78.06-.31.21-.59.44-.83.24-.24.52-.41.86-.51Zm-.19,3.29c.33.18.7.22,1.1.1.4-.11.69-.34.87-.67.18-.33.22-.7.11-1.1-.11-.39-.33-.68-.67-.86-.33-.18-.7-.21-1.1-.1-.4.11-.69.33-.88.66-.19.33-.22.69-.11,1.08.11.4.34.69.67.87Z"/>
      <path class="cls-5" d="m94.01,23.93c-.26-1.59.12-3.61,1.16-6.06l-3.37.96-.2-.69,4.17-1.19.2.69c-1.05,2.6-1.44,4.62-1.16,6.06l-.8.23Z"/>
      <path class="cls-5" d="m100.16,22.25c-.74.21-1.38.1-1.93-.34-.55-.44-.96-1.13-1.23-2.07-.27-.94-.28-1.74-.04-2.41.24-.66.73-1.1,1.47-1.31.73-.21,1.37-.09,1.93.35.56.44.97,1.13,1.23,2.06.27.94.28,1.74.04,2.41-.24.67-.73,1.1-1.46,1.31Zm-.2-.7c.47-.13.78-.45.92-.95.14-.5.11-1.11-.1-1.84-.21-.73-.5-1.27-.88-1.62-.38-.35-.81-.46-1.28-.32-.49.14-.8.45-.93.95s-.1,1.11.11,1.85c.21.73.5,1.27.88,1.62.38.35.81.46,1.29.32Z"/>
    </g>
    <g>
      <path class="cls-5" d="m89.25,37.92l-.2-.67,1.7-2.58c.5-.77.68-1.41.53-1.93-.1-.34-.28-.57-.54-.72-.27-.14-.57-.16-.92-.06-.42.12-.7.35-.84.68-.14.33-.13.72.04,1.15l-.77.16c-.22-.61-.21-1.17.05-1.67.26-.5.7-.84,1.33-1.02.59-.17,1.11-.14,1.56.09.45.23.75.61.91,1.15.1.36.1.75-.01,1.16s-.34.87-.7,1.39l-1.23,1.85,2.95-.84.2.7-4.05,1.15Z"/>
      <path class="cls-5" d="m95.11,31.92c.62-.18,1.18-.13,1.68.14.51.27.84.7,1.01,1.29.17.6.1,1.15-.19,1.65-.3.5-.77.84-1.4,1.02-.67.19-1.28.09-1.83-.29-.55-.38-.94-.99-1.18-1.82-.31-1.07-.29-1.98.05-2.72.34-.74.93-1.23,1.75-1.46.63-.18,1.23-.15,1.79.08l-.22.72c-.45-.21-.91-.24-1.38-.11-.58.16-1,.51-1.26,1.05-.27.53-.31,1.13-.14,1.78.06-.31.21-.59.44-.83.24-.24.52-.41.86-.51Zm-.19,3.29c.33.18.7.22,1.1.1.4-.11.69-.34.87-.67.18-.33.22-.7.11-1.1-.11-.39-.33-.68-.67-.86-.33-.18-.7-.21-1.1-.1s-.69.33-.88.66c-.19.33-.23.69-.11,1.08.11.4.34.69.67.87Z"/>
      <path class="cls-5" d="m99.01,34.19l.84-.24.25.89-.84.24-.25-.89Z"/>
      <path class="cls-5" d="m103.69,33.82l-.42-1.46-3.16.9-.2-.7,1.95-4.69.9-.26,1.09,3.83.86-.25.2.7-.86.25.42,1.46-.78.22Zm-2.93-1.51l2.32-.66-.83-2.94-1.48,3.6Z"/>
      <path class="cls-5" d="m105.57,26.73l.02,1.83-.93.27.43-1.95.49-.14Zm1.27-.36l.02,1.83-.94.27.43-1.95.5-.14Z"/>
    </g>
  </g>
  <path class="cls-2" d="m204.93,141.96c23.81,13.01,47.62,26.01,71.44,39.02"/>
  <path class="cls-2" d="m272.38,209.89v-30.93"/>
  <path class="cls-2" d="m67.48,34.69c19.17-5.53,38.34-11.06,57.52-16.59"/>
  <line class="cls-2" x1="67.34" y1="66.96" x2="67.34" y2="30.24"/>
  <line class="cls-2" x1="125.08" y1="51.06" x2="125.08" y2="13.75"/>
  <polyline class="cls-1" points="125.07 18.09 120.54 20.66 119.89 18.28 125.07 18.09"/>
  <polyline class="cls-1" points="67.36 34.7 71.89 32.13 72.54 34.51 67.36 34.7"/>
  <polyline class="cls-1" points="272.38 178.81 271.15 183.87 273.62 183.84 272.38 178.81"/>
  <g>
    <g class="cls-3">
      <path class="cls-4" d="m281.34,199.98h-5.27c.36.39.59.89.7,1.49h-.73c-.14-.65-.47-1.19-1-1.62v-.65h6.3v.77Z"/>
      <path class="cls-4" d="m281.34,198.45h-.71s-2.04-2.36-2.04-2.36c-.61-.7-1.18-1.05-1.73-1.05-.35,0-.64.11-.85.33-.21.22-.31.51-.31.88,0,.44.14.77.43,1.01.29.23.66.33,1.13.28l-.05.79c-.66.05-1.2-.12-1.61-.51-.41-.39-.62-.91-.62-1.57,0-.62.17-1.11.52-1.49s.8-.56,1.37-.56c.38,0,.76.11,1.12.33.37.22.75.58,1.16,1.06l1.46,1.71v-3.1h.74v4.26Z"/>
      <path class="cls-4" d="m280.41,193.23v-.88h.94v.88h-.94Z"/>
      <path class="cls-4" d="m281.34,191.11h-5.27c.36.39.59.89.7,1.49h-.73c-.14-.65-.47-1.19-1-1.62v-.65h6.3v.77Z"/>
      <path class="cls-4" d="m274.97,186.7l1.78.49v.99l-1.78-.95v-.52Zm0,1.33l1.78.49v.98l-1.78-.95v-.51Z"/>
    </g>
    <g class="cls-3">
      <path class="cls-4" d="m269.38,199.21c0,.62-.17,1.13-.5,1.54-.33.41-.77.65-1.32.71l-.12-.77c.37-.04.66-.2.87-.47s.32-.61.32-1.01c0-.44-.12-.79-.36-1.05-.24-.26-.56-.39-.95-.39s-.73.12-.95.37c-.23.25-.34.59-.34,1.03,0,.25.07.48.2.69l-.52.35-1.97-1.99v3.06h-.73v-4.02h.71l1.75,1.79c-.06-.62.08-1.13.43-1.53.35-.4.83-.59,1.45-.59s1.1.21,1.48.63c.37.42.56.97.56,1.66Z"/>
      <path class="cls-4" d="m269.38,193.77c0,.77-.29,1.37-.87,1.79-.58.42-1.36.63-2.35.63s-1.77-.21-2.35-.63c-.58-.42-.87-1.01-.87-1.79s.29-1.36.87-1.78,1.37-.63,2.35-.63,1.77.21,2.35.63.87,1.01.87,1.78Zm-.74,0c0-.5-.22-.88-.67-1.16s-1.05-.41-1.82-.41-1.38.14-1.82.41c-.45.27-.67.66-.67,1.16s.22.9.67,1.17c.44.27,1.05.4,1.83.4s1.37-.13,1.82-.4.67-.66.67-1.17Z"/>
      <path class="cls-4" d="m269.31,190.43c-1.62-.19-3.48-1.12-5.57-2.8v3.54h-.73v-4.38h.73c2.24,1.74,4.1,2.68,5.57,2.81v.84Z"/>
    </g>
  </g>
</svg>