<svg id="Vrstva_1" data-name="Vrstva 1" xmlns="http://www.w3.org/2000/svg" viewBox="0 0 311.81 226.77">
  <defs>
    <style>
      .cls-1, .cls-5 {
        fill: none;
        stroke: #ffffff;
        stroke-linejoin: round;
      }

      .cls-1, .cls-4, .cls-5 {
        stroke-linecap: round;
      }

      .cls-1, .cls-2, .cls-4, .cls-5 {
        stroke-width: .7px;
      }

      .cls-2, .cls-4 {
        fill: #ffffff;
        stroke: #ffffff;
        stroke-miterlimit: 10;
      }

      .cls-3 {
        fill: #24466f;
      }

      .cls-5 {
        stroke-dasharray: 1 1;
      }
    </style>
  </defs>
  <g>
    <path class="cls-1" d="M68.35,128.7A9.53,9.53,0,0,1,65.83,127"/>
    <line class="cls-1" x1="249.4" y1="100.69" x2="78.11" y2="123.81"/>
    <line class="cls-1" x1="259.62" y1="101.78" x2="86.75" y2="125.6"/>
    <line class="cls-1" x1="265.47" y1="101.9" x2="90.24" y2="126.23"/>
    <line class="cls-1" x1="238.77" y1="98.45" x2="238.69" y2="98.79"/>
    <line class="cls-1" x1="239.38" y1="98.7" x2="69.65" y2="120.96"/>
    <line class="cls-1" x1="243.67" y1="99.67" x2="243.67" y2="99.93"/>
    <line class="cls-1" x1="244.43" y1="99.82" x2="73.91" y2="122.53"/>
    <line class="cls-1" x1="248.8" y1="100.6" x2="248.8" y2="100.77"/>
    <line class="cls-1" x1="254.45" y1="101.35" x2="84.42" y2="124.55"/>
    <line class="cls-1" x1="225.05" y1="54.66" x2="224.86" y2="54.75"/>
    <line class="cls-1" x1="227.55" y1="89.97" x2="227.61" y2="90.66"/>
    <line class="cls-1" x1="226.93" y1="82.74" x2="227" y2="83.57"/>
    <line class="cls-1" x1="151.47" y1="76.34" x2="151.39" y2="75.99"/>
    <line class="cls-1" x1="149.75" y1="68.96" x2="149.67" y2="68.64"/>
    <line class="cls-1" x1="223.52" y1="69.08" x2="223.61" y2="69.4"/>
    <line class="cls-1" x1="225.25" y1="75.89" x2="225.34" y2="76.25"/>
    <line class="cls-1" x1="155.52" y1="99.34" x2="155.45" y2="98.6"/>
    <line class="cls-1" x1="154.84" y1="91.68" x2="154.77" y2="90.79"/>
    <line class="cls-1" x1="63.39" y1="93.09" x2="63.3" y2="92.67"/>
    <path class="cls-1" d="M238.74,98.57l.44.16"/>
    <path class="cls-1" d="M243.67,99.78l.43.09"/>
    <line class="cls-1" x1="144.75" y1="69.07" x2="144.82" y2="69.4"/>
    <path class="cls-1" d="M149.89,91.33c0,.22.07.45.09.68"/>
    <line class="cls-1" x1="153.19" y1="83.75" x2="153.1" y2="83.37"/>
    <line class="cls-1" x1="221.8" y1="62.29" x2="221.88" y2="62.58"/>
    <line class="cls-1" x1="249.4" y1="100.69" x2="253.85" y2="101.28"/>
    <line class="cls-1" x1="253.85" y1="101.28" x2="253.85" y2="101.43"/>
    <line class="cls-1" x1="259.62" y1="101.78" x2="264.2" y2="101.97"/>
    <line class="cls-1" x1="264.2" y1="101.97" x2="264.21" y2="102.07"/>
    <line class="cls-1" x1="266.4" y1="102.02" x2="266.89" y2="109"/>
    <path class="cls-1" d="M265.85,109.28c.17,0,.36,0,.54-.09l.26-.06.13,0,.05,0,0,0s0,0,0,0,0,0,0,0"/>
    <path class="cls-1" d="M265.47,101.9a3.62,3.62,0,0,1,.47,0l.24,0,.12,0,0,0h.05v0"/>
    <line class="cls-1" x1="239.38" y1="98.7" x2="243.67" y2="99.67"/>
    <line class="cls-1" x1="60.03" y1="76.89" x2="59.95" y2="76.54"/>
    <line class="cls-1" x1="258.97" y1="101.74" x2="258.98" y2="101.87"/>
    <path class="cls-1" d="M248.8,100.74l.12,0"/>
    <line class="cls-1" x1="65.77" y1="110.15" x2="65.69" y2="109.34"/>
    <line class="cls-1" x1="65.01" y1="101.78" x2="64.93" y2="100.8"/>
    <line class="cls-1" x1="146.46" y1="76.46" x2="146.54" y2="76.81"/>
    <line class="cls-1" x1="148.18" y1="83.88" x2="148.26" y2="84.26"/>
    <line class="cls-1" x1="61.7" y1="84.97" x2="61.62" y2="84.59"/>
    <line class="cls-1" x1="244.43" y1="99.82" x2="248.8" y2="100.6"/>
    <path class="cls-1" d="M150.69,99.17l.12.74"/>
    <line class="cls-1" x1="254.45" y1="101.35" x2="258.97" y2="101.74"/>
    <path class="cls-1" d="M55.88,65a3,3,0,0,1,1.49-.53"/>
    <path class="cls-1" d="M52.7,67.28a2.88,2.88,0,0,0-1.05,1.45,3.44,3.44,0,0,0-.09,1.8"/>
    <line class="cls-1" x1="52.7" y1="67.28" x2="55.88" y2="64.99"/>
    <path class="cls-1" d="M221.9,51.87a2.19,2.19,0,0,1,1.1.21,3.15,3.15,0,0,1,.93.64,4.09,4.09,0,0,1,1.12,1.94"/>
    <line class="cls-1" x1="57.37" y1="64.46" x2="221.9" y2="51.87"/>
    <path class="cls-1" d="M232.25,87.61a17.22,17.22,0,0,0,1.14,4.86,15.06,15.06,0,0,0,1.11,2.24,11.76,11.76,0,0,0,1.53,2"/>
    <line class="cls-1" x1="231.8" y1="82.31" x2="232.25" y2="87.61"/>
    <path class="cls-1" d="M231.64,81.38a5.83,5.83,0,0,1,.16.93"/>
    <line class="cls-1" x1="224.86" y1="54.75" x2="231.64" y2="81.38"/>
    <path class="cls-1" d="M60.53,117.6a31.28,31.28,0,0,0,2.12,5A17.93,17.93,0,0,0,65.83,127"/>
    <line class="cls-1" x1="51.56" y1="70.53" x2="57.87" y2="101.23"/>
    <path class="cls-1" d="M57.87,101.23c.07.36.12.73.16,1.1"/>
    <line class="cls-1" x1="58.03" y1="102.33" x2="58.51" y2="107.66"/>
    <path class="cls-1" d="M58.51,107.66a44.42,44.42,0,0,0,2,9.94"/>
    <line class="cls-1" x1="149.98" y1="92.01" x2="150" y2="92.22"/>
    <line class="cls-1" x1="86.22" y1="136.15" x2="86.21" y2="135.14"/>
    <line class="cls-1" x1="86.22" y1="136.15" x2="86.28" y2="136.15"/>
    <line class="cls-1" x1="86.26" y1="135.13" x2="86.21" y2="135.14"/>
    <path class="cls-1" d="M86.28,136.15a14.21,14.21,0,0,0,1.81-.38,5.19,5.19,0,0,0,.86-.31l.23-.12a.88.88,0,0,0,.17-.12.81.81,0,0,0,.18-.19.41.41,0,0,0,0-.19"/>
    <line class="cls-1" x1="66.05" y1="67.45" x2="55.26" y2="68.32"/>
    <line class="cls-1" x1="55.45" y1="69.26" x2="55.52" y2="69.26"/>
    <line class="cls-1" x1="66.26" y1="67.49" x2="66.41" y2="68.2"/>
    <path class="cls-1" d="M66.26,67.49s0,0,0,0h-.17"/>
    <line class="cls-1" x1="149.98" y1="92.01" x2="150" y2="92.22"/>
    <path class="cls-1" d="M58.51,107.66a44.42,44.42,0,0,0,2,9.94"/>
    <line class="cls-1" x1="58.03" y1="102.33" x2="58.51" y2="107.66"/>
    <path class="cls-1" d="M57.87,101.23c.07.36.12.73.16,1.1"/>
    <line class="cls-1" x1="51.56" y1="70.53" x2="57.87" y2="101.23"/>
    <line class="cls-1" x1="54.58" y1="68.37" x2="51.56" y2="70.53"/>
    <line class="cls-1" x1="54.58" y1="68.37" x2="55.26" y2="68.32"/>
    <path class="cls-1" d="M60.53,117.6a31.28,31.28,0,0,0,2.12,5A17.93,17.93,0,0,0,65.83,127"/>
    <line class="cls-1" x1="224.86" y1="54.75" x2="231.64" y2="81.38"/>
    <path class="cls-1" d="M231.64,81.38a5.83,5.83,0,0,1,.16.93"/>
    <line class="cls-1" x1="231.32" y1="82.36" x2="231.39" y2="83.16"/>
    <line class="cls-1" x1="231.8" y1="82.31" x2="232.25" y2="87.61"/>
    <path class="cls-1" d="M232.25,87.61a17.22,17.22,0,0,0,1.14,4.86,15.06,15.06,0,0,0,1.11,2.24,11.76,11.76,0,0,0,1.53,2"/>
    <line class="cls-1" x1="57.37" y1="64.46" x2="221.9" y2="51.87"/>
    <path class="cls-1" d="M221.9,51.87a2.19,2.19,0,0,1,1.1.21,3.15,3.15,0,0,1,.93.64,4.09,4.09,0,0,1,1.12,1.94"/>
    <line class="cls-1" x1="52.7" y1="67.28" x2="55.88" y2="64.99"/>
    <path class="cls-1" d="M52.7,67.28a2.88,2.88,0,0,0-1.05,1.45,3.44,3.44,0,0,0-.09,1.8"/>
    <path class="cls-1" d="M55.88,65a3,3,0,0,1,1.49-.53"/>
    <line class="cls-1" x1="54.74" y1="68.26" x2="225.05" y2="54.66"/>
    <path class="cls-1" d="M54.74,68.26a3.48,3.48,0,0,1,.08-1.81A2.91,2.91,0,0,1,55.88,65"/>
    <line class="cls-1" x1="54.58" y1="68.37" x2="54.74" y2="68.26"/>
    <line class="cls-1" x1="89.57" y1="134.46" x2="89.58" y2="134.84"/>
    <path class="cls-1" d="M89.05,134.39a6.17,6.17,0,0,1-1.37.47c-.46.11-1,.2-1.42.27"/>
    <line class="cls-1" x1="62.45" y1="102.17" x2="62.08" y2="102.18"/>
    <line class="cls-1" x1="234.29" y1="95.73" x2="234.02" y2="95.95"/>
    <line class="cls-1" x1="63.18" y1="110.46" x2="63.01" y2="110.67"/>
    <line class="cls-1" x1="82.38" y1="124.83" x2="82.41" y2="125.31"/>
    <line class="cls-1" x1="254.45" y1="101.35" x2="258.97" y2="101.74"/>
    <path class="cls-1" d="M150.69,99.17l.12.74"/>
    <line class="cls-1" x1="62.82" y1="109.64" x2="63.12" y2="109.64"/>
    <line class="cls-1" x1="65.26" y1="117.25" x2="65.3" y2="117.2"/>
    <line class="cls-1" x1="86.24" y1="125.98" x2="86.21" y2="125.52"/>
    <line class="cls-1" x1="61.89" y1="107.65" x2="61.32" y2="101.33"/>
    <line class="cls-1" x1="65.3" y1="117.2" x2="234.29" y2="95.73"/>
    <line class="cls-1" x1="252.09" y1="111.62" x2="251.44" y2="111.72"/>
    <line class="cls-1" x1="151.5" y1="60.62" x2="142.67" y2="61.33"/>
    <line class="cls-1" x1="142.22" y1="61.45" x2="140.98" y2="62.18"/>
    <path class="cls-1" d="M142.67,61.33a.93.93,0,0,0-.23,0l-.22.08"/>
    <line class="cls-1" x1="151.65" y1="60.65" x2="151.81" y2="61.3"/>
    <path class="cls-1" d="M151.65,60.65s0,0,0,0h-.12"/>
    <line class="cls-1" x1="77.6" y1="123.67" x2="73.91" y2="122.53"/>
    <line class="cls-1" x1="244.43" y1="99.82" x2="248.8" y2="100.6"/>
    <line class="cls-1" x1="57.48" y1="77.12" x2="57.13" y2="77.36"/>
    <line class="cls-1" x1="226.32" y1="62.19" x2="227.84" y2="68.17"/>
    <line class="cls-1" x1="59.16" y1="85.22" x2="58.8" y2="85.45"/>
    <line class="cls-1" x1="228.05" y1="68.97" x2="229.58" y2="74.98"/>
    <line class="cls-1" x1="86.22" y1="136.15" x2="85.31" y2="136.29"/>
    <line class="cls-1" x1="85.31" y1="136.29" x2="68.47" y2="130.19"/>
    <path class="cls-1" d="M216.6,55.41l-.22,0-.21.08"/>
    <line class="cls-1" x1="224.38" y1="54.79" x2="216.6" y2="55.41"/>
    <line class="cls-1" x1="224.38" y1="54.79" x2="224.55" y2="55.43"/>
    <line class="cls-1" x1="216.17" y1="55.53" x2="214.83" y2="56.22"/>
    <line class="cls-1" x1="251.4" y1="111.72" x2="251.44" y2="111.72"/>
    <line class="cls-1" x1="61.7" y1="84.97" x2="61.62" y2="84.59"/>
    <line class="cls-1" x1="73.91" y1="122.53" x2="73.92" y2="123.03"/>
    <line class="cls-1" x1="58.96" y1="84.26" x2="57.48" y2="77.12"/>
    <line class="cls-1" x1="60.64" y1="92.4" x2="59.16" y2="85.22"/>
    <line class="cls-1" x1="68.47" y1="130.19" x2="68.44" y2="128.74"/>
    <line class="cls-1" x1="148.18" y1="83.88" x2="148.26" y2="84.26"/>
    <line class="cls-1" x1="146.46" y1="76.46" x2="146.54" y2="76.81"/>
    <line class="cls-1" x1="229.53" y1="75" x2="229.73" y2="75.79"/>
    <line class="cls-1" x1="227.8" y1="68.2" x2="228" y2="68.98"/>
    <line class="cls-1" x1="65.01" y1="101.78" x2="64.93" y2="100.8"/>
    <line class="cls-1" x1="65.77" y1="110.15" x2="65.69" y2="109.34"/>
    <line class="cls-1" x1="58.6" y1="84.5" x2="58.96" y2="84.26"/>
    <line class="cls-1" x1="60.28" y1="92.63" x2="60.64" y2="92.4"/>
    <line class="cls-1" x1="86.21" y1="135.14" x2="86.19" y2="133.97"/>
    <line class="cls-1" x1="85.26" y1="133.81" x2="85.31" y2="136.29"/>
    <line class="cls-1" x1="77.61" y1="124.15" x2="77.6" y2="123.67"/>
    <path class="cls-1" d="M248.8,100.74l.12,0"/>
    <line class="cls-1" x1="63.12" y1="109.64" x2="62.45" y2="102.17"/>
    <line class="cls-1" x1="65.3" y1="117.2" x2="63.18" y2="110.46"/>
    <line class="cls-1" x1="258.97" y1="101.74" x2="258.98" y2="101.87"/>
    <line class="cls-1" x1="60.03" y1="76.89" x2="59.95" y2="76.54"/>
    <line class="cls-1" x1="252.09" y1="111.62" x2="252.09" y2="111.31"/>
    <line class="cls-1" x1="239.38" y1="98.7" x2="243.67" y2="99.67"/>
    <line class="cls-1" x1="55.81" y1="69.05" x2="55.52" y2="69.26"/>
    <line class="cls-1" x1="224.6" y1="55.43" x2="226.12" y2="61.39"/>
    <line class="cls-1" x1="65.67" y1="117.38" x2="65.61" y2="117.87"/>
    <path class="cls-1" d="M265.47,101.9a3.62,3.62,0,0,1,.47,0l.24,0,.12,0,0,0h.05v0"/>
    <path class="cls-1" d="M265.85,109.28c.17,0,.36,0,.54-.09l.26-.06.13,0,.05,0,0,0s0,0,0,0,0,0,0,0"/>
    <path class="cls-1" d="M90.9,134.6a10.45,10.45,0,0,0,1.37,0c.45,0,.93,0,1.38-.06.88-.06,1.86-.16,2.73-.29"/>
    <line class="cls-1" x1="266.4" y1="102.02" x2="266.89" y2="109"/>
    <path class="cls-1" d="M266.4,102s0,0,0,0h0l0,0,0,0-.13,0-.27.06c-.17,0-.35.06-.53.09"/>
    <line class="cls-1" x1="264.2" y1="101.97" x2="264.21" y2="102.07"/>
    <line class="cls-1" x1="259.62" y1="101.78" x2="264.2" y2="101.97"/>
    <line class="cls-1" x1="253.85" y1="101.28" x2="253.85" y2="101.43"/>
    <line class="cls-1" x1="249.4" y1="100.69" x2="253.85" y2="101.28"/>
    <line class="cls-1" x1="90.66" y1="126.17" x2="90.65" y2="126.05"/>
    <line class="cls-1" x1="90.65" y1="126.05" x2="86.75" y2="125.6"/>
    <line class="cls-1" x1="89.75" y1="126.58" x2="90.26" y2="126.51"/>
    <line class="cls-1" x1="89.75" y1="126.58" x2="90.27" y2="126.63"/>
    <line class="cls-1" x1="90.9" y1="134.6" x2="90.37" y2="134.55"/>
    <line class="cls-1" x1="60.84" y1="93.36" x2="60.48" y2="93.58"/>
    <line class="cls-1" x1="229.78" y1="75.78" x2="231.32" y2="81.82"/>
    <line class="cls-1" x1="227.33" y1="82.7" x2="227.4" y2="83.52"/>
    <line class="cls-1" x1="225" y1="61.95" x2="225.09" y2="62.3"/>
    <line class="cls-1" x1="222.22" y1="62.25" x2="222.29" y2="62.54"/>
    <line class="cls-1" x1="221.8" y1="62.29" x2="221.88" y2="62.58"/>
    <path class="cls-1" d="M95.73,125.91c-.88.12-1.86.21-2.74.27-.46,0-.92.06-1.38.07s-1,0-1.37,0"/>
    <line class="cls-1" x1="150.63" y1="91.25" x2="150.71" y2="92.14"/>
    <line class="cls-1" x1="153.19" y1="83.75" x2="153.1" y2="83.37"/>
    <line class="cls-1" x1="145.53" y1="69" x2="145.61" y2="69.33"/>
    <line class="cls-1" x1="151.01" y1="91.2" x2="151.09" y2="92.1"/>
    <line class="cls-1" x1="145.92" y1="68.97" x2="146" y2="69.29"/>
    <line class="cls-1" x1="81.87" y1="124.72" x2="78.11" y2="123.81"/>
    <line class="cls-1" x1="226.93" y1="82.74" x2="227" y2="83.57"/>
    <path class="cls-1" d="M149.89,91.33c0,.22.07.45.09.68"/>
    <line class="cls-1" x1="144.75" y1="69.07" x2="144.82" y2="69.4"/>
    <path class="cls-1" d="M243.67,99.78l.43.09"/>
    <path class="cls-1" d="M231.26,81.84a4.6,4.6,0,0,1,.06.52"/>
    <path class="cls-1" d="M238.74,98.57l.44.16"/>
    <path class="cls-1" d="M262.89,102.16l.56,0"/>
    <line class="cls-1" x1="63.39" y1="93.09" x2="63.3" y2="92.67"/>
    <path class="cls-1" d="M248,111.92c.56,0,1.13,0,1.69,0s1.14-.08,1.69-.16"/>
    <line class="cls-1" x1="226.07" y1="61.42" x2="226.27" y2="62.19"/>
    <path class="cls-1" d="M238.69,98.78h0"/>
    <line class="cls-1" x1="251.44" y1="111.41" x2="251.44" y2="111.72"/>
    <line class="cls-1" x1="154.84" y1="91.68" x2="154.77" y2="90.79"/>
    <line class="cls-1" x1="155.52" y1="99.34" x2="155.45" y2="98.6"/>
    <line class="cls-1" x1="73.27" y1="122.81" x2="73.27" y2="122.31"/>
    <line class="cls-1" x1="56.93" y1="76.41" x2="57.28" y2="76.17"/>
    <line class="cls-1" x1="81.89" y1="125.2" x2="81.87" y2="124.72"/>
    <line class="cls-1" x1="230.2" y1="83.22" x2="230.12" y2="82.35"/>
    <line class="cls-1" x1="230.8" y1="90.28" x2="230.74" y2="89.59"/>
    <line class="cls-1" x1="228.44" y1="75.51" x2="228.55" y2="75.91"/>
    <line class="cls-1" x1="226.72" y1="68.72" x2="226.81" y2="69.09"/>
    <line class="cls-1" x1="225.67" y1="75.85" x2="225.76" y2="76.2"/>
    <line class="cls-1" x1="223.94" y1="69.04" x2="224.02" y2="69.36"/>
    <line class="cls-1" x1="225.25" y1="75.89" x2="225.34" y2="76.25"/>
    <line class="cls-1" x1="223.52" y1="69.08" x2="223.61" y2="69.4"/>
    <line class="cls-1" x1="151.32" y1="99.09" x2="151.38" y2="99.84"/>
    <line class="cls-1" x1="149.75" y1="68.96" x2="149.67" y2="68.64"/>
    <line class="cls-1" x1="151.47" y1="76.34" x2="151.39" y2="75.99"/>
    <line class="cls-1" x1="148.96" y1="83.8" x2="149.05" y2="84.18"/>
    <line class="cls-1" x1="147.24" y1="76.39" x2="147.33" y2="76.74"/>
    <line class="cls-1" x1="149.35" y1="83.76" x2="149.44" y2="84.14"/>
    <line class="cls-1" x1="147.63" y1="76.35" x2="147.71" y2="76.7"/>
    <line class="cls-1" x1="227.55" y1="89.97" x2="227.61" y2="90.66"/>
    <path class="cls-1" d="M90.37,134.55a76.72,76.72,0,0,1-22-5.85"/>
    <path class="cls-1" d="M69,121.2a74,74,0,0,0,21.27,5.27"/>
    <path class="cls-1" d="M89.75,126.58a73.43,73.43,0,0,1-21.44-5.29"/>
    <line class="cls-1" x1="61.83" y1="100.15" x2="55.26" y2="68.32"/>
    <line class="cls-1" x1="61.16" y1="100.23" x2="54.58" y2="68.37"/>
    <path class="cls-1" d="M62,101.26a10.25,10.25,0,0,0-.17-1.11"/>
    <path class="cls-1" d="M61.32,101.33a10,10,0,0,0-.16-1.1"/>
    <line class="cls-1" x1="62.56" y1="107.57" x2="62" y2="101.26"/>
    <path class="cls-1" d="M69,121.2a5.15,5.15,0,0,1-.8-.43,5.63,5.63,0,0,1-.81-.65,6.86,6.86,0,0,1-.64-.68,9.77,9.77,0,0,1-.63-.81,16.52,16.52,0,0,1-1.81-3.46,25.21,25.21,0,0,1-1.13-3.74,29.53,29.53,0,0,1-.61-3.86"/>
    <path class="cls-1" d="M68.31,121.29a4.73,4.73,0,0,1-.8-.43,6.4,6.4,0,0,1-.81-.65,8.18,8.18,0,0,1-.64-.68,9.77,9.77,0,0,1-.63-.81,17,17,0,0,1-1.81-3.46,26,26,0,0,1-1.13-3.74,29.92,29.92,0,0,1-.6-3.87"/>
    <path class="cls-1" d="M253.19,101.37l.58.07"/>
    <line class="cls-1" x1="224.38" y1="54.79" x2="224.86" y2="54.75"/>
    <path class="cls-1" d="M231.85,88.38a17.49,17.49,0,0,0,1,4,13.89,13.89,0,0,0,2,3.57"/>
    <line class="cls-1" x1="225.05" y1="54.66" x2="224.86" y2="54.75"/>
    <line class="cls-1" x1="63.12" y1="109.64" x2="231.94" y2="89.45"/>
    <line class="cls-1" x1="231.41" y1="83.16" x2="62.45" y2="102.17"/>
    <line class="cls-1" x1="230.04" y1="83.23" x2="231.41" y2="83.16"/>
    <line class="cls-1" x1="231.41" y1="83.16" x2="231.94" y2="89.45"/>
    <line class="cls-1" x1="231.99" y1="90.13" x2="63.18" y2="110.46"/>
    <line class="cls-1" x1="231.99" y1="90.13" x2="234.29" y2="95.73"/>
    <line class="cls-1" x1="86.21" y1="125.52" x2="258.97" y2="101.74"/>
    <line class="cls-1" x1="254.45" y1="101.35" x2="84.42" y2="124.55"/>
    <line class="cls-1" x1="86.21" y1="125.52" x2="82.38" y2="124.83"/>
    <line class="cls-1" x1="248.8" y1="100.6" x2="248.8" y2="100.77"/>
    <line class="cls-1" x1="77.6" y1="123.67" x2="248.8" y2="100.6"/>
    <line class="cls-1" x1="244.43" y1="99.82" x2="73.91" y2="122.53"/>
    <line class="cls-1" x1="226.57" y1="68.78" x2="58.68" y2="84.87"/>
    <line class="cls-1" x1="227.84" y1="68.17" x2="226.57" y2="68.78"/>
    <line class="cls-1" x1="58.96" y1="84.26" x2="227.84" y2="68.17"/>
    <line class="cls-1" x1="226.32" y1="62.19" x2="57.48" y2="77.12"/>
    <line class="cls-1" x1="228.3" y1="75.58" x2="60.35" y2="92.98"/>
    <line class="cls-1" x1="229.58" y1="74.98" x2="228.3" y2="75.58"/>
    <line class="cls-1" x1="60.64" y1="92.4" x2="229.58" y2="74.98"/>
    <line class="cls-1" x1="228.05" y1="68.97" x2="59.16" y2="85.22"/>
    <line class="cls-1" x1="243.67" y1="99.67" x2="243.67" y2="99.93"/>
    <line class="cls-1" x1="73.27" y1="122.31" x2="243.67" y2="99.67"/>
    <line class="cls-1" x1="69.65" y1="120.96" x2="69.65" y2="121.47"/>
    <line class="cls-1" x1="239.38" y1="98.7" x2="69.65" y2="120.96"/>
    <line class="cls-1" x1="73.27" y1="122.31" x2="69.65" y2="120.96"/>
    <line class="cls-1" x1="224.85" y1="62.02" x2="57.01" y2="76.8"/>
    <line class="cls-1" x1="226.12" y1="61.39" x2="224.85" y2="62.02"/>
    <line class="cls-1" x1="57.28" y1="76.17" x2="226.12" y2="61.39"/>
    <line class="cls-1" x1="224.6" y1="55.43" x2="55.81" y2="69.05"/>
    <line class="cls-1" x1="57.28" y1="76.17" x2="55.81" y2="69.05"/>
    <line class="cls-1" x1="69.05" y1="121.22" x2="69.12" y2="120.63"/>
    <line class="cls-1" x1="238.77" y1="98.45" x2="238.69" y2="98.79"/>
    <line class="cls-1" x1="69.12" y1="120.63" x2="238.77" y2="98.45"/>
    <line class="cls-1" x1="234.74" y1="95.86" x2="65.67" y2="117.38"/>
    <line class="cls-1" x1="69.12" y1="120.63" x2="65.67" y2="117.38"/>
    <line class="cls-1" x1="234.74" y1="95.86" x2="238.77" y2="98.45"/>
    <line class="cls-1" x1="96.38" y1="134.29" x2="265.85" y2="109.28"/>
    <line class="cls-1" x1="90.24" y1="126.23" x2="90.9" y2="134.6"/>
    <line class="cls-1" x1="265.47" y1="101.9" x2="90.24" y2="126.23"/>
    <line class="cls-1" x1="265.36" y1="102.28" x2="95.73" y2="125.91"/>
    <line class="cls-1" x1="90.65" y1="126.05" x2="264.2" y2="101.97"/>
    <line class="cls-1" x1="86.75" y1="125.6" x2="86.79" y2="126.06"/>
    <line class="cls-1" x1="259.62" y1="101.78" x2="86.75" y2="125.6"/>
    <line class="cls-1" x1="84.03" y1="124.42" x2="253.85" y2="101.28"/>
    <line class="cls-1" x1="78.11" y1="123.81" x2="78.13" y2="124.29"/>
    <line class="cls-1" x1="249.4" y1="100.69" x2="78.11" y2="123.81"/>
    <line class="cls-1" x1="90.37" y1="134.55" x2="89.75" y2="126.58"/>
    <line class="cls-1" x1="227.95" y1="89.92" x2="228.01" y2="90.61"/>
    <line class="cls-1" x1="61.94" y1="100.8" x2="62.33" y2="100.57"/>
    <line class="cls-1" x1="230.03" y1="82.4" x2="61.98" y2="101.13"/>
    <line class="cls-1" x1="231.32" y1="81.82" x2="230.03" y2="82.4"/>
    <line class="cls-1" x1="62.33" y1="100.57" x2="231.32" y2="81.82"/>
    <line class="cls-1" x1="229.78" y1="75.78" x2="60.84" y2="93.36"/>
    <line class="cls-1" x1="62.33" y1="100.57" x2="60.84" y2="93.36"/>
    <line class="cls-1" x1="81.87" y1="124.72" x2="84.03" y2="124.42"/>
    <line class="cls-1" x1="84.42" y1="124.55" x2="82.38" y2="124.83"/>
    <line class="cls-1" x1="230.04" y1="83.23" x2="62.07" y2="102.11"/>
    <line class="cls-1" x1="151.7" y1="99.05" x2="151.76" y2="99.79"/>
  </g>
  <line class="cls-1" x1="224.22" y1="22.22" x2="267.55" y2="25.83"/>
  <line class="cls-1" x1="19.8" y1="115.77" x2="19.8" y2="57.89"/>
  <line class="cls-1" x1="46.83" y1="63.28" x2="15.39" y2="56.9"/>
  <line class="cls-1" x1="62.92" y1="128.83" x2="15.51" y2="114.51"/>
  <line class="cls-1" x1="50.95" y1="30.67" x2="221.26" y2="22.41"/>
  <line class="cls-1" x1="50.86" y1="62.81" x2="50.86" y2="26.49"/>
  <line class="cls-1" x1="223.8" y1="47.49" x2="223.8" y2="18.07"/>
  <polyline class="cls-2" points="223.76 22.19 218.14 21.07 218.28 23.85 223.76 22.19"/>
  <polyline class="cls-2" points="223.76 22.15 229.41 21.19 229.2 23.96 223.76 22.15"/>
  <polyline class="cls-2" points="267.71 25.86 262.06 26.82 262.27 24.05 267.71 25.86"/>
  <polyline class="cls-2" points="50.87 30.74 56.49 31.83 56.34 29.05 50.87 30.74"/>
  <polyline class="cls-2" points="19.84 57.85 18.43 63.41 21.21 63.42 19.84 57.85"/>
  <polyline class="cls-2" points="19.8 115.78 21.21 110.23 18.43 110.22 19.8 115.78"/>
  <g>
    <g>
      <path class="cls-3" d="M241,16.4a2.24,2.24,0,0,1,1.55.74,2,2,0,0,1,.5,1.58,2.08,2.08,0,0,1-.77,1.5,2.37,2.37,0,0,1-1.69.47,2.09,2.09,0,0,1-1.63-.93,3.19,3.19,0,0,1-.48-2.14,4,4,0,0,1,1-2.56,2.67,2.67,0,0,1,2.19-.76,2.7,2.7,0,0,1,1.67.71l-.47.61a1.93,1.93,0,0,0-1.27-.6,2,2,0,0,0-1.57.55,2.46,2.46,0,0,0-.76,1.64,1.62,1.62,0,0,1,.71-.63A1.9,1.9,0,0,1,241,16.4Zm-1.35,3.06a1.46,1.46,0,0,0,1,.49,1.41,1.41,0,0,0,1.56-1.32,1.37,1.37,0,0,0-.32-1.06,1.47,1.47,0,0,0-1-.48,1.42,1.42,0,0,0-1.07.32,1.32,1.32,0,0,0-.49,1A1.38,1.38,0,0,0,239.64,19.46Z"/>
      <path class="cls-3" d="M244.07,20.9a11.65,11.65,0,0,1,3.25-5.34l-3.53-.29.06-.72,4.38.35-.06.73c-1.93,2.1-3,3.88-3.26,5.34Z"/>
      <path class="cls-3" d="M248,21.22l0-.71,2.53-1.85a2.48,2.48,0,0,0,1.2-1.64,1.1,1.1,0,0,0-.26-.87,1.39,1.39,0,0,0-1.89,0,1.53,1.53,0,0,0-.38,1.11l-.78-.12a2,2,0,0,1,.64-1.57,2.34,2.34,0,0,1,3.06.15,1.76,1.76,0,0,1,.45,1.42,2.11,2.11,0,0,1-.42,1.09A4.93,4.93,0,0,1,251,19.26l-1.82,1.31,3.1.26-.06.73Z"/>
    </g>
    <g>
      <path class="cls-3" d="M234.26,32.26l.05-.71,2.53-1.85A2.44,2.44,0,0,0,238,28.06a1.13,1.13,0,0,0-.26-.87,1.2,1.2,0,0,0-.85-.39,1.25,1.25,0,0,0-1,.35,1.44,1.44,0,0,0-.37,1.1l-.79-.12A2,2,0,0,1,237,26.07a2.15,2.15,0,0,1,1.45.64,1.84,1.84,0,0,1,.45,1.42,2.1,2.1,0,0,1-.43,1.1,5.05,5.05,0,0,1-1.15,1.07l-1.83,1.32,3.1.25-.06.74Z"/>
      <path class="cls-3" d="M242,28.64a2.2,2.2,0,0,1,1.54.74A2,2,0,0,1,244,31a2,2,0,0,1-.76,1.5,2.38,2.38,0,0,1-1.69.47,2.08,2.08,0,0,1-1.63-.93,3.19,3.19,0,0,1-.48-2.14,3.94,3.94,0,0,1,1-2.56,2.67,2.67,0,0,1,2.19-.76,2.7,2.7,0,0,1,1.67.71l-.47.61a2,2,0,0,0-1.27-.6,2,2,0,0,0-1.57.55,2.46,2.46,0,0,0-.76,1.64,1.62,1.62,0,0,1,.71-.63A1.9,1.9,0,0,1,242,28.64Zm-1.35,3.06a1.53,1.53,0,0,0,2.07.17,1.45,1.45,0,0,0,.5-1,1.4,1.4,0,0,0-1.33-1.54,1.42,1.42,0,0,0-1.07.32,1.36,1.36,0,0,0-.5,1A1.42,1.42,0,0,0,240.61,31.7Z"/>
      <path class="cls-3" d="M244.85,32.18l.89.07-.08.94-.88-.07Z"/>
      <path class="cls-3" d="M248.67,33.51a2.45,2.45,0,0,1-1.49-.6,1.94,1.94,0,0,1-.64-1.32l.78-.07a1.25,1.25,0,0,0,.42.86,1.55,1.55,0,0,0,1,.39,1.33,1.33,0,0,0,1-.31,1.45,1.45,0,0,0,.46-1,1.38,1.38,0,0,0-.31-1.06,1.46,1.46,0,0,0-1-.47,1.58,1.58,0,0,0-1.46.64l-.58-.17.78-3.39,3.35.27-.06.73-2.75-.22-.43,1.86a1.87,1.87,0,0,1,.63-.32,1.78,1.78,0,0,1,.71-.09,2.15,2.15,0,0,1,1.53.71,2,2,0,0,1,.48,1.58,2.15,2.15,0,0,1-.73,1.52A2.21,2.21,0,0,1,248.67,33.51Z"/>
      <path class="cls-3" d="M253.21,27.4l-.63,1.74-1-.08,1.1-1.7Zm1.33.11-.63,1.74-1-.08,1.1-1.71Z"/>
    </g>
  </g>
  <g>
    <g>
      <path class="cls-3" d="M16.73,91.21a2.41,2.41,0,0,1-.48,1.53,1.87,1.87,0,0,1-1.26.74l-.14-.76a1.29,1.29,0,0,0,.83-.49,1.57,1.57,0,0,0,.31-1,1.34,1.34,0,0,0-.39-1,1.46,1.46,0,0,0-1-.37,1.36,1.36,0,0,0-1,.39,1.45,1.45,0,0,0-.38,1.08,1.59,1.59,0,0,0,.75,1.4l-.12.59-3.44-.49V89.45h.73v2.76l1.9.27a1.67,1.67,0,0,1-.38-.6,1.76,1.76,0,0,1-.15-.7A2.21,2.21,0,0,1,13,89.6a2.06,2.06,0,0,1,1.54-.6,2.13,2.13,0,0,1,1.58.6A2.22,2.22,0,0,1,16.73,91.21Z"/>
      <path class="cls-3" d="M16.66,87.24H11.37a2.84,2.84,0,0,1,.7,1.5h-.73a2.78,2.78,0,0,0-1-1.62v-.65h6.32Z"/>
      <path class="cls-3" d="M16.73,83.23a2.41,2.41,0,0,1-.48,1.53A1.87,1.87,0,0,1,15,85.5l-.14-.77a1.22,1.22,0,0,0,.83-.49,1.54,1.54,0,0,0,.31-1,1.34,1.34,0,0,0-.39-1,1.46,1.46,0,0,0-1-.37,1.36,1.36,0,0,0-1,.39,1.45,1.45,0,0,0-.38,1.08,1.57,1.57,0,0,0,.75,1.39l-.12.6-3.44-.5V81.47h.73v2.76l1.9.27a1.67,1.67,0,0,1-.38-.6,1.8,1.8,0,0,1-.15-.7A2.21,2.21,0,0,1,13,81.62a2.06,2.06,0,0,1,1.54-.6,2.13,2.13,0,0,1,1.58.6A2.22,2.22,0,0,1,16.73,83.23Z"/>
    </g>
    <g>
      <path class="cls-3" d="M28.78,97.66h-.72L26,95.3a2.5,2.5,0,0,0-1.74-1.06,1.11,1.11,0,0,0-.84.33,1.24,1.24,0,0,0-.32.88,1.21,1.21,0,0,0,.43,1,1.45,1.45,0,0,0,1.13.28l-.05.8A2,2,0,0,1,23,97a2.36,2.36,0,0,1-.1-3.07,1.76,1.76,0,0,1,1.37-.56,2.14,2.14,0,0,1,1.13.33,5,5,0,0,1,1.17,1.06L28,96.51V93.4h.74Z"/>
      <path class="cls-3" d="M28.85,90.1A2.08,2.08,0,0,1,28,91.89a4,4,0,0,1-2.36.62,4,4,0,0,1-2.36-.62,2.28,2.28,0,0,1,0-3.58,4,4,0,0,1,2.36-.63,3.92,3.92,0,0,1,2.35.63A2.07,2.07,0,0,1,28.85,90.1Zm-.74,0a1.28,1.28,0,0,0-.67-1.16,3.39,3.39,0,0,0-1.82-.41,3.45,3.45,0,0,0-1.83.41,1.35,1.35,0,0,0,0,2.33,3.5,3.5,0,0,0,1.83.4,3.48,3.48,0,0,0,1.82-.4A1.28,1.28,0,0,0,28.11,90.1Z"/>
      <path class="cls-3" d="M27.84,86.69v-.88h.94v.88Z"/>
      <path class="cls-3" d="M28.85,82.71a2.37,2.37,0,0,1-.5,1.54A1.86,1.86,0,0,1,27,85l-.12-.77a1.22,1.22,0,0,0,.87-.47,1.55,1.55,0,0,0,.33-1,1.49,1.49,0,0,0-.36-1,1.25,1.25,0,0,0-1-.4,1.23,1.23,0,0,0-.95.37,1.46,1.46,0,0,0-.35,1,1.3,1.3,0,0,0,.2.7l-.52.35-2-2v3.06h-.73v-4h.72l1.75,1.8A1.91,1.91,0,0,1,25.36,81a1.81,1.81,0,0,1,1.45-.59,1.91,1.91,0,0,1,1.48.62A2.44,2.44,0,0,1,28.85,82.71Z"/>
      <path class="cls-3" d="M22.39,76.91l1.79.49v1l-1.79-1Zm0,1.33,1.79.49v1l-1.79-.95Z"/>
    </g>
  </g>
  <line class="cls-4" x1="267.65" y1="21.56" x2="267.65" y2="103.15"/>
  <g>
    <g>
      <path class="cls-3" d="M132.6,24.11l-.26-5.27a2.79,2.79,0,0,1-1.45.77l0-.73a2.75,2.75,0,0,0,1.57-1.07l.65,0,.3,6.29Z"/>
      <path class="cls-3" d="M136.63,24a2.49,2.49,0,0,1-1.65-.43,1.68,1.68,0,0,1-.7-1.34,1.66,1.66,0,0,1,.28-1,1.68,1.68,0,0,1,.83-.65,1.63,1.63,0,0,1-.7-.51,1.38,1.38,0,0,1-.29-.76,1.51,1.51,0,0,1,.49-1.23,2.47,2.47,0,0,1,2.87-.14,1.54,1.54,0,0,1,.6,1.17,1.34,1.34,0,0,1-.22.79,1.5,1.5,0,0,1-.64.58,1.7,1.7,0,0,1,.89.56,1.61,1.61,0,0,1,.37,1,1.71,1.71,0,0,1-.55,1.4A2.42,2.42,0,0,1,136.63,24Zm0-.71a1.5,1.5,0,0,0,1-.37,1.15,1.15,0,0,0-.08-1.71,1.82,1.82,0,0,0-2.06.1,1.07,1.07,0,0,0-.34.87,1.06,1.06,0,0,0,.43.84A1.59,1.59,0,0,0,136.59,23.27Zm-.14-3.06a1.19,1.19,0,0,0,.82-.31.92.92,0,0,0,.29-.73.9.9,0,0,0-.35-.71,1.3,1.3,0,0,0-.86-.22,1.36,1.36,0,0,0-.87.31.88.88,0,0,0-.28.73.94.94,0,0,0,.37.71A1.31,1.31,0,0,0,136.45,20.21Z"/>
      <path class="cls-3" d="M142,23.72a2.07,2.07,0,0,1-1.83-.78,3.93,3.93,0,0,1-.73-2.32,4,4,0,0,1,.5-2.38,2.26,2.26,0,0,1,3.57-.17,3.85,3.85,0,0,1,.74,2.31,3.92,3.92,0,0,1-.51,2.38A2.08,2.08,0,0,1,142,23.72Zm0-.74a1.28,1.28,0,0,0,1.12-.72,3.46,3.46,0,0,0,.32-1.84,3.49,3.49,0,0,0-.5-1.8,1.35,1.35,0,0,0-2.32.11,3.5,3.5,0,0,0-.32,1.85,3.49,3.49,0,0,0,.49,1.79A1.29,1.29,0,0,0,141.94,23Z"/>
      <path class="cls-3" d="M147.52,23.45a2.06,2.06,0,0,1-1.83-.78,4,4,0,0,1-.74-2.32,3.92,3.92,0,0,1,.51-2.38A2.26,2.26,0,0,1,149,17.8a4,4,0,0,1,.74,2.31,3.92,3.92,0,0,1-.51,2.38A2.11,2.11,0,0,1,147.52,23.45Zm0-.74A1.26,1.26,0,0,0,148.6,22a3.37,3.37,0,0,0,.32-1.84,3.5,3.5,0,0,0-.49-1.8,1.3,1.3,0,0,0-1.19-.61,1.32,1.32,0,0,0-1.14.72,3.49,3.49,0,0,0-.31,1.85,3.43,3.43,0,0,0,.49,1.79A1.28,1.28,0,0,0,147.48,22.71Z"/>
    </g>
    <g>
      <path class="cls-3" d="M132,36.08a11.67,11.67,0,0,1,2.52-5.71l-3.53.18,0-.73,4.38-.21,0,.72Q132.9,33.82,132.8,36Z"/>
      <path class="cls-3" d="M138.41,35.83a2.06,2.06,0,0,1-1.83-.78,4,4,0,0,1-.74-2.32,3.92,3.92,0,0,1,.51-2.38,2,2,0,0,1,1.74-1,2.07,2.07,0,0,1,1.83.78,4,4,0,0,1,.74,2.32,3.91,3.91,0,0,1-.51,2.37A2.06,2.06,0,0,1,138.41,35.83Zm0-.73a1.29,1.29,0,0,0,1.12-.73,3.31,3.31,0,0,0,.32-1.83,3.44,3.44,0,0,0-.49-1.8,1.35,1.35,0,0,0-2.33.11,3.45,3.45,0,0,0-.31,1.84,3.44,3.44,0,0,0,.49,1.8A1.3,1.3,0,0,0,138.37,35.1Z"/>
      <path class="cls-3" d="M141.75,34.66l.88,0,0,.93-.88.05Z"/>
      <path class="cls-3" d="M145.78,33.32a2.16,2.16,0,0,1-1.62-.53,2.2,2.2,0,0,1-.14-3.08,2.32,2.32,0,0,1,1.62-.68,2.08,2.08,0,0,1,1.73.7,3.21,3.21,0,0,1,.74,2.06,3.89,3.89,0,0,1-.67,2.66,2.66,2.66,0,0,1-2.07,1,2.7,2.7,0,0,1-1.74-.49l.38-.66a2.07,2.07,0,0,0,2.82-.32,2.53,2.53,0,0,0,.54-1.73,1.57,1.57,0,0,1-.63.72A1.85,1.85,0,0,1,145.78,33.32Zm.94-3.21a1.41,1.41,0,0,0-1.06-.35,1.36,1.36,0,0,0-1,.46,1.38,1.38,0,0,0-.36,1.05,1.36,1.36,0,0,0,.45,1,1.55,1.55,0,0,0,2.08-.1,1.36,1.36,0,0,0,.36-1A1.4,1.4,0,0,0,146.72,30.11Z"/>
      <path class="cls-3" d="M150.15,28.81l-.4,1.8-1,.05.87-1.83Zm1.33-.07-.4,1.81-1,0,.87-1.82Z"/>
    </g>
  </g>
  <g>
    <line class="cls-5" x1="56.12" y1="127.86" x2="16.87" y2="132.93"/>
    <line class="cls-5" x1="36.44" y1="205.11" x2="296.32" y2="151.72"/>
    <line class="cls-5" x1="36.44" y1="205.11" x2="296.32" y2="151.72"/>
    <line class="cls-5" x1="38.59" y1="149.82" x2="296.36" y2="110.28"/>
    <line class="cls-5" x1="56.12" y1="127.86" x2="16.87" y2="132.93"/>
    <line class="cls-5" x1="265.49" y1="96.7" x2="244.24" y2="99.8"/>
    <line class="cls-5" x1="65.4" y1="126.66" x2="60.8" y2="127.17"/>
  </g>
</svg>
