<?xml version="1.0" encoding="UTF-8"?>
<svg id="Vrstva_1" data-name="Vrstva 1" xmlns="http://www.w3.org/2000/svg" viewBox="0 0 226.77 226.77">
  <defs>
    <style>
      .cls-1 {
        isolation: isolate;
      }

      .cls-2 {
        fill: #ffffff;
        stroke: #ffffff;
        stroke-miterlimit: 10;
      }

      .cls-2, .cls-3 {
        stroke-width: .7px;
      }

      .cls-3 {
        fill: none;
        stroke: #ffffff;
        stroke-linecap: round;
        stroke-linejoin: round;
      }

      .cls-4 {
        fill: #24466f;
      }
    </style>
  </defs>
  <line class="cls-3" x1="143.83" y1="20.58" x2="143.83" y2="21.48"/>
  <path class="cls-3" d="m98.31,20.9c0,.09.02.18.06.26.04.09.1.18.16.26.08.1.17.18.26.26.12.09.24.18.37.26.18.11.37.21.57.29.23.1.47.2.7.28.85.31,1.82.55,2.7.74,1.77.38,3.74.64,5.53.83"/>
  <path class="cls-3" d="m98.16,20.9c0-.1.02-.21.06-.3.05-.11.11-.21.19-.3.09-.11.2-.2.32-.29.14-.1.28-.2.43-.28.17-.1.35-.19.53-.27.21-.09.42-.18.63-.26.49-.18.99-.34,1.49-.47.64-.17,1.29-.32,1.95-.46.8-.16,1.6-.3,2.41-.43,2.85-.44,5.97-.71,8.85-.86,2.93-.16,5.95-.21,8.89-.17,2.91.04,5.97.19,8.88.47"/>
  <line class="cls-3" x1="98.18" y1="21.81" x2="98.16" y2="20.9"/>
  <path class="cls-3" d="m108.59,24.11c3.88.4,8.11.56,12,.55,3.91-.02,8.11-.2,12-.62,1.09-.12,2.17-.25,3.25-.42.9-.14,1.8-.3,2.69-.49.38-.08.76-.17,1.14-.26.33-.08.66-.17.99-.27.29-.09.57-.18.86-.28.25-.09.5-.19.75-.3.21-.09.42-.2.62-.31.17-.1.33-.2.48-.33.12-.1.23-.21.32-.34.07-.1.13-.22.15-.34.02-.12,0-.24-.03-.35-.05-.13-.12-.25-.21-.35-.12-.13-.26-.24-.4-.34-.18-.13-.38-.24-.58-.33-.24-.12-.49-.22-.75-.32-.3-.11-.6-.21-.9-.3-.35-.1-.69-.2-1.05-.28-.39-.1-.78-.18-1.17-.26-.94-.19-1.89-.35-2.84-.48-1.03-.15-2.07-.26-3.11-.37"/>
  <path class="cls-3" d="m108.67,24.08c2.92.31,6.03.47,8.97.52,2.97.06,6.02.01,8.99-.14,2.91-.15,6.06-.41,8.94-.85.82-.12,1.63-.26,2.44-.42.66-.13,1.32-.28,1.97-.46.51-.14,1.03-.29,1.52-.48.21-.08.43-.16.64-.26.18-.08.36-.17.54-.27.15-.08.3-.18.43-.28.11-.08.22-.18.32-.29.08-.09.15-.19.2-.29.04-.09.07-.19.07-.3"/>
  <path class="cls-3" d="m108.59,24.11c-1.81-.19-3.79-.46-5.57-.83-.88-.19-1.86-.43-2.72-.74-.24-.09-.48-.18-.71-.29-.2-.09-.39-.19-.57-.3-.13-.08-.25-.16-.37-.26-.1-.08-.19-.16-.27-.26-.07-.08-.12-.17-.16-.26-.03-.08-.06-.17-.06-.26"/>
  <path class="cls-3" d="m95.41,20.96c0,.1.02.2.06.29.04.11.11.2.18.29.09.11.19.2.3.29.13.11.27.2.41.29.21.12.42.23.64.33.26.12.52.22.79.32.95.34,2.04.62,3.03.83,1.99.42,4.2.72,6.22.94"/>
  <path class="cls-3" d="m80.07,23.14s.01.06.03.08c.03.03.06.06.09.08.06.04.13.07.19.09.13.05.28.09.41.12.27.06.57.1.85.13"/>
  <path class="cls-3" d="m107.04,24.54c3.3.35,6.81.53,10.12.59,3.35.06,6.8.01,10.14-.16,3.28-.17,6.84-.47,10.1-.96.92-.14,1.84-.29,2.75-.48.74-.15,1.49-.32,2.22-.51.31-.08.61-.17.91-.26.27-.08.54-.18.81-.27.24-.09.48-.18.72-.29.21-.09.41-.19.61-.3.17-.1.33-.2.49-.31.13-.1.25-.2.36-.32.09-.1.17-.21.22-.33.05-.11.07-.22.07-.34"/>
  <path class="cls-3" d="m81.65,23.63c15.44,1.64,30.89,3.28,46.33,4.92"/>
  <path class="cls-3" d="m127.97,27.79c-15.45-1.63-30.89-3.26-46.34-4.89"/>
  <path class="cls-3" d="m127.98,28.56c.85.09,1.81.11,2.67.08.44-.02.89-.05,1.33-.1.41-.05.92-.12,1.31-.24"/>
  <path class="cls-3" d="m133.28,28.29c9.04-2.78,18.07-5.57,27.11-8.35"/>
  <path class="cls-3" d="m160.39,19.94c.09-.03.18-.06.26-.1.06-.03.18-.1.18-.19"/>
  <path class="cls-3" d="m160.28,147.53c0,.26-.24.46-.43.58"/>
  <path class="cls-3" d="m84.94,155.39c-.3-.07-.63-.16-.9-.3-.14-.07-.28-.16-.4-.27-.11-.11-.21-.25-.21-.41"/>
  <line class="cls-3" x1="160.43" y1="19.93" x2="159.9" y2="147.55"/>
  <line class="cls-3" x1="133.07" y1="28.35" x2="133.88" y2="164.33"/>
  <line class="cls-3" x1="107.67" y1="26.4" x2="109.73" y2="160.66"/>
  <line class="cls-3" x1="80.35" y1="70.37" x2="84.79" y2="68.76"/>
  <line class="cls-3" x1="78.76" y1="32.67" x2="83.88" y2="31.23"/>
  <line class="cls-3" x1="83.84" y1="154.36" x2="81.69" y2="69.89"/>
  <line class="cls-3" x1="147.9" y1="23.79" x2="147.95" y2="155.43"/>
  <line class="cls-3" x1="83.7" y1="23.85" x2="86.9" y2="155.66"/>
  <path class="cls-3" d="m98.17,21.75s0,.02.01.02c.01.02.03.04.04.05.06.06.13.12.2.17.11.08.23.15.35.21.16.09.32.16.49.23.19.08.37.15.56.22.22.08.44.15.67.22.81.25,1.7.45,2.53.61,1.66.33,3.47.57,5.16.75"/>
  <path class="cls-3" d="m96.35,21.84c0-.19.03-.38.09-.56.06-.17.14-.33.24-.48.1-.15.22-.27.34-.4.13-.12.27-.23.42-.34.33-.23.69-.41,1.05-.58.44-.2.89-.36,1.35-.51.33-.11.67-.21,1-.3.37-.1.74-.19,1.12-.28.85-.2,1.71-.36,2.56-.51,3.06-.52,6.48-.84,9.57-1.02.79-.05,1.59-.09,2.38-.12.81-.03,1.62-.06,2.43-.07,1.6-.04,3.21-.04,4.81-.02,3.15.04,6.47.19,9.61.49"/>
  <path class="cls-3" d="m108.18,24.24c2.94.31,6.07.47,9.02.54,2.99.06,6.06.03,9.04-.11,2.94-.13,6.09-.38,9-.78.8-.11,1.59-.23,2.38-.37.36-.06.72-.13,1.07-.2.17-.03.34-.07.51-.11.16-.04.32-.07.48-.11.32-.07.64-.15.95-.24.28-.08.56-.16.84-.25.25-.08.49-.16.73-.25.2-.08.41-.16.6-.25.16-.07.32-.15.47-.24.11-.07.22-.14.33-.22.04-.03.07-.06.11-.09.02-.02.05-.05.07-.07.01-.01.03-.03.04-.05,0,0,0,0,0-.01,0,0,0,0,0,0h0"/>
  <path class="cls-3" d="m133.33,17.16c1.14.11,2.28.24,3.41.4,1.12.16,2.28.36,3.38.6,1.06.23,2.28.55,3.29.98.14.06.29.13.43.19.13.06.26.13.39.21.23.13.46.29.66.46.21.18.4.39.54.64.15.26.23.54.23.84"/>
  <path class="cls-3" d="m98.08,19.69c-.47.17-.98.37-1.42.62-.39.21-.94.56-1.15,1.01"/>
  <path class="cls-3" d="m143.89,19.37c.48.16.98.36,1.43.59.39.21.95.55,1.16.99"/>
  <path class="cls-3" d="m96.38,22.13c-.02-.1-.03-.19-.03-.29"/>
  <path class="cls-3" d="m143.69,20.58c0-.1-.02-.19-.06-.27-.04-.1-.1-.19-.17-.27-.08-.1-.18-.19-.29-.27-.13-.1-.26-.19-.4-.27-.2-.11-.4-.21-.61-.3-.24-.11-.49-.2-.75-.29-.9-.31-1.93-.56-2.86-.75-1.87-.38-3.95-.65-5.85-.83"/>
  <path class="cls-3" d="m132.71,17.32c-2.88-.28-5.92-.42-8.82-.47-2.92-.04-5.92,0-8.83.16-2.86.15-5.96.42-8.79.86-.8.12-1.6.26-2.39.42-.65.13-1.3.28-1.93.45-.5.13-1,.29-1.48.47-.21.08-.42.16-.62.25-.18.08-.36.17-.53.27-.15.08-.29.17-.43.28-.11.09-.22.18-.31.29-.08.09-.15.19-.19.29-.04.09-.06.19-.06.3"/>
  <path class="cls-3" d="m146.57,20.59c0-.11-.02-.21-.06-.31-.05-.11-.12-.22-.19-.31-.09-.11-.21-.21-.32-.31-.14-.11-.29-.21-.45-.3-.22-.13-.45-.24-.68-.34-.28-.12-.56-.23-.85-.33-1.02-.35-2.18-.63-3.23-.85-2.12-.43-4.47-.73-6.62-.93"/>
  <path class="cls-3" d="m134.15,16.92c-3.25-.31-6.67-.47-9.93-.52-3.29-.05-6.67.01-9.95.19-3.22.17-6.71.48-9.9.97-.9.14-1.8.3-2.7.48-.73.15-1.46.32-2.18.51-.56.15-1.13.33-1.67.53-.24.09-.47.18-.7.29-.2.09-.4.19-.6.3-.17.1-.33.2-.48.31-.13.1-.25.2-.35.32-.09.1-.16.21-.21.33-.05.11-.07.22-.07.34"/>
  <path class="cls-3" d="m133.28,27.53c-.39.12-.9.2-1.31.24-.44.05-.89.08-1.33.1-.86.03-1.81.01-2.67-.08"/>
  <path class="cls-3" d="m160.4,19.23l-27.12,8.3"/>
  <path class="cls-3" d="m81.63,22.9c-.27-.03-.58-.07-.84-.13-.13-.03-.28-.07-.41-.11-.07-.02-.13-.05-.19-.09-.03-.02-.07-.05-.09-.08-.02-.02-.03-.05-.03-.08"/>
  <line class="cls-3" x1="134.14" y1="28.03" x2="134.89" y2="163.75"/>
  <line class="cls-3" x1="106.16" y1="26.24" x2="108.29" y2="160.34"/>
  <line class="cls-3" x1="148.77" y1="23.52" x2="148.79" y2="154.9"/>
  <line class="cls-3" x1="82.22" y1="23.7" x2="82.42" y2="31.64"/>
  <line class="cls-3" x1="143.69" y1="20.58" x2="143.69" y2="21.02"/>
  <path class="cls-3" d="m160.84,18.94c0,.09-.12.16-.18.19-.08.04-.17.07-.26.1"/>
  <line class="cls-3" x1="160.84" y1="18.94" x2="160.84" y2="19.65"/>
  <path class="cls-3" d="m80.05,22.4c0-.07.06-.13.11-.16.05-.04.12-.07.18-.1.12-.05.26-.09.39-.13"/>
  <line class="cls-3" x1="80.07" y1="23.14" x2="80.05" y2="22.4"/>
  <path class="cls-3" d="m158.98,18.4c.32.03.67.07.99.14.16.03.33.07.48.12.08.03.16.06.23.1.04.02.09.05.12.09.02.02.04.05.04.09"/>
  <path class="cls-3" d="m114.83,14.19c14.72,1.4,29.44,2.81,44.15,4.21"/>
  <path class="cls-3" d="m110.04,14.4c.36-.09.81-.16,1.18-.19.4-.04.8-.07,1.2-.08.77-.03,1.63-.01,2.4.06"/>
  <path class="cls-3" d="m80.73,22.02c9.77-2.54,19.54-5.08,29.31-7.62"/>
  <line class="cls-3" x1="83.35" y1="69.28" x2="85.49" y2="155.31"/>
  <line class="cls-3" x1="109.41" y1="139.82" x2="109.41" y2="139.82"/>
  <line class="cls-3" x1="147.95" y1="154.73" x2="148.79" y2="154.9"/>
  <line class="cls-3" x1="133.87" y1="163.53" x2="134.89" y2="163.75"/>
  <path class="cls-3" d="m159.9,146.97c.17.12.38.31.38.56"/>
  <path class="cls-3" d="m83.56,154.73c-.07.1-.12.21-.11.34"/>
  <path class="cls-3" d="m160.28,148.17c0-.12-.05-.23-.12-.32"/>
  <line class="cls-3" x1="160.28" y1="147.53" x2="160.28" y2="148.17"/>
  <path class="cls-3" d="m83.43,154.4c0-.26.21-.47.39-.6"/>
  <path class="cls-3" d="m83.45,155.07c0,.17.1.31.21.42.11.11.26.2.39.27.28.14.6.24.91.3"/>
  <line class="cls-3" x1="83.45" y1="155.07" x2="83.43" y2="154.4"/>
  <path class="cls-3" d="m84.96,156.05c14.7,3.23,29.39,6.46,44.09,9.69"/>
  <path class="cls-3" d="m129.05,165.05c-14.7-3.22-29.4-6.44-44.1-9.66"/>
  <path class="cls-3" d="m129.05,165.74c.82.18,1.74.22,2.57.15.42-.03.86-.1,1.27-.2.39-.1.85-.25,1.19-.47"/>
  <path class="cls-3" d="m134.08,164.53c-.35.22-.8.37-1.19.47-.41.1-.85.17-1.27.2-.83.07-1.75.03-2.57-.15"/>
  <path class="cls-3" d="m134.09,165.22c8.59-5.49,17.18-10.98,25.77-16.47"/>
  <path class="cls-3" d="m159.85,148.11c-8.59,5.48-17.18,10.95-25.77,16.43"/>
  <path class="cls-3" d="m159.85,148.75c.19-.12.42-.32.42-.58"/>
  <path class="cls-3" d="m159.9,147.55c0,.24-.22.42-.38.52"/>
  <line class="cls-3" x1="148.79" y1="154.9" x2="159.51" y2="148.07"/>
  <path class="cls-3" d="m133.69,164.45c-.31.2-.72.34-1.07.42-.37.09-.76.15-1.15.18-.75.06-1.58.02-2.31-.14"/>
  <line class="cls-3" x1="133.88" y1="164.33" x2="133.69" y2="164.45"/>
  <line class="cls-3" x1="109.73" y1="160.66" x2="129.16" y2="164.91"/>
  <line class="cls-3" x1="83.88" y1="31.47" x2="79.37" y2="32.74"/>
  <line class="cls-3" x1="80.73" y1="32.12" x2="80.5" y2="23.43"/>
  <path class="cls-3" d="m79.9,69.81c0,.11.02.24.07.34.04.1.13.21.25.23"/>
  <path class="cls-3" d="m79.62,70.3c-.12-.02-.21-.13-.25-.23-.05-.11-.07-.23-.07-.35"/>
  <path class="cls-3" d="m80.22,70.39s.09,0,.13-.01"/>
  <line class="cls-3" x1="80.22" y1="70.39" x2="79.62" y2="70.3"/>
  <line class="cls-3" x1="79.3" y1="69.72" x2="78.35" y2="33.53"/>
  <line class="cls-3" x1="78.96" y1="33.6" x2="79.9" y2="69.81"/>
  <path class="cls-3" d="m78.35,33.53c0-.17.02-.34.09-.49.03-.08.07-.15.13-.22.05-.06.12-.12.2-.15"/>
  <path class="cls-3" d="m79.37,32.74c-.08.02-.15.08-.2.14-.05.06-.09.14-.13.22-.06.15-.09.33-.09.49"/>
  <path class="cls-3" d="m85.2,155.25c-.27-.06-.57-.15-.81-.27-.12-.06-.25-.14-.36-.24-.1-.1-.19-.22-.19-.37"/>
  <line class="cls-3" x1="85.49" y1="155.31" x2="85.2" y2="155.25"/>
  <line class="cls-3" x1="85.49" y1="155.31" x2="86.87" y2="154.55"/>
  <line class="cls-3" x1="134.89" y1="163.75" x2="147.95" y2="155.43"/>
  <line class="cls-3" x1="86.9" y1="155.66" x2="108.29" y2="160.34"/>
  <line class="cls-3" x1="108.29" y1="160.34" x2="109.72" y2="159.5"/>
  <path class="cls-3" d="m145.66,21.49c0,.1,0,.19-.03.29"/>
  <path class="cls-3" d="m98.18,21.81s0-.04-.01-.06"/>
  <path class="cls-3" d="m143.84,21.42s0,0,0,0t0,0s0,0,0,0c0,0,0,0,0,0,0,0,0,0,0,.01,0,.01,0,.02,0,.03"/>
  <line class="cls-3" x1="76.92" y1="22.08" x2="30.35" y2="17.24"/>
  <line class="cls-3" x1="78.8" y1="154.7" x2="34.3" y2="144.93"/>
  <line class="cls-3" x1="34.74" y1="17.76" x2="38.58" y2="145.86"/>
  <line class="cls-3" x1="183.18" y1="178.1" x2="213.52" y2="158.31"/>
  <line class="cls-3" x1="96.86" y1="189.17" x2="44.74" y2="177.68"/>
  <line class="cls-3" x1="80.12" y1="157" x2="40.9" y2="179.97"/>
  <line class="cls-3" x1="130.27" y1="168.32" x2="92.14" y2="192.19"/>
  <line class="cls-3" x1="136.01" y1="167.67" x2="188.91" y2="179.42"/>
  <line class="cls-3" x1="164.3" y1="148.28" x2="218.04" y2="159.21"/>
  <polyline class="cls-2" points="34.72 17.74 36.3 23.24 33.53 23.33 34.72 17.74"/>
  <polyline class="cls-2" points="38.57 145.85 36.97 140.36 39.74 140.26 38.57 145.85"/>
  <polyline class="cls-2" points="44.73 177.74 50.44 177.5 49.88 180.22 44.73 177.74"/>
  <polyline class="cls-2" points="96.84 189.11 91.12 189.29 91.71 186.58 96.84 189.11"/>
  <polyline class="cls-2" points="213.53 158.32 209.61 162.48 208.11 160.15 213.53 158.32"/>
  <polyline class="cls-2" points="183.18 178.1 187.09 173.92 188.59 176.25 183.18 178.1"/>
  <g>
    <g class="cls-1">
      <path class="cls-4" d="m62.01,190.87l1.11-5.16c-.46.27-.99.39-1.61.37l.15-.71c.66,0,1.26-.21,1.79-.64l.63.14-1.32,6.16-.76-.16Z"/>
      <path class="cls-4" d="m65.82,191.76c-.6-.13-1.07-.4-1.4-.81-.33-.41-.47-.89-.41-1.44l.78.05c-.04.37.06.68.27.95.22.27.53.44.92.53.43.09.8.05,1.1-.13s.5-.46.58-.85c.09-.4.03-.74-.16-1.01-.19-.27-.5-.46-.93-.55-.25-.05-.49-.04-.72.05l-.23-.58,2.36-1.51-2.99-.64.15-.71,3.93.84-.15.7-2.12,1.33c.62.07,1.09.32,1.41.74.31.42.41.94.28,1.54-.13.6-.43,1.04-.92,1.31-.49.28-1.07.34-1.74.2Z"/>
      <path class="cls-4" d="m69.24,191.46l.86.19-.2.91-.86-.18.2-.92Z"/>
      <path class="cls-4" d="m71.29,192.86l1.11-5.16c-.46.27-.99.39-1.61.37l.15-.71c.66,0,1.26-.21,1.79-.64l.63.13-1.32,6.16-.76-.16Z"/>
      <path class="cls-4" d="m75.79,187.31l-.85,1.64-.96-.21,1.31-1.54.5.11Zm1.3.28l-.85,1.64-.97-.21,1.31-1.54.51.11Z"/>
    </g>
    <g class="cls-1">
      <path class="cls-4" d="m65.78,179.47c-.6-.13-1.07-.4-1.4-.81-.33-.41-.47-.89-.41-1.44l.78.05c-.04.37.06.68.27.95.22.27.53.44.92.53.43.09.8.05,1.1-.13.31-.18.5-.46.58-.85.09-.4.03-.74-.16-1.01-.19-.27-.5-.46-.93-.55-.25-.05-.49-.04-.72.05l-.23-.58,2.36-1.51-2.99-.64.15-.71,3.93.84-.15.7-2.12,1.33c.62.07,1.09.32,1.41.74.31.42.41.94.28,1.54-.13.6-.44,1.04-.92,1.31-.49.28-1.07.34-1.74.2Z"/>
      <path class="cls-4" d="m70.8,180.54c-.6-.13-1.07-.4-1.4-.81s-.47-.89-.41-1.44l.78.05c-.04.37.06.68.27.95.22.27.53.44.92.53.43.09.8.05,1.1-.13.31-.18.5-.46.58-.85.09-.4.03-.74-.16-1.01-.19-.27-.5-.46-.93-.55-.25-.05-.49-.04-.72.05l-.23-.58,2.36-1.51-2.99-.64.15-.71,3.93.84-.15.7-2.12,1.33c.62.07,1.09.32,1.41.74.31.42.41.94.28,1.54-.13.6-.43,1.04-.92,1.31-.49.28-1.07.34-1.74.2Z"/>
      <path class="cls-4" d="m73.6,181.07l.14-.7,2.74-1.5c.81-.45,1.28-.94,1.39-1.47.07-.35.03-.64-.14-.9-.17-.25-.43-.42-.79-.49-.43-.09-.79-.02-1.07.21s-.46.58-.51,1.05l-.76-.22c.09-.66.37-1.14.83-1.47.46-.32,1.02-.42,1.67-.28.6.13,1.05.4,1.35.82.29.42.38.9.26,1.46-.08.38-.27.72-.56,1.03-.29.31-.72.61-1.28.91l-1.98,1.07,3.04.65-.15.72-4.16-.89Z"/>
    </g>
  </g>
  <g>
    <g class="cls-1">
      <path class="cls-4" d="m197.68,179.76l-2.89-4.41c-.13.52-.42.98-.87,1.41l-.4-.61c.47-.47.73-1.04.81-1.72l.54-.35,3.45,5.27-.65.42Z"/>
      <path class="cls-4" d="m200.99,177.68c-.52.34-1.04.48-1.56.43-.53-.05-.96-.29-1.32-.72l.58-.52c.24.28.53.44.87.47.35.03.69-.06,1.02-.28.37-.24.59-.53.68-.87.09-.34.02-.68-.2-1.01-.22-.34-.5-.54-.83-.6-.33-.06-.68.04-1.05.28-.21.14-.37.32-.47.54l-.58-.24.59-2.74-2.56,1.67-.4-.61,3.37-2.2.39.59-.54,2.44c.49-.39,1-.55,1.52-.48.52.07.95.37,1.29.89.33.51.43,1.04.29,1.58-.15.54-.51,1-1.08,1.38Z"/>
      <path class="cls-4" d="m203.19,175.04l.74-.48.51.78-.74.48-.51-.78Z"/>
      <path class="cls-4" d="m205.62,174.57l-2.89-4.41c-.13.51-.42.98-.87,1.41l-.4-.61c.47-.47.74-1.04.81-1.72l.54-.35,3.45,5.27-.65.42Z"/>
      <path class="cls-4" d="m204.84,167.46l.57,1.76-.82.54-.18-2.01.43-.28Zm1.11-.73l.57,1.76-.83.54-.18-2.01.44-.29Z"/>
    </g>
    <g class="cls-1">
      <path class="cls-4" d="m192.23,169.06c-.52.34-1.04.48-1.56.43-.52-.05-.96-.29-1.32-.72l.58-.52c.24.28.53.44.87.47.34.03.68-.06,1.02-.28.37-.24.59-.53.68-.88.09-.34.02-.68-.2-1.01-.22-.34-.5-.54-.83-.6-.33-.06-.68.04-1.05.28-.21.14-.37.32-.47.54l-.58-.25.59-2.74-2.56,1.67-.4-.61,3.37-2.2.39.6-.54,2.44c.49-.39,1-.55,1.52-.48.52.08.95.37,1.29.89.33.51.43,1.04.29,1.58-.15.54-.51,1-1.09,1.38Z"/>
      <path class="cls-4" d="m196.53,166.25c-.52.34-1.04.48-1.56.43-.52-.05-.96-.29-1.32-.72l.58-.52c.24.28.53.44.87.47.34.03.69-.06,1.02-.28.37-.24.59-.53.68-.88s.02-.68-.19-1.01c-.22-.34-.5-.54-.83-.6-.33-.06-.68.04-1.05.28-.21.14-.37.32-.47.54l-.58-.24.59-2.74-2.56,1.67-.4-.61,3.37-2.2.39.59-.54,2.44c.49-.39,1-.55,1.52-.48.52.08.95.37,1.29.89.33.51.43,1.04.29,1.58-.15.54-.51,1-1.09,1.38Z"/>
      <path class="cls-4" d="m198.87,164.63l-.4-.59.86-3.01c.26-.89.23-1.57-.06-2.02-.19-.3-.44-.47-.74-.53s-.6.02-.91.22c-.37.24-.57.54-.61.91-.04.37.09.73.39,1.1l-.69.39c-.4-.53-.55-1.07-.46-1.63.1-.56.42-1.02.97-1.38.52-.34,1.03-.47,1.53-.38.5.08.91.36,1.22.84.21.32.32.7.34,1.12.01.43-.07.95-.25,1.55l-.63,2.16,2.6-1.7.4.62-3.56,2.33Z"/>
    </g>
  </g>
  <g>
    <g class="cls-1">
      <path class="cls-4" d="m46.11,91.85c.02.62-.14,1.14-.46,1.56-.32.42-.75.67-1.3.74l-.14-.77c.37-.05.65-.22.86-.49s.31-.61.3-1.02c-.01-.44-.14-.79-.39-1.04-.25-.25-.57-.38-.96-.37-.41.01-.72.14-.94.39-.22.25-.33.6-.32,1.04,0,.25.08.48.22.69l-.51.37-2.02-1.94.08,3.06-.73.02-.11-4.02.71-.02,1.79,1.75c-.08-.62.05-1.14.39-1.54.34-.41.82-.62,1.43-.63.61-.02,1.11.18,1.49.59.38.41.58.96.6,1.65Z"/>
      <path class="cls-4" d="m45.97,86.41c.02.77-.25,1.38-.82,1.81-.57.43-1.35.66-2.34.69-.99.03-1.78-.16-2.37-.56-.59-.4-.89-.99-.92-1.76-.02-.77.25-1.37.83-1.8.57-.43,1.35-.67,2.33-.69s1.77.17,2.37.57c.59.41.9.99.92,1.76Zm-.74.02c-.01-.5-.24-.88-.7-1.14-.45-.26-1.06-.38-1.83-.36-.77.02-1.37.17-1.81.46-.44.29-.65.68-.64,1.17.01.51.25.89.7,1.15.45.26,1.06.38,1.84.36.77-.02,1.37-.17,1.81-.45.44-.28.65-.68.63-1.19Z"/>
      <path class="cls-4" d="m44.87,83.04l-.02-.88.94-.02.02.88-.94.02Z"/>
      <path class="cls-4" d="m45.77,78.91c.02.67-.14,1.22-.47,1.65-.33.43-.78.65-1.35.66-.37,0-.7-.09-.99-.3-.29-.21-.5-.49-.63-.85-.12.29-.29.52-.53.69-.24.18-.49.27-.77.27-.49.01-.9-.16-1.21-.51s-.48-.84-.5-1.44c-.02-.59.12-1.07.42-1.43.3-.37.69-.56,1.18-.57.28,0,.54.07.78.23.25.16.43.38.56.66.11-.36.3-.66.58-.88.28-.22.61-.34.97-.35.56-.01,1.02.18,1.38.58.36.4.54.93.56,1.59Zm-3.77.1c0-.35-.11-.62-.29-.83-.19-.21-.43-.31-.73-.3-.3,0-.54.11-.71.33-.17.22-.26.5-.25.86,0,.37.11.66.29.87.19.21.43.31.73.29.3-.01.54-.13.71-.35.17-.22.26-.51.25-.87Zm3.06-.07c-.01-.43-.13-.76-.35-1.01-.22-.25-.51-.37-.86-.36-.35,0-.64.15-.84.41-.21.26-.31.6-.3,1.03.01.43.13.77.35,1.03.22.25.51.37.86.36.35,0,.64-.15.85-.41.21-.26.31-.61.3-1.04Z"/>
      <path class="cls-4" d="m39.18,73.38l1.79.44.03.99-1.81-.91v-.52Zm.02,1.33l1.79.44.03.98-1.81-.91v-.51Z"/>
    </g>
    <g class="cls-1">
      <path class="cls-4" d="m33.98,90.33c-1.62-.14-3.51-1.03-5.64-2.65l.09,3.54-.73.02-.11-4.38.73-.02c2.29,1.68,4.17,2.57,5.64,2.66l.02.84Z"/>
      <path class="cls-4" d="m33.89,84.18c.02.67-.14,1.22-.47,1.64s-.78.65-1.35.66c-.37,0-.7-.09-.99-.3-.29-.21-.5-.49-.63-.85-.12.29-.3.52-.53.69-.24.17-.49.27-.77.27-.49.01-.9-.16-1.21-.51s-.48-.84-.5-1.44c-.02-.59.12-1.07.42-1.43.3-.37.69-.56,1.18-.57.28,0,.54.07.78.23.25.16.43.38.56.66.1-.36.3-.66.58-.88s.61-.34.97-.35c.56-.01,1.02.18,1.38.58.36.4.54.93.56,1.59Zm-3.77.1c0-.35-.11-.62-.29-.83-.18-.21-.43-.31-.73-.3s-.54.11-.71.33c-.17.22-.26.5-.25.86,0,.37.11.66.29.87.19.21.43.31.73.3s.54-.13.71-.35c.17-.22.26-.51.25-.87Zm3.06-.07c-.01-.43-.13-.76-.35-1.01-.22-.25-.51-.37-.87-.36-.35,0-.64.14-.84.41-.21.26-.31.6-.3,1.03.01.43.13.77.35,1.03.22.25.51.37.86.36.35,0,.64-.15.84-.41.21-.26.31-.61.3-1.04Z"/>
      <path class="cls-4" d="m33.76,79.23c.02.62-.13,1.14-.45,1.56s-.75.67-1.3.74l-.14-.77c.36-.05.65-.21.86-.49.21-.28.31-.62.3-1.02-.01-.44-.14-.78-.39-1.04-.25-.25-.57-.38-.96-.37-.41,0-.72.14-.94.39s-.33.6-.31,1.03c0,.25.08.48.22.69l-.51.37-2.02-1.94.08,3.06-.73.02-.11-4.02.71-.02,1.79,1.74c-.08-.62.05-1.14.39-1.54.34-.41.82-.62,1.43-.63.61-.02,1.11.18,1.49.59.38.41.58.96.6,1.65Z"/>
    </g>
  </g>
</svg>