<?xml version="1.0" encoding="UTF-8"?>
<svg vector-effect="non-scaling-stroke" id="Vrstva_1" data-name="Vrstva 1" xmlns="http://www.w3.org/2000/svg" viewBox="0 0 226.77 226.77">
  <defs>
    <style>
      .cls-1 {
        fill: #ffffff;
        stroke: #ffffff;
        stroke-miterlimit: 10;
      }

      .cls-1, .cls-2 {
        stroke-width: .5px;
      }

      .cls-3 {
        fill: #1d1d1b;
        stroke-width: 0px;
      }

      .cls-2 {
        fill: none;
        stroke: #cfe0fa;
        stroke-linecap: round;
        stroke-linejoin: round;
      }
    </style>
  </defs>
  <g>
    <line class="cls-2" x1="166.81" y1="60.08" x2="167.12" y2="59.82"/>
    <line class="cls-2" x1="110.58" y1="76.24" x2="110.28" y2="76.51"/>
    <line class="cls-2" x1="149.78" y1="72.46" x2="115.61" y2="82.39"/>
    <line class="cls-2" x1="115.61" y1="81.18" x2="149.46" y2="71.35"/>
    <path class="cls-2" d="m149.96,72.09c0-.16-.05-.34-.13-.48-.04-.06-.09-.14-.14-.19-.06-.05-.16-.09-.23-.06"/>
    <line class="cls-2" x1="98.83" y1="86.04" x2="110.49" y2="82.66"/>
    <line class="cls-2" x1="110.49" y1="83.88" x2="100.28" y2="86.84"/>
    <path class="cls-2" d="m149.78,72.46c.08-.03.12-.09.14-.16s.04-.14.04-.22"/>
    <path class="cls-2" d="m116.12,98.72s.04-.04.04-.06c.01-.03.01-.05.01-.08"/>
    <path class="cls-2" d="m86.14,62.79c.34,2.15.67,4.32,1.01,6.49.43,2.74,1.43,9.11,1.87,11.84"/>
    <path class="cls-2" d="m81.95,36.12h0v.03c.01.06.03.13.04.18.01.13.03.25.05.38.16.99.31,1.97.47,2.96.31,1.97.62,3.96.92,5.93.62,3.94,1.25,7.89,1.87,11.84.01.1.03.21.05.32"/>
    <path class="cls-2" d="m89.02,81.12c1.19.66,2.39,1.32,3.59,1.98,1.19.66,2.39,1.31,3.59,1.97,1.19.66,2.39,1.32,3.59,1.98,1.19.65,2.39,1.31,3.59,1.97,1.19.66,2.39,1.32,3.59,1.97.6.34,1.19.66,1.79,1,.57.31,1.14.62,1.71.93"/>
    <path class="cls-2" d="m110.49,92.45c-2.18-1.19-4.36-2.39-6.54-3.59-2.61-1.43-5.21-2.87-7.81-4.29-1.28-.7-2.57-1.41-3.84-2.11-.91-.49-1.82-1-2.72-1.49"/>
    <path class="cls-2" d="m89.58,80.96c-.25-1.58-.49-3.18-.74-4.76"/>
    <line class="cls-2" x1="89.58" y1="80.96" x2="96.66" y2="84.85"/>
    <line class="cls-2" x1="89.02" y1="81.12" x2="89.58" y2="80.96"/>
    <line class="cls-2" x1="81.79" y1="35.87" x2="80.06" y2="35.65"/>
    <line class="cls-2" x1="89.58" y1="80.96" x2="89.02" y2="81.12"/>
    <line class="cls-2" x1="86.79" y1="63.14" x2="89.58" y2="80.96"/>
    <line class="cls-2" x1="82.53" y1="35.96" x2="86" y2="58.11"/>
    <line class="cls-2" x1="83.01" y1="39.08" x2="133.32" y2="24.47"/>
    <line class="cls-2" x1="133.64" y1="25.59" x2="83.19" y2="40.24"/>
    <line class="cls-2" x1="83.65" y1="43.15" x2="133.97" y2="28.53"/>
    <path class="cls-2" d="m134.29,29.65c.05-.01.09-.05.12-.09.03-.05.04-.1.05-.16.01-.1,0-.22-.01-.31-.03-.1-.06-.21-.12-.3-.04-.09-.12-.18-.21-.23"/>
    <line class="cls-2" x1="134.29" y1="29.65" x2="83.84" y2="44.3"/>
    <line class="cls-2" x1="92.66" y1="61.78" x2="137.15" y2="48.84"/>
    <path class="cls-2" d="m137.47,49.97c.06-.03.1-.06.13-.1.03-.05.04-.1.05-.16.01-.1,0-.21-.01-.31-.03-.1-.06-.21-.12-.3-.04-.08-.12-.18-.21-.23"/>
    <line class="cls-2" x1="137.47" y1="49.97" x2="94.11" y2="62.57"/>
    <line class="cls-2" x1="119.51" y1="75.2" x2="141.93" y2="68.69"/>
    <line class="cls-2" x1="137.29" y1="43.4" x2="140.84" y2="66.07"/>
    <line class="cls-2" x1="166.2" y1="59.31" x2="137.29" y2="43.4"/>
    <line class="cls-2" x1="167.02" y1="61.04" x2="167.02" y2="80.47"/>
    <line class="cls-2" x1="99.08" y1="83.9" x2="96.03" y2="84.5"/>
    <line class="cls-2" x1="147.32" y1="71.1" x2="115.61" y2="80.31"/>
    <line class="cls-2" x1="115.61" y1="79.11" x2="146.99" y2="69.99"/>
    <line class="cls-2" x1="96.37" y1="84.7" x2="110.49" y2="80.58"/>
    <path class="cls-2" d="m147.5,70.74c0-.17-.05-.34-.13-.48-.04-.08-.09-.14-.14-.19-.06-.05-.16-.1-.23-.08"/>
    <line class="cls-2" x1="144.85" y1="69.75" x2="115.61" y2="78.25"/>
    <line class="cls-2" x1="115.61" y1="77.03" x2="144.53" y2="68.64"/>
    <path class="cls-2" d="m145.03,69.38c0-.16-.05-.34-.13-.48-.04-.06-.09-.14-.14-.19-.06-.05-.16-.09-.23-.06"/>
    <line class="cls-2" x1="97.71" y1="64.55" x2="137.79" y2="52.92"/>
    <path class="cls-2" d="m138.12,54.03c.05-.01.09-.05.12-.1.03-.04.04-.09.05-.14.01-.1.01-.22-.01-.32s-.06-.21-.12-.3c-.04-.08-.12-.18-.21-.22"/>
    <line class="cls-2" x1="138.12" y1="54.03" x2="99.15" y2="65.34"/>
    <line class="cls-2" x1="125.64" y1="83.62" x2="125.64" y2="84.48"/>
    <polyline class="cls-2" points="119.32 75.1 119.51 75.2 120.34 75.66"/>
    <line class="cls-2" x1="120.56" y1="79.74" x2="119.53" y2="79.17"/>
    <line class="cls-2" x1="133.35" y1="22.68" x2="82.75" y2="37.38"/>
    <line class="cls-2" x1="85.56" y1="55.34" x2="135.87" y2="40.72"/>
    <path class="cls-2" d="m136.2,41.84c.05-.01.09-.05.12-.1.03-.04.05-.09.05-.14.03-.1.01-.22-.01-.31-.01-.1-.05-.21-.1-.3s-.12-.18-.21-.23"/>
    <line class="cls-2" x1="136.2" y1="41.84" x2="85.74" y2="56.5"/>
    <line class="cls-2" x1="89.02" y1="81.12" x2="92.93" y2="83.27"/>
    <line class="cls-2" x1="84.3" y1="82.49" x2="89.02" y2="81.12"/>
    <line class="cls-2" x1="89.02" y1="81.12" x2="88.12" y2="75.37"/>
    <line class="cls-2" x1="115.61" y1="76.32" x2="115.61" y2="98.95"/>
    <line class="cls-2" x1="115.61" y1="98.95" x2="111.37" y2="100.18"/>
    <line class="cls-2" x1="109.66" y1="75.73" x2="80.75" y2="59.82"/>
    <line class="cls-2" x1="80.22" y1="58.88" x2="109.66" y2="75.08"/>
    <line class="cls-2" x1="84.93" y1="57.51" x2="80.22" y2="58.88"/>
    <line class="cls-2" x1="84.93" y1="57.51" x2="114.38" y2="73.72"/>
    <path class="cls-2" d="m114.38,73.72c.21.12.4.31.54.51s.27.42.36.64c.19.45.32.97.32,1.45"/>
    <line class="cls-2" x1="110.89" y1="99.79" x2="110.89" y2="77.69"/>
    <line class="cls-2" x1="110.49" y1="77.46" x2="110.49" y2="96.89"/>
    <path class="cls-2" d="m109.66,75.73c.14.08.27.21.36.34.1.13.19.27.26.43.13.3.21.64.21.96"/>
    <path class="cls-2" d="m110.89,77.69c0-.49-.12-1.01-.31-1.45-.09-.23-.22-.45-.36-.65-.16-.19-.34-.38-.56-.51"/>
    <path class="cls-2" d="m137.64,49.45c.26,1.65.52,3.28.78,4.93.43,2.74,1.43,9.11,1.87,11.84"/>
    <path class="cls-2" d="m135.73,37.27c.21,1.35.43,2.7.64,4.05"/>
    <path class="cls-2" d="m135.1,33.2c.21,1.35.42,2.7.64,4.05"/>
    <path class="cls-2" d="m133.41,22.47c.12.77.25,1.53.36,2.3.22,1.45.45,2.91.67,4.36"/>
    <path class="cls-2" d="m140.29,66.23c1.19.66,2.39,1.32,3.59,1.98,1.19.66,2.39,1.31,3.59,1.97,1.19.66,2.39,1.32,3.59,1.98,1.19.65,2.39,1.31,3.58,1.97,1.21.66,2.4,1.32,3.61,1.98.6.32,1.19.65,1.79.99.6.32,1.21.66,1.8.99.6.32,1.19.66,1.79.99.6.34,1.21.66,1.8,1,.3.16.6.32.89.49.08.04.16.08.22.12.04.03.08.04.12.06.03.01.04.03.06.03h0"/>
    <path class="cls-2" d="m167.3,80.62h-.01s-.01-.01-.03-.01c-.01-.01-.04-.03-.05-.04l-.23-.12c-.3-.17-.6-.34-.89-.51-1.22-.66-2.43-1.32-3.63-1.98-2.41-1.34-4.83-2.66-7.24-4-2.61-1.43-5.21-2.87-7.81-4.29-1.28-.7-2.57-1.41-3.84-2.11-.91-.49-1.82-1-2.72-1.49"/>
    <line class="cls-2" x1="140.29" y1="66.23" x2="140.84" y2="66.07"/>
    <line class="cls-2" x1="144.22" y1="68.39" x2="140.29" y2="66.23"/>
    <line class="cls-2" x1="167.43" y1="80.91" x2="167.43" y2="83.68"/>
    <line class="cls-2" x1="137.77" y1="62.63" x2="138.22" y2="65.54"/>
    <line class="cls-2" x1="140.84" y1="66.07" x2="140.27" y2="66.23"/>
    <line class="cls-2" x1="133.79" y1="21.07" x2="137.29" y2="43.4"/>
    <line class="cls-2" x1="140.27" y1="66.23" x2="139.38" y2="60.48"/>
    <line class="cls-2" x1="87.61" y1="58.99" x2="136.51" y2="44.78"/>
    <path class="cls-2" d="m136.83,45.9c.05-.01.09-.05.12-.09.03-.05.05-.1.05-.16.03-.1.01-.21,0-.31-.03-.1-.06-.21-.12-.3s-.12-.18-.21-.23"/>
    <line class="cls-2" x1="136.83" y1="45.9" x2="89.05" y2="59.78"/>
    <line class="cls-2" x1="110.49" y1="77.67" x2="92.89" y2="82.78"/>
    <line class="cls-2" x1="142.39" y1="68.39" x2="115.6" y2="76.17"/>
    <line class="cls-2" x1="115.37" y1="75.03" x2="142.06" y2="67.28"/>
    <line class="cls-2" x1="91.44" y1="81.97" x2="110.28" y2="76.51"/>
    <path class="cls-2" d="m142.57,68.03c0-.17-.05-.34-.13-.48-.04-.08-.09-.14-.14-.19-.06-.05-.16-.1-.23-.08"/>
    <line class="cls-2" x1="110.49" y1="92.17" x2="110.14" y2="92.27"/>
    <line class="cls-2" x1="159.64" y1="77.89" x2="115.61" y2="90.68"/>
    <line class="cls-2" x1="115.61" y1="89.47" x2="159.31" y2="76.77"/>
    <path class="cls-2" d="m159.82,77.51c0-.16-.05-.34-.13-.47-.04-.08-.09-.14-.14-.21-.06-.05-.14-.09-.23-.06"/>
    <line class="cls-2" x1="152.24" y1="73.81" x2="115.61" y2="84.46"/>
    <line class="cls-2" x1="115.61" y1="83.24" x2="151.92" y2="72.7"/>
    <path class="cls-2" d="m152.43,73.45c0-.17-.05-.34-.13-.48-.04-.08-.09-.14-.14-.19-.06-.05-.14-.1-.23-.08"/>
    <line class="cls-2" x1="157.17" y1="76.54" x2="115.61" y2="88.6"/>
    <line class="cls-2" x1="115.61" y1="87.39" x2="156.85" y2="75.41"/>
    <path class="cls-2" d="m157.35,76.16c0-.17-.05-.34-.13-.48-.04-.08-.09-.14-.14-.19-.06-.05-.14-.1-.23-.08"/>
    <line class="cls-2" x1="84.93" y1="51.27" x2="135.24" y2="36.66"/>
    <path class="cls-2" d="m135.56,37.78c.05-.01.09-.05.12-.1.03-.04.04-.09.05-.14.01-.1.01-.22-.01-.32-.01-.1-.05-.21-.1-.3-.05-.08-.13-.18-.22-.22"/>
    <line class="cls-2" x1="135.56" y1="37.78" x2="85.11" y2="52.44"/>
    <line class="cls-2" x1="84.29" y1="47.21" x2="134.6" y2="32.59"/>
    <path class="cls-2" d="m135.1,33.2c-.01-.1-.05-.22-.1-.32-.05-.09-.13-.21-.23-.26"/>
    <line class="cls-2" x1="134.93" y1="33.72" x2="84.47" y2="48.36"/>
    <line class="cls-2" x1="154.71" y1="75.18" x2="115.61" y2="86.54"/>
    <line class="cls-2" x1="115.61" y1="85.32" x2="154.38" y2="74.06"/>
    <path class="cls-2" d="m154.89,74.8c0-.16-.05-.34-.13-.48-.04-.06-.09-.14-.14-.19-.06-.05-.14-.09-.23-.06"/>
    <line class="cls-2" x1="112.88" y1="72.89" x2="139.7" y2="65.1"/>
    <line class="cls-2" x1="89.39" y1="79.71" x2="107.4" y2="74.49"/>
    <path class="cls-2" d="m140.03,66.23c.05-.03.09-.06.12-.1.03-.05.05-.1.05-.16.03-.09.01-.21-.01-.31-.01-.1-.05-.21-.1-.3-.05-.08-.12-.18-.21-.23"/>
    <line class="cls-2" x1="108.84" y1="75.28" x2="89.57" y2="80.88"/>
    <line class="cls-2" x1="140.03" y1="66.23" x2="114.32" y2="73.68"/>
    <line class="cls-2" x1="164.57" y1="80.6" x2="115.61" y2="94.81"/>
    <line class="cls-2" x1="115.61" y1="93.61" x2="164.24" y2="79.48"/>
    <path class="cls-2" d="m164.75,80.23c0-.17-.05-.34-.13-.48-.04-.08-.09-.14-.14-.21-.06-.04-.14-.09-.23-.06"/>
    <line class="cls-2" x1="162.1" y1="79.25" x2="115.61" y2="92.75"/>
    <line class="cls-2" x1="115.61" y1="91.53" x2="161.78" y2="78.12"/>
    <path class="cls-2" d="m162.28,78.87c0-.16-.05-.34-.13-.48-.04-.06-.09-.14-.14-.19-.06-.05-.14-.1-.23-.08"/>
    <line class="cls-2" x1="102.77" y1="67.33" x2="138.43" y2="56.98"/>
    <line class="cls-2" x1="138.75" y1="58.09" x2="104.21" y2="68.13"/>
    <line class="cls-2" x1="115.61" y1="94.97" x2="165.92" y2="80.36"/>
    <line class="cls-2" x1="166.8" y1="84" x2="116.11" y2="98.73"/>
    <path class="cls-2" d="m166.88,81.08c0-.05-.01-.12-.04-.17-.03-.04-.05-.09-.1-.12"/>
    <line class="cls-2" x1="107.82" y1="70.12" x2="139.07" y2="61.04"/>
    <path class="cls-2" d="m139.39,62.15c.05-.01.09-.05.12-.09.03-.05.04-.1.05-.16.01-.1.01-.21-.01-.31-.01-.1-.05-.21-.1-.3s-.13-.18-.22-.23"/>
    <line class="cls-2" x1="139.39" y1="62.15" x2="109.26" y2="70.91"/>
    <line class="cls-2" x1="110.49" y1="92.93" x2="110.49" y2="92.93"/>
    <line class="cls-2" x1="92.53" y1="82.57" x2="92.53" y2="82.57"/>
    <line class="cls-2" x1="110.49" y1="81.8" x2="97.82" y2="85.49"/>
    <line class="cls-2" x1="110.49" y1="79.73" x2="95.35" y2="84.13"/>
    <line class="cls-2" x1="149.14" y1="72.65" x2="150.16" y2="73.22"/>
    <line class="cls-2" x1="151.61" y1="74.01" x2="152.62" y2="74.57"/>
    <line class="cls-2" x1="154.07" y1="75.36" x2="155.08" y2="75.93"/>
    <line class="cls-2" x1="156.54" y1="76.72" x2="157.55" y2="77.28"/>
    <line class="cls-2" x1="159" y1="78.07" x2="160.01" y2="78.64"/>
    <line class="cls-2" x1="161.47" y1="79.43" x2="162.48" y2="79.99"/>
    <line class="cls-2" x1="163.93" y1="80.79" x2="164.11" y2="80.88"/>
    <path class="cls-2" d="m133.81,25.06c-.01-.1-.05-.22-.1-.31s-.13-.19-.22-.25"/>
    <line class="cls-2" x1="88.63" y1="64.15" x2="87.01" y2="64.62"/>
    <line class="cls-2" x1="164.67" y1="80.73" x2="164.49" y2="80.62"/>
    <line class="cls-2" x1="163.05" y1="79.83" x2="162.02" y2="79.26"/>
    <line class="cls-2" x1="160.58" y1="78.47" x2="159.56" y2="77.91"/>
    <line class="cls-2" x1="158.12" y1="77.12" x2="157.1" y2="76.55"/>
    <line class="cls-2" x1="155.66" y1="75.76" x2="154.63" y2="75.2"/>
    <line class="cls-2" x1="153.19" y1="74.4" x2="152.17" y2="73.84"/>
    <line class="cls-2" x1="150.73" y1="73.05" x2="149.7" y2="72.49"/>
    <line class="cls-2" x1="148.26" y1="71.69" x2="147.24" y2="71.13"/>
    <line class="cls-2" x1="161.57" y1="81.62" x2="161.39" y2="81.52"/>
    <line class="cls-2" x1="159.95" y1="80.73" x2="158.92" y2="80.17"/>
    <line class="cls-2" x1="157.48" y1="79.38" x2="156.46" y2="78.81"/>
    <line class="cls-2" x1="155.02" y1="78.02" x2="154" y2="77.46"/>
    <line class="cls-2" x1="152.56" y1="76.67" x2="151.53" y2="76.1"/>
    <line class="cls-2" x1="150.09" y1="75.3" x2="149.07" y2="74.75"/>
    <line class="cls-2" x1="147.63" y1="73.94" x2="146.6" y2="73.39"/>
    <line class="cls-2" x1="145.16" y1="72.59" x2="144.14" y2="72.04"/>
    <line class="cls-2" x1="140.84" y1="66.07" x2="145.55" y2="64.69"/>
    <line class="cls-2" x1="137.17" y1="42.7" x2="166.2" y2="58.66"/>
    <line class="cls-2" x1="167.43" y1="80.91" x2="167.43" y2="61.27"/>
    <line class="cls-2" x1="140.47" y1="66.17" x2="140.47" y2="66.17"/>
    <line class="cls-2" x1="140.84" y1="66.07" x2="140.84" y2="66.07"/>
    <line class="cls-2" x1="147.92" y1="69.96" x2="147.91" y2="69.96"/>
    <line class="cls-2" x1="140.84" y1="66.07" x2="140.84" y2="66.07"/>
    <line class="cls-2" x1="93.68" y1="66.94" x2="87.66" y2="68.69"/>
    <path class="cls-2" d="m137,45.39c.22,1.35.43,2.7.64,4.06"/>
    <path class="cls-2" d="m134.46,29.14l.23,1.56c.13.83.27,1.66.4,2.49"/>
    <path class="cls-2" d="m116.12,98.72s-.01,0-.01.01"/>
    <line class="cls-2" x1="133.94" y1="38.25" x2="134.4" y2="41.15"/>
    <line class="cls-2" x1="135.86" y1="50.44" x2="136.32" y2="53.34"/>
    <line class="cls-2" x1="136.5" y1="54.5" x2="136.95" y2="57.4"/>
    <line class="cls-2" x1="118.09" y1="78.38" x2="117.07" y2="77.82"/>
    <line class="cls-2" x1="115.63" y1="77.03" x2="115.61" y2="77.02"/>
    <line class="cls-2" x1="121.79" y1="76.45" x2="122.8" y2="77.02"/>
    <line class="cls-2" x1="124.25" y1="77.81" x2="125.26" y2="78.37"/>
    <line class="cls-2" x1="132.04" y1="26.05" x2="132.49" y2="28.96"/>
    <line class="cls-2" x1="132.67" y1="30.13" x2="133.13" y2="33.02"/>
    <path class="cls-2" d="m80.58,35.51s.01-.01.03-.03"/>
    <line class="cls-2" x1="88.95" y1="80.67" x2="88.95" y2="80.67"/>
    <line class="cls-2" x1="87.67" y1="72.54" x2="87.67" y2="72.54"/>
    <line class="cls-2" x1="88.31" y1="76.6" x2="88.31" y2="76.6"/>
    <line class="cls-2" x1="108.69" y1="91.47" x2="110.49" y2="90.95"/>
    <line class="cls-2" x1="101.29" y1="87.41" x2="110.49" y2="84.73"/>
    <line class="cls-2" x1="106.22" y1="90.12" x2="110.49" y2="88.87"/>
    <line class="cls-2" x1="103.76" y1="88.76" x2="110.49" y2="86.81"/>
    <line class="cls-2" x1="88.12" y1="71.6" x2="97.3" y2="68.92"/>
    <line class="cls-2" x1="116.15" y1="98.68" x2="116.15" y2="98.68"/>
    <line class="cls-2" x1="88.75" y1="75.66" x2="102.35" y2="71.7"/>
    <path class="cls-2" d="m116.04,95.51h-.01s-.01-.01-.03-.01c-.01-.01-.04-.03-.05-.04l-.23-.12s-.06-.05-.1-.06"/>
    <line class="cls-2" x1="93.9" y1="83.33" x2="110.49" y2="78.52"/>
    <line class="cls-2" x1="86.83" y1="63.46" x2="87.18" y2="63.36"/>
    <line class="cls-2" x1="93.07" y1="82.88" x2="110.49" y2="77.82"/>
    <line class="cls-2" x1="87.48" y1="67.52" x2="92.24" y2="66.15"/>
    <line class="cls-2" x1="116.11" y1="98.73" x2="115.61" y2="98.87"/>
    <path class="cls-2" d="m80.03,35.65h.03"/>
    <line class="cls-2" x1="80.03" y1="35.65" x2="80.61" y2="35.48"/>
    <path class="cls-2" d="m116.17,95.8c0-.05-.01-.1-.04-.16-.01-.05-.05-.1-.09-.13"/>
    <line class="cls-2" x1="79.97" y1="35.86" x2="83.43" y2="57.95"/>
    <path class="cls-2" d="m80.63,35.48h-.03"/>
    <path class="cls-2" d="m79.97,35.86s-.01-.08,0-.12.03-.08.06-.09"/>
    <line class="cls-2" x1="80.63" y1="35.48" x2="82.36" y2="35.72"/>
    <path class="cls-2" d="m82.53,35.96c-.01-.05-.03-.1-.05-.16-.03-.04-.06-.09-.12-.09"/>
    <path class="cls-2" d="m81.79,35.87c.05.01.09.06.12.1s.04.09.05.14"/>
    <line class="cls-2" x1="141.93" y1="70.6" x2="141.93" y2="70.82"/>
    <line class="cls-2" x1="144.22" y1="69.93" x2="145.23" y2="70.49"/>
    <line class="cls-2" x1="146.68" y1="71.3" x2="147.69" y2="71.85"/>
    <line class="cls-2" x1="145.8" y1="70.34" x2="144.77" y2="69.77"/>
    <line class="cls-2" x1="143.33" y1="68.97" x2="142.31" y2="68.42"/>
    <line class="cls-2" x1="142.7" y1="71.23" x2="141.93" y2="70.82"/>
    <path class="cls-2" d="m133.64,25.59c.05-.01.09-.05.12-.09s.04-.08.05-.13c.03-.09.03-.19,0-.29"/>
    <path class="cls-2" d="m133.49,24.5c-.05-.03-.1-.05-.17-.03"/>
    <path class="cls-2" d="m134.12,28.56c-.05-.03-.1-.04-.16-.03"/>
    <path class="cls-2" d="m137.31,48.87c-.05-.03-.1-.04-.17-.03"/>
    <line class="cls-2" x1="141.93" y1="68.69" x2="141.93" y2="69.39"/>
    <line class="cls-2" x1="141.93" y1="70.82" x2="135.23" y2="73.4"/>
    <line class="cls-2" x1="141.93" y1="68.69" x2="142.76" y2="69.14"/>
    <path class="cls-2" d="m167.63,83.74c-.06-.03-.12-.09-.14-.16-.04-.06-.05-.14-.05-.21"/>
    <path class="cls-2" d="m167.43,61.27c0-.49-.12-1.01-.31-1.45-.1-.23-.22-.45-.38-.65-.14-.19-.32-.38-.54-.51"/>
    <line class="cls-2" x1="167.63" y1="83.74" x2="167.43" y2="83.63"/>
    <line class="cls-2" x1="145.55" y1="64.69" x2="167.02" y2="76.51"/>
    <line class="cls-2" x1="145.55" y1="64.69" x2="142.67" y2="46.37"/>
    <path class="cls-2" d="m167.9,83.76c-.09.03-.18.03-.27-.03"/>
    <line class="cls-2" x1="172.14" y1="59.9" x2="172.14" y2="82.53"/>
    <line class="cls-2" x1="172.14" y1="82.53" x2="167.9" y2="83.76"/>
    <line class="cls-2" x1="141.47" y1="41.09" x2="137.12" y2="42.36"/>
    <line class="cls-2" x1="141.47" y1="41.09" x2="170.91" y2="57.3"/>
    <path class="cls-2" d="m170.91,57.3c.22.12.4.31.56.51.14.19.27.42.36.64.19.45.31.97.31,1.45"/>
    <path class="cls-2" d="m166.2,59.31c.14.08.27.21.36.34.1.13.18.27.25.43.13.3.21.64.21.96"/>
    <path class="cls-2" d="m147.5,70.74c0,.06-.01.14-.04.21s-.06.14-.14.16"/>
    <path class="cls-2" d="m144.85,69.75c.08-.03.12-.09.14-.16s.04-.14.04-.22"/>
    <path class="cls-2" d="m137.79,52.92c.05-.03.1,0,.16.03"/>
    <path class="cls-2" d="m134.93,33.72s.08-.05.1-.09.05-.09.05-.13c.03-.1.03-.19.01-.3"/>
    <line class="cls-2" x1="88.84" y1="80.03" x2="88.84" y2="80.03"/>
    <path class="cls-2" d="m138.75,58.09c.05-.01.09-.05.12-.1.03-.04.04-.09.05-.14.01-.1.01-.22-.01-.31-.03-.1-.05-.21-.1-.3s-.13-.18-.22-.23"/>
    <line class="cls-2" x1="87.57" y1="71.91" x2="87.57" y2="71.91"/>
    <line class="cls-2" x1="88.21" y1="75.97" x2="88.21" y2="75.97"/>
    <line class="cls-2" x1="133.41" y1="22.47" x2="133.41" y2="22.47"/>
    <line class="cls-2" x1="133.31" y1="34.19" x2="133.76" y2="37.09"/>
    <line class="cls-2" x1="135.21" y1="46.38" x2="135.68" y2="49.27"/>
    <line class="cls-2" x1="137.13" y1="58.56" x2="137.59" y2="61.46"/>
    <line class="cls-2" x1="138.4" y1="66.69" x2="138.64" y2="68.13"/>
    <line class="cls-2" x1="125.64" y1="79.47" x2="125.64" y2="80.34"/>
    <line class="cls-2" x1="125.64" y1="81.54" x2="125.64" y2="82.4"/>
    <line class="cls-2" x1="125.64" y1="85.69" x2="125.64" y2="86.55"/>
    <line class="cls-2" x1="125.64" y1="87.76" x2="125.64" y2="88.63"/>
    <line class="cls-2" x1="125.64" y1="89.83" x2="125.64" y2="90.69"/>
    <line class="cls-2" x1="125.64" y1="91.91" x2="125.64" y2="92.06"/>
    <line class="cls-2" x1="125.64" y1="95.95" x2="125.64" y2="125.61"/>
    <path class="cls-2" d="m138.66,68.26s-.03-.09-.03-.13"/>
    <line class="cls-2" x1="110.49" y1="85.94" x2="102.75" y2="88.2"/>
    <line class="cls-2" x1="110.49" y1="90.09" x2="107.68" y2="90.91"/>
    <line class="cls-2" x1="110.49" y1="88.02" x2="105.21" y2="89.55"/>
    <line class="cls-2" x1="98.74" y1="69.71" x2="88.3" y2="72.75"/>
    <line class="cls-2" x1="103.78" y1="72.5" x2="88.93" y2="76.81"/>
    <path class="cls-2" d="m133.41,22.54v-.06"/>
    <path class="cls-2" d="m136.37,41.33c.06.4.13.8.19,1.21.14.95.3,1.89.44,2.84"/>
    <line class="cls-2" x1="131.58" y1="23.19" x2="131.84" y2="24.9"/>
    <line class="cls-2" x1="134.58" y1="42.31" x2="135.03" y2="45.21"/>
    <line class="cls-2" x1="131.27" y1="20.77" x2="131.28" y2="20.77"/>
    <path class="cls-2" d="m114.41,123.27c0,.05.05.08.08.1"/>
    <line class="cls-2" x1="114.41" y1="123.27" x2="114.41" y2="99.3"/>
    <path class="cls-2" d="m120.85,126.88c.08.04.19.06.29.06s.19,0,.29-.03"/>
    <line class="cls-2" x1="121.43" y1="126.92" x2="125.47" y2="125.74"/>
    <path class="cls-2" d="m125.47,125.74s.08-.03.1-.05c.03-.01.06-.04.06-.08"/>
    <line class="cls-2" x1="114.49" y1="123.38" x2="120.85" y2="126.88"/>
    <path class="cls-2" d="m131.3,20.76h-.01"/>
    <line class="cls-2" x1="80.61" y1="35.48" x2="131.3" y2="20.76"/>
    <path class="cls-2" d="m133.35,22.68s.04-.04.05-.06.01-.05.01-.08"/>
    <line class="cls-2" x1="133.05" y1="21" x2="131.32" y2="20.76"/>
    <path class="cls-2" d="m131.32,20.76h-.03"/>
    <line class="cls-2" x1="82.53" y1="35.96" x2="82.72" y2="37.2"/>
    <line class="cls-2" x1="133.41" y1="22.47" x2="133.22" y2="21.23"/>
    <path class="cls-2" d="m133.22,21.23c-.01-.05-.03-.1-.05-.14s-.06-.09-.12-.09"/>
    <path class="cls-2" d="m136.04,40.75c-.05-.03-.12-.04-.17-.03"/>
    <path class="cls-2" d="m111.09,100.16c-.06-.03-.12-.09-.14-.16-.04-.06-.05-.14-.05-.21"/>
    <line class="cls-2" x1="110.49" y1="96.89" x2="84.3" y2="82.49"/>
    <line class="cls-2" x1="80.75" y1="59.82" x2="84.3" y2="82.49"/>
    <line class="cls-2" x1="111.09" y1="100.16" x2="110.67" y2="99.94"/>
    <line class="cls-2" x1="83.99" y1="82.96" x2="110.49" y2="97.54"/>
    <line class="cls-2" x1="83.99" y1="82.96" x2="83.89" y2="82.26"/>
    <line class="cls-2" x1="80.32" y1="59.58" x2="83.89" y2="82.26"/>
    <path class="cls-2" d="m110.49,99.56c0,.08.01.16.04.22.04.06.08.12.14.16"/>
    <path class="cls-2" d="m111.37,100.18c-.09.03-.19.03-.29-.03"/>
    <line class="cls-2" x1="80.22" y1="58.88" x2="80.32" y2="59.58"/>
    <line class="cls-2" x1="110.49" y1="97.54" x2="110.49" y2="99.56"/>
    <path class="cls-2" d="m167.37,83.84s.04-.04.05-.06.01-.06.01-.09"/>
    <line class="cls-2" x1="167.37" y1="83.84" x2="166.8" y2="84"/>
    <line class="cls-2" x1="131.3" y1="20.76" x2="131.87" y2="20.61"/>
    <path class="cls-2" d="m140.84,66.07c-.25-1.58-.49-3.16-.74-4.76"/>
    <line class="cls-2" x1="140.84" y1="66.07" x2="147.91" y2="69.96"/>
    <path class="cls-2" d="m167.43,80.91c0-.05-.01-.1-.04-.16-.01-.05-.05-.1-.09-.13"/>
    <path class="cls-2" d="m131.89,20.59s-.01,0-.03.01"/>
    <line class="cls-2" x1="131.89" y1="20.59" x2="133.62" y2="20.83"/>
    <path class="cls-2" d="m133.79,21.07c-.01-.05-.03-.1-.05-.16-.03-.04-.06-.09-.12-.09"/>
    <path class="cls-2" d="m136.68,44.81c-.05-.03-.1-.04-.17-.03"/>
    <path class="cls-2" d="m142.39,68.39c.08-.01.12-.09.14-.16s.04-.14.04-.21"/>
    <path class="cls-2" d="m159.64,77.89c.08-.03.12-.09.14-.16s.04-.14.04-.22"/>
    <path class="cls-2" d="m152.24,73.81c.08-.01.12-.08.14-.16.03-.06.04-.14.04-.21"/>
    <path class="cls-2" d="m157.17,76.54c.08-.03.12-.09.14-.16.03-.08.04-.16.04-.22"/>
    <path class="cls-2" d="m135.4,36.69s-.1-.05-.16-.03"/>
    <path class="cls-2" d="m134.76,32.62c-.05-.03-.1-.04-.16-.03"/>
    <path class="cls-2" d="m154.71,75.18c.08-.03.12-.09.14-.16s.04-.14.04-.22"/>
    <path class="cls-2" d="m139.87,65.12c-.05-.03-.12-.04-.17-.03"/>
    <path class="cls-2" d="m164.57,80.6c.08-.01.12-.09.14-.16s.04-.14.04-.21"/>
    <path class="cls-2" d="m162.28,78.87c0,.08-.01.14-.04.22-.03.06-.06.13-.14.16"/>
    <path class="cls-2" d="m138.59,57s-.1-.04-.16-.03"/>
    <path class="cls-2" d="m166.8,84s.05-.03.05-.05c.01-.04.03-.06.03-.09"/>
    <line class="cls-2" x1="116.17" y1="95.8" x2="116.17" y2="98.57"/>
    <line class="cls-2" x1="166.88" y1="83.85" x2="166.88" y2="81.08"/>
    <path class="cls-2" d="m165.98,80.38s-.04-.03-.06-.01"/>
    <path class="cls-2" d="m139.22,61.06s-.1-.04-.16-.03"/>
    <polyline class="cls-2" points="110.49 96.89 110.49 97.06 110.49 97.54"/>
    <line class="cls-2" x1="110.49" y1="99.56" x2="110.89" y2="99.79"/>
    <line class="cls-2" x1="80.32" y1="59.58" x2="80.75" y2="59.82"/>
    <line class="cls-2" x1="83.89" y1="82.26" x2="84.3" y2="82.49"/>
    <line class="cls-2" x1="141.75" y1="68.59" x2="141.93" y2="68.69"/>
    <line class="cls-2" x1="121.14" y1="97.21" x2="121.14" y2="126.94"/>
    <line class="cls-2" x1="121.14" y1="80.79" x2="121.14" y2="81.65"/>
    <line class="cls-2" x1="121.14" y1="82.87" x2="121.14" y2="83.74"/>
    <line class="cls-2" x1="121.14" y1="89.07" x2="121.14" y2="89.92"/>
    <line class="cls-2" x1="121.14" y1="86.99" x2="121.14" y2="87.86"/>
    <line class="cls-2" x1="121.14" y1="84.93" x2="121.14" y2="85.79"/>
    <line class="cls-2" x1="121.14" y1="91.16" x2="121.14" y2="92.01"/>
    <line class="cls-2" x1="121.14" y1="93.22" x2="121.14" y2="93.37"/>
    <line class="cls-2" x1="115.58" y1="95.8" x2="116.15" y2="95.64"/>
    <line class="cls-2" x1="116.15" y1="95.64" x2="166.84" y2="80.91"/>
    <line class="cls-2" x1="166.84" y1="80.91" x2="167.39" y2="80.75"/>
    <line class="cls-2" x1="82.47" y1="35.81" x2="133.16" y2="21.09"/>
    <line class="cls-2" x1="81.9" y1="35.98" x2="82.47" y2="35.81"/>
    <line class="cls-2" x1="133.16" y1="21.09" x2="133.73" y2="20.92"/>
    <line class="cls-2" x1="167.12" y1="59.82" x2="171.83" y2="58.44"/>
    <line class="cls-2" x1="110.58" y1="76.24" x2="115.29" y2="74.86"/>
  </g>
  <path class="cls-2" d="m140.89,161.99c20.62-5.97,41.23-11.94,61.85-17.91"/>
  <path class="cls-2" d="m42.72,107.16c9.74,5.47,19.48,10.93,29.21,16.4"/>
  <path class="cls-2" d="m77.67,33.88c-11.69-6.44-23.38-12.88-35.07-19.31"/>
  <line class="cls-2" x1="46.56" y1="109.26" x2="46.56" y2="16.77"/>
  <path class="cls-2" d="m66.81,158.32c13.48-3.92,26.97-7.84,40.45-11.76"/>
  <path class="cls-2" d="m113.97,147.21c10.37,5.71,20.75,11.42,31.12,17.13"/>
  <path class="cls-2" d="m175.39,129.02c10.39,5.72,20.78,11.43,31.16,17.15"/>
  <path class="cls-2" d="m31.25,137.95c13.53-3.92,27.07-7.84,40.6-11.77"/>
  <path class="cls-2" d="m35.55,136.77c12.17,6.67,24.35,13.34,36.52,20.01"/>
  <polyline class="cls-1" points="46.56 16.78 47.94 22.33 45.17 22.33 46.56 16.78"/>
  <polyline class="cls-1" points="46.55 109.21 45.17 103.66 47.94 103.66 46.55 109.21"/>
  <polyline class="cls-1" points="35.47 136.79 41.02 138.14 39.74 140.59 35.47 136.79"/>
  <polyline class="cls-1" points="72.02 156.77 66.49 155.3 67.83 152.87 72.02 156.77"/>
  <polyline class="cls-1" points="140.83 161.96 145.79 159.12 146.55 161.79 140.83 161.96"/>
  <polyline class="cls-1" points="202.74 144.07 197.77 146.91 197.02 144.24 202.74 144.07"/>
  <g>
    <g>
      <path class="cls-3" d="m164.91,147.45c.62-.18,1.19-.13,1.7.14.51.27.86.71,1.03,1.3.18.61.11,1.16-.19,1.67-.3.51-.77.85-1.41,1.04-.67.2-1.29.1-1.85-.29-.56-.39-.96-1-1.2-1.83-.31-1.08-.3-2,.04-2.75.34-.75.93-1.24,1.77-1.49.63-.18,1.24-.16,1.81.08l-.22.73c-.45-.21-.92-.24-1.4-.1-.58.17-1.01.52-1.27,1.07s-.31,1.14-.13,1.8c.06-.32.21-.6.44-.84s.53-.42.87-.52Zm-.18,3.33c.34.18.71.22,1.11.1.4-.12.7-.34.88-.68s.22-.7.11-1.11c-.12-.4-.34-.69-.68-.87-.34-.18-.71-.21-1.11-.1-.4.12-.7.34-.89.67-.19.33-.22.7-.11,1.1.12.4.34.7.68.88Z"/>
      <path class="cls-3" d="m171.07,150.14c-.58.17-1.11.16-1.6-.03-.48-.19-.84-.53-1.06-1.01l.7-.34c.15.32.39.54.7.66.31.12.66.13,1.04.02.4-.12.69-.33.85-.66.17-.32.19-.68.07-1.09-.12-.42-.34-.72-.66-.89-.32-.17-.7-.19-1.14-.06-.58.17-.95.54-1.13,1.11l-.61.04-.48-3.43,3.22-.93.2.7-2.65.76.27,1.89c.11-.19.27-.37.47-.53.2-.16.41-.27.63-.33.63-.18,1.19-.14,1.68.12.49.26.82.7,1,1.31.18.63.13,1.19-.14,1.67-.28.49-.73.83-1.38,1.01Z"/>
      <path class="cls-3" d="m176.21,148.65c-.74.21-1.4.1-1.96-.34-.56-.44-.98-1.14-1.25-2.09s-.29-1.76-.05-2.43.73-1.12,1.47-1.33c.74-.21,1.39-.1,1.96.34.56.44.98,1.14,1.26,2.08.27.95.29,1.76.05,2.43-.24.68-.73,1.12-1.47,1.33Zm-.2-.71c.48-.14.79-.46.93-.96.14-.5.1-1.12-.11-1.86-.21-.74-.51-1.28-.9-1.64-.39-.35-.82-.46-1.3-.32-.49.14-.8.46-.94.96s-.1,1.12.12,1.87c.21.74.51,1.28.89,1.63.38.35.82.46,1.31.31Z"/>
    </g>
    <g>
      <path class="cls-3" d="m164.73,164.7l-.21-.68,1.71-2.62c.51-.78.68-1.43.53-1.95-.1-.34-.28-.58-.55-.72-.27-.14-.58-.16-.93-.06-.42.12-.7.35-.85.69s-.13.73.05,1.16l-.78.17c-.23-.62-.21-1.18.04-1.69.26-.5.7-.85,1.34-1.03.59-.17,1.12-.14,1.57.08.46.23.76.62.92,1.16.11.37.1.76,0,1.17-.11.41-.34.88-.7,1.41l-1.24,1.88,2.98-.86.21.71-4.09,1.18Z"/>
      <path class="cls-3" d="m171.72,162.76c-.58.17-1.11.16-1.6-.03-.48-.19-.84-.53-1.06-1.01l.7-.34c.15.32.39.54.7.66s.66.13,1.04.02c.4-.12.69-.33.85-.65.17-.32.19-.68.07-1.09-.12-.42-.34-.72-.66-.89-.32-.17-.7-.19-1.14-.06-.58.17-.95.54-1.13,1.11l-.61.04-.48-3.43,3.23-.93.2.7-2.65.76.27,1.89c.11-.19.27-.37.47-.53.2-.16.41-.27.63-.33.63-.18,1.19-.14,1.68.12s.82.7,1,1.31c.18.63.14,1.19-.14,1.67s-.73.83-1.38,1.01Z"/>
      <path class="cls-3" d="m174.5,160.9l.85-.24.26.9-.85.24-.26-.9Z"/>
      <path class="cls-3" d="m177.7,156.56c.62-.18,1.19-.13,1.7.14.51.27.86.71,1.03,1.3.17.61.11,1.16-.19,1.67-.3.51-.77.85-1.41,1.04-.67.2-1.29.1-1.85-.29-.56-.38-.96-1-1.2-1.83-.31-1.08-.3-2,.04-2.75.34-.75.93-1.24,1.77-1.48.63-.18,1.24-.16,1.81.08l-.22.73c-.45-.21-.92-.24-1.4-.1-.58.17-1.01.52-1.27,1.07-.26.54-.31,1.14-.13,1.8.06-.32.21-.6.44-.84.24-.25.53-.42.87-.52Zm-.18,3.33c.34.18.71.22,1.11.1.4-.12.7-.34.88-.68.18-.33.22-.71.11-1.11-.11-.4-.34-.69-.68-.87s-.71-.21-1.11-.1-.7.34-.89.67c-.19.33-.23.7-.11,1.1.12.4.34.7.68.88Z"/>
      <path class="cls-3" d="m181.35,153.27l.03,1.85-.94.27.42-1.98.49-.14Zm1.28-.37l.03,1.85-.95.27.42-1.98.5-.15Z"/>
    </g>
  </g>
  <g>
    <g>
      <path class="cls-3" d="m51.24,141.9c-.53-.29-.9-.67-1.11-1.15-.21-.47-.22-.96-.04-1.47l.74.25c-.11.33-.1.66.03.96.14.31.38.56.73.75.37.2.72.25,1.07.14.34-.11.62-.35.82-.73.21-.38.26-.75.15-1.1s-.36-.63-.76-.85c-.53-.29-1.06-.29-1.59,0l-.46-.4,2.08-2.77,2.95,1.61-.35.64-2.42-1.32-1.14,1.53c.22-.06.45-.07.71-.04.25.03.48.1.68.21.57.31.94.74,1.11,1.27.16.53.09,1.08-.21,1.63-.31.57-.74.94-1.28,1.09-.54.15-1.1.07-1.69-.25Z"/>
      <path class="cls-3" d="m53.61,143.11l.33-.63,3.06-.66c.91-.2,1.49-.53,1.75-1.01.17-.31.21-.61.12-.9-.09-.29-.3-.52-.62-.7-.38-.21-.75-.25-1.09-.11-.34.14-.6.42-.79.86l-.67-.43c.27-.6.68-.99,1.22-1.17s1.1-.11,1.68.21c.54.3.9.69,1.06,1.17s.11.97-.16,1.47c-.18.34-.46.61-.83.83-.37.22-.87.39-1.49.51l-2.2.46,2.72,1.49-.35.65-3.74-2.04Z"/>
      <path class="cls-3" d="m60.2,146.8c-.68-.37-1.06-.91-1.15-1.62-.09-.71.1-1.5.58-2.37.48-.87,1.03-1.46,1.68-1.76s1.3-.28,1.98.09c.67.37,1.06.91,1.14,1.62.09.71-.1,1.5-.57,2.36-.47.86-1.03,1.45-1.68,1.76-.65.31-1.31.28-1.98-.09Zm.35-.65c.44.24.88.23,1.33-.03.45-.26.86-.72,1.23-1.4s.54-1.27.51-1.8c-.02-.52-.26-.9-.69-1.14-.45-.25-.9-.24-1.35.02-.45.26-.86.73-1.23,1.41-.37.67-.54,1.27-.52,1.79.02.52.26.9.71,1.15Z"/>
    </g>
    <g>
      <path class="cls-3" d="m40.91,150.19l.33-.63,3.06-.66c.91-.2,1.49-.53,1.75-1.01.17-.31.21-.61.12-.9-.09-.29-.3-.52-.62-.7-.38-.21-.75-.25-1.09-.11s-.6.42-.79.86l-.67-.43c.27-.6.68-.99,1.22-1.17.54-.18,1.1-.11,1.68.21.54.3.89.69,1.06,1.17s.11.97-.16,1.47c-.18.34-.46.61-.83.83-.37.22-.87.38-1.49.51l-2.2.46,2.72,1.49-.35.65-3.74-2.04Z"/>
      <path class="cls-3" d="m47.5,153.88c-.68-.37-1.06-.91-1.15-1.62-.09-.71.11-1.5.58-2.37.47-.87,1.03-1.46,1.68-1.77.64-.31,1.3-.28,1.98.09.67.37,1.06.91,1.15,1.62.09.71-.1,1.5-.57,2.36-.47.86-1.03,1.45-1.68,1.76-.65.31-1.31.28-1.98-.09Zm.35-.65c.44.24.88.23,1.33-.03.45-.26.86-.72,1.23-1.4.37-.67.54-1.27.51-1.8-.03-.52-.26-.9-.69-1.14-.45-.24-.9-.24-1.35.02s-.86.73-1.23,1.41c-.37.67-.54,1.27-.52,1.79.02.52.26.9.71,1.15Z"/>
      <path class="cls-3" d="m50.96,154.62l.77.42-.45.82-.77-.42.45-.82Z"/>
      <path class="cls-3" d="m53.9,157.38c-.53-.29-.9-.67-1.11-1.15-.21-.47-.22-.96-.04-1.47l.74.25c-.11.33-.1.65.03.96.14.31.38.56.73.75.37.2.73.25,1.07.14.34-.11.62-.35.82-.73.21-.38.26-.75.15-1.1-.11-.35-.36-.63-.76-.85-.53-.29-1.06-.29-1.59,0l-.46-.39,2.08-2.77,2.95,1.61-.35.64-2.42-1.32-1.14,1.53c.22-.06.45-.07.71-.04.25.03.48.1.68.21.57.31.94.74,1.11,1.27.16.53.09,1.08-.21,1.63-.31.57-.74.94-1.28,1.09-.54.15-1.1.07-1.69-.25Z"/>
      <path class="cls-3" d="m60.52,153.65l-1.28,1.33-.86-.47,1.69-1.11.45.25Zm1.17.64l-1.28,1.33-.87-.47,1.69-1.11.46.25Z"/>
    </g>
  </g>
  <g>
    <g>
      <path class="cls-3" d="m43.63,68.68c0,.67-.17,1.22-.52,1.63-.34.42-.8.62-1.37.62-.37,0-.69-.11-.98-.33s-.49-.5-.6-.87c-.13.28-.31.51-.55.67-.24.17-.5.25-.77.25-.49,0-.89-.18-1.2-.55s-.46-.85-.45-1.46c0-.59.16-1.06.46-1.42.31-.36.71-.54,1.2-.54.28,0,.53.09.78.25.24.17.42.39.54.68.12-.36.32-.65.61-.86s.62-.32.98-.32c.56,0,1.02.21,1.36.62.34.41.51.95.51,1.61Zm-3.77-.01c0-.35-.09-.63-.27-.84s-.42-.32-.72-.33c-.3,0-.54.1-.72.31s-.27.5-.27.85c0,.37.09.67.27.88.18.22.42.32.72.32.3,0,.54-.12.72-.33.18-.21.27-.5.27-.86Zm3.06.02c0-.43-.11-.77-.32-1.02-.22-.26-.5-.38-.85-.38-.35,0-.64.12-.86.38-.22.25-.33.59-.33,1.02,0,.43.11.78.32,1.04.22.26.5.39.85.39.35,0,.64-.13.86-.38.22-.26.33-.6.33-1.03Z"/>
      <path class="cls-3" d="m43.64,63.73c0,.62-.17,1.13-.5,1.54-.33.41-.77.64-1.33.7l-.11-.77c.37-.04.66-.2.87-.46s.33-.61.33-1.01c0-.44-.12-.79-.36-1.05-.24-.26-.56-.39-.95-.39-.41,0-.73.12-.96.37-.23.25-.34.59-.34,1.02,0,.25.06.48.2.69l-.52.35-1.96-1.99v3.06s-.74,0-.74,0v-4.02s.72,0,.72,0l1.74,1.79c-.06-.62.09-1.13.44-1.53.35-.4.83-.59,1.45-.59.61,0,1.1.21,1.47.63.37.42.55.97.55,1.66Z"/>
      <path class="cls-3" d="m39.36,58.28c0-.65.2-1.18.61-1.6.4-.42.92-.62,1.54-.62.63,0,1.15.22,1.55.65.4.43.6.98.6,1.64,0,.7-.27,1.27-.79,1.69s-1.22.64-2.09.64c-1.13,0-2-.27-2.63-.81-.62-.54-.93-1.24-.93-2.11,0-.66.2-1.23.58-1.72l.64.42c-.32.38-.49.81-.49,1.31,0,.61.22,1.11.67,1.52s1.01.62,1.69.63c-.29-.14-.52-.37-.69-.66-.17-.3-.25-.62-.25-.98Zm3.15,1.1c.27-.27.41-.62.41-1.04,0-.42-.13-.77-.4-1.04-.27-.27-.61-.41-1.03-.42-.41,0-.75.13-1.02.41-.27.27-.4.62-.4,1.04,0,.42.13.77.4,1.04.27.27.61.41,1.02.41.42,0,.77-.13,1.04-.41Z"/>
    </g>
    <g>
      <path class="cls-3" d="m55.92,71.43c0,.62-.17,1.13-.5,1.54-.33.41-.77.64-1.33.7l-.11-.77c.37-.04.66-.2.87-.46s.33-.61.33-1.01c0-.44-.12-.79-.36-1.05s-.56-.39-.95-.39c-.41,0-.73.12-.96.37-.23.25-.34.59-.34,1.02,0,.25.06.48.2.69l-.52.35-1.96-1.99v3.06s-.74,0-.74,0v-4.02s.72,0,.72,0l1.74,1.79c-.06-.62.09-1.13.44-1.53.35-.4.83-.59,1.45-.59.61,0,1.1.21,1.47.63.37.42.55.97.55,1.66Z"/>
      <path class="cls-3" d="m55.86,68.58h-.71s-2.04-2.37-2.04-2.37c-.6-.71-1.18-1.06-1.72-1.06-.35,0-.64.11-.85.33-.21.22-.32.51-.32.88,0,.44.14.77.42,1.01s.66.33,1.13.28l-.06.79c-.66.05-1.2-.12-1.61-.51-.41-.39-.62-.91-.62-1.57,0-.62.18-1.11.52-1.49.35-.38.8-.56,1.37-.56.38,0,.76.11,1.12.34s.75.58,1.16,1.07l1.45,1.71v-3.1s.75,0,.75,0v4.26Z"/>
      <path class="cls-3" d="m54.94,63.19v-.88s.94,0,.94,0v.88s-.94,0-.94,0Z"/>
      <path class="cls-3" d="m53.81,59.09c0,.65-.2,1.18-.61,1.6-.4.42-.92.62-1.54.62-.63,0-1.15-.22-1.55-.65-.4-.43-.6-.98-.6-1.64,0-.7.27-1.27.79-1.69.53-.43,1.22-.64,2.09-.64,1.13,0,2,.27,2.63.81.62.54.93,1.24.93,2.11,0,.66-.2,1.23-.58,1.72l-.64-.42c.32-.37.48-.81.48-1.31,0-.61-.22-1.11-.66-1.52-.44-.41-1.01-.62-1.69-.63.29.14.52.37.69.66.17.3.25.62.25.98Zm-3.15-1.1c-.27.27-.41.62-.41,1.04,0,.42.13.77.41,1.04.27.27.62.41,1.04.42.41,0,.75-.13,1.02-.41.27-.27.4-.62.4-1.04,0-.42-.13-.77-.4-1.04-.27-.27-.61-.41-1.02-.41-.42,0-.77.13-1.04.41Z"/>
      <path class="cls-3" d="m49.53,54.5l1.78.49v.98s-1.78-.96-1.78-.96v-.51Zm0-1.33l1.78.49v.99s-1.78-.96-1.78-.96v-.52Z"/>
    </g>
  </g>
</svg>