<svg id="Vrstva_1" data-name="Vrstva 1" xmlns="http://www.w3.org/2000/svg" viewBox="0 0 226.77 226.77">
  <defs>
    <style>
      .cls-1, .cls-2 {
        fill: none;
        stroke: #010101;
        stroke-linecap: round;
        stroke-linejoin: round;
      }

      .cls-1, .cls-2, .cls-3 {
        stroke-width:.7px;
      }

      .cls-2 {
        stroke-dasharray: 1 1;
      }

      .cls-3 {
        fill: #010202;
        stroke: #010202;
        stroke-miterlimit: 10;
      }

      .cls-4 {
        fill: #1d1d1b;
      }
    
.cls-1{stroke:#ffffff}
.cls-2{stroke:#ffffff}
.cls-3{stroke:#ffffff;fill:#ffffff}
.cls-4{fill:#ffffff}
</style>
  </defs>
  <g>
    <line class="cls-1" x1="129.59" y1="50.38" x2="129.57" y2="50.7"/>
    <line class="cls-1" x1="158.25" y1="58.65" x2="93.65" y2="67.43"/>
    <line class="cls-1" x1="148.29" y1="56.89" x2="84.25" y2="65.37"/>
    <line class="cls-1" x1="152.63" y1="57.78" x2="152.64" y2="57.97"/>
    <line class="cls-1" x1="169.32" y1="59.37" x2="102.54" y2="68.59"/>
    <line class="cls-1" x1="163.39" y1="59.18" x2="98.5" y2="68.08"/>
    <line class="cls-1" x1="153.23" y1="57.89" x2="88.91" y2="66.52"/>
    <line class="cls-1" x1="157.65" y1="58.57" x2="157.65" y2="58.73"/>
    <line class="cls-1" x1="138.67" y1="54.22" x2="75.19" y2="62.37"/>
    <line class="cls-1" x1="142.86" y1="55.5" x2="142.86" y2="55.74"/>
    <line class="cls-1" x1="143.44" y1="55.66" x2="79.68" y2="63.99"/>
    <line class="cls-1" x1="138.11" y1="54.03" x2="138.1" y2="54.29"/>
    <path class="cls-1" d="M152.63,57.9l.22,0"/>
    <path class="cls-1" d="M138.1,54l.55.19"/>
    <path class="cls-1" d="M64.62,57.76a.51.51,0,0,1,.3-.37,2.57,2.57,0,0,1,.45-.2,6.4,6.4,0,0,1,1-.19"/>
    <path class="cls-1" d="M64.22,65a.42.42,0,0,0,.18.35,1.27,1.27,0,0,0,.34.23"/>
    <line class="cls-1" x1="64.22" y1="64.96" x2="64.62" y2="57.76"/>
    <path class="cls-1" d="M124.9,49.84a11.14,11.14,0,0,1,2.38,0,11.38,11.38,0,0,1,1.17.18,5.77,5.77,0,0,1,1.14.35"/>
    <line class="cls-1" x1="66.34" y1="57" x2="124.9" y2="49.84"/>
    <line class="cls-1" x1="158.25" y1="58.65" x2="162.75" y2="59.13"/>
    <line class="cls-1" x1="162.75" y1="59.13" x2="162.76" y2="59.27"/>
    <line class="cls-1" x1="148.29" y1="56.89" x2="152.63" y2="57.78"/>
    <line class="cls-1" x1="130.1" y1="50.93" x2="129.57" y2="50.7"/>
    <line class="cls-1" x1="170.15" y1="59.5" x2="170.7" y2="67.09"/>
    <path class="cls-1" d="M169.38,67.45c.22,0,.47-.07.68-.12l.34-.08.17-.06.06,0,0,0,0,0a0,0,0,0,0,0,0"/>
    <path class="cls-1" d="M169.32,59.37l.43,0,.21,0,.1,0,.07,0,0,0"/>
    <line class="cls-1" x1="163.39" y1="59.18" x2="167.96" y2="59.45"/>
    <line class="cls-1" x1="167.96" y1="59.45" x2="167.96" y2="59.55"/>
    <path class="cls-1" d="M142.86,55.54l.46.14"/>
    <path class="cls-1" d="M147.7,56.83l.36.09"/>
    <path class="cls-1" d="M157.65,58.73h0"/>
    <line class="cls-1" x1="153.23" y1="57.89" x2="157.65" y2="58.57"/>
    <line class="cls-1" x1="138.67" y1="54.22" x2="142.86" y2="55.5"/>
    <line class="cls-1" x1="143.44" y1="55.66" x2="147.7" y2="56.75"/>
    <line class="cls-1" x1="65.24" y1="65.81" x2="64.74" y2="65.54"/>
    <path class="cls-1" d="M130.1,50.93q2.44,1.07,5,2"/>
    <line class="cls-1" x1="97.01" y1="78.46" x2="97.06" y2="78.45"/>
    <line class="cls-1" x1="97.05" y1="77.46" x2="97" y2="77.47"/>
    <path class="cls-1" d="M97.06,78.45a11,11,0,0,0,1.49-.31,4.37,4.37,0,0,0,.72-.25l.19-.1.14-.1a.7.7,0,0,0,.14-.16.3.3,0,0,0,.05-.16"/>
    <path class="cls-1" d="M97.41,76.26s0,0,0,0l-.07,0a.4.4,0,0,1-.15,0"/>
    <path class="cls-1" d="M130.1,50.93q2.44,1.07,5,2"/>
    <line class="cls-1" x1="154.94" y1="69.93" x2="155.68" y2="69.82"/>
    <line class="cls-1" x1="65.12" y1="58.67" x2="64.74" y2="65.54"/>
    <line class="cls-1" x1="65.12" y1="58.67" x2="65.62" y2="58.93"/>
    <line class="cls-1" x1="65.24" y1="65.81" x2="64.74" y2="65.54"/>
    <line class="cls-1" x1="101.99" y1="68.95" x2="102.57" y2="68.98"/>
    <line class="cls-1" x1="103.16" y1="76.7" x2="102.58" y2="76.65"/>
    <path class="cls-1" d="M97.14,76.36l-.15,0"/>
    <line class="cls-1" x1="77.52" y1="73.02" x2="77.5" y2="71.23"/>
    <line class="cls-1" x1="97.01" y1="78.46" x2="96.17" y2="78.58"/>
    <line class="cls-1" x1="96.17" y1="78.58" x2="77.52" y2="73.02"/>
    <line class="cls-1" x1="65.62" y1="58.93" x2="66.24" y2="58.85"/>
    <line class="cls-1" x1="70.8" y1="60.53" x2="70.78" y2="61.01"/>
    <line class="cls-1" x1="154.89" y1="69.94" x2="154.94" y2="69.93"/>
    <line class="cls-1" x1="74.65" y1="62.63" x2="74.66" y2="62.16"/>
    <line class="cls-1" x1="83.7" y1="65.22" x2="79.68" y2="63.99"/>
    <line class="cls-1" x1="143.44" y1="55.66" x2="147.7" y2="56.75"/>
    <line class="cls-1" x1="129.4" y1="50.69" x2="66.46" y2="58.48"/>
    <line class="cls-1" x1="75.19" y1="62.37" x2="75.19" y2="62.84"/>
    <line class="cls-1" x1="138.67" y1="54.22" x2="142.86" y2="55.5"/>
    <line class="cls-1" x1="153.23" y1="57.89" x2="157.65" y2="58.57"/>
    <line class="cls-1" x1="79.68" y1="63.99" x2="79.68" y2="64.45"/>
    <line class="cls-1" x1="93.08" y1="67.33" x2="88.91" y2="66.52"/>
    <line class="cls-1" x1="70.23" y1="60.76" x2="70.25" y2="60.29"/>
    <line class="cls-1" x1="93.1" y1="67.78" x2="93.08" y2="67.33"/>
    <line class="cls-1" x1="83.7" y1="65.68" x2="83.7" y2="65.22"/>
    <line class="cls-1" x1="74.66" y1="62.16" x2="70.8" y2="60.53"/>
    <line class="cls-1" x1="79.13" y1="64.27" x2="79.14" y2="63.81"/>
    <path class="cls-1" d="M97,76.14a.91.91,0,0,1,.23,0l.11,0,0,0,0,0v0"/>
    <path class="cls-1" d="M99.78,76.4a.3.3,0,0,1,0,.16.54.54,0,0,1-.15.15.71.71,0,0,1-.14.1l-.18.1a5.55,5.55,0,0,1-.72.25,12.28,12.28,0,0,1-1.49.3"/>
    <path class="cls-1" d="M133.51,52.62l-.1,0"/>
    <path class="cls-1" d="M138.11,54.29h0"/>
    <path class="cls-1" d="M157.65,58.73h0"/>
    <path class="cls-1" d="M147.7,56.83l.36.09"/>
    <path class="cls-1" d="M142.86,55.54l.46.14"/>
    <line class="cls-1" x1="66.46" y1="58.5" x2="65.12" y2="58.67"/>
    <line class="cls-1" x1="155.68" y1="69.82" x2="155.68" y2="69.46"/>
    <line class="cls-1" x1="66.44" y1="58.82" x2="66.24" y2="58.85"/>
    <line class="cls-1" x1="101.99" y1="68.95" x2="102.57" y2="68.87"/>
    <line class="cls-1" x1="96.15" y1="75.95" x2="96.17" y2="78.58"/>
    <line class="cls-1" x1="147.7" y1="56.75" x2="147.7" y2="56.96"/>
    <line class="cls-1" x1="83.7" y1="65.22" x2="147.7" y2="56.75"/>
    <line class="cls-1" x1="70.25" y1="60.29" x2="66.46" y2="58.48"/>
    <line class="cls-1" x1="167.96" y1="59.45" x2="167.96" y2="59.55"/>
    <line class="cls-1" x1="102.82" y1="68.44" x2="98.5" y2="68.08"/>
    <line class="cls-1" x1="163.39" y1="59.18" x2="167.96" y2="59.45"/>
    <path class="cls-1" d="M169.32,59.37l.43,0,.21,0,.1,0,.07,0,0,0"/>
    <path class="cls-1" d="M169.38,67.45c.22,0,.47-.07.68-.12l.34-.08.17-.06.06,0,0,0,0,0a0,0,0,0,0,0,0"/>
    <path class="cls-1" d="M103.16,76.7c.42,0,.93,0,1.35,0l1.35-.06c.86-.06,1.83-.15,2.68-.28"/>
    <line class="cls-1" x1="170.15" y1="59.5" x2="170.7" y2="67.09"/>
    <path class="cls-1" d="M170.15,59.5v0l0,0-.05,0-.06,0-.16,0-.34.08-.68.11"/>
    <line class="cls-1" x1="129.57" y1="50.7" x2="129.45" y2="50.71"/>
    <line class="cls-1" x1="130.1" y1="50.93" x2="129.57" y2="50.7"/>
    <line class="cls-1" x1="84.25" y1="65.37" x2="84.26" y2="65.84"/>
    <line class="cls-1" x1="88.35" y1="66.4" x2="84.25" y2="65.37"/>
    <line class="cls-1" x1="148.29" y1="56.89" x2="152.63" y2="57.78"/>
    <line class="cls-1" x1="162.75" y1="59.13" x2="162.76" y2="59.27"/>
    <line class="cls-1" x1="158.25" y1="58.65" x2="162.75" y2="59.13"/>
    <line class="cls-1" x1="66.34" y1="57" x2="124.9" y2="49.84"/>
    <path class="cls-1" d="M65.14,58.32a1.19,1.19,0,0,1-.33-.22.43.43,0,0,1-.19-.34"/>
    <path class="cls-1" d="M124.9,49.84a11.14,11.14,0,0,1,2.38,0,11.38,11.38,0,0,1,1.17.18,5.77,5.77,0,0,1,1.14.35"/>
    <line class="cls-1" x1="64.22" y1="64.96" x2="64.62" y2="57.76"/>
    <path class="cls-1" d="M64.22,65a.42.42,0,0,0,.18.35,1.27,1.27,0,0,0,.34.23"/>
    <path class="cls-1" d="M64.62,57.76a.51.51,0,0,1,.3-.37,2.57,2.57,0,0,1,.45-.2,6.4,6.4,0,0,1,1-.19"/>
    <line class="cls-1" x1="65.14" y1="58.32" x2="129.59" y2="50.38"/>
    <line class="cls-1" x1="98.5" y1="68.08" x2="98.53" y2="68.52"/>
    <line class="cls-1" x1="130.1" y1="50.93" x2="130.01" y2="50.94"/>
    <line class="cls-1" x1="93.65" y1="67.43" x2="93.68" y2="67.88"/>
    <line class="cls-1" x1="97.9" y1="68.01" x2="93.65" y2="67.43"/>
    <line class="cls-1" x1="154.94" y1="69.57" x2="154.94" y2="69.93"/>
    <path class="cls-1" d="M151,70.15c.65,0,1.32,0,2,0s1.32-.09,2-.18"/>
    <line class="cls-1" x1="97.92" y1="68.45" x2="97.9" y2="68.01"/>
    <line class="cls-1" x1="65.12" y1="58.67" x2="65.14" y2="58.32"/>
    <line class="cls-1" x1="88.36" y1="66.85" x2="88.35" y2="66.4"/>
    <line class="cls-1" x1="99.78" y1="76.39" x2="99.79" y2="77.37"/>
    <path class="cls-1" d="M138.1,54l.55.19"/>
    <path class="cls-1" d="M152.63,57.9l.22,0"/>
    <line class="cls-1" x1="102.58" y1="76.65" x2="101.99" y2="68.95"/>
    <line class="cls-1" x1="97.01" y1="78.46" x2="96.99" y2="76.07"/>
    <path class="cls-1" d="M66.24,58.85a92,92,0,0,0,36.32,10"/>
    <path class="cls-1" d="M102,69a92.05,92.05,0,0,1-36.37-10"/>
    <line class="cls-1" x1="65.62" y1="58.93" x2="65.24" y2="65.81"/>
    <path class="cls-1" d="M102.58,76.65A95.57,95.57,0,0,1,65.24,65.81"/>
    <line class="cls-1" x1="138.11" y1="54.03" x2="138.1" y2="54.29"/>
    <line class="cls-1" x1="74.66" y1="62.16" x2="138.11" y2="54.03"/>
    <line class="cls-1" x1="134" y1="52.56" x2="70.8" y2="60.53"/>
    <line class="cls-1" x1="134" y1="52.56" x2="138.11" y2="54.03"/>
    <line class="cls-1" x1="143.44" y1="55.66" x2="79.68" y2="63.99"/>
    <line class="cls-1" x1="133.42" y1="52.34" x2="133.4" y2="52.64"/>
    <line class="cls-1" x1="70.25" y1="60.29" x2="133.42" y2="52.34"/>
    <line class="cls-1" x1="66.46" y1="58.48" x2="66.44" y2="58.95"/>
    <line class="cls-1" x1="129.4" y1="50.69" x2="133.42" y2="52.34"/>
    <line class="cls-1" x1="142.86" y1="55.5" x2="142.86" y2="55.74"/>
    <line class="cls-1" x1="79.14" y1="63.81" x2="142.86" y2="55.5"/>
    <line class="cls-1" x1="138.67" y1="54.22" x2="75.19" y2="62.37"/>
    <line class="cls-1" x1="79.14" y1="63.81" x2="75.19" y2="62.37"/>
    <line class="cls-1" x1="157.65" y1="58.57" x2="157.65" y2="58.73"/>
    <line class="cls-1" x1="93.08" y1="67.33" x2="157.65" y2="58.57"/>
    <line class="cls-1" x1="88.91" y1="66.52" x2="88.93" y2="66.98"/>
    <line class="cls-1" x1="153.23" y1="57.89" x2="88.91" y2="66.52"/>
    <line class="cls-1" x1="102.83" y1="68.55" x2="102.82" y2="68.44"/>
    <line class="cls-1" x1="102.82" y1="68.44" x2="167.96" y2="59.45"/>
    <line class="cls-1" x1="163.39" y1="59.18" x2="98.5" y2="68.08"/>
    <line class="cls-1" x1="108.54" y1="76.38" x2="169.38" y2="67.45"/>
    <line class="cls-1" x1="102.54" y1="68.59" x2="103.16" y2="76.7"/>
    <line class="cls-1" x1="169.32" y1="59.37" x2="102.54" y2="68.59"/>
    <line class="cls-1" x1="168.83" y1="59.83" x2="107.93" y2="68.27"/>
    <path class="cls-1" d="M107.93,68.27c-.85.12-1.83.21-2.69.26-.45,0-.9.06-1.35.07s-.93,0-1.35,0"/>
    <line class="cls-1" x1="152.63" y1="57.78" x2="152.64" y2="57.97"/>
    <line class="cls-1" x1="88.35" y1="66.4" x2="152.63" y2="57.78"/>
    <line class="cls-1" x1="148.29" y1="56.89" x2="84.25" y2="65.37"/>
    <line class="cls-1" x1="97.9" y1="68.01" x2="162.75" y2="59.13"/>
    <line class="cls-1" x1="158.25" y1="58.65" x2="93.65" y2="67.43"/>
    <line class="cls-1" x1="129.59" y1="50.38" x2="129.57" y2="50.7"/>
  </g>
  <g>
    <path class="cls-2" d="M217.49,111.78,44.93,146.16"/>
    <path class="cls-2" d="M69.22,71.46,30,76.48"/>
    <path class="cls-2" d="M214.62,66.73,45.46,93"/>
    <path class="cls-2" d="M217.49,111.78,44.93,146.16"/>
    <path class="cls-2" d="M169.12,56,150,58.3"/>
    <path class="cls-2" d="M191.69,53.29l-19.8,2.43"/>
    <path class="cls-2" d="M75.11,70.58l-2.55.33"/>
  </g>
  <line class="cls-1" x1="128.74" y1="22.95" x2="170.47" y2="27.65"/>
  <line class="cls-1" x1="170.74" y1="57.07" x2="170.74" y2="23.49"/>
  <line class="cls-1" x1="33.38" y1="72.62" x2="33.38" y2="13.56"/>
  <line class="cls-1" x1="60.16" y1="55.9" x2="29.23" y2="47.39"/>
  <line class="cls-1" x1="73.49" y1="71.89" x2="29.09" y2="58.33"/>
  <line class="cls-1" x1="63.18" y1="26.95" x2="128.51" y2="23.01"/>
  <line class="cls-1" x1="63.12" y1="55.24" x2="63.12" y2="22.74"/>
  <line class="cls-1" x1="128.69" y1="47.46" x2="128.69" y2="18.83"/>
  <polyline class="cls-3" points="128.66 22.95 123.04 21.83 123.17 24.61 128.66 22.95"/>
  <polyline class="cls-3" points="128.83 22.93 134.5 22.14 134.21 24.9 128.83 22.93"/>
  <polyline class="cls-3" points="170.69 27.63 165.01 28.43 165.31 25.66 170.69 27.63"/>
  <polyline class="cls-3" points="63.12 27 68.75 28.09 68.6 25.32 63.12 27"/>
  <polyline class="cls-3" points="33.41 59.69 32 65.25 34.78 65.26 33.41 59.69"/>
  <polyline class="cls-3" points="33.39 48.37 34.8 42.81 32.02 42.8 33.39 48.37"/>
  <g>
    <g>
      <path class="cls-4" d="M90.34,18.24a2.2,2.2,0,0,1,1.63.51,2.07,2.07,0,0,1,.72,1.5,2.05,2.05,0,0,1-.55,1.59,2.31,2.31,0,0,1-1.61.7,2.08,2.08,0,0,1-1.74-.68A3.22,3.22,0,0,1,88,19.8a3.87,3.87,0,0,1,.64-2.67,2.66,2.66,0,0,1,2.06-1.07,2.71,2.71,0,0,1,1.75.47l-.37.67a2,2,0,0,0-1.35-.41,2,2,0,0,0-1.47.76,2.51,2.51,0,0,0-.53,1.74,1.68,1.68,0,0,1,.62-.73A2,2,0,0,1,90.34,18.24Zm-.91,3.22a1.39,1.39,0,0,0,1.07.34,1.41,1.41,0,0,0,1-.46,1.45,1.45,0,0,0,.35-1.06,1.38,1.38,0,0,0-.47-1,1.47,1.47,0,0,0-1.07-.34,1.43,1.43,0,0,0-1,.46,1.5,1.5,0,0,0,.12,2.06Z"/>
      <path class="cls-4" d="M94,22.26a11.61,11.61,0,0,1,2.46-5.74L93,16.73l0-.73,4.39-.26,0,.73Q94.92,20,94.86,22.21Z"/>
      <path class="cls-4" d="M100.47,21.94a2.05,2.05,0,0,1-1.84-.76,4,4,0,0,1-.77-2.31,4,4,0,0,1,.49-2.4,2.28,2.28,0,0,1,3.57-.21,4,4,0,0,1,.77,2.31A3.91,3.91,0,0,1,102.2,21,2,2,0,0,1,100.47,21.94Zm0-.74a1.27,1.27,0,0,0,1.11-.73,3.42,3.42,0,0,0,.3-1.85,3.42,3.42,0,0,0-.52-1.79A1.35,1.35,0,0,0,99,17a3.42,3.42,0,0,0-.3,1.85,3.52,3.52,0,0,0,.52,1.8A1.26,1.26,0,0,0,100.43,21.2Z"/>
    </g>
    <g>
      <path class="cls-4" d="M86.12,34.81l-.05-.71,2.25-2.18a2.45,2.45,0,0,0,.94-1.8,1.07,1.07,0,0,0-.38-.82A1.21,1.21,0,0,0,88,29a1.26,1.26,0,0,0-1,.49,1.54,1.54,0,0,0-.21,1.15H86a2,2,0,0,1,1.94-2.36,2.19,2.19,0,0,1,1.53.43,1.8,1.8,0,0,1,.64,1.34,2.18,2.18,0,0,1-.26,1.15,4.88,4.88,0,0,1-1,1.22L87.23,34l3.11-.18,0,.74Z"/>
      <path class="cls-4" d="M93.23,30.14a2.25,2.25,0,0,1,1.64.51A2.2,2.2,0,0,1,95,33.74a2.31,2.31,0,0,1-1.61.7,2.08,2.08,0,0,1-1.75-.68,3.28,3.28,0,0,1-.77-2.06A3.94,3.94,0,0,1,91.56,29,2.66,2.66,0,0,1,93.62,28a2.71,2.71,0,0,1,1.75.47L95,29.1a2,2,0,0,0-1.35-.41,2,2,0,0,0-1.47.76,2.51,2.51,0,0,0-.53,1.74,1.62,1.62,0,0,1,.62-.73A2,2,0,0,1,93.23,30.14Zm-.9,3.22a1.37,1.37,0,0,0,1.06.34,1.39,1.39,0,0,0,1-.46,1.49,1.49,0,0,0-.11-2.06,1.47,1.47,0,0,0-1.07-.34,1.4,1.4,0,0,0-1,.47,1.33,1.33,0,0,0-.35,1A1.37,1.37,0,0,0,92.33,33.36Z"/>
      <path class="cls-4" d="M96.6,33.24l.88-.05.06.93-.88.06Z"/>
      <path class="cls-4" d="M101.31,33.9l-.09-1.54-3.32.2-.05-.74,3-4.22.94-.06.24,4,.91-.06,0,.74-.91.06.09,1.54Zm-2.57-2.13,2.43-.15L101,28.53Z"/>
      <path class="cls-4" d="M104.72,27.29l-.38,1.81-1,.06.85-1.84Zm1.33-.08L105.67,29l-1,.06.85-1.84Z"/>
    </g>
  </g>
  <g>
    <g>
      <path class="cls-4" d="M30.28,31.79H25a2.91,2.91,0,0,1,.7,1.5H25a2.78,2.78,0,0,0-1-1.62V31h6.31Z"/>
      <path class="cls-4" d="M30.28,28.66H25a2.91,2.91,0,0,1,.7,1.5H25a2.78,2.78,0,0,0-1-1.62v-.65h6.31Z"/>
      <path class="cls-4" d="M30.36,24.44a2.07,2.07,0,0,1-.87,1.79,4,4,0,0,1-2.36.63,3.93,3.93,0,0,1-2.36-.63,2.07,2.07,0,0,1-.87-1.79,2.09,2.09,0,0,1,.87-1.79A4,4,0,0,1,27.13,22a3.94,3.94,0,0,1,2.35.63A2.1,2.1,0,0,1,30.36,24.44Zm-.74,0A1.31,1.31,0,0,0,29,23.28a3.5,3.5,0,0,0-1.82-.41,3.54,3.54,0,0,0-1.83.41,1.35,1.35,0,0,0,0,2.33,3.49,3.49,0,0,0,1.83.41A3.5,3.5,0,0,0,29,25.61,1.3,1.3,0,0,0,29.62,24.44Z"/>
    </g>
    <g>
      <path class="cls-4" d="M42.4,35.55H40.86v3.32h-.74l-4-3.2v-.94h4v-.92h.74v.92H42.4ZM40.12,38V35.55H37Z"/>
      <path class="cls-4" d="M41.47,33.1v-.88h.93v.88Z"/>
      <path class="cls-4" d="M42.48,29.11a2.4,2.4,0,0,1-.5,1.55,1.89,1.89,0,0,1-1.33.71l-.11-.78a1.23,1.23,0,0,0,.87-.46,1.58,1.58,0,0,0,.33-1,1.52,1.52,0,0,0-.36-1.05,1.4,1.4,0,0,0-1.92,0,1.5,1.5,0,0,0-.34,1,1.29,1.29,0,0,0,.2.69l-.52.36-2-2v3.07h-.73v-4h.71L38.55,29A1.94,1.94,0,0,1,39,27.42a1.81,1.81,0,0,1,1.45-.6,1.9,1.9,0,0,1,1.48.63A2.42,2.42,0,0,1,42.48,29.11Z"/>
      <path class="cls-4" d="M42.4,22.93H40.86v3.32h-.74l-4-3.2v-.94h4v-.92h.74v.92H42.4Zm-2.28,2.44V22.93H37Z"/>
      <path class="cls-4" d="M36,17.79l1.78.49v1L36,18.32Zm0,1.34,1.78.49v1l-1.78-1Z"/>
    </g>
  </g>
  <g>
    <g>
      <path class="cls-4" d="M146.26,17.58a2.2,2.2,0,0,1,1.52.77,2.19,2.19,0,0,1-.36,3.08,2.33,2.33,0,0,1-1.7.42,2.1,2.1,0,0,1-1.6-1,3.18,3.18,0,0,1-.41-2.15,3.94,3.94,0,0,1,1.09-2.53,2.66,2.66,0,0,1,2.21-.7,2.73,2.73,0,0,1,1.65.76l-.49.59a1.93,1.93,0,0,0-1.25-.62,2,2,0,0,0-1.58.5,2.49,2.49,0,0,0-.82,1.62,1.67,1.67,0,0,1,.74-.62A2,2,0,0,1,146.26,17.58Zm-1.44,3a1.53,1.53,0,0,0,2.07.23,1.47,1.47,0,0,0,.53-1,1.42,1.42,0,0,0-.3-1.07,1.45,1.45,0,0,0-1-.51,1.43,1.43,0,0,0-1.08.28,1.51,1.51,0,0,0-.23,2.05Z"/>
      <path class="cls-4" d="M148.57,22.09l.07-.71,2.59-1.77A2.43,2.43,0,0,0,152.46,18a1.11,1.11,0,0,0-.23-.88,1.21,1.21,0,0,0-.84-.41,1.23,1.23,0,0,0-1,.32,1.46,1.46,0,0,0-.4,1.09l-.78-.14a2,2,0,0,1,2.31-2,2.07,2.07,0,0,1,1.43.68,1.76,1.76,0,0,1,.41,1.42,2.14,2.14,0,0,1-.46,1.09,4.81,4.81,0,0,1-1.18,1l-1.87,1.26,3.09.34-.08.74Z"/>
      <path class="cls-4" d="M153.8,22.67a11.68,11.68,0,0,1,3.4-5.24L153.68,17l.08-.73,4.37.49-.08.72c-2,2.05-3.12,3.79-3.42,5.24Z"/>
    </g>
    <g>
      <path class="cls-4" d="M139.26,33.25l.07-.71,2.58-1.77a2.45,2.45,0,0,0,1.24-1.61,1.11,1.11,0,0,0-.23-.87,1.26,1.26,0,0,0-.84-.42,1.24,1.24,0,0,0-1.05.32,1.48,1.48,0,0,0-.41,1.09l-.78-.14a2,2,0,0,1,2.32-2,2.13,2.13,0,0,1,1.43.68,1.76,1.76,0,0,1,.4,1.43,2.13,2.13,0,0,1-.45,1.08,4.88,4.88,0,0,1-1.19,1l-1.86,1.26,3.09.35-.08.73Z"/>
      <path class="cls-4" d="M147,34.12l.17-1.54-3.31-.37.08-.73,3.63-3.65.94.1-.44,4,.9.1-.08.73-.9-.1-.17,1.54Zm-2.18-2.54,2.43.27.34-3.08Z"/>
      <path class="cls-4" d="M149.57,33.45l.88.1-.1.93-.88-.1Z"/>
      <path class="cls-4" d="M151.43,34.6a11.63,11.63,0,0,1,3.41-5.24L151.31,29l.08-.73,4.37.49-.08.73c-2,2-3.12,3.79-3.41,5.23Z"/>
      <path class="cls-4" d="M157.86,28.89l-.68,1.72-1-.11,1.15-1.67Zm1.32.15-.68,1.72-1-.11L158.66,29Z"/>
    </g>
  </g>
</svg>
