<svg id="Vrstva_1" data-name="Vrstva 1" xmlns="http://www.w3.org/2000/svg" viewBox="0 0 311.81 226.77">
  <defs>
    <style>
      .cls-1 {
        fill: none;
        stroke: #010101;
        stroke-linecap: round;
        stroke-linejoin: round;
      }

      .cls-1, .cls-2 {
        stroke-width:.7px;
      }

      .cls-2 {
        fill: #010202;
        stroke: #010202;
        stroke-miterlimit: 10;
      }

      .cls-3 {
        fill: #1d1d1b;
      }
    
.cls-1{stroke:#ffffff}
.cls-2{stroke:#ffffff;fill:#ffffff}
.cls-3{fill:#24466f}
</style>
  </defs>
  <g>
    <line class="cls-1" x1="162.97" y1="68.03" x2="162.86" y2="68.09"/>
    <line class="cls-1" x1="232.96" y1="62.42" x2="234.67" y2="69.08"/>
    <line class="cls-1" x1="234.61" y1="69.26" x2="233.13" y2="69.92"/>
    <line class="cls-1" x1="248.91" y1="85.98" x2="243.3" y2="86.68"/>
    <line class="cls-1" x1="256.21" y1="87.66" x2="261.56" y2="86.97"/>
    <line class="cls-1" x1="268.2" y1="83.55" x2="262.97" y2="84.21"/>
    <line class="cls-1" x1="73.08" y1="75.37" x2="162.22" y2="68.09"/>
    <line class="cls-1" x1="162.64" y1="76.61" x2="122.19" y2="80.44"/>
    <line class="cls-1" x1="227.88" y1="91.36" x2="228.2" y2="88.58"/>
    <line class="cls-1" x1="222.18" y1="89.34" x2="221.86" y2="92.15"/>
    <line class="cls-1" x1="221.86" y1="92.15" x2="220.68" y2="91.93"/>
    <line class="cls-1" x1="220.64" y1="92.31" x2="220.96" y2="89.49"/>
    <line class="cls-1" x1="214.79" y1="90.27" x2="214.48" y2="93.11"/>
    <line class="cls-1" x1="148.06" y1="101.78" x2="146.56" y2="101.41"/>
    <line class="cls-1" x1="214.48" y1="93.11" x2="213.27" y2="92.88"/>
    <line class="cls-1" x1="269.1" y1="95.47" x2="273.49" y2="96.22"/>
    <line class="cls-1" x1="155.89" y1="97.68" x2="124.34" y2="90.41"/>
    <line class="cls-1" x1="213.23" y1="93.27" x2="213.54" y2="90.43"/>
    <line class="cls-1" x1="207.21" y1="91.22" x2="206.91" y2="94.1"/>
    <line class="cls-1" x1="148.28" y1="98.64" x2="148.06" y2="101.78"/>
    <line class="cls-1" x1="206.91" y1="94.1" x2="205.67" y2="93.86"/>
    <line class="cls-1" x1="155.65" y1="100.79" x2="155.89" y2="97.68"/>
    <line class="cls-1" x1="119.2" y1="105.54" x2="117.56" y2="105.08"/>
    <line class="cls-1" x1="74.1" y1="126.21" x2="74.62" y2="107.91"/>
    <line class="cls-1" x1="127.65" y1="101.23" x2="97.44" y2="93.36"/>
    <line class="cls-1" x1="71.28" y1="108.33" x2="70.8" y2="126.71"/>
    <line class="cls-1" x1="119.38" y1="102.27" x2="119.2" y2="105.54"/>
    <line class="cls-1" x1="74.62" y1="107.91" x2="46.28" y2="98.43"/>
    <line class="cls-1" x1="127.46" y1="104.46" x2="127.65" y2="101.23"/>
    <line class="cls-1" x1="205.63" y1="94.27" x2="205.93" y2="91.38"/>
    <line class="cls-1" x1="109.02" y1="106.87" x2="107.32" y2="106.37"/>
    <line class="cls-1" x1="77.74" y1="98.65" x2="98.67" y2="104.88"/>
    <line class="cls-1" x1="199.44" y1="92.2" x2="199.14" y2="95.11"/>
    <line class="cls-1" x1="96.89" y1="105.1" x2="87.85" y2="106.24"/>
    <line class="cls-1" x1="117.7" y1="102.49" x2="88.01" y2="94.39"/>
    <line class="cls-1" x1="199.14" y1="95.11" x2="197.87" y2="94.86"/>
    <line class="cls-1" x1="109.02" y1="106.87" x2="117.52" y2="105.76"/>
    <line class="cls-1" x1="221.89" y1="79.73" x2="256.57" y2="85.01"/>
    <line class="cls-1" x1="109.18" y1="103.56" x2="109.02" y2="106.87"/>
    <line class="cls-1" x1="235.27" y1="87.69" x2="201.04" y2="82.01"/>
    <line class="cls-1" x1="195.3" y1="82.64" x2="229.39" y2="88.43"/>
    <line class="cls-1" x1="117.52" y1="105.76" x2="117.7" y2="102.49"/>
    <line class="cls-1" x1="202.17" y1="81.89" x2="236.43" y2="87.55"/>
    <line class="cls-1" x1="242.17" y1="86.83" x2="236.43" y2="87.55"/>
    <path class="cls-1" d="M234.67,69.08a.17.17,0,0,1,0,.1s0,.07-.06.08"/>
    <line class="cls-1" x1="236.1" y1="90.29" x2="241.83" y2="89.54"/>
    <path class="cls-1" d="M159.25,58.55s0,0-.05,0"/>
    <line class="cls-1" x1="255.49" y1="85.15" x2="220.83" y2="79.84"/>
    <line class="cls-1" x1="230.98" y1="61.63" x2="199.26" y2="64.18"/>
    <line class="cls-1" x1="161.87" y1="66.34" x2="160.12" y2="58.9"/>
    <line class="cls-1" x1="70.96" y1="64.91" x2="72.73" y2="73.38"/>
    <line class="cls-1" x1="198.49" y1="64.24" x2="162.63" y2="67.12"/>
    <line class="cls-1" x1="236.76" y1="77.63" x2="235.27" y2="78.26"/>
    <line class="cls-1" x1="160.91" y1="58.85" x2="162.66" y2="66.27"/>
    <line class="cls-1" x1="159.24" y1="58.55" x2="229.05" y2="53.88"/>
    <line class="cls-1" x1="220.96" y1="89.49" x2="187.09" y2="83.54"/>
    <line class="cls-1" x1="137.12" y1="103.2" x2="137.33" y2="100.02"/>
    <line class="cls-1" x1="181.09" y1="84.19" x2="214.79" y2="90.27"/>
    <line class="cls-1" x1="129.29" y1="101.03" x2="129.09" y2="104.25"/>
    <line class="cls-1" x1="228.2" y1="88.58" x2="194.14" y2="82.77"/>
    <line class="cls-1" x1="188.28" y1="83.41" x2="222.18" y2="89.34"/>
    <line class="cls-1" x1="97.71" y1="93.43" x2="97.7" y2="93.33"/>
    <line class="cls-1" x1="137.33" y1="100.02" x2="106.64" y2="92.35"/>
    <line class="cls-1" x1="98.53" y1="108.24" x2="96.79" y2="107.7"/>
    <line class="cls-1" x1="107.45" y1="103.78" x2="78.32" y2="95.45"/>
    <line class="cls-1" x1="98.67" y1="104.88" x2="98.53" y2="108.24"/>
    <line class="cls-1" x1="74.76" y1="84.36" x2="74.91" y2="84.26"/>
    <line class="cls-1" x1="107.29" y1="107.1" x2="107.45" y2="103.78"/>
    <line class="cls-1" x1="87.73" y1="109.65" x2="85.93" y2="109.06"/>
    <line class="cls-1" x1="96.89" y1="105.1" x2="67.12" y2="96.17"/>
    <line class="cls-1" x1="87.73" y1="109.65" x2="96.75" y2="108.47"/>
    <line class="cls-1" x1="87.85" y1="106.24" x2="87.73" y2="109.65"/>
    <line class="cls-1" x1="237.61" y1="78.83" x2="269.23" y2="83.42"/>
    <line class="cls-1" x1="129.09" y1="104.25" x2="127.5" y2="103.82"/>
    <line class="cls-1" x1="238.04" y1="80.5" x2="262.97" y2="84.21"/>
    <line class="cls-1" x1="96.75" y1="108.47" x2="96.89" y2="105.1"/>
    <line class="cls-1" x1="119.11" y1="70.61" x2="72.67" y2="74.34"/>
    <line class="cls-1" x1="146.52" y1="101.98" x2="146.74" y2="98.83"/>
    <line class="cls-1" x1="157.15" y1="100.59" x2="155.69" y2="100.24"/>
    <line class="cls-1" x1="138.92" y1="99.82" x2="138.71" y2="103"/>
    <line class="cls-1" x1="237.3" y1="77.64" x2="237.82" y2="77.58"/>
    <line class="cls-1" x1="164.79" y1="96.56" x2="132.86" y2="89.48"/>
    <line class="cls-1" x1="146.74" y1="98.83" x2="115.6" y2="91.37"/>
    <line class="cls-1" x1="157.39" y1="97.49" x2="157.15" y2="100.59"/>
    <line class="cls-1" x1="138.71" y1="103" x2="137.16" y2="102.6"/>
    <line class="cls-1" x1="164.54" y1="99.63" x2="164.79" y2="96.56"/>
    <line class="cls-1" x1="235.25" y1="78.26" x2="167.02" y2="85.74"/>
    <line class="cls-1" x1="76.6" y1="111.1" x2="74.55" y2="110.4"/>
    <line class="cls-1" x1="86.02" y1="106.47" x2="56.93" y2="97.28"/>
    <line class="cls-1" x1="165.2" y1="77.38" x2="234.99" y2="70.65"/>
    <line class="cls-1" x1="164.84" y1="85.98" x2="77.1" y2="95.59"/>
    <line class="cls-1" x1="75.3" y1="86.04" x2="164.42" y2="77.45"/>
    <path class="cls-1" d="M69.53,64.54a.06.06,0,0,0,0,0"/>
    <line class="cls-1" x1="160.44" y1="67.29" x2="119.98" y2="70.54"/>
    <line class="cls-1" x1="69.52" y1="64.54" x2="158.45" y2="58.6"/>
    <line class="cls-1" x1="189.83" y1="96.33" x2="190.11" y2="93.38"/>
    <line class="cls-1" x1="183.28" y1="94.23" x2="183.01" y2="97.22"/>
    <line class="cls-1" x1="190.11" y1="93.38" x2="157.21" y2="86.81"/>
    <line class="cls-1" x1="183.01" y1="97.22" x2="181.67" y2="96.93"/>
    <line class="cls-1" x1="181.62" y1="97.4" x2="181.89" y2="94.41"/>
    <line class="cls-1" x1="200.65" y1="73" x2="164.82" y2="76.4"/>
    <line class="cls-1" x1="76.7" y1="107.64" x2="76.6" y2="111.1"/>
    <line class="cls-1" x1="85.9" y1="109.89" x2="86.02" y2="106.47"/>
    <line class="cls-1" x1="268.87" y1="86.01" x2="267.87" y2="85.86"/>
    <line class="cls-1" x1="274.34" y1="82.78" x2="237.82" y2="77.58"/>
    <line class="cls-1" x1="269.23" y1="83.42" x2="268.87" y2="86.01"/>
    <line class="cls-1" x1="273.97" y1="85.35" x2="274.34" y2="82.78"/>
    <path class="cls-1" d="M232.86,62.32s0,0,.07,0a.15.15,0,0,1,0,.07"/>
    <line class="cls-1" x1="163" y1="68.02" x2="232.86" y2="62.32"/>
    <line class="cls-1" x1="174.88" y1="95.29" x2="174.62" y2="98.31"/>
    <line class="cls-1" x1="233.11" y1="69.93" x2="201.42" y2="72.93"/>
    <line class="cls-1" x1="256.21" y1="87.66" x2="255.17" y2="87.5"/>
    <line class="cls-1" x1="261.91" y1="84.34" x2="227.15" y2="79.15"/>
    <line class="cls-1" x1="174.62" y1="98.31" x2="173.24" y2="98.01"/>
    <line class="cls-1" x1="256.57" y1="85.01" x2="256.21" y2="87.66"/>
    <line class="cls-1" x1="255.13" y1="87.81" x2="255.49" y2="85.15"/>
    <line class="cls-1" x1="261.56" y1="86.97" x2="261.91" y2="84.34"/>
    <line class="cls-1" x1="250.01" y1="85.84" x2="249.66" y2="88.52"/>
    <line class="cls-1" x1="262.61" y1="86.83" x2="261.6" y2="86.67"/>
    <line class="cls-1" x1="249.66" y1="88.52" x2="248.6" y2="88.35"/>
    <line class="cls-1" x1="262.97" y1="84.21" x2="262.61" y2="86.83"/>
    <line class="cls-1" x1="242.96" y1="89.39" x2="248.56" y2="88.66"/>
    <line class="cls-1" x1="267.83" y1="86.15" x2="268.2" y2="83.55"/>
    <line class="cls-1" x1="248.56" y1="88.66" x2="248.91" y2="85.98"/>
    <line class="cls-1" x1="166" y1="99.44" x2="164.58" y2="99.11"/>
    <line class="cls-1" x1="243.3" y1="86.68" x2="242.96" y2="89.39"/>
    <line class="cls-1" x1="166.25" y1="96.38" x2="166" y2="99.44"/>
    <line class="cls-1" x1="242.96" y1="89.39" x2="241.87" y2="89.21"/>
    <line class="cls-1" x1="173.2" y1="98.5" x2="173.46" y2="95.47"/>
    <line class="cls-1" x1="262.61" y1="86.83" x2="267.83" y2="86.15"/>
    <line class="cls-1" x1="173.46" y1="95.47" x2="141.17" y2="88.57"/>
    <line class="cls-1" x1="166" y1="99.44" x2="173.2" y2="98.5"/>
    <line class="cls-1" x1="173.46" y1="95.47" x2="166.25" y2="96.38"/>
    <line class="cls-1" x1="198.12" y1="92.37" x2="167.17" y2="86.39"/>
    <line class="cls-1" x1="191.18" y1="96.15" x2="197.83" y2="95.28"/>
    <line class="cls-1" x1="198.12" y1="92.37" x2="191.46" y2="93.21"/>
    <line class="cls-1" x1="235.27" y1="87.69" x2="229.39" y2="88.43"/>
    <line class="cls-1" x1="229.06" y1="91.21" x2="234.94" y2="90.44"/>
    <line class="cls-1" x1="255.49" y1="85.15" x2="250.01" y2="85.84"/>
    <line class="cls-1" x1="249.66" y1="88.52" x2="255.13" y2="87.81"/>
    <line class="cls-1" x1="108.15" y1="92.19" x2="138.92" y2="99.82"/>
    <line class="cls-1" x1="121.31" y1="80.53" x2="74.88" y2="84.93"/>
    <line class="cls-1" x1="98.99" y1="93.19" x2="129.29" y2="101.03"/>
    <line class="cls-1" x1="173.74" y1="85" x2="207.21" y2="91.22"/>
    <line class="cls-1" x1="142.54" y1="88.42" x2="174.88" y2="95.29"/>
    <line class="cls-1" x1="174.62" y1="98.31" x2="181.62" y2="97.4"/>
    <line class="cls-1" x1="181.89" y1="94.41" x2="174.88" y2="95.29"/>
    <line class="cls-1" x1="183.01" y1="97.22" x2="189.83" y2="96.33"/>
    <line class="cls-1" x1="190.11" y1="93.38" x2="183.28" y2="94.23"/>
    <line class="cls-1" x1="70.88" y1="64.79" x2="69.53" y2="64.54"/>
    <path class="cls-1" d="M72.69,73.61l-.15.11"/>
    <path class="cls-1" d="M158.45,58.6h0"/>
    <path class="cls-1" d="M160.44,67.29h0"/>
    <path class="cls-1" d="M160,58.79a.07.07,0,0,1,.06,0,.11.11,0,0,1,0,.07"/>
    <path class="cls-1" d="M71,64.91s0,0,0-.07,0,0-.05,0"/>
    <path class="cls-1" d="M72.73,73.38a.48.48,0,0,1,0,.12.13.13,0,0,1,0,.06.05.05,0,0,1,0,0"/>
    <path class="cls-1" d="M161.82,66.54a.18.18,0,0,0,.06-.09.37.37,0,0,0,0-.11"/>
    <line class="cls-1" x1="77.19" y1="94.76" x2="75.4" y2="86.17"/>
    <path class="cls-1" d="M164.42,77.45a.1.1,0,0,1,.07,0,.11.11,0,0,1,0,.08"/>
    <path class="cls-1" d="M75.3,86h0"/>
    <path class="cls-1" d="M75.4,86.17l0-.08,0,0,0,0"/>
    <line class="cls-1" x1="74.95" y1="84.03" x2="73.17" y2="75.5"/>
    <line class="cls-1" x1="221.86" y1="92.15" x2="227.88" y2="91.36"/>
    <path class="cls-1" d="M162.22,68.09a.1.1,0,0,1,.07,0l0,.07"/>
    <path class="cls-1" d="M73.08,75.37h0"/>
    <line class="cls-1" x1="228.2" y1="88.58" x2="222.18" y2="89.34"/>
    <path class="cls-1" d="M73.17,75.5l0-.08,0,0,0,0"/>
    <line class="cls-1" x1="214.48" y1="93.11" x2="220.64" y2="92.31"/>
    <path class="cls-1" d="M162.66,76.6h0"/>
    <line class="cls-1" x1="241.83" y1="89.54" x2="242.17" y2="86.83"/>
    <line class="cls-1" x1="206.91" y1="94.1" x2="213.23" y2="93.27"/>
    <line class="cls-1" x1="213.54" y1="90.43" x2="207.21" y2="91.22"/>
    <path class="cls-1" d="M74.91,84.26a.1.1,0,0,0,0-.05s0,0,0,0A.57.57,0,0,0,75,84"/>
    <path class="cls-1" d="M164.08,75.69a.21.21,0,0,1,0,.11.11.11,0,0,1-.05.09"/>
    <line class="cls-1" x1="73.06" y1="75.38" x2="72.91" y2="75.49"/>
    <line class="cls-1" x1="162.32" y1="68.2" x2="164.08" y2="75.69"/>
    <line class="cls-1" x1="164.03" y1="75.89" x2="162.66" y2="76.6"/>
    <line class="cls-1" x1="70.8" y1="126.71" x2="74.1" y2="126.21"/>
    <line class="cls-1" x1="74.62" y1="107.91" x2="71.28" y2="108.33"/>
    <line class="cls-1" x1="46.28" y1="98.43" x2="43.17" y2="98.77"/>
    <line class="cls-1" x1="191.18" y1="96.15" x2="189.87" y2="95.88"/>
    <line class="cls-1" x1="44.94" y1="116.17" x2="43.17" y2="98.77"/>
    <line class="cls-1" x1="127.65" y1="101.23" x2="119.38" y2="102.27"/>
    <line class="cls-1" x1="268.2" y1="83.55" x2="237.68" y2="79.1"/>
    <line class="cls-1" x1="228.19" y1="79.04" x2="233.45" y2="79.82"/>
    <line class="cls-1" x1="134.26" y1="89.33" x2="166.25" y2="96.38"/>
    <line class="cls-1" x1="242.17" y1="86.83" x2="207.78" y2="81.27"/>
    <line class="cls-1" x1="248.91" y1="85.98" x2="214.38" y2="80.55"/>
    <line class="cls-1" x1="208.89" y1="81.15" x2="243.3" y2="86.68"/>
    <line class="cls-1" x1="215.46" y1="80.43" x2="250.01" y2="85.84"/>
    <line class="cls-1" x1="181.89" y1="94.41" x2="149.29" y2="87.68"/>
    <line class="cls-1" x1="150.62" y1="87.53" x2="183.28" y2="94.23"/>
    <line class="cls-1" x1="158.46" y1="58.6" x2="160.03" y2="58.79"/>
    <path class="cls-1" d="M160.46,67.29l1.36-.75"/>
    <line class="cls-1" x1="164.52" y1="77.57" x2="166.3" y2="85.1"/>
    <line class="cls-1" x1="166.24" y1="85.3" x2="164.86" y2="85.97"/>
    <line class="cls-1" x1="146.74" y1="98.83" x2="138.92" y2="99.82"/>
    <line class="cls-1" x1="43.17" y1="98.77" x2="71.28" y2="108.33"/>
    <line class="cls-1" x1="220.96" y1="89.49" x2="214.79" y2="90.27"/>
    <line class="cls-1" x1="44.94" y1="116.17" x2="70.8" y2="126.71"/>
    <line class="cls-1" x1="117.07" y1="91.21" x2="148.28" y2="98.64"/>
    <line class="cls-1" x1="275.24" y1="95.95" x2="277.21" y2="82.42"/>
    <line class="cls-1" x1="115.74" y1="91.4" x2="115.73" y2="91.36"/>
    <line class="cls-1" x1="277.21" y1="82.42" x2="275.45" y2="82.64"/>
    <line class="cls-1" x1="89.6" y1="94.22" x2="119.38" y2="102.27"/>
    <line class="cls-1" x1="275.45" y1="82.64" x2="273.49" y2="96.22"/>
    <line class="cls-1" x1="79.95" y1="95.27" x2="109.18" y2="103.56"/>
    <line class="cls-1" x1="273.49" y1="96.22" x2="275.24" y2="95.95"/>
    <line class="cls-1" x1="236.43" y1="87.55" x2="236.1" y2="90.29"/>
    <line class="cls-1" x1="240.65" y1="77.28" x2="238.91" y2="77.47"/>
    <line class="cls-1" x1="125.77" y1="90.26" x2="157.39" y2="97.49"/>
    <line class="cls-1" x1="191.46" y1="93.21" x2="191.18" y2="96.15"/>
    <line class="cls-1" x1="48.31" y1="99.11" x2="48.22" y2="98.22"/>
    <line class="cls-1" x1="277.21" y1="82.42" x2="240.65" y2="77.28"/>
    <line class="cls-1" x1="158.51" y1="86.67" x2="163.2" y2="87.6"/>
    <line class="cls-1" x1="166.91" y1="85.27" x2="167.02" y2="85.21"/>
    <line class="cls-1" x1="238.91" y1="77.47" x2="275.45" y2="82.64"/>
    <line class="cls-1" x1="167.08" y1="85.99" x2="199.44" y2="92.2"/>
    <line class="cls-1" x1="236.1" y1="90.29" x2="234.98" y2="90.1"/>
    <line class="cls-1" x1="77" y1="95.08" x2="77.15" y2="94.99"/>
    <line class="cls-1" x1="238.93" y1="77.74" x2="238.91" y2="77.47"/>
    <line class="cls-1" x1="199.14" y1="95.11" x2="205.63" y2="94.27"/>
    <line class="cls-1" x1="164.79" y1="96.56" x2="157.39" y2="97.49"/>
    <line class="cls-1" x1="197.83" y1="95.28" x2="198.12" y2="92.37"/>
    <line class="cls-1" x1="205.93" y1="91.38" x2="199.44" y2="92.2"/>
    <line class="cls-1" x1="132.88" y1="89.48" x2="132.88" y2="89.48"/>
    <path class="cls-1" d="M231,61.62l1.47-.68"/>
    <line class="cls-1" x1="155.89" y1="97.68" x2="148.28" y2="98.64"/>
    <path class="cls-1" d="M232.48,60.94a.1.1,0,0,0,.05-.08.17.17,0,0,0,0-.1"/>
    <line class="cls-1" x1="68.86" y1="96.69" x2="68.79" y2="95.98"/>
    <path class="cls-1" d="M162.66,66.27a.49.49,0,0,1,0,.12.18.18,0,0,1-.06.09"/>
    <line class="cls-1" x1="232.53" y1="60.76" x2="230.84" y2="54.14"/>
    <line class="cls-1" x1="124.41" y1="90.43" x2="124.41" y2="90.4"/>
    <path class="cls-1" d="M160.91,58.85a.11.11,0,0,0,0-.07.07.07,0,0,0,0,0"/>
    <path class="cls-1" d="M230.74,54a.06.06,0,0,1,.06,0,.16.16,0,0,1,0,.07"/>
    <line class="cls-1" x1="117.7" y1="102.49" x2="109.18" y2="103.56"/>
    <line class="cls-1" x1="229.06" y1="53.88" x2="230.74" y2="54.04"/>
    <line class="cls-1" x1="88.35" y1="94.48" x2="88.33" y2="94.36"/>
    <path class="cls-1" d="M231,61.63h0"/>
    <path class="cls-1" d="M229.05,53.88h0"/>
    <line class="cls-1" x1="148.06" y1="101.78" x2="155.65" y2="100.79"/>
    <path class="cls-1" d="M162.61,66.48l-.12.06"/>
    <line class="cls-1" x1="119.2" y1="105.54" x2="127.46" y2="104.46"/>
    <line class="cls-1" x1="160.83" y1="58.74" x2="159.25" y2="58.55"/>
    <line class="cls-1" x1="107.45" y1="103.78" x2="98.67" y2="104.88"/>
    <line class="cls-1" x1="129.09" y1="104.25" x2="137.12" y2="103.2"/>
    <line class="cls-1" x1="78.73" y1="95.57" x2="78.72" y2="95.41"/>
    <line class="cls-1" x1="138.71" y1="103" x2="146.52" y2="101.98"/>
    <line class="cls-1" x1="68.79" y1="95.98" x2="73.64" y2="97.43"/>
    <line class="cls-1" x1="106.84" y1="92.4" x2="106.83" y2="92.33"/>
    <line class="cls-1" x1="68.79" y1="95.98" x2="73.24" y2="95.5"/>
    <line class="cls-1" x1="137.33" y1="100.02" x2="129.29" y2="101.03"/>
    <line class="cls-1" x1="213.54" y1="90.43" x2="179.88" y2="84.33"/>
    <line class="cls-1" x1="98.53" y1="108.24" x2="107.29" y2="107.1"/>
    <line class="cls-1" x1="205.93" y1="91.38" x2="172.5" y2="85.14"/>
    <line class="cls-1" x1="86.02" y1="106.47" x2="76.7" y2="107.64"/>
    <line class="cls-1" x1="235.1" y1="70.75" x2="236.82" y2="77.45"/>
    <line class="cls-1" x1="58.72" y1="97.84" x2="58.65" y2="97.09"/>
    <line class="cls-1" x1="58.65" y1="97.09" x2="87.85" y2="106.24"/>
    <line class="cls-1" x1="58.65" y1="97.09" x2="67.12" y2="96.17"/>
    <line class="cls-1" x1="165.18" y1="77.38" x2="165.06" y2="77.44"/>
    <line class="cls-1" x1="157.15" y1="100.59" x2="164.54" y2="99.63"/>
    <path class="cls-1" d="M236.82,77.45a.17.17,0,0,1,0,.1s0,.07-.06.08"/>
    <line class="cls-1" x1="48.22" y1="98.22" x2="76.7" y2="107.64"/>
    <line class="cls-1" x1="48.22" y1="98.22" x2="56.93" y2="97.28"/>
    <path class="cls-1" d="M167,85.21s0-.06.06-.09a.45.45,0,0,0,0-.11"/>
    <line class="cls-1" x1="76.6" y1="111.1" x2="85.9" y2="109.89"/>
    <path class="cls-1" d="M235.27,78.26h0"/>
    <line class="cls-1" x1="261.91" y1="84.34" x2="256.57" y2="85.01"/>
    <path class="cls-1" d="M165.3,77.49a.41.41,0,0,0,0-.08s0,0-.07,0"/>
    <line class="cls-1" x1="167.66" y1="88.48" x2="191.46" y2="93.21"/>
    <line class="cls-1" x1="164.69" y1="75.88" x2="164.81" y2="75.82"/>
    <line class="cls-1" x1="274.34" y1="82.78" x2="269.23" y2="83.42"/>
    <line class="cls-1" x1="268.87" y1="86.01" x2="273.97" y2="85.35"/>
    <path class="cls-1" d="M165.2,77.38h0"/>
    <line class="cls-1" x1="164.86" y1="75.62" x2="163.1" y2="68.14"/>
    <path class="cls-1" d="M163,68h0"/>
    <line class="cls-1" x1="234.94" y1="90.44" x2="235.27" y2="87.69"/>
    <path class="cls-1" d="M163.1,68.14a.3.3,0,0,0,0-.08.07.07,0,0,0-.06,0"/>
    <line class="cls-1" x1="229.06" y1="91.21" x2="227.92" y2="91"/>
    <path class="cls-1" d="M233.13,69.92h0"/>
    <path class="cls-1" d="M164.81,75.82a.12.12,0,0,0,.05-.09.2.2,0,0,0,0-.11"/>
    <line class="cls-1" x1="229.39" y1="88.43" x2="229.06" y2="91.21"/>
    <path class="cls-1" d="M235,70.65a.08.08,0,0,1,.07,0,.13.13,0,0,1,0,.07"/>
    <line class="cls-1" x1="167.07" y1="85.01" x2="165.3" y2="77.49"/>
    <line class="cls-1" x1="75.29" y1="86.05" x2="75.13" y2="86.15"/>
    <path class="cls-1" d="M166.3,85.1a.4.4,0,0,1,0,.11.13.13,0,0,1-.06.09"/>
    <path class="cls-1" d="M77.15,95a.09.09,0,0,0,0,0s0,0,0-.06a.49.49,0,0,0,0-.12"/>
    <path class="cls-1" d="M164.86,86h0"/>
    <path class="cls-1" d="M163,68h0"/>
    <line class="cls-1" x1="48.22" y1="98.22" x2="56.93" y2="97.28"/>
    <line class="cls-1" x1="58.65" y1="97.09" x2="67.12" y2="96.17"/>
    <line class="cls-1" x1="58.72" y1="97.84" x2="58.65" y2="97.09"/>
    <line class="cls-1" x1="68.79" y1="95.98" x2="73.24" y2="95.5"/>
    <line class="cls-1" x1="78.73" y1="95.57" x2="78.72" y2="95.41"/>
    <line class="cls-1" x1="88.35" y1="94.48" x2="88.33" y2="94.36"/>
    <line class="cls-1" x1="124.41" y1="90.43" x2="124.41" y2="90.4"/>
    <line class="cls-1" x1="68.86" y1="96.69" x2="68.79" y2="95.98"/>
    <line class="cls-1" x1="132.88" y1="89.48" x2="132.88" y2="89.48"/>
    <line class="cls-1" x1="238.93" y1="77.74" x2="238.91" y2="77.47"/>
    <line class="cls-1" x1="48.31" y1="99.11" x2="48.22" y2="98.22"/>
    <line class="cls-1" x1="115.74" y1="91.4" x2="115.73" y2="91.36"/>
    <line class="cls-1" x1="73.06" y1="75.38" x2="72.91" y2="75.49"/>
    <path class="cls-1" d="M73.08,75.37h0"/>
    <line class="cls-1" x1="121.31" y1="80.53" x2="74.88" y2="84.93"/>
    <line class="cls-1" x1="200.65" y1="73" x2="164.82" y2="76.4"/>
    <line class="cls-1" x1="237.3" y1="77.64" x2="237.82" y2="77.58"/>
    <line class="cls-1" x1="269.1" y1="95.47" x2="273.49" y2="96.22"/>
    <line class="cls-1" x1="74.1" y1="126.21" x2="74.62" y2="107.91"/>
    <line class="cls-1" x1="198.49" y1="64.24" x2="162.63" y2="67.12"/>
    <line class="cls-1" x1="97.71" y1="93.43" x2="97.7" y2="93.33"/>
    <line class="cls-1" x1="165.2" y1="77.38" x2="234.99" y2="70.65"/>
    <line class="cls-1" x1="75.3" y1="86.04" x2="164.42" y2="77.45"/>
    <line class="cls-1" x1="163" y1="68.02" x2="232.86" y2="62.32"/>
    <line class="cls-1" x1="73.08" y1="75.37" x2="162.22" y2="68.09"/>
    <line class="cls-1" x1="162.97" y1="68.03" x2="162.86" y2="68.09"/>
    <path class="cls-1" d="M75.3,86h0"/>
    <line class="cls-1" x1="70.8" y1="126.71" x2="74.1" y2="126.21"/>
    <line class="cls-1" x1="46.28" y1="98.43" x2="43.17" y2="98.77"/>
    <line class="cls-1" x1="44.94" y1="116.17" x2="43.17" y2="98.77"/>
    <line class="cls-1" x1="44.94" y1="116.17" x2="70.8" y2="126.71"/>
    <line class="cls-1" x1="275.24" y1="95.95" x2="277.21" y2="82.42"/>
    <line class="cls-1" x1="273.49" y1="96.22" x2="275.24" y2="95.95"/>
    <line class="cls-1" x1="240.65" y1="77.28" x2="238.91" y2="77.47"/>
    <line class="cls-1" x1="277.21" y1="82.42" x2="240.65" y2="77.28"/>
    <line class="cls-1" x1="106.84" y1="92.4" x2="106.83" y2="92.33"/>
    <line class="cls-1" x1="165.18" y1="77.38" x2="165.06" y2="77.44"/>
    <path class="cls-1" d="M165.2,77.38h0"/>
    <line class="cls-1" x1="75.29" y1="86.05" x2="75.13" y2="86.15"/>
    <line class="cls-1" x1="157.89" y1="58.51" x2="158.41" y2="58.47"/>
    <line class="cls-1" x1="68.08" y1="64.49" x2="68.76" y2="64.44"/>
    <line class="cls-1" x1="157.89" y1="58.64" x2="157.89" y2="58.51"/>
    <line class="cls-1" x1="160.9" y1="77.79" x2="160.67" y2="76.8"/>
    <path class="cls-1" d="M121.89,80.06a2,2,0,0,0-.34.06,1,1,0,0,0-.16.06l-.08,0,0,0v0h0"/>
    <path class="cls-1" d="M121.89,80.06a.4.4,0,0,1,.11,0h.11"/>
    <line class="cls-1" x1="228.42" y1="53.81" x2="228.84" y2="53.78"/>
    <line class="cls-1" x1="96.24" y1="136.04" x2="91.32" y2="134.05"/>
    <line class="cls-1" x1="96.88" y1="135.93" x2="96.24" y2="136.04"/>
    <path class="cls-1" d="M116.29,143.74a.15.15,0,0,0,.11,0"/>
    <line class="cls-1" x1="115.63" y1="143.87" x2="110.06" y2="141.61"/>
    <line class="cls-1" x1="96.24" y1="134.67" x2="96.24" y2="134.63"/>
    <line class="cls-1" x1="96.88" y1="135.93" x2="96.87" y2="135.74"/>
    <path class="cls-1" d="M96.24,134.63v0l0,0"/>
    <path class="cls-1" d="M96.22,134.57h0"/>
    <line class="cls-1" x1="109.97" y1="140.11" x2="109.97" y2="140.15"/>
    <path class="cls-1" d="M110,140.07h0"/>
    <path class="cls-1" d="M110,140.12a0,0,0,0,0,0,0s0,0,0,0"/>
    <path class="cls-1" d="M118.64,106.57a.33.33,0,0,0,0-.2"/>
    <line class="cls-1" x1="90.97" y1="133.33" x2="89.88" y2="121.96"/>
    <path class="cls-1" d="M91.32,134.05a.44.44,0,0,1-.16-.14.61.61,0,0,1-.09-.18,1.47,1.47,0,0,1-.1-.4"/>
    <line class="cls-1" x1="116.4" y1="143.76" x2="115.75" y2="143.88"/>
    <path class="cls-1" d="M116.4,143.76a.22.22,0,0,0,.13-.08.47.47,0,0,0,.07-.12.75.75,0,0,0,.06-.29"/>
    <path class="cls-1" d="M115.75,143.88a.25.25,0,0,1-.12,0"/>
    <path class="cls-1" d="M96.21,134.57v0"/>
    <path class="cls-1" d="M110,140.07a0,0,0,0,0,0,0,0,0,0,0,0,0,0"/>
    <line class="cls-1" x1="110.04" y1="141.04" x2="96.95" y2="135.78"/>
    <path class="cls-1" d="M110,140.52a2.2,2.2,0,0,1-.06-.37"/>
    <path class="cls-1" d="M116,143.39a1,1,0,0,1,0,.29.5.5,0,0,1-.08.12.2.2,0,0,1-.12.08"/>
    <polyline class="cls-1" points="96.2 134.61 96.2 134.65 96.24 136.04"/>
    <path class="cls-1" d="M119.67,70.11l-.33.06-.16.06-.08,0,0,0s0,0,0,0"/>
    <path class="cls-1" d="M119.67,70.11h.18a.07.07,0,0,1,.05,0"/>
    <line class="cls-1" x1="227.1" y1="53.62" x2="228.84" y2="53.78"/>
    <line class="cls-1" x1="68.08" y1="64.49" x2="66.68" y2="64.23"/>
    <line class="cls-1" x1="224.55" y1="53.6" x2="67.81" y2="63.91"/>
    <path class="cls-1" d="M66.71,65l-.12,0,0,0s-.05,0-.05,0"/>
    <path class="cls-1" d="M67.81,63.91l-.69.06-.34.06-.17,0-.06,0,0,0,0,0v0"/>
    <path class="cls-1" d="M227.1,53.62c-.39,0-.88,0-1.27,0s-.88,0-1.28,0"/>
    <line class="cls-1" x1="66.49" y1="64.87" x2="66.47" y2="64.14"/>
    <path class="cls-1" d="M66.47,64.14a0,0,0,0,0,0,0l.06,0,.11,0"/>
    <path class="cls-1" d="M201.2,72.59a1.8,1.8,0,0,0-.32.06l-.15,0-.08,0a.05.05,0,0,0,0,0,0,0,0,0,0,0,0h0"/>
    <path class="cls-1" d="M201.2,72.59h.14"/>
    <line class="cls-1" x1="228.42" y1="53.81" x2="158.41" y2="58.47"/>
    <path class="cls-1" d="M228.42,53.81l1.24.11.62.06.31,0h.15l.06,0s0,0,0,0l0,0"/>
    <path class="cls-1" d="M244.85,120H245"/>
    <line class="cls-1" x1="244.42" y1="120.09" x2="238.01" y2="118.59"/>
    <line class="cls-1" x1="222.04" y1="113.68" x2="222.04" y2="113.65"/>
    <polyline class="cls-1" points="221.99 113.63 221.99 113.67 221.99 113.96"/>
    <path class="cls-1" d="M222,113.65a0,0,0,0,0,0,0s0,0,0,0"/>
    <path class="cls-1" d="M222,113.6h0"/>
    <line class="cls-1" x1="237.99" y1="117.35" x2="237.99" y2="117.38"/>
    <path class="cls-1" d="M238,117.32h0"/>
    <path class="cls-1" d="M238,117.32h0a0,0,0,0,1,0,0"/>
    <path class="cls-1" d="M236.65,118.81a4.24,4.24,0,0,1-.87,0,4.28,4.28,0,0,1-.87-.09"/>
    <line class="cls-1" x1="234.91" y1="118.77" x2="220.65" y2="115.39"/>
    <path class="cls-1" d="M220.65,115.39a1.15,1.15,0,0,1-.17-.06l-.09,0a.09.09,0,0,1,0-.07"/>
    <line class="cls-1" x1="236.66" y1="118.21" x2="237.54" y2="118.06"/>
    <path class="cls-1" d="M236.21,117.94l.09,0,0,0s0,0,0,0"/>
    <path class="cls-1" d="M221.13,114.73l-.09,0,0,0a.05.05,0,0,1,0,0"/>
    <line class="cls-1" x1="237.52" y1="118.65" x2="236.65" y2="118.81"/>
    <path class="cls-1" d="M235.39,118.09l-.09,0-.05,0a.05.05,0,0,1,0,0"/>
    <path class="cls-1" d="M237.54,118.06a.39.39,0,0,0,.19-.1.73.73,0,0,0,.14-.16,1,1,0,0,0,.12-.42"/>
    <path class="cls-1" d="M249.23,89.35a.18.18,0,0,0,0-.16"/>
    <line class="cls-1" x1="215.81" y1="112.88" x2="215.04" y2="103.46"/>
    <path class="cls-1" d="M216.19,113.46a.35.35,0,0,1-.16-.08.83.83,0,0,1-.11-.15.85.85,0,0,1-.11-.35"/>
    <line class="cls-1" x1="244.99" y1="120.02" x2="244.55" y2="120.1"/>
    <path class="cls-1" d="M245,120a.36.36,0,0,0,.22-.16.79.79,0,0,0,.1-.27"/>
    <path class="cls-1" d="M244.55,120.1h-.13"/>
    <path class="cls-1" d="M222,113.6s0,0,0,0h0"/>
    <path class="cls-1" d="M238,117.32s0,0,0,0v0"/>
    <path class="cls-1" d="M199,63.79h.12a0,0,0,0,1,0,0"/>
    <path class="cls-1" d="M199,63.79a1.83,1.83,0,0,0-.32.07l-.15,0-.07,0a.05.05,0,0,0-.05,0h0"/>
    <line class="cls-1" x1="220.34" y1="115.22" x2="220.35" y2="114.64"/>
    <path class="cls-1" d="M220.35,114.64a.09.09,0,0,0,.05.07l.09.05.17,0"/>
    <path class="cls-1" d="M235.23,118v0s0,0,0,0h0l0,0,.12,0,.26,0a2.12,2.12,0,0,1,.5,0"/>
    <line class="cls-1" x1="74.16" y1="124.29" x2="113.52" y2="118.47"/>
    <path class="cls-1" d="M269.72,86.49c-.09,2.54-.17,5.08-.26,7.62l0,.62c0,.11,0,.21,0,.31v.23a.13.13,0,0,1,0,.06s0,0,0,.06l0,0h-.1l-.21,0-.43.06-1.71.25-3.77.56L248,98.58"/>
    <line class="cls-1" x1="74.7" y1="112.14" x2="274.91" y2="85.8"/>
    <line class="cls-1" x1="214.43" y1="93.1" x2="213.23" y2="93.26"/>
    <path class="cls-1" d="M243.22,99.29,118,117.8"/>
    <path class="cls-1" d="M221.94,114.59l.08,0h0s0,0,0,0a0,0,0,0,1,0,0l0,0H222a.9.9,0,0,1-.28,0,1.5,1.5,0,0,1-.3,0,1.35,1.35,0,0,1-.28,0"/>
    <line class="cls-1" x1="245.31" y1="119.59" x2="249.23" y2="89.35"/>
    <line class="cls-1" x1="248.79" y1="89.41" x2="244.87" y2="119.67"/>
    <path class="cls-1" d="M222,113.68a.72.72,0,0,1-.12.4.51.51,0,0,1-.13.16.48.48,0,0,1-.19.09"/>
    <path class="cls-1" d="M220.73,114.48l-.21,0-.1,0s-.07,0-.07.07"/>
    <polyline class="cls-1" points="238.01 118.59 238.04 117.4 238.04 117.36"/>
    <line class="cls-1" x1="201.34" y1="72.6" x2="201.65" y2="73.86"/>
    <path class="cls-1" d="M236.38,118v0h0l0,0h0l-.12,0h-.26a2.81,2.81,0,0,1-.5,0"/>
    <line class="cls-1" x1="200.88" y1="73.94" x2="200.6" y2="72.79"/>
    <line class="cls-1" x1="66.71" y1="64.96" x2="68.1" y2="65.22"/>
    <line class="cls-1" x1="119.9" y1="70.15" x2="120.2" y2="71.52"/>
    <line class="cls-1" x1="119.33" y1="71.59" x2="119.05" y2="70.33"/>
    <line class="cls-1" x1="116.66" y1="143.27" x2="118.64" y2="106.57"/>
    <line class="cls-1" x1="117.97" y1="106.65" x2="116" y2="143.39"/>
    <path class="cls-1" d="M96.24,134.67a1.4,1.4,0,0,0,.19.66,1.14,1.14,0,0,0,.52.45"/>
    <polyline class="cls-1" points="110.06 141.61 110.02 140.17 110.02 140.12"/>
    <line class="cls-1" x1="109.97" y1="140.15" x2="110.02" y2="140.14"/>
    <line class="cls-1" x1="233.52" y1="80.1" x2="233.11" y2="78.5"/>
    <path class="cls-1" d="M228.84,53.78l1.67.15.43,0,.21,0h0s0,0,0,0a37462206678.87,37462206678.87,0,0,1,0,.06.25.25,0,0,1,0,.07l.3,1.16L232.5,59q.94,3.63,1.87,7.27l3.74,14.55"/>
    <line class="cls-1" x1="122.11" y1="80.09" x2="122.42" y2="81.5"/>
    <line class="cls-1" x1="121.55" y1="81.58" x2="121.26" y2="80.27"/>
    <path class="cls-1" d="M77.9,99.4,74.09,81.15c-.63-3-1.27-6.08-1.9-9.13l-1-4.56c-.12-.58-.24-1.15-.35-1.72l-.09-.43c0-.07,0-.14-.05-.21s0-.08,0-.11v0a.11.11,0,0,1,0,0,.2.2,0,0,0,0-.08s0,0,0,0h0l-.1,0-.2,0-1.56-.29"/>
    <line class="cls-1" x1="66.91" y1="65" x2="73.79" y2="98.17"/>
    <path class="cls-1" d="M221.87,114.8l.07,0"/>
    <line class="cls-1" x1="163.3" y1="88.03" x2="162.87" y2="86.19"/>
    <path class="cls-1" d="M244.87,119.67a.52.52,0,0,1-.1.27.36.36,0,0,1-.22.16"/>
    <path class="cls-1" d="M158.41,58.47l1.69.2.42.06h.1a.1.1,0,0,1,0,0s0,0,0,.07.05.23.08.35c.11.46.22.92.32,1.39l1,4c.63,2.7,1.27,5.39,1.9,8.09q1.91,8.08,3.82,16.18"/>
    <line class="cls-1" x1="220.66" y1="114.81" x2="234.92" y2="118.17"/>
    <path class="cls-1" d="M234.92,118.17a5.16,5.16,0,0,0,.87.1,5.09,5.09,0,0,0,.87-.06"/>
    <line class="cls-1" x1="221.6" y1="114.33" x2="220.73" y2="114.48"/>
    <line class="cls-1" x1="199.17" y1="63.82" x2="199.48" y2="65.04"/>
    <line class="cls-1" x1="198.7" y1="65.11" x2="198.43" y2="64"/>
    <path class="cls-1" d="M221,114.65a0,0,0,0,1,0,0,0,0,0,0,1,0,0l0,0h0l.12,0,.25,0a2.7,2.7,0,0,1,.49,0"/>
    <line class="cls-1" x1="268.82" y1="86.01" x2="267.84" y2="86.13"/>
    <line class="cls-1" x1="262.56" y1="86.82" x2="261.56" y2="86.95"/>
    <line class="cls-1" x1="256.16" y1="87.66" x2="255.13" y2="87.79"/>
    <line class="cls-1" x1="249.61" y1="88.51" x2="248.56" y2="88.65"/>
    <line class="cls-1" x1="242.91" y1="89.38" x2="241.83" y2="89.53"/>
    <line class="cls-1" x1="236.05" y1="90.28" x2="234.94" y2="90.43"/>
    <line class="cls-1" x1="229.01" y1="91.2" x2="227.88" y2="91.35"/>
    <line class="cls-1" x1="221.81" y1="92.14" x2="220.64" y2="92.29"/>
    <line class="cls-1" x1="206.86" y1="94.09" x2="205.63" y2="94.25"/>
    <line class="cls-1" x1="199.09" y1="95.1" x2="197.83" y2="95.27"/>
    <line class="cls-1" x1="191.13" y1="96.14" x2="189.83" y2="96.31"/>
    <line class="cls-1" x1="182.96" y1="97.21" x2="181.63" y2="97.38"/>
    <line class="cls-1" x1="174.57" y1="98.3" x2="173.2" y2="98.48"/>
    <line class="cls-1" x1="165.95" y1="99.42" x2="164.54" y2="99.61"/>
    <line class="cls-1" x1="157.11" y1="100.58" x2="155.65" y2="100.77"/>
    <line class="cls-1" x1="148.01" y1="101.77" x2="146.52" y2="101.96"/>
    <line class="cls-1" x1="138.66" y1="102.98" x2="137.12" y2="103.18"/>
    <line class="cls-1" x1="129.05" y1="104.24" x2="127.46" y2="104.45"/>
    <line class="cls-1" x1="119.15" y1="105.53" x2="117.52" y2="105.74"/>
    <line class="cls-1" x1="108.97" y1="106.86" x2="107.29" y2="107.08"/>
    <line class="cls-1" x1="98.49" y1="108.23" x2="96.75" y2="108.45"/>
    <line class="cls-1" x1="87.69" y1="109.63" x2="85.9" y2="109.87"/>
    <line class="cls-1" x1="220.61" y1="114.5" x2="216.19" y2="113.46"/>
    <line class="cls-1" x1="76.56" y1="111.09" x2="74.67" y2="111.33"/>
    <path class="cls-1" d="M74.52,111.34h.15"/>
    <path class="cls-1" d="M248.74,89.25a.18.18,0,0,1,0,.16"/>
    <path class="cls-1" d="M117.93,106.45a.36.36,0,0,1,0,.2"/>
    <line class="cls-1" x1="274.93" y1="85.21" x2="273.97" y2="85.33"/>
    <path class="cls-1" d="M275,85.79h0"/>
    <path class="cls-1" d="M275,85.2h-.06"/>
    <line class="cls-1" x1="274.97" y1="85.2" x2="274.95" y2="85.79"/>
    <path class="cls-1" d="M74.7,112.14h-.2"/>
    <path class="cls-1" d="M113.52,118.47a.21.21,0,0,0,.16-.21"/>
    <line class="cls-1" x1="113.68" y1="118.26" x2="113.43" y2="107.05"/>
    <line class="cls-1" x1="274.91" y1="85.18" x2="274.01" y2="85.05"/>
    <path class="cls-1" d="M274.93,85.21h0"/>
    <path class="cls-1" d="M243.22,99.29a.11.11,0,0,0,.09-.06.2.2,0,0,0,0-.11"/>
    <line class="cls-1" x1="243.34" y1="99.12" x2="243.54" y2="89.93"/>
    <path class="cls-1" d="M236.82,77.45l.84,3.27"/>
    <path class="cls-1" d="M77.15,99.18,73.38,81.06,71.49,72l-.95-4.53c-.12-.57-.23-1.14-.35-1.71l-.09-.43c0-.07,0-.14,0-.21A.52.52,0,0,0,70,65V65s0,0,0,0a.16.16,0,0,0,0-.07l0,0h0l-.1,0-.2,0-1.55-.28"/>
    <path class="cls-1" d="M238,118.36a.88.88,0,0,1-.5.29"/>
    <line class="cls-1" x1="68.08" y1="64.49" x2="68.1" y2="65.22"/>
    <path class="cls-1" d="M157.89,58.51l1.67.2.43,0h.1s0,0,0,0a.06.06,0,0,1,0,0,0,0,0,0,1,0,0l.09.35c.11.46.21.92.32,1.38.32,1.35.63,2.69.95,4,.63,2.68,1.26,5.37,1.9,8q1.89,8.05,3.79,16.1"/>
    <path class="cls-1" d="M232.53,60.76c.15.55.29,1.1.43,1.66"/>
    <path class="cls-1" d="M234.67,69.08c.15.56.29,1.11.43,1.67"/>
    <line class="cls-1" x1="228.42" y1="53.93" x2="228.42" y2="53.81"/>
    <line class="cls-1" x1="157.89" y1="58.51" x2="68.76" y2="64.44"/>
    <line class="cls-1" x1="231.2" y1="71.01" x2="230.98" y2="70.13"/>
    <line class="cls-1" x1="158.7" y1="68.38" x2="158.48" y2="67.45"/>
    <line class="cls-1" x1="229.06" y1="62.63" x2="228.85" y2="61.8"/>
    <line class="cls-1" x1="229.06" y1="62.63" x2="228.85" y2="61.8"/>
    <line class="cls-1" x1="231.2" y1="71.01" x2="230.98" y2="70.13"/>
    <line class="cls-1" x1="158.7" y1="68.38" x2="158.48" y2="67.45"/>
    <path class="cls-1" d="M238,118.36a.88.88,0,0,1-.5.29"/>
    <line class="cls-1" x1="220.61" y1="114.5" x2="216.19" y2="113.46"/>
    <line class="cls-1" x1="198.7" y1="65.11" x2="198.43" y2="64"/>
    <line class="cls-1" x1="66.91" y1="65" x2="73.79" y2="98.17"/>
    <line class="cls-1" x1="121.55" y1="81.58" x2="121.26" y2="80.27"/>
    <path class="cls-1" d="M228.84,53.78l1.67.15.43,0,.21,0h0s0,0,0,0a37462206678.87,37462206678.87,0,0,1,0,.06.25.25,0,0,1,0,.07l.3,1.16L232.5,59q.94,3.63,1.87,7.27l3.74,14.55"/>
    <line class="cls-1" x1="109.97" y1="140.15" x2="110.02" y2="140.14"/>
    <polyline class="cls-1" points="110.06 141.61 110.02 140.17 110.02 140.12"/>
    <line class="cls-1" x1="116.66" y1="143.27" x2="118.64" y2="106.57"/>
    <line class="cls-1" x1="119.33" y1="71.59" x2="119.05" y2="70.33"/>
    <line class="cls-1" x1="66.71" y1="64.96" x2="68.1" y2="65.22"/>
    <line class="cls-1" x1="200.88" y1="73.94" x2="200.6" y2="72.79"/>
    <polyline class="cls-1" points="238.01 118.59 238.04 117.4 238.04 117.36"/>
    <line class="cls-1" x1="245.31" y1="119.59" x2="249.23" y2="89.35"/>
    <line class="cls-1" x1="74.16" y1="124.29" x2="113.52" y2="118.47"/>
    <line class="cls-1" x1="220.34" y1="115.22" x2="220.35" y2="114.64"/>
    <path class="cls-1" d="M244.55,120.1h-.13"/>
    <path class="cls-1" d="M245,120a.36.36,0,0,0,.22-.16.79.79,0,0,0,.1-.27"/>
    <line class="cls-1" x1="244.99" y1="120.02" x2="244.55" y2="120.1"/>
    <path class="cls-1" d="M216.19,113.46a.35.35,0,0,1-.16-.08.83.83,0,0,1-.11-.15.85.85,0,0,1-.11-.35"/>
    <line class="cls-1" x1="215.81" y1="112.88" x2="215.04" y2="103.46"/>
    <line class="cls-1" x1="237.52" y1="118.65" x2="236.65" y2="118.81"/>
    <path class="cls-1" d="M220.65,115.39a1.15,1.15,0,0,1-.17-.06l-.09,0a.09.09,0,0,1,0-.07"/>
    <line class="cls-1" x1="234.91" y1="118.77" x2="220.65" y2="115.39"/>
    <path class="cls-1" d="M236.65,118.81a4.24,4.24,0,0,1-.87,0,4.28,4.28,0,0,1-.87-.09"/>
    <line class="cls-1" x1="244.42" y1="120.09" x2="238.01" y2="118.59"/>
    <path class="cls-1" d="M244.85,120H245"/>
    <line class="cls-1" x1="66.49" y1="64.87" x2="66.47" y2="64.14"/>
    <path class="cls-1" d="M227.1,53.62c-.39,0-.88,0-1.27,0s-.88,0-1.28,0"/>
    <path class="cls-1" d="M67.81,63.91l-.69.06-.34.06-.17,0-.06,0,0,0,0,0v0"/>
    <path class="cls-1" d="M66.71,65l-.12,0,0,0s-.05,0-.05,0"/>
    <line class="cls-1" x1="224.55" y1="53.6" x2="67.81" y2="63.91"/>
    <line class="cls-1" x1="227.1" y1="53.62" x2="228.84" y2="53.78"/>
    <path class="cls-1" d="M110,140.52a2.2,2.2,0,0,1-.06-.37"/>
    <line class="cls-1" x1="110.04" y1="141.04" x2="96.95" y2="135.78"/>
    <path class="cls-1" d="M115.75,143.88a.25.25,0,0,1-.12,0"/>
    <path class="cls-1" d="M116.4,143.76a.22.22,0,0,0,.13-.08.47.47,0,0,0,.07-.12.75.75,0,0,0,.06-.29"/>
    <line class="cls-1" x1="116.4" y1="143.76" x2="115.75" y2="143.88"/>
    <path class="cls-1" d="M91.32,134.05a.44.44,0,0,1-.16-.14.61.61,0,0,1-.09-.18,1.47,1.47,0,0,1-.1-.4"/>
    <line class="cls-1" x1="90.97" y1="133.33" x2="89.88" y2="121.96"/>
    <line class="cls-1" x1="96.88" y1="135.93" x2="96.87" y2="135.74"/>
    <line class="cls-1" x1="115.63" y1="143.87" x2="110.06" y2="141.61"/>
    <path class="cls-1" d="M116.29,143.74a.15.15,0,0,0,.11,0"/>
    <line class="cls-1" x1="96.88" y1="135.93" x2="96.24" y2="136.04"/>
    <line class="cls-1" x1="96.24" y1="136.04" x2="91.32" y2="134.05"/>
    <line class="cls-1" x1="160.9" y1="77.79" x2="160.67" y2="76.8"/>
  </g>
  <line class="cls-1" x1="59.3" y1="130.69" x2="1.25" y2="139.99"/>
  <line class="cls-1" x1="101.86" y1="152.61" x2="41.14" y2="162.21"/>
  <line class="cls-1" x1="6.01" y1="139.39" x2="47.18" y2="161.07"/>
  <line class="cls-1" x1="249.38" y1="121.51" x2="305.43" y2="133.03"/>
  <line class="cls-1" x1="301.39" y1="132.12" x2="303.12" y2="64.21"/>
  <line class="cls-1" x1="240.76" y1="73.62" x2="240.76" y2="57.6"/>
  <line class="cls-1" x1="240.76" y1="18.87" x2="43.49" y2="29.32"/>
  <line class="cls-1" x1="233.97" y1="54.03" x2="307.27" y2="64.81"/>
  <line class="cls-1" x1="43.49" y1="95.1" x2="43.49" y2="25.24"/>
  <line class="cls-1" x1="240.76" y1="52.53" x2="240.76" y2="14.74"/>
  <polyline class="cls-2" points="43.57 29.32 49.04 27.64 49.19 30.41 43.57 29.32"/>
  <polyline class="cls-2" points="240.68 18.87 235.21 20.55 235.06 17.78 240.68 18.87"/>
  <polyline class="cls-2" points="303.09 64.22 304.39 69.79 301.61 69.75 303.09 64.22"/>
  <polyline class="cls-2" points="301.42 132.05 300.13 126.48 302.9 126.53 301.42 132.05"/>
  <polyline class="cls-2" points="5.58 139.32 11.17 140.52 9.95 143.01 5.58 139.32"/>
  <polyline class="cls-2" points="47.23 161.09 41.68 159.72 42.98 157.27 47.23 161.09"/>
  <g>
    <g>
      <path class="cls-3" d="M21.26,144.27a11.56,11.56,0,0,1,5.1-3.59L23.25,139l.34-.64,3.86,2.07-.34.64c-2.59,1.16-4.3,2.35-5.11,3.58Z"/>
      <path class="cls-3" d="M26.91,147.38a2.08,2.08,0,0,1-1.16-1.61A4.75,4.75,0,0,1,28,141.62a2.26,2.26,0,0,1,3.14,1.69,3.94,3.94,0,0,1-.55,2.37,4,4,0,0,1-1.67,1.77A2.08,2.08,0,0,1,26.91,147.38Zm.35-.65a1.3,1.3,0,0,0,1.33,0,3.54,3.54,0,0,0,1.22-1.41,3.42,3.42,0,0,0,.5-1.8,1.3,1.3,0,0,0-.7-1.14,1.31,1.31,0,0,0-1.35,0A3.67,3.67,0,0,0,27,143.79a3.52,3.52,0,0,0-.5,1.8A1.3,1.3,0,0,0,27.26,146.73Z"/>
      <path class="cls-3" d="M29.62,148.75l.33-.63,3.05-.68a2.49,2.49,0,0,0,1.75-1,1.12,1.12,0,0,0,.11-.9,1.17,1.17,0,0,0-.63-.69,1.2,1.2,0,0,0-1.08-.1,1.43,1.43,0,0,0-.78.86l-.68-.42A2.06,2.06,0,0,1,32.9,144a2,2,0,0,1,1.68.2,2.14,2.14,0,0,1,1.07,1.16,1.79,1.79,0,0,1-.15,1.47,2.23,2.23,0,0,1-.83.84,5.16,5.16,0,0,1-1.48.52l-2.2.47,2.74,1.47-.35.65Z"/>
    </g>
    <g>
      <path class="cls-3" d="M13.43,153.54l.33-.63,3-.68a2.46,2.46,0,0,0,1.75-1,1.12,1.12,0,0,0,.11-.9,1.17,1.17,0,0,0-.63-.69,1.22,1.22,0,0,0-1.09-.1,1.49,1.49,0,0,0-.78.86L15.5,150a2,2,0,0,1,2.89-1,2.14,2.14,0,0,1,1.07,1.16,1.79,1.79,0,0,1-.15,1.47,2.23,2.23,0,0,1-.83.84A5.16,5.16,0,0,1,17,153l-2.2.47,2.74,1.47-.35.65Z"/>
      <path class="cls-3" d="M18.06,156a11.56,11.56,0,0,1,5.1-3.59L20,150.76l.35-.64,3.86,2.07-.35.64c-2.59,1.16-4.29,2.35-5.1,3.59Z"/>
      <path class="cls-3" d="M21.41,156.75l.77.42-.44.82-.78-.41Z"/>
      <path class="cls-3" d="M26.73,155.88a2.19,2.19,0,0,1,1.12,1.28,2.05,2.05,0,0,1-.18,1.65,2,2,0,0,1-1.3,1.06,2.29,2.29,0,0,1-1.73-.24,2.07,2.07,0,0,1-1.12-1.5,3.19,3.19,0,0,1,.42-2.14,3.89,3.89,0,0,1,1.95-1.94,2.63,2.63,0,0,1,2.3.17,2.71,2.71,0,0,1,1.25,1.32l-.67.37a2,2,0,0,0-.93-1,2,2,0,0,0-1.65-.13,2.53,2.53,0,0,0-1.35,1.2,1.63,1.63,0,0,1,.9-.29A1.93,1.93,0,0,1,26.73,155.88Zm-2.46,2.25a1.55,1.55,0,0,0,1.83,1,1.44,1.44,0,0,0,.86-.72,1.42,1.42,0,0,0,.12-1.1,1.56,1.56,0,0,0-1.84-1,1.5,1.5,0,0,0-1,1.81Z"/>
      <path class="cls-3" d="M31.63,156.07l-1.26,1.34L29.5,157l1.68-1.12Zm1.18.63L31.54,158l-.87-.47,1.68-1.12Z"/>
    </g>
  </g>
  <g>
    <g>
      <path class="cls-3" d="M299.42,103.34a2.48,2.48,0,0,1-.56,1.61,1.68,1.68,0,0,1-1.38.6,1.6,1.6,0,0,1-1-.36,1.62,1.62,0,0,1-.57-.88,1.78,1.78,0,0,1-.57.67,1.34,1.34,0,0,1-.78.23,1.54,1.54,0,0,1-1.19-.58,2.24,2.24,0,0,1-.42-1.46,2.17,2.17,0,0,1,.5-1.41,1.52,1.52,0,0,1,1.21-.51,1.38,1.38,0,0,1,.77.27,1.57,1.57,0,0,1,.53.69,1.68,1.68,0,0,1,.62-.85,1.61,1.61,0,0,1,1-.3,1.71,1.71,0,0,1,1.35.66A2.43,2.43,0,0,1,299.42,103.34Zm-3.77-.1a1.28,1.28,0,0,0-.25-.85.93.93,0,0,0-.71-.34.88.88,0,0,0-.73.29,1.26,1.26,0,0,0-.29.85,1.33,1.33,0,0,0,.24.88.89.89,0,0,0,.72.34.9.9,0,0,0,.72-.32A1.27,1.27,0,0,0,295.65,103.24Zm3.06.09a1.52,1.52,0,0,0-.3-1,1.08,1.08,0,0,0-.85-.41,1.05,1.05,0,0,0-.86.36,1.55,1.55,0,0,0-.35,1,1.62,1.62,0,0,0,.29,1,1.09,1.09,0,0,0,.85.41,1.06,1.06,0,0,0,.86-.37A1.5,1.5,0,0,0,298.71,103.33Z"/>
      <path class="cls-3" d="M299.45,99.2l-5.27-.13a2.86,2.86,0,0,1,.66,1.51l-.73,0a2.84,2.84,0,0,0-.95-1.65l0-.64,6.29.16Z"/>
      <path class="cls-3" d="M299.64,95a2.07,2.07,0,0,1-.92,1.76,4.78,4.78,0,0,1-4.71-.12,2.1,2.1,0,0,1-.82-1.81,2.07,2.07,0,0,1,.92-1.76,3.89,3.89,0,0,1,2.37-.57,3.93,3.93,0,0,1,2.33.69A2.09,2.09,0,0,1,299.64,95Zm-.74,0a1.3,1.3,0,0,0-.64-1.18,3.48,3.48,0,0,0-1.8-.45,3.53,3.53,0,0,0-1.84.36,1.3,1.3,0,0,0-.7,1.14,1.28,1.28,0,0,0,.64,1.18,4.25,4.25,0,0,0,3.64.1A1.31,1.31,0,0,0,298.9,95Z"/>
    </g>
    <g>
      <path class="cls-3" d="M311.21,106.34a2.34,2.34,0,0,1-.53,1.53,1.88,1.88,0,0,1-1.34.67l-.1-.77a1.29,1.29,0,0,0,.89-.45,1.63,1.63,0,0,0,.35-1,1.45,1.45,0,0,0-.34-1,1.38,1.38,0,0,0-1.9-.08,1.43,1.43,0,0,0-.37,1,1.24,1.24,0,0,0,.18.7l-.53.34-1.92-2-.08,3.06-.73,0,.1-4,.72,0,1.69,1.84a2,2,0,0,1,.48-1.52,1.82,1.82,0,0,1,1.46-.56,1.89,1.89,0,0,1,1.46.67A2.39,2.39,0,0,1,311.21,106.34Z"/>
      <path class="cls-3" d="M311.25,102.17,306,102a2.86,2.86,0,0,1,.66,1.51l-.73,0a2.84,2.84,0,0,0-1-1.65v-.64l6.3.16Z"/>
      <path class="cls-3" d="M310.37,100.09l0-.88.94,0,0,.88Z"/>
      <path class="cls-3" d="M309.33,96a2.2,2.2,0,0,1-.64,1.58,2.05,2.05,0,0,1-1.56.58,2,2,0,0,1-1.53-.68,2.34,2.34,0,0,1-.56-1.66,2.07,2.07,0,0,1,.84-1.67,3.1,3.1,0,0,1,2.1-.59,3.93,3.93,0,0,1,2.61.87,2.85,2.85,0,0,1,.26,3.84l-.63-.43a1.93,1.93,0,0,0,.51-1.3,2,2,0,0,0-.62-1.54,2.58,2.58,0,0,0-1.68-.67,1.63,1.63,0,0,1,.67.68A1.86,1.86,0,0,1,309.33,96Zm-3.12-1.18a1.42,1.42,0,0,0-.44,1,1.4,1.4,0,0,0,.38,1,1.47,1.47,0,0,0,1,.45,1.34,1.34,0,0,0,1-.39,1.54,1.54,0,0,0,.06-2.07,1.37,1.37,0,0,0-1-.44A1.43,1.43,0,0,0,306.21,94.79Z"/>
      <path class="cls-3" d="M305.16,91.28l1.77.53,0,1-1.76-1Zm0-1.34,1.77.54,0,1-1.76-1Z"/>
    </g>
  </g>
  <g>
    <g>
      <path class="cls-3" d="M132.06,21.78l-.05-.71,2.24-2.17a2.45,2.45,0,0,0,.95-1.79,1.14,1.14,0,0,0-.38-.83,1.39,1.39,0,0,0-1.87.23,1.43,1.43,0,0,0-.21,1.14h-.8a2,2,0,0,1,.41-1.64,2.1,2.1,0,0,1,1.54-.71,2.14,2.14,0,0,1,1.51.43,1.8,1.8,0,0,1,.65,1.34,2.15,2.15,0,0,1-.27,1.14,4.82,4.82,0,0,1-1,1.22L133.16,21l3.1-.18.05.73Z"/>
      <path class="cls-3" d="M139.22,19.28a2.2,2.2,0,0,1-1.63-.51,2.2,2.2,0,0,1-.16-3.08A2.31,2.31,0,0,1,139,15a2.09,2.09,0,0,1,1.74.69,3.24,3.24,0,0,1,.76,2.05,3.92,3.92,0,0,1-.65,2.67,2.84,2.84,0,0,1-3.8.58l.37-.66a2.06,2.06,0,0,0,2.82-.35,2.47,2.47,0,0,0,.52-1.73,1.56,1.56,0,0,1-.62.73A1.85,1.85,0,0,1,139.22,19.28Zm.91-3.21a1.51,1.51,0,0,0-2.07.12,1.45,1.45,0,0,0-.35,1.06,1.37,1.37,0,0,0,.46,1,1.47,1.47,0,0,0,1.07.34,1.45,1.45,0,0,0,1-.46,1.5,1.5,0,0,0-.12-2.06Z"/>
      <path class="cls-3" d="M142.71,21.16a11.59,11.59,0,0,1,2.47-5.72l-3.53.2,0-.72,4.37-.26.05.73q-2.42,3.51-2.48,5.72Z"/>
      <path class="cls-3" d="M149.18,20.78l-.09-1.53-3.31.19-.05-.74,3-4.2.94-.05.24,4,.9-.05,0,.74-.91.05.09,1.54Zm-2.57-2.13,2.44-.14-.18-3.08Z"/>
    </g>
    <g>
      <path class="cls-3" d="M135,33.54l-.31-5.26a3,3,0,0,1-1.45.79l0-.73a2.81,2.81,0,0,0,1.56-1.09l.64,0,.37,6.29Z"/>
      <path class="cls-3" d="M138.15,33.36l-.3-5.26a3,3,0,0,1-1.45.79l-.05-.73a2.82,2.82,0,0,0,1.56-1.09l.65,0,.37,6.29Z"/>
      <path class="cls-3" d="M140.6,33.22a11.46,11.46,0,0,1,2.47-5.72l-3.53.2,0-.73,4.38-.25,0,.73q-2.4,3.51-2.48,5.72Z"/>
      <path class="cls-3" d="M143.83,32.1l.88-.06.06.94-.88.05Z"/>
      <path class="cls-3" d="M146.18,32.89l-.31-5.26a3,3,0,0,1-1.45.79l0-.73a2.77,2.77,0,0,0,1.56-1.09l.64,0,.37,6.29Z"/>
      <path class="cls-3" d="M149,26.35l-.38,1.8-1,.06.85-1.83Zm1.33-.08L150,28.08l-1,.05.85-1.83Z"/>
    </g>
  </g>
</svg>
