<?xml version="1.0" encoding="UTF-8"?>
<svg id="Vrstva_1" data-name="Vrstva 1" xmlns="http://www.w3.org/2000/svg" viewBox="0 0 283.46 226.77">
  <defs>
    <style>
      .cls-1 {
        fill: #ffffff;
        stroke: #ffffff;
        stroke-miterlimit: 10;
      }

      .cls-1, .cls-2 {
        stroke-width: .7px;
      }

      .cls-3 {
        fill: #24466f;
        stroke-width: 0px;
      }

      .cls-2 {
        fill: none;
        stroke: #ffffff;
        stroke-linecap: round;
        stroke-linejoin: round;
      }
    </style>
  </defs>
  <path class="cls-2" d="m122.02,174.64c51.11-14.82,102.22-29.64,153.33-44.46"/>
  <path class="cls-2" d="m18.24,117.54c9.65,5.33,19.3,10.66,28.95,16"/>
  <path class="cls-2" d="m53.19,54.63c-11.69-6.44-23.38-12.88-35.07-19.31"/>
  <line class="cls-2" x1="22.07" y1="119.65" x2="22.07" y2="37.51"/>
  <path class="cls-2" d="m85.91,154.78c13.45,7.4,26.91,14.81,40.36,22.21"/>
  <path class="cls-2" d="m238.56,109.87c13.58,7.47,27.16,14.94,40.74,22.41"/>
  <polyline class="cls-1" points="22.08 37.53 23.46 43.08 20.69 43.08 22.08 37.53"/>
  <polyline class="cls-1" points="22.07 119.59 20.69 114.04 23.46 114.04 22.07 119.59"/>
  <polyline class="cls-1" points="275.48 130.18 270.52 133.02 269.76 130.36 275.48 130.18"/>
  <g>
    <g>
      <path class="cls-3" d="m18.97,84.2c0,.67-.17,1.22-.52,1.63-.34.42-.8.62-1.37.62-.37,0-.69-.11-.98-.33-.29-.22-.49-.51-.6-.87-.13.28-.31.51-.55.67-.24.17-.5.25-.77.25-.49,0-.89-.18-1.2-.55s-.46-.85-.45-1.46c0-.59.16-1.06.46-1.42s.71-.54,1.2-.54c.28,0,.53.08.78.25.24.17.42.39.54.68.12-.36.32-.65.61-.86.29-.22.62-.32.98-.32.56,0,1.02.21,1.36.62s.51.95.51,1.61Zm-3.77-.01c0-.35-.09-.63-.27-.84-.18-.21-.42-.32-.72-.33-.3,0-.54.1-.72.31-.18.21-.27.5-.27.85,0,.37.09.67.27.88.18.22.42.32.72.32.3,0,.54-.12.72-.33.18-.22.27-.5.27-.86Zm3.06.02c0-.43-.11-.77-.32-1.02-.22-.26-.5-.38-.85-.39-.35,0-.64.13-.86.38-.22.25-.33.59-.33,1.02,0,.43.11.78.32,1.04s.5.39.85.39c.35,0,.64-.13.86-.38.22-.26.33-.6.33-1.03Z"/>
      <path class="cls-3" d="m18.98,79.25c0,.62-.17,1.13-.5,1.54-.33.41-.77.64-1.33.7l-.11-.77c.37-.04.66-.2.87-.46.22-.27.33-.6.33-1.01,0-.44-.12-.79-.36-1.05-.24-.26-.56-.39-.95-.39-.41,0-.73.12-.96.37-.23.25-.34.59-.34,1.03,0,.25.06.48.2.69l-.52.35-1.96-2v3.06s-.74,0-.74,0v-4.02s.72,0,.72,0l1.74,1.8c-.06-.62.09-1.13.44-1.53.35-.39.83-.59,1.45-.59.61,0,1.1.21,1.47.63.37.42.55.97.55,1.66Z"/>
      <path class="cls-3" d="m14.7,73.8c0-.65.2-1.18.61-1.6.4-.42.92-.62,1.54-.62.63,0,1.15.22,1.55.65.4.43.6.98.6,1.64,0,.7-.27,1.27-.79,1.69-.53.43-1.22.64-2.09.64-1.13,0-2-.27-2.63-.81-.62-.54-.93-1.24-.93-2.11,0-.66.2-1.23.58-1.72l.64.42c-.32.38-.49.81-.49,1.31,0,.61.22,1.11.67,1.52s1.01.62,1.69.63c-.29-.15-.52-.37-.69-.66-.17-.3-.25-.62-.25-.98Zm3.15,1.1c.27-.27.41-.62.41-1.04,0-.42-.13-.77-.4-1.04-.27-.27-.61-.41-1.03-.42-.41,0-.75.13-1.02.41-.27.27-.4.62-.4,1.04,0,.42.13.77.4,1.04.27.27.61.41,1.02.41.42,0,.77-.13,1.04-.41Z"/>
    </g>
    <g>
      <path class="cls-3" d="m31.26,86.95c0,.62-.17,1.13-.5,1.54-.33.41-.77.64-1.33.7l-.11-.77c.37-.04.66-.2.87-.46.22-.27.33-.6.33-1.01,0-.44-.12-.79-.36-1.05s-.56-.39-.95-.39c-.41,0-.73.12-.96.37-.23.25-.34.59-.34,1.03,0,.25.06.48.2.69l-.52.35-1.96-2v3.06s-.74,0-.74,0v-4.02s.72,0,.72,0l1.74,1.8c-.06-.62.09-1.13.44-1.53.35-.39.83-.59,1.45-.59.61,0,1.1.21,1.47.63.37.42.55.97.55,1.66Z"/>
      <path class="cls-3" d="m31.2,84.1h-.71s-2.04-2.37-2.04-2.37c-.6-.7-1.18-1.06-1.72-1.06-.35,0-.64.11-.85.33-.21.22-.32.51-.32.88,0,.44.14.77.42,1.01.28.23.66.33,1.13.28l-.06.79c-.66.04-1.2-.12-1.61-.51s-.62-.91-.62-1.57c0-.62.18-1.11.52-1.49.35-.37.8-.56,1.37-.56.38,0,.76.11,1.12.34.37.22.75.58,1.16,1.07l1.45,1.71v-3.11s.75,0,.75,0v4.26Z"/>
      <path class="cls-3" d="m30.28,78.71v-.88s.94,0,.94,0v.88s-.94,0-.94,0Z"/>
      <path class="cls-3" d="m29.15,74.61c0,.65-.2,1.18-.61,1.59-.4.42-.92.62-1.54.62-.63,0-1.15-.22-1.55-.65-.4-.43-.6-.98-.6-1.64,0-.7.27-1.27.79-1.69.53-.43,1.22-.64,2.09-.64,1.13,0,2,.28,2.63.81.62.54.93,1.24.93,2.11,0,.66-.2,1.23-.58,1.72l-.64-.42c.32-.37.48-.81.48-1.31,0-.61-.22-1.11-.66-1.52-.44-.41-1.01-.62-1.69-.63.29.15.52.37.69.66.17.3.25.62.25.98Zm-3.15-1.1c-.27.27-.41.62-.41,1.04,0,.42.13.77.41,1.04.27.27.62.41,1.04.42.41,0,.75-.13,1.02-.41.27-.27.4-.62.4-1.04,0-.42-.13-.77-.4-1.04-.27-.27-.61-.41-1.02-.41-.42,0-.77.13-1.04.41Z"/>
      <path class="cls-3" d="m24.87,70.02l1.78.49v.98s-1.78-.96-1.78-.96v-.51Zm0-1.33l1.78.49v.99s-1.78-.96-1.78-.96v-.52Z"/>
    </g>
  </g>
  <g>
    <g>
      <path class="cls-3" d="m22.47,150.65c-.53-.29-.9-.67-1.11-1.15-.21-.47-.22-.96-.04-1.47l.74.25c-.11.33-.1.66.03.96.14.31.38.56.73.75.37.2.72.25,1.07.14.34-.11.62-.35.82-.73.21-.38.26-.75.15-1.1s-.36-.63-.76-.85c-.53-.29-1.06-.29-1.59,0l-.46-.4,2.08-2.77,2.95,1.61-.35.64-2.42-1.32-1.14,1.53c.22-.06.45-.07.71-.04.25.03.48.1.68.21.57.31.94.74,1.11,1.27.16.53.09,1.08-.21,1.63-.31.57-.74.94-1.28,1.09-.54.15-1.1.07-1.69-.25Z"/>
      <path class="cls-3" d="m24.84,151.87l.33-.63,3.06-.66c.91-.2,1.49-.53,1.75-1.01.17-.31.21-.61.12-.9-.09-.29-.3-.52-.62-.7-.38-.21-.75-.25-1.09-.11-.34.14-.6.42-.79.86l-.67-.43c.27-.6.68-.99,1.22-1.17s1.1-.11,1.68.21c.54.3.9.69,1.06,1.17s.11.97-.16,1.47c-.18.34-.46.61-.83.83-.37.22-.87.39-1.49.51l-2.2.46,2.72,1.49-.35.65-3.74-2.04Z"/>
      <path class="cls-3" d="m31.43,155.55c-.68-.37-1.06-.91-1.15-1.62-.09-.71.1-1.5.58-2.37.48-.87,1.03-1.46,1.68-1.76s1.3-.28,1.98.09c.67.37,1.06.91,1.14,1.62.09.71-.1,1.5-.57,2.36-.47.86-1.03,1.45-1.68,1.76-.65.31-1.31.28-1.98-.09Zm.35-.65c.44.24.88.23,1.33-.03.45-.26.86-.72,1.23-1.4s.54-1.27.51-1.8c-.02-.52-.26-.9-.69-1.14-.45-.25-.9-.24-1.35.02-.45.26-.86.73-1.23,1.41-.37.67-.54,1.27-.52,1.79.02.52.26.9.71,1.15Z"/>
    </g>
    <g>
      <path class="cls-3" d="m12.14,158.95l.33-.63,3.06-.66c.91-.2,1.49-.53,1.75-1.01.17-.31.21-.61.12-.9-.09-.29-.3-.52-.62-.7-.38-.21-.75-.25-1.09-.11s-.6.42-.79.86l-.67-.43c.27-.6.68-.99,1.22-1.17.54-.18,1.1-.11,1.68.21.54.3.89.69,1.06,1.17s.11.97-.16,1.47c-.18.34-.46.61-.83.83-.37.22-.87.38-1.49.51l-2.2.46,2.72,1.49-.35.65-3.74-2.04Z"/>
      <path class="cls-3" d="m18.73,162.63c-.68-.37-1.06-.91-1.15-1.62-.09-.71.11-1.5.58-2.37.47-.87,1.03-1.46,1.68-1.77.64-.31,1.3-.28,1.98.09.67.37,1.06.91,1.15,1.62.09.71-.1,1.5-.57,2.36-.47.86-1.03,1.45-1.68,1.76-.65.31-1.31.28-1.98-.09Zm.35-.65c.44.24.88.23,1.33-.03.45-.26.86-.72,1.23-1.4.37-.67.54-1.27.51-1.8-.03-.52-.26-.9-.69-1.14-.45-.24-.9-.24-1.35.02s-.86.73-1.23,1.41c-.37.67-.54,1.27-.52,1.79.02.52.26.9.71,1.15Z"/>
      <path class="cls-3" d="m22.19,163.38l.77.42-.45.82-.77-.42.45-.82Z"/>
      <path class="cls-3" d="m25.13,166.13c-.53-.29-.9-.67-1.11-1.15-.21-.47-.22-.96-.04-1.47l.74.25c-.11.33-.1.65.03.96.14.31.38.56.73.75.37.2.73.25,1.07.14.34-.11.62-.35.82-.73.21-.38.26-.75.15-1.1-.11-.35-.36-.63-.76-.85-.53-.29-1.06-.29-1.59,0l-.46-.39,2.08-2.77,2.95,1.61-.35.64-2.42-1.32-1.14,1.53c.22-.06.45-.07.71-.04.25.03.48.1.68.21.57.31.94.74,1.11,1.27.16.53.09,1.08-.21,1.63-.31.57-.74.94-1.28,1.09-.54.15-1.1.07-1.69-.25Z"/>
      <path class="cls-3" d="m31.75,162.4l-1.28,1.33-.86-.47,1.69-1.11.45.25Zm1.17.64l-1.28,1.33-.87-.47,1.69-1.11.46.25Z"/>
    </g>
  </g>
  <path class="cls-2" d="m36.35,165.97c13.66-3.92,27.31-7.85,40.97-11.77"/>
  <path class="cls-2" d="m4.54,147.65c13.39-3.87,26.78-7.73,40.16-11.6"/>
  <line class="cls-2" x1="8.82" y1="146.48" x2="41.53" y2="164.43"/>
  <polyline class="cls-1" points="8.81 146.49 14.35 147.91 13.03 150.35 8.81 146.49"/>
  <polyline class="cls-1" points="41.53 164.38 35.99 162.96 37.31 160.52 41.53 164.38"/>
  <g>
    <line class="cls-2" x1="58.96" y1="98.06" x2="59.2" y2="97.77"/>
    <polyline class="cls-2" points="162.88 67.23 158.76 68.46 158.52 68.75"/>
    <line class="cls-2" x1="181.53" y1="63.75" x2="185.68" y2="62.58"/>
    <line class="cls-2" x1="181.53" y1="63.75" x2="181.23" y2="63.88"/>
    <path class="cls-2" d="m181.4,81.23c-.17-.1-.35-.21-.54-.3-.17-.1-.35-.21-.54-.3-.35-.19-.71-.4-1.06-.59-.72-.39-1.44-.79-2.14-1.17-1.42-.79-2.86-1.57-4.28-2.36-1.42-.79-2.85-1.57-4.27-2.35-.72-.4-1.44-.79-2.14-1.18-.72-.39-1.42-.79-2.14-1.17-.88-.48-1.75-.97-2.63-1.45-.55-.31-1.09-.6-1.64-.91-.22-.11-.43-.23-.64-.35-.03-.01-.07-.03-.1-.05-.03-.02-.06-.03-.1-.06-.06-.05-.13-.1-.18-.17s-.11-.15-.17-.23c-.05-.09-.09-.18-.14-.28s-.08-.21-.1-.31c-.01-.06-.02-.1-.03-.16,0-.02,0-.05-.01-.07,0-.02,0-.05-.01-.06l-.14-.92c-.08-.49-.16-.98-.23-1.46-.09-.59-.18-1.17-.27-1.75-.1-.65-.21-1.3-.31-1.95-.09-.56-.18-1.13-.27-1.7-.08-.54-.16-1.07-.25-1.61-.09-.6-.18-1.2-.28-1.8-.18-1.17-.36-2.35-.55-3.53-.09-.58-.18-1.17-.28-1.75l-.14-.89c-.02-.15-.05-.28-.07-.43-.01-.08-.02-.15-.03-.23-.01-.07-.02-.15-.05-.26"/>
    <path class="cls-2" d="m155.3,49.24c.06.42.09.63.13.84l.1.65.21,1.3c.14.85.27,1.72.41,2.57.14.87.26,1.73.4,2.59.14.87.27,1.72.41,2.59s.27,1.72.41,2.59c.06.43.13.85.19,1.29l.21,1.3c.14.85.27,1.72.41,2.57.01.06.01.11.02.17,0,.02.01.05.01.08,0,.02.01.05.01.08.02.1.05.22.08.32.06.22.14.42.24.6.02.06.05.1.08.15.02.03.05.08.08.13.06.08.11.16.17.23.03.03.07.07.09.1.03.03.07.06.1.09.06.05.13.09.19.13"/>
    <path class="cls-2" d="m231.34,70.32s.05-.02.06-.05c.01-.03.01-.06.01-.08"/>
    <line class="cls-2" x1="231.34" y1="70.32" x2="230.85" y2="70.47"/>
    <line class="cls-2" x1="201.47" y1="16.63" x2="57.76" y2="58.37"/>
    <line class="cls-2" x1="185.9" y1="80.1" x2="230.08" y2="67.28"/>
    <line class="cls-2" x1="86.3" y1="109.03" x2="180.96" y2="81.54"/>
    <line class="cls-2" x1="230.85" y1="70.47" x2="87.05" y2="112.23"/>
    <path class="cls-2" d="m225.33,67.45c-.3-.16-.6-.33-.9-.49"/>
    <path class="cls-2" d="m201.84,29.27c-.14-.84-.27-1.7-.4-2.55"/>
    <path class="cls-2" d="m201.54,16.45c1.96,12.53,3.93,25.06,5.9,37.59"/>
    <path class="cls-2" d="m207.93,53.88c-2.02-12.89-4.04-25.79-6.07-38.68"/>
    <path class="cls-2" d="m208.07,55.15c7.35,4.04,14.7,8.09,22.06,12.13"/>
    <path class="cls-2" d="m231.29,67.5c-2.06-1.14-4.12-2.28-6.18-3.42"/>
    <path class="cls-2" d="m231.41,67.76s-.01-.1-.03-.15c-.01-.03-.05-.08-.09-.1"/>
    <path class="cls-2" d="m57.06,57.27c.99,6.33,1.99,12.65,2.98,18.99"/>
    <path class="cls-2" d="m60.64,76.74c-.97-6.17-1.94-12.36-2.9-18.53"/>
    <path class="cls-2" d="m63.63,95.8c-.28-1.78-.56-3.56-.84-5.34"/>
    <path class="cls-2" d="m63.63,95.8c.03.22.1.43.21.63.05.09.11.19.18.27s.15.16.25.22"/>
    <path class="cls-2" d="m76.31,103.53c-4.01-2.2-8.03-4.41-12.04-6.62"/>
    <path class="cls-2" d="m86.33,109.05c-.06-.03-.1-.07-.16-.09"/>
    <path class="cls-2" d="m159.25,69.59c.92.51,1.85,1.03,2.77,1.53.92.51,1.85,1.03,2.77,1.53.92.51,1.85,1.01,2.77,1.53.93.51,1.86,1.01,2.78,1.53.92.5,1.85,1.01,2.77,1.51.92.51,1.85,1.03,2.77,1.53.92.51,1.85,1.03,2.77,1.53.92.51,1.85,1.01,2.77,1.53"/>
    <path class="cls-2" d="m181.4,77.74s-.09-.05-.14-.08c-1.42-.77-2.85-1.56-4.28-2.35-1.42-.79-2.85-1.57-4.27-2.36-.72-.39-1.42-.79-2.14-1.17-.71-.4-1.42-.79-2.14-1.18-.88-.48-1.75-.96-2.63-1.45-.55-.3-1.09-.6-1.64-.9-.22-.11-.42-.24-.64-.35-.03-.02-.07-.03-.1-.06s-.06-.03-.09-.06c-.07-.05-.13-.1-.19-.16-.06-.07-.11-.15-.17-.24-.05-.08-.09-.18-.14-.28-.03-.09-.07-.19-.1-.31-.01-.05-.02-.1-.03-.16v-.06s-.01-.05-.01-.07c-.06-.31-.1-.62-.15-.92-.08-.49-.15-.97-.23-1.46l-.27-1.74-.31-1.95c-.09-.57-.18-1.13-.26-1.7-.09-.54-.17-1.07-.26-1.62-.09-.59-.18-1.2-.27-1.79-.18-1.1-.35-2.2-.52-3.3"/>
    <path class="cls-2" d="m181.4,64.73v16.5"/>
    <path class="cls-2" d="m181.4,81.79c.08.05.17.09.25.14"/>
    <path class="cls-2" d="m181.76,81.8v-16.9c0-.08,0-.16-.01-.24-.01-.16-.05-.32-.08-.49-.09-.33-.22-.64-.39-.9-.16-.27-.35-.48-.56-.6l-.07-.03s-.06-.03-.08-.05c-.05-.02-.09-.06-.15-.08-.09-.06-.19-.11-.3-.16-.4-.22-.79-.44-1.18-.66-.8-.43-1.58-.87-2.38-1.3-.79-.44-1.58-.88-2.37-1.31-.8-.44-1.58-.88-2.38-1.31-.79-.43-1.58-.88-2.37-1.31-.8-.43-1.58-.87-2.38-1.31-.79-.43-1.58-.87-2.37-1.3-.4-.22-.8-.44-1.2-.66-.39-.22-.79-.43-1.18-.65-.79-.43-1.58-.88-2.37-1.31-.8-.43-1.59-.87-2.38-1.31-.4-.22-.8-.43-1.18-.65-.21-.1-.4-.22-.59-.33-.1-.05-.21-.1-.3-.16-.1-.06-.21-.11-.31-.16"/>
    <path class="cls-2" d="m185.9,80.59v-16.9c0-.07,0-.15-.01-.23-.01-.17-.05-.33-.08-.49-.09-.33-.22-.65-.39-.91-.16-.26-.35-.47-.55-.59-.03-.02-.05-.02-.08-.05l-.07-.03c-.06-.03-.1-.06-.15-.09-.1-.05-.21-.1-.31-.16-.39-.22-.79-.43-1.18-.65-.79-.43-1.58-.88-2.37-1.31-.8-.43-1.58-.88-2.38-1.31-.79-.43-1.58-.87-2.37-1.31-.8-.43-1.59-.87-2.38-1.3-.8-.44-1.58-.88-2.38-1.31-.79-.43-1.58-.88-2.37-1.31-.4-.22-.8-.43-1.18-.65-.4-.22-.8-.43-1.2-.66-.79-.43-1.58-.87-2.37-1.3-.8-.44-1.58-.88-2.38-1.31-.4-.22-.79-.43-1.18-.65-.19-.11-.4-.23-.59-.33-.1-.06-.21-.11-.3-.16l-.31-.17"/>
    <line class="cls-2" x1="155.19" y1="48.62" x2="159.33" y2="47.41"/>
    <path class="cls-2" d="m155.3,49.24c.57.31,1.14.63,1.71.93.54.3,1.07.59,1.61.89.55.31,1.1.6,1.65.91.56.31,1.1.6,1.66.91.55.31,1.1.6,1.66.91.55.31,1.1.62,1.65.91,1.1.62,2.21,1.22,3.31,1.82.56.31,1.1.62,1.66.92.55.3,1.1.6,1.65.91,1.1.6,2.21,1.21,3.31,1.82,1.1.6,2.21,1.22,3.33,1.82.57.32,1.15.64,1.72.95.15.08.3.17.44.25.01,0,.02.01.05.02.01.01.03.02.05.03.03.02.07.05.09.08.07.06.13.13.18.21s.1.17.15.26.09.19.13.3c.06.22.09.42.09.63"/>
    <line class="cls-2" x1="118.94" y1="88.5" x2="86.17" y2="98.02"/>
    <line class="cls-2" x1="167.81" y1="74.3" x2="119.92" y2="88.21"/>
    <line class="cls-2" x1="215.91" y1="60.33" x2="185.9" y2="69.05"/>
    <line class="cls-2" x1="185.9" y1="67.98" x2="215.63" y2="59.35"/>
    <line class="cls-2" x1="86.17" y1="96.95" x2="166.54" y2="73.61"/>
    <path class="cls-2" d="m216.07,60.01c0-.15-.05-.3-.11-.42-.03-.07-.08-.13-.14-.17-.05-.05-.13-.09-.19-.07"/>
    <line class="cls-2" x1="131.92" y1="95.65" x2="86.17" y2="108.93"/>
    <line class="cls-2" x1="180.8" y1="81.45" x2="132.9" y2="95.36"/>
    <line class="cls-2" x1="228.89" y1="67.48" x2="185.9" y2="79.96"/>
    <line class="cls-2" x1="185.9" y1="78.91" x2="228.61" y2="66.5"/>
    <line class="cls-2" x1="86.17" y1="107.87" x2="179.52" y2="80.75"/>
    <path class="cls-2" d="m229.05,67.15c0-.14-.05-.3-.11-.42-.03-.06-.08-.13-.14-.17-.05-.05-.13-.08-.19-.06"/>
    <line class="cls-2" x1="155.81" y1="38.92" x2="202.57" y2="25.33"/>
    <line class="cls-2" x1="106.16" y1="53.34" x2="155.32" y2="39.05"/>
    <line class="cls-2" x1="59.11" y1="67" x2="105.67" y2="53.47"/>
    <path class="cls-2" d="m202.86,26.31c.06-.01.09-.05.11-.09.02-.03.03-.08.05-.13.01-.09,0-.19-.01-.27-.02-.09-.06-.18-.1-.26-.03-.08-.1-.16-.18-.21"/>
    <line class="cls-2" x1="202.86" y1="26.31" x2="59.27" y2="68.02"/>
    <line class="cls-2" x1="155.25" y1="35.34" x2="202.02" y2="21.76"/>
    <line class="cls-2" x1="105.6" y1="49.76" x2="154.75" y2="35.49"/>
    <line class="cls-2" x1="58.55" y1="63.43" x2="105.05" y2="49.93"/>
    <path class="cls-2" d="m202.3,22.74s.08-.05.1-.09c.03-.03.05-.08.05-.13.02-.09.01-.19,0-.28-.02-.09-.06-.18-.1-.26-.05-.07-.1-.16-.18-.19"/>
    <line class="cls-2" x1="202.3" y1="22.74" x2="58.71" y2="64.45"/>
    <path class="cls-2" d="m156.31,42.49c-.06.02-.09.06-.11.1"/>
    <path class="cls-2" d="m155.75,38.93c-.06.01-.09.06-.11.1"/>
    <line class="cls-2" x1="179.43" y1="81.98" x2="179.27" y2="81.89"/>
    <line class="cls-2" x1="156.94" y1="46.06" x2="156.53" y2="43.5"/>
    <line class="cls-2" x1="156.43" y1="46.21" x2="156.94" y2="46.06"/>
    <line class="cls-2" x1="156.04" y1="43.64" x2="156.43" y2="46.21"/>
    <line class="cls-2" x1="156.38" y1="42.49" x2="155.97" y2="39.93"/>
    <line class="cls-2" x1="155.88" y1="42.64" x2="156.38" y2="42.49"/>
    <line class="cls-2" x1="155.48" y1="40.08" x2="155.88" y2="42.64"/>
    <line class="cls-2" x1="155.32" y1="39.07" x2="155.81" y2="38.93"/>
    <line class="cls-2" x1="154.91" y1="36.5" x2="155.32" y2="39.07"/>
    <line class="cls-2" x1="155.25" y1="35.35" x2="154.85" y2="32.79"/>
    <line class="cls-2" x1="154.35" y1="32.94" x2="154.76" y2="35.5"/>
    <line class="cls-2" x1="154.69" y1="31.79" x2="154.45" y2="30.28"/>
    <line class="cls-2" x1="153.96" y1="30.42" x2="154.19" y2="31.94"/>
    <path class="cls-2" d="m159.2,70.28c-.24-.41-.43-.87-.57-1.32"/>
    <line class="cls-2" x1="179.07" y1="58.27" x2="206.5" y2="50.31"/>
    <line class="cls-2" x1="79.58" y1="87.16" x2="109.59" y2="78.45"/>
    <path class="cls-2" d="m206.79,51.29s.08-.05.1-.09c.02-.03.03-.08.05-.13.01-.09.01-.19-.01-.28-.02-.08-.05-.17-.09-.25s-.11-.16-.19-.21"/>
    <line class="cls-2" x1="157.85" y1="65.5" x2="80.85" y2="87.87"/>
    <line class="cls-2" x1="206.79" y1="51.29" x2="180.33" y2="58.97"/>
    <line class="cls-2" x1="156.37" y1="42.48" x2="203.14" y2="28.89"/>
    <line class="cls-2" x1="106.73" y1="56.9" x2="155.88" y2="42.62"/>
    <line class="cls-2" x1="59.67" y1="70.57" x2="106.23" y2="57.05"/>
    <path class="cls-2" d="m203.43,29.87s.08-.05.1-.08c.02-.05.03-.09.05-.14.01-.09.01-.18-.01-.27s-.06-.18-.1-.26c-.03-.08-.1-.16-.18-.21"/>
    <line class="cls-2" x1="203.43" y1="29.87" x2="59.83" y2="71.58"/>
    <line class="cls-2" x1="161.31" y1="48.51" x2="204.26" y2="36.04"/>
    <path class="cls-2" d="m204.54,37.02s.08-.05.1-.09c.02-.03.03-.08.05-.13.01-.09.01-.19-.01-.28-.01-.09-.05-.17-.09-.26-.05-.07-.11-.16-.19-.19"/>
    <line class="cls-2" x1="155.6" y1="51.23" x2="63.1" y2="78.1"/>
    <line class="cls-2" x1="204.54" y1="37.02" x2="162.59" y2="49.2"/>
    <line class="cls-2" x1="165.75" y1="50.94" x2="204.82" y2="39.6"/>
    <line class="cls-2" x1="66.28" y1="79.84" x2="107.92" y2="67.74"/>
    <path class="cls-2" d="m205.1,40.58s.08-.05.1-.09c.02-.03.05-.08.05-.13.02-.09.01-.19-.01-.27-.01-.09-.05-.18-.09-.26s-.1-.16-.18-.21"/>
    <line class="cls-2" x1="156.16" y1="54.79" x2="67.54" y2="80.53"/>
    <line class="cls-2" x1="205.1" y1="40.58" x2="167.02" y2="51.64"/>
    <line class="cls-2" x1="123.27" y1="90.89" x2="86.17" y2="101.65"/>
    <line class="cls-2" x1="172.14" y1="76.68" x2="124.25" y2="90.59"/>
    <line class="cls-2" x1="220.24" y1="62.72" x2="185.9" y2="72.69"/>
    <line class="cls-2" x1="185.9" y1="71.63" x2="219.95" y2="61.73"/>
    <line class="cls-2" x1="86.17" y1="100.59" x2="170.87" y2="75.99"/>
    <path class="cls-2" d="m220.4,62.39c0-.15-.05-.3-.11-.42-.03-.06-.08-.13-.14-.17-.05-.05-.13-.09-.19-.07"/>
    <line class="cls-2" x1="156.94" y1="46.05" x2="203.7" y2="32.46"/>
    <line class="cls-2" x1="107.29" y1="60.47" x2="156.43" y2="46.19"/>
    <line class="cls-2" x1="60.23" y1="74.13" x2="106.79" y2="60.61"/>
    <path class="cls-2" d="m203.99,33.45s.08-.06.1-.09c.02-.05.03-.09.05-.14.01-.08.01-.18-.01-.27s-.05-.18-.09-.26c-.05-.07-.11-.16-.19-.21"/>
    <line class="cls-2" x1="203.99" y1="33.45" x2="60.39" y2="75.16"/>
    <line class="cls-2" x1="116.78" y1="87.31" x2="86.17" y2="96.19"/>
    <line class="cls-2" x1="165.65" y1="73.12" x2="117.76" y2="87.03"/>
    <line class="cls-2" x1="213.75" y1="59.14" x2="185.9" y2="67.23"/>
    <line class="cls-2" x1="185.9" y1="66.16" x2="213.46" y2="58.17"/>
    <line class="cls-2" x1="86.17" y1="95.14" x2="164.37" y2="72.41"/>
    <path class="cls-2" d="m213.91,58.81c0-.14-.05-.3-.11-.42-.03-.06-.08-.13-.14-.17-.05-.05-.13-.08-.19-.06"/>
    <line class="cls-2" x1="170.19" y1="53.39" x2="205.38" y2="43.17"/>
    <line class="cls-2" x1="70.71" y1="82.29" x2="108.47" y2="71.32"/>
    <path class="cls-2" d="m205.66,44.14s.08-.05.11-.08c.02-.05.03-.09.03-.14.02-.09.01-.18,0-.27-.02-.09-.06-.18-.1-.26s-.1-.16-.18-.21"/>
    <line class="cls-2" x1="156.73" y1="58.36" x2="71.97" y2="82.98"/>
    <line class="cls-2" x1="205.66" y1="44.14" x2="171.46" y2="54.09"/>
    <line class="cls-2" x1="125.43" y1="92.07" x2="86.17" y2="103.47"/>
    <line class="cls-2" x1="174.3" y1="77.88" x2="126.41" y2="91.79"/>
    <line class="cls-2" x1="222.4" y1="63.91" x2="185.9" y2="74.51"/>
    <line class="cls-2" x1="185.9" y1="73.44" x2="222.12" y2="62.93"/>
    <line class="cls-2" x1="86.17" y1="102.41" x2="173.03" y2="77.19"/>
    <path class="cls-2" d="m222.56,63.59c0-.15-.05-.31-.11-.42-.03-.07-.08-.13-.14-.18-.05-.05-.13-.08-.19-.06"/>
    <line class="cls-2" x1="129.76" y1="94.45" x2="86.17" y2="107.12"/>
    <line class="cls-2" x1="226.73" y1="66.29" x2="185.9" y2="78.14"/>
    <line class="cls-2" x1="185.9" y1="77.08" x2="226.45" y2="65.31"/>
    <line class="cls-2" x1="86.17" y1="106.05" x2="177.36" y2="79.57"/>
    <path class="cls-2" d="m226.89,65.97c0-.15-.05-.3-.11-.42-.03-.07-.08-.13-.14-.17-.05-.05-.13-.09-.19-.07"/>
    <line class="cls-2" x1="183.51" y1="60.72" x2="207.06" y2="53.87"/>
    <line class="cls-2" x1="84.02" y1="89.61" x2="110.15" y2="82.01"/>
    <line class="cls-2" x1="63.59" y1="95.55" x2="69.12" y2="93.94"/>
    <line class="cls-2" x1="158.66" y1="69" x2="85.29" y2="90.31"/>
    <line class="cls-2" x1="207.35" y1="54.85" x2="184.77" y2="61.41"/>
    <line class="cls-2" x1="114.61" y1="86.11" x2="86.17" y2="94.37"/>
    <line class="cls-2" x1="163.48" y1="71.92" x2="115.59" y2="85.83"/>
    <line class="cls-2" x1="211.58" y1="57.95" x2="185.9" y2="65.41"/>
    <line class="cls-2" x1="185.9" y1="64.35" x2="211.3" y2="56.97"/>
    <line class="cls-2" x1="86.17" y1="93.31" x2="162.21" y2="71.23"/>
    <path class="cls-2" d="m211.74,57.63c0-.15-.05-.3-.11-.42-.03-.07-.08-.13-.14-.17-.05-.05-.13-.09-.19-.07"/>
    <line class="cls-2" x1="127.6" y1="93.27" x2="86.17" y2="105.29"/>
    <line class="cls-2" x1="176.47" y1="79.06" x2="128.58" y2="92.97"/>
    <line class="cls-2" x1="224.57" y1="65.1" x2="185.9" y2="76.33"/>
    <line class="cls-2" x1="185.9" y1="75.26" x2="224.28" y2="64.11"/>
    <line class="cls-2" x1="86.17" y1="104.22" x2="175.19" y2="78.37"/>
    <path class="cls-2" d="m224.73,64.77c0-.14-.05-.3-.11-.42-.03-.06-.08-.13-.14-.17-.05-.05-.13-.08-.19-.07"/>
    <line class="cls-2" x1="154.69" y1="31.78" x2="201.46" y2="18.19"/>
    <line class="cls-2" x1="105.05" y1="46.19" x2="154.19" y2="31.92"/>
    <line class="cls-2" x1="58" y1="59.86" x2="104.54" y2="46.34"/>
    <path class="cls-2" d="m201.74,19.18s.08-.06.1-.09c.02-.05.05-.09.05-.14.02-.09.01-.18-.01-.27-.01-.09-.05-.18-.09-.26s-.1-.16-.18-.21"/>
    <line class="cls-2" x1="201.74" y1="19.18" x2="58.16" y2="60.88"/>
    <line class="cls-2" x1="121.1" y1="89.69" x2="86.17" y2="99.84"/>
    <line class="cls-2" x1="169.98" y1="75.5" x2="122.08" y2="89.41"/>
    <line class="cls-2" x1="218.07" y1="61.53" x2="185.9" y2="70.86"/>
    <line class="cls-2" x1="185.9" y1="69.81" x2="217.79" y2="60.55"/>
    <line class="cls-2" x1="86.17" y1="98.77" x2="168.7" y2="74.79"/>
    <path class="cls-2" d="m218.23,61.19c0-.14-.05-.3-.11-.42-.03-.06-.08-.13-.14-.17-.05-.05-.13-.08-.19-.06"/>
    <line class="cls-2" x1="174.62" y1="55.83" x2="205.94" y2="46.73"/>
    <line class="cls-2" x1="75.15" y1="84.73" x2="109.03" y2="74.88"/>
    <path class="cls-2" d="m206.23,47.72s.08-.05.1-.09c.02-.03.03-.09.05-.13.01-.09,0-.19-.01-.28-.02-.09-.06-.18-.1-.26-.03-.07-.1-.16-.18-.21"/>
    <line class="cls-2" x1="157.29" y1="61.94" x2="76.41" y2="85.42"/>
    <line class="cls-2" x1="206.23" y1="47.72" x2="175.9" y2="56.53"/>
    <line class="cls-2" x1="112.45" y1="84.93" x2="86.17" y2="92.56"/>
    <line class="cls-2" x1="161.32" y1="70.73" x2="113.43" y2="84.65"/>
    <line class="cls-2" x1="209.42" y1="56.76" x2="185.9" y2="63.59"/>
    <line class="cls-2" x1="185.68" y1="62.58" x2="209.13" y2="55.78"/>
    <line class="cls-2" x1="86.17" y1="91.49" x2="160.05" y2="70.03"/>
    <path class="cls-2" d="m209.58,56.43c0-.14-.05-.3-.11-.42-.03-.06-.08-.13-.14-.17-.05-.05-.13-.08-.19-.06"/>
    <line class="cls-2" x1="225.24" y1="64.17" x2="225.24" y2="54.61"/>
    <line class="cls-2" x1="225.24" y1="54.63" x2="206.56" y2="44.35"/>
    <line class="cls-2" x1="208.87" y1="33.1" x2="235.09" y2="47.53"/>
    <line class="cls-2" x1="86.17" y1="90.81" x2="86.17" y2="151.62"/>
    <line class="cls-2" x1="76.31" y1="149.57" x2="76.31" y2="97.87"/>
    <line class="cls-2" x1="76.31" y1="97.89" x2="57.62" y2="87.61"/>
    <line class="cls-2" x1="59.94" y1="76.35" x2="86.15" y2="90.78"/>
    <line class="cls-2" x1="76.31" y1="103.95" x2="63.77" y2="97.05"/>
    <line class="cls-2" x1="59.69" y1="76.21" x2="55.84" y2="77.32"/>
    <line class="cls-2" x1="62.22" y1="90.15" x2="63.13" y2="95.93"/>
    <path class="cls-2" d="m63.13,95.93c.03.22.1.44.21.63.06.1.11.19.18.28.07.08.16.16.25.21"/>
    <line class="cls-2" x1="59.75" y1="76.34" x2="56.2" y2="77.37"/>
    <line class="cls-2" x1="133.08" y1="95.44" x2="132.57" y2="95.17"/>
    <line class="cls-2" x1="132.08" y1="95.32" x2="132.57" y2="95.59"/>
    <line class="cls-2" x1="132.57" y1="95.17" x2="132.08" y2="95.32"/>
    <line class="cls-2" x1="131.64" y1="94.66" x2="130.41" y2="93.98"/>
    <line class="cls-2" x1="129.48" y1="93.47" x2="128.25" y2="92.79"/>
    <line class="cls-2" x1="127.31" y1="92.28" x2="126.08" y2="91.6"/>
    <line class="cls-2" x1="125.15" y1="91.09" x2="123.92" y2="90.41"/>
    <line class="cls-2" x1="122.98" y1="89.9" x2="121.75" y2="89.22"/>
    <line class="cls-2" x1="121.25" y1="89.36" x2="122.48" y2="90.04"/>
    <line class="cls-2" x1="120.82" y1="88.71" x2="119.59" y2="88.03"/>
    <line class="cls-2" x1="119.09" y1="88.18" x2="120.32" y2="88.85"/>
    <line class="cls-2" x1="119.59" y1="88.03" x2="119.09" y2="88.18"/>
    <line class="cls-2" x1="118.66" y1="87.52" x2="117.43" y2="86.84"/>
    <line class="cls-2" x1="116.49" y1="86.33" x2="115.26" y2="85.65"/>
    <line class="cls-2" x1="114.33" y1="85.14" x2="113.1" y2="84.46"/>
    <path class="cls-2" d="m110.82,82.88c.03.1.08.21.14.3s.14.17.23.23"/>
    <line class="cls-2" x1="110.65" y1="81.89" x2="110.25" y2="79.33"/>
    <line class="cls-2" x1="110.15" y1="82.04" x2="110.65" y2="81.89"/>
    <line class="cls-2" x1="109.75" y1="79.47" x2="110.15" y2="82.04"/>
    <line class="cls-2" x1="110.09" y1="78.32" x2="109.69" y2="75.76"/>
    <line class="cls-2" x1="109.59" y1="78.46" x2="110.09" y2="78.32"/>
    <line class="cls-2" x1="109.19" y1="75.9" x2="109.59" y2="78.46"/>
    <line class="cls-2" x1="109.53" y1="74.75" x2="109.12" y2="72.19"/>
    <line class="cls-2" x1="109.03" y1="74.9" x2="109.53" y2="74.75"/>
    <line class="cls-2" x1="108.63" y1="72.33" x2="109.03" y2="74.9"/>
    <line class="cls-2" x1="108.96" y1="71.18" x2="108.57" y2="68.62"/>
    <line class="cls-2" x1="108.47" y1="71.33" x2="108.96" y2="71.18"/>
    <line class="cls-2" x1="108.08" y1="68.77" x2="108.47" y2="71.33"/>
    <line class="cls-2" x1="108.41" y1="67.62" x2="108.01" y2="65.06"/>
    <line class="cls-2" x1="107.92" y1="67.77" x2="108.41" y2="67.62"/>
    <line class="cls-2" x1="107.51" y1="65.19" x2="107.92" y2="67.77"/>
    <line class="cls-2" x1="107.85" y1="64.05" x2="107.45" y2="61.49"/>
    <line class="cls-2" x1="107.36" y1="64.19" x2="107.85" y2="64.05"/>
    <line class="cls-2" x1="106.95" y1="61.63" x2="107.36" y2="64.19"/>
    <line class="cls-2" x1="107.29" y1="60.48" x2="106.89" y2="57.91"/>
    <line class="cls-2" x1="106.79" y1="60.63" x2="107.29" y2="60.48"/>
    <line class="cls-2" x1="106.39" y1="58.06" x2="106.79" y2="60.63"/>
    <line class="cls-2" x1="106.73" y1="56.91" x2="106.32" y2="54.35"/>
    <line class="cls-2" x1="106.23" y1="57.06" x2="106.73" y2="56.91"/>
    <line class="cls-2" x1="105.83" y1="54.5" x2="106.23" y2="57.06"/>
    <line class="cls-2" x1="106.17" y1="53.35" x2="105.76" y2="50.78"/>
    <line class="cls-2" x1="105.67" y1="53.48" x2="106.17" y2="53.35"/>
    <line class="cls-2" x1="105.27" y1="50.92" x2="105.67" y2="53.48"/>
    <line class="cls-2" x1="105.6" y1="49.78" x2="105.21" y2="47.21"/>
    <line class="cls-2" x1="105.11" y1="49.92" x2="105.6" y2="49.78"/>
    <line class="cls-2" x1="104.7" y1="47.36" x2="105.11" y2="49.92"/>
    <line class="cls-2" x1="105.05" y1="46.21" x2="104.81" y2="44.7"/>
    <line class="cls-2" x1="104.56" y1="46.35" x2="105.05" y2="46.21"/>
    <line class="cls-2" x1="104.32" y1="44.84" x2="104.56" y2="46.35"/>
    <line class="cls-2" x1="107.68" y1="75.28" x2="107.27" y2="72.73"/>
    <path class="cls-2" d="m86.17,109.38c.1.06.22.11.32.17"/>
    <line class="cls-2" x1="76.31" y1="100.89" x2="73.16" y2="101.8"/>
    <line class="cls-2" x1="175.84" y1="80.01" x2="174.94" y2="79.51"/>
    <line class="cls-2" x1="173.68" y1="78.81" x2="172.78" y2="78.32"/>
    <line class="cls-2" x1="171.51" y1="77.62" x2="170.61" y2="77.13"/>
    <line class="cls-2" x1="169.35" y1="76.43" x2="168.45" y2="75.94"/>
    <line class="cls-2" x1="167.17" y1="75.24" x2="166.29" y2="74.75"/>
    <path class="cls-2" d="m223.17,66.26c-.3-.17-.6-.33-.9-.5"/>
    <path class="cls-2" d="m221,65.07c-.3-.16-.6-.33-.9-.49"/>
    <path class="cls-2" d="m218.84,63.87c-.3-.16-.6-.32-.9-.49"/>
    <path class="cls-2" d="m216.67,62.69c-.3-.17-.6-.33-.9-.49"/>
    <path class="cls-2" d="m214.51,61.49c-.3-.16-.6-.33-.9-.49"/>
    <path class="cls-2" d="m210.18,59.11c-.3-.16-.6-.33-.9-.49"/>
    <path class="cls-2" d="m208.02,57.93c-.3-.17-.6-.33-.9-.5"/>
    <path class="cls-2" d="m200.16,18.56c-.08-.49-.16-.99-.23-1.49"/>
    <line class="cls-2" x1="155.08" y1="46.58" x2="154.67" y2="44.04"/>
    <line class="cls-2" x1="154.51" y1="43.02" x2="154.11" y2="40.47"/>
    <path class="cls-2" d="m206.15,56.65s-.02-.08-.03-.11"/>
    <path class="cls-2" d="m205.76,54.25c-.14-.85-.26-1.7-.4-2.55"/>
    <path class="cls-2" d="m205.2,50.68c-.14-.85-.27-1.7-.4-2.55"/>
    <path class="cls-2" d="m204.65,47.12c-.14-.85-.27-1.71-.4-2.55"/>
    <path class="cls-2" d="m204.08,43.54c-.13-.84-.26-1.7-.4-2.55"/>
    <path class="cls-2" d="m203.52,39.98c-.13-.85-.26-1.7-.4-2.55"/>
    <path class="cls-2" d="m202.96,36.41c-.14-.85-.26-1.7-.4-2.55"/>
    <path class="cls-2" d="m202.4,32.84c-.14-.84-.26-1.7-.4-2.54"/>
    <path class="cls-2" d="m58.39,76.58c-1.03-6.51-2.05-13.03-3.08-19.54"/>
    <line class="cls-2" x1="162.85" y1="72.86" x2="161.96" y2="72.37"/>
    <line class="cls-2" x1="160.68" y1="71.67" x2="160.33" y2="71.47"/>
    <line class="cls-2" x1="152.84" y1="32.31" x2="152.6" y2="30.82"/>
    <line class="cls-2" x1="156.59" y1="47.21" x2="156.74" y2="48.17"/>
    <path class="cls-2" d="m154.13,31.94h.06"/>
    <line class="cls-2" x1="175.52" y1="60.36" x2="162.31" y2="64.2"/>
    <line class="cls-2" x1="162.21" y1="53.04" x2="160.63" y2="53.5"/>
    <line class="cls-2" x1="175.67" y1="74.59" x2="181.4" y2="72.93"/>
    <line class="cls-2" x1="169.18" y1="71.02" x2="181.4" y2="67.47"/>
    <line class="cls-2" x1="166.65" y1="55.48" x2="161.18" y2="57.07"/>
    <line class="cls-2" x1="177.84" y1="75.78" x2="181.4" y2="74.75"/>
    <line class="cls-2" x1="179.97" y1="62.81" x2="163.19" y2="67.68"/>
    <line class="cls-2" x1="167.02" y1="69.83" x2="181.4" y2="65.65"/>
    <line class="cls-2" x1="180" y1="76.98" x2="181.4" y2="76.57"/>
    <line class="cls-2" x1="173.51" y1="73.4" x2="181.4" y2="71.11"/>
    <line class="cls-2" x1="171.09" y1="57.93" x2="161.75" y2="60.64"/>
    <line class="cls-2" x1="164.85" y1="68.64" x2="181.23" y2="63.88"/>
    <line class="cls-2" x1="105.11" y1="49.91" x2="105.55" y2="49.78"/>
    <line class="cls-2" x1="162.15" y1="63.19" x2="174.26" y2="59.67"/>
    <line class="cls-2" x1="160.47" y1="52.48" x2="160.94" y2="52.35"/>
    <line class="cls-2" x1="162.71" y1="66.75" x2="178.7" y2="62.11"/>
    <line class="cls-2" x1="161.59" y1="59.62" x2="169.82" y2="57.23"/>
    <line class="cls-2" x1="115.38" y1="88.47" x2="114.48" y2="87.97"/>
    <line class="cls-2" x1="104.31" y1="53.87" x2="103.91" y2="51.32"/>
    <line class="cls-2" x1="103.75" y1="50.31" x2="103.35" y2="47.76"/>
    <path class="cls-2" d="m76.29,103.53h.02"/>
    <line class="cls-2" x1="63.03" y1="91.98" x2="64.68" y2="91.49"/>
    <line class="cls-2" x1="181.4" y1="74" x2="176.95" y2="75.29"/>
    <line class="cls-2" x1="76.22" y1="103.48" x2="76.31" y2="103.46"/>
    <line class="cls-2" x1="181.4" y1="68.54" x2="170.46" y2="71.72"/>
    <line class="cls-2" x1="69.73" y1="99.91" x2="76.31" y2="97.99"/>
    <line class="cls-2" x1="181.4" y1="75.82" x2="179.11" y2="76.48"/>
    <line class="cls-2" x1="181.4" y1="66.72" x2="168.29" y2="70.52"/>
    <line class="cls-2" x1="67.56" y1="98.72" x2="74.27" y2="96.78"/>
    <line class="cls-2" x1="181.4" y1="77.63" x2="181.28" y2="77.68"/>
    <line class="cls-2" x1="181.4" y1="72.17" x2="174.78" y2="74.1"/>
    <line class="cls-2" x1="74.06" y1="102.29" x2="76.31" y2="101.64"/>
    <line class="cls-2" x1="181.4" y1="64.9" x2="166.13" y2="69.34"/>
    <line class="cls-2" x1="65.4" y1="97.53" x2="72.11" y2="95.58"/>
    <line class="cls-2" x1="225.24" y1="68.68" x2="225.24" y2="68.54"/>
    <line class="cls-2" x1="225.24" y1="67.47" x2="225.24" y2="67.4"/>
    <line class="cls-2" x1="129.78" y1="96.4" x2="129.62" y2="96.31"/>
    <line class="cls-2" x1="128.36" y1="95.61" x2="127.46" y2="95.12"/>
    <path class="cls-2" d="m181.4,81.79v-.56"/>
    <path class="cls-2" d="m181.4,81.23v.56"/>
    <line class="cls-2" x1="181.65" y1="81.92" x2="185.79" y2="80.72"/>
    <line class="cls-2" x1="181.76" y1="81.8" x2="185.9" y2="80.59"/>
    <line class="cls-2" x1="71.89" y1="101.1" x2="76.31" y2="99.82"/>
    <path class="cls-2" d="m156.87,46.07s-.03.01-.06.02"/>
    <line class="cls-2" x1="178.01" y1="81.19" x2="177.11" y2="80.7"/>
    <line class="cls-2" x1="155.81" y1="38.93" x2="155.41" y2="36.37"/>
    <path class="cls-2" d="m212.35,60.31c-.3-.17-.6-.33-.9-.5"/>
    <path class="cls-2" d="m201.29,25.71c-.14-.85-.27-1.7-.41-2.55"/>
    <path class="cls-2" d="m200.72,22.14c-.13-.85-.26-1.71-.4-2.55"/>
    <line class="cls-2" x1="171.34" y1="72.21" x2="181.4" y2="69.29"/>
    <line class="cls-2" x1="181.4" y1="70.35" x2="172.62" y2="72.91"/>
    <line class="cls-2" x1="157.24" y1="48.02" x2="157.1" y2="47.07"/>
    <line class="cls-2" x1="155.39" y1="48.56" x2="155.24" y2="47.61"/>
    <path class="cls-2" d="m86.62,109.8v2.44"/>
    <path class="cls-2" d="m86.62,112.24s0,.06-.01.08-.02.05-.06.06"/>
    <path class="cls-2" d="m55.41,56.86c.5.06,1,.13,1.5.19"/>
    <path class="cls-2" d="m226.75,68.23s-.1-.06-.16-.09"/>
    <path class="cls-2" d="m200.17,14.79s-.01.01-.02.01"/>
    <line class="cls-2" x1="199.68" y1="14.94" x2="200.17" y2="14.79"/>
    <path class="cls-2" d="m86.55,112.38s-.03,0-.06-.01"/>
    <line class="cls-2" x1="87.05" y1="112.23" x2="86.55" y2="112.38"/>
    <path class="cls-2" d="m55.38,56.86s.02-.01.03,0"/>
    <line class="cls-2" x1="55.38" y1="56.86" x2="55.88" y2="56.71"/>
    <line class="cls-2" x1="55.88" y1="56.71" x2="199.68" y2="14.94"/>
    <path class="cls-2" d="m201.47,16.63s.05-.03.06-.06.01-.06.01-.08"/>
    <path class="cls-2" d="m231.41,70.19v-2.44"/>
    <path class="cls-2" d="m206.12,56.54c-.06-.42-.13-.84-.19-1.26"/>
    <path class="cls-2" d="m200.2,14.79h-.03"/>
    <path class="cls-2" d="m201.71,15c-.5-.07-1-.14-1.5-.21"/>
    <path class="cls-2" d="m201.86,15.2s-.02-.09-.05-.13-.06-.08-.1-.08"/>
    <path class="cls-2" d="m208.07,55.15c-.1-.06-.18-.14-.25-.22-.07-.09-.14-.18-.18-.27-.1-.19-.17-.42-.21-.63"/>
    <path class="cls-2" d="m207.93,53.88c.03.22.1.43.21.63.06.09.11.19.18.27.08.08.16.16.25.22"/>
    <path class="cls-2" d="m86.49,112.37c-.1-.06-.22-.11-.32-.17"/>
    <path class="cls-2" d="m55.32,57.04v-.1s.02-.07.06-.08"/>
    <path class="cls-2" d="m56.91,57.05s.08.06.1.09.05.08.05.13"/>
    <path class="cls-2" d="m86.49,109.55s.08.07.09.11c.02.05.03.09.03.14"/>
    <path class="cls-2" d="m201.54,16.49v-.05"/>
    <path class="cls-2" d="m201.45,16.63h.02"/>
    <path class="cls-2" d="m230.14,67.28s-.05-.01-.06,0"/>
    <line class="cls-2" x1="181.4" y1="81.23" x2="181.4" y2="81.23"/>
    <path class="cls-2" d="m181.65,81.92s.08-.08.11-.13"/>
    <path class="cls-2" d="m185.79,80.72s.08-.08.11-.13"/>
    <path class="cls-2" d="m155.19,48.62l.1.62"/>
    <line class="cls-2" x1="165.01" y1="74.05" x2="164.12" y2="73.55"/>
    <path class="cls-2" d="m154.69,35.51s.05-.01.07-.01"/>
    <line class="cls-2" x1="153.95" y1="39.45" x2="153.55" y2="36.9"/>
    <line class="cls-2" x1="153.39" y1="35.89" x2="153" y2="33.34"/>
    <path class="cls-2" d="m215.91,60.33c.06-.01.1-.07.13-.13.02-.07.03-.14.03-.19"/>
    <path class="cls-2" d="m228.89,67.48c.07-.02.1-.08.13-.14s.03-.13.03-.19"/>
    <path class="cls-2" d="m202.72,25.35s-.09-.03-.15-.02"/>
    <path class="cls-2" d="m202.16,21.79s-.09-.05-.15-.02"/>
    <path class="cls-2" d="m156.37,46.21h.07"/>
    <path class="cls-2" d="m155.81,42.64s.05-.01.07,0"/>
    <path class="cls-2" d="m155.25,39.08s.05-.01.07-.01"/>
    <path class="cls-2" d="m156.94,46.06s-.05,0-.07.01"/>
    <path class="cls-2" d="m156.38,42.49h-.07"/>
    <path class="cls-2" d="m155.81,38.93h-.06"/>
    <line class="cls-2" x1="154.76" y1="35.5" x2="155.25" y2="35.35"/>
    <line class="cls-2" x1="154.19" y1="31.94" x2="154.69" y2="31.79"/>
    <path class="cls-2" d="m160.33,71.47c-.16-.08-.31-.19-.44-.32"/>
    <path class="cls-2" d="m106.11,53.35s-.05.02-.06.03"/>
    <path class="cls-2" d="m105.55,49.78s-.05.01-.06.03"/>
    <line class="cls-2" x1="129.92" y1="94.13" x2="131.15" y2="94.8"/>
    <line class="cls-2" x1="130.41" y1="93.98" x2="129.92" y2="94.13"/>
    <line class="cls-2" x1="127.76" y1="92.94" x2="128.99" y2="93.61"/>
    <line class="cls-2" x1="128.25" y1="92.79" x2="127.76" y2="92.94"/>
    <line class="cls-2" x1="125.59" y1="91.74" x2="126.82" y2="92.42"/>
    <line class="cls-2" x1="126.08" y1="91.6" x2="125.59" y2="91.74"/>
    <line class="cls-2" x1="123.42" y1="90.56" x2="124.65" y2="91.23"/>
    <line class="cls-2" x1="123.92" y1="90.41" x2="123.42" y2="90.56"/>
    <line class="cls-2" x1="121.75" y1="89.22" x2="121.25" y2="89.36"/>
    <line class="cls-2" x1="116.92" y1="86.98" x2="118.16" y2="87.66"/>
    <line class="cls-2" x1="117.43" y1="86.84" x2="116.92" y2="86.98"/>
    <line class="cls-2" x1="114.76" y1="85.8" x2="115.99" y2="86.47"/>
    <line class="cls-2" x1="115.26" y1="85.65" x2="114.76" y2="85.8"/>
    <line class="cls-2" x1="112.6" y1="84.6" x2="113.83" y2="85.28"/>
    <line class="cls-2" x1="113.1" y1="84.46" x2="112.6" y2="84.6"/>
    <line class="cls-2" x1="110.09" y1="78.3" x2="157.69" y2="64.49"/>
    <line class="cls-2" x1="65.95" y1="92.2" x2="63.19" y2="92.99"/>
    <line class="cls-2" x1="108.41" y1="67.61" x2="156" y2="53.78"/>
    <line class="cls-2" x1="76.31" y1="99.06" x2="70.99" y2="100.6"/>
    <line class="cls-2" x1="108.96" y1="71.17" x2="156.57" y2="57.35"/>
    <line class="cls-2" x1="110.65" y1="81.88" x2="158.26" y2="68.05"/>
    <line class="cls-2" x1="70.39" y1="94.63" x2="63.9" y2="96.52"/>
    <line class="cls-2" x1="75.54" y1="97.47" x2="68.83" y2="99.42"/>
    <line class="cls-2" x1="76.31" y1="102.7" x2="75.32" y2="102.99"/>
    <line class="cls-2" x1="109.52" y1="74.74" x2="157.13" y2="60.91"/>
    <line class="cls-2" x1="73.37" y1="96.27" x2="66.66" y2="98.22"/>
    <line class="cls-2" x1="126.2" y1="94.43" x2="125.3" y2="93.93"/>
    <line class="cls-2" x1="124.03" y1="93.23" x2="123.13" y2="92.74"/>
    <line class="cls-2" x1="121.87" y1="92.04" x2="120.97" y2="91.55"/>
    <line class="cls-2" x1="119.7" y1="90.85" x2="118.8" y2="90.36"/>
    <line class="cls-2" x1="117.54" y1="89.66" x2="116.64" y2="89.17"/>
    <line class="cls-2" x1="113.21" y1="87.28" x2="112.31" y2="86.79"/>
    <line class="cls-2" x1="111.05" y1="86.09" x2="110.68" y2="85.89"/>
    <line class="cls-2" x1="112.16" y1="83.94" x2="111.18" y2="83.4"/>
    <line class="cls-2" x1="108.79" y1="82.41" x2="108.39" y2="79.86"/>
    <line class="cls-2" x1="108.23" y1="78.85" x2="107.84" y2="76.3"/>
    <line class="cls-2" x1="107.11" y1="71.71" x2="106.71" y2="69.16"/>
    <line class="cls-2" x1="106.55" y1="68.14" x2="106.15" y2="65.59"/>
    <line class="cls-2" x1="105.99" y1="64.58" x2="105.59" y2="62.03"/>
    <line class="cls-2" x1="105.43" y1="61" x2="105.03" y2="58.46"/>
    <line class="cls-2" x1="104.87" y1="57.44" x2="104.46" y2="54.89"/>
    <line class="cls-2" x1="103.19" y1="46.73" x2="102.95" y2="45.24"/>
    <path class="cls-2" d="m109.56,84.7c-.24-.4-.42-.84-.56-1.29"/>
    <path class="cls-2" d="m206.64,50.33s-.09-.05-.14-.02"/>
    <path class="cls-2" d="m203.28,28.92s-.09-.03-.14-.02"/>
    <path class="cls-2" d="m204.4,36.06s-.09-.05-.14-.02"/>
    <path class="cls-2" d="m204.97,39.62s-.09-.03-.15-.02"/>
    <path class="cls-2" d="m220.24,62.72c.06-.02.1-.08.13-.14.02-.07.03-.14.03-.19"/>
    <path class="cls-2" d="m203.84,32.48s-.09-.03-.14-.02"/>
    <path class="cls-2" d="m213.75,59.14c.06-.02.1-.08.13-.14s.03-.13.03-.19"/>
    <path class="cls-2" d="m205.52,43.19s-.09-.03-.15-.02"/>
    <path class="cls-2" d="m222.4,63.91c.07-.02.1-.08.13-.14s.03-.13.03-.18"/>
    <path class="cls-2" d="m226.73,66.29c.07-.01.1-.08.13-.14s.03-.13.03-.18"/>
    <path class="cls-2" d="m207.35,54.85s.08-.05.1-.08c.02-.05.03-.09.05-.14.01-.09.01-.19-.01-.27-.01-.09-.05-.18-.09-.26s-.11-.16-.19-.21"/>
    <path class="cls-2" d="m207.2,53.89s-.09-.03-.14-.02"/>
    <path class="cls-2" d="m211.58,57.95c.06-.01.1-.08.13-.14s.03-.13.03-.18"/>
    <path class="cls-2" d="m224.57,65.1c.07-.02.1-.08.13-.14.02-.07.03-.13.03-.19"/>
    <path class="cls-2" d="m201.61,18.21s-.1-.03-.15-.02"/>
    <path class="cls-2" d="m218.07,61.53c.06-.02.1-.08.13-.14s.03-.13.03-.19"/>
    <path class="cls-2" d="m206.08,46.75s-.09-.03-.14-.02"/>
    <path class="cls-2" d="m209.42,56.76c.06-.02.1-.08.13-.14s.03-.13.03-.19"/>
    <line class="cls-2" x1="225.24" y1="106.31" x2="225.24" y2="72.09"/>
    <path class="cls-2" d="m110.58,81.89s-.03.02-.06.03"/>
    <path class="cls-2" d="m110.02,78.32s-.03.02-.06.03"/>
    <path class="cls-2" d="m109.46,74.76s-.05.01-.06.03"/>
    <path class="cls-2" d="m108.91,71.19s-.05.01-.06.02"/>
    <path class="cls-2" d="m108.35,67.62s-.05.02-.06.03"/>
    <path class="cls-2" d="m107.78,64.05s-.03.01-.06.03"/>
    <path class="cls-2" d="m107.22,60.49s-.03.01-.06.02"/>
    <path class="cls-2" d="m106.66,56.91s-.03.02-.06.03"/>
    <path class="cls-2" d="m104.99,46.22s-.05.01-.06.02"/>
    <path class="cls-2" d="m225.24,54.61s.05-.08.07-.1"/>
    <line class="cls-2" x1="231.4" y1="48.56" x2="234.95" y2="47.54"/>
    <line class="cls-2" x1="208.69" y1="33.07" x2="205.12" y2="34.11"/>
    <path class="cls-2" d="m208.44,33.03s-.07,0-.1,0"/>
    <line class="cls-2" x1="211.16" y1="46.89" x2="212.07" y2="52.68"/>
    <line class="cls-2" x1="225.24" y1="64.05" x2="225.1" y2="64.09"/>
    <path class="cls-2" d="m208.79,33.07s.08.02.11.05"/>
    <line class="cls-2" x1="208.44" y1="33.03" x2="208.79" y2="33.07"/>
    <line class="cls-2" x1="235.1" y1="47.55" x2="235.1" y2="108.35"/>
    <path class="cls-2" d="m225.24,106.31s.05.07.07.08"/>
    <path class="cls-2" d="m235.09,47.53s.01.01.01.02"/>
    <path class="cls-2" d="m208.87,33.1c-.06-.02-.13-.03-.18-.02"/>
    <path class="cls-2" d="m208.69,33.07s.07-.01.1,0"/>
    <line class="cls-2" x1="208.56" y1="55" x2="225.1" y2="64.09"/>
    <line class="cls-2" x1="208.34" y1="33.03" x2="204.82" y2="34.05"/>
    <line class="cls-2" x1="204.84" y1="34.2" x2="205.12" y2="34.11"/>
    <line class="cls-2" x1="212.71" y1="53.79" x2="225.24" y2="60.69"/>
    <path class="cls-2" d="m212.07,52.68c.02.22.1.43.21.63.05.1.1.19.18.28.07.08.15.16.25.21"/>
    <line class="cls-2" x1="225.31" y1="106.39" x2="230.9" y2="109.47"/>
    <path class="cls-2" d="m234.95,108.47s.07-.02.09-.05c.02-.01.06-.05.06-.08"/>
    <line class="cls-2" x1="231.4" y1="109.5" x2="234.95" y2="108.47"/>
    <path class="cls-2" d="m230.9,48.86c.11-.11.34-.25.5-.3"/>
    <path class="cls-2" d="m230.9,109.47c.07.03.17.05.25.06.08,0,.17-.01.25-.03"/>
    <path class="cls-2" d="m206.39,44.1s.03.1.06.15.07.08.11.1"/>
    <path class="cls-2" d="m205.12,34.11c-.08.02-.15.1-.19.18-.03.08-.05.17-.03.26"/>
    <path class="cls-2" d="m234.95,47.54s.1-.03.14-.01"/>
    <path class="cls-2" d="m76.31,97.87s.05-.08.07-.1"/>
    <line class="cls-2" x1="75.96" y1="107.23" x2="59.64" y2="98.26"/>
    <line class="cls-2" x1="82.47" y1="91.82" x2="86.03" y2="90.8"/>
    <path class="cls-2" d="m76.31,107.86c-.06,0-.13,0-.18-.01-.06,0-.13-.02-.17-.05"/>
    <path class="cls-2" d="m76.31,149.57s.03.07.07.09"/>
    <path class="cls-2" d="m86.15,90.78s.02.01.02.02"/>
    <path class="cls-2" d="m59.94,76.35c-.06-.02-.13-.03-.19-.01"/>
    <path class="cls-2" d="m55.96,77.8c-.01-.09,0-.18.05-.26.03-.08.1-.14.19-.17"/>
    <path class="cls-2" d="m55.84,77.32c-.08.02-.15.09-.19.17-.03.08-.05.17-.03.26"/>
    <path class="cls-2" d="m75.96,107.23s.11.05.17.06.13.01.18,0"/>
    <line class="cls-2" x1="55.62" y1="77.76" x2="58.65" y2="97.09"/>
    <line class="cls-2" x1="55.97" y1="77.81" x2="55.96" y2="77.8"/>
    <line class="cls-2" x1="59" y1="97.14" x2="57.46" y2="87.36"/>
    <line class="cls-2" x1="59.69" y1="76.21" x2="60.05" y2="76.25"/>
    <line class="cls-2" x1="59.75" y1="76.34" x2="60.05" y2="76.25"/>
    <line class="cls-2" x1="60.05" y1="76.25" x2="60.07" y2="76.43"/>
    <line class="cls-2" x1="59.64" y1="98.81" x2="75.96" y2="107.8"/>
    <path class="cls-2" d="m58.65,97.09c.06.33.17.67.32.97.08.15.18.3.28.42.11.13.24.25.39.33"/>
    <path class="cls-2" d="m59.64,98.26c-.09-.06-.18-.14-.25-.22s-.13-.18-.18-.27c-.1-.19-.17-.41-.21-.63"/>
    <line class="cls-2" x1="76.38" y1="149.66" x2="81.97" y2="152.73"/>
    <path class="cls-2" d="m81.97,152.73c.07.03.17.05.24.06.09,0,.18-.01.26-.03"/>
    <line class="cls-2" x1="82.47" y1="152.75" x2="86.03" y2="151.73"/>
    <path class="cls-2" d="m86.03,151.73s.07-.02.09-.05c.02-.01.06-.03.06-.07"/>
    <path class="cls-2" d="m57.46,87.36c.01.06.02.1.06.15.02.05.06.08.1.1"/>
    <path class="cls-2" d="m86.03,90.8s.1-.03.13-.01"/>
    <path class="cls-2" d="m81.97,92.12c.11-.11.34-.25.5-.3"/>
    <path class="cls-2" d="m56.2,77.37c-.09.03-.16.1-.19.18s-.06.17-.03.26"/>
    <path class="cls-2" d="m110.09,82.04s.03-.01.06,0"/>
    <path class="cls-2" d="m109.53,78.47s.03-.01.06-.01"/>
    <path class="cls-2" d="m108.96,74.9h.07"/>
    <path class="cls-2" d="m108.41,71.33h.07"/>
    <path class="cls-2" d="m107.85,67.77s.05-.01.07,0"/>
    <path class="cls-2" d="m107.29,64.2s.05-.01.07-.01"/>
    <path class="cls-2" d="m106.73,60.63h.06"/>
    <path class="cls-2" d="m106.16,57.06s.05-.01.07,0"/>
    <path class="cls-2" d="m105.6,53.5s.05-.01.07-.01"/>
    <path class="cls-2" d="m105.05,49.93s.05-.01.07-.01"/>
    <path class="cls-2" d="m104.49,46.35h.07"/>
    <path class="cls-2" d="m132.08,95.32c0,.07-.01.14-.03.19s-.07.11-.13.14"/>
    <path class="cls-2" d="m129.92,94.13c0,.06-.01.13-.03.18s-.07.13-.13.14"/>
    <path class="cls-2" d="m127.76,92.94c0,.07-.01.13-.03.19-.02.06-.07.11-.13.14"/>
    <path class="cls-2" d="m125.59,91.74c0,.07-.01.14-.03.19s-.07.11-.13.14"/>
    <path class="cls-2" d="m123.42,90.56c0,.06,0,.13-.02.19-.02.06-.07.11-.13.14"/>
    <path class="cls-2" d="m121.25,89.36c0,.07,0,.14-.02.19s-.07.11-.13.14"/>
    <path class="cls-2" d="m119.09,88.18c0,.06,0,.13-.02.18-.02.07-.07.13-.13.14"/>
    <path class="cls-2" d="m116.92,86.98c0,.07,0,.14-.02.19s-.07.11-.13.14"/>
    <path class="cls-2" d="m114.76,85.8c0,.06,0,.13-.02.18s-.07.13-.13.14"/>
    <path class="cls-2" d="m112.6,84.6c0,.07,0,.14-.02.19s-.07.11-.13.14"/>
    <line class="cls-2" x1="110.68" y1="83.55" x2="111.66" y2="84.09"/>
    <path class="cls-2" d="m110.68,83.55c-.09-.06-.17-.15-.23-.23-.06-.09-.1-.19-.13-.3"/>
    <path class="cls-2" d="m110.65,81.89h-.07"/>
    <path class="cls-2" d="m110.09,78.32s-.05,0-.07,0"/>
    <path class="cls-2" d="m109.53,74.75s-.05,0-.07.01"/>
    <path class="cls-2" d="m108.96,71.18s-.03,0-.06.01"/>
    <path class="cls-2" d="m108.41,67.62h-.06"/>
    <path class="cls-2" d="m107.85,64.05s-.05-.01-.07,0"/>
    <path class="cls-2" d="m107.29,60.48s-.05,0-.07.01"/>
    <path class="cls-2" d="m106.73,56.91h-.07"/>
    <path class="cls-2" d="m106.17,53.35h-.07"/>
    <path class="cls-2" d="m105.6,49.78s-.03-.01-.06,0"/>
    <path class="cls-2" d="m105.05,46.21s-.05,0-.06.01"/>
    <path class="cls-2" d="m110.68,85.89c-.16-.08-.31-.19-.44-.32"/>
    <line class="cls-2" x1="55.97" y1="77.81" x2="57.46" y2="87.36"/>
    <line class="cls-2" x1="75.96" y1="107.8" x2="75.96" y2="107.23"/>
    <line class="cls-2" x1="225.31" y1="54.51" x2="230.9" y2="48.86"/>
    <line class="cls-2" x1="208.69" y1="33.07" x2="208.34" y2="33.03"/>
    <line class="cls-2" x1="212.71" y1="53.79" x2="208.56" y2="55"/>
    <line class="cls-2" x1="207.93" y1="53.88" x2="212.07" y2="52.68"/>
    <line class="cls-2" x1="64.76" y1="91.54" x2="63.04" y2="92.04"/>
    <line class="cls-2" x1="76.38" y1="97.77" x2="81.97" y2="92.12"/>
    <line class="cls-2" x1="230.8" y1="67.64" x2="230.14" y2="67.28"/>
    <path class="cls-2" d="m86.99,109.42s.07.07.09.1c.01.05.02.1.02.15"/>
    <line class="cls-2" x1="87.11" y1="109.67" x2="87.11" y2="112.11"/>
    <path class="cls-2" d="m57.42,56.9s.08.06.1.09.03.08.05.13"/>
    <path class="cls-2" d="m201.37,15.35s-.02-.09-.05-.13-.06-.08-.1-.09"/>
    <line class="cls-2" x1="201.54" y1="16.45" x2="201.37" y2="15.35"/>
    <line class="cls-2" x1="57.56" y1="57.12" x2="57.73" y2="58.21"/>
    <path class="cls-2" d="m199.7,14.94h-.02"/>
    <path class="cls-2" d="m55.88,56.71h.02"/>
    <path class="cls-2" d="m87.11,112.11s0,.05-.01.07c0,.02-.02.06-.05.06"/>
    <line class="cls-2" x1="86.33" y1="109.05" x2="86.99" y2="109.42"/>
    <line class="cls-2" x1="230.91" y1="70.34" x2="230.91" y2="67.9"/>
    <line class="cls-2" x1="201.22" y1="15.14" x2="199.7" y2="14.94"/>
    <line class="cls-2" x1="55.9" y1="56.71" x2="57.42" y2="56.9"/>
    <line class="cls-2" x1="225.31" y1="67.46" x2="225.31" y2="67.44"/>
    <line class="cls-2" x1="225.31" y1="68.65" x2="225.31" y2="68.52"/>
    <line class="cls-2" x1="165.46" y1="54.83" x2="161.04" y2="56.12"/>
    <line class="cls-2" x1="57.46" y1="87.36" x2="76.38" y2="97.77"/>
    <line class="cls-2" x1="130.41" y1="93.98" x2="178.29" y2="80.08"/>
    <path class="cls-2" d="m230.91,67.9c0-.06-.01-.1-.02-.15-.02-.03-.06-.09-.09-.11"/>
    <line class="cls-2" x1="208.56" y1="55" x2="208.07" y2="55.15"/>
    <line class="cls-2" x1="207.44" y1="54.03" x2="207.93" y2="53.88"/>
    <path class="cls-2" d="m230.85,70.47s.03-.03.05-.06.01-.05.01-.07"/>
    <line class="cls-2" x1="82.21" y1="91.95" x2="82.21" y2="152.79"/>
    <line class="cls-2" x1="82.2" y1="91.95" x2="56" y2="77.54"/>
    <line class="cls-2" x1="55.65" y1="77.49" x2="56" y2="77.54"/>
    <line class="cls-2" x1="63.34" y1="96.56" x2="59.2" y2="97.77"/>
    <line class="cls-2" x1="63.84" y1="96.42" x2="63.34" y2="96.56"/>
    <line class="cls-2" x1="86.58" y1="109.67" x2="87.08" y2="109.52"/>
    <line class="cls-2" x1="87.08" y1="109.52" x2="230.89" y2="67.76"/>
    <line class="cls-2" x1="230.89" y1="67.76" x2="231.38" y2="67.61"/>
    <line class="cls-2" x1="155.44" y1="50.23" x2="61.9" y2="77.39"/>
    <line class="cls-2" x1="57.52" y1="56.99" x2="57.02" y2="57.14"/>
    <line class="cls-2" x1="57.52" y1="56.99" x2="201.32" y2="15.23"/>
    <line class="cls-2" x1="201.81" y1="15.08" x2="201.32" y2="15.23"/>
    <line class="cls-2" x1="204.93" y1="34.29" x2="231.12" y2="48.69"/>
    <line class="cls-2" x1="231.12" y1="67.39" x2="231.12" y2="48.69"/>
    <line class="cls-2" x1="231.14" y1="109.52" x2="231.14" y2="70.4"/>
  </g>
  <polyline class="cls-1" points="122.01 174.61 126.98 171.77 127.73 174.43 122.01 174.61"/>
  <g>
    <g>
      <path class="cls-3" d="m190.98,151.39l-1.47-5.06c-.27.45-.69.82-1.24,1.09l-.2-.7c.58-.31,1.01-.78,1.28-1.41l.62-.18,1.76,6.05-.74.22Z"/>
      <path class="cls-3" d="m194.87,150.34c-.65.19-1.22.17-1.71-.04-.5-.21-.82-.59-.98-1.14-.1-.35-.09-.7.04-1.03s.35-.61.66-.82c-.31-.04-.57-.16-.8-.34-.23-.18-.38-.41-.46-.67-.14-.47-.07-.91.19-1.3.26-.39.69-.68,1.27-.85.56-.16,1.06-.15,1.49.04.43.19.71.53.85,1,.08.27.07.54-.03.82-.09.28-.26.52-.5.71.38,0,.71.12,1,.34.29.22.48.5.58.85.16.54.09,1.04-.21,1.48-.3.45-.76.76-1.4.94Zm-1.05-3.62c.33-.1.58-.26.73-.49.15-.23.19-.49.11-.78-.08-.29-.24-.49-.5-.6s-.55-.12-.89-.02c-.36.1-.61.27-.77.5-.16.23-.19.49-.1.78.09.29.26.49.52.6.26.11.56.12.91.02Zm.84,2.94c.41-.12.71-.32.89-.6.19-.28.23-.59.13-.93s-.3-.58-.61-.71c-.3-.14-.66-.15-1.07-.03-.41.12-.72.32-.9.6-.19.28-.23.59-.13.93s.3.58.61.71.67.14,1.08.02Z"/>
      <path class="cls-3" d="m199.8,148.9c-.58.17-1.12.16-1.6-.03-.48-.19-.84-.52-1.06-1.01l.7-.34c.15.32.39.54.7.66.31.12.66.13,1.04.02.4-.12.69-.34.85-.66.17-.32.19-.68.07-1.09-.12-.42-.34-.72-.67-.88s-.7-.19-1.14-.06c-.58.17-.95.54-1.13,1.11l-.61.04-.48-3.43,3.22-.94.2.7-2.64.77.27,1.89c.11-.19.27-.37.47-.53.2-.16.41-.27.63-.33.63-.18,1.19-.14,1.68.12.49.26.83.7,1,1.31.18.63.14,1.19-.14,1.67-.27.49-.73.83-1.38,1.01Z"/>
      <path class="cls-3" d="m204.95,147.41c-.74.22-1.4.1-1.96-.34-.56-.44-.98-1.13-1.26-2.09-.28-.95-.29-1.76-.06-2.43.24-.67.73-1.12,1.47-1.33.74-.21,1.39-.1,1.96.34.57.44.99,1.14,1.26,2.08.27.95.29,1.76.05,2.43-.24.68-.73,1.12-1.47,1.33Zm-.21-.71c.48-.14.79-.46.93-.96s.1-1.12-.11-1.86-.51-1.28-.9-1.64c-.39-.35-.82-.46-1.3-.32-.49.14-.8.46-.94.97-.14.5-.1,1.12.12,1.87.21.74.51,1.28.9,1.63s.82.46,1.31.31Z"/>
    </g>
    <g>
      <path class="cls-3" d="m193.28,163.53c-.27-1.61.1-3.65,1.13-6.13l-3.4.99-.2-.7,4.21-1.22.2.7c-1.05,2.64-1.43,4.68-1.14,6.13l-.8.23Z"/>
      <path class="cls-3" d="m197.02,162.45l-.21-.68,1.7-2.62c.5-.78.68-1.43.53-1.95-.1-.34-.28-.58-.55-.72-.27-.14-.58-.16-.93-.06-.42.12-.7.35-.85.69-.15.34-.13.73.05,1.16l-.78.17c-.23-.62-.22-1.18.04-1.69.26-.51.7-.85,1.34-1.04.59-.17,1.12-.14,1.57.08.46.23.76.61.92,1.16.11.37.11.76,0,1.17-.11.41-.34.88-.7,1.41l-1.24,1.88,2.98-.87.21.71-4.09,1.19Z"/>
      <path class="cls-3" d="m201.94,160.05l.85-.25.26.9-.85.25-.26-.9Z"/>
      <path class="cls-3" d="m206.16,159.87c-.65.19-1.22.17-1.71-.04-.5-.21-.82-.59-.98-1.14-.1-.35-.09-.7.04-1.03.13-.34.35-.61.66-.82-.31-.04-.57-.16-.8-.34-.23-.18-.38-.41-.46-.67-.14-.47-.07-.91.19-1.3.26-.4.69-.68,1.27-.85.56-.16,1.06-.15,1.49.04s.71.53.85,1c.08.26.07.54-.03.82-.09.28-.26.52-.5.71.38,0,.71.12,1,.34.29.22.48.5.58.85.16.54.09,1.04-.21,1.48-.3.45-.77.76-1.4.95Zm-1.05-3.62c.33-.1.58-.26.73-.49.15-.23.19-.49.11-.78-.08-.29-.24-.49-.5-.6-.26-.11-.55-.12-.89-.02-.36.1-.61.27-.77.5-.16.23-.19.49-.1.78.09.29.26.49.52.6.26.11.56.12.91.02Zm.84,2.94c.41-.12.71-.32.89-.6.18-.28.23-.59.13-.93s-.3-.58-.61-.71c-.31-.14-.66-.15-1.07-.03-.42.12-.72.32-.9.6-.19.28-.23.59-.13.93s.3.58.61.71c.31.13.67.14,1.08.02Z"/>
      <path class="cls-3" d="m208.56,152.46l.03,1.85-.94.27.42-1.98.49-.14Zm1.28-.37l.03,1.85-.95.28.42-1.98.5-.15Z"/>
    </g>
  </g>
</svg>