<svg id="Vrstva_1" data-name="Vrstva 1" xmlns="http://www.w3.org/2000/svg" viewBox="0 0 226.77 226.77">
  <defs>
    <style>
      .cls-1, .cls-4, .cls-5 {
        fill: none;
      }

      .cls-1 {
        stroke: #ffffff;
      }

      .cls-1, .cls-4 {
        stroke-linecap: round;
        stroke-linejoin: round;
      }

      .cls-1, .cls-2, .cls-4, .cls-5 {
        stroke-width: 0.25px;
      }

      .cls-2 {
        fill: #ffffff;
        stroke: #ffffff;
      }

      .cls-2, .cls-5 {
        stroke-miterlimit: 10;
      }

      .cls-3 {
        fill: #1d1d1b;
      }

      .cls-4, .cls-5 {
        stroke: #010202;
      }
    </style>
  </defs>
  <path class="cls-1" d="M175,138.36l-11.87-6.77"/>
  <line class="cls-1" x1="175.11" y1="223.03" x2="114.98" y2="196.99"/>
  <line class="cls-1" x1="58.8" y1="66.74" x2="41.11" y2="57.78"/>
  <path class="cls-1" d="M99.53,190.71l-58.9-24.27"/>
  <path class="cls-1" d="M49.61,59.92l47.5-8.07"/>
  <line class="cls-1" x1="61.39" y1="66.14" x2="61.39" y2="53.59"/>
  <line class="cls-1" x1="166.17" y1="120.28" x2="166.17" y2="53.34"/>
  <line class="cls-1" x1="44.98" y1="168.09" x2="44.98" y2="59.81"/>
  <polyline class="cls-2" points="45.01 168.17 46.34 162.61 43.55 162.64 45.01 168.17"/>
  <polyline class="cls-2" points="44.95 59.82 43.56 65.36 46.34 65.36 44.95 59.82"/>
  <polyline class="cls-2" points="70.92 56.28 76.61 56.81 76.18 54.06 70.92 56.28"/>
  <line class="cls-1" x1="170.98" y1="221.17" x2="171.02" y2="136.2"/>
  <polyline class="cls-2" points="170.99 136.12 169.55 141.65 172.34 141.68 170.99 136.12"/>
  <polyline class="cls-2" points="70.85 18.52 75.41 21.97 76.5 19.41 70.85 18.52"/>
  <polyline class="cls-2" points="166.16 58.55 161.57 55.14 160.5 57.71 166.16 58.55"/>
  <polyline class="cls-2" points="61.45 57.93 55.76 57.41 56.18 60.16 61.45 57.93"/>
  <polyline class="cls-2" points="170.97 221.16 172.4 215.63 169.62 215.6 170.97 221.16"/>
  <g>
    <g>
      <path class="cls-3" d="M83.32,51.2a2.51,2.51,0,0,1-1.7-.23,1.69,1.69,0,0,1-.85-1.24,1.63,1.63,0,0,1,.15-1,1.73,1.73,0,0,1,.75-.74,1.64,1.64,0,0,1-.76-.43,1.4,1.4,0,0,1-.38-.72,1.52,1.52,0,0,1,.33-1.27,2.15,2.15,0,0,1,1.36-.7,2.13,2.13,0,0,1,1.48.21,1.49,1.49,0,0,1,.73,1.08,1.33,1.33,0,0,1-.11.81,1.65,1.65,0,0,1-.57.66,1.71,1.71,0,0,1,1,.44,1.6,1.6,0,0,1,.49.91,1.7,1.7,0,0,1-.38,1.45A2.43,2.43,0,0,1,83.32,51.2Zm-.65-3.72a1.19,1.19,0,0,0,.78-.41.92.92,0,0,0,.2-.76.88.88,0,0,0-.43-.66,1.28,1.28,0,0,0-.88-.12,1.3,1.3,0,0,0-.83.42.85.85,0,0,0-.18.76.86.86,0,0,0,.45.65A1.3,1.3,0,0,0,82.67,47.48Zm.52,3a1.51,1.51,0,0,0,1-.5,1.06,1.06,0,0,0,.23-.9,1.09,1.09,0,0,0-.52-.78,1.54,1.54,0,0,0-1.06-.15,1.59,1.59,0,0,0-1,.5,1,1,0,0,0-.23.91,1.06,1.06,0,0,0,.52.78A1.64,1.64,0,0,0,83.19,50.5Z"/>
      <path class="cls-3" d="M88.59,50.28a2,2,0,0,1-1.91-.55,4.74,4.74,0,0,1-.81-4.63,2.26,2.26,0,0,1,3.52-.61,4,4,0,0,1,1,2.21,3.88,3.88,0,0,1-.22,2.42A2.06,2.06,0,0,1,88.59,50.28Zm-.13-.72a1.31,1.31,0,0,0,1-.86,3.49,3.49,0,0,0,.09-1.86,3.42,3.42,0,0,0-.72-1.72,1.28,1.28,0,0,0-1.25-.47,1.31,1.31,0,0,0-1,.86,4.28,4.28,0,0,0,.62,3.59A1.32,1.32,0,0,0,88.46,49.56Z"/>
    </g>
    <g>
      <path class="cls-3" d="M84.24,63.18A2.4,2.4,0,0,1,82.63,63a1.89,1.89,0,0,1-.92-1.18l.74-.25a1.27,1.27,0,0,0,.61.78,1.59,1.59,0,0,0,1,.15,1.51,1.51,0,0,0,1-.54,1.4,1.4,0,0,0-.3-1.88,1.44,1.44,0,0,0-1.07-.16,1.2,1.2,0,0,0-.65.31l-.44-.45,1.63-2.29-3,.53-.12-.72,4-.69.12.7-1.46,2a1.94,1.94,0,0,1,1.58.16,1.82,1.82,0,0,1,.83,1.33,1.89,1.89,0,0,1-.36,1.56A2.36,2.36,0,0,1,84.24,63.18Z"/>
      <path class="cls-3" d="M87.3,61.63l.87-.15.16.92-.87.15Z"/>
      <path class="cls-3" d="M89.72,62.16l-.9-5.2a2.88,2.88,0,0,1-1.35.95l-.13-.72a2.83,2.83,0,0,0,1.43-1.26l.64-.11L90.48,62Z"/>
      <path class="cls-3" d="M91.83,55.33l-.18,1.84-1,.16.63-1.92Zm1.31-.23L93,56.94l-1,.17.63-1.92Z"/>
    </g>
  </g>
  <line class="cls-1" x1="70.82" y1="64.56" x2="70.82" y2="14.33"/>
  <g>
    <g>
      <path class="cls-3" d="M42,122.32a11.41,11.41,0,0,1-5.57-2.8v3.54h-.73v-4.38h.73q3.36,2.61,5.57,2.81Z"/>
      <path class="cls-3" d="M42,115.84H40.42v3.32h-.74l-4-3.19v-1h4v-.9h.74v.9H42Zm-2.28,2.44v-2.44H36.6Z"/>
      <path class="cls-3" d="M42,111.07a2.07,2.07,0,0,1-.86,1.78,4,4,0,0,1-2.36.63,3.92,3.92,0,0,1-2.35-.63,2.05,2.05,0,0,1-.87-1.78,2.08,2.08,0,0,1,.87-1.79,4,4,0,0,1,2.35-.63,3.92,3.92,0,0,1,2.35.63A2.08,2.08,0,0,1,42,111.07Zm-.73,0a1.3,1.3,0,0,0-.67-1.16,4.24,4.24,0,0,0-3.64,0,1.34,1.34,0,0,0,0,2.32,3.45,3.45,0,0,0,1.83.41,3.39,3.39,0,0,0,1.82-.41A1.28,1.28,0,0,0,41.3,111.07Z"/>
    </g>
    <g>
      <path class="cls-3" d="M53.93,124.46h-.71l-2-2.37a2.44,2.44,0,0,0-1.72-1,1.11,1.11,0,0,0-.85.33,1.19,1.19,0,0,0-.31.87,1.24,1.24,0,0,0,.42,1,1.49,1.49,0,0,0,1.13.28l-.05.79a2,2,0,0,1-2.23-2.08,2.16,2.16,0,0,1,.51-1.49,1.82,1.82,0,0,1,1.38-.56,2.14,2.14,0,0,1,1.12.33,5,5,0,0,1,1.16,1.07l1.46,1.71V120.2h.74Z"/>
      <path class="cls-3" d="M51.85,117.16a2.22,2.22,0,0,1-.6,1.6,2.09,2.09,0,0,1-1.54.62,2,2,0,0,1-1.55-.64,2.32,2.32,0,0,1-.6-1.64,2.09,2.09,0,0,1,.78-1.7,3.23,3.23,0,0,1,2.1-.64,3.87,3.87,0,0,1,2.62.8,2.64,2.64,0,0,1,.94,2.11,2.67,2.67,0,0,1-.58,1.72l-.63-.41a2,2,0,0,0,.47-1.32,2,2,0,0,0-.66-1.51,2.47,2.47,0,0,0-1.7-.63,1.62,1.62,0,0,1,.69.66A1.94,1.94,0,0,1,51.85,117.16Zm-3.16-1.09a1.54,1.54,0,0,0,0,2.07,1.43,1.43,0,0,0,1,.41,1.36,1.36,0,0,0,1-.41,1.54,1.54,0,0,0,0-2.07,1.36,1.36,0,0,0-1-.41A1.39,1.39,0,0,0,48.69,116.07Z"/>
      <path class="cls-3" d="M53,114.16v-.88h.94v.88Z"/>
      <path class="cls-3" d="M53.93,111.87H48.65a2.93,2.93,0,0,1,.71,1.49h-.73a2.78,2.78,0,0,0-1-1.62v-.65h6.3Z"/>
      <path class="cls-3" d="M47.56,107.3l1.78.48v1l-1.78-1Zm0,1.33,1.78.48v1l-1.78-1Z"/>
    </g>
  </g>
  <g>
    <g>
      <path class="cls-3" d="M114.11,33.76a2.48,2.48,0,0,1-1.31-1.11,1.68,1.68,0,0,1,0-1.5,1.57,1.57,0,0,1,.68-.78,1.65,1.65,0,0,1,1-.22,1.61,1.61,0,0,1-.41-.77,1.31,1.31,0,0,1,.07-.81,1.47,1.47,0,0,1,1-.89,2.16,2.16,0,0,1,1.52.14,2.12,2.12,0,0,1,1.13,1,1.49,1.49,0,0,1,0,1.32,1.32,1.32,0,0,1-.54.61,1.61,1.61,0,0,1-.83.25,1.72,1.72,0,0,1,.56.89,1.59,1.59,0,0,1-.08,1,1.7,1.7,0,0,1-1.1,1A2.43,2.43,0,0,1,114.11,33.76Zm.27-.66a1.54,1.54,0,0,0,1.06.1,1.15,1.15,0,0,0,.67-1.58,1.56,1.56,0,0,0-.82-.7,1.6,1.6,0,0,0-1.08-.1,1.13,1.13,0,0,0-.66,1.58A1.55,1.55,0,0,0,114.38,33.1Zm1.19-2.82a1.25,1.25,0,0,0,.88.08,1,1,0,0,0,.58-.54.86.86,0,0,0,0-.78,1.24,1.24,0,0,0-.68-.58,1.33,1.33,0,0,0-.92-.1.9.9,0,0,0-.57.54.93.93,0,0,0,0,.8A1.31,1.31,0,0,0,115.57,30.28Z"/>
      <path class="cls-3" d="M119,35.83a2.06,2.06,0,0,1-1.31-1.49,4,4,0,0,1,.33-2.41A4,4,0,0,1,119.55,30a2.26,2.26,0,0,1,3.29,1.39,4,4,0,0,1-.33,2.41A3.91,3.91,0,0,1,121,35.72,2.07,2.07,0,0,1,119,35.83Zm.28-.68a1.31,1.31,0,0,0,1.33-.16,3.54,3.54,0,0,0,1.08-1.52,3.45,3.45,0,0,0,.33-1.84,1.36,1.36,0,0,0-2.14-.91,4.37,4.37,0,0,0-1.42,3.36A1.3,1.3,0,0,0,119.32,35.15Z"/>
      <path class="cls-3" d="M124,37.91a2.46,2.46,0,0,1-1.22-1,1.88,1.88,0,0,1-.19-1.45l.75.17a1.3,1.3,0,0,0,.13.95,1.62,1.62,0,0,0,.8.67,1.36,1.36,0,0,0,1.08,0,1.39,1.39,0,0,0,.74-.81,1.33,1.33,0,0,0,0-1.1,1.49,1.49,0,0,0-.84-.77,1.58,1.58,0,0,0-1.58.16l-.5-.35,1.79-3,3.09,1.31-.28.67-2.54-1.07-1,1.64a1.94,1.94,0,0,1,.7-.12,1.78,1.78,0,0,1,.7.14,2.15,2.15,0,0,1,1.23,1.15,2,2,0,0,1,0,1.64A2.09,2.09,0,0,1,125.67,38,2.23,2.23,0,0,1,124,37.91Z"/>
    </g>
    <g>
      <path class="cls-3" d="M108.26,44.28A2.36,2.36,0,0,1,107,43.22a1.88,1.88,0,0,1-.14-1.49l.76.19a1.3,1.3,0,0,0,.09,1,1.64,1.64,0,0,0,.81.69,1.47,1.47,0,0,0,1.1.07,1.21,1.21,0,0,0,.73-.72,1.24,1.24,0,0,0,0-1,1.41,1.41,0,0,0-.81-.71,1.24,1.24,0,0,0-.71-.09l-.13-.61,2.6-1-2.82-1.19.29-.67,3.7,1.56-.27.66-2.33.91a2,2,0,0,1,1.24,1,1.84,1.84,0,0,1,0,1.57A1.9,1.9,0,0,1,110,44.41,2.4,2.4,0,0,1,108.26,44.28Z"/>
      <path class="cls-3" d="M112.14,45.83l2-4.86a2.86,2.86,0,0,1-1.65.07l.29-.67a2.87,2.87,0,0,0,1.88-.29l.6.25-2.45,5.8Z"/>
      <path class="cls-3" d="M114.39,45.77l.81.34-.36.86-.81-.34Z"/>
      <path class="cls-3" d="M115.84,47.39a11.55,11.55,0,0,1,4.75-4L117.33,42l.28-.67,4,1.7-.28.68c-2.48,1.39-4.06,2.74-4.76,4Z"/>
      <path class="cls-3" d="M123.61,43.75l-1.14,1.46-.91-.39,1.58-1.27Zm1.23.52-1.14,1.45-.92-.38,1.58-1.27Z"/>
    </g>
  </g>
  <g>
    <g>
      <path class="cls-3" d="M168.11,183.51a2.46,2.46,0,0,1-.47,1.52,2,2,0,0,1-1.27.75l-.13-.77a1.25,1.25,0,0,0,.82-.49,1.56,1.56,0,0,0,.31-1,1.34,1.34,0,0,0-.39-1,1.43,1.43,0,0,0-1-.37,1.4,1.4,0,0,0-1,.39,1.49,1.49,0,0,0-.37,1.08,1.58,1.58,0,0,0,.75,1.39l-.12.59-3.43-.49v-3.36h.73v2.76l1.89.27a1.86,1.86,0,0,1-.38-.6,1.8,1.8,0,0,1-.15-.7,2.21,2.21,0,0,1,.58-1.58,2,2,0,0,1,1.54-.6,2.1,2.1,0,0,1,1.57.6A2.2,2.2,0,0,1,168.11,183.51Z"/>
      <path class="cls-3" d="M168,179.55h-5.28a2.93,2.93,0,0,1,.71,1.49h-.73a2.83,2.83,0,0,0-1-1.62v-.65H168Z"/>
      <path class="cls-3" d="M168.11,175.33a2.07,2.07,0,0,1-.87,1.79,4.72,4.72,0,0,1-4.71,0,2.26,2.26,0,0,1,0-3.57,3.92,3.92,0,0,1,2.35-.63,4,4,0,0,1,2.35.63A2.08,2.08,0,0,1,168.11,175.33Zm-.74,0a1.28,1.28,0,0,0-.67-1.15,3.47,3.47,0,0,0-1.81-.41,3.54,3.54,0,0,0-1.83.41,1.29,1.29,0,0,0-.67,1.15,1.28,1.28,0,0,0,.67,1.17,4.24,4.24,0,0,0,3.64,0A1.26,1.26,0,0,0,167.37,175.33Z"/>
    </g>
    <g>
      <path class="cls-3" d="M180,188.39h-.71l-2-2.36a2.44,2.44,0,0,0-1.73-1.06,1.15,1.15,0,0,0-.85.33,1.26,1.26,0,0,0-.31.88,1.23,1.23,0,0,0,.43,1,1.47,1.47,0,0,0,1.13.27l-.06.8a2,2,0,0,1-1.61-.51,2.34,2.34,0,0,1-.1-3.06,1.74,1.74,0,0,1,1.37-.56,2.17,2.17,0,0,1,1.13.33,5,5,0,0,1,1.16,1.06l1.46,1.71v-3.1H180Z"/>
      <path class="cls-3" d="M180.08,180.84a2.07,2.07,0,0,1-.87,1.79,4.78,4.78,0,0,1-4.71,0,2.27,2.27,0,0,1,0-3.57,4,4,0,0,1,2.35-.63,3.92,3.92,0,0,1,2.35.63A2.07,2.07,0,0,1,180.08,180.84Zm-.74,0a1.26,1.26,0,0,0-.67-1.15,3.39,3.39,0,0,0-1.82-.41,3.43,3.43,0,0,0-1.82.41,1.26,1.26,0,0,0-.67,1.15A1.28,1.28,0,0,0,175,182a4.24,4.24,0,0,0,3.64,0A1.28,1.28,0,0,0,179.34,180.84Z"/>
      <path class="cls-3" d="M179.07,177.45v-.88H180v.88Z"/>
      <path class="cls-3" d="M180,175.15h-5.27a2.91,2.91,0,0,1,.7,1.5h-.73a2.78,2.78,0,0,0-1-1.62v-.65H180Z"/>
      <path class="cls-3" d="M173.63,170.58l1.78.49v1l-1.78-1Zm0,1.33,1.78.49v1l-1.78-.95Z"/>
    </g>
  </g>
  <path class="cls-1" d="M166.09,58.51,71,18.57"/>
  <g>
    <path class="cls-4" d="M154.16,125.6a3.26,3.26,0,0,1-1.32,0,3.94,3.94,0,0,1-1.23-.48"/>
    <path class="cls-4" d="M74.81,69.28a3.64,3.64,0,0,0-2.24-.43"/>
    <path class="cls-4" d="M67.62,69.7a1.08,1.08,0,0,0-.35.1.37.37,0,0,0-.24.26"/>
    <path class="cls-4" d="M67.26,71.28c-.15-.1-.4-.29-.35-.5"/>
    <line class="cls-4" x1="159.74" y1="123.06" x2="159.53" y2="123.82"/>
    <path class="cls-4" d="M159.74,123.06a.54.54,0,0,0-.15-.47,2.18,2.18,0,0,0-.4-.34"/>
    <path class="cls-4" d="M159.53,123.82a.64.64,0,0,1-.46.37"/>
    <path class="cls-4" d="M159.27,123.41a.59.59,0,0,0,.47-.35"/>
    <path class="cls-4" d="M67,70.06a.67.67,0,0,0,.35.49"/>
    <line class="cls-4" x1="67.38" y1="70.55" x2="151.82" y2="124.35"/>
    <line class="cls-4" x1="66.91" y1="70.78" x2="67.03" y2="70.06"/>
    <line class="cls-4" x1="108.86" y1="102.93" x2="104.84" y2="100.33"/>
    <line class="cls-4" x1="164.48" y1="128.85" x2="158.35" y2="130.67"/>
    <line class="cls-4" x1="115.96" y1="192.14" x2="109.86" y2="194.42"/>
    <path class="cls-4" d="M158.35,130.67a4.41,4.41,0,0,1-2,0,5.47,5.47,0,0,1-1.85-.71"/>
    <path class="cls-4" d="M104.84,100.33a.26.26,0,0,1-.19-.2"/>
    <line class="cls-4" x1="69.04" y1="66.93" x2="62.86" y2="67.96"/>
    <path class="cls-4" d="M164.91,127.31a1,1,0,0,0,.69-.55"/>
    <path class="cls-4" d="M105.12,192.86a.21.21,0,0,1-.18-.18"/>
    <line class="cls-4" x1="164.74" y1="125.53" x2="72.37" y2="67.56"/>
    <path class="cls-4" d="M109.86,194.42a1.53,1.53,0,0,1-.9,0"/>
    <path class="cls-4" d="M72.37,67.56A5.57,5.57,0,0,0,69,66.93"/>
    <line class="cls-4" x1="104.94" y1="192.68" x2="104.65" y2="100.13"/>
    <path class="cls-4" d="M62.86,68a1.68,1.68,0,0,0-.54.16.55.55,0,0,0-.36.38"/>
    <path class="cls-4" d="M62.2,70.67c-.21-.13-.58-.41-.52-.74"/>
    <line class="cls-4" x1="165.6" y1="126.76" x2="165.17" y2="128.3"/>
    <path class="cls-4" d="M165.6,126.76a.85.85,0,0,0-.24-.71,2.6,2.6,0,0,0-.62-.52"/>
    <path class="cls-4" d="M165.2,128.3a1,1,0,0,1-.69.55"/>
    <path class="cls-4" d="M62,68.5c-.05.32.31.6.52.74"/>
    <line class="cls-4" x1="158.78" y1="129.12" x2="164.91" y2="127.31"/>
    <path class="cls-4" d="M65.65,74.39l-1-2.2"/>
    <path class="cls-4" d="M152,130.44h.16"/>
    <path class="cls-4" d="M66.24,75.11a1.81,1.81,0,0,1-.59-.72"/>
    <line class="cls-4" x1="154.26" y1="129.78" x2="152.13" y2="130.41"/>
    <line class="cls-4" x1="153.96" y1="129.6" x2="152.32" y2="130.27"/>
    <path class="cls-4" d="M154.94,128.4a5.57,5.57,0,0,0,1.85.72,4.46,4.46,0,0,0,2,0"/>
    <path class="cls-4" d="M152.32,130.27l-.19.08h-.08"/>
    <path class="cls-4" d="M109.61,103.11a2.42,2.42,0,0,1-.75-.18"/>
    <line class="cls-4" x1="116.44" y1="107.51" x2="116.15" y2="191.96"/>
    <line class="cls-4" x1="151.61" y1="125.12" x2="67.26" y2="71.28"/>
    <line class="cls-4" x1="154.52" y1="129.96" x2="62.23" y2="70.67"/>
    <line class="cls-4" x1="61.71" y1="69.93" x2="61.96" y2="68.5"/>
    <line class="cls-4" x1="151.97" y1="130.44" x2="66.24" y2="75.11"/>
    <line class="cls-4" x1="105.12" y1="192.86" x2="108.93" y2="194.41"/>
    <line class="cls-4" x1="159.19" y1="122.25" x2="74.81" y2="69.28"/>
    <line class="cls-4" x1="154.36" y1="124.82" x2="159.27" y2="123.41"/>
    <path class="cls-4" d="M151.82,124.39a3.61,3.61,0,0,0,1.23.47,2.9,2.9,0,0,0,1.31,0"/>
    <line class="cls-4" x1="72.57" y1="68.85" x2="67.62" y2="69.7"/>
    <line class="cls-4" x1="159.07" y1="124.19" x2="154.16" y2="125.6"/>
    <line class="cls-4" x1="62.48" y1="69.24" x2="154.94" y2="128.4"/>
    <path class="cls-4" d="M116.15,192c0,.09-.12.16-.19.18"/>
    <path class="cls-4" d="M104.65,100.13a.2.2,0,0,1,.12-.15"/>
    <path class="cls-4" d="M104.65,100.13a.2.2,0,0,1,.12-.15"/>
    <path class="cls-4" d="M116.15,192c0,.09-.12.16-.19.18"/>
    <line class="cls-4" x1="151.97" y1="130.44" x2="66.24" y2="75.11"/>
    <line class="cls-4" x1="61.71" y1="69.93" x2="61.96" y2="68.5"/>
    <line class="cls-4" x1="154.52" y1="129.96" x2="62.23" y2="70.67"/>
    <line class="cls-4" x1="116.44" y1="107.51" x2="116.15" y2="191.96"/>
    <line class="cls-4" x1="154.26" y1="129.78" x2="152.13" y2="130.41"/>
    <path class="cls-4" d="M66.24,75.11a1.81,1.81,0,0,1-.59-.72"/>
    <path class="cls-4" d="M152,130.44h.16"/>
    <path class="cls-4" d="M65.65,74.39l-1-2.2"/>
    <path class="cls-4" d="M165.2,128.3a1,1,0,0,1-.69.55"/>
    <path class="cls-4" d="M165.6,126.76a.85.85,0,0,0-.24-.71,2.6,2.6,0,0,0-.62-.52"/>
    <line class="cls-4" x1="165.6" y1="126.76" x2="165.17" y2="128.3"/>
    <path class="cls-4" d="M62.86,68a1.68,1.68,0,0,0-.54.16.55.55,0,0,0-.36.38"/>
    <path class="cls-4" d="M72.37,67.56A5.57,5.57,0,0,0,69,66.93"/>
    <path class="cls-4" d="M109.86,194.42a1.53,1.53,0,0,1-.9,0"/>
    <line class="cls-4" x1="164.74" y1="125.53" x2="72.37" y2="67.56"/>
    <path class="cls-4" d="M105.12,192.86a.21.21,0,0,1-.18-.18"/>
    <line class="cls-4" x1="69.04" y1="66.93" x2="62.86" y2="67.96"/>
    <path class="cls-4" d="M158.35,130.67a4.41,4.41,0,0,1-2,0,5.47,5.47,0,0,1-1.85-.71"/>
    <line class="cls-4" x1="115.96" y1="192.14" x2="109.86" y2="194.42"/>
    <line class="cls-4" x1="164.48" y1="128.85" x2="158.35" y2="130.67"/>
    <line class="cls-4" x1="105.12" y1="192.86" x2="108.93" y2="194.41"/>
    <line class="cls-5" x1="109.38" y1="194.44" x2="109.38" y2="103.11"/>
  </g>
</svg>
