<svg id="Vrstva_1" data-name="Vrstva 1" xmlns="http://www.w3.org/2000/svg" viewBox="0 0 283.46 226.77">
  <defs>
    <style>
      .cls-1, .cls-3 {
        fill: none;
        stroke-linejoin: round;
      }

      .cls-1, .cls-4, .cls-5 {
        stroke: #ffffff;
      }

      .cls-1, .cls-3, .cls-4 {
        stroke-linecap: round;
      }

      .cls-1, .cls-2, .cls-3, .cls-4, .cls-5 {
        stroke-width: 0.25px;
      }

      .cls-2 {
        fill: #010202;
        stroke: #010202;
      }

      .cls-2, .cls-4, .cls-5 {
        stroke-miterlimit: 10;
      }

      .cls-3 {
        stroke: #1d1d1b;
      }

      .cls-4, .cls-5, .cls-7 {
        fill: #1d1d1b;
      }

      .cls-6 {
        isolation: isolate;
      }
    </style>
  </defs>
  <line class="cls-1" x1="65.95" y1="77.24" x2="65.95" y2="33.44"/>
  <line class="cls-1" x1="239.82" y1="50.87" x2="239.82" y2="14.44"/>
  <line class="cls-1" x1="65.97" y1="37.54" x2="239.69" y2="18.72"/>
  <line class="cls-1" x1="20.98" y1="120.05" x2="59.91" y2="135.48"/>
  <path class="cls-1" d="M25.48,68.14l-.37,53.43"/>
  <path class="cls-1" d="M62.83,79.6,21.26,66.72"/>
  <polyline class="cls-2" points="25.44 68 24.07 73.52 26.82 73.52 25.44 68"/>
  <polyline class="cls-2" points="25.14 121.71 26.53 116.16 23.75 116.16 25.14 121.71"/>
  <polyline class="cls-2" points="66.03 37.56 71.67 38.51 71.45 35.74 66.03 37.56"/>
  <polyline class="cls-2" points="239.88 18.7 234.22 17.88 234.5 20.64 239.88 18.7"/>
  <g>
    <line class="cls-3" x1="93.72" y1="95.14" x2="99.99" y2="151.66"/>
    <line class="cls-3" x1="93.72" y1="95.14" x2="93.93" y2="94.94"/>
    <line class="cls-3" x1="66.23" y1="86.34" x2="93.72" y2="95.14"/>
    <path class="cls-3" d="M95.09,94.19s0,0,0,.07,0,0,0,.06a.09.09,0,0,1,0,.06s0,0,0,0h0"/>
    <line class="cls-3" x1="95" y1="89.8" x2="95.09" y2="94.19"/>
    <line class="cls-3" x1="85.89" y1="86.7" x2="94.84" y2="89.47"/>
    <path class="cls-3" d="M84.7,90.89V91s0,0,0,.06l0,.06h-.06"/>
    <line class="cls-3" x1="84.61" y1="86.57" x2="84.7" y2="90.89"/>
    <path class="cls-3" d="M84.45,86.25h0l0,0v0a.22.22,0,0,1,0,.08l0,.09s0,.06,0,.09"/>
    <line class="cls-3" x1="84.45" y1="86.25" x2="260.04" y2="57.46"/>
    <line class="cls-3" x1="75.81" y1="83.57" x2="84.45" y2="86.25"/>
    <path class="cls-3" d="M74.68,87.7s0,0,0,.07,0,0,0,.06l0,.06h0l0,0"/>
    <line class="cls-3" x1="94.84" y1="89.47" x2="271.37" y2="59.72"/>
    <path class="cls-3" d="M94.84,89.47h0l0,0,0,0a.59.59,0,0,1,0,.08.32.32,0,0,1,0,.09.31.31,0,0,1,0,.1"/>
    <line class="cls-3" x1="74.57" y1="83.45" x2="74.68" y2="87.7"/>
    <line class="cls-3" x1="74.42" y1="83.14" x2="249.03" y2="55.27"/>
    <line class="cls-3" x1="66.08" y1="80.56" x2="74.42" y2="83.14"/>
    <path class="cls-3" d="M74.42,83.14h0s0,0,0,0h0v0a.22.22,0,0,1,.05.08.24.24,0,0,1,0,.08.28.28,0,0,1,0,.09"/>
    <line class="cls-3" x1="267.3" y1="64.58" x2="271.17" y2="112.69"/>
    <path class="cls-3" d="M70.5,80.8h0l.07,0h1.32l.15,0h.22l.07,0,.07,0,.06,0h.06l0,0,0,0h.08s0,0,0,0v0"/>
    <path class="cls-3" d="M72.56,80.34l.11,0s0,0,0,0a.05.05,0,0,1,0,0"/>
    <path class="cls-3" d="M70.5,80.8l-.11,0,0,0s0,0,0,0"/>
    <line class="cls-3" x1="72.74" y1="80.47" x2="72.74" y2="80.6"/>
    <line class="cls-3" x1="70.31" y1="80.67" x2="70.31" y2="80.54"/>
    <path class="cls-3" d="M72.74,80.47v0s0,0,0,0h-.08l0,0,0,0h0l-.06,0-.07,0-.08,0h-.21l-.15,0H70.69l-.07,0h-.07l-.06,0"/>
    <line class="cls-3" x1="238.54" y1="54.25" x2="238.54" y2="54.14"/>
    <path class="cls-3" d="M238.54,54.25v0h0l0,0h0l.07,0,.16,0"/>
    <path class="cls-3" d="M238.54,54.14v0h.15l0,0h1.57"/>
    <line class="cls-3" x1="240.59" y1="54.17" x2="240.59" y2="54.28"/>
    <path class="cls-3" d="M240.59,54.28h-1.44l-.11,0h-.22"/>
    <path class="cls-3" d="M238.82,54.27l-.16,0-.07,0,0,0h0v0"/>
    <line class="cls-3" x1="260.41" y1="58.63" x2="260.41" y2="58.52"/>
    <path class="cls-3" d="M260.41,58.63a0,0,0,0,0,0,0h0l0,0,.08,0,.18.05"/>
    <path class="cls-3" d="M260.41,58.52v0h.88l.46,0h.46"/>
    <line class="cls-3" x1="262.52" y1="58.56" x2="262.52" y2="58.67"/>
    <path class="cls-3" d="M262.52,58.67v0h-.88l-.46,0h-.46"/>
    <path class="cls-3" d="M260.72,58.66l-.17,0-.09,0h0v0"/>
    <line class="cls-3" x1="265.44" y1="59.64" x2="265.45" y2="59.53"/>
    <path class="cls-3" d="M265.44,59.64v0h0l0,0,.09,0,.17,0"/>
    <path class="cls-3" d="M265.45,59.53v0h.88a3.7,3.7,0,0,1,.47,0h.46"/>
    <line class="cls-3" x1="267.58" y1="59.57" x2="267.58" y2="59.69"/>
    <path class="cls-3" d="M267.58,59.69h-.2l-.05,0H266.1l-.11,0h-.23"/>
    <path class="cls-3" d="M265.77,59.67l-.18,0-.09,0h0v0h0v0"/>
    <line class="cls-3" x1="249.31" y1="56.41" x2="249.31" y2="56.29"/>
    <path class="cls-3" d="M249.31,56.41v0h0v0h0l.08,0,.17,0"/>
    <path class="cls-3" d="M249.31,56.29h.87l.46,0h.45"/>
    <line class="cls-3" x1="251.39" y1="56.33" x2="251.39" y2="56.44"/>
    <path class="cls-3" d="M251.39,56.44v0h-.08l0,0h-.76a3.53,3.53,0,0,1-.46,0h-.45"/>
    <path class="cls-3" d="M249.61,56.43l-.17,0-.08,0,0,0h0s0,0,0,0"/>
    <line class="cls-3" x1="268.05" y1="84.32" x2="266.7" y2="67.5"/>
    <line class="cls-3" x1="271.17" y1="112.69" x2="271.43" y2="112.76"/>
    <path class="cls-3" d="M275,111.94l.06,0,0,0h.08v0"/>
    <line class="cls-3" x1="275.04" y1="111.94" x2="271.43" y2="112.76"/>
    <line class="cls-3" x1="271.41" y1="63.95" x2="275.23" y2="111.82"/>
    <line class="cls-3" x1="269.57" y1="92.69" x2="268.05" y2="84.32"/>
    <line class="cls-3" x1="242.35" y1="78.35" x2="242.59" y2="78.3"/>
    <line class="cls-3" x1="242.59" y1="78.3" x2="243.73" y2="68.66"/>
    <line class="cls-3" x1="231.04" y1="101.91" x2="231.27" y2="101.97"/>
    <line class="cls-3" x1="237.22" y1="101.64" x2="242.59" y2="78.3"/>
    <line class="cls-3" x1="236.98" y1="101.69" x2="237.22" y2="101.64"/>
    <line class="cls-3" x1="236.98" y1="101.69" x2="235.32" y2="101.24"/>
    <path class="cls-3" d="M234.84,101.23h.48"/>
    <line class="cls-3" x1="234.84" y1="101.23" x2="231.27" y2="101.97"/>
    <line class="cls-3" x1="242.35" y1="78.35" x2="236.98" y2="101.69"/>
    <line class="cls-3" x1="231.27" y1="101.97" x2="234.92" y2="70.19"/>
    <line class="cls-3" x1="97.72" y1="150.87" x2="92.13" y2="118.65"/>
    <line class="cls-3" x1="105.69" y1="150.45" x2="100.58" y2="151.61"/>
    <path class="cls-3" d="M99.41,151.57h1l.07,0h.07"/>
    <line class="cls-3" x1="99.41" y1="151.57" x2="97.72" y2="150.87"/>
    <path class="cls-3" d="M261.61,57.78h0"/>
    <line class="cls-3" x1="261.65" y1="57.78" x2="271.42" y2="59.72"/>
    <path class="cls-3" d="M261.65,57.78h0"/>
    <line class="cls-3" x1="94.84" y1="94.41" x2="85.9" y2="91.56"/>
    <line class="cls-3" x1="271.61" y1="59.96" x2="271.53" y2="63.66"/>
    <path class="cls-3" d="M85.62,87a.31.31,0,0,1,0-.1l0,0,0,0,0,0h0l0,0,0,0,0,0"/>
    <path class="cls-3" d="M85.9,91.56h0l0,0-.06,0,0-.08a.25.25,0,0,1,0-.08"/>
    <path class="cls-3" d="M271.42,59.72l.07,0,0,0h0v0l0,0s0,0,0,0v0s0,0,0,0"/>
    <path class="cls-3" d="M271.53,63.66v0h0s0,0,0,0v0h0l0,0,0,0h0a.05.05,0,0,0,0,0h0"/>
    <line class="cls-3" x1="243.49" y1="68.71" x2="242.35" y2="78.35"/>
    <line class="cls-3" x1="234.68" y1="70.23" x2="231.04" y2="101.91"/>
    <line class="cls-3" x1="100.21" y1="93.51" x2="105.69" y2="150.45"/>
    <path class="cls-3" d="M66.23,86.34h0"/>
    <path class="cls-3" d="M93.72,95.14h0"/>
    <line class="cls-3" x1="254.2" y1="57.39" x2="254.2" y2="57.27"/>
    <path class="cls-3" d="M254.2,57.39v0h.05l.09,0,.16,0"/>
    <path class="cls-3" d="M254.2,57.27h1.46l.11,0H256"/>
    <line class="cls-3" x1="256.3" y1="57.31" x2="256.3" y2="57.43"/>
    <path class="cls-3" d="M256.3,57.43h-1.46l-.11,0h-.23"/>
    <path class="cls-3" d="M254.51,57.41l-.17,0-.08,0,0,0h0s0,0,0,0"/>
    <line class="cls-3" x1="270.32" y1="111.51" x2="271.06" y2="111.34"/>
    <line class="cls-3" x1="271.14" y1="112.68" x2="270.35" y2="112.47"/>
    <line class="cls-3" x1="270.36" y1="112.13" x2="271.14" y2="112.34"/>
    <path class="cls-3" d="M270.32,111.51l-.15,0-.14,0-.13.07a.17.17,0,0,0-.08.13"/>
    <path class="cls-3" d="M270.35,112.47l-.16,0-.15-.06a.42.42,0,0,1-.14-.09s0,0,0,0,0,0,0,0h0v0a.08.08,0,0,1,0,0"/>
    <line class="cls-3" x1="269.81" y1="112.14" x2="269.82" y2="111.8"/>
    <path class="cls-3" d="M269.82,111.8a0,0,0,0,0,0,0v0l0,0,0,0,0,0a.6.6,0,0,0,.15.09l.15.06.16,0"/>
    <line class="cls-3" x1="243.28" y1="55.2" x2="243.29" y2="55.09"/>
    <path class="cls-3" d="M243.28,55.2v0h.05l.07,0,.16,0"/>
    <path class="cls-3" d="M243.29,55.09v0h.15l0,0h1.58"/>
    <line class="cls-3" x1="245.35" y1="55.12" x2="245.35" y2="55.23"/>
    <path class="cls-3" d="M245.35,55.23v0h-.11l0,0h-.27l-.1,0h-1.26"/>
    <path class="cls-3" d="M243.58,55.22l-.16,0-.08,0h0v0h0v0"/>
    <path class="cls-3" d="M80.32,83.82l.06,0h.06l.08,0h1.26l.16,0,.14,0,.07,0h.08l.07,0,.06,0,.06,0,0,0a.05.05,0,0,0,0,0h.08s0,0,0,0,0,0,0,0"/>
    <path class="cls-3" d="M82.4,83.35l.11.05,0,0a.09.09,0,0,1,0,.06"/>
    <line class="cls-3" x1="82.59" y1="83.49" x2="82.6" y2="83.62"/>
    <line class="cls-3" x1="80.12" y1="83.68" x2="80.12" y2="83.55"/>
    <path class="cls-3" d="M80.12,83.68s0,0,0,.06l0,0,.12,0"/>
    <path class="cls-3" d="M82.59,83.49v0s0,0,0,0H82.5l0,0,0,0,0,0-.06,0h-.07l-.08,0h-.08l-.13,0-.16,0H80.6l-.08,0h-.08l-.07,0h-.05"/>
    <path class="cls-3" d="M74.82,82.13h.06l.06,0H75l.09,0h1l.15,0,.15,0h.21l.08,0h.07l.06,0,.05,0,0,0,0,0h.08s0,0,0,0v0"/>
    <path class="cls-3" d="M76.89,81.67l.11,0,0,0s0,0,0,.06"/>
    <path class="cls-3" d="M74.82,82.13l-.11,0,0,0s0,0,0,0"/>
    <line class="cls-3" x1="77.08" y1="81.8" x2="77.08" y2="81.93"/>
    <line class="cls-3" x1="74.63" y1="82" x2="74.63" y2="81.86"/>
    <path class="cls-3" d="M77.08,81.8a0,0,0,0,1,0,0,0,0,0,0,1,0,0H77l0,0,0,0h-.05l-.07,0-.07,0-.07,0h-.22l-.15,0H74.94l-.07,0-.05,0"/>
    <line class="cls-3" x1="90.32" y1="98.48" x2="90.32" y2="98.48"/>
    <line class="cls-3" x1="90.18" y1="98.61" x2="90.18" y2="98.61"/>
    <line class="cls-3" x1="271.14" y1="112.34" x2="271.14" y2="112.68"/>
    <path class="cls-3" d="M90.49,87l.06,0h.07l.08,0h1.13L92,87l.15,0h.22l.08,0,.07,0,.06,0,.06,0h0l0,0h.08s0,0,0,0,0,0,0,0"/>
    <path class="cls-3" d="M92.59,86.47l.12,0a.1.1,0,0,1,.05,0,.05.05,0,0,1,0,0"/>
    <line class="cls-3" x1="92.79" y1="86.61" x2="92.8" y2="86.75"/>
    <line class="cls-3" x1="90.28" y1="86.81" x2="90.28" y2="86.67"/>
    <path class="cls-3" d="M90.28,86.81a.09.09,0,0,0,0,0l.06,0,.12,0"/>
    <path class="cls-3" d="M92.79,86.61v0s0,0,0,0H92.7l0,0,0,0,0,0-.06,0-.08,0h-.07l-.08,0h-.14l-.16,0h-.89l-.16,0h-.14l-.09,0h-.07l-.07,0h-.06"/>
    <path class="cls-3" d="M95.13,88.38l.06,0h.07l.08,0h1.14l.14,0,.16,0H97l.08,0,.07,0,.06,0,.06,0,0,0a.05.05,0,0,0,0,0h.08v0"/>
    <path class="cls-3" d="M97.23,87.89l.13,0a.1.1,0,0,1,0,0,.06.06,0,0,1,0,.06"/>
    <path class="cls-3" d="M95.13,88.38l-.13,0a.1.1,0,0,1,0,0,.06.06,0,0,1,0-.06"/>
    <line class="cls-3" x1="97.44" y1="88.04" x2="97.45" y2="88.18"/>
    <line class="cls-3" x1="94.92" y1="88.23" x2="94.91" y2="88.1"/>
    <path class="cls-3" d="M97.44,88v0h0l0,0h0l0,0,0,0h-.05l-.06,0h-.08l-.07,0-.08,0h-.14l-.16,0H95.26l-.07,0-.06,0"/>
    <path class="cls-3" d="M239.83,53.44h0"/>
    <line class="cls-3" x1="66.05" y1="80.56" x2="239.79" y2="53.44"/>
    <line class="cls-3" x1="65.92" y1="85.02" x2="65.82" y2="80.83"/>
    <line class="cls-3" x1="239.87" y1="53.44" x2="249.07" y2="55.27"/>
    <path class="cls-3" d="M239.87,53.44h0"/>
    <line class="cls-3" x1="249.26" y1="55.5" x2="249.25" y2="55.78"/>
    <path class="cls-3" d="M65.82,80.83a.34.34,0,0,1,0-.1v0l0,0,0,0h0l0,0h.1"/>
    <path class="cls-3" d="M249.07,55.27l.08,0,0,0,0,0a.21.21,0,0,1,0,.07.06.06,0,0,1,0,0v0"/>
    <path class="cls-3" d="M74.57,87.93h-.13"/>
    <path class="cls-3" d="M66.11,85.26h0l0,0,0,0,0,0a.25.25,0,0,1,0-.07s0-.06,0-.08"/>
    <path class="cls-3" d="M250.56,55.58h0"/>
    <line class="cls-3" x1="250.6" y1="55.58" x2="260.08" y2="57.46"/>
    <path class="cls-3" d="M250.6,55.58h0"/>
    <line class="cls-3" x1="84.46" y1="91.1" x2="75.83" y2="88.36"/>
    <line class="cls-3" x1="260.27" y1="57.7" x2="260.26" y2="57.99"/>
    <path class="cls-3" d="M75.54,83.85a.36.36,0,0,1,0-.1.08.08,0,0,1,0,0l0,0v0h0l0,0h.1"/>
    <path class="cls-3" d="M75.83,88.36l0,0,0,0,0,0,0,0a.25.25,0,0,1,0-.07.31.31,0,0,1,0-.08"/>
    <path class="cls-3" d="M260.08,57.46l.07,0,0,0h0v0l0,0s0,0,0,0,0,0,0,0v0s0,0,0,0"/>
    <path class="cls-3" d="M84.59,91.11h-.06l-.07,0"/>
    <line class="cls-3" x1="68.7" y1="110.18" x2="69.04" y2="110.12"/>
    <line class="cls-3" x1="69.04" y1="110.12" x2="70.01" y2="91.99"/>
    <path class="cls-3" d="M66,86a1.42,1.42,0,0,1-.08-.18s0,0,0,0v0h0a.34.34,0,0,1,0-.1"/>
    <line class="cls-3" x1="64.91" y1="137.33" x2="65.25" y2="137.26"/>
    <line class="cls-3" x1="64.91" y1="137.33" x2="63.41" y2="136.71"/>
    <line class="cls-3" x1="68.83" y1="135.47" x2="65.4" y2="136.17"/>
    <path class="cls-3" d="M63.29,136.6s0,0,0,0l0,0,0,0h0"/>
    <line class="cls-3" x1="68.7" y1="110.18" x2="64.91" y2="137.33"/>
    <path class="cls-3" d="M65.92,85.65a.5.5,0,0,1,0-.12l0,0,0,0,0-.05,0,0h0a.24.24,0,0,1,.11-.06"/>
    <path class="cls-3" d="M84.8,85.2h0l.07,0H85l.09,0h.14l.15,0h.89l.16,0h.13l.08,0h.08l.07,0,.06,0,.05,0,0,0a.05.05,0,0,0,0,0h.08s0,0,0,0v0"/>
    <path class="cls-3" d="M86.88,84.72l.12,0a.1.1,0,0,1,0,0,.05.05,0,0,1,0,0"/>
    <path class="cls-3" d="M84.8,85.2l-.12,0-.06,0a.08.08,0,0,1,0,0"/>
    <line class="cls-3" x1="87.08" y1="84.86" x2="87.08" y2="85"/>
    <line class="cls-3" x1="84.6" y1="85.06" x2="84.59" y2="84.92"/>
    <path class="cls-3" d="M87.08,84.86v0a0,0,0,0,1,0,0v0H87l0,0,0,0h-.05l-.07,0-.07,0-.07,0h-.15l-.07,0h-.15l-.15,0h-1.2l-.07,0-.06,0"/>
    <line class="cls-3" x1="75.64" y1="87.75" x2="74.57" y2="87.93"/>
    <path class="cls-3" d="M66.21,85.29l-.07,0,0,0,0,0v0h0a.19.19,0,0,0,0,.07.89.89,0,0,0,0,.14.22.22,0,0,0,0,.08h0v.06c0,.09,0,.19.08.28s.09.17.14.26"/>
    <line class="cls-3" x1="69.67" y1="91.88" x2="68.7" y2="110.18"/>
    <line class="cls-3" x1="71.15" y1="92.36" x2="68.83" y2="135.47"/>
    <line class="cls-3" x1="85.7" y1="90.93" x2="84.59" y2="91.11"/>
    <path class="cls-3" d="M66.23,86.34,66,86"/>
    <path class="cls-3" d="M70.49,80.66h-.17v0h0v0h0v0h0l0,0,0,0h0l0,0h.08l0,0h.05l.07,0h.08l.08,0H71l.16,0h1.22l.08,0h.14"/>
    <path class="cls-3" d="M238.82,54.27h.53a4.86,4.86,0,0,0,.54,0h.7v0h-.08l0,0h-.18"/>
    <path class="cls-3" d="M260.72,58.66h.55a5,5,0,0,0,.55,0h.28l.08,0h.34a0,0,0,0,0,0,0h-.07l0,0h-.13l-.08,0"/>
    <path class="cls-3" d="M267.26,59.42l.08,0h.16l0,0h.05a0,0,0,0,1,0,0h-.2l-.07,0h-1.12l-.14,0H266l-.07,0h-.12"/>
    <path class="cls-3" d="M249.61,56.43H251l.07,0h.28v0h0l0,0h-.16l-.08,0"/>
    <line class="cls-3" x1="271.43" y1="112.76" x2="267.56" y2="64.54"/>
    <path class="cls-3" d="M271.41,64a0,0,0,0,0,0,0h-.2"/>
    <line class="cls-3" x1="92.13" y1="118.65" x2="90.18" y2="98.61"/>
    <line class="cls-3" x1="85.85" y1="86.69" x2="261.57" y2="57.78"/>
    <line class="cls-3" x1="85.71" y1="91.31" x2="85.62" y2="86.98"/>
    <line class="cls-3" x1="271.33" y1="63.89" x2="94.98" y2="94.42"/>
    <path class="cls-3" d="M95,94.42h-.14"/>
    <line class="cls-3" x1="69.67" y1="91.88" x2="90.18" y2="98.61"/>
    <path class="cls-3" d="M256,57.17l.08,0h.16l0,0h.05v0h-.22l-.06,0h-.42a5,5,0,0,1-.55,0h-.48l-.06,0"/>
    <line class="cls-3" x1="271.14" y1="112.68" x2="271.17" y2="112.67"/>
    <path class="cls-3" d="M243.58,55.22h1.77v0h-.11l0,0h-.15"/>
    <path class="cls-3" d="M82.4,83.35h-.14l-.09,0H80.93l-.15,0h-.09l-.08,0h-.08l-.07,0H80.4l0,0h0l0,0,0,0h0l0,0,0,0h0v0h0v0h0v0h.07l0,0h0l.06,0"/>
    <path class="cls-3" d="M76.89,81.67h-.07l-.07,0h-.08l-.1,0h-1l-.16,0-.16,0h-.16l-.08,0-.07,0h-.1l0,0h0l0,0h0l0,0,0,0h0v0h0v0h0l0,0h.16"/>
    <path class="cls-3" d="M92.59,86.47h-.07l-.08,0h-.08l-.1,0H92.1l-.17,0c-.22,0-.45,0-.66,0l-.18,0-.15,0h-.17l-.08,0-.08,0h0l0,0-.05,0h0l0,0,0,0h0l0,0v0h0a.05.05,0,0,0,0,.06h0v0h.08l0,0,.06,0"/>
    <path class="cls-3" d="M97.23,87.89h-.07l-.07,0H97l-.1,0h-.16l-.17,0c-.22,0-.45,0-.67,0l-.17,0-.16,0h-.25l-.08,0,0,0h0l0,0,0,0h0l0,0s0,0,0,0l0,0a.07.07,0,0,0,0,.11h0v0h.1l.06,0"/>
    <line class="cls-3" x1="74.44" y1="87.92" x2="66.11" y2="85.26"/>
    <line class="cls-3" x1="75.78" y1="83.57" x2="250.52" y2="55.57"/>
    <line class="cls-3" x1="75.64" y1="88.11" x2="75.54" y2="83.85"/>
    <line class="cls-3" x1="65.25" y1="137.26" x2="69.04" y2="110.12"/>
    <line class="cls-3" x1="63.29" y1="136.6" x2="65.92" y2="85.65"/>
    <line class="cls-3" x1="259.37" y1="65.96" x2="266.7" y2="67.5"/>
    <path class="cls-3" d="M84.79,85.06l-.06,0h-.1l0,0h0a0,0,0,0,1,0,0v0h0l0,0,0,0h0l0,0,0,0h0l0,0h0l.06,0H85l.08,0h.08l.09,0,.15,0h.17a4.87,4.87,0,0,1,.66,0h.42l.09,0,.08,0h.06"/>
    <path class="cls-3" d="M95.05,94.4l-.07,0-.08,0h-.08l-.07,0-.08,0-.07,0h0l0,0-.08,0a1.43,1.43,0,0,0-.27.15l-.07,0-.06,0a.18.18,0,0,0-.07,0l0,0,0,0"/>
    <line class="cls-3" x1="259.37" y1="65.96" x2="266.7" y2="67.5"/>
    <line class="cls-3" x1="63.29" y1="136.6" x2="65.92" y2="85.65"/>
    <line class="cls-3" x1="65.25" y1="137.26" x2="69.04" y2="110.12"/>
    <line class="cls-3" x1="271.14" y1="112.68" x2="271.17" y2="112.67"/>
    <line class="cls-3" x1="271.33" y1="63.89" x2="94.98" y2="94.42"/>
    <line class="cls-3" x1="92.13" y1="118.65" x2="90.18" y2="98.61"/>
    <path class="cls-3" d="M271.41,64a0,0,0,0,0,0,0h-.2"/>
    <line class="cls-3" x1="71.15" y1="92.36" x2="68.83" y2="135.47"/>
    <path class="cls-3" d="M65.92,85.65a.5.5,0,0,1,0-.12l0,0,0,0,0-.05,0,0h0a.24.24,0,0,1,.11-.06"/>
    <path class="cls-3" d="M63.29,136.6s0,0,0,0l0,0,0,0h0"/>
    <line class="cls-3" x1="68.83" y1="135.47" x2="65.4" y2="136.17"/>
    <line class="cls-3" x1="64.91" y1="137.33" x2="63.41" y2="136.71"/>
    <line class="cls-3" x1="64.91" y1="137.33" x2="65.25" y2="137.26"/>
    <path class="cls-3" d="M260.08,57.46l.07,0,0,0h0v0l0,0s0,0,0,0,0,0,0,0v0s0,0,0,0"/>
    <line class="cls-3" x1="260.27" y1="57.7" x2="260.26" y2="57.99"/>
    <path class="cls-3" d="M250.6,55.58h0"/>
    <line class="cls-3" x1="250.6" y1="55.58" x2="260.08" y2="57.46"/>
    <path class="cls-3" d="M250.56,55.58h0"/>
    <path class="cls-3" d="M66.11,85.26h0l0,0,0,0,0,0a.25.25,0,0,1,0-.07s0-.06,0-.08"/>
    <path class="cls-3" d="M249.07,55.27l.08,0,0,0,0,0a.21.21,0,0,1,0,.07.06.06,0,0,1,0,0v0"/>
    <path class="cls-3" d="M65.82,80.83a.34.34,0,0,1,0-.1v0l0,0,0,0h0l0,0h.1"/>
    <line class="cls-3" x1="249.26" y1="55.5" x2="249.25" y2="55.78"/>
    <path class="cls-3" d="M239.87,53.44h0"/>
    <line class="cls-3" x1="239.87" y1="53.44" x2="249.07" y2="55.27"/>
    <line class="cls-3" x1="65.92" y1="85.02" x2="65.82" y2="80.83"/>
    <line class="cls-3" x1="66.05" y1="80.56" x2="239.79" y2="53.44"/>
    <path class="cls-3" d="M239.83,53.44h0"/>
    <line class="cls-3" x1="90.18" y1="98.61" x2="90.18" y2="98.61"/>
    <line class="cls-3" x1="90.32" y1="98.48" x2="90.32" y2="98.48"/>
    <line class="cls-3" x1="269.81" y1="112.14" x2="269.82" y2="111.8"/>
    <path class="cls-3" d="M270.35,112.47l-.16,0-.15-.06a.42.42,0,0,1-.14-.09s0,0,0,0,0,0,0,0h0v0a.08.08,0,0,1,0,0"/>
    <path class="cls-3" d="M270.32,111.51l-.15,0-.14,0-.13.07a.17.17,0,0,0-.08.13"/>
    <line class="cls-3" x1="271.14" y1="112.68" x2="270.35" y2="112.47"/>
    <line class="cls-3" x1="270.32" y1="111.51" x2="271.06" y2="111.34"/>
    <line class="cls-3" x1="100.21" y1="93.51" x2="105.69" y2="150.45"/>
    <line class="cls-3" x1="234.68" y1="70.23" x2="231.04" y2="101.91"/>
    <path class="cls-3" d="M271.53,63.66v0h0s0,0,0,0v0h0l0,0,0,0h0a.05.05,0,0,0,0,0h0"/>
    <path class="cls-3" d="M271.42,59.72l.07,0,0,0h0v0l0,0s0,0,0,0v0s0,0,0,0"/>
    <line class="cls-3" x1="271.61" y1="59.96" x2="271.53" y2="63.66"/>
    <path class="cls-3" d="M261.65,57.78h0"/>
    <line class="cls-3" x1="261.65" y1="57.78" x2="271.42" y2="59.72"/>
    <path class="cls-3" d="M261.61,57.78h0"/>
    <line class="cls-3" x1="99.41" y1="151.57" x2="97.72" y2="150.87"/>
    <path class="cls-3" d="M99.41,151.57h1l.07,0h.07"/>
    <line class="cls-3" x1="105.69" y1="150.45" x2="100.58" y2="151.61"/>
    <line class="cls-3" x1="97.72" y1="150.87" x2="92.13" y2="118.65"/>
    <line class="cls-3" x1="234.84" y1="101.23" x2="231.27" y2="101.97"/>
    <path class="cls-3" d="M234.84,101.23h.48"/>
    <line class="cls-3" x1="236.98" y1="101.69" x2="235.32" y2="101.24"/>
    <line class="cls-3" x1="236.98" y1="101.69" x2="237.22" y2="101.64"/>
    <line class="cls-3" x1="237.22" y1="101.64" x2="242.59" y2="78.3"/>
    <line class="cls-3" x1="231.04" y1="101.91" x2="231.27" y2="101.97"/>
    <line class="cls-3" x1="242.59" y1="78.3" x2="243.73" y2="68.66"/>
    <line class="cls-3" x1="269.57" y1="92.69" x2="268.05" y2="84.32"/>
    <line class="cls-3" x1="271.41" y1="63.95" x2="275.23" y2="111.82"/>
    <line class="cls-3" x1="275.04" y1="111.94" x2="271.43" y2="112.76"/>
    <path class="cls-3" d="M275,111.94l.06,0,0,0h.08v0"/>
    <line class="cls-3" x1="271.17" y1="112.69" x2="271.43" y2="112.76"/>
    <line class="cls-3" x1="268.05" y1="84.32" x2="266.7" y2="67.5"/>
  </g>
  <line class="cls-4" x1="46.13" y1="166.14" x2="96.03" y2="153.38"/>
  <line class="cls-4" x1="12.18" y1="148.93" x2="60.35" y2="137.45"/>
  <line class="cls-5" x1="16.84" y1="147.89" x2="52.71" y2="164.42"/>
  <polyline class="cls-2" points="16.77 147.81 21.23 151.38 22.39 148.86 16.77 147.81"/>
  <polyline class="cls-2" points="52.85 164.47 48.4 160.85 47.28 163.45 52.85 164.47"/>
  <g>
    <g class="cls-6">
      <path class="cls-7" d="M145.1,38.15a11.5,11.5,0,0,1,2.19-5.83l-3.52.37L143.7,32l4.36-.47.07.73c-1.49,2.41-2.22,4.36-2.2,5.83Z"/>
      <path class="cls-7" d="M151.51,37.54a2.08,2.08,0,0,1-1.87-.67,4.06,4.06,0,0,1-.87-2.28,3.92,3.92,0,0,1,.38-2.4,2.06,2.06,0,0,1,1.68-1.06,2.1,2.1,0,0,1,1.87.68,4,4,0,0,1,.87,2.27,3.92,3.92,0,0,1-.38,2.4A2,2,0,0,1,151.51,37.54Zm-.07-.73a1.29,1.29,0,0,0,1.07-.79,3.4,3.4,0,0,0,.22-1.85,3.49,3.49,0,0,0-.6-1.77,1.36,1.36,0,0,0-2.32.24,3.47,3.47,0,0,0-.2,1.86,3.42,3.42,0,0,0,.59,1.77A1.32,1.32,0,0,0,151.44,36.81Z"/>
      <path class="cls-7" d="M154.78,36.18l.88-.09.1.93-.88.09Z"/>
      <path class="cls-7" d="M158.73,34.61a2.18,2.18,0,0,1-1.65-.43,2.06,2.06,0,0,1-.79-1.47,2,2,0,0,1,.48-1.6,2.29,2.29,0,0,1,1.57-.78,2.09,2.09,0,0,1,1.77.61,3.19,3.19,0,0,1,.86,2,3.9,3.9,0,0,1-.52,2.7,2.65,2.65,0,0,1-2,1.15,2.68,2.68,0,0,1-1.77-.39l.34-.68a2,2,0,0,0,1.36.34,2,2,0,0,0,1.44-.82,2.53,2.53,0,0,0,.44-1.75,1.59,1.59,0,0,1-.59.75A1.93,1.93,0,0,1,158.73,34.61Zm.75-3.25a1.43,1.43,0,0,0-1.07-.3,1.39,1.39,0,0,0-1,.52,1.43,1.43,0,0,0-.3,1.07,1.35,1.35,0,0,0,.51,1,1.44,1.44,0,0,0,1.08.28A1.37,1.37,0,0,0,160,32.35,1.39,1.39,0,0,0,159.48,31.36Z"/>
      <path class="cls-7" d="M162.83,29.86l-.29,1.82-1,.1.76-1.87Zm1.33-.15-.3,1.83-1,.1.76-1.87Z"/>
    </g>
    <g class="cls-6">
      <path class="cls-7" d="M144.35,26.15l-.56-5.25a2.89,2.89,0,0,1-1.41.86l-.07-.72a2.84,2.84,0,0,0,1.5-1.17l.64-.07.67,6.27Z"/>
      <path class="cls-7" d="M148.37,25.79a2.53,2.53,0,0,1-1.68-.33,1.7,1.7,0,0,1-.77-1.3,1.62,1.62,0,0,1,.22-1,1.69,1.69,0,0,1,.8-.69,1.52,1.52,0,0,1-.73-.47,1.29,1.29,0,0,1-.34-.75,1.48,1.48,0,0,1,.42-1.24,2.18,2.18,0,0,1,1.4-.62,2.11,2.11,0,0,1,1.46.31,1.49,1.49,0,0,1,.66,1.13,1.37,1.37,0,0,1-.17.81,1.56,1.56,0,0,1-.61.61,1.59,1.59,0,0,1,.92.51,1.55,1.55,0,0,1,.43.94,1.7,1.7,0,0,1-.47,1.42A2.4,2.4,0,0,1,148.37,25.79ZM148,22a1.21,1.21,0,0,0,.8-.35,1,1,0,0,0,.25-.75.91.91,0,0,0-.39-.69,1.34,1.34,0,0,0-.87-.18,1.32,1.32,0,0,0-.85.37.87.87,0,0,0-.24.75,1,1,0,0,0,.41.68A1.33,1.33,0,0,0,148,22Zm.31,3.05a1.59,1.59,0,0,0,1-.43,1.1,1.1,0,0,0,.29-.89,1,1,0,0,0-.48-.81,1.53,1.53,0,0,0-1.05-.22,1.57,1.57,0,0,0-1,.43,1.12,1.12,0,0,0-.3.9,1,1,0,0,0,.48.8A1.57,1.57,0,0,0,148.28,25.09Z"/>
      <path class="cls-7" d="M153.68,25.23a2.09,2.09,0,0,1-1.87-.68,4,4,0,0,1-.87-2.27,3.94,3.94,0,0,1,.38-2.41,2.27,2.27,0,0,1,3.55-.37,3.89,3.89,0,0,1,.87,2.27,3.85,3.85,0,0,1-.38,2.4A2.06,2.06,0,0,1,153.68,25.23Zm-.07-.74a1.29,1.29,0,0,0,1.08-.78,3.52,3.52,0,0,0,.21-1.85,3.42,3.42,0,0,0-.6-1.77,1.34,1.34,0,0,0-2.31.24,3.35,3.35,0,0,0-.21,1.86,3.59,3.59,0,0,0,.59,1.77A1.29,1.29,0,0,0,153.61,24.49Z"/>
      <path class="cls-7" d="M159.21,24.64a2.05,2.05,0,0,1-1.87-.68,3.86,3.86,0,0,1-.87-2.27,3.85,3.85,0,0,1,.37-2.4,2,2,0,0,1,1.68-1.06,2.09,2.09,0,0,1,1.87.68,3.92,3.92,0,0,1,.87,2.27,3.93,3.93,0,0,1-.37,2.4A2.07,2.07,0,0,1,159.21,24.64Zm-.08-.73a1.32,1.32,0,0,0,1.08-.79,3.52,3.52,0,0,0,.21-1.85,3.49,3.49,0,0,0-.6-1.77,1.35,1.35,0,0,0-2.31.24,3.54,3.54,0,0,0-.21,1.86,3.52,3.52,0,0,0,.59,1.77A1.32,1.32,0,0,0,159.13,23.91Z"/>
    </g>
  </g>
  <g>
    <g class="cls-6">
      <path class="cls-7" d="M34.43,101.89l-5.27,0a2.89,2.89,0,0,1,.71,1.49h-.73a2.81,2.81,0,0,0-1-1.61v-.65l6.3,0Z"/>
      <path class="cls-7" d="M34.42,99.44a11.59,11.59,0,0,1-5.58-2.78v3.54h-.72l0-4.38h.72c2.26,1.73,4.12,2.65,5.59,2.78Z"/>
      <path class="cls-7" d="M33.47,96.15v-.88h.93v.88Z"/>
      <path class="cls-7" d="M34.46,92.25A2.45,2.45,0,0,1,34,93.77a1.89,1.89,0,0,1-1.27.75l-.13-.76a1.27,1.27,0,0,0,.82-.5,1.48,1.48,0,0,0,.3-1,1.3,1.3,0,0,0-.39-1,1.43,1.43,0,0,0-1-.37,1.38,1.38,0,0,0-1,.39,1.51,1.51,0,0,0-.37,1.08,1.58,1.58,0,0,0,.76,1.39l-.12.6-3.43-.48,0-3.36h.73v2.75l1.89.26a2.07,2.07,0,0,1-.38-.59,2,2,0,0,1-.14-.7,2.15,2.15,0,0,1,.57-1.58,2,2,0,0,1,1.53-.61,2.12,2.12,0,0,1,1.57.59A2.17,2.17,0,0,1,34.46,92.25Z"/>
      <path class="cls-7" d="M28,86.92l1.79.48v1l-1.78-1Zm0,1.33,1.78.48v1L28,88.77Z"/>
    </g>
    <g class="cls-6">
      <path class="cls-7" d="M22.41,99.64H20.87l0,3.32h-.74l-4-3.18v-1h4v-.91h.73v.91h1.54Zm-2.26,2.44V99.65H17.05Z"/>
      <path class="cls-7" d="M22.39,94.13H20.85v3.33h-.73l-4-3.18v-.94l4,0v-.91h.74v.91h1.54Zm-2.27,2.45V94.14H17Z"/>
      <path class="cls-7" d="M22.44,89.61A2.43,2.43,0,0,1,22,91.14a1.92,1.92,0,0,1-1.26.75l-.14-.77a1.29,1.29,0,0,0,.83-.49,1.63,1.63,0,0,0,.3-1,1.32,1.32,0,0,0-.39-1,1.46,1.46,0,0,0-1-.37,1.34,1.34,0,0,0-1,.4,1.44,1.44,0,0,0-.37,1.07,1.55,1.55,0,0,0,.76,1.39l-.12.6-3.44-.48V87.88h.73v2.75l1.89.27a2.12,2.12,0,0,1-.38-.6,1.8,1.8,0,0,1-.15-.7A2.17,2.17,0,0,1,18.74,88a2.05,2.05,0,0,1,1.53-.61,2.14,2.14,0,0,1,1.57.59A2.18,2.18,0,0,1,22.44,89.61Z"/>
    </g>
  </g>
  <g>
    <g class="cls-6">
      <path class="cls-7" d="M24.58,161.72l2.21-4.79a2.8,2.8,0,0,1-1.65,0l.3-.66a2.76,2.76,0,0,0,1.89-.23l.59.27-2.64,5.73Z"/>
      <path class="cls-7" d="M29.1,161.52a2.22,2.22,0,0,1-1.19-1.22,2.05,2.05,0,0,1,.07-1.66,2.09,2.09,0,0,1,1.23-1.14,2.39,2.39,0,0,1,1.75.14,2.09,2.09,0,0,1,1.21,1.43,3.23,3.23,0,0,1-.29,2.17,3.9,3.9,0,0,1-1.83,2A2.84,2.84,0,0,1,26.42,162l.64-.4a2.06,2.06,0,0,0,2.65,1A2.46,2.46,0,0,0,31,161.34a1.56,1.56,0,0,1-.89.35A2.06,2.06,0,0,1,29.1,161.52Zm2.32-2.41a1.45,1.45,0,0,0-2.7-.1,1.37,1.37,0,0,0,0,1.1,1.54,1.54,0,0,0,1.89.87,1.38,1.38,0,0,0,.79-.75A1.42,1.42,0,0,0,31.42,159.11Z"/>
      <path class="cls-7" d="M31.35,163.81l.8.37-.39.85-.8-.37Z"/>
      <path class="cls-7" d="M32.75,165.48a11.47,11.47,0,0,1,4.87-3.88l-3.21-1.48.3-.67,4,1.84-.3.66q-3.78,2-4.88,3.88Z"/>
      <path class="cls-7" d="M40.63,162.1l-1.19,1.42-.89-.42,1.61-1.22Zm1.21.56-1.19,1.41-.9-.41,1.61-1.22Z"/>
    </g>
    <g class="cls-6">
      <path class="cls-7" d="M31.45,151.74a2.46,2.46,0,0,1-1.19-1.07,1.94,1.94,0,0,1-.15-1.46l.75.2a1.32,1.32,0,0,0,.1,1,1.66,1.66,0,0,0,.78.69,1.27,1.27,0,0,0,1.07.06,1.37,1.37,0,0,0,.77-.78,1.34,1.34,0,0,0,.08-1.1,1.45,1.45,0,0,0-.82-.79,1.57,1.57,0,0,0-1.58.1l-.49-.36,1.89-2.91,3.05,1.41-.31.66-2.5-1.15-1,1.6a1.66,1.66,0,0,1,.71-.09,1.75,1.75,0,0,1,.69.16,2.18,2.18,0,0,1,1.19,1.18,2,2,0,0,1-.1,1.65,2.09,2.09,0,0,1-1.2,1.17A2.18,2.18,0,0,1,31.45,151.74Z"/>
      <path class="cls-7" d="M36.31,154a2.1,2.1,0,0,1-1.26-1.54,4.74,4.74,0,0,1,2-4.27,2.27,2.27,0,0,1,3.24,1.49,3.93,3.93,0,0,1-.41,2.4,3.86,3.86,0,0,1-1.56,1.87A2.07,2.07,0,0,1,36.31,154Zm.31-.67a1.28,1.28,0,0,0,1.33-.12,3.46,3.46,0,0,0,1.13-1.48,3.52,3.52,0,0,0,.39-1.83,1.35,1.35,0,0,0-2.11-1,4.35,4.35,0,0,0-1.53,3.31A1.3,1.3,0,0,0,36.62,153.31Z"/>
      <path class="cls-7" d="M41.35,156.3a2.07,2.07,0,0,1-1.26-1.53,4,4,0,0,1,.42-2.4,4,4,0,0,1,1.55-1.88,2.09,2.09,0,0,1,2,0A2.05,2.05,0,0,1,45.3,152a4,4,0,0,1-.41,2.4,4,4,0,0,1-1.55,1.87A2.09,2.09,0,0,1,41.35,156.3Zm.31-.67a1.28,1.28,0,0,0,1.33-.12,4.26,4.26,0,0,0,1.52-3.31,1.27,1.27,0,0,0-.77-1.09,1.3,1.3,0,0,0-1.34.12,4.3,4.3,0,0,0-1.52,3.31A1.29,1.29,0,0,0,41.66,155.63Z"/>
    </g>
  </g>
</svg>
