<svg id="Vrstva_1" data-name="Vrstva 1" xmlns="http://www.w3.org/2000/svg" viewBox="0 0 226.77 226.77"><defs><style>.cls-1{fill:none;stroke:#ffffff;stroke-linecap:round;stroke-linejoin:round;}.cls-1,.cls-2{stroke-width:.7px;}.cls-2{fill:#ffffff;stroke:#ffffff;stroke-miterlimit:10;}.cls-3{fill:#24466f;}</style></defs><line class="cls-1" x1="92.76" y1="19.29" x2="93.42" y2="19.13"/><path class="cls-1" d="M90.77,19.53a13.81,13.81,0,0,1,2.65-.85"/><path class="cls-1" d="M129.44,22.79a4.37,4.37,0,0,0,.49-.23,1.09,1.09,0,0,0,.23-.14l.11-.08a.27.27,0,0,0,.08-.07s0,0,0,0h0"/><path class="cls-1" d="M94.5,19.42c.52-.12,1-.22,1.57-.31s1.19-.19,1.78-.27q1.7-.22,3.39-.36c2.23-.19,4.56-.29,6.8-.33s4.55,0,6.81.09,4.56.24,6.79.48"/><path class="cls-1" d="M90.57,21.54a1.54,1.54,0,0,1,.28-.5,2.65,2.65,0,0,1,.42-.4,4.94,4.94,0,0,1,.49-.3l.53-.25a15.23,15.23,0,0,1,2.21-.67"/><path class="cls-1" d="M92,21.86h0l0,0a.46.46,0,0,0,.07.07l.11.09.23.14a4.59,4.59,0,0,0,.5.24"/><path class="cls-1" d="M121.64,18.72c1.75.19,3.71.47,5.44.84a20.33,20.33,0,0,1,2.64.75,6.76,6.76,0,0,1,.67.29,4,4,0,0,1,.57.32,2.43,2.43,0,0,1,.52.44,1.66,1.66,0,0,1,.34.59"/><path class="cls-1" d="M92.05,21.94a.31.31,0,0,0,0-.08"/><line class="cls-1" x1="84.45" y1="129.54" x2="83.8" y2="20.52"/><path class="cls-1" d="M84.45,129.54a.48.48,0,0,0,0,.17"/><path class="cls-1" d="M104.69,140.33a7.76,7.76,0,0,0,2.3.15"/><line class="cls-1" x1="121.15" y1="139.32" x2="106.99" y2="140.48"/><line class="cls-1" x1="122.42" y1="25.47" x2="122.28" y2="25.37"/><line class="cls-1" x1="104.69" y1="140.33" x2="102.76" y2="139.88"/><path class="cls-1" d="M102.62,139.79s0,.05,0,.06a.16.16,0,0,0,.09,0"/><line class="cls-1" x1="107.51" y1="25.9" x2="122.42" y2="25.47"/><line class="cls-1" x1="103.04" y1="25.57" x2="105.09" y2="25.81"/><path class="cls-1" d="M87.78,136a1.13,1.13,0,0,0,.56.45,4,4,0,0,0,.69.23"/><line class="cls-1" x1="101.22" y1="25.35" x2="101.48" y2="25.29"/><line class="cls-1" x1="87.78" y1="136.01" x2="87.37" y2="135.22"/><path class="cls-1" d="M87.36,135.21h0"/><path class="cls-1" d="M88.59,23.87a6,6,0,0,1-.61-.09,2.87,2.87,0,0,1-.59-.17"/><line class="cls-1" x1="102.97" y1="25.47" x2="102.97" y2="25.49"/><path class="cls-1" d="M87.37,135.19s0,0,0,0"/><line class="cls-1" x1="86.45" y1="22.93" x2="87" y2="134.53"/><path class="cls-1" d="M102.9,25.52s0,0,0,0H103l.07,0"/><path class="cls-1" d="M134.87,133.55a.31.31,0,0,0,.13.06l.14,0h.14a.28.28,0,0,0,.13,0"/><path class="cls-1" d="M136.52,132.92c.17-.1.39-.27.39-.5"/><line class="cls-1" x1="136.52" y1="132.92" x2="135.41" y2="133.58"/><line class="cls-1" x1="137.38" y1="22.81" x2="138.54" y2="22.49"/><line class="cls-1" x1="134.87" y1="133.55" x2="134.45" y2="132.98"/><path class="cls-1" d="M124.16,25.33h0s0,0,0,0"/><path class="cls-1" d="M125.36,139a6.19,6.19,0,0,0,1-.15,3.37,3.37,0,0,0,.9-.33"/><line class="cls-1" x1="136.35" y1="23.09" x2="136.22" y2="23.07"/><line class="cls-1" x1="125.36" y1="138.98" x2="123.14" y2="139.16"/><path class="cls-1" d="M122.76,139.05s0,.06.07.07l.1,0a.74.74,0,0,0,.21,0"/><path class="cls-1" d="M124.12,25.35v0h.38"/><path class="cls-1" d="M137.13,22.83a1.06,1.06,0,0,0,.25,0"/><line class="cls-1" x1="138.94" y1="22.34" x2="136.91" y2="132.42"/><path class="cls-1" d="M138.88,22.36a1.09,1.09,0,0,1-.34.13"/><line class="cls-1" x1="99.27" y1="25.03" x2="99.27" y2="25.03"/><path class="cls-1" d="M107.51,25.9a17.8,17.8,0,0,1-2.42-.09"/><path class="cls-1" d="M128.8,25.12a6.41,6.41,0,0,1-1,.16c-.33,0-.66,0-1,.06"/><line class="cls-1" x1="128.8" y1="25.12" x2="136.35" y2="23.09"/><line class="cls-1" x1="124.19" y1="25.32" x2="124.16" y2="25.33"/><line class="cls-1" x1="87.36" y1="134.5" x2="87" y2="134.53"/><path class="cls-1" d="M103.05,25.47l-.08,0h-.06s0,0,0,0"/><line class="cls-1" x1="122.42" y1="25.47" x2="121.15" y2="139.32"/><line class="cls-1" x1="102.62" y1="139.79" x2="102.9" y2="25.52"/><line class="cls-1" x1="101.03" y1="139.48" x2="89.03" y2="136.69"/><line class="cls-1" x1="101.22" y1="25.35" x2="101.03" y2="139.48"/><line class="cls-1" x1="88.59" y1="23.87" x2="101.22" y2="25.35"/><line class="cls-1" x1="102.62" y1="138.59" x2="101.03" y2="139.48"/><line class="cls-1" x1="87.36" y1="135.21" x2="86.84" y2="23.28"/><line class="cls-1" x1="134.42" y1="134.18" x2="127.22" y2="138.5"/><line class="cls-1" x1="136.35" y1="23.09" x2="134.42" y2="134.18"/><line class="cls-1" x1="124.51" y1="25.41" x2="126.85" y2="25.34"/><line class="cls-1" x1="122.76" y1="139.05" x2="124.12" y2="25.35"/><line class="cls-1" x1="87" y1="134.53" x2="84.5" y2="129.71"/><line class="cls-1" x1="130.36" y1="21.57" x2="130.35" y2="22.26"/><line class="cls-1" x1="127.58" y1="23.14" x2="127.58" y2="23.1"/><path class="cls-1" d="M132.62,21.24a.72.72,0,0,0-.16-.25,1.23,1.23,0,0,0-.26-.25,3.3,3.3,0,0,0-.39-.26c-.16-.09-.33-.17-.5-.25s-.41-.17-.62-.24l-.74-.25-.85-.23-.95-.22c-.76-.17-1.53-.31-2.3-.43s-1.74-.26-2.62-.37c-3.22-.38-6.7-.59-9.94-.68s-6.7,0-10,.13l-2.59.17c-.8.07-1.59.14-2.38.23s-1.82.22-2.73.37c-.39.06-.77.12-1.16.2s-.69.14-1,.22"/><path class="cls-1" d="M131.63,22.05a11,11,0,0,1-1.93.67"/><path class="cls-1" d="M129.7,22.72c-.33.09-.67.17-1,.24s-.78.16-1.18.23l-1.34.22-1.49.2c-.81.09-1.61.18-2.42.25s-1.78.14-2.67.19c-3.34.19-6.86.24-10.21.16s-6.89-.29-10.19-.68c-.91-.11-1.81-.23-2.71-.37s-1.56-.27-2.33-.44l-1.05-.25c-.31-.08-.61-.17-.91-.27l-.77-.26-.62-.28a3.72,3.72,0,0,1-.48-.27,2.22,2.22,0,0,1-.33-.28.83.83,0,0,1-.19-.27.59.59,0,0,1-.07-.26"/><path class="cls-1" d="M87,23.46a1.2,1.2,0,0,0,.48.17,4.17,4.17,0,0,0,.51.08"/><path class="cls-1" d="M83.53,19.58l-.09.07a.08.08,0,0,0,0,.11"/><path class="cls-1" d="M139.05,21.85a.92.92,0,0,0,.23-.09c.1-.06.08-.13,0-.19"/><path class="cls-1" d="M127.38,24.75c.25,0,.49,0,.74,0a4.51,4.51,0,0,0,.72-.12"/><line class="cls-1" x1="128.84" y1="25.06" x2="139.04" y2="22.31"/><line class="cls-1" x1="88.02" y1="23.71" x2="105.29" y2="25.74"/><line class="cls-1" x1="88.02" y1="23.24" x2="105.29" y2="25.26"/><path class="cls-1" d="M132.67,21a.94.94,0,0,1-.39.64,3.34,3.34,0,0,1-.65.4"/><path class="cls-1" d="M89.78,20.81a1.45,1.45,0,0,1,.59-.61,4.49,4.49,0,0,1,.76-.38,12.38,12.38,0,0,1,1.63-.53"/><line class="cls-1" x1="83.46" y1="20.21" x2="87.03" y2="23.46"/><line class="cls-1" x1="107.11" y1="25.81" x2="127.37" y2="25.23"/><path class="cls-1" d="M127,23.28c.23-.05.47-.1.7-.17"/><path class="cls-1" d="M92,21.18c0,.34.35.61.58.76a5,5,0,0,0,.89.45,15.44,15.44,0,0,0,1.9.58"/><line class="cls-1" x1="92.05" y1="21.94" x2="92.04" y2="21.18"/><path class="cls-1" d="M130.24,21.56a.89.89,0,0,1-.44.65,3.37,3.37,0,0,1-.7.38,10.05,10.05,0,0,1-1.52.51"/><path class="cls-1" d="M92.17,21.18c0-.32.32-.58.55-.73a4.48,4.48,0,0,1,.85-.42,13.17,13.17,0,0,1,1.83-.53"/><path class="cls-1" d="M127.68,23.11c.31-.08.61-.17.91-.27a6.13,6.13,0,0,0,.75-.29l.31-.16.25-.16a1.73,1.73,0,0,0,.21-.17,1.15,1.15,0,0,0,.14-.17.57.57,0,0,0,0-.7c0-.07-.11-.12-.16-.18l-.23-.17c-.09-.07-.19-.12-.28-.18l-.35-.17a8.61,8.61,0,0,0-.89-.34c-.36-.12-.73-.23-1.1-.32s-.86-.21-1.29-.3l-1.43-.26c-.78-.13-1.56-.24-2.34-.34s-1.67-.18-2.51-.26-1.56-.13-2.34-.18-1.69-.1-2.54-.13c-3.2-.13-6.57-.13-9.77,0-.85,0-1.7.08-2.55.15s-1.55.12-2.32.2-1.81.21-2.7.35c-.38.06-.76.12-1.14.2l-1,.2"/><path class="cls-1" d="M95.3,19.48a14.89,14.89,0,0,0-1.84.54,5.31,5.31,0,0,0-.86.43c-.23.14-.56.4-.56.73"/><path class="cls-1" d="M95.4,19.5c.31-.08.61-.14.92-.2l1-.18c.81-.13,1.62-.24,2.44-.33s1.41-.15,2.12-.2,1.55-.12,2.32-.16c2.92-.15,6-.18,8.9-.11s6,.27,8.88.62c.79.1,1.57.21,2.35.33s1.37.25,2,.4l.9.22c.27.07.53.14.79.23l.67.23.54.25a4.49,4.49,0,0,1,.42.24,2.17,2.17,0,0,1,.29.24,1.38,1.38,0,0,1,.17.25.59.59,0,0,1,.05.23"/><path class="cls-1" d="M96,23.08a18.21,18.21,0,0,1-2.16-.6,6.28,6.28,0,0,1-1-.47l-.26-.17a1,1,0,0,1-.19-.17.84.84,0,0,1-.18-.24.54.54,0,0,1-.06-.25"/><line class="cls-1" x1="83.46" y1="19.76" x2="87.03" y2="22.99"/><path class="cls-1" d="M105.29,25.74a15.82,15.82,0,0,0,1.82.07"/><line class="cls-1" x1="128.84" y1="24.59" x2="139.05" y2="21.85"/><path class="cls-1" d="M127.37,25.23c.25,0,.5,0,.74-.05a4.45,4.45,0,0,0,.73-.12"/><path class="cls-1" d="M83.43,20.18l0,0"/><line class="cls-1" x1="121.16" y1="138.62" x2="122.77" y2="138.49"/><line class="cls-1" x1="102.15" y1="138.86" x2="102.62" y2="138.96"/><line class="cls-1" x1="122.77" y1="138.06" x2="121.16" y2="138.2"/><line class="cls-1" x1="131.3" y1="136.05" x2="131.24" y2="139.85"/><line class="cls-1" x1="107.11" y1="25.33" x2="127.38" y2="24.75"/><path class="cls-1" d="M93.42,18.68l1-.22,1.17-.2c.91-.15,1.83-.26,2.74-.37s1.6-.16,2.4-.22,1.73-.13,2.61-.17c3.28-.18,6.73-.21,10-.12s6.77.3,10,.69c.88.11,1.76.23,2.64.37s1.54.27,2.3.44l1,.25c.3.08.6.16.89.26s.51.16.75.26.42.17.61.27a5.5,5.5,0,0,1,.48.28,2.08,2.08,0,0,1,.32.27,1.05,1.05,0,0,1,.2.27.66.66,0,0,1,.06.27"/><path class="cls-1" d="M87,23a1.2,1.2,0,0,0,.48.17,4.17,4.17,0,0,0,.51.08"/><path class="cls-1" d="M105.29,25.26a12.31,12.31,0,0,0,1.82.07"/><path class="cls-1" d="M116.64,16.48a15.35,15.35,0,0,0-1.66-.06"/><path class="cls-1" d="M134.11,18.46a2.46,2.46,0,0,0-.51-.15,4.81,4.81,0,0,0-.53-.07"/><line class="cls-1" x1="139.26" y1="21.57" x2="134.11" y2="18.46"/><line class="cls-1" x1="133.07" y1="18.24" x2="116.64" y2="16.48"/><line class="cls-1" x1="127.68" y1="23.16" x2="127.68" y2="23.11"/><path class="cls-1" d="M89.73,20.58a.94.94,0,0,1,.38-.65,3.75,3.75,0,0,1,.66-.4"/><path class="cls-1" d="M83.43,20.15v0"/><line class="cls-1" x1="83.43" y1="20.15" x2="83.42" y2="19.7"/><line class="cls-1" x1="139.35" y1="21.67" x2="139.34" y2="22.13"/><path class="cls-1" d="M83.84,19.49a1.58,1.58,0,0,0-.31.09"/><path class="cls-1" d="M96.3,16.88a8.31,8.31,0,0,0-1.41.13"/><line class="cls-1" x1="114.98" y1="16.42" x2="96.3" y2="16.88"/><path class="cls-1" d="M139,22.31a.58.58,0,0,0,.17-.06.2.2,0,0,0,.08,0s.05,0,.05-.08"/><line class="cls-1" x1="94.89" y1="17.01" x2="83.84" y2="19.49"/><line class="cls-1" x1="127.68" y1="23.11" x2="127.68" y2="23.16"/><path class="cls-1" d="M127.58,23.1c-.41.11-.82.2-1.23.28"/><path class="cls-1" d="M89.7,139.81a2.68,2.68,0,0,0,.24,1.12,4,4,0,0,0,.7,1.12,7.1,7.1,0,0,0,1.14,1,13,13,0,0,0,1.55,1,20.87,20.87,0,0,0,2.56,1.12c1,.34,2,.63,2.93.87s1.8.41,2.71.57,2,.32,3.07.43a55.35,55.35,0,0,0,11.7,0c1-.11,2-.24,3-.41s1.85-.35,2.76-.57c.54-.14,1.08-.28,1.62-.45s1-.3,1.46-.48.87-.33,1.3-.52.75-.34,1.12-.54a11.93,11.93,0,0,0,1.49-.92,7.43,7.43,0,0,0,1.15-1A4.67,4.67,0,0,0,131,141a3.18,3.18,0,0,0,.27-1.18"/><line class="cls-1" x1="89.7" y1="139.81" x2="89.69" y2="136.84"/><line class="cls-1" x1="95.4" y1="19.5" x2="95.4" y2="19.5"/><line class="cls-1" x1="127.68" y1="23.11" x2="127.68" y2="23.11"/><line class="cls-1" x1="127.58" y1="23.1" x2="127.58" y2="23.1"/><line class="cls-1" x1="127.58" y1="23.1" x2="127.58" y2="23.14"/><line class="cls-1" x1="95.31" y1="22.95" x2="95.31" y2="22.91"/><line class="cls-1" x1="95.31" y1="22.91" x2="95.31" y2="22.95"/><line class="cls-1" x1="106.2" y1="25.81" x2="106.2" y2="25.33"/><line class="cls-1" x1="87.39" y1="23.61" x2="87.39" y2="23.14"/><line class="cls-1" x1="128.19" y1="25.17" x2="128.2" y2="24.7"/><line class="cls-1" x1="87.37" y1="135.22" x2="86.84" y2="23.29"/><line class="cls-1" x1="135.1" y1="133.61" x2="137.07" y2="22.83"/><line class="cls-1" x1="126.31" y1="138.79" x2="127.9" y2="25.42"/><line class="cls-1" x1="105.82" y1="140.47" x2="106.33" y2="25.89"/><line class="cls-1" x1="88.06" y1="136.29" x2="87.62" y2="23.47"/><line class="cls-1" x1="44.41" y1="170.99" x2="91.89" y2="180.23"/><line class="cls-1" x1="117.6" y1="159.1" x2="87.88" y2="183.54"/><line class="cls-1" x1="72.94" y1="150.41" x2="40.55" y2="173.46"/><line class="cls-1" x1="147.64" y1="134.5" x2="193.43" y2="143.69"/><line class="cls-1" x1="123.44" y1="158.97" x2="167.91" y2="168.77"/><line class="cls-1" x1="188.95" y1="142.95" x2="162.9" y2="167.58"/><line class="cls-1" x1="38.29" y1="131.65" x2="81.63" y2="140.79"/><line class="cls-1" x1="36.17" y1="14.27" x2="79.04" y2="19.17"/><path class="cls-1" d="M40.61,14.84q1.24,58.9,2.48,117.82"/><polyline class="cls-2" points="44.13 170.94 49.85 170.66 49.3 173.39 44.13 170.94"/><polyline class="cls-2" points="91.83 180.19 86.12 180.52 86.64 177.79 91.83 180.19"/><polyline class="cls-2" points="43.09 132.57 41.59 127.05 44.37 126.99 43.09 132.57"/><polyline class="cls-2" points="40.59 14.87 42.09 20.39 39.31 20.45 40.59 14.87"/><polyline class="cls-2" points="188.95 142.95 185.85 147.75 183.95 145.73 188.95 142.95"/><polyline class="cls-2" points="162.91 167.58 166 162.77 167.91 164.8 162.91 167.58"/><path class="cls-3" d="M62.67,171.87a2.36,2.36,0,0,1-1.42-.79,1.87,1.87,0,0,1-.44-1.43l.78,0a1.26,1.26,0,0,0,.29.95,1.64,1.64,0,0,0,.93.51,1.49,1.49,0,0,0,1.1-.15,1.26,1.26,0,0,0,.57-.86,1.31,1.31,0,0,0-.18-1,1.46,1.46,0,0,0-.95-.53,1.23,1.23,0,0,0-.71.06l-.25-.58,2.33-1.55-3-.59.14-.72,4,.78-.14.69-2.09,1.37a2,2,0,0,1,1.42.72,1.84,1.84,0,0,1,.3,1.54,1.9,1.9,0,0,1-.89,1.33A2.45,2.45,0,0,1,62.67,171.87Z"/><path class="cls-3" d="M68.74,173l.3-1.51-3.26-.64.14-.72,3.91-3.34.92.18-.77,4,.89.18-.14.72-.89-.17-.29,1.51Zm-2-2.7,2.4.46.59-3Z"/><path class="cls-3" d="M74.15,174l.29-1.51-3.26-.64.15-.73,3.9-3.33.93.18-.77,4,.89.17-.14.73-.89-.18-.3,1.51Zm-2-2.71,2.39.47.6-3Z"/><path class="cls-3" d="M58.16,183.19l1-5.18a2.91,2.91,0,0,1-1.6.4l.13-.71a2.84,2.84,0,0,0,1.79-.67l.63.12-1.21,6.19Z"/><path class="cls-3" d="M62,184a2.43,2.43,0,0,1-1.42-.78,1.93,1.93,0,0,1-.44-1.44l.79,0a1.25,1.25,0,0,0,.29.94,1.48,1.48,0,0,0,.93.51,1.42,1.42,0,0,0,1.09-.15,1.21,1.21,0,0,0,.57-.86,1.23,1.23,0,0,0-.18-1,1.48,1.48,0,0,0-.94-.53,1.26,1.26,0,0,0-.72.06l-.24-.58L64,178.66l-3-.59.14-.71,3.94.77-.13.7-2.1,1.37a1.94,1.94,0,0,1,1.42.71,1.8,1.8,0,0,1,.31,1.54,1.91,1.91,0,0,1-.9,1.33A2.39,2.39,0,0,1,62,184Z"/><path class="cls-3" d="M65.39,183.65l.87.17-.18.92-.87-.17Z"/><path class="cls-3" d="M70.22,181.24a2.25,2.25,0,0,1,1.45.9,2.06,2.06,0,0,1,.32,1.63,2,2,0,0,1-.93,1.4,2.36,2.36,0,0,1-1.73.28,2.08,2.08,0,0,1-1.51-1.1,3.19,3.19,0,0,1-.23-2.18,3.88,3.88,0,0,1,1.29-2.42,2.68,2.68,0,0,1,2.25-.52,2.71,2.71,0,0,1,1.58.9l-.53.55A1.91,1.91,0,0,0,71,180a2,2,0,0,0-1.62.36,2.46,2.46,0,0,0-.94,1.55,1.53,1.53,0,0,1,.78-.55A2,2,0,0,1,70.22,181.24Zm-1.68,2.89a1.41,1.41,0,0,0,.94.59,1.44,1.44,0,0,0,1.1-.19,1.49,1.49,0,0,0,.6-.94,1.34,1.34,0,0,0-.21-1.08,1.38,1.38,0,0,0-.94-.59,1.36,1.36,0,0,0-1.09.19,1.34,1.34,0,0,0-.6.92A1.39,1.39,0,0,0,68.54,184.13Z"/><path class="cls-3" d="M75,180l-.82,1.66-1-.19,1.27-1.57Zm1.3.26-.81,1.65-1-.19,1.28-1.56Z"/><path class="cls-3" d="M169.74,157.09a2.42,2.42,0,0,1-1.46.71,1.92,1.92,0,0,1-1.43-.48l.49-.62a1.27,1.27,0,0,0,.94.32,1.6,1.6,0,0,0,.95-.46,1.48,1.48,0,0,0,.51-1,1.23,1.23,0,0,0-.37-1,1.27,1.27,0,0,0-.92-.44,1.47,1.47,0,0,0-1,.46,1.25,1.25,0,0,0-.37.62l-.61-.13.08-2.8-2.22,2.1-.5-.53,2.92-2.77.49.52-.1,2.5a1.94,1.94,0,0,1,1.41-.74A1.83,1.83,0,0,1,170,154a1.89,1.89,0,0,1,.56,1.5A2.41,2.41,0,0,1,169.74,157.09Z"/><path class="cls-3" d="M174.17,152.79l-1.06-1.12L170.7,154l-.51-.54-.45-5.11.69-.65,2.77,2.92.66-.63.5.54-.66.62,1.06,1.12Zm-3.34,0,1.77-1.68-2.12-2.24Z"/><path class="cls-3" d="M178.17,149l-1.06-1.12-2.41,2.29-.51-.54-.45-5.11.68-.65,2.77,2.92.66-.63.51.54-.66.62,1.06,1.12Zm-3.34,0,1.77-1.68-2.12-2.24Z"/><path class="cls-3" d="M176.34,167.34l-3.63-3.83a2.84,2.84,0,0,1-.6,1.54l-.5-.53a2.78,2.78,0,0,0,.49-1.84l.47-.45,4.33,4.57Z"/><path class="cls-3" d="M179.23,164.7a2.35,2.35,0,0,1-1.46.7,1.87,1.87,0,0,1-1.43-.47l.48-.62a1.25,1.25,0,0,0,.94.31,1.59,1.59,0,0,0,1-.45,1.48,1.48,0,0,0,.51-1,1.39,1.39,0,0,0-1.29-1.4,1.51,1.51,0,0,0-1,.46,1.26,1.26,0,0,0-.36.62l-.62-.14.09-2.79-2.22,2.1-.5-.53,2.92-2.77.49.52-.1,2.5a1.94,1.94,0,0,1,1.41-.74,1.84,1.84,0,0,1,1.43.64,1.92,1.92,0,0,1,.56,1.5A2.41,2.41,0,0,1,179.23,164.7Z"/><path class="cls-3" d="M180.92,161.71l.64-.61.64.68-.64.61Z"/><path class="cls-3" d="M181.76,156.38a2.24,2.24,0,0,1,1.57-.66,2.06,2.06,0,0,1,1.51.69,2,2,0,0,1,.6,1.57,2.29,2.29,0,0,1-.77,1.56,2.09,2.09,0,0,1-1.78.6,3.24,3.24,0,0,1-1.9-1.08,3.9,3.9,0,0,1-1.23-2.46,2.66,2.66,0,0,1,.89-2.13,2.69,2.69,0,0,1,1.64-.76l.14.74a2,2,0,0,0-1.29.55,2,2,0,0,0-.63,1.54,2.5,2.5,0,0,0,.71,1.66,1.65,1.65,0,0,1,0-1A1.86,1.86,0,0,1,181.76,156.38Zm1.37,3a1.54,1.54,0,0,0,1.51-1.43,1.41,1.41,0,0,0-.42-1,1.36,1.36,0,0,0-1-.46,1.42,1.42,0,0,0-1,.42,1.4,1.4,0,0,0-.48,1,1.35,1.35,0,0,0,.4,1A1.39,1.39,0,0,0,183.13,159.42Z"/><path class="cls-3" d="M183.48,151.78l.88,1.63-.71.67-.54-1.94Zm1-.91.87,1.62-.71.68-.54-1.94Z"/><path class="cls-3" d="M39,79.75a2.47,2.47,0,0,1-.47,1.65,1.73,1.73,0,0,1-1.36.66,1.56,1.56,0,0,1-1-.3,1.69,1.69,0,0,1-.63-.85,1.59,1.59,0,0,1-.53.69,1.38,1.38,0,0,1-.77.27A1.5,1.5,0,0,1,33,81.35a2.16,2.16,0,0,1-.49-1.44,2.07,2.07,0,0,1,.42-1.43,1.49,1.49,0,0,1,1.19-.57,1.34,1.34,0,0,1,.78.23,1.57,1.57,0,0,1,.56.66,1.7,1.7,0,0,1,.58-.87,1.59,1.59,0,0,1,1-.35,1.66,1.66,0,0,1,1.37.58A2.4,2.4,0,0,1,39,79.75Zm-3.77.1A1.26,1.26,0,0,0,34.9,79a.93.93,0,0,0-.73-.31.85.85,0,0,0-.71.33,1.23,1.23,0,0,0-.25.86,1.35,1.35,0,0,0,.29.87.89.89,0,0,0,.73.3.93.93,0,0,0,.71-.35A1.27,1.27,0,0,0,35.19,79.85Zm3.06-.07a1.54,1.54,0,0,0-.35-1,1.05,1.05,0,0,0-.86-.36,1,1,0,0,0-.85.4,1.52,1.52,0,0,0-.3,1,1.6,1.6,0,0,0,.35,1,1.06,1.06,0,0,0,.87.36,1,1,0,0,0,.84-.41A1.55,1.55,0,0,0,38.25,79.78Z"/><path class="cls-3" d="M38.82,77.1l-.71,0L36,74.81a2.44,2.44,0,0,0-1.75-1,1.16,1.16,0,0,0-.84.35,1.22,1.22,0,0,0-.29.88,1.23,1.23,0,0,0,.45,1,1.46,1.46,0,0,0,1.14.25l0,.8a2.06,2.06,0,0,1-1.62-.47,2.35,2.35,0,0,1-.18-3.06,1.82,1.82,0,0,1,1.36-.6,2.27,2.27,0,0,1,1.13.31,5,5,0,0,1,1.19,1L38.06,76,38,72.86h.74Z"/><path class="cls-3" d="M38.7,71.86a11.57,11.57,0,0,1-5.64-2.67l.08,3.54-.72,0-.11-4.38.73,0q3.42,2.52,5.64,2.67Z"/><path class="cls-3" d="M51.09,83a2.36,2.36,0,0,1-.45,1.55,1.88,1.88,0,0,1-1.31.74l-.14-.77a1.28,1.28,0,0,0,.87-.49,1.62,1.62,0,0,0,.29-1A1.49,1.49,0,0,0,50,82a1.4,1.4,0,0,0-1.91,0,1.45,1.45,0,0,0-.32,1,1.28,1.28,0,0,0,.22.69l-.51.36-2-1.94.07,3.06-.73,0-.1-4,.72,0,1.78,1.75a2,2,0,0,1,.4-1.54A1.83,1.83,0,0,1,49,80.75a1.89,1.89,0,0,1,1.49.59A2.35,2.35,0,0,1,51.09,83Z"/><path class="cls-3" d="M51,80.15l-.71,0-2.1-2.31a2.47,2.47,0,0,0-1.75-1,1.13,1.13,0,0,0-.84.35,1.24,1.24,0,0,0-.29.89,1.2,1.2,0,0,0,.45,1,1.45,1.45,0,0,0,1.13.26l0,.79a2,2,0,0,1-1.62-.47,2,2,0,0,1-.66-1.55A2.1,2.1,0,0,1,45,76.59,1.76,1.76,0,0,1,46.37,76a2.16,2.16,0,0,1,1.13.3,5.09,5.09,0,0,1,1.19,1L50.19,79l-.08-3.1.74,0Z"/><path class="cls-3" d="M49.88,74.78l0-.88.94,0,0,.88Z"/><path class="cls-3" d="M46.5,70.58A2.21,2.21,0,0,1,47.06,69a2.21,2.21,0,0,1,3.09-.06,2.35,2.35,0,0,1,.64,1.63A2.07,2.07,0,0,1,50,72.26,3.18,3.18,0,0,1,48,73a3.91,3.91,0,0,1-2.65-.74,2.67,2.67,0,0,1-1-2.09,2.74,2.74,0,0,1,.54-1.73l.65.4a2,2,0,0,0,.25,2.82,2.51,2.51,0,0,0,1.71.59,1.57,1.57,0,0,1-.7-.65A1.8,1.8,0,0,1,46.5,70.58Zm3.17,1a1.39,1.39,0,0,0,.38-1,1.4,1.4,0,0,0-1.47-1.41,1.35,1.35,0,0,0-1,.43,1.43,1.43,0,0,0-.38,1.05,1.39,1.39,0,0,0,.43,1,1.34,1.34,0,0,0,1,.39A1.38,1.38,0,0,0,49.67,71.6Z"/><path class="cls-3" d="M44.21,64.89l1.79.44,0,1-1.8-.91Zm0,1.33,1.79.44,0,1-1.81-.91Z"/></svg>