<svg id="Vrstva_1" data-name="Vrstva 1" xmlns="http://www.w3.org/2000/svg" viewBox="0 0 226.77 226.77">
  <defs>
    <style>
      .cls-1, .cls-5 {
        fill: none;
        stroke-linejoin: round;
      }

      .cls-1 {
        stroke: #010101;
      }

      .cls-1, .cls-5, .cls-6 {
        stroke-linecap: round;
      }

      .cls-1, .cls-2, .cls-5, .cls-6 {
        stroke-width:.7px;
      }

      .cls-2, .cls-6 {
        fill: #010202;
        stroke: #010202;
        stroke-miterlimit: 10;
      }

      .cls-3 {
        isolation: isolate;
      }

      .cls-4 {
        fill: #1d1d1b;
      }

      .cls-5 {
        stroke: #1d1d1b;
      }
    
.cls-1{stroke:#ffffff}
.cls-5{stroke:#ffffff}
.cls-6{stroke:#ffffff;fill:#ffffff}
.cls-2{stroke:#ffffff;fill:#ffffff}
.cls-4{fill:#ffffff}
</style>
  </defs>
  <line class="cls-1" x1="80.13" y1="180.9" x2="40.32" y2="203.77"/>
  <path class="cls-1" d="M34.74,16.62Q37,93,39.2,169.29"/>
  <line class="cls-1" x1="181.64" y1="200.43" x2="211.83" y2="180.86"/>
  <line class="cls-1" x1="94.37" y1="212.48" x2="44.41" y2="201.54"/>
  <line class="cls-1" x1="166.49" y1="171.63" x2="216.57" y2="181.65"/>
  <polyline class="cls-2" points="34.72 16.6 36.3 22.1 33.53 22.2 34.72 16.6"/>
  <polyline class="cls-2" points="39.28 169.59 37.73 164.09 40.51 164.01 39.28 169.59"/>
  <polyline class="cls-2" points="44.25 201.51 49.97 201.33 49.38 204.04 44.25 201.51"/>
  <polyline class="cls-2" points="94.54 212.53 88.83 212.71 89.42 210 94.54 212.53"/>
  <polyline class="cls-2" points="211.97 180.72 208.05 184.89 206.55 182.56 211.97 180.72"/>
  <polyline class="cls-2" points="181.58 200.46 185.48 196.28 186.99 198.61 181.58 200.46"/>
  <g>
    <g class="cls-3">
      <path class="cls-4" d="M61.47,214.65l1.1-5.16a2.8,2.8,0,0,1-1.6.37l.15-.71a2.77,2.77,0,0,0,1.79-.64l.64.14-1.33,6.16Z"/>
      <path class="cls-4" d="M65.27,215.54a2.38,2.38,0,0,1-1.4-.81,1.89,1.89,0,0,1-.42-1.44l.78.05a1.28,1.28,0,0,0,.28.95,1.57,1.57,0,0,0,.92.53,1.5,1.5,0,0,0,1.1-.14,1.39,1.39,0,0,0,.42-1.86,1.45,1.45,0,0,0-.93-.55,1.35,1.35,0,0,0-.72,0l-.24-.58,2.36-1.51-3-.64.15-.72,3.94.85-.15.69-2.12,1.33a2,2,0,0,1,1.41.75,2.07,2.07,0,0,1-.65,2.85A2.4,2.4,0,0,1,65.27,215.54Z"/>
      <path class="cls-4" d="M68.7,215.24l.86.19-.2.91-.86-.19Z"/>
      <path class="cls-4" d="M70.74,216.64l1.11-5.16a2.91,2.91,0,0,1-1.61.37l.15-.71a2.8,2.8,0,0,0,1.8-.64l.63.14L71.5,216.8Z"/>
      <path class="cls-4" d="M75.25,211.08l-.85,1.65-1-.21,1.3-1.54Zm1.3.28L75.7,213l-1-.21L76,211.25Z"/>
    </g>
    <g class="cls-3">
      <path class="cls-4" d="M65.23,203.24a2.32,2.32,0,0,1-1.4-.8,1.93,1.93,0,0,1-.42-1.44l.79,0a1.21,1.21,0,0,0,.27,1,1.55,1.55,0,0,0,.92.53,1.5,1.5,0,0,0,1.1-.13,1.39,1.39,0,0,0,.42-1.86A1.45,1.45,0,0,0,66,200a1.26,1.26,0,0,0-.72.05l-.23-.59,2.35-1.5-3-.65.16-.71,3.93.84-.15.7-2.12,1.33a1.94,1.94,0,0,1,1.41.74,1.84,1.84,0,0,1,.27,1.54,1.86,1.86,0,0,1-.92,1.32A2.4,2.4,0,0,1,65.23,203.24Z"/>
      <path class="cls-4" d="M70.26,204.32a2.44,2.44,0,0,1-1.41-.8,1.9,1.9,0,0,1-.41-1.45l.78.05a1.25,1.25,0,0,0,.27.95,1.55,1.55,0,0,0,.92.53,1.49,1.49,0,0,0,1.1-.13,1.24,1.24,0,0,0,.59-.85,1.23,1.23,0,0,0-.17-1,1.41,1.41,0,0,0-.93-.55,1.23,1.23,0,0,0-.71.05l-.24-.59L72.41,199l-3-.64.15-.71,3.93.84-.15.7-2.11,1.33a1.92,1.92,0,0,1,1.4.74,1.81,1.81,0,0,1,.28,1.54,1.92,1.92,0,0,1-.92,1.32A2.41,2.41,0,0,1,70.26,204.32Z"/>
      <path class="cls-4" d="M73.05,204.85l.14-.7,2.75-1.5a2.5,2.5,0,0,0,1.39-1.47,1.15,1.15,0,0,0-.15-.9,1.38,1.38,0,0,0-1.86-.28,1.47,1.47,0,0,0-.51,1.05l-.76-.22a2,2,0,0,1,.83-1.47,2,2,0,0,1,1.67-.28,2.08,2.08,0,0,1,1.34.82,1.79,1.79,0,0,1,.27,1.46,2.19,2.19,0,0,1-.56,1,5.24,5.24,0,0,1-1.29.91l-2,1.07,3,.65-.15.72Z"/>
    </g>
  </g>
  <g>
    <g class="cls-3">
      <path class="cls-4" d="M196.52,201.84l-2.89-4.41a3,3,0,0,1-.86,1.41l-.4-.62a2.84,2.84,0,0,0,.81-1.72l.54-.35,3.45,5.27Z"/>
      <path class="cls-4" d="M199.83,199.77a2.45,2.45,0,0,1-1.56.43,1.87,1.87,0,0,1-1.32-.72l.58-.52a1.27,1.27,0,0,0,.87.47,1.56,1.56,0,0,0,1-.28,1.5,1.5,0,0,0,.69-.88,1.25,1.25,0,0,0-.2-1,1.2,1.2,0,0,0-.83-.59,1.44,1.44,0,0,0-1.05.27,1.36,1.36,0,0,0-.47.54l-.58-.24.59-2.74L195,196.18l-.4-.61,3.37-2.2.38.59-.54,2.44a1.92,1.92,0,0,1,1.52-.47,1.83,1.83,0,0,1,1.29.88,1.89,1.89,0,0,1,.28,1.58A2.37,2.37,0,0,1,199.83,199.77Z"/>
      <path class="cls-4" d="M202,197.13l.74-.49.51.79-.73.48Z"/>
      <path class="cls-4" d="M204.46,196.65l-2.89-4.41a3,3,0,0,1-.86,1.4l-.4-.61a2.86,2.86,0,0,0,.81-1.72l.54-.35,3.45,5.27Z"/>
      <path class="cls-4" d="M203.68,189.55l.57,1.76-.82.53-.18-2Zm1.12-.73.57,1.76-.83.54-.18-2Z"/>
    </g>
    <g class="cls-3">
      <path class="cls-4" d="M191.07,191.14a2.34,2.34,0,0,1-1.57.43,1.87,1.87,0,0,1-1.31-.72l.58-.52a1.28,1.28,0,0,0,.87.48,1.56,1.56,0,0,0,1-.28,1.44,1.44,0,0,0,.68-.88,1.38,1.38,0,0,0-1-1.61,1.5,1.5,0,0,0-1,.28,1.29,1.29,0,0,0-.47.54l-.58-.24.59-2.74-2.56,1.68-.4-.62,3.36-2.2.39.6-.54,2.44a2,2,0,0,1,1.52-.48,1.85,1.85,0,0,1,1.29.89,1.88,1.88,0,0,1,.28,1.58A2.37,2.37,0,0,1,191.07,191.14Z"/>
      <path class="cls-4" d="M195.37,188.33a2.4,2.4,0,0,1-1.57.43,1.87,1.87,0,0,1-1.31-.72l.58-.52a1.28,1.28,0,0,0,.87.48,1.56,1.56,0,0,0,1-.28,1.47,1.47,0,0,0,.68-.88,1.2,1.2,0,0,0-.19-1,1.25,1.25,0,0,0-.83-.6,1.45,1.45,0,0,0-1.05.28,1.23,1.23,0,0,0-.47.54l-.58-.24.59-2.74-2.56,1.67-.4-.61,3.37-2.2.38.6-.54,2.44a2,2,0,0,1,1.52-.48,1.85,1.85,0,0,1,1.29.89,1.88,1.88,0,0,1,.28,1.58A2.37,2.37,0,0,1,195.37,188.33Z"/>
      <path class="cls-4" d="M197.71,186.72l-.4-.59.87-3a2.47,2.47,0,0,0-.07-2,1.11,1.11,0,0,0-.74-.53,1.18,1.18,0,0,0-.9.22,1.22,1.22,0,0,0-.61.91,1.44,1.44,0,0,0,.38,1.09l-.69.39a2.06,2.06,0,0,1-.46-1.62,2,2,0,0,1,1-1.38,2.12,2.12,0,0,1,1.53-.39,1.8,1.8,0,0,1,1.22.85,2.17,2.17,0,0,1,.34,1.12,4.86,4.86,0,0,1-.26,1.55l-.63,2.16,2.6-1.7.4.62Z"/>
    </g>
  </g>
  <line class="cls-1" x1="82.01" y1="21.49" x2="82.21" y2="29.48"/>
  <g>
    <path class="cls-1" d="M80.18,21a.09.09,0,0,0,0,.07l.11.06a.76.76,0,0,0,.2.06,2.57,2.57,0,0,0,.4.08,7.43,7.43,0,0,0,.81.09"/>
    <line class="cls-1" x1="80.47" y1="68.19" x2="84.91" y2="66.89"/>
    <line class="cls-1" x1="78.85" y1="30.19" x2="83.96" y2="29.12"/>
    <line class="cls-1" x1="160.27" y1="18.63" x2="159.8" y2="147.19"/>
    <path class="cls-1" d="M159.8,146.68a.87.87,0,0,1,.34.32"/>
    <path class="cls-1" d="M160.14,147a.35.35,0,0,1,0,.17"/>
    <path class="cls-1" d="M80.27,20.12a2.28,2.28,0,0,1,.58-.17"/>
    <line class="cls-1" x1="131.2" y1="163.46" x2="131.35" y2="183.09"/>
    <path class="cls-1" d="M83.68,153.9c0,.31.4.51.61.6a4,4,0,0,0,.88.26"/>
    <path class="cls-1" d="M130.1,184.73c.53-.32,1.25-.9,1.25-1.64"/>
    <line class="cls-1" x1="83.68" y1="153.9" x2="83.66" y2="153.23"/>
    <path class="cls-1" d="M133.91,162.89l.09,0"/>
    <path class="cls-1" d="M80.16,20.23c0-.05.07-.09.11-.11"/>
    <line class="cls-1" x1="80.18" y1="20.97" x2="80.16" y2="20.23"/>
    <path class="cls-1" d="M134,162.84l25.76-14.51"/>
    <path class="cls-1" d="M159.76,148.33c.17-.09.42-.27.42-.51"/>
    <line class="cls-1" x1="160.68" y1="17.71" x2="160.67" y2="18.43"/>
    <path class="cls-1" d="M158.83,17.32c.32,0,.64.05,1,.1l.47.08.23.07a.61.61,0,0,1,.14.07s.05,0,.05.07"/>
    <line class="cls-1" x1="80.83" y1="29.77" x2="80.61" y2="21.18"/>
    <path class="cls-1" d="M79.77,68.12a.35.35,0,0,1-.27-.23.8.8,0,0,1-.08-.37"/>
    <path class="cls-1" d="M80.37,68.2h.1"/>
    <line class="cls-1" x1="80.37" y1="68.2" x2="79.77" y2="68.12"/>
    <line class="cls-1" x1="79.42" y1="67.52" x2="78.43" y2="31.02"/>
    <path class="cls-1" d="M78.43,31a1.14,1.14,0,0,1,.09-.48.5.5,0,0,1,.33-.35"/>
    <line class="cls-1" x1="160.18" y1="147.17" x2="160.18" y2="147.82"/>
    <path class="cls-1" d="M115,14.26l43.88,3.06"/>
    <path class="cls-1" d="M80.85,20l29.33-5.53"/>
    <path class="cls-1" d="M110.18,14.42a17.24,17.24,0,0,1,2.38-.2c.8,0,1.59,0,2.39,0"/>
    <path class="cls-1" d="M114.28,183.36a1.42,1.42,0,0,0,.33.84,3.28,3.28,0,0,0,1,.76,8.49,8.49,0,0,0,2,.78,18.34,18.34,0,0,0,4.23.58,23.45,23.45,0,0,0,4.27-.27,12,12,0,0,0,4-1.32"/>
    <line class="cls-1" x1="114.28" y1="183.36" x2="113.95" y2="160.37"/>
    <path class="cls-1" d="M85.17,154.76,129,163.3"/>
    <line class="cls-1" x1="114.28" y1="183.36" x2="113.95" y2="160.37"/>
    <path class="cls-1" d="M114.28,183.36a1.42,1.42,0,0,0,.33.84,3.28,3.28,0,0,0,1,.76,8.49,8.49,0,0,0,2,.78,18.34,18.34,0,0,0,4.23.58,23.45,23.45,0,0,0,4.27-.27,12,12,0,0,0,4-1.32"/>
    <line class="cls-1" x1="85.17" y1="154.76" x2="85.15" y2="154.09"/>
    <line class="cls-1" x1="108.35" y1="158.46" x2="109.77" y2="157.72"/>
    <line class="cls-1" x1="87.09" y1="154.33" x2="108.35" y2="158.46"/>
    <line class="cls-1" x1="143.72" y1="18.9" x2="143.72" y2="19.59"/>
    <line class="cls-1" x1="108.63" y1="21.48" x2="108.63" y2="21.45"/>
    <line class="cls-1" x1="143.57" y1="18.9" x2="143.57" y2="19.22"/>
    <path class="cls-1" d="M110.18,14.42a17.24,17.24,0,0,1,2.38-.2c.8,0,1.59,0,2.39,0"/>
    <path class="cls-1" d="M80.85,20l29.33-5.53"/>
    <path class="cls-1" d="M115,14.26l43.88,3.06"/>
    <line class="cls-1" x1="160.18" y1="147.17" x2="160.18" y2="147.82"/>
    <path class="cls-1" d="M79.46,30.24a.52.52,0,0,0-.33.35,1.16,1.16,0,0,0-.09.49"/>
    <path class="cls-1" d="M78.43,31a1.14,1.14,0,0,1,.09-.48.5.5,0,0,1,.33-.35"/>
    <line class="cls-1" x1="79.04" y1="31.08" x2="80.02" y2="67.59"/>
    <line class="cls-1" x1="79.42" y1="67.52" x2="78.43" y2="31.02"/>
    <line class="cls-1" x1="80.37" y1="68.2" x2="79.77" y2="68.12"/>
    <path class="cls-1" d="M80.37,68.2h.1"/>
    <path class="cls-1" d="M79.77,68.12a.35.35,0,0,1-.27-.23.8.8,0,0,1-.08-.37"/>
    <path class="cls-1" d="M80,67.59a.8.8,0,0,0,.08.37.39.39,0,0,0,.27.24"/>
    <line class="cls-1" x1="80.83" y1="29.77" x2="80.61" y2="21.18"/>
    <path class="cls-1" d="M143.72,18.9a.37.37,0,0,0-.05-.18"/>
    <line class="cls-1" x1="98.24" y1="19.85" x2="98.23" y2="19.15"/>
    <line class="cls-1" x1="132.8" y1="21.37" x2="132.8" y2="21.39"/>
    <line class="cls-1" x1="108.55" y1="21.6" x2="108.55" y2="21.47"/>
    <line class="cls-1" x1="98.38" y1="19.47" x2="98.38" y2="19.15"/>
    <path class="cls-1" d="M98.42,19.32c.29.57,1.9,1,2.36,1.08.86.21,1.72.36,2.6.49,1.74.26,3.49.43,5.25.56"/>
    <path class="cls-1" d="M127.8,24.16,81.72,20.59"/>
    <path class="cls-1" d="M107.72,21.84a.48.48,0,0,1,.39-.27"/>
    <line class="cls-1" x1="82" y1="21.28" x2="82.01" y2="21.35"/>
    <path class="cls-1" d="M85.41,154a3.58,3.58,0,0,1-.79-.23c-.2-.08-.55-.27-.56-.55"/>
    <path class="cls-1" d="M133.1,24a15.63,15.63,0,0,1-2.64.25,26.24,26.24,0,0,1-2.66-.05"/>
    <path class="cls-1" d="M96.24,18.41c-.24.12-.76.41-.75.78"/>
    <line class="cls-1" x1="159.76" y1="147.68" x2="159.76" y2="148.33"/>
    <path class="cls-1" d="M159.76,147.68,134,162.15"/>
    <path class="cls-1" d="M158.83,17.32c.32,0,.64.05,1,.1l.47.08.23.07a.61.61,0,0,1,.14.07s.05,0,.05.07"/>
    <line class="cls-1" x1="160.68" y1="17.71" x2="160.67" y2="18.43"/>
    <line class="cls-1" x1="133.8" y1="161.97" x2="133.61" y2="162.08"/>
    <path class="cls-1" d="M159.76,148.33c.17-.09.42-.27.42-.51"/>
    <path class="cls-1" d="M134,162.84l25.76-14.51"/>
    <line class="cls-1" x1="80.18" y1="20.97" x2="80.16" y2="20.23"/>
    <path class="cls-1" d="M80.16,20.23c0-.05.07-.09.11-.11"/>
    <path class="cls-1" d="M133.91,162.89l.09,0"/>
    <line class="cls-1" x1="83.68" y1="153.9" x2="83.66" y2="153.23"/>
    <line class="cls-1" x1="85.7" y1="154.03" x2="87.07" y2="153.36"/>
    <line class="cls-1" x1="85.7" y1="154.03" x2="85.41" y2="153.97"/>
    <line class="cls-1" x1="134.81" y1="161.46" x2="147.87" y2="154.13"/>
    <line class="cls-1" x1="148.71" y1="153.67" x2="159.42" y2="147.65"/>
    <path class="cls-1" d="M130.1,184.73c.53-.32,1.25-.9,1.25-1.64"/>
    <line class="cls-1" x1="147.87" y1="153.51" x2="148.71" y2="153.67"/>
    <path class="cls-1" d="M83.68,153.9c0,.31.4.51.61.6a4,4,0,0,0,.88.26"/>
    <line class="cls-1" x1="131.2" y1="163.46" x2="131.35" y2="183.09"/>
    <path class="cls-1" d="M85.15,154.09c-.36-.07-1.23-.27-1.45-.69"/>
    <line class="cls-1" x1="82.31" y1="21.38" x2="82.51" y2="29.42"/>
    <line class="cls-1" x1="148.61" y1="21.25" x2="148.71" y2="153.67"/>
    <path class="cls-1" d="M80.27,20.12a2.28,2.28,0,0,1,.58-.17"/>
    <path class="cls-1" d="M160.68,17.71s-.06.08-.08.09a.67.67,0,0,1-.12.06l-.25.06"/>
    <path class="cls-1" d="M160.14,147a.35.35,0,0,1,0,.17"/>
    <path class="cls-1" d="M144.66,18.46a4.26,4.26,0,0,1,1.62.81"/>
    <line class="cls-1" x1="133.79" y1="161.27" x2="134.81" y2="161.46"/>
    <path class="cls-1" d="M97.28,18.72a4.31,4.31,0,0,0-1.62.83"/>
    <path class="cls-1" d="M80.16,20.26v0"/>
    <path class="cls-1" d="M159.8,146.68a.87.87,0,0,1,.34.32"/>
    <line class="cls-1" x1="83.48" y1="67.3" x2="85.7" y2="154.03"/>
    <path class="cls-1" d="M127.81,24.92a23.45,23.45,0,0,0,2.65.06,15.63,15.63,0,0,0,2.64-.25"/>
    <path class="cls-1" d="M81.73,21.33l46.08,3.59"/>
    <path class="cls-1" d="M108.55,21.47c-1.89-.14-4-.35-5.88-.66a21.77,21.77,0,0,1-2.88-.64,6.26,6.26,0,0,1-.82-.31,2.08,2.08,0,0,1-.51-.32c-.53-.46,0-.85.44-1.09"/>
    <path class="cls-1" d="M108.63,21.45a166.42,166.42,0,0,0,23.42,0c1.95-.14,3.89-.33,5.82-.61.71-.11,1.4-.22,2.1-.36.54-.11,1.07-.23,1.61-.38a7.67,7.67,0,0,0,1.19-.42,3.11,3.11,0,0,0,.4-.22,1.22,1.22,0,0,0,.27-.23.41.41,0,0,0,0-.56,1.22,1.22,0,0,0-.32-.28,3.4,3.4,0,0,0-.54-.27,11.44,11.44,0,0,0-1.7-.51c-.79-.18-1.59-.32-2.4-.44-1.9-.28-3.91-.47-5.83-.6"/>
    <path class="cls-1" d="M99,18.46a1.76,1.76,0,0,0-.49.33.44.44,0,0,0-.13.53"/>
    <path class="cls-1" d="M108.55,21.47a167.33,167.33,0,0,0,17.35.3c2.89-.09,5.78-.26,8.66-.54,1.44-.14,2.87-.31,4.3-.55.85-.14,1.68-.3,2.51-.51.32-.08.64-.17.95-.28a6.59,6.59,0,0,0,.73-.3"/>
    <path class="cls-1" d="M143.67,18.72c-.3-.6-2-1-2.52-1.12-.92-.22-1.85-.37-2.78-.51-1.86-.26-3.73-.43-5.6-.57"/>
    <line class="cls-1" x1="159.42" y1="147.65" x2="159.87" y2="18.72"/>
    <line class="cls-1" x1="160.27" y1="18.63" x2="159.8" y2="147.19"/>
    <path class="cls-1" d="M98.9,18.45a6.59,6.59,0,0,1,.73-.3c.31-.11.63-.2,1-.28.8-.21,1.61-.36,2.43-.5,1.4-.23,2.81-.4,4.22-.54,2.83-.29,5.66-.45,8.51-.55a169.76,169.76,0,0,1,17,.24"/>
    <path class="cls-1" d="M134.14,16.25A189.39,189.39,0,0,0,115.08,16c-3.11.11-6.42.31-9.52.62-1.58.16-3.16.35-4.72.61-.92.15-1.82.32-2.72.56-.36.09-.71.19-1.06.31a5.9,5.9,0,0,0-.82.34"/>
    <path class="cls-1" d="M95.49,19.19a.64.64,0,0,0,.28.46,3.38,3.38,0,0,0,.83.46,10.44,10.44,0,0,0,1.44.45c1,.25,2,.42,3,.57,1.93.3,4.06.51,6,.66"/>
    <path class="cls-1" d="M129,162.61l-43.83-8.52"/>
    <path class="cls-1" d="M133.29,16.43c2.12.15,4.48.37,6.58.7a25.57,25.57,0,0,1,3.24.69,6.51,6.51,0,0,1,1.52.63,1.94,1.94,0,0,1,.58.49,1.35,1.35,0,0,1,.32.82"/>
    <path class="cls-1" d="M108.11,21.57a171.05,171.05,0,0,0,18,.31c2.92-.09,6.06-.27,9-.56,1.49-.15,3-.33,4.46-.57.57-.1,1.14-.2,1.7-.33s.91-.21,1.35-.35a5.59,5.59,0,0,0,.89-.33,1.23,1.23,0,0,0,.25-.14l.1-.07"/>
    <line class="cls-1" x1="132.89" y1="24.77" x2="133.8" y2="161.97"/>
    <line class="cls-1" x1="106.1" y1="23.23" x2="108.35" y2="158.46"/>
    <line class="cls-1" x1="83.77" y1="21.49" x2="87.09" y2="154.33"/>
    <path class="cls-1" d="M132.69,16.54a167.53,167.53,0,0,0-16.92-.24c-2.82.1-5.64.26-8.45.54-1.4.14-2.8.31-4.2.54-.81.14-1.61.29-2.41.5-.32.08-.63.17-.94.28a5.1,5.1,0,0,0-.73.3"/>
    <path class="cls-1" d="M143.05,19.59c.21-.11.67-.36.67-.69"/>
    <line class="cls-1" x1="83.19" y1="67.39" x2="85.41" y2="153.97"/>
    <line class="cls-1" x1="84.06" y1="153.19" x2="81.83" y2="67.79"/>
    <path class="cls-1" d="M81.72,20.59c-.27,0-.54,0-.8-.08-.11,0-.68-.1-.76-.25"/>
    <path class="cls-1" d="M107,21.79a188.37,188.37,0,0,0,20,.32c3.25-.12,6.76-.33,10-.68,1.66-.17,3.32-.39,5-.69.62-.12,1.23-.25,1.84-.41a11.51,11.51,0,0,0,1.41-.44,3.79,3.79,0,0,0,.91-.48.72.72,0,0,0,.31-.5"/>
    <path class="cls-1" d="M96.42,20a1.46,1.46,0,0,1,.46-1,2.91,2.91,0,0,1,.84-.55,8.46,8.46,0,0,1,1.09-.42c.45-.14.92-.26,1.39-.36.7-.16,1.41-.29,2.12-.41s1.7-.25,2.56-.36c3-.36,6.4-.59,9.45-.71a173.8,173.8,0,0,1,19,.21"/>
    <path class="cls-1" d="M98.16,19.78h0l.06.05.23.12a6.72,6.72,0,0,0,.85.32c.4.12.81.22,1.23.31.83.18,1.66.32,2.5.44,1.69.24,3.37.4,5.06.53"/>
    <line class="cls-1" x1="83.97" y1="29.29" x2="79.46" y2="30.24"/>
    <line class="cls-1" x1="78.85" y1="30.19" x2="83.96" y2="29.12"/>
    <line class="cls-1" x1="80.47" y1="68.19" x2="84.91" y2="66.89"/>
    <path class="cls-1" d="M146.44,18.91a.67.67,0,0,0-.3-.49,3.36,3.36,0,0,0-.9-.47,11.43,11.43,0,0,0-1.54-.47c-1-.25-2.1-.43-3.16-.58-2.06-.3-4.33-.51-6.4-.65"/>
    <path class="cls-1" d="M160.23,18.64l.25-.07.11-.05s.08-.05.08-.09"/>
    <path class="cls-1" d="M133.1,24.73l27.13-6.09"/>
    <path class="cls-1" d="M129,163.3a9.9,9.9,0,0,0,2.49.14,6.82,6.82,0,0,0,2.43-.55"/>
    <line class="cls-1" x1="160.23" y1="17.92" x2="160.23" y2="18.64"/>
    <path class="cls-1" d="M133.61,162.08a6,6,0,0,1-2.22.53,9.33,9.33,0,0,1-2.3-.12"/>
    <path class="cls-1" d="M85.17,154.76,129,163.3"/>
    <path class="cls-1" d="M160.23,17.92,133.1,24"/>
    <path class="cls-1" d="M80.18,21a.09.09,0,0,0,0,.07l.11.06a.76.76,0,0,0,.2.06,2.57,2.57,0,0,0,.4.08,7.43,7.43,0,0,0,.81.09"/>
    <path class="cls-1" d="M83.7,153.4a.4.4,0,0,1,0-.41,1,1,0,0,1,.32-.29"/>
    <path class="cls-1" d="M160.18,147.17c0,.24-.25.42-.42.51"/>
    <path class="cls-1" d="M134,162.15a6.68,6.68,0,0,1-2.47.6,10.38,10.38,0,0,1-2.55-.14"/>
    <path class="cls-1" d="M159.8,147.19c0,.22-.23.38-.38.46"/>
    <line class="cls-1" x1="147.74" y1="21.45" x2="147.87" y2="154.13"/>
    <line class="cls-1" x1="133.97" y1="24.54" x2="134.81" y2="161.46"/>
    <line class="cls-1" x1="107.61" y1="23.35" x2="109.78" y2="158.74"/>
    <line class="cls-1" x1="109.78" y1="158.74" x2="129.09" y2="162.49"/>
    <line class="cls-1" x1="132.69" y1="24.82" x2="133.61" y2="162.08"/>
  </g>
  <line class="cls-1" x1="129.69" y1="191.48" x2="89.62" y2="215.46"/>
  <line class="cls-5" x1="136.34" y1="190.93" x2="187.65" y2="201.79"/>
  <line class="cls-5" x1="34.66" y1="168.63" x2="81.17" y2="177.79"/>
  <path class="cls-6" d="M76.23,19.41c-.17-.12-46.09-3.31-46.09-3.31"/>
  <g>
    <g class="cls-3">
      <path class="cls-4" d="M46.55,103.35a2.38,2.38,0,0,1-.46,1.55,1.88,1.88,0,0,1-1.31.74l-.13-.77a1.24,1.24,0,0,0,.86-.49,1.54,1.54,0,0,0,.3-1,1.5,1.5,0,0,0-.38-1,1.23,1.23,0,0,0-1-.37,1.17,1.17,0,0,0-.94.39,1.45,1.45,0,0,0-.32,1,1.3,1.3,0,0,0,.21.69l-.51.36-2-1.94.07,3.05-.73,0-.09-4,.72,0,1.78,1.75a2,2,0,0,1,.4-1.54,1.82,1.82,0,0,1,1.43-.62,1.88,1.88,0,0,1,1.49.59A2.44,2.44,0,0,1,46.55,103.35Z"/>
      <path class="cls-4" d="M46.43,98.09A2.41,2.41,0,0,1,46,99.73a1.68,1.68,0,0,1-1.35.66,1.62,1.62,0,0,1-1-.31,1.68,1.68,0,0,1-.62-.85,1.6,1.6,0,0,1-.53.69,1.41,1.41,0,0,1-.77.27,1.48,1.48,0,0,1-1.21-.52A2.17,2.17,0,0,1,40,98.23a2.11,2.11,0,0,1,.43-1.43,1.47,1.47,0,0,1,1.18-.57,1.29,1.29,0,0,1,.79.24,1.49,1.49,0,0,1,.55.66,1.75,1.75,0,0,1,.59-.88,1.55,1.55,0,0,1,1-.34,1.67,1.67,0,0,1,1.38.58A2.44,2.44,0,0,1,46.43,98.09Zm-3.77.08a1.23,1.23,0,0,0-.29-.83.9.9,0,0,0-.72-.31.88.88,0,0,0-.72.33,1.27,1.27,0,0,0-.25.85,1.36,1.36,0,0,0,.29.88.89.89,0,0,0,.73.3.91.91,0,0,0,.71-.35A1.27,1.27,0,0,0,42.66,98.17Zm3.06-.06a1.49,1.49,0,0,0-.35-1,1.08,1.08,0,0,0-.86-.37,1.09,1.09,0,0,0-.84.4,1.49,1.49,0,0,0-.31,1,1.56,1.56,0,0,0,.35,1,1.06,1.06,0,0,0,.86.37,1,1,0,0,0,.85-.41A1.55,1.55,0,0,0,45.72,98.11Z"/>
      <path class="cls-4" d="M45.35,94.92V94l.93,0,0,.88Z"/>
      <path class="cls-4" d="M46.24,92.61,41,92.72a3,3,0,0,1,.73,1.48l-.73,0a2.75,2.75,0,0,0-1-1.6l0-.65,6.3-.14Z"/>
      <path class="cls-4" d="M39.8,89.51l1.79.45,0,1L39.81,90Zm0-1.33,1.79.44,0,1-1.8-.91Z"/>
    </g>
    <g class="cls-3">
      <path class="cls-4" d="M32.53,102.27a2.2,2.2,0,0,1-.57,1.61,2.08,2.08,0,0,1-1.52.66,2,2,0,0,1-1.56-.61,2.25,2.25,0,0,1-.64-1.63,2.05,2.05,0,0,1,.75-1.71,3.18,3.18,0,0,1,2.07-.69,3.91,3.91,0,0,1,2.65.74,2.65,2.65,0,0,1,1,2.09,2.61,2.61,0,0,1-.54,1.73l-.64-.39a2,2,0,0,0,.44-1.33,1.93,1.93,0,0,0-.7-1.5,2.46,2.46,0,0,0-1.7-.59,1.68,1.68,0,0,1,.7.65A1.89,1.89,0,0,1,32.53,102.27Zm-3.18-1a1.54,1.54,0,0,0,0,2.08,1.48,1.48,0,0,0,1.05.39,1.36,1.36,0,0,0,1-.43,1.48,1.48,0,0,0,.38-1,1.41,1.41,0,0,0-.43-1,1.34,1.34,0,0,0-1-.39A1.45,1.45,0,0,0,29.35,101.24Z"/>
      <path class="cls-4" d="M30.27,96.77a2.19,2.19,0,0,1,.56-1.61,2.12,2.12,0,0,1,1.53-.66,2,2,0,0,1,1.56.61,2.31,2.31,0,0,1,.64,1.63,2.05,2.05,0,0,1-.75,1.71,3.17,3.17,0,0,1-2.08.69,3.87,3.87,0,0,1-2.64-.74,2.66,2.66,0,0,1-1-2.09,2.72,2.72,0,0,1,.54-1.73l.65.4a1.92,1.92,0,0,0-.46,1.32,2,2,0,0,0,.71,1.5,2.47,2.47,0,0,0,1.71.59,1.64,1.64,0,0,1-.71-.65A1.88,1.88,0,0,1,30.27,96.77Zm3.17,1a1.43,1.43,0,0,0,.38-1,1.41,1.41,0,0,0-.43-1,1.44,1.44,0,0,0-1-.39,1.36,1.36,0,0,0-1,.43,1.55,1.55,0,0,0,0,2.08,1.37,1.37,0,0,0,1,.39A1.39,1.39,0,0,0,33.44,97.8Z"/>
      <path class="cls-4" d="M34.41,93.25a11.58,11.58,0,0,1-5.63-2.67l.08,3.53-.73,0L28,89.75l.73,0q3.42,2.53,5.63,2.69Z"/>
    </g>
  </g>
</svg>
