<?xml version="1.0" encoding="UTF-8"?>
<svg vector-effect="non-scaling-stroke" id="Vrstva_1" data-name="Vrstva 1" xmlns="http://www.w3.org/2000/svg" viewBox="0 0 283.46 226.77">
  <defs>
    <style>
      .cls-1 {
        fill: #ffffff;
        stroke: #ffffff;
        stroke-miterlimit: 10;
      }

      .cls-1, .cls-2 {
        stroke-width: .5px;
      }

      .cls-3 {
        isolation: isolate;
      }

      .cls-4 {
        fill: #2d4a72;
        stroke-width: 0px;
      }

      .cls-2 {
        fill: none;
        stroke: #cfe0fa;
        stroke-linecap: round;
        stroke-linejoin: round;
      }
    </style>
  </defs>
  <line class="cls-2" x1="47.11" y1="148.26" x2="7.69" y2="126.57"/>
  <line class="cls-2" x1="118.35" y1="153.37" x2="274.92" y2="107.89"/>
  <path class="cls-2" d="m246.99,92.42c10.63,5.87,21.26,11.74,31.9,17.61"/>
  <path class="cls-2" d="m122.72,155.79c-10.39-5.72-20.78-11.45-31.18-17.17"/>
  <path class="cls-2" d="m41.2,150c13.89-4.04,27.79-8.09,41.68-12.13"/>
  <path class="cls-2" d="m3.42,127.8c13.71-3.98,27.41-7.96,41.12-11.94"/>
  <path class="cls-2" d="m45.22,113.14c-10.71-5.9-21.43-11.79-32.14-17.69"/>
  <line class="cls-2" x1="16.86" y1="40.28" x2="16.86" y2="97.53"/>
  <path class="cls-2" d="m47.61,57.21c-11.51-6.34-23.02-12.69-34.53-19.03"/>
  <line class="cls-2" x1="130.86" y1="61.09" x2="130.34" y2="61.24"/>
  <line class="cls-2" x1="132.98" y1="62.6" x2="132.46" y2="62.76"/>
  <line class="cls-2" x1="135.1" y1="64.12" x2="134.58" y2="64.27"/>
  <line class="cls-2" x1="128.75" y1="59.58" x2="128.22" y2="59.73"/>
  <line class="cls-2" x1="124.42" y1="57.14" x2="123.9" y2="57.29"/>
  <line class="cls-2" x1="122.26" y1="55.95" x2="121.74" y2="56.1"/>
  <line class="cls-2" x1="120.1" y1="54.76" x2="119.58" y2="54.91"/>
  <line class="cls-2" x1="117.94" y1="53.57" x2="117.42" y2="53.72"/>
  <line class="cls-2" x1="115.78" y1="52.38" x2="115.26" y2="52.53"/>
  <line class="cls-2" x1="113.62" y1="51.19" x2="113.1" y2="51.34"/>
  <line class="cls-2" x1="111.46" y1="50" x2="110.93" y2="50.16"/>
  <line class="cls-2" x1="109.3" y1="48.81" x2="108.77" y2="48.96"/>
  <line class="cls-2" x1="107.17" y1="47.93" x2="106.65" y2="48.08"/>
  <line class="cls-2" x1="105.05" y1="47.11" x2="104.53" y2="47.27"/>
  <line class="cls-2" x1="102.94" y1="46.29" x2="102.41" y2="46.45"/>
  <line class="cls-2" x1="136.2" y1="65.5" x2="135.67" y2="65.65"/>
  <line class="cls-2" x1="135.67" y1="65.65" x2="135.66" y2="65.87"/>
  <path class="cls-2" d="m81.68,76.81c0-.08.01-.16.04-.24s.08-.15.16-.17"/>
  <path class="cls-2" d="m239.57,31.58c0-.18-.05-.37-.14-.53-.04-.08-.1-.16-.17-.22-.07-.06-.16-.11-.25-.08"/>
  <path class="cls-2" d="m82.44,77.22c0,.08-.01.16-.04.24-.03.07-.08.15-.16.17"/>
  <path class="cls-2" d="m81.88,76.39c.1-.03.19.02.25.08.07.06.13.14.17.22.09.16.14.35.14.53"/>
  <path class="cls-2" d="m52.17,115.2s-.1.03-.14.05"/>
  <line class="cls-2" x1="51.89" y1="116.6" x2="55.61" y2="115.53"/>
  <line class="cls-2" x1="53.34" y1="113.92" x2="55.61" y2="115.17"/>
  <path class="cls-2" d="m53.49,115.31c-.09-.06-.21-.1-.31-.13-.11-.03-.22-.04-.34-.05-.22-.01-.46,0-.67.07"/>
  <path class="cls-2" d="m58.75,63.5c0,.08-.01.16-.04.24-.03.07-.08.15-.16.17"/>
  <path class="cls-2" d="m215.68,18.27c.08-.02.13-.1.16-.17.03-.08.04-.16.04-.24"/>
  <path class="cls-2" d="m58.55,63.91c-.09.03-.18-.02-.25-.08-.07-.06-.13-.14-.17-.22-.09-.16-.14-.35-.14-.53"/>
  <path class="cls-2" d="m58.19,62.66c-.08.02-.13.1-.16.17-.03.08-.04.16-.04.24"/>
  <path class="cls-2" d="m215.32,17.02c.09-.03.19.02.25.08.07.06.13.14.17.22.09.16.14.35.14.53"/>
  <path class="cls-2" d="m58.75,63.5c0-.18-.05-.38-.14-.53-.04-.08-.1-.16-.17-.22-.07-.06-.16-.11-.25-.08"/>
  <path class="cls-2" d="m75.28,72.59c0-.08.01-.16.04-.24.03-.07.08-.15.16-.17"/>
  <path class="cls-2" d="m233.17,27.37c0-.18-.05-.38-.14-.53-.04-.08-.1-.16-.17-.22-.07-.06-.16-.11-.25-.08"/>
  <path class="cls-2" d="m76.04,73.01c0,.08-.01.16-.04.24-.03.07-.08.15-.16.17"/>
  <path class="cls-2" d="m233.17,27.37c0,.08-.01.16-.04.24-.03.07-.08.15-.16.17"/>
  <path class="cls-2" d="m75.48,72.18c.1-.03.19.02.26.08.07.06.12.14.17.22.09.16.14.35.14.53"/>
  <path class="cls-2" d="m205.11,70.42c.24-.07.54-.08.78-.05.13.02.26.04.38.09.06.02.12.05.17.09.03.02.05.05.07.08.02.02.03.05.03.09"/>
  <line class="cls-2" x1="204.83" y1="72.18" x2="208.55" y2="71.1"/>
  <path class="cls-2" d="m205.11,70.77s-.1.03-.14.05"/>
  <path class="cls-2" d="m206.43,70.89c-.09-.06-.21-.11-.31-.13-.11-.03-.22-.04-.34-.05-.22-.01-.46,0-.67.07"/>
  <path class="cls-2" d="m206.17,71.01c-.19.05-.41.08-.62.07-.19,0-.42-.04-.6-.12"/>
  <line class="cls-2" x1="103.87" y1="49.4" x2="103.74" y2="49.35"/>
  <line class="cls-2" x1="122.05" y1="58.65" x2="121.5" y2="58.34"/>
  <line class="cls-2" x1="129.03" y1="62.7" x2="128.26" y2="62.14"/>
  <path class="cls-2" d="m132.46,62.76c0,.07-.02.14-.05.21-.03.06-.08.12-.15.14"/>
  <line class="cls-2" x1="132.46" y1="62.76" x2="133.53" y2="63.52"/>
  <line class="cls-2" x1="126.06" y1="58.48" x2="127.04" y2="59.02"/>
  <path class="cls-2" d="m126.06,58.48c0,.08-.01.16-.04.24s-.08.15-.16.17"/>
  <line class="cls-2" x1="108.77" y1="48.96" x2="109.75" y2="49.51"/>
  <path class="cls-2" d="m108.77,48.96c0,.08-.01.17-.04.24-.03.07-.08.15-.16.17"/>
  <line class="cls-2" x1="215.82" y1="18.39" x2="216.19" y2="18.59"/>
  <path class="cls-2" d="m242.55,36.95s.07-.05.1-.08"/>
  <path class="cls-2" d="m211.63,19.61s-.08-.04-.12-.05"/>
  <path class="cls-2" d="m215.7,18.33s.08.03.12.05"/>
  <path class="cls-2" d="m243.65,35.6c-.01.12-.05.22-.12.32"/>
  <path class="cls-2" d="m243.35,36.18s0,0,0-.01"/>
  <line class="cls-2" x1="211.51" y1="19.55" x2="211.41" y2="19.51"/>
  <line class="cls-2" x1="232.92" y1="27.8" x2="233.48" y2="28.1"/>
  <line class="cls-2" x1="215.6" y1="18.29" x2="215.7" y2="18.33"/>
  <path class="cls-2" d="m233.89,33.59s.1.07.15.11c.1.07.2.14.29.21l.29.21s.03.02.05.03"/>
  <line class="cls-2" x1="209.41" y1="18.74" x2="209.29" y2="18.69"/>
  <line class="cls-2" x1="231.3" y1="26.92" x2="230.75" y2="26.61"/>
  <path class="cls-2" d="m53.23,115.43c-.19.05-.41.08-.62.07-.19,0-.42-.04-.6-.13"/>
  <path class="cls-2" d="m242.5,37.64c.23-.07.47-.17.67-.3.2-.14.38-.34.4-.6"/>
  <path class="cls-2" d="m205.34,67.8c0-.06.02-.12.04-.18.02-.06.04-.11.08-.17.01-.03.03-.05.05-.08.02-.03.03-.06.05-.09.04-.05.08-.11.12-.17"/>
  <line class="cls-2" x1="201.85" y1="70.74" x2="204.32" y2="72.1"/>
  <path class="cls-2" d="m204.32,72.1c.07.04.16.06.23.07.08.01.16.02.25.01"/>
  <path class="cls-2" d="m208.57,71.09s.04-.04.04-.07"/>
  <line class="cls-2" x1="208.57" y1="71.09" x2="208.55" y2="71.08"/>
  <line class="cls-2" x1="206.55" y1="66.43" x2="208.23" y2="65.94"/>
  <line class="cls-2" x1="201.75" y1="70.61" x2="204.21" y2="50.22"/>
  <path class="cls-2" d="m201.75,70.61s.01.06.03.08c.02.02.04.04.07.05"/>
  <path class="cls-2" d="m208.93,66.25s-.01.07-.03.11c0,.02-.01.04-.02.06,0,.01-.01.02-.02.03,0,0,0,.01,0,.02,0,0,0,0,0,0h0"/>
  <line class="cls-2" x1="209.11" y1="66.7" x2="208.57" y2="71.09"/>
  <path class="cls-2" d="m209.01,66.14s.05.08.07.12c.02.04.03.08.03.13,0,.02,0,.04,0,.07,0,.02,0,.05,0,.08,0,.05,0,.11-.01.17"/>
  <path class="cls-2" d="m208.92,66.04s.07.06.09.1"/>
  <path class="cls-2" d="m49.89,63.35c-.04-.61-.08-1.22-.12-1.84"/>
  <line class="cls-2" x1="240.31" y1="39.97" x2="240.43" y2="38.27"/>
  <path class="cls-2" d="m240.31,39.97l1.06-.31c.18-.05.35-.1.53-.15.09-.03.17-.05.26-.08l.13-.04s.04-.01.07-.02.04-.01.07-.02c.17-.05.34-.12.47-.19.14-.08.25-.16.34-.25.09-.09.16-.18.2-.28.02-.06.03-.12.04-.17"/>
  <path class="cls-2" d="m243.6,36.76c-.04.57-.08,1.14-.12,1.71"/>
  <path class="cls-2" d="m243.6,36.76c0,.05-.02.11-.03.16-.04.1-.1.2-.19.29s-.2.17-.34.25c-.14.08-.3.14-.47.19-.02,0-.04.01-.07.02-.02,0-.04.01-.07.02-.04.01-.09.02-.13.04-.09.02-.18.05-.27.08-.18.05-.36.11-.53.16-.36.1-.71.21-1.07.31"/>
  <line class="cls-2" x1="237.79" y1="90.52" x2="240.27" y2="91.88"/>
  <line class="cls-2" x1="241" y1="91.93" x2="244.35" y2="90.95"/>
  <path class="cls-2" d="m244.35,90.95s.09-.03.13-.06c.04-.02.08-.07.08-.12"/>
  <path class="cls-2" d="m240.27,91.88c.1.05.25.08.36.09.12,0,.25,0,.37-.04"/>
  <line class="cls-2" x1="237.69" y1="90.4" x2="232.54" y2="41.99"/>
  <path class="cls-2" d="m237.69,90.4c0,.05.06.1.1.12"/>
  <line class="cls-2" x1="240.43" y1="38.27" x2="240.41" y2="38.25"/>
  <line class="cls-2" x1="234.28" y1="35.67" x2="234.22" y2="35.62"/>
  <line class="cls-2" x1="191.67" y1="47.69" x2="191.15" y2="47.84"/>
  <line class="cls-2" x1="189.55" y1="46.17" x2="189.03" y2="46.33"/>
  <line class="cls-2" x1="187.43" y1="44.66" x2="186.91" y2="44.81"/>
  <line class="cls-2" x1="185.31" y1="43.15" x2="184.79" y2="43.3"/>
  <line class="cls-2" x1="183.15" y1="41.9" x2="182.63" y2="42.05"/>
  <line class="cls-2" x1="180.99" y1="40.71" x2="180.47" y2="40.86"/>
  <line class="cls-2" x1="178.83" y1="39.52" x2="178.31" y2="39.67"/>
  <line class="cls-2" x1="176.67" y1="38.33" x2="176.14" y2="38.48"/>
  <line class="cls-2" x1="174.51" y1="37.14" x2="173.99" y2="37.29"/>
  <line class="cls-2" x1="172.35" y1="35.95" x2="171.82" y2="36.11"/>
  <line class="cls-2" x1="170.19" y1="34.76" x2="169.66" y2="34.91"/>
  <line class="cls-2" x1="168.03" y1="33.57" x2="167.5" y2="33.72"/>
  <line class="cls-2" x1="163.74" y1="31.5" x2="163.22" y2="31.65"/>
  <line class="cls-2" x1="161.62" y1="30.68" x2="161.1" y2="30.83"/>
  <line class="cls-2" x1="159.5" y1="29.87" x2="158.98" y2="30.02"/>
  <line class="cls-2" x1="192.77" y1="49.07" x2="192.24" y2="49.22"/>
  <line class="cls-2" x1="192.24" y1="49.22" x2="192.23" y2="49.43"/>
  <path class="cls-2" d="m55.92,110.44s-.02-.02-.02-.03"/>
  <path class="cls-2" d="m55.9,110.91s.04-.09.06-.12.02-.08.03-.11"/>
  <line class="cls-2" x1="48.91" y1="115.17" x2="51.38" y2="116.53"/>
  <path class="cls-2" d="m51.38,116.53c.07.04.16.06.23.07.08.01.16.02.25.02"/>
  <path class="cls-2" d="m55.63,115.52s.04-.04.04-.08"/>
  <line class="cls-2" x1="53.61" y1="110.85" x2="55.29" y2="110.37"/>
  <path class="cls-2" d="m52.39,112.22c0-.06.02-.12.04-.17.01-.03.02-.06.03-.09.01-.03.03-.06.04-.09.03-.06.06-.11.1-.17.04-.06.08-.11.12-.17"/>
  <line class="cls-2" x1="48.81" y1="115.03" x2="54.78" y2="65.49"/>
  <path class="cls-2" d="m48.81,115.03s.01.06.03.08c.02.02.04.04.07.05"/>
  <path class="cls-2" d="m56.07,110.56s.05.08.07.12c.01.02.02.04.02.06,0,.02.01.04.01.07,0,.05,0,.1,0,.15,0,.05,0,.11-.01.17"/>
  <line class="cls-2" x1="56.16" y1="111.12" x2="55.63" y2="115.52"/>
  <line class="cls-2" x1="55.92" y1="110.42" x2="55.98" y2="110.46"/>
  <path class="cls-2" d="m55.98,110.46s.07.06.09.1"/>
  <line class="cls-2" x1="61.34" y1="68.45" x2="55.68" y2="115.44"/>
  <line class="cls-2" x1="58.67" y1="65.2" x2="58.69" y2="65.21"/>
  <path class="cls-2" d="m58.67,65.2s-.01,0-.02,0"/>
  <line class="cls-2" x1="230.45" y1="32.93" x2="230.76" y2="33.15"/>
  <line class="cls-2" x1="57.41" y1="66.51" x2="54.9" y2="65.54"/>
  <path class="cls-2" d="m239.37,32c.08-.02.13-.1.16-.17.03-.08.04-.16.04-.24"/>
  <line class="cls-2" x1="51.89" y1="116.4" x2="51.89" y2="116.6"/>
  <line class="cls-2" x1="51.87" y1="116.59" x2="51.89" y2="116.6"/>
  <path class="cls-2" d="m52.07,114.87s.07-.02.1-.03"/>
  <line class="cls-2" x1="204.83" y1="71.97" x2="204.83" y2="72.18"/>
  <line class="cls-2" x1="204.81" y1="72.17" x2="204.83" y2="72.18"/>
  <path class="cls-2" d="m205.01,70.45s.07-.02.1-.03"/>
  <path class="cls-2" d="m204.88,14.92s.1-.02.14-.03c.07-.01.14-.02.22-.03"/>
  <line class="cls-2" x1="206.14" y1="34.22" x2="206.2" y2="33.74"/>
  <line class="cls-2" x1="205.38" y1="40.52" x2="205.48" y2="39.71"/>
  <path class="cls-2" d="m243.58,36.59s0,.01,0,.02c0,.05.01.1,0,.15"/>
  <line class="cls-2" x1="232.54" y1="32.63" x2="231.77" y2="32.08"/>
  <line class="cls-2" x1="160.44" y1="32.96" x2="160.31" y2="32.92"/>
  <line class="cls-2" x1="178.62" y1="42.22" x2="178.06" y2="41.91"/>
  <line class="cls-2" x1="185.6" y1="46.27" x2="184.82" y2="45.71"/>
  <line class="cls-2" x1="55.61" y1="115.5" x2="55.63" y2="115.52"/>
  <line class="cls-2" x1="212.38" y1="39.84" x2="212.28" y2="40.65"/>
  <line class="cls-2" x1="213.14" y1="33.54" x2="213.08" y2="34.03"/>
  <line class="cls-2" x1="225.2" y1="30.04" x2="225.76" y2="30.34"/>
  <line class="cls-2" x1="126.59" y1="58.33" x2="126.06" y2="58.48"/>
  <line class="cls-2" x1="55.61" y1="115.17" x2="51.91" y2="116.25"/>
  <line class="cls-2" x1="208.55" y1="70.75" x2="204.85" y2="71.82"/>
  <line class="cls-2" x1="227.32" y1="29.42" x2="227.88" y2="29.73"/>
  <line class="cls-2" x1="227.13" y1="28.13" x2="226.57" y2="27.82"/>
  <line class="cls-2" x1="239.27" y1="32.03" x2="240.05" y2="32.58"/>
  <path class="cls-2" d="m233.74,32.29s-.08-.05-.11-.08c-.2-.14-.4-.28-.6-.42l-.07-.05"/>
  <line class="cls-2" x1="211.63" y1="19.61" x2="212" y2="19.81"/>
  <line class="cls-2" x1="228.72" y1="29.02" x2="229.28" y2="29.32"/>
  <line class="cls-2" x1="207" y1="20.79" x2="207.69" y2="21.06"/>
  <line class="cls-2" x1="189.03" y1="46.33" x2="190.1" y2="47.09"/>
  <path class="cls-2" d="m189.03,46.33c0,.07-.02.14-.05.21s-.08.12-.15.14"/>
  <line class="cls-2" x1="182.63" y1="42.05" x2="183.61" y2="42.59"/>
  <path class="cls-2" d="m182.63,42.05c0,.08-.01.16-.04.24-.03.07-.08.15-.16.17"/>
  <line class="cls-2" x1="165.34" y1="32.54" x2="166.32" y2="33.07"/>
  <path class="cls-2" d="m165.34,32.54c0,.08-.01.16-.04.24-.03.07-.08.15-.16.17"/>
  <path class="cls-2" d="m83.8,78.32c0-.08.01-.17.04-.24.03-.08.08-.15.16-.17"/>
  <path class="cls-2" d="m241.69,33.1c0-.18-.05-.38-.14-.53-.04-.08-.1-.16-.17-.22-.07-.06-.16-.11-.25-.08"/>
  <path class="cls-2" d="m84.56,78.74c0,.08-.01.16-.04.24-.03.07-.08.15-.16.17"/>
  <path class="cls-2" d="m84,77.91c.1-.03.19.02.25.08.07.06.13.14.17.22.09.16.14.35.14.53"/>
  <path class="cls-2" d="m70.96,70.21c0-.08.01-.16.04-.24s.08-.15.16-.17"/>
  <path class="cls-2" d="m228.85,24.99c0-.18-.05-.37-.14-.53-.04-.08-.1-.16-.17-.22-.07-.06-.16-.11-.25-.08"/>
  <path class="cls-2" d="m71.72,70.63c0,.08-.01.16-.04.24-.03.08-.08.15-.16.17"/>
  <path class="cls-2" d="m71.16,69.8c.1-.03.19.02.25.08.07.06.13.14.17.22.09.16.14.35.14.53"/>
  <path class="cls-2" d="m228.65,25.4c.08-.02.13-.1.16-.17s.04-.16.04-.24"/>
  <path class="cls-2" d="m68.79,69.02c0-.08.01-.17.04-.24.03-.07.08-.15.16-.17"/>
  <path class="cls-2" d="m226.69,23.8c0-.18-.05-.38-.14-.53-.04-.08-.1-.16-.17-.22s-.16-.11-.26-.08"/>
  <path class="cls-2" d="m69.36,69.85c.09-.02.13-.1.16-.17.03-.08.04-.16.04-.24"/>
  <path class="cls-2" d="m69,68.61c.09-.03.19.02.25.08.07.06.13.14.17.22.08.16.14.35.14.53"/>
  <path class="cls-2" d="m238.87,35.95s-.09-.04-.14-.02"/>
  <path class="cls-2" d="m238.9,35.97s-.02-.01-.03-.02"/>
  <line class="cls-2" x1="238.9" y1="35.97" x2="240.18" y2="36.89"/>
  <path class="cls-2" d="m240.16,39.78c.06-.02.1-.07.12-.12s.03-.11.04-.17"/>
  <path class="cls-2" d="m226.49,24.21c.08-.02.13-.1.16-.17.03-.08.04-.16.04-.24"/>
  <line class="cls-2" x1="53.03" y1="59.02" x2="201.78" y2="15.81"/>
  <path class="cls-2" d="m53.03,59.02s.08,0,.11.01"/>
  <line class="cls-2" x1="53.14" y1="59.03" x2="54.33" y2="59.48"/>
  <path class="cls-2" d="m52.39,61.04c0,.08-.01.16-.04.24-.03.07-.08.15-.16.17"/>
  <path class="cls-2" d="m209.53,15.4c0-.18-.05-.38-.14-.53-.04-.08-.1-.16-.17-.22-.07-.05-.16-.11-.25-.08"/>
  <path class="cls-2" d="m209.32,15.81c.09-.02.13-.1.16-.17.03-.08.04-.16.04-.24"/>
  <path class="cls-2" d="m52.2,61.45c-.1.03-.19-.02-.25-.08-.07-.06-.13-.14-.17-.22-.09-.16-.14-.35-.14-.53"/>
  <line class="cls-2" x1="88.05" y1="136.35" x2="91.41" y2="135.38"/>
  <line class="cls-2" x1="84.85" y1="134.94" x2="87.33" y2="136.3"/>
  <path class="cls-2" d="m91.41,135.38s.09-.03.13-.06c.04-.02.08-.07.08-.12"/>
  <path class="cls-2" d="m87.33,136.3c.1.06.25.08.36.09.12,0,.25,0,.37-.04"/>
  <line class="cls-2" x1="84.75" y1="134.83" x2="78.73" y2="78.22"/>
  <path class="cls-2" d="m84.75,134.83c0,.05.06.09.1.12"/>
  <path class="cls-2" d="m77.44,73.78c0-.08.01-.16.04-.24.03-.08.08-.15.16-.17"/>
  <path class="cls-2" d="m235.33,28.56c0-.18-.05-.37-.14-.53-.04-.08-.1-.16-.17-.22-.07-.06-.16-.11-.25-.08"/>
  <path class="cls-2" d="m77.64,73.37c.1-.03.19.02.26.08s.13.14.17.22c.09.16.14.35.14.53"/>
  <path class="cls-2" d="m235.14,28.97c.08-.02.13-.1.16-.17.03-.08.04-.16.04-.24"/>
  <path class="cls-2" d="m241.49,33.51c.08-.02.13-.1.16-.17.03-.08.04-.16.04-.24"/>
  <path class="cls-2" d="m60.91,64.68c0,.08-.01.16-.04.24s-.08.15-.16.17"/>
  <path class="cls-2" d="m60.15,64.27c0-.08.01-.16.04-.24s.08-.15.16-.17"/>
  <path class="cls-2" d="m218.05,19.04c0-.18-.05-.37-.14-.53-.04-.08-.1-.16-.17-.22-.07-.06-.16-.11-.25-.08"/>
  <path class="cls-2" d="m217.85,19.46c.08-.02.13-.1.16-.17.03-.08.04-.16.04-.24"/>
  <path class="cls-2" d="m67.4,68.25c0,.08-.01.16-.04.24-.03.07-.08.15-.16.17"/>
  <path class="cls-2" d="m66.64,67.83c0-.08.01-.16.04-.24.03-.08.08-.15.16-.17"/>
  <path class="cls-2" d="m224.53,22.61c0-.18-.05-.37-.14-.53-.04-.08-.1-.16-.17-.22-.07-.06-.16-.11-.25-.08"/>
  <path class="cls-2" d="m224.33,23.03c.08-.02.13-.1.16-.17s.04-.16.04-.24"/>
  <path class="cls-2" d="m66.84,67.42c.09-.03.19.02.25.08.07.06.13.14.17.22.09.16.14.35.14.53"/>
  <path class="cls-2" d="m73.12,71.4c0-.08.01-.16.04-.24.03-.07.08-.15.16-.17"/>
  <path class="cls-2" d="m231.01,26.18c0-.18-.05-.38-.14-.53-.04-.08-.1-.16-.17-.22-.07-.05-.16-.11-.25-.08"/>
  <path class="cls-2" d="m231.01,26.18c0,.08-.01.16-.04.24-.03.07-.08.15-.16.17"/>
  <path class="cls-2" d="m73.68,72.23c.08-.02.13-.1.16-.17.03-.08.04-.16.04-.24"/>
  <path class="cls-2" d="m73.32,70.99c.1-.03.19.02.25.08.07.06.13.14.17.22.09.16.14.35.14.53"/>
  <path class="cls-2" d="m63.08,65.87c0,.08-.01.17-.04.24-.03.07-.08.15-.16.17"/>
  <path class="cls-2" d="m220.21,20.24c0-.18-.05-.38-.14-.53-.04-.08-.1-.16-.17-.22-.07-.05-.16-.11-.25-.08"/>
  <path class="cls-2" d="m220.01,20.65c.08-.02.13-.1.16-.17.03-.08.04-.16.04-.24"/>
  <path class="cls-2" d="m62.51,65.04c-.08.02-.13.1-.16.17-.03.08-.04.16-.04.24"/>
  <path class="cls-2" d="m63.08,65.87c0-.18-.05-.37-.14-.53-.04-.08-.1-.16-.17-.22-.07-.05-.16-.11-.26-.08"/>
  <path class="cls-2" d="m53.75,61.44c0-.08.01-.16.04-.24.03-.07.08-.15.16-.17"/>
  <path class="cls-2" d="m211.65,16.22c0-.18-.05-.38-.14-.53-.04-.08-.1-.16-.17-.22-.07-.05-.16-.11-.25-.08"/>
  <path class="cls-2" d="m211.44,16.63c.08-.02.13-.1.16-.17.03-.08.04-.16.04-.24"/>
  <path class="cls-2" d="m53.95,61.03c.1-.03.19.02.26.08.07.06.12.14.17.22.09.16.14.35.14.53"/>
  <path class="cls-2" d="m56.63,62.68c0,.08-.01.16-.04.24-.03.07-.08.15-.16.17"/>
  <path class="cls-2" d="m213.77,17.04c0-.18-.05-.38-.14-.53-.04-.08-.1-.16-.17-.22-.07-.06-.16-.11-.25-.08"/>
  <path class="cls-2" d="m213.56,17.45c.08-.02.13-.1.16-.17.03-.08.04-.16.04-.24"/>
  <path class="cls-2" d="m56.43,63.09c-.1.03-.19-.02-.26-.08-.07-.06-.12-.14-.17-.22-.09-.16-.14-.35-.14-.53"/>
  <path class="cls-2" d="m237.45,30.07c0-.18-.05-.37-.14-.53-.04-.08-.1-.16-.17-.22-.07-.06-.16-.11-.25-.08"/>
  <path class="cls-2" d="m80.32,75.71c0,.08-.01.16-.04.24-.03.07-.08.15-.16.17"/>
  <path class="cls-2" d="m65.24,67.06c0,.08-.01.16-.04.24-.03.07-.08.15-.16.17"/>
  <path class="cls-2" d="m64.48,66.64c0-.08.01-.16.04-.24.03-.07.08-.15.16-.17"/>
  <path class="cls-2" d="m222.37,21.42c0-.18-.05-.38-.14-.53-.04-.08-.1-.16-.17-.22-.07-.06-.16-.11-.25-.08"/>
  <path class="cls-2" d="m222.17,21.83c.09-.02.13-.1.16-.17.03-.08.04-.16.04-.24"/>
  <path class="cls-2" d="m64.67,66.23c.1-.03.19.02.26.08.07.06.13.14.17.22.09.16.14.35.14.53"/>
  <path class="cls-2" d="m237.25,30.48c.09-.02.13-.1.16-.17.03-.08.04-.16.04-.24"/>
  <line class="cls-2" x1="203.55" y1="17.57" x2="203.55" y2="17.49"/>
  <line class="cls-2" x1="203.65" y1="18.98" x2="203.64" y2="18.9"/>
  <line class="cls-2" x1="53.97" y1="59.58" x2="53.97" y2="59.58"/>
  <path class="cls-2" d="m54.51,61.86c0,.08-.01.16-.04.24-.03.07-.08.15-.16.17"/>
  <path class="cls-2" d="m56.07,61.84c.1-.03.19.02.25.08.07.06.13.14.17.22.09.16.14.35.14.53"/>
  <path class="cls-2" d="m91.71,80.77s0-.03,0-.05"/>
  <line class="cls-2" x1="62.88" y1="62.81" x2="63.25" y2="63.01"/>
  <line class="cls-2" x1="91.71" y1="80.77" x2="91.66" y2="81.45"/>
  <path class="cls-2" d="m89.51,81.35s.07.01.1.02"/>
  <path class="cls-2" d="m91.43,80.09c.09.07.16.18.2.28.04.11.07.23.07.34"/>
  <path class="cls-2" d="m89.51,81.35c-.05-.01-.1-.02-.15-.03s-.11-.02-.16-.04c-.11-.03-.23-.05-.34-.08l-.18-.04c-.06-.01-.13-.03-.19-.04-.07-.01-.13-.02-.2-.03-.07-.01-.13-.02-.2-.02"/>
  <path class="cls-2" d="m77.71,74.5s-.08-.05-.12-.08"/>
  <path class="cls-2" d="m77.59,75.62s.03.01.04.02"/>
  <path class="cls-2" d="m62.76,62.76s.08.03.12.05"/>
  <path class="cls-2" d="m58.69,64.03s-.08-.04-.12-.05"/>
  <line class="cls-2" x1="53.13" y1="59.04" x2="54.3" y2="59.49"/>
  <path class="cls-2" d="m50.15,60.72c-.1-.04-.22-.09-.3-.16-.09-.07-.18-.16-.18-.28"/>
  <path class="cls-2" d="m49.78,60.01s.05-.04.08-.05c.02-.01.04-.02.06-.02"/>
  <path class="cls-2" d="m49.66,60.28c0-.11.05-.2.12-.27"/>
  <path class="cls-2" d="m53.02,59.03s.08,0,.11,0"/>
  <path class="cls-2" d="m50.6,62.09h0l-.24-.09"/>
  <path class="cls-2" d="m49.79,61.64c.09.15.29.25.44.3"/>
  <line class="cls-2" x1="49.78" y1="61.62" x2="49.78" y2="61.62"/>
  <path class="cls-2" d="m85.96,81.58c.2.14.44.26.67.34.24.09.48.15.73.2"/>
  <path class="cls-2" d="m87.96,82.2c.52.04,1.1,0,1.61-.15"/>
  <path class="cls-2" d="m49.78,61.62s-.02-.04-.02-.05c0-.02,0-.04-.01-.05"/>
  <line class="cls-2" x1="77.71" y1="74.5" x2="77.72" y2="74.5"/>
  <line class="cls-2" x1="91.66" y1="81.45" x2="91.66" y2="81.45"/>
  <path class="cls-2" d="m52.98,59.04s.03-.02.04-.02"/>
  <line class="cls-2" x1="83.45" y1="79.79" x2="83.45" y2="79.79"/>
  <line class="cls-2" x1="85.91" y1="81.55" x2="85.91" y2="81.56"/>
  <line class="cls-2" x1="77.81" y1="71.03" x2="78.37" y2="71.34"/>
  <line class="cls-2" x1="75.65" y1="69.84" x2="76.21" y2="70.15"/>
  <line class="cls-2" x1="73.49" y1="68.65" x2="74.05" y2="68.96"/>
  <line class="cls-2" x1="71.34" y1="67.46" x2="71.89" y2="67.77"/>
  <line class="cls-2" x1="69.17" y1="66.27" x2="69.73" y2="66.58"/>
  <line class="cls-2" x1="67.01" y1="65.08" x2="67.57" y2="65.39"/>
  <line class="cls-2" x1="64.85" y1="63.9" x2="65.41" y2="64.2"/>
  <line class="cls-2" x1="60.54" y1="61.9" x2="60.66" y2="61.94"/>
  <line class="cls-2" x1="58.42" y1="61.08" x2="58.54" y2="61.13"/>
  <line class="cls-2" x1="56.3" y1="60.26" x2="56.42" y2="60.31"/>
  <path class="cls-2" d="m84.21,74.94l.07.05c.2.14.4.28.6.42.04.03.07.05.11.08"/>
  <path class="cls-2" d="m82.09,73.42c.14.1.27.19.4.29.12.09.25.18.37.27"/>
  <line class="cls-2" x1="63.25" y1="63.01" x2="62.88" y2="62.81"/>
  <line class="cls-2" x1="65.41" y1="64.2" x2="64.85" y2="63.9"/>
  <line class="cls-2" x1="67.56" y1="65.39" x2="67.01" y2="65.08"/>
  <line class="cls-2" x1="69.73" y1="66.58" x2="69.17" y2="66.28"/>
  <line class="cls-2" x1="71.88" y1="67.77" x2="71.33" y2="67.46"/>
  <line class="cls-2" x1="74.04" y1="68.96" x2="73.49" y2="68.65"/>
  <line class="cls-2" x1="76.21" y1="70.15" x2="75.65" y2="69.84"/>
  <line class="cls-2" x1="80.52" y1="72.53" x2="79.97" y2="72.22"/>
  <path class="cls-2" d="m78.2,74.2c0,.08-.01.16-.04.24-.03.07-.08.15-.16.17"/>
  <path class="cls-2" d="m54.32,62.27c-.1.03-.19-.02-.25-.08-.07-.06-.13-.14-.17-.22-.09-.16-.14-.35-.14-.53"/>
  <path class="cls-2" d="m55.87,62.26c0-.08.01-.17.04-.24.03-.07.08-.15.16-.17"/>
  <line class="cls-2" x1="49.74" y1="61.51" x2="49.66" y2="60.28"/>
  <line class="cls-2" x1="100.63" y1="47.47" x2="100.63" y2="47.38"/>
  <line class="cls-2" x1="106.55" y1="50.43" x2="105.86" y2="50.17"/>
  <line class="cls-2" x1="124.22" y1="59.84" x2="123.66" y2="59.53"/>
  <line class="cls-2" x1="126.75" y1="61.23" x2="125.82" y2="60.72"/>
  <line class="cls-2" x1="131.15" y1="64.21" x2="130.38" y2="63.66"/>
  <line class="cls-2" x1="134.1" y1="66.32" x2="132.5" y2="65.17"/>
  <line class="cls-2" x1="136.18" y1="65.71" x2="136.2" y2="65.5"/>
  <line class="cls-2" x1="101.75" y1="48.58" x2="101.62" y2="48.53"/>
  <line class="cls-2" x1="109.09" y1="51.52" x2="108.53" y2="51.21"/>
  <line class="cls-2" x1="111.25" y1="52.7" x2="110.69" y2="52.4"/>
  <line class="cls-2" x1="113.41" y1="53.89" x2="112.86" y2="53.59"/>
  <line class="cls-2" x1="115.57" y1="55.08" x2="115.02" y2="54.78"/>
  <line class="cls-2" x1="117.73" y1="56.27" x2="117.17" y2="55.96"/>
  <line class="cls-2" x1="119.89" y1="57.46" x2="119.34" y2="57.15"/>
  <line class="cls-2" x1="228.6" y1="25.42" x2="229.15" y2="25.72"/>
  <line class="cls-2" x1="226.43" y1="24.23" x2="226.99" y2="24.54"/>
  <line class="cls-2" x1="224.28" y1="23.04" x2="224.83" y2="23.34"/>
  <line class="cls-2" x1="222.12" y1="21.85" x2="222.67" y2="22.16"/>
  <line class="cls-2" x1="219.95" y1="20.66" x2="220.51" y2="20.97"/>
  <line class="cls-2" x1="217.79" y1="19.47" x2="218.35" y2="19.78"/>
  <line class="cls-2" x1="225.16" y1="28.24" x2="225.71" y2="28.54"/>
  <line class="cls-2" x1="222.99" y1="27.04" x2="223.55" y2="27.35"/>
  <line class="cls-2" x1="220.83" y1="25.86" x2="221.39" y2="26.16"/>
  <line class="cls-2" x1="218.67" y1="24.67" x2="219.23" y2="24.97"/>
  <line class="cls-2" x1="216.51" y1="23.48" x2="217.07" y2="23.79"/>
  <line class="cls-2" x1="214.35" y1="22.29" x2="214.91" y2="22.59"/>
  <line class="cls-2" x1="212.19" y1="21.1" x2="212.75" y2="21.41"/>
  <line class="cls-2" x1="229.29" y1="29.32" x2="228.73" y2="29.01"/>
  <line class="cls-2" x1="213.48" y1="17.47" x2="213.61" y2="17.52"/>
  <line class="cls-2" x1="211.36" y1="16.66" x2="211.49" y2="16.7"/>
  <line class="cls-2" x1="209.24" y1="15.83" x2="209.37" y2="15.89"/>
  <path class="cls-2" d="m231.77,32.07c.08.06.16.12.24.17.1.07.19.14.29.21.08.06.16.11.25.17"/>
  <line class="cls-2" x1="237.15" y1="30.51" x2="237.93" y2="31.07"/>
  <line class="cls-2" x1="235.03" y1="29" x2="235.81" y2="29.55"/>
  <path class="cls-2" d="m235.86,33.8c-.14-.11-.29-.21-.44-.32-.11-.08-.23-.16-.34-.24"/>
  <path class="cls-2" d="m238.9,35.97l-.5-.36c-.2-.14-.4-.28-.6-.42-.2-.14-.4-.28-.6-.42,0,0,0,0,0,0"/>
  <path class="cls-2" d="m236.01,35.1s.04.03.06.04l.29.21c.1.07.2.14.29.21l.29.21c.1.07.2.14.29.21.1.07.19.14.29.21l.1.07"/>
  <line class="cls-2" x1="205.18" y1="17.1" x2="205.05" y2="17.05"/>
  <line class="cls-2" x1="207.3" y1="17.92" x2="207.17" y2="17.87"/>
  <line class="cls-2" x1="216.19" y1="18.59" x2="215.82" y2="18.39"/>
  <line class="cls-2" x1="218.35" y1="19.78" x2="217.79" y2="19.47"/>
  <line class="cls-2" x1="220.51" y1="20.97" x2="219.95" y2="20.66"/>
  <line class="cls-2" x1="222.67" y1="22.16" x2="222.11" y2="21.85"/>
  <line class="cls-2" x1="224.82" y1="23.35" x2="224.27" y2="23.04"/>
  <line class="cls-2" x1="226.99" y1="24.54" x2="226.43" y2="24.23"/>
  <line class="cls-2" x1="229.15" y1="25.73" x2="228.59" y2="25.42"/>
  <line class="cls-2" x1="205.11" y1="42.73" x2="205.21" y2="41.92"/>
  <line class="cls-2" x1="204.74" y1="45.8" x2="204.94" y2="44.13"/>
  <line class="cls-2" x1="231.79" y1="34.98" x2="231.71" y2="34.22"/>
  <line class="cls-2" x1="232.1" y1="37.85" x2="231.93" y2="36.29"/>
  <line class="cls-2" x1="239.16" y1="40.07" x2="244.56" y2="90.78"/>
  <line class="cls-2" x1="234.66" y1="34.15" x2="233.89" y2="33.59"/>
  <line class="cls-2" x1="237.61" y1="36.25" x2="236.01" y2="35.11"/>
  <line class="cls-2" x1="232.88" y1="34.66" x2="232.1" y2="34.11"/>
  <line class="cls-2" x1="157.2" y1="31.04" x2="157.19" y2="30.95"/>
  <line class="cls-2" x1="163.12" y1="34" x2="162.43" y2="33.74"/>
  <line class="cls-2" x1="180.78" y1="43.41" x2="180.23" y2="43.1"/>
  <line class="cls-2" x1="183.32" y1="44.8" x2="182.39" y2="44.29"/>
  <line class="cls-2" x1="187.72" y1="47.78" x2="186.94" y2="47.22"/>
  <line class="cls-2" x1="190.67" y1="49.89" x2="189.06" y2="48.74"/>
  <line class="cls-2" x1="192.75" y1="49.28" x2="192.77" y2="49.07"/>
  <path class="cls-2" d="m50.29,61.97h-.03s-.02-.02-.03-.02"/>
  <line class="cls-2" x1="204.88" y1="19.97" x2="205.01" y2="20.02"/>
  <line class="cls-2" x1="207.5" y1="22.93" x2="207.56" y2="22.44"/>
  <line class="cls-2" x1="207.27" y1="24.81" x2="207.33" y2="24.33"/>
  <line class="cls-2" x1="207.05" y1="26.7" x2="207.11" y2="26.21"/>
  <line class="cls-2" x1="206.82" y1="28.58" x2="206.88" y2="28.09"/>
  <line class="cls-2" x1="206.59" y1="30.46" x2="206.65" y2="29.97"/>
  <line class="cls-2" x1="206.37" y1="32.34" x2="206.42" y2="31.86"/>
  <line class="cls-2" x1="205.91" y1="36.11" x2="205.97" y2="35.62"/>
  <line class="cls-2" x1="205.65" y1="38.32" x2="205.74" y2="37.51"/>
  <line class="cls-2" x1="158.32" y1="32.15" x2="158.19" y2="32.1"/>
  <line class="cls-2" x1="165.66" y1="35.08" x2="165.1" y2="34.78"/>
  <line class="cls-2" x1="167.82" y1="36.27" x2="167.26" y2="35.97"/>
  <line class="cls-2" x1="169.98" y1="37.46" x2="169.42" y2="37.16"/>
  <line class="cls-2" x1="172.14" y1="38.65" x2="171.59" y2="38.34"/>
  <line class="cls-2" x1="174.3" y1="39.84" x2="173.74" y2="39.53"/>
  <line class="cls-2" x1="176.46" y1="41.03" x2="175.9" y2="40.72"/>
  <line class="cls-2" x1="211.38" y1="48.14" x2="208.62" y2="71.02"/>
  <line class="cls-2" x1="212.11" y1="42.04" x2="211.91" y2="43.72"/>
  <line class="cls-2" x1="212.64" y1="37.63" x2="212.55" y2="38.44"/>
  <line class="cls-2" x1="212.91" y1="35.43" x2="212.81" y2="36.24"/>
  <line class="cls-2" x1="229.89" y1="32.62" x2="230.45" y2="32.93"/>
  <line class="cls-2" x1="227.36" y1="31.23" x2="228.29" y2="31.74"/>
  <line class="cls-2" x1="229.48" y1="30.61" x2="230.41" y2="31.12"/>
  <line class="cls-2" x1="212" y1="19.81" x2="211.63" y2="19.61"/>
  <line class="cls-2" x1="214.16" y1="21" x2="213.6" y2="20.69"/>
  <line class="cls-2" x1="216.32" y1="22.19" x2="215.76" y2="21.88"/>
  <line class="cls-2" x1="218.48" y1="23.38" x2="217.92" y2="23.07"/>
  <line class="cls-2" x1="220.64" y1="24.56" x2="220.08" y2="24.26"/>
  <line class="cls-2" x1="222.8" y1="25.75" x2="222.24" y2="25.44"/>
  <line class="cls-2" x1="224.96" y1="26.94" x2="224.41" y2="26.64"/>
  <path class="cls-2" d="m207.52,19.2s.09.03.13.05"/>
  <path class="cls-2" d="m205.41,18.38s.08.03.13.05"/>
  <path class="cls-2" d="m209.64,20.02c.23.09.46.18.7.27"/>
  <path class="cls-2" d="m231.62,30.77c-.13-.09-.25-.18-.37-.27-.14-.1-.27-.19-.4-.29"/>
  <line class="cls-2" x1="226.56" y1="27.83" x2="227.12" y2="28.13"/>
  <line class="cls-2" x1="224.4" y1="26.64" x2="224.95" y2="26.94"/>
  <line class="cls-2" x1="222.24" y1="25.45" x2="222.79" y2="25.76"/>
  <line class="cls-2" x1="220.08" y1="24.26" x2="220.64" y2="24.56"/>
  <line class="cls-2" x1="217.92" y1="23.07" x2="218.48" y2="23.38"/>
  <line class="cls-2" x1="215.76" y1="21.88" x2="216.32" y2="22.19"/>
  <line class="cls-2" x1="213.6" y1="20.69" x2="214.16" y2="21"/>
  <line class="cls-2" x1="233.47" y1="28.11" x2="232.91" y2="27.8"/>
  <line class="cls-2" x1="201.83" y1="15.81" x2="204.88" y2="14.92"/>
  <line class="cls-2" x1="213.36" y1="31.66" x2="213.3" y2="32.15"/>
  <line class="cls-2" x1="213.59" y1="29.78" x2="213.53" y2="30.26"/>
  <line class="cls-2" x1="213.82" y1="27.89" x2="213.76" y2="28.38"/>
  <line class="cls-2" x1="214.04" y1="26.01" x2="213.99" y2="26.5"/>
  <line class="cls-2" x1="214.27" y1="24.13" x2="214.21" y2="24.62"/>
  <line class="cls-2" x1="223.04" y1="28.85" x2="223.6" y2="29.16"/>
  <line class="cls-2" x1="220.88" y1="27.66" x2="221.43" y2="27.97"/>
  <line class="cls-2" x1="218.72" y1="26.47" x2="219.27" y2="26.78"/>
  <line class="cls-2" x1="216.56" y1="25.28" x2="217.11" y2="25.59"/>
  <line class="cls-2" x1="214.4" y1="24.09" x2="214.95" y2="24.4"/>
  <line class="cls-2" x1="212.23" y1="22.9" x2="212.79" y2="23.21"/>
  <line class="cls-2" x1="240.07" y1="39.8" x2="240.31" y2="39.97"/>
  <line class="cls-2" x1="184.13" y1="42.44" x2="183.15" y2="41.9"/>
  <line class="cls-2" x1="86.11" y1="83.47" x2="91.62" y2="135.2"/>
  <line class="cls-2" x1="79.98" y1="72.22" x2="80.53" y2="72.53"/>
  <line class="cls-2" x1="62.66" y1="62.71" x2="62.76" y2="62.76"/>
  <line class="cls-2" x1="78.36" y1="71.34" x2="77.81" y2="71.03"/>
  <path class="cls-2" d="m130.34,61.24c0,.07-.02.14-.05.21-.03.06-.08.12-.15.14"/>
  <path class="cls-2" d="m134.58,64.27c0,.07-.02.14-.05.21-.03.06-.08.12-.15.14"/>
  <line class="cls-2" x1="134.05" y1="63.37" x2="132.98" y2="62.6"/>
  <line class="cls-2" x1="131.93" y1="61.85" x2="130.86" y2="61.09"/>
  <line class="cls-2" x1="130.34" y1="61.24" x2="131.41" y2="62.01"/>
  <line class="cls-2" x1="129.81" y1="60.34" x2="128.75" y2="59.58"/>
  <line class="cls-2" x1="128.22" y1="59.73" x2="129.29" y2="60.5"/>
  <path class="cls-2" d="m128.22,59.73c0,.07-.02.14-.05.21-.03.06-.08.12-.15.14"/>
  <line class="cls-2" x1="127.56" y1="58.87" x2="126.59" y2="58.33"/>
  <line class="cls-2" x1="125.4" y1="57.68" x2="124.42" y2="57.14"/>
  <line class="cls-2" x1="123.9" y1="57.29" x2="124.88" y2="57.83"/>
  <path class="cls-2" d="m123.9,57.29c0,.08-.01.16-.04.24-.03.07-.08.15-.16.17"/>
  <line class="cls-2" x1="123.24" y1="56.49" x2="122.26" y2="55.95"/>
  <line class="cls-2" x1="121.74" y1="56.1" x2="122.72" y2="56.64"/>
  <path class="cls-2" d="m121.74,56.1c0,.08-.01.16-.04.24-.03.07-.08.15-.16.17"/>
  <line class="cls-2" x1="121.08" y1="55.3" x2="120.1" y2="54.76"/>
  <line class="cls-2" x1="119.58" y1="54.91" x2="120.56" y2="55.45"/>
  <path class="cls-2" d="m119.58,54.91c0,.08-.01.17-.04.24-.03.07-.08.15-.16.17"/>
  <line class="cls-2" x1="118.92" y1="54.11" x2="117.94" y2="53.57"/>
  <line class="cls-2" x1="117.42" y1="53.72" x2="118.39" y2="54.26"/>
  <path class="cls-2" d="m117.42,53.72c0,.08-.01.16-.04.24-.03.07-.08.15-.16.17"/>
  <line class="cls-2" x1="116.76" y1="52.92" x2="115.78" y2="52.38"/>
  <line class="cls-2" x1="115.26" y1="52.53" x2="116.24" y2="53.07"/>
  <path class="cls-2" d="m115.26,52.53c0,.08-.01.17-.04.24-.03.08-.08.15-.16.17"/>
  <line class="cls-2" x1="114.6" y1="51.73" x2="113.62" y2="51.19"/>
  <line class="cls-2" x1="113.1" y1="51.34" x2="114.08" y2="51.88"/>
  <path class="cls-2" d="m113.1,51.34c0,.08-.01.16-.04.24s-.08.15-.16.17"/>
  <line class="cls-2" x1="112.44" y1="50.54" x2="111.46" y2="50"/>
  <line class="cls-2" x1="110.93" y1="50.16" x2="111.91" y2="50.69"/>
  <path class="cls-2" d="m110.93,50.16c0,.08-.01.16-.04.24-.03.07-.08.15-.16.17"/>
  <line class="cls-2" x1="110.28" y1="49.35" x2="109.3" y2="48.81"/>
  <line class="cls-2" x1="107.92" y1="48.22" x2="107.17" y2="47.93"/>
  <line class="cls-2" x1="106.65" y1="48.08" x2="107.4" y2="48.37"/>
  <path class="cls-2" d="m106.65,48.08c0,.09,0,.18-.02.27-.03.08-.08.17-.17.2"/>
  <line class="cls-2" x1="105.8" y1="47.4" x2="105.05" y2="47.11"/>
  <line class="cls-2" x1="104.53" y1="47.27" x2="105.28" y2="47.55"/>
  <path class="cls-2" d="m104.53,47.27c0,.09,0,.18-.02.27-.03.08-.08.17-.17.2"/>
  <line class="cls-2" x1="103.68" y1="46.58" x2="102.94" y2="46.29"/>
  <line class="cls-2" x1="102.41" y1="46.45" x2="103.16" y2="46.74"/>
  <path class="cls-2" d="m102.41,46.45c0,.09,0,.18-.03.27-.03.08-.08.17-.17.2"/>
  <line class="cls-2" x1="136.2" y1="65.5" x2="135.1" y2="64.12"/>
  <line class="cls-2" x1="134.58" y1="64.27" x2="135.67" y2="65.65"/>
  <line class="cls-2" x1="81.88" y1="76.39" x2="239.01" y2="30.75"/>
  <line class="cls-2" x1="239.37" y1="32" x2="189.84" y2="46.38"/>
  <line class="cls-2" x1="188.83" y1="46.68" x2="133.28" y2="62.81"/>
  <line class="cls-2" x1="132.26" y1="63.11" x2="82.24" y2="77.64"/>
  <path class="cls-2" d="m82.24,77.64c-.1.03-.19-.02-.26-.08-.07-.06-.12-.14-.17-.22-.09-.16-.14-.35-.14-.53"/>
  <line class="cls-2" x1="55.61" y1="115.53" x2="55.61" y2="115.17"/>
  <line class="cls-2" x1="52.2" y1="113.85" x2="53.34" y2="113.92"/>
  <path class="cls-2" d="m52.17,114.84c.31-.09.72-.09,1.03-.01.08.02.16.05.24.1.04.02.08.05.11.09.03.03.05.07.05.1,0,.04,0,.08-.03.11-.03.04-.07.08-.11.1-.07.05-.16.08-.24.1"/>
  <line class="cls-2" x1="215.68" y1="18.27" x2="166.28" y2="32.62"/>
  <line class="cls-2" x1="165.14" y1="32.95" x2="109.72" y2="49.05"/>
  <line class="cls-2" x1="108.57" y1="49.38" x2="58.55" y2="63.91"/>
  <line class="cls-2" x1="58.19" y1="62.66" x2="215.32" y2="17.02"/>
  <line class="cls-2" x1="75.48" y1="72.18" x2="232.61" y2="26.54"/>
  <line class="cls-2" x1="232.97" y1="27.78" x2="183.57" y2="42.13"/>
  <line class="cls-2" x1="182.43" y1="42.46" x2="127.01" y2="58.56"/>
  <line class="cls-2" x1="125.86" y1="58.89" x2="75.84" y2="73.42"/>
  <path class="cls-2" d="m75.84,73.42c-.1.03-.19-.02-.25-.08-.07-.06-.13-.14-.17-.22-.09-.16-.14-.35-.14-.53"/>
  <line class="cls-2" x1="208.55" y1="71.1" x2="208.55" y2="70.75"/>
  <line class="cls-2" x1="205.14" y1="69.43" x2="206.28" y2="69.5"/>
  <line class="cls-2" x1="206.28" y1="69.5" x2="208.55" y2="70.75"/>
  <path class="cls-2" d="m206.55,70.71c0,.09-.08.15-.14.2-.07.04-.15.08-.23.1"/>
  <line class="cls-2" x1="230.76" y1="26.61" x2="231.31" y2="26.91"/>
  <line class="cls-2" x1="241.4" y1="37.95" x2="242.5" y2="37.64"/>
  <path class="cls-2" d="m243.16,34.81c.2.15.42.36.48.63"/>
  <line class="cls-2" x1="241.39" y1="33.54" x2="243.16" y2="34.81"/>
  <path class="cls-2" d="m243.54,35.92s-.04.07-.07.1c-.02.03-.05.07-.08.11-.03.04-.06.08-.1.12s-.07.08-.11.13c-.08.08-.16.17-.25.25-.04.04-.09.08-.14.12s-.1.08-.15.12"/>
  <path class="cls-2" d="m205.24,14.86c.34-.02.7-.01,1.04.02.32.03.71.09,1.01.21"/>
  <path class="cls-2" d="m243.65,35.6c0-.05,0-.11-.01-.16-.03-.17-.14-.33-.3-.49-.16-.15-.38-.29-.59-.44s-.4-.29-.61-.43-.4-.29-.61-.43c-.04-.03-.09-.07-.14-.1"/>
  <path class="cls-2" d="m242.4,37.67h0c-.16.05-.33.1-.5.14-.16.05-.33.1-.5.14s-.33.1-.5.14c-.17.05-.33.1-.5.14"/>
  <line class="cls-2" x1="243.65" y1="35.6" x2="243.57" y2="36.74"/>
  <path class="cls-2" d="m205.66,67.11c.11-.16.24-.3.39-.42.15-.12.32-.21.5-.27"/>
  <line class="cls-2" x1="204.8" y1="72.19" x2="205.34" y2="67.8"/>
  <path class="cls-2" d="m208.87,66.01s.05.08.06.12c0,.02,0,.04.01.06v.06s0,0,0,0"/>
  <path class="cls-2" d="m208.23,65.94c.12-.03.24-.05.36-.03.12.01.24.05.33.13"/>
  <line class="cls-2" x1="58.73" y1="67.02" x2="77.51" y2="77.35"/>
  <path class="cls-2" d="m91.68,81.47c-.35.1-.71.21-1.06.31l-.53.15c-.09.03-.17.05-.26.08-.04.01-.09.02-.13.04-.02,0-.04.01-.07.02-.02,0-.04.01-.07.02-.18.05-.37.09-.58.12-.21.02-.42.04-.64.03-.22,0-.44-.01-.65-.04-.22-.03-.43-.07-.63-.12-.2-.05-.39-.12-.57-.19-.17-.07-.33-.15-.46-.24-.02-.01-.03-.02-.05-.03-.02-.01-.03-.02-.05-.03-.03-.02-.07-.05-.1-.07-.07-.05-.13-.09-.19-.14-.13-.09-.26-.18-.39-.28-.51-.37-1.02-.73-1.54-1.1-2.05-1.47-4.1-2.93-6.15-4.39"/>
  <path class="cls-2" d="m77.51,77.35c2.04,1.46,4.08,2.91,6.12,4.37.51.36,1.02.73,1.53,1.09.13.09.26.18.38.27.06.04.13.09.19.13.03.02.06.05.1.07.01.01.03.02.05.03.01.01.03.02.05.03.13.09.29.17.47.24s.36.13.57.18c.2.05.41.09.63.12.22.03.43.04.65.04s.43-.01.63-.04c.21-.03.4-.07.58-.12.02,0,.04-.01.07-.02.02,0,.04-.01.07-.02.04-.01.09-.02.13-.04.09-.03.17-.05.26-.08.17-.05.35-.1.53-.15.35-.1.71-.21,1.06-.31"/>
  <line class="cls-2" x1="91.68" y1="81.47" x2="91.56" y2="83.18"/>
  <path class="cls-2" d="m58.73,67.02c-.44-.17-.88-.34-1.32-.51"/>
  <path class="cls-2" d="m54.9,65.54c-.76-.29-1.52-.59-2.29-.88-.51-.2-1.02-.39-1.53-.59-.13-.05-.26-.1-.38-.15-.07-.02-.13-.05-.19-.07-.03-.01-.07-.02-.1-.04-.02,0-.03-.01-.05-.02-.01,0-.03-.01-.04-.02-.12-.05-.22-.11-.29-.17-.07-.06-.11-.13-.13-.2,0-.02,0-.03,0-.05"/>
  <line class="cls-2" x1="91.65" y1="81.45" x2="91.68" y2="81.47"/>
  <line class="cls-2" x1="234.28" y1="35.67" x2="235.83" y2="36.77"/>
  <line class="cls-2" x1="209.68" y1="21.83" x2="210.38" y2="22.09"/>
  <path class="cls-2" d="m191.15,47.84c0,.07-.02.14-.05.21-.03.07-.08.12-.15.14"/>
  <line class="cls-2" x1="190.62" y1="46.94" x2="189.55" y2="46.17"/>
  <line class="cls-2" x1="186.91" y1="44.81" x2="187.98" y2="45.58"/>
  <line class="cls-2" x1="188.5" y1="45.42" x2="187.43" y2="44.66"/>
  <path class="cls-2" d="m186.91,44.81c0,.07-.02.14-.05.21-.03.07-.08.12-.15.14"/>
  <line class="cls-2" x1="184.79" y1="43.3" x2="185.86" y2="44.06"/>
  <line class="cls-2" x1="186.38" y1="43.91" x2="185.31" y2="43.15"/>
  <path class="cls-2" d="m184.79,43.3c0,.07-.02.14-.05.21-.03.07-.08.12-.15.14"/>
  <line class="cls-2" x1="180.47" y1="40.86" x2="181.45" y2="41.4"/>
  <line class="cls-2" x1="181.97" y1="41.25" x2="180.99" y2="40.71"/>
  <path class="cls-2" d="m180.47,40.86c0,.08-.01.17-.04.24-.03.08-.08.15-.16.17"/>
  <line class="cls-2" x1="178.31" y1="39.67" x2="179.28" y2="40.21"/>
  <line class="cls-2" x1="179.81" y1="40.06" x2="178.83" y2="39.52"/>
  <path class="cls-2" d="m178.31,39.67c0,.08-.01.16-.04.24-.03.07-.08.15-.16.17"/>
  <line class="cls-2" x1="176.14" y1="38.48" x2="177.12" y2="39.02"/>
  <line class="cls-2" x1="177.65" y1="38.87" x2="176.67" y2="38.33"/>
  <path class="cls-2" d="m176.14,38.48c0,.08-.01.16-.04.24-.03.07-.08.15-.16.17"/>
  <line class="cls-2" x1="173.99" y1="37.29" x2="174.96" y2="37.83"/>
  <line class="cls-2" x1="175.49" y1="37.68" x2="174.51" y2="37.14"/>
  <path class="cls-2" d="m173.99,37.29c0,.08-.01.16-.04.24-.03.07-.08.15-.16.17"/>
  <line class="cls-2" x1="171.82" y1="36.11" x2="172.8" y2="36.64"/>
  <line class="cls-2" x1="173.33" y1="36.49" x2="172.35" y2="35.95"/>
  <path class="cls-2" d="m171.82,36.11c0,.08-.01.16-.04.24-.03.07-.08.15-.16.17"/>
  <line class="cls-2" x1="169.66" y1="34.91" x2="170.64" y2="35.45"/>
  <line class="cls-2" x1="171.17" y1="35.3" x2="170.19" y2="34.76"/>
  <path class="cls-2" d="m169.66,34.91c0,.08-.01.17-.04.24-.03.08-.08.15-.16.17"/>
  <line class="cls-2" x1="167.5" y1="33.72" x2="168.48" y2="34.26"/>
  <line class="cls-2" x1="169" y1="34.11" x2="168.03" y2="33.57"/>
  <path class="cls-2" d="m167.5,33.72c0,.08-.01.16-.04.24-.03.08-.08.15-.16.17"/>
  <line class="cls-2" x1="165.86" y1="32.38" x2="165.34" y2="32.54"/>
  <line class="cls-2" x1="166.84" y1="32.92" x2="165.86" y2="32.38"/>
  <line class="cls-2" x1="163.22" y1="31.65" x2="163.97" y2="31.94"/>
  <line class="cls-2" x1="164.49" y1="31.79" x2="163.74" y2="31.5"/>
  <path class="cls-2" d="m163.22,31.65c0,.09,0,.19-.03.27-.02.08-.08.17-.17.2"/>
  <line class="cls-2" x1="161.1" y1="30.83" x2="161.85" y2="31.12"/>
  <line class="cls-2" x1="162.37" y1="30.97" x2="161.62" y2="30.68"/>
  <path class="cls-2" d="m161.1,30.83c0,.09,0,.19-.03.27-.02.08-.08.17-.17.2"/>
  <line class="cls-2" x1="158.98" y1="30.02" x2="159.73" y2="30.3"/>
  <line class="cls-2" x1="160.25" y1="30.15" x2="159.5" y2="29.87"/>
  <path class="cls-2" d="m158.98,30.02c0,.09,0,.19-.02.27-.03.08-.08.17-.17.2"/>
  <line class="cls-2" x1="191.15" y1="47.84" x2="192.24" y2="49.22"/>
  <line class="cls-2" x1="192.77" y1="49.07" x2="191.67" y2="47.69"/>
  <path class="cls-2" d="m55.29,110.37c.12-.03.24-.05.36-.04.12.01.24.05.33.13"/>
  <line class="cls-2" x1="51.86" y1="116.62" x2="52.39" y2="112.22"/>
  <path class="cls-2" d="m52.72,111.53c.11-.15.24-.3.39-.41s.32-.22.5-.27"/>
  <path class="cls-2" d="m55.99,110.68s0,0,0-.01v-.06s0-.04-.01-.06c-.01-.04-.03-.08-.06-.11"/>
  <line class="cls-2" x1="84" y1="77.91" x2="241.13" y2="32.27"/>
  <line class="cls-2" x1="241.49" y1="33.51" x2="191.86" y2="47.93"/>
  <line class="cls-2" x1="190.95" y1="48.19" x2="135.29" y2="64.36"/>
  <line class="cls-2" x1="134.38" y1="64.62" x2="84.36" y2="79.15"/>
  <path class="cls-2" d="m84.36,79.15c-.1.03-.19-.02-.26-.08-.07-.06-.13-.14-.17-.22-.09-.16-.14-.35-.14-.53"/>
  <line class="cls-2" x1="71.16" y1="69.8" x2="228.29" y2="24.16"/>
  <line class="cls-2" x1="228.65" y1="25.4" x2="179.25" y2="39.75"/>
  <line class="cls-2" x1="178.11" y1="40.08" x2="122.68" y2="56.18"/>
  <line class="cls-2" x1="121.54" y1="56.51" x2="71.52" y2="71.04"/>
  <path class="cls-2" d="m71.52,71.04c-.09.03-.18-.02-.25-.08s-.13-.14-.17-.22c-.09-.16-.14-.35-.14-.53"/>
  <path class="cls-2" d="m68.79,69.02c0,.18.05.37.14.53.04.08.1.16.17.22.07.05.16.11.25.08"/>
  <line class="cls-2" x1="69" y1="68.61" x2="226.13" y2="22.97"/>
  <line class="cls-2" x1="226.49" y1="24.21" x2="177.09" y2="38.56"/>
  <line class="cls-2" x1="175.94" y1="38.89" x2="120.52" y2="54.99"/>
  <line class="cls-2" x1="119.38" y1="55.32" x2="69.36" y2="69.85"/>
  <line class="cls-2" x1="240.32" y1="39.49" x2="240.45" y2="37.56"/>
  <path class="cls-2" d="m240.45,37.56c.01-.12-.01-.25-.06-.37-.04-.11-.11-.23-.21-.3"/>
  <line class="cls-2" x1="90.05" y1="79.11" x2="238.72" y2="35.93"/>
  <line class="cls-2" x1="240.16" y1="39.78" x2="91.58" y2="82.93"/>
  <path class="cls-2" d="m201.89,15.82s-.08-.02-.11-.01"/>
  <line class="cls-2" x1="203.08" y1="16.28" x2="201.89" y2="15.82"/>
  <path class="cls-2" d="m51.63,60.62c0-.08.01-.16.04-.24.03-.07.08-.15.16-.17"/>
  <line class="cls-2" x1="209.32" y1="15.81" x2="160.12" y2="30.1"/>
  <line class="cls-2" x1="158.78" y1="30.49" x2="103.55" y2="46.53"/>
  <line class="cls-2" x1="102.22" y1="46.92" x2="52.2" y2="61.45"/>
  <line class="cls-2" x1="51.83" y1="60.21" x2="208.97" y2="14.57"/>
  <path class="cls-2" d="m51.83,60.21c.1-.03.19.02.26.08.07.06.13.14.17.22.09.16.14.35.14.53"/>
  <line class="cls-2" x1="77.64" y1="73.37" x2="234.77" y2="27.72"/>
  <line class="cls-2" x1="235.14" y1="28.97" x2="185.61" y2="43.36"/>
  <line class="cls-2" x1="184.59" y1="43.65" x2="129.04" y2="59.79"/>
  <line class="cls-2" x1="128.02" y1="60.08" x2="78" y2="74.61"/>
  <path class="cls-2" d="m78,74.61c-.1.03-.19-.02-.25-.08-.07-.06-.13-.14-.17-.22-.09-.16-.14-.35-.14-.53"/>
  <line class="cls-2" x1="217.85" y1="19.46" x2="168.45" y2="33.8"/>
  <line class="cls-2" x1="167.3" y1="34.14" x2="111.88" y2="50.24"/>
  <line class="cls-2" x1="110.74" y1="50.57" x2="60.72" y2="65.1"/>
  <path class="cls-2" d="m60.72,65.1c-.1.03-.19-.02-.26-.08s-.12-.14-.17-.22c-.09-.16-.14-.35-.14-.53"/>
  <line class="cls-2" x1="60.35" y1="63.85" x2="217.49" y2="18.21"/>
  <path class="cls-2" d="m60.35,63.85c.1-.03.19.02.25.08.07.06.13.14.17.22.09.16.14.35.14.53"/>
  <line class="cls-2" x1="224.33" y1="23.03" x2="174.93" y2="37.37"/>
  <line class="cls-2" x1="173.79" y1="37.7" x2="118.36" y2="53.8"/>
  <line class="cls-2" x1="117.22" y1="54.14" x2="67.2" y2="68.66"/>
  <path class="cls-2" d="m67.2,68.66c-.09.03-.19-.02-.25-.08-.07-.06-.13-.14-.17-.22-.09-.16-.14-.35-.14-.53"/>
  <line class="cls-2" x1="66.84" y1="67.42" x2="223.97" y2="21.78"/>
  <path class="cls-2" d="m73.12,71.4c0,.18.05.38.14.53.04.08.1.16.17.22s.16.11.26.08"/>
  <line class="cls-2" x1="73.32" y1="70.99" x2="230.45" y2="25.35"/>
  <line class="cls-2" x1="230.81" y1="26.59" x2="181.41" y2="40.94"/>
  <line class="cls-2" x1="180.27" y1="41.27" x2="124.85" y2="57.37"/>
  <line class="cls-2" x1="123.7" y1="57.7" x2="73.68" y2="72.23"/>
  <line class="cls-2" x1="220.01" y1="20.65" x2="170.61" y2="35"/>
  <line class="cls-2" x1="169.46" y1="35.33" x2="114.04" y2="51.42"/>
  <line class="cls-2" x1="112.9" y1="51.76" x2="62.88" y2="66.29"/>
  <path class="cls-2" d="m62.88,66.29c-.1.03-.19-.02-.25-.08-.07-.06-.13-.14-.17-.22-.09-.16-.14-.35-.14-.53"/>
  <line class="cls-2" x1="62.51" y1="65.04" x2="219.65" y2="19.4"/>
  <line class="cls-2" x1="211.44" y1="16.63" x2="162.24" y2="30.92"/>
  <line class="cls-2" x1="160.9" y1="31.31" x2="105.67" y2="47.35"/>
  <line class="cls-2" x1="104.34" y1="47.74" x2="54.32" y2="62.27"/>
  <line class="cls-2" x1="53.95" y1="61.03" x2="211.09" y2="15.39"/>
  <line class="cls-2" x1="213.56" y1="17.45" x2="164.36" y2="31.74"/>
  <line class="cls-2" x1="163.02" y1="32.13" x2="107.79" y2="48.17"/>
  <line class="cls-2" x1="106.46" y1="48.56" x2="56.43" y2="63.09"/>
  <line class="cls-2" x1="56.07" y1="61.84" x2="213.2" y2="16.2"/>
  <path class="cls-2" d="m79.56,75.29c0-.08.01-.16.04-.24s.08-.15.16-.17"/>
  <line class="cls-2" x1="79.76" y1="74.88" x2="236.89" y2="29.24"/>
  <path class="cls-2" d="m79.76,74.88c.1-.03.19.02.26.08s.12.14.17.22c.09.16.14.35.14.53"/>
  <line class="cls-2" x1="237.25" y1="30.48" x2="187.73" y2="44.87"/>
  <line class="cls-2" x1="186.71" y1="45.16" x2="131.16" y2="61.3"/>
  <line class="cls-2" x1="130.14" y1="61.59" x2="80.12" y2="76.12"/>
  <path class="cls-2" d="m80.12,76.12c-.1.03-.19-.02-.25-.08-.07-.06-.13-.14-.17-.22-.09-.16-.14-.35-.14-.53"/>
  <line class="cls-2" x1="222.17" y1="21.83" x2="172.77" y2="36.18"/>
  <line class="cls-2" x1="171.63" y1="36.52" x2="116.2" y2="52.62"/>
  <line class="cls-2" x1="115.06" y1="52.95" x2="65.04" y2="67.47"/>
  <path class="cls-2" d="m65.04,67.47c-.1.03-.19-.02-.25-.08-.07-.06-.13-.14-.17-.22-.09-.16-.14-.35-.14-.53"/>
  <line class="cls-2" x1="64.67" y1="66.23" x2="221.81" y2="20.59"/>
  <line class="cls-2" x1="58.69" y1="65.21" x2="77.59" y2="75.62"/>
  <line class="cls-2" x1="77.59" y1="74.43" x2="58.69" y2="64.03"/>
  <line class="cls-2" x1="89.56" y1="82.06" x2="90.66" y2="81.74"/>
  <path class="cls-2" d="m88.08,81.07c-.36-.02-.72-.08-1.07-.18-.34-.1-.7-.24-.98-.45"/>
  <line class="cls-2" x1="77.63" y1="75.64" x2="85.96" y2="81.58"/>
  <line class="cls-2" x1="86.03" y1="80.45" x2="83.79" y2="78.84"/>
  <path class="cls-2" d="m58.65,65.2s.03.01.04.02"/>
  <line class="cls-2" x1="50.23" y1="61.94" x2="58.65" y2="65.2"/>
  <line class="cls-2" x1="58.57" y1="63.97" x2="50.15" y2="60.72"/>
  <path class="cls-2" d="m77.71,74.5c.2.14.4.29.61.43s.4.29.61.43l.61.43c.2.15.41.29.61.43.2.15.4.29.61.43.21.14.41.29.61.43s.4.29.61.43c.2.14.4.29.61.43.2.14.4.29.61.43.2.15.4.29.61.43s.41.29.61.43.4.29.61.43c.21.14.41.29.61.43.2.14.39.29.62.43s.52.25.84.33h0"/>
  <path class="cls-2" d="m86.33,76.45c.11.08.23.16.34.24.15.11.29.21.44.32"/>
  <path class="cls-2" d="m88.45,77.96s0,0,0,0c.2.14.4.28.6.42.2.14.4.28.6.43.2.14.4.28.6.42.2.14.4.28.6.42.2.14.4.28.6.42"/>
  <path class="cls-2" d="m91.66,81.45c-.16.05-.33.1-.5.15-.17.05-.33.1-.5.14-.17.05-.33.1-.5.14-.16.05-.33.1-.5.14"/>
  <path class="cls-2" d="m85.89,81.54c-.12-.08-.24-.17-.36-.25-.12-.09-.24-.17-.36-.26"/>
  <line class="cls-2" x1="58.69" y1="64.03" x2="77.71" y2="74.5"/>
  <line class="cls-2" x1="49.91" y1="59.93" x2="53.02" y2="59.03"/>
  <line class="cls-2" x1="62.76" y1="62.76" x2="58.57" y2="63.97"/>
  <line class="cls-2" x1="77.71" y1="74.5" x2="77.63" y2="75.64"/>
  <line class="cls-2" x1="86.03" y1="80.45" x2="85.96" y2="81.58"/>
  <line class="cls-2" x1="89.61" y1="81.38" x2="91.71" y2="80.77"/>
  <line class="cls-2" x1="58.67" y1="65.2" x2="58.73" y2="67.02"/>
  <line class="cls-2" x1="211.63" y1="21.26" x2="211.64" y2="21.73"/>
  <line class="cls-2" x1="207.8" y1="43.3" x2="207.6" y2="44.97"/>
  <line class="cls-2" x1="230.53" y1="31.09" x2="230.53" y2="30.31"/>
  <line class="cls-2" x1="208.6" y1="36.68" x2="208.5" y2="37.49"/>
  <line class="cls-2" x1="208.33" y1="38.88" x2="208.24" y2="39.69"/>
  <line class="cls-2" x1="234.44" y1="37.17" x2="234.28" y2="35.67"/>
  <line class="cls-2" x1="235.15" y1="36.97" x2="235.06" y2="36.22"/>
  <line class="cls-2" x1="210.19" y1="23.5" x2="210.13" y2="23.99"/>
  <line class="cls-2" x1="209.96" y1="25.38" x2="209.9" y2="25.87"/>
  <line class="cls-2" x1="209.73" y1="27.27" x2="209.67" y2="27.75"/>
  <line class="cls-2" x1="209.51" y1="29.15" x2="209.45" y2="29.63"/>
  <line class="cls-2" x1="209.28" y1="31.03" x2="209.22" y2="31.51"/>
  <line class="cls-2" x1="209.05" y1="32.91" x2="208.99" y2="33.4"/>
  <line class="cls-2" x1="89.61" y1="81.38" x2="89.56" y2="82.06"/>
  <line class="cls-2" x1="58.57" y1="63.97" x2="58.65" y2="65.2"/>
  <line class="cls-2" x1="208.06" y1="41.09" x2="207.97" y2="41.9"/>
  <line class="cls-2" x1="211.51" y1="19.55" x2="211.54" y2="19.94"/>
  <line class="cls-2" x1="208.82" y1="34.79" x2="208.77" y2="35.28"/>
  <line class="cls-2" x1="56.16" y1="111.12" x2="55.9" y2="110.91"/>
  <line class="cls-2" x1="55.9" y1="110.91" x2="55.96" y2="110.48"/>
  <line class="cls-2" x1="230.45" y1="32.93" x2="230.47" y2="32.45"/>
  <line class="cls-2" x1="77.51" y1="77.35" x2="77.57" y2="75.6"/>
  <line class="cls-2" x1="209.11" y1="66.7" x2="208.85" y2="66.49"/>
  <line class="cls-2" x1="210.36" y1="22.09" x2="210.36" y2="22.1"/>
  <line class="cls-2" x1="208.85" y1="66.49" x2="208.35" y2="70.64"/>
  <line class="cls-2" x1="215.7" y1="18.33" x2="211.51" y2="19.55"/>
  <line class="cls-2" x1="242.5" y1="37.64" x2="242.55" y2="36.95"/>
  <line class="cls-2" x1="240.45" y1="37.56" x2="242.55" y2="36.95"/>
  <line class="cls-2" x1="57.65" y1="66.58" x2="51.62" y2="116.6"/>
  <line class="cls-2" x1="52.77" y1="113.89" x2="53.11" y2="111.12"/>
  <line class="cls-2" x1="81.72" y1="80.36" x2="87.68" y2="136.39"/>
  <line class="cls-2" x1="207.3" y1="49.46" x2="204.56" y2="72.18"/>
  <line class="cls-2" x1="205.71" y1="69.46" x2="206.05" y2="66.69"/>
  <line class="cls-2" x1="240.63" y1="91.97" x2="235.23" y2="41.22"/>
  <line class="cls-2" x1="240.4" y1="37.19" x2="91.65" y2="80.4"/>
  <line class="cls-2" x1="55.9" y1="110.91" x2="55.4" y2="115.06"/>
  <polyline class="cls-1" points="16.86 40.36 15.46 45.9 18.24 45.91 16.86 40.36"/>
  <polyline class="cls-1" points="16.86 97.49 18.26 91.95 15.48 91.94 16.86 97.49"/>
  <polyline class="cls-1" points="7.68 126.61 11.91 130.45 13.22 128.01 7.68 126.61"/>
  <polyline class="cls-1" points="47.1 148.19 42.87 144.35 41.55 146.8 47.1 148.19"/>
  <polyline class="cls-1" points="118.36 153.31 123.34 150.49 124.08 153.16 118.36 153.31"/>
  <polyline class="cls-1" points="274.95 107.91 269.98 110.74 269.23 108.06 274.95 107.91"/>
  <g>
    <g class="cls-3">
      <path class="cls-4" d="m14.81,140.6l.33-.63,3.06-.65c.91-.19,1.49-.53,1.76-1.01.17-.31.21-.61.12-.9-.09-.29-.3-.52-.62-.7-.38-.21-.75-.25-1.09-.11-.34.14-.6.42-.79.86l-.67-.43c.28-.6.68-.99,1.22-1.17.54-.18,1.1-.11,1.68.21.54.3.89.69,1.06,1.17.16.48.11.97-.17,1.47-.19.34-.46.61-.83.83-.37.21-.87.38-1.49.51l-2.2.46,2.72,1.49-.36.65-3.73-2.05Z"/>
      <path class="cls-4" d="m21.39,144.3c-.68-.37-1.06-.91-1.15-1.62-.09-.71.11-1.5.59-2.36.48-.87,1.04-1.46,1.68-1.76s1.31-.27,1.98.1c.67.37,1.05.91,1.14,1.62s-.11,1.5-.58,2.36c-.47.86-1.04,1.45-1.68,1.76-.65.31-1.31.28-1.98-.09Zm.36-.65c.44.24.88.23,1.33-.03.45-.26.86-.72,1.23-1.4.37-.67.54-1.27.52-1.79-.02-.52-.25-.9-.69-1.14-.45-.25-.9-.24-1.35.02-.45.26-.86.73-1.23,1.41-.37.67-.54,1.27-.52,1.79s.26.9.7,1.15Z"/>
      <path class="cls-4" d="m24.85,145.05l.77.42-.45.82-.77-.42.45-.82Z"/>
      <path class="cls-4" d="m25.95,146.73l.33-.63,3.06-.65c.91-.19,1.49-.53,1.76-1.01.17-.31.21-.61.12-.9-.09-.29-.3-.52-.62-.7-.38-.21-.75-.25-1.09-.11-.34.14-.6.42-.79.86l-.67-.43c.28-.6.68-.99,1.22-1.17.54-.18,1.1-.11,1.68.21.54.3.89.69,1.06,1.17.16.48.11.97-.17,1.47-.19.34-.46.61-.83.83-.37.21-.87.38-1.49.51l-2.2.46,2.72,1.49-.36.65-3.73-2.05Z"/>
      <path class="cls-4" d="m34.78,144.31l-1.28,1.33-.86-.47,1.69-1.1.45.25Zm1.17.64l-1.28,1.33-.87-.48,1.69-1.1.46.25Z"/>
    </g>
    <g class="cls-3">
      <path class="cls-4" d="m25.21,132.87c-.53-.29-.9-.68-1.11-1.15-.21-.47-.22-.96-.04-1.47l.74.25c-.12.33-.1.66.03.96.14.31.38.56.72.75.37.2.72.25,1.07.14.34-.11.62-.35.82-.72.21-.38.26-.75.16-1.1-.11-.35-.36-.63-.76-.85-.53-.29-1.05-.29-1.59,0l-.46-.4,2.08-2.77,2.94,1.62-.35.64-2.41-1.33-1.15,1.53c.22-.06.45-.07.71-.04.25.03.48.1.68.21.57.31.94.74,1.1,1.27.16.53.09,1.08-.21,1.63-.32.57-.74.94-1.28,1.09-.54.15-1.1.07-1.69-.26Z"/>
    </g>
    <g class="cls-3">
      <path class="cls-4" d="m28.71,134.71l2.54-4.62c-.52.13-1.07.09-1.65-.1l.35-.64c.63.19,1.27.16,1.9-.09l.57.31-3.03,5.52-.68-.37Z"/>
      <path class="cls-4" d="m30.2,135.53l.33-.63,3.06-.65c.91-.19,1.49-.53,1.76-1.01.17-.31.21-.61.12-.9-.09-.29-.3-.52-.62-.7-.38-.21-.75-.25-1.09-.11-.34.14-.6.42-.79.86l-.67-.43c.28-.6.68-.99,1.22-1.17.54-.18,1.1-.11,1.68.21.54.3.89.69,1.06,1.17.16.48.11.97-.17,1.47-.19.34-.46.61-.83.83-.37.21-.87.38-1.49.51l-2.2.46,2.72,1.5-.36.65-3.73-2.05Z"/>
    </g>
  </g>
  <g>
    <g class="cls-3">
      <g class="cls-3">
        <path class="cls-4" d="m26.09,76.62h-5.27c.36.39.59.89.7,1.49h-.73c-.14-.65-.47-1.19-1-1.62v-.65h6.3v.77Z"/>
      </g>
      <g class="cls-3">
        <path class="cls-4" d="m24.01,72.6c0,.65-.2,1.18-.6,1.6-.4.42-.92.62-1.54.62s-1.15-.21-1.55-.64c-.4-.43-.6-.98-.6-1.64,0-.7.26-1.27.79-1.7.53-.43,1.22-.64,2.09-.64,1.13,0,2,.27,2.63.81s.94,1.24.94,2.11c0,.66-.19,1.23-.58,1.72l-.64-.41c.32-.37.48-.81.48-1.31,0-.61-.22-1.11-.67-1.52s-1.01-.61-1.69-.63c.29.14.52.37.69.66.17.3.26.62.26.98Zm-3.15-1.09c-.27.27-.41.62-.41,1.04s.14.77.41,1.04c.27.27.62.41,1.04.41.41,0,.75-.14,1.02-.41.27-.27.4-.62.4-1.04s-.13-.77-.4-1.04c-.27-.27-.61-.41-1.02-.41s-.77.14-1.04.41Z"/>
      </g>
      <g class="cls-3">
        <path class="cls-4" d="m25.15,69.6v-.88h.94v.88h-.94Z"/>
      </g>
      <g class="cls-3">
        <path class="cls-4" d="m26.09,67.31h-5.27c.36.39.59.89.7,1.49h-.73c-.14-.65-.47-1.19-1-1.62v-.65h6.3v.77Z"/>
        <path class="cls-4" d="m19.71,62.74l1.78.49v.99l-1.78-.95v-.52Zm0,1.33l1.78.49v.98l-1.78-.95v-.51Z"/>
      </g>
    </g>
    <g class="cls-3">
      <path class="cls-4" d="m13.65,74.3h-1.54v3.32h-.74l-4.02-3.19v-.95h4.02v-.91h.74v.91h1.54v.82Zm-2.28,2.44v-2.44h-3.09l3.09,2.44Z"/>
      <path class="cls-4" d="m13.72,69.71c0,.67-.17,1.22-.51,1.63-.34.42-.8.62-1.37.62-.37,0-.69-.11-.98-.32s-.49-.5-.6-.86c-.13.28-.31.51-.55.67-.24.17-.5.25-.77.25-.49,0-.89-.18-1.2-.54-.31-.36-.46-.85-.46-1.45s.15-1.06.46-1.42c.31-.36.71-.54,1.2-.54.28,0,.54.08.78.25s.42.39.54.67c.11-.36.31-.65.6-.86s.62-.32.98-.32c.56,0,1.02.21,1.36.62.34.41.52.95.52,1.61Zm-3.77,0c0-.35-.09-.63-.27-.84-.18-.21-.42-.32-.72-.32-.3,0-.54.1-.72.31-.18.21-.27.5-.27.85,0,.37.09.67.27.88.18.22.42.32.72.31.3,0,.54-.12.72-.33.18-.22.27-.5.27-.87Zm3.06,0c0-.43-.11-.77-.32-1.02-.22-.26-.5-.38-.86-.38s-.64.13-.85.38c-.22.25-.32.6-.32,1.02s.11.78.32,1.04.5.39.85.39.64-.13.86-.39.32-.6.32-1.04Z"/>
      <path class="cls-4" d="m13.72,64.57c0,.61-.16,1.12-.47,1.53-.32.41-.74.66-1.26.74l-.13-.76c.35-.06.62-.22.83-.49s.31-.6.31-1c0-.42-.13-.75-.39-1s-.6-.37-1.03-.37-.78.13-1.04.39c-.25.26-.38.62-.38,1.08,0,.6.25,1.07.76,1.4l-.13.59-3.43-.5v-3.36h.73v2.75l1.89.27c-.16-.16-.28-.36-.38-.6-.1-.24-.14-.47-.14-.7,0-.65.19-1.18.58-1.58.39-.4.9-.6,1.53-.6s1.18.2,1.57.6c.39.4.59.93.59,1.61Z"/>
    </g>
  </g>
  <g>
    <g class="cls-3">
      <g class="cls-3">
        <path class="cls-4" d="m195.6,140.38c-.58.17-1.12.16-1.6-.03-.48-.19-.84-.53-1.06-1.01l.7-.34c.15.32.39.54.7.66.31.12.66.13,1.04.02.4-.12.69-.33.86-.65.17-.32.19-.68.07-1.09-.12-.42-.34-.71-.66-.88-.32-.17-.7-.19-1.14-.07-.58.17-.95.54-1.13,1.11l-.61.04-.47-3.43,3.22-.93.2.7-2.65.76.26,1.89c.11-.19.27-.37.47-.53.2-.16.41-.27.63-.33.63-.18,1.19-.14,1.68.12.49.26.82.7,1,1.31.18.63.13,1.19-.14,1.67-.27.49-.73.83-1.38,1.01Z"/>
      </g>
      <g class="cls-3">
        <path class="cls-4" d="m199.85,136.92c-.62.18-1.19.13-1.7-.14-.51-.27-.85-.71-1.03-1.3-.17-.61-.11-1.16.19-1.67.3-.51.77-.85,1.41-1.04.68-.2,1.29-.1,1.85.29.56.38.96,1,1.2,1.83.31,1.08.3,2-.05,2.75-.34.75-.93,1.24-1.77,1.48-.63.18-1.24.16-1.81-.08l.22-.73c.45.2.91.23,1.39.1.58-.17,1.01-.52,1.27-1.06s.31-1.14.13-1.8c-.06.32-.21.6-.45.84-.24.25-.53.42-.87.52Zm.18-3.33c-.34-.19-.71-.22-1.11-.11-.4.12-.7.34-.88.68-.18.34-.22.71-.11,1.11.11.4.34.69.68.87.34.18.71.21,1.11.1.4-.12.7-.34.89-.67s.23-.7.11-1.1c-.12-.4-.34-.7-.68-.88Z"/>
      </g>
      <g class="cls-3">
        <path class="cls-4" d="m203.05,137.18l.85-.24.26.9-.85.24-.26-.9Z"/>
      </g>
      <g class="cls-3">
        <path class="cls-4" d="m205.51,137.45l-1.46-5.07c-.28.46-.69.82-1.24,1.09l-.2-.7c.58-.31,1.01-.78,1.28-1.41l.62-.18,1.75,6.05-.74.21Z"/>
        <path class="cls-4" d="m206.86,130.43l.03,1.85-.94.27.42-1.98.49-.14Zm1.28-.37l.03,1.85-.95.28.42-1.98.5-.14Z"/>
      </g>
    </g>
    <g class="cls-3">
      <path class="cls-4" d="m189.99,129.46l-1.46-5.07c-.28.45-.69.82-1.24,1.09l-.2-.7c.58-.31,1.01-.78,1.28-1.41l.62-.18,1.75,6.05-.74.21Z"/>
      <path class="cls-4" d="m193.86,128.42c-.58.17-1.12.16-1.6-.03-.48-.19-.84-.53-1.06-1.01l.7-.34c.15.32.39.54.7.66.31.12.66.13,1.04.02.4-.12.69-.33.86-.65s.19-.68.07-1.09c-.12-.42-.34-.72-.66-.89-.32-.17-.7-.19-1.14-.07-.58.17-.95.54-1.13,1.11l-.61.04-.47-3.43,3.23-.93.2.7-2.65.76.26,1.89c.11-.2.27-.37.47-.53s.41-.27.63-.33c.63-.18,1.19-.14,1.68.12.49.26.82.7,1,1.31.18.63.13,1.19-.14,1.67-.27.49-.73.83-1.38,1.01Z"/>
      <path class="cls-4" d="m199,126.94c-.74.21-1.4.1-1.96-.34-.56-.44-.98-1.14-1.25-2.09-.27-.95-.29-1.76-.05-2.43.24-.67.73-1.12,1.48-1.33.74-.21,1.39-.1,1.96.34.56.44.98,1.14,1.26,2.08.27.95.29,1.76.04,2.43-.24.67-.73,1.12-1.47,1.33Zm-.2-.71c.48-.14.79-.46.93-.96.14-.5.1-1.12-.11-1.86-.21-.74-.51-1.28-.9-1.64-.39-.35-.82-.46-1.3-.32-.49.14-.8.46-.94.96-.14.5-.1,1.12.12,1.87.21.74.51,1.28.89,1.63s.82.46,1.31.32Z"/>
      <path class="cls-4" d="m204.34,125.4c-.74.21-1.4.1-1.96-.34-.56-.44-.98-1.14-1.25-2.09-.28-.95-.29-1.76-.05-2.43.24-.67.73-1.11,1.47-1.33.74-.21,1.39-.1,1.96.35.56.44.98,1.14,1.26,2.08.27.95.29,1.76.04,2.43s-.73,1.12-1.47,1.33Zm-.21-.71c.48-.14.79-.46.93-.96s.1-1.12-.11-1.86-.51-1.28-.9-1.64c-.39-.35-.82-.46-1.3-.32-.49.14-.8.46-.94.96-.14.5-.1,1.12.12,1.87.21.74.51,1.28.89,1.63.38.35.82.46,1.31.32Z"/>
    </g>
  </g>
</svg>