<svg id="Vrstva_1" data-name="Vrstva 1" xmlns="http://www.w3.org/2000/svg" viewBox="0 0 325.98 226.77"><defs><style>.cls-1{fill:none;stroke:#010101;stroke-linecap:round;stroke-linejoin:round;}.cls-1,.cls-2{stroke-width:.7px;}.cls-2{fill:#020303;stroke:#020303;stroke-miterlimit:10;}.cls-3{isolation:isolate;}.cls-4{fill:#1d1d1b;}
.cls-1{stroke:#ffffff}
.cls-2{stroke:#ffffff;fill:#ffffff}
.cls-4{fill:#ffffff}
</style></defs><line class="cls-1" x1="90.05" y1="183.12" x2="50.36" y2="196.17"/><line class="cls-1" x1="5.95" y1="166.8" x2="45.16" y2="154.88"/><polyline class="cls-2" points="10.08 165.55 14.11 169.69 15.53 167.39 10.08 165.55"/><polyline class="cls-2" points="55.85 194.4 51.81 190.27 50.39 192.57 55.85 194.4"/><g class="cls-3"><path class="cls-4" d="M19.51,182.46l.37-.61,3.08-.5a2.46,2.46,0,0,0,1.81-.92,1.12,1.12,0,0,0,.16-.89,1.2,1.2,0,0,0-.58-.73,1.22,1.22,0,0,0-1.08-.16,1.46,1.46,0,0,0-.83.81l-.65-.46a2,2,0,0,1,2.94-.81,2.13,2.13,0,0,1,1,1.22,1.78,1.78,0,0,1-.24,1.47,2.17,2.17,0,0,1-.88.78,5,5,0,0,1-1.51.43l-2.22.35,2.64,1.62-.38.63Z"/><path class="cls-4" d="M25.53,186.26A2.45,2.45,0,0,1,24.48,185a1.85,1.85,0,0,1,.09-1.49l.72.3a1.32,1.32,0,0,0-.06,1,1.58,1.58,0,0,0,.69.81,1.46,1.46,0,0,0,1.08.24,1.25,1.25,0,0,0,.84-.61,1.23,1.23,0,0,0,.18-1,1.47,1.47,0,0,0-.69-.83,1.34,1.34,0,0,0-.69-.2l0-.63,2.73-.63-2.61-1.6.39-.62,3.42,2.11-.37.6-2.44.55a1.89,1.89,0,0,1,1.07,1.17,1.81,1.81,0,0,1-.25,1.54,1.9,1.9,0,0,1-1.31.93A2.41,2.41,0,0,1,25.53,186.26Z"/><path class="cls-4" d="M28.86,187.12l.75.46-.49.8-.75-.46Z"/><path class="cls-4" d="M31.72,190.07a2.44,2.44,0,0,1-1.06-1.23,2,2,0,0,1,.09-1.5l.72.3a1.27,1.27,0,0,0,0,1,1.52,1.52,0,0,0,.68.81,1.5,1.5,0,0,0,1.09.24,1.27,1.27,0,0,0,.83-.6,1.31,1.31,0,0,0,.19-1,1.49,1.49,0,0,0-.7-.83,1.29,1.29,0,0,0-.69-.2l0-.62,2.73-.64-2.6-1.6.38-.62,3.42,2.11-.37.6-2.44.55A1.91,1.91,0,0,1,35,188a1.81,1.81,0,0,1-.25,1.54,1.87,1.87,0,0,1-1.31.93A2.37,2.37,0,0,1,31.72,190.07Z"/><path class="cls-4" d="M38.89,186.92l-1.35,1.26-.83-.51,1.74-1Zm1.13.7-1.34,1.26-.85-.52,1.75-1Z"/></g><g class="cls-3"><path class="cls-4" d="M30.05,174.92a2.48,2.48,0,0,1-1.06-1.2,1.92,1.92,0,0,1,0-1.47l.72.29a1.28,1.28,0,0,0,0,1,1.6,1.6,0,0,0,.69.78,1.33,1.33,0,0,0,1.06.2,1.42,1.42,0,0,0,.85-.69,1.28,1.28,0,0,0,.21-1.08,1.44,1.44,0,0,0-.71-.89,1.61,1.61,0,0,0-1.59-.09l-.44-.42L32,168.65l2.86,1.77-.38.62-2.34-1.45-1.23,1.47a1.87,1.87,0,0,1,.71,0,1.78,1.78,0,0,1,.67.24,2.2,2.2,0,0,1,1,1.33,2,2,0,0,1-.29,1.62,2.12,2.12,0,0,1-1.34,1A2.17,2.17,0,0,1,30.05,174.92Z"/><path class="cls-4" d="M35.46,175.73a2.19,2.19,0,0,1-1-1.35,2.2,2.2,0,0,1,1.64-2.62,2.33,2.33,0,0,1,1.71.35,2.08,2.08,0,0,1,1,1.56,3.19,3.19,0,0,1-.55,2.12,3.92,3.92,0,0,1-2.06,1.82,2.87,2.87,0,0,1-3.45-1.71l.69-.32a2,2,0,0,0,.86,1.09,2,2,0,0,0,1.64.23,2.5,2.5,0,0,0,1.43-1.11,1.66,1.66,0,0,1-.93.24A1.93,1.93,0,0,1,35.46,175.73Zm2.59-2.11a1.41,1.41,0,0,0-.67-.89,1.39,1.39,0,0,0-1.09-.2,1.44,1.44,0,0,0-.9.67,1.38,1.38,0,0,0-.19,1.09,1.42,1.42,0,0,0,.67.88,1.46,1.46,0,0,0,1.1.21,1.38,1.38,0,0,0,.88-.66A1.41,1.41,0,0,0,38.05,173.62Z"/><path class="cls-4" d="M36.82,179l.37-.61,3.09-.49a2.49,2.49,0,0,0,1.8-.92,1.08,1.08,0,0,0,.16-.89,1.18,1.18,0,0,0-.58-.73,1.22,1.22,0,0,0-1.08-.17,1.45,1.45,0,0,0-.83.82l-.64-.46a1.94,1.94,0,0,1,2.93-.81A2.1,2.1,0,0,1,43,176a1.75,1.75,0,0,1-.24,1.46,2.16,2.16,0,0,1-.87.79,5.35,5.35,0,0,1-1.52.43l-2.22.34,2.65,1.63-.39.63Z"/></g><line class="cls-1" x1="10.39" y1="165.74" x2="55.76" y2="194.38"/><line class="cls-1" x1="128.68" y1="205.43" x2="319.59" y2="141.56"/><line class="cls-1" x1="94.6" y1="184.01" x2="132.94" y2="208.2"/><line class="cls-1" x1="275.14" y1="123.27" x2="324.07" y2="143.16"/><polyline class="cls-2" points="128.62 205.41 134.37 204.92 133.5 202.37 128.62 205.41"/><polyline class="cls-2" points="319.76 141.48 314.01 141.98 314.89 144.53 319.76 141.48"/><line class="cls-1" x1="44.44" y1="151.92" x2="8.85" y2="131.92"/><line class="cls-1" x1="43.54" y1="46.36" x2="8.71" y2="34.11"/><line class="cls-1" x1="12.84" y1="134.1" x2="12.84" y2="35.82"/><polyline class="cls-2" points="12.84 35.54 14.19 41.16 11.49 41.13 12.84 35.54"/><polyline class="cls-2" points="12.84 134.08 11.49 128.47 14.19 128.49 12.84 134.08"/><g class="cls-3"><path class="cls-4" d="M22,94.52a2.39,2.39,0,0,1-.5,1.54,1.88,1.88,0,0,1-1.33.7L20,96a1.22,1.22,0,0,0,.87-.47,1.53,1.53,0,0,0,.33-1,1.49,1.49,0,0,0-.36-1,1.38,1.38,0,0,0-1.91,0,1.48,1.48,0,0,0-.34,1,1.22,1.22,0,0,0,.2.7l-.53.35-2-2v3.06h-.73v-4h.71L18,94.35a1.92,1.92,0,0,1,.44-1.53,1.78,1.78,0,0,1,1.45-.59,1.86,1.86,0,0,1,1.47.63A2.35,2.35,0,0,1,22,94.52Z"/><path class="cls-4" d="M21.88,91.67h-.71l-2-2.37a2.44,2.44,0,0,0-1.73-1.06,1.13,1.13,0,0,0-.85.33,1.2,1.2,0,0,0-.31.87,1.24,1.24,0,0,0,.42,1,1.45,1.45,0,0,0,1.13.28l-.06.8A2.06,2.06,0,0,1,16.13,91a2,2,0,0,1-.61-1.57A2.1,2.1,0,0,1,16,88a1.78,1.78,0,0,1,1.37-.56,2.28,2.28,0,0,1,1.13.34,5,5,0,0,1,1.16,1.07l1.45,1.71V87.41h.73Z"/><path class="cls-4" d="M21,86.28V85.4h.94v.88Z"/><path class="cls-4" d="M22,82.18a2.45,2.45,0,0,1-.52,1.63,1.67,1.67,0,0,1-1.37.62,1.64,1.64,0,0,1-1-.32,1.8,1.8,0,0,1-.6-.87,1.51,1.51,0,0,1-.55.67,1.24,1.24,0,0,1-.77.25,1.51,1.51,0,0,1-1.2-.54,2.23,2.23,0,0,1-.45-1.46A2.09,2.09,0,0,1,16,80.74a1.51,1.51,0,0,1,1.2-.54,1.37,1.37,0,0,1,.78.26,1.55,1.55,0,0,1,.54.67,1.71,1.71,0,0,1,.6-.86,1.65,1.65,0,0,1,1-.32,1.7,1.7,0,0,1,1.36.62A2.45,2.45,0,0,1,22,82.18Zm-3.77,0a1.25,1.25,0,0,0-.27-.84.9.9,0,0,0-.72-.32.86.86,0,0,0-.72.3,1.29,1.29,0,0,0-.27.85,1.35,1.35,0,0,0,.27.89.87.87,0,0,0,.72.31.88.88,0,0,0,.72-.33A1.28,1.28,0,0,0,18.21,82.17Zm3.06,0a1.59,1.59,0,0,0-.32-1,1.15,1.15,0,0,0-1.71,0,1.49,1.49,0,0,0-.33,1,1.61,1.61,0,0,0,.32,1,1.09,1.09,0,0,0,.86.38,1,1,0,0,0,.85-.38A1.53,1.53,0,0,0,21.27,82.19Z"/><path class="cls-4" d="M15.55,77.79l1.78.49v1l-1.78-1Zm0-1.33,1.78.49v1l-1.78-1Z"/></g><g class="cls-3"><path class="cls-4" d="M9.94,91.68a2.51,2.51,0,0,1-.52,1.63,1.7,1.7,0,0,1-1.37.62,1.59,1.59,0,0,1-1-.33,1.61,1.61,0,0,1-.6-.86,1.58,1.58,0,0,1-.55.67,1.31,1.31,0,0,1-.77.25A1.46,1.46,0,0,1,4,93.11a2.49,2.49,0,0,1,0-2.87,1.48,1.48,0,0,1,1.2-.54,1.32,1.32,0,0,1,.77.26,1.5,1.5,0,0,1,.55.67,1.61,1.61,0,0,1,.6-.86,1.58,1.58,0,0,1,1-.32,1.71,1.71,0,0,1,1.37.62A2.45,2.45,0,0,1,9.94,91.68Zm-3.77,0a1.25,1.25,0,0,0-.27-.84,1,1,0,0,0-.72-.33.9.9,0,0,0-.72.31,1.27,1.27,0,0,0-.27.85,1.32,1.32,0,0,0,.27.88.83.83,0,0,0,.71.32,1,1,0,0,0,.73-.33A1.3,1.3,0,0,0,6.17,91.67Zm3.06,0a1.58,1.58,0,0,0-.32-1,1.09,1.09,0,0,0-.86-.38,1,1,0,0,0-.85.38,1.49,1.49,0,0,0-.33,1,1.57,1.57,0,0,0,.32,1,1.14,1.14,0,0,0,1.71,0A1.54,1.54,0,0,0,9.23,91.68Z"/><path class="cls-4" d="M10,86.73a2.39,2.39,0,0,1-.5,1.54,1.88,1.88,0,0,1-1.32.7L8,88.2a1.26,1.26,0,0,0,.88-.47,1.58,1.58,0,0,0,.32-1,1.47,1.47,0,0,0-.35-1,1.24,1.24,0,0,0-1-.39,1.23,1.23,0,0,0-1,.37,1.46,1.46,0,0,0-.35,1,1.32,1.32,0,0,0,.2.7l-.52.35-2-2v3.06H3.58v-4H4.3L6,86.55A2,2,0,0,1,6.47,85a1.86,1.86,0,0,1,1.45-.59,1.94,1.94,0,0,1,1.48.63A2.44,2.44,0,0,1,10,86.73Z"/><path class="cls-4" d="M9.89,83.88H9.18l-2-2.37a2.43,2.43,0,0,0-1.72-1.06,1.11,1.11,0,0,0-.85.33,1.19,1.19,0,0,0-.32.87,1.21,1.21,0,0,0,.43,1A1.42,1.42,0,0,0,5.8,83l0,.8a2.05,2.05,0,0,1-1.61-.52,2.06,2.06,0,0,1-.62-1.57A2.14,2.14,0,0,1,4,80.17a1.82,1.82,0,0,1,1.38-.56A2.15,2.15,0,0,1,6.54,80,5,5,0,0,1,7.7,81l1.45,1.72V79.62H9.9Z"/></g><path class="cls-1" d="M271.73,121.81a1.12,1.12,0,0,1-.06.6.58.58,0,0,1-.49.32"/><path class="cls-1" d="M224.73,105.54a.72.72,0,0,1-.09.2c0,.05-.09.14-.16.15"/><path class="cls-1" d="M220.09,105a1,1,0,0,1-.36-.19,1.3,1.3,0,0,1-.26-.31,1.12,1.12,0,0,1-.15-.38,1,1,0,0,1,0-.41"/><path class="cls-1" d="M223.73,105.93l-3.64-1"/><path class="cls-1" d="M223.73,105.93a.61.61,0,0,0,.3,0"/><path class="cls-1" d="M224.47,105.58q3.09-9.35,6.16-18.69"/><path class="cls-1" d="M266.84,123.25l-2.33-1.39"/><path class="cls-1" d="M264,120.89a1.57,1.57,0,0,0,.06.28,2.77,2.77,0,0,0,.1.26,1,1,0,0,0,.35.43"/><path class="cls-1" d="M266.84,123.25a.29.29,0,0,0,.2,0"/><line class="cls-1" x1="271.73" y1="121.81" x2="266.09" y2="77.24"/><path class="cls-1" d="M230,56.9l.08,0"/><path class="cls-1" d="M230.62,15.35a.38.38,0,0,0-.08-.17.26.26,0,0,0-.15-.12"/><line class="cls-1" x1="230.31" y1="15.06" x2="229.79" y2="15.18"/><path class="cls-1" d="M274.61,71.49a.57.57,0,0,0,0-.26.35.35,0,0,0-.19-.19"/><path class="cls-1" d="M264.57,66.82l-.5-.2-.5-.17"/><line class="cls-1" x1="274.08" y1="75.37" x2="274.61" y2="71.49"/><line class="cls-1" x1="271.68" y1="76.42" x2="271.52" y2="76.35"/><path class="cls-1" d="M267.56,76.88a.66.66,0,0,0,.15.05.43.43,0,0,0,.16,0"/><path class="cls-1" d="M230.05,56.92a.47.47,0,0,1,.27.23.8.8,0,0,1,.11.34"/><line class="cls-1" x1="228.52" y1="56.83" x2="229.97" y2="56.9"/><line class="cls-1" x1="230.43" y1="57.49" x2="230.73" y2="60.63"/><path class="cls-1" d="M235.5,41.08c0-.35-.08-.7-.13-1s-.1-.69-.17-1"/><line class="cls-1" x1="235.2" y1="39.01" x2="230.62" y2="15.35"/><path class="cls-1" d="M263.57,66.45l-.6-.17"/><line class="cls-1" x1="274.38" y1="71.04" x2="264.57" y2="66.82"/><path class="cls-1" d="M237.15,58.63a2.19,2.19,0,0,0,.1.51,2.43,2.43,0,0,0,.22.46,1.41,1.41,0,0,0,.34.39,1,1,0,0,0,.45.24"/><line class="cls-1" x1="262.97" y1="66.28" x2="238.26" y2="60.23"/><line class="cls-1" x1="237.15" y1="58.63" x2="235.5" y2="41.08"/><path class="cls-1" d="M271.68,76.42a1,1,0,0,0,.48.08"/><path class="cls-1" d="M272.91,75.88a.48.48,0,0,1-.35.3"/><path class="cls-1" d="M273,75.48a1.4,1.4,0,0,1-.11.4"/><line class="cls-1" x1="273.22" y1="76.39" x2="272.16" y2="76.5"/><path class="cls-1" d="M273.22,76.39a.91.91,0,0,0,.61-.35,1.41,1.41,0,0,0,.17-.32,1.37,1.37,0,0,0,.08-.35"/><path class="cls-1" d="M272.56,76.18h-.09"/><path class="cls-1" d="M271.18,122.73l-4.14.57"/><path class="cls-1" d="M230.39,15.06h-.08"/><line class="cls-1" x1="267.34" y1="122.45" x2="261.73" y2="78.43"/><path class="cls-1" d="M232.49,62.07a1.09,1.09,0,0,1-.45-.24,1.8,1.8,0,0,1-.33-.4,1.56,1.56,0,0,1-.22-.47,2.13,2.13,0,0,1-.11-.5"/><path class="cls-1" d="M231.38,60.46,231,56"/><path class="cls-1" d="M267,123.3a.28.28,0,0,0,.2-.13.92.92,0,0,0,.09-.23,1.6,1.6,0,0,0,0-.49"/><line class="cls-1" x1="224.48" y1="105.89" x2="224.03" y2="105.95"/><path class="cls-1" d="M272.16,76.5a.87.87,0,0,0,.46-.2,1.1,1.1,0,0,0,.29-.42"/><line class="cls-1" x1="258.68" y1="79.26" x2="264" y2="120.89"/><path class="cls-1" d="M232.11,62.88l-.3-.17-.26-.23a2.46,2.46,0,0,1-.41-.55,3.73,3.73,0,0,1-.27-.63,3.07,3.07,0,0,1-.14-.67"/><path class="cls-1" d="M262.29,66.74l-.12,0"/><path class="cls-1" d="M226.57,41.14c.05.28.08.55.11.82"/><path class="cls-1" d="M228.22,56.66a.44.44,0,0,0,.3.17"/><path class="cls-1" d="M227.3,41.83c0-.27-.07-.55-.11-.82"/><path class="cls-1" d="M231.85,40.87l-.12-.83"/><path class="cls-1" d="M231.93,41.54h0"/><path class="cls-1" d="M234.39,41h0"/><path class="cls-1" d="M234.18,39.51c.08.47.15.94.2,1.42"/><line class="cls-1" x1="232.71" y1="31.95" x2="232.96" y2="33.21"/><line class="cls-1" x1="231.49" y1="25.65" x2="231.49" y2="25.65"/><line class="cls-1" x1="231.25" y1="24.39" x2="231.49" y2="25.64"/><line class="cls-1" x1="234.99" y1="47.34" x2="235.1" y2="48.52"/><path class="cls-1" d="M232.58,48.43c0-.18,0-.36-.05-.54"/><path class="cls-1" d="M228.05,49.42c0-.17,0-.34-.05-.51"/><path class="cls-1" d="M224.48,27l-.24-1.24"/><path class="cls-1" d="M226,34.61l-.24-1.23"/><path class="cls-1" d="M225.09,33.51l.24,1.23"/><path class="cls-1" d="M223.61,25.9l.24,1.25"/><path class="cls-1" d="M227.37,49.05c0,.17,0,.34,0,.52"/><line class="cls-1" x1="268.28" y1="69.23" x2="268" y2="69.1"/><path class="cls-1" d="M234,62.43l-1.46-.36"/><path class="cls-1" d="M267.51,76.86l.05,0"/><path class="cls-1" d="M229,26.13l-.24-1.24"/><path class="cls-1" d="M230.51,33.67l-.24-1.22"/><path class="cls-1" d="M230.9,86.82q-3.09,9.36-6.17,18.72"/><path class="cls-1" d="M219.34,103.68q2.44-7.52,4.88-15"/><path class="cls-1" d="M224,106a.53.53,0,0,0,.44-.37"/><path class="cls-1" d="M272.56,76.18l-4.68.76"/><path class="cls-1" d="M267.87,76.94a.38.38,0,0,0,.29-.26"/><path class="cls-1" d="M91.91,125.77a.63.63,0,0,0,.29-.27,1.2,1.2,0,0,0,.15-.37"/><path class="cls-1" d="M64,111.28a.72.72,0,0,1,.54,0"/><line class="cls-1" x1="82.06" y1="116.41" x2="92.49" y2="181.19"/><path class="cls-1" d="M57.63,104.1l22.88,9.65"/><path class="cls-1" d="M80.51,113.75a1.82,1.82,0,0,1,.62.48,4.21,4.21,0,0,1,.44.66,5.18,5.18,0,0,1,.49,1.5"/><path class="cls-1" d="M81.31,118.54a1.81,1.81,0,0,1,.61.48,3.49,3.49,0,0,1,.43.65,4.81,4.81,0,0,1,.49,1.47"/><line class="cls-1" x1="56.74" y1="101.79" x2="53.79" y2="80.49"/><line class="cls-1" x1="55.2" y1="80.17" x2="57.46" y2="96.51"/><line class="cls-1" x1="80.26" y1="113.23" x2="57.86" y2="103.81"/><line class="cls-1" x1="90.9" y1="120.02" x2="81.73" y2="114.02"/><line class="cls-1" x1="53.36" y1="77.97" x2="47.3" y2="49.06"/><line class="cls-1" x1="48.76" y1="48.95" x2="54.76" y2="77.66"/><path class="cls-1" d="M53.79,80.49c-.06-.42-.12-.84-.19-1.26L53.36,78"/><path class="cls-1" d="M54.76,77.66c.09.41.17.83.24,1.25s.14.84.2,1.26"/><line class="cls-1" x1="83.52" y1="122.05" x2="89.86" y2="126.29"/><line class="cls-1" x1="90.99" y1="125.27" x2="91.14" y2="120.6"/><line class="cls-1" x1="92.43" y1="124.09" x2="92.56" y2="120.28"/><line class="cls-1" x1="47.01" y1="48.69" x2="44.7" y2="49.24"/><path class="cls-1" d="M48.54,48.59c.07,0,.12.1.15.15a.86.86,0,0,1,.07.21"/><line class="cls-1" x1="81.77" y1="112.99" x2="62.21" y2="104.79"/><path class="cls-1" d="M82.32,113.24l-.28-.13-.27-.12"/><line class="cls-1" x1="92.32" y1="119.71" x2="83.24" y2="113.78"/><path class="cls-1" d="M55.66,155.08a.68.68,0,0,1-.12.26.66.66,0,0,1-.23.17"/><path class="cls-1" d="M82.32,113.24l.46.26.23.14.23.14"/><line class="cls-1" x1="251.58" y1="63.61" x2="72.44" y2="108.38"/><path class="cls-1" d="M72.44,108.38c0,.24,0,.48,0,.72"/><path class="cls-1" d="M76.79,110.19l0,.73"/><line class="cls-1" x1="245" y1="62" x2="66.47" y2="105.88"/><line class="cls-1" x1="240.38" y1="60.87" x2="62.29" y2="104.14"/><path class="cls-1" d="M62.29,104.14c0,.23,0,.47,0,.71"/><path class="cls-1" d="M66.47,105.88c0,.24,0,.48,0,.72"/><line class="cls-1" x1="62.29" y1="104.14" x2="66.47" y2="105.88"/><line class="cls-1" x1="62.33" y1="104.71" x2="62.33" y2="104.85"/><line class="cls-1" x1="234.71" y1="40.94" x2="55.62" y2="79.72"/><line class="cls-1" x1="231.77" y1="40.87" x2="234.71" y2="40.94"/><line class="cls-1" x1="231.77" y1="40.87" x2="55.02" y2="78.99"/><line class="cls-1" x1="234.71" y1="40.94" x2="55.62" y2="79.72"/><line class="cls-1" x1="55.62" y1="79.72" x2="56.68" y2="87.38"/><line class="cls-1" x1="235.3" y1="47.27" x2="56.68" y2="87.38"/><line class="cls-1" x1="234.71" y1="40.94" x2="235.3" y2="47.27"/><line class="cls-1" x1="245.93" y1="62.23" x2="67.31" y2="106.24"/><path class="cls-1" d="M71.57,108c0,.24,0,.49.05.73"/><line class="cls-1" x1="67.31" y1="106.24" x2="71.57" y2="108.01"/><line class="cls-1" x1="67.35" y1="106.81" x2="67.36" y2="106.95"/><line class="cls-1" x1="88.51" y1="116.42" x2="88.49" y2="117.21"/><line class="cls-1" x1="93.15" y1="119.44" x2="92.99" y2="124.35"/><line class="cls-1" x1="274" y1="71.15" x2="273.45" y2="75.24"/><line class="cls-1" x1="88.49" y1="117.2" x2="88.51" y2="116.42"/><line class="cls-1" x1="269.05" y1="69.02" x2="88.51" y2="116.42"/><line class="cls-1" x1="273.45" y1="75.24" x2="92.99" y2="124.35"/><line class="cls-1" x1="269.06" y1="69.02" x2="88.51" y2="116.42"/><line class="cls-1" x1="88.51" y1="116.42" x2="93.15" y2="119.44"/><line class="cls-1" x1="274" y1="71.15" x2="93.15" y2="119.44"/><line class="cls-1" x1="268.07" y1="68.6" x2="267.98" y2="69.31"/><line class="cls-1" x1="263.2" y1="66.5" x2="83.05" y2="112.86"/><line class="cls-1" x1="263.2" y1="66.5" x2="83.05" y2="112.86"/><line class="cls-1" x1="263.2" y1="66.5" x2="268.07" y2="68.6"/><line class="cls-1" x1="51.44" y1="59.48" x2="48.96" y2="47.58"/><line class="cls-1" x1="231.56" y1="24.32" x2="229.67" y2="14.57"/><line class="cls-1" x1="231.56" y1="24.32" x2="51.44" y2="59.48"/><line class="cls-1" x1="228.71" y1="24.91" x2="231.56" y2="24.32"/><line class="cls-1" x1="228.71" y1="24.91" x2="50.99" y2="59.6"/><line class="cls-1" x1="57.94" y1="96.53" x2="57.45" y2="96.45"/><line class="cls-1" x1="235.42" y1="48.53" x2="56.89" y2="88.9"/><line class="cls-1" x1="232.49" y1="48.42" x2="235.42" y2="48.53"/><line class="cls-1" x1="232.49" y1="48.42" x2="56.3" y2="88.1"/><line class="cls-1" x1="235.42" y1="48.53" x2="56.89" y2="88.91"/><line class="cls-1" x1="56.89" y1="88.91" x2="57.94" y2="96.53"/><line class="cls-1" x1="236.02" y1="54.83" x2="57.94" y2="96.53"/><line class="cls-1" x1="231.8" y1="25.58" x2="51.77" y2="61.01"/><line class="cls-1" x1="231.36" y1="25.67" x2="231.8" y2="25.58"/><line class="cls-1" x1="231.8" y1="25.59" x2="51.77" y2="61.02"/><line class="cls-1" x1="233.02" y1="31.89" x2="53.37" y2="68.7"/><line class="cls-1" x1="233.27" y1="33.15" x2="53.69" y2="70.23"/><line class="cls-1" x1="230.42" y1="33.69" x2="233.27" y2="33.15"/><line class="cls-1" x1="230.42" y1="33.69" x2="53.22" y2="70.27"/><line class="cls-1" x1="233.27" y1="33.15" x2="53.7" y2="70.23"/><line class="cls-1" x1="53.7" y1="70.23" x2="55.3" y2="77.9"/><line class="cls-1" x1="234.49" y1="39.44" x2="55.3" y2="77.9"/><line class="cls-1" x1="233.27" y1="33.15" x2="234.49" y2="39.44"/><line class="cls-1" x1="257.32" y1="65.02" x2="77.67" y2="110.56"/><path class="cls-1" d="M77.67,110.56c0,.24,0,.49,0,.73"/><path class="cls-1" d="M82.11,112.41l0,.75"/><line class="cls-1" x1="262.17" y1="66.2" x2="262.17" y2="66.77"/><line class="cls-1" x1="77.7" y1="111.15" x2="77.71" y2="111.29"/><line class="cls-1" x1="57.6" y1="96.48" x2="57.46" y2="96.51"/><line class="cls-1" x1="62.33" y1="104.77" x2="62.21" y2="104.79"/><path class="cls-1" d="M92.54,124.06l-.11,0"/><path class="cls-1" d="M57.49,69.39c-.1-.49-.21-1-.31-1.47"/><path class="cls-1" d="M55.58,60.26c-.1-.5-.21-1-.31-1.5"/><path class="cls-1" d="M60.51,87.15l-.09-.62"/><path class="cls-1" d="M66.77,103.05l-1.32-.54"/><path class="cls-1" d="M59.38,78.91h0"/><path class="cls-1" d="M59.25,78.07c0-.33-.11-.65-.17-1"/><line class="cls-1" x1="83.03" y1="113.64" x2="83.05" y2="112.86"/><line class="cls-1" x1="82.14" y1="113" x2="82.15" y2="113.16"/><line class="cls-1" x1="55.13" y1="79.66" x2="55.62" y2="79.72"/><line class="cls-1" x1="50.98" y1="59.57" x2="51.44" y2="59.48"/><line class="cls-1" x1="56.4" y1="88.84" x2="56.89" y2="88.9"/><line class="cls-1" x1="51.3" y1="61.11" x2="51.77" y2="61.01"/><line class="cls-1" x1="53.23" y1="70.32" x2="53.69" y2="70.23"/><path class="cls-1" d="M98.41,123.1l-6.15,2.3"/><path class="cls-1" d="M90.48,126.39a.81.81,0,0,0,.4-.49,2.25,2.25,0,0,0,.11-.63"/><line class="cls-1" x1="55.83" y1="155.28" x2="55.32" y2="155.51"/><path class="cls-1" d="M92.42,124.66a1.91,1.91,0,0,1-.07.47"/><path class="cls-1" d="M63.33,112.28a2.32,2.32,0,0,1,.19-.58.92.92,0,0,1,.43-.42"/><path class="cls-1" d="M80.81,113.48l-.27-.13-.28-.12"/><path class="cls-1" d="M47.3,49.06a.58.58,0,0,0-.07-.21c0-.05-.08-.13-.15-.15"/><path class="cls-1" d="M48.17,153.58q4.15-24.24,8.32-48.48"/><path class="cls-1" d="M92.73,181.24a3.93,3.93,0,0,1,.06.48V182s0,.08,0,.12,0,.05,0,.07a0,0,0,0,0,0,0h0"/><path class="cls-1" d="M47.08,48.7h0"/><path class="cls-1" d="M83.5,122a.15.15,0,0,0-.13,0"/><path class="cls-1" d="M82.5,119.15l0,0"/><path class="cls-1" d="M97.79,179.48a.57.57,0,0,0,.22-.19.91.91,0,0,0,.13-.26,1.27,1.27,0,0,0,0-.58"/><path class="cls-1" d="M97.79,179.48l-1.27.68-1.26.67-2.53,1.35"/><path class="cls-1" d="M98.41,123.1a.42.42,0,0,0,.19-.28"/><line class="cls-1" x1="91.91" y1="125.77" x2="90.48" y2="126.39"/><path class="cls-1" d="M82.06,116.39v0"/><path class="cls-1" d="M55.31,155.51a1,1,0,0,1-.5.05"/><path class="cls-1" d="M55.83,155.28c.06,0,.1-.1.12-.15a1.17,1.17,0,0,0,0-.2"/><path class="cls-1" d="M92.61,181.92h0"/><path class="cls-1" d="M92.64,182.1h0v0l0-.09a.43.43,0,0,0,0-.11l0-.23c0-.15,0-.3-.08-.45"/><path class="cls-1" d="M92.73,182.18h0l0,0"/><path class="cls-1" d="M92.68,182.15a.1.1,0,0,0,0-.05"/><path class="cls-1" d="M48.49,48.58h0"/><path class="cls-1" d="M47,48.69h0"/><line class="cls-1" x1="47.03" y1="48.69" x2="48.49" y2="48.58"/><path class="cls-1" d="M83.37,122a.24.24,0,0,0-.11.19.55.55,0,0,0,0,.22"/><line class="cls-1" x1="83.37" y1="122.03" x2="83.39" y2="122.02"/><path class="cls-1" d="M89.86,126.29a.88.88,0,0,0,.3.13.58.58,0,0,0,.32,0"/><path class="cls-1" d="M44.7,49.24a.59.59,0,0,0-.38.36,1.63,1.63,0,0,0-.15.52,3.32,3.32,0,0,0,0,1.09"/><path class="cls-1" d="M56.49,105.1a1.76,1.76,0,0,1,.34-.81.74.74,0,0,1,.36-.24.83.83,0,0,1,.44,0"/><line class="cls-1" x1="64.49" y1="111.31" x2="81.31" y2="118.54"/><line class="cls-1" x1="50.29" y1="80.55" x2="54.79" y2="112.88"/><path class="cls-1" d="M56.74,101.79a4,4,0,0,0,.13.58,5.37,5.37,0,0,0,.21.56,3.27,3.27,0,0,0,.32.5,1.3,1.3,0,0,0,.46.38"/><path class="cls-1" d="M54.79,113.52a2,2,0,0,0,0-.64"/><path class="cls-1" d="M83.52,122.05h0"/><path class="cls-1" d="M50.29,80.55c-.06-.42-.13-.83-.2-1.25s-.15-.83-.24-1.25"/><line class="cls-1" x1="44.22" y1="51.21" x2="49.85" y2="78.05"/><path class="cls-1" d="M64.33,100.51l-.72-5.31"/><path class="cls-1" d="M65.45,102.51a1.39,1.39,0,0,1-.46-.37,3.27,3.27,0,0,1-.32-.5c-.08-.18-.15-.37-.21-.55a4.35,4.35,0,0,1-.13-.58"/><path class="cls-1" d="M91.14,120.6a.87.87,0,0,0-.06-.32.51.51,0,0,0-.18-.26"/><path class="cls-1" d="M92.56,120.28a.87.87,0,0,0-.06-.32.45.45,0,0,0-.18-.25"/><path class="cls-1" d="M63.68,112.15a2.21,2.21,0,0,1,.15-.5,1.12,1.12,0,0,1,.31-.41"/><line class="cls-1" x1="92.73" y1="181.24" x2="83.27" y2="122.44"/><line class="cls-1" x1="98.18" y1="178.45" x2="89.84" y2="126.27"/><path class="cls-1" d="M56,154.93l7.68-42.78"/><line class="cls-1" x1="54.79" y1="113.52" x2="47.97" y2="153.34"/><path class="cls-1" d="M48,153.34a1.16,1.16,0,0,0,.23,1,1.45,1.45,0,0,0,.95.44"/><path class="cls-1" d="M48.17,153.58a1,1,0,0,0,.19.84,1.21,1.21,0,0,0,.79.36"/><path class="cls-1" d="M63.33,112.28q-3.84,21.41-7.67,42.8"/><path class="cls-1" d="M54.81,155.56l-5.66-.78"/><path class="cls-1" d="M81.73,114l-.22-.14-.23-.14-.47-.26"/><line class="cls-1" x1="256.36" y1="64.78" x2="76.79" y2="110.19"/><line class="cls-1" x1="76.82" y1="110.78" x2="76.83" y2="110.92"/><line class="cls-1" x1="72.47" y1="108.96" x2="72.48" y2="109.1"/><line class="cls-1" x1="66.5" y1="106.45" x2="66.51" y2="106.6"/><line class="cls-1" x1="250.63" y1="63.38" x2="71.57" y2="108.01"/><path class="cls-1" d="M67.35,106.81a.61.61,0,0,0,0,.14"/><line class="cls-1" x1="71.61" y1="108.59" x2="71.62" y2="108.74"/><line class="cls-1" x1="268.07" y1="68.6" x2="87.59" y2="115.82"/><line class="cls-1" x1="262.17" y1="66.2" x2="82.11" y2="112.41"/><path class="cls-1" d="M149.55,40.36l.27,1.36"/><line class="cls-1" x1="83.05" y1="112.86" x2="83.03" y2="113.64"/><line class="cls-1" x1="83.05" y1="112.86" x2="87.59" y2="115.82"/><line class="cls-1" x1="72.44" y1="108.38" x2="76.79" y2="110.19"/><line class="cls-1" x1="245" y1="62" x2="245" y2="62.46"/><line class="cls-1" x1="256.36" y1="64.78" x2="256.35" y2="65.27"/><line class="cls-1" x1="251.58" y1="63.61" x2="256.36" y2="64.78"/><line class="cls-1" x1="240.38" y1="60.87" x2="245" y2="62"/><line class="cls-1" x1="250.63" y1="63.38" x2="250.63" y2="63.85"/><line class="cls-1" x1="77.67" y1="110.56" x2="82.11" y2="112.41"/><path class="cls-1" d="M145.66,41.12l.28,1.36"/><path class="cls-1" d="M147.34,49.44l.27,1.35"/><path class="cls-1" d="M149,57.79l.09.43"/><path class="cls-1" d="M151.21,48.65l.27,1.34"/><path class="cls-1" d="M152.88,57l.09.44"/><path class="cls-1" d="M146,41.05l.27,1.36"/><path class="cls-1" d="M147.71,49.37l.27,1.34"/><path class="cls-1" d="M149.39,57.71l.09.45"/><line class="cls-1" x1="154.06" y1="66.93" x2="154.06" y2="66.93"/><line class="cls-1" x1="153.97" y1="66.11" x2="153.9" y2="65.54"/><line class="cls-1" x1="150.58" y1="67.72" x2="150.58" y2="67.71"/><line class="cls-1" x1="150.49" y1="66.89" x2="150.42" y2="66.33"/><line class="cls-1" x1="153.11" y1="58.61" x2="153.11" y2="58.61"/><line class="cls-1" x1="153.03" y1="57.85" x2="152.99" y2="57.55"/><line class="cls-1" x1="149.62" y1="59.36" x2="149.62" y2="59.36"/><line class="cls-1" x1="149.54" y1="58.6" x2="149.5" y2="58.3"/><line class="cls-1" x1="150.05" y1="66.41" x2="150.11" y2="66.97"/><path class="cls-1" d="M149.1,58.22a.11.11,0,0,1,0,.05"/><path class="cls-1" d="M153,57.4a.77.77,0,0,1,0,.15"/><path class="cls-1" d="M149.5,58.3s0-.1,0-.14"/><line class="cls-1" x1="149.11" y1="58.27" x2="149.16" y2="58.68"/><line class="cls-1" x1="55.62" y1="79.72" x2="55.13" y2="79.66"/><line class="cls-1" x1="56.68" y1="87.38" x2="56.19" y2="87.31"/><path class="cls-1" d="M67.31,106.24c0,.19,0,.38,0,.57"/><line class="cls-1" x1="245.93" y1="62.23" x2="250.63" y2="63.38"/><line class="cls-1" x1="87.59" y1="115.82" x2="87.57" y2="116.61"/><line class="cls-1" x1="269.05" y1="69.02" x2="269.05" y2="69.02"/><line class="cls-1" x1="92.99" y1="124.35" x2="92.54" y2="124.06"/><line class="cls-1" x1="269.06" y1="69.02" x2="274" y2="71.15"/><line class="cls-1" x1="263.2" y1="66.51" x2="263.2" y2="66.5"/><line class="cls-1" x1="48.96" y1="47.58" x2="46.52" y2="48.16"/><line class="cls-1" x1="229.67" y1="14.57" x2="48.96" y2="47.58"/><line class="cls-1" x1="46.52" y1="48.16" x2="46.65" y2="48.78"/><line class="cls-1" x1="56.89" y1="88.91" x2="56.4" y2="88.84"/><line class="cls-1" x1="235.42" y1="48.53" x2="235.41" y2="48.53"/><line class="cls-1" x1="235.42" y1="48.53" x2="236.02" y2="54.83"/><line class="cls-1" x1="51.77" y1="61.02" x2="53.37" y2="68.7"/><line class="cls-1" x1="51.77" y1="61.02" x2="51.3" y2="61.11"/><line class="cls-1" x1="53.37" y1="68.7" x2="52.91" y2="68.78"/><line class="cls-1" x1="231.8" y1="25.59" x2="233.02" y2="31.89"/><line class="cls-1" x1="53.7" y1="70.23" x2="53.23" y2="70.32"/><line class="cls-1" x1="233.27" y1="33.15" x2="233.11" y2="33.18"/><line class="cls-1" x1="55.3" y1="77.9" x2="54.83" y2="77.98"/><line class="cls-1" x1="257.32" y1="65.02" x2="262.17" y2="66.2"/><line class="cls-1" x1="47.97" y1="153.34" x2="48.17" y2="153.58"/><path class="cls-1" d="M55.66,155.08l.34-.15"/><line class="cls-1" x1="48.76" y1="48.95" x2="47.3" y2="49.06"/><line class="cls-1" x1="48.54" y1="48.59" x2="47.08" y2="48.7"/><line class="cls-1" x1="92.42" y1="124.66" x2="90.99" y2="125.27"/><path class="cls-1" d="M94.5,123.94l-2.08.72"/><line class="cls-1" x1="80.81" y1="113.48" x2="82.32" y2="113.24"/><line class="cls-1" x1="83.24" y1="113.78" x2="81.73" y2="114.02"/><line class="cls-1" x1="80.26" y1="113.23" x2="81.77" y2="112.99"/><path class="cls-1" d="M81.31,118.54c-.13-.8-.26-1.59-.4-2.4l0-.29c0-.1,0-.2,0-.31s0-.19,0-.29,0-.2-.05-.31c-.07-.39-.14-.79-.2-1.19"/><line class="cls-1" x1="91.08" y1="120.28" x2="92.5" y2="119.96"/><path class="cls-1" d="M56.78,104.32l6.86,7.2"/><path class="cls-1" d="M271.42,75.79l1.6-.31"/><line class="cls-1" x1="229.86" y1="15.58" x2="230.62" y2="15.35"/><line class="cls-1" x1="229.8" y1="15.24" x2="230.39" y2="15.06"/><line class="cls-1" x1="263.57" y1="66.45" x2="263.3" y2="66.55"/><line class="cls-1" x1="273.02" y1="75.48" x2="274.08" y2="75.37"/><path class="cls-1" d="M224.73,105.54l-.26,0"/><line class="cls-1" x1="230.31" y1="15.06" x2="229.79" y2="15.22"/><line class="cls-1" x1="273.97" y1="71.41" x2="274.57" y2="71.23"/><line class="cls-1" x1="234.29" y1="40.22" x2="235.37" y2="40.04"/><line class="cls-1" x1="55" y1="78.91" x2="53.6" y2="79.23"/><g class="cls-3"><path class="cls-4" d="M219.44,184.6a11.51,11.51,0,0,1,.88-6.17L217,179.55l-.23-.69,4.15-1.39.23.69q-1.4,4-.89,6.17Z"/><path class="cls-4" d="M225.57,182.62a2.08,2.08,0,0,1-2-.26,4.75,4.75,0,0,1-1.5-4.46,2.27,2.27,0,0,1,3.39-1.13,4.69,4.69,0,0,1,1.49,4.45A2.07,2.07,0,0,1,225.57,182.62Zm-.23-.7a1.29,1.29,0,0,0,.88-1,3.5,3.5,0,0,0-.19-1.86,3.43,3.43,0,0,0-1-1.59,1.34,1.34,0,0,0-2.2.73,3.5,3.5,0,0,0,.19,1.86,3.56,3.56,0,0,0,1,1.6A1.3,1.3,0,0,0,225.34,181.92Z"/><path class="cls-4" d="M228.47,180.58l.83-.28.3.89-.83.28Z"/><path class="cls-4" d="M232,178.19a2.19,2.19,0,0,1-1.71-.06,2.21,2.21,0,0,1-1-2.93,2.32,2.32,0,0,1,1.37-1.1,2.11,2.11,0,0,1,1.86.21,3.16,3.16,0,0,1,1.27,1.78,3.91,3.91,0,0,1,.08,2.75,2.88,2.88,0,0,1-3.52,1.56l.19-.74a2,2,0,0,0,1.4,0,2,2,0,0,0,1.22-1.11,2.47,2.47,0,0,0,.06-1.8,1.64,1.64,0,0,1-.41.86A1.9,1.9,0,0,1,232,178.19Zm0-3.34a1.4,1.4,0,0,0-1.12,0,1.38,1.38,0,0,0-.85.71,1.44,1.44,0,0,0-.06,1.12,1.39,1.39,0,0,0,.71.84,1.44,1.44,0,0,0,1.12.05,1.41,1.41,0,0,0,.85-.71,1.35,1.35,0,0,0,.07-1.1A1.48,1.48,0,0,0,232,174.85Z"/><path class="cls-4" d="M235,172.66l.11,1.85-.93.31.33-2Zm1.26-.42.11,1.85-.94.31.34-2Z"/></g><g class="cls-3"><path class="cls-4" d="M217.38,172.62l-1.68-5a2.91,2.91,0,0,1-1.19,1.14l-.24-.69a2.79,2.79,0,0,0,1.22-1.46l.62-.21,2,6Z"/><path class="cls-4" d="M221.22,171.41a2.52,2.52,0,0,1-1.71,0,1.69,1.69,0,0,1-1-1.1,1.58,1.58,0,0,1,0-1,1.65,1.65,0,0,1,.63-.85,1.63,1.63,0,0,1-.82-.3,1.37,1.37,0,0,1-.49-.66,1.51,1.51,0,0,1,.14-1.31,2.21,2.21,0,0,1,1.23-.89,2.1,2.1,0,0,1,1.5,0,1.5,1.5,0,0,1,.89,1,1.35,1.35,0,0,1,0,.82,1.51,1.51,0,0,1-.47.73,1.61,1.61,0,0,1,1,.3,1.59,1.59,0,0,1,.62.82,1.69,1.69,0,0,1-.15,1.49A2.41,2.41,0,0,1,221.22,171.41Zm-1.2-3.58a1.22,1.22,0,0,0,.71-.52.94.94,0,0,0,.08-.79.88.88,0,0,0-.53-.58,1.3,1.3,0,0,0-.89,0,1.36,1.36,0,0,0-.75.54.86.86,0,0,0-.07.78.91.91,0,0,0,.55.58A1.33,1.33,0,0,0,220,167.83Zm1,2.9a1.47,1.47,0,0,0,.86-.63,1.15,1.15,0,0,0-.54-1.62,1.52,1.52,0,0,0-1.07,0,1.55,1.55,0,0,0-.88.64,1,1,0,0,0-.09.93,1.08,1.08,0,0,0,.63.69A1.58,1.58,0,0,0,221,170.73Z"/><path class="cls-4" d="M226.29,169.7a2.08,2.08,0,0,1-2-.25,4.75,4.75,0,0,1-1.5-4.46,2.08,2.08,0,0,1,1.42-1.4,2.11,2.11,0,0,1,2,.26,4.72,4.72,0,0,1,1.49,4.46A2.05,2.05,0,0,1,226.29,169.7Zm-.23-.7a1.27,1.27,0,0,0,.88-1,4.25,4.25,0,0,0-1.16-3.45,1.36,1.36,0,0,0-2.21.74,4.31,4.31,0,0,0,1.16,3.45A1.28,1.28,0,0,0,226.06,169Z"/><path class="cls-4" d="M231.55,167.94a2.08,2.08,0,0,1-2-.26,4,4,0,0,1-1.34-2,3.92,3.92,0,0,1-.15-2.43,2.26,2.26,0,0,1,3.38-1.13,4.66,4.66,0,0,1,1.5,4.45A2.1,2.1,0,0,1,231.55,167.94Zm-.23-.7a1.29,1.29,0,0,0,.88-1,3.4,3.4,0,0,0-.19-1.86,3.31,3.31,0,0,0-1-1.59,1.34,1.34,0,0,0-2.2.73,3.42,3.42,0,0,0,.2,1.86,3.46,3.46,0,0,0,1,1.6A1.31,1.31,0,0,0,231.32,167.24Z"/></g></svg>