<svg class="ad-draw-svg" preserveAspectRatio="xMidYMid meet" id="Vrstva_1" data-name="Vrstva 1" xmlns="http://www.w3.org/2000/svg" viewBox="0 0 226.77 226.77">
  <defs>
    <style>
      .cls-1, .cls-2 {
        isolation: isolate;
        opacity: .35;
      }

      .cls-1, .cls-2, .cls-3, .cls-4 {
        fill: none;
        stroke-linecap: round;
        stroke-linejoin: round;
      }

      .cls-1, .cls-2, .cls-3, .cls-4, .cls-5 {
        stroke-width:.7px;
      }

      .cls-1, .cls-4 {
        stroke: #010202;
      }

      .cls-6 {
        fill: #1f1f1d;
      }

      .cls-2, .cls-3 {
        stroke: #020303;
      }

      .cls-7 {
        fill: #1d1d1b;
      }

      .cls-5 {
        fill: #030304;
        stroke: #030304;
        stroke-miterlimit: 10;
      }

      .cls-8 {
        fill: #010101;
      }
    
.cls-1{stroke:#ffffff}
.cls-2{stroke:#ffffff}
.cls-3{stroke:#ffffff}
.cls-4{stroke:#ffffff}
.cls-5{stroke:#ffffff;fill:#ffffff}
.cls-6{fill:#ffffff}
.cls-7{fill:#ffffff}
.cls-8{fill:#ffffff}
</style>
  </defs>
  <path class="cls-3" d="m16.22,79.28c-.94-20.43-1.89-40.86-2.83-61.29"/>
  <line class="cls-3" x1="69.21" y1="71.52" x2="125.21" y2="54.44"/>
  <line class="cls-3" x1="72.3" y1="72.54" x2="72.31" y2="72.8"/>
  <line class="cls-3" x1="128.31" y1="55.33" x2="72.3" y2="72.54"/>
  <line class="cls-3" x1="81.44" y1="75.54" x2="84.63" y2="76.58"/>
  <line class="cls-3" x1="81.44" y1="75.54" x2="137.44" y2="57.96"/>
  <line class="cls-3" x1="57.33" y1="67.62" x2="113.32" y2="51.02"/>
  <line class="cls-3" x1="113.17" y1="50.5" x2="112.72" y2="50.64"/>
  <line class="cls-3" x1="102.65" y1="82.5" x2="106.01" y2="83.61"/>
  <line class="cls-3" x1="102.65" y1="82.5" x2="158.59" y2="64.05"/>
  <path class="cls-3" d="m54.6,67.28h-.22l-.09.06h0v.11c0,.07,0,.15,0,.22"/>
  <line class="cls-3" x1="98.32" y1="81.08" x2="154.28" y2="62.81"/>
  <line class="cls-3" x1="157.59" y1="63.76" x2="101.64" y2="82.17"/>
  <line class="cls-3" x1="89.8" y1="78.28" x2="145.78" y2="60.37"/>
  <line class="cls-3" x1="149.02" y1="61.3" x2="93.05" y2="79.35"/>
  <line class="cls-3" x1="115.91" y1="86.86" x2="171.78" y2="67.85"/>
  <line class="cls-3" x1="175.21" y1="68.84" x2="119.37" y2="87.99"/>
  <line class="cls-3" x1="61.25" y1="68.91" x2="117.25" y2="52.15"/>
  <line class="cls-3" x1="64.29" y1="69.9" x2="64.29" y2="70.17"/>
  <line class="cls-3" x1="120.29" y1="53.03" x2="64.29" y2="69.9"/>
  <line class="cls-3" x1="85.6" y1="76.9" x2="88.82" y2="77.96"/>
  <line class="cls-3" x1="85.6" y1="76.9" x2="141.59" y2="59.16"/>
  <line class="cls-3" x1="144.8" y1="60.08" x2="88.82" y2="77.96"/>
  <line class="cls-3" x1="94.04" y1="79.68" x2="150.01" y2="61.58"/>
  <line class="cls-3" x1="153.29" y1="62.53" x2="97.32" y2="80.75"/>
  <line class="cls-3" x1="73.24" y1="72.85" x2="129.25" y2="55.61"/>
  <line class="cls-3" x1="76.37" y1="73.87" x2="76.37" y2="74.14"/>
  <line class="cls-3" x1="132.37" y1="56.51" x2="76.37" y2="73.87"/>
  <line class="cls-3" x1="111.45" y1="85.39" x2="167.34" y2="66.57"/>
  <line class="cls-3" x1="170.74" y1="67.55" x2="114.87" y2="86.52"/>
  <line class="cls-3" x1="77.32" y1="74.19" x2="133.33" y2="56.78"/>
  <line class="cls-3" x1="136.48" y1="57.69" x2="80.48" y2="75.22"/>
  <line class="cls-3" x1="65.21" y1="70.21" x2="121.21" y2="53.29"/>
  <line class="cls-3" x1="124.28" y1="54.17" x2="68.27" y2="71.21"/>
  <line class="cls-3" x1="107.03" y1="83.94" x2="110.42" y2="85.05"/>
  <line class="cls-3" x1="107.03" y1="83.94" x2="162.94" y2="65.31"/>
  <line class="cls-3" x1="166.31" y1="66.28" x2="110.42" y2="85.05"/>
  <polyline class="cls-3" points="120.07 88.5 79.2 75.07 74.92 73.66 67.32 71.16 55.96 67.43"/>
  <polyline class="cls-3" points="55.45 67.58 66.8 71.32 74.4 73.82 78.69 75.23 119.55 88.68"/>
  <line class="cls-3" x1="55.45" y1="67.58" x2="56.63" y2="77.61"/>
  <line class="cls-3" x1="118.44" y1="98.69" x2="119.55" y2="88.68"/>
  <line class="cls-3" x1="171.59" y1="76.64" x2="170.26" y2="77.11"/>
  <line class="cls-3" x1="119.56" y1="88.68" x2="118.45" y2="98.69"/>
  <line class="cls-3" x1="119.56" y1="88.68" x2="177.12" y2="68.88"/>
  <line class="cls-3" x1="170.07" y1="74.94" x2="172.22" y2="74.19"/>
  <line class="cls-3" x1="169.98" y1="75.64" x2="170.07" y2="74.94"/>
  <line class="cls-3" x1="169.51" y1="79.09" x2="169.85" y2="76.61"/>
  <line class="cls-3" x1="170.13" y1="78.2" x2="171.75" y2="77.63"/>
  <line class="cls-3" x1="171.62" y1="76.65" x2="170.28" y2="77.12"/>
  <line class="cls-3" x1="169.85" y1="76.61" x2="171.71" y2="75.96"/>
  <line class="cls-3" x1="69.21" y1="71.78" x2="69.21" y2="71.52"/>
  <line class="cls-3" x1="56.63" y1="77.61" x2="56.62" y2="77.61"/>
  <line class="cls-3" x1="128.31" y1="55.9" x2="128.31" y2="55.33"/>
  <line class="cls-3" x1="81.44" y1="75.8" x2="81.44" y2="75.54"/>
  <line class="cls-3" x1="140.62" y1="59.47" x2="140.62" y2="58.88"/>
  <line class="cls-3" x1="57.34" y1="67.88" x2="57.33" y2="67.62"/>
  <line class="cls-3" x1="116.33" y1="52.42" x2="116.33" y2="51.89"/>
  <line class="cls-3" x1="102.66" y1="82.78" x2="102.65" y2="82.5"/>
  <line class="cls-3" x1="161.92" y1="65.65" x2="161.93" y2="65.01"/>
  <line class="cls-3" x1="157.58" y1="64.39" x2="157.59" y2="63.76"/>
  <line class="cls-3" x1="136.48" y1="58.27" x2="136.48" y2="57.69"/>
  <line class="cls-3" x1="124.28" y1="54.73" x2="124.28" y2="54.17"/>
  <line class="cls-3" x1="116.33" y1="51.89" x2="60.34" y2="68.61"/>
  <polyline class="cls-3" points="112.72 50.64 124.09 53.91 131.69 56.09 135.98 57.33 176.67 69.03"/>
  <line class="cls-3" x1="143.62" y1="68.99" x2="143.62" y2="68.99"/>
  <line class="cls-3" x1="140.62" y1="58.88" x2="84.63" y2="76.58"/>
  <line class="cls-3" x1="69.21" y1="71.52" x2="72.3" y2="72.54"/>
  <line class="cls-3" x1="128.31" y1="55.33" x2="125.21" y2="54.44"/>
  <line class="cls-3" x1="84.63" y1="76.58" x2="84.63" y2="76.85"/>
  <line class="cls-3" x1="140.62" y1="58.88" x2="137.44" y2="57.96"/>
  <line class="cls-3" x1="112.78" y1="51.18" x2="112.72" y2="50.64"/>
  <line class="cls-3" x1="60.34" y1="68.61" x2="60.34" y2="68.87"/>
  <line class="cls-3" x1="57.33" y1="67.62" x2="60.34" y2="68.61"/>
  <line class="cls-3" x1="116.33" y1="51.89" x2="113.32" y2="51.02"/>
  <line class="cls-3" x1="161.93" y1="65.01" x2="106.01" y2="83.61"/>
  <polyline class="cls-3" points="177.12 68.88 136.43 57.19 132.14 55.96 124.54 53.77 113.17 50.5"/>
  <line class="cls-3" x1="176.67" y1="69.03" x2="176.67" y2="69.03"/>
  <line class="cls-3" x1="176.67" y1="69.03" x2="177.12" y2="68.88"/>
  <line class="cls-3" x1="106.01" y1="83.61" x2="106.01" y2="83.88"/>
  <line class="cls-3" x1="161.93" y1="65.01" x2="158.59" y2="64.05"/>
  <line class="cls-3" x1="56.62" y1="77.61" x2="55.45" y2="67.58"/>
  <line class="cls-3" x1="113.17" y1="50.5" x2="55.45" y2="67.58"/>
  <line class="cls-3" x1="55.45" y1="67.58" x2="54.6" y2="67.3"/>
  <path class="cls-3" d="m112.14,50.28h.18"/>
  <polyline class="cls-3" points="54.42 67.29 57.49 66.39 66.59 63.7 75.5 61.07 84.24 58.49 101.19 53.49 112.14 50.26"/>
  <line class="cls-3" x1="54.17" y1="67.89" x2="55.26" y2="77.14"/>
  <line class="cls-3" x1="113.17" y1="50.5" x2="113.17" y2="50.51"/>
  <line class="cls-3" x1="112.32" y1="50.26" x2="113.17" y2="50.5"/>
  <line class="cls-3" x1="56.62" y1="77.61" x2="55.26" y2="77.14"/>
  <line class="cls-3" x1="111.45" y1="85.39" x2="114.87" y2="86.52"/>
  <line class="cls-3" x1="80.48" y1="75.22" x2="80.48" y2="75.49"/>
  <line class="cls-3" x1="68.27" y1="71.21" x2="68.28" y2="71.48"/>
  <line class="cls-3" x1="121.07" y1="89.97" x2="120.04" y2="99.24"/>
  <line class="cls-3" x1="98.33" y1="81.35" x2="98.32" y2="81.08"/>
  <line class="cls-3" x1="89.8" y1="78.55" x2="89.8" y2="78.28"/>
  <line class="cls-3" x1="115.91" y1="87.13" x2="115.91" y2="86.86"/>
  <line class="cls-3" x1="94.04" y1="79.95" x2="94.04" y2="79.68"/>
  <line class="cls-3" x1="119.37" y1="90.34" x2="119.37" y2="90.38"/>
  <line class="cls-3" x1="119.33" y1="90.75" x2="119.32" y2="90.75"/>
  <line class="cls-3" x1="175.19" y1="69.54" x2="175.21" y2="68.84"/>
  <line class="cls-3" x1="61.26" y1="69.17" x2="61.25" y2="68.91"/>
  <line class="cls-3" x1="120.29" y1="53.57" x2="120.29" y2="53.03"/>
  <line class="cls-3" x1="85.6" y1="77.17" x2="85.6" y2="76.9"/>
  <line class="cls-3" x1="73.25" y1="73.11" x2="73.24" y2="72.85"/>
  <line class="cls-3" x1="132.37" y1="57.08" x2="132.37" y2="56.51"/>
  <line class="cls-3" x1="111.45" y1="85.67" x2="111.45" y2="85.39"/>
  <line class="cls-3" x1="166.3" y1="66.92" x2="166.31" y2="66.28"/>
  <line class="cls-3" x1="98.32" y1="81.08" x2="101.64" y2="82.17"/>
  <line class="cls-3" x1="89.8" y1="78.28" x2="93.05" y2="79.35"/>
  <line class="cls-3" x1="115.91" y1="86.86" x2="119.37" y2="87.99"/>
  <line class="cls-3" x1="94.04" y1="79.68" x2="97.32" y2="80.75"/>
  <line class="cls-3" x1="149.02" y1="61.9" x2="149.02" y2="61.3"/>
  <line class="cls-3" x1="144.8" y1="60.68" x2="144.8" y2="60.08"/>
  <line class="cls-3" x1="153.28" y1="63.14" x2="153.29" y2="62.53"/>
  <line class="cls-3" x1="170.73" y1="68.21" x2="170.74" y2="67.55"/>
  <line class="cls-3" x1="101.64" y1="82.17" x2="101.65" y2="82.44"/>
  <line class="cls-3" x1="157.59" y1="63.76" x2="154.28" y2="62.81"/>
  <line class="cls-3" x1="93.05" y1="79.35" x2="93.05" y2="79.62"/>
  <line class="cls-3" x1="149.02" y1="61.3" x2="145.78" y2="60.37"/>
  <line class="cls-3" x1="119.37" y1="87.99" x2="119.37" y2="88.27"/>
  <line class="cls-3" x1="175.21" y1="68.84" x2="171.78" y2="67.85"/>
  <line class="cls-3" x1="61.25" y1="68.91" x2="64.29" y2="69.9"/>
  <line class="cls-3" x1="120.29" y1="53.03" x2="117.25" y2="52.15"/>
  <line class="cls-3" x1="88.82" y1="77.96" x2="88.82" y2="78.23"/>
  <line class="cls-3" x1="144.8" y1="60.08" x2="141.59" y2="59.16"/>
  <line class="cls-3" x1="97.32" y1="80.75" x2="97.33" y2="81.02"/>
  <line class="cls-3" x1="153.29" y1="62.53" x2="150.01" y2="61.58"/>
  <line class="cls-3" x1="73.24" y1="72.85" x2="76.37" y2="73.87"/>
  <line class="cls-3" x1="132.37" y1="56.51" x2="129.25" y2="55.61"/>
  <line class="cls-3" x1="114.87" y1="86.52" x2="114.87" y2="86.79"/>
  <line class="cls-3" x1="170.74" y1="67.55" x2="167.34" y2="66.57"/>
  <line class="cls-3" x1="77.32" y1="74.45" x2="77.32" y2="74.19"/>
  <line class="cls-3" x1="65.21" y1="70.47" x2="65.21" y2="70.21"/>
  <line class="cls-3" x1="77.32" y1="74.19" x2="80.48" y2="75.22"/>
  <line class="cls-3" x1="136.48" y1="57.69" x2="133.33" y2="56.78"/>
  <line class="cls-3" x1="65.21" y1="70.21" x2="68.27" y2="71.21"/>
  <line class="cls-3" x1="124.28" y1="54.17" x2="121.21" y2="53.29"/>
  <line class="cls-3" x1="107.03" y1="84.21" x2="107.03" y2="83.94"/>
  <line class="cls-3" x1="110.42" y1="85.05" x2="110.42" y2="85.33"/>
  <line class="cls-3" x1="166.31" y1="66.28" x2="162.94" y2="65.31"/>
  <line class="cls-3" x1="56.63" y1="77.61" x2="118.44" y2="98.69"/>
  <line class="cls-3" x1="55.96" y1="67.43" x2="55.45" y2="67.58"/>
  <line class="cls-3" x1="119.55" y1="88.68" x2="120.07" y2="88.5"/>
  <line class="cls-3" x1="170.28" y1="77.12" x2="170.13" y2="78.2"/>
  <line class="cls-3" x1="172.19" y1="74.2" x2="172.1" y2="74.89"/>
  <line class="cls-3" x1="171.69" y1="75.97" x2="171.59" y2="76.64"/>
  <line class="cls-3" x1="171.72" y1="77.64" x2="171.63" y2="78.33"/>
  <line class="cls-3" x1="172.1" y1="74.89" x2="169.98" y2="75.63"/>
  <line class="cls-3" x1="172.1" y1="74.89" x2="172.12" y2="74.9"/>
  <line class="cls-3" x1="170.26" y1="77.11" x2="170.11" y2="78.19"/>
  <line class="cls-3" x1="171.63" y1="78.33" x2="169.51" y2="79.08"/>
  <line class="cls-3" x1="171.63" y1="78.33" x2="171.65" y2="78.34"/>
  <line class="cls-3" x1="170.11" y1="78.19" x2="170.13" y2="78.2"/>
  <line class="cls-3" x1="170.26" y1="77.11" x2="170.28" y2="77.12"/>
  <line class="cls-3" x1="171.59" y1="76.64" x2="171.62" y2="76.65"/>
  <path class="cls-3" d="m121.07,90v-.29c-.02-.1-.05-.19-.1-.28-.02-.04-.04-.09-.07-.12l-.1-.12h-.24"/>
  <path class="cls-3" d="m178.11,69.16h.12l.11.08.09.1v.12c.04.08.07.17.09.26v.28"/>
  <line class="cls-3" x1="120.55" y1="89.01" x2="119.56" y2="88.68"/>
  <line class="cls-3" x1="177.12" y1="68.88" x2="178.11" y2="69.16"/>
  <line class="cls-3" x1="120.04" y1="99.24" x2="118.45" y2="98.69"/>
  <line class="cls-3" x1="172.12" y1="74.9" x2="169.98" y2="75.64"/>
  <line class="cls-3" x1="172.22" y1="74.19" x2="172.12" y2="74.9"/>
  <line class="cls-3" x1="171.65" y1="78.34" x2="169.51" y2="79.09"/>
  <line class="cls-3" x1="171.75" y1="77.63" x2="171.65" y2="78.34"/>
  <line class="cls-3" x1="171.71" y1="75.96" x2="171.62" y2="76.65"/>
  <line class="cls-3" x1="120.04" y1="99.24" x2="177.39" y2="78.77"/>
  <line class="cls-3" x1="177.39" y1="78.77" x2="178.61" y2="70.06"/>
  <line class="cls-3" x1="51.05" y1="75.72" x2="11.34" y2="62.16"/>
  <line class="cls-3" x1="177.39" y1="78.77" x2="178.61" y2="70.06"/>
  <line class="cls-3" x1="120.04" y1="99.24" x2="177.39" y2="78.77"/>
  <line class="cls-3" x1="120.04" y1="99.24" x2="118.45" y2="98.69"/>
  <line class="cls-3" x1="177.12" y1="68.88" x2="178.11" y2="69.16"/>
  <path class="cls-3" d="m178.11,69.16h.12l.11.08.09.1v.12c.04.08.07.17.09.26v.28"/>
  <line class="cls-3" x1="56.63" y1="77.61" x2="118.44" y2="98.69"/>
  <line class="cls-3" x1="119.33" y1="90.75" x2="119.32" y2="90.75"/>
  <line class="cls-3" x1="56.62" y1="77.61" x2="55.26" y2="77.14"/>
  <line class="cls-3" x1="112.32" y1="50.26" x2="113.17" y2="50.5"/>
  <line class="cls-3" x1="113.17" y1="50.5" x2="113.17" y2="50.51"/>
  <line class="cls-3" x1="54.17" y1="67.89" x2="55.26" y2="77.14"/>
  <polyline class="cls-3" points="54.42 67.29 57.49 66.39 66.59 63.7 75.5 61.07 84.24 58.49 101.19 53.49 112.14 50.26"/>
  <path class="cls-3" d="m112.14,50.28h.18"/>
  <line class="cls-3" x1="176.67" y1="69.03" x2="177.12" y2="68.88"/>
  <line class="cls-3" x1="176.67" y1="69.03" x2="176.67" y2="69.03"/>
  <polyline class="cls-3" points="177.12 68.88 136.43 57.19 132.14 55.96 124.54 53.77 113.17 50.5"/>
  <line class="cls-3" x1="56.63" y1="77.61" x2="56.62" y2="77.61"/>
  <line class="cls-3" x1="118.44" y1="98.69" x2="119.55" y2="88.68"/>
  <line class="cls-3" x1="113.17" y1="50.5" x2="112.72" y2="50.64"/>
  <line class="cls-3" x1=".54" y1="92.8" x2="50.44" y2="77.28"/>
  <line class="cls-3" x1="79.43" y1="117.1" x2="4.84" y2="91.53"/>
  <line class="cls-3" x1="50.53" y1="66.11" x2="11.13" y2="53.21"/>
  <line class="cls-3" x1="168.03" y1="116.83" x2="124.6" y2="102.01"/>
  <line class="cls-3" x1="226.02" y1="94.99" x2="180.96" y2="80.94"/>
  <line class="cls-3" x1="162.52" y1="114.92" x2="221.76" y2="93.67"/>
  <g>
    <g>
      <path class="cls-6" d="m185.37,116.28l-.24-.66,1.54-2.72c.41-.58.56-1.31.41-2-.1-.3-.31-.54-.59-.68-.68-.25-1.44.08-1.74.74-.13.39-.09.81.12,1.16l-.77.21c-.49-.99-.09-2.19.9-2.68.1-.05.2-.09.31-.12.5-.21,1.07-.21,1.57,0,.48.2.84.61,1,1.1.13.38.15.78.06,1.17-.12.52-.31,1.02-.57,1.48l-1.12,2,2.92-1,.25.69-4.05,1.31h0Z"/>
      <path class="cls-6" d="m192.09,113.94c-.53.18-1.09.18-1.62,0-.49-.17-.89-.53-1.11-1l.69-.37c.15.31.41.56.74.67.34.12.71.12,1.05,0,.37-.11.68-.36.87-.69.3-.67.03-1.46-.62-1.8-.34-.15-.74-.15-1.08,0-.24.08-.44.22-.59.42l-.5-.38,1.21-2.52-2.88,1-.25-.69,3.79-1.35.24.67-1.1,2.25c.49-.27,1.07-.31,1.59-.11.49.22.85.65,1,1.16.21.52.18,1.11-.09,1.6-.29.53-.77.94-1.34,1.14h0Z"/>
      <path class="cls-6" d="m194.85,111.88l.83-.29.31.88-.83.3-.31-.89Z"/>
      <path class="cls-6" d="m197.77,107.35c.55-.23,1.16-.23,1.71,0,.52.24.92.69,1.1,1.24.22.54.19,1.16-.08,1.68-.29.53-.78.93-1.35,1.12-.61.23-1.3.17-1.86-.17-.63-.41-1.09-1.04-1.31-1.76-.38-.87-.42-1.84-.12-2.74.55-1.37,2.07-2.08,3.48-1.63l-.17.74c-1.02-.42-2.19.08-2.61,1.1h0c-.23.59-.23,1.23,0,1.81.04-.32.18-.63.4-.87.22-.24.5-.42.81-.52Zm0,3.34c.74.28,1.57-.04,1.95-.73.32-.74,0-1.6-.72-1.96-.36-.15-.76-.15-1.12,0-.37.12-.67.38-.84.73-.33.73-.03,1.59.69,1.94l.04.02Z"/>
      <path class="cls-6" d="m201.21,103.84l.14,1.84-.92.33.29-2,.49-.17Zm1.25-.45l.14,1.85-.93.33.3-2,.49-.18h0Z"/>
    </g>
    <g>
      <path class="cls-6" d="m184.37,99.36c.55-.23,1.16-.23,1.71,0,.53.24.93.69,1.11,1.24.21.55.18,1.16-.09,1.68-.29.53-.77.93-1.34,1.12-.61.23-1.3.17-1.86-.17-.63-.41-1.1-1.03-1.31-1.76-.38-.87-.43-1.84-.13-2.74.55-1.4,2.11-2.12,3.54-1.63l-.18.74c-1.02-.41-2.19.09-2.6,1.11h0c-.23.58-.23,1.23,0,1.81.03-.32.17-.63.39-.87.2-.24.47-.42.76-.53Zm0,3.34c.69.38,1.56.13,1.94-.57.21-.39.23-.85.06-1.25-.12-.36-.38-.66-.73-.82-.76-.3-1.61.02-2,.73-.16.35-.16.75,0,1.1.13.36.41.66.76.81h-.03Z"/>
      <path class="cls-6" d="m190.93,101.59c-.66.28-1.41.2-2-.21-1.27-1.1-1.86-2.79-1.56-4.44.38-1.18,1.64-1.82,2.82-1.44h0c.19.06.37.14.53.25,1.28,1.09,1.88,2.77,1.58,4.42-.18.68-.7,1.22-1.38,1.42Zm-.24-.69c.44-.16.77-.54.86-1,.13-1.27-.32-2.53-1.22-3.43-.36-.32-.87-.41-1.32-.24-.46.14-.79.53-.87,1-.13,1.27.32,2.53,1.22,3.43.36.32.88.41,1.33.24Z"/>
      <path class="cls-6" d="m196.16,99.73c-.66.27-1.41.19-2-.22-1.28-1.09-1.88-2.78-1.58-4.43.38-1.18,1.65-1.83,2.83-1.44h.02c.18.06.35.14.51.24,1.28,1.08,1.89,2.75,1.61,4.4-.19.69-.71,1.23-1.39,1.45Zm-.24-.7c.45-.15.78-.53.86-1,.13-1.27-.32-2.53-1.22-3.43-.36-.32-.87-.42-1.32-.25-.45.15-.79.53-.88,1-.09.63,0,1.27.24,1.86.19.61.53,1.15,1,1.58.36.32.87.41,1.32.24Z"/>
    </g>
  </g>
  <polyline class="cls-5" points="15.5 63.64 17.16 69.11 14.39 69.25 15.5 63.64"/>
  <polyline class="cls-5" points="15.11 54.49 13.45 49.01 16.22 48.87 15.11 54.49"/>
  <polyline class="cls-5" points="4.72 91.52 10.43 91.96 9.55 94.59 4.72 91.52"/>
  <polyline class="cls-5" points="79.49 117.08 73.79 116.64 74.67 114.01 79.49 117.08"/>
  <polyline class="cls-5" points="162.44 114.92 168.13 114.33 167.19 111.72 162.44 114.92"/>
  <polyline class="cls-5" points="221.75 93.69 216.06 94.24 216.99 96.85 221.75 93.69"/>
  <line class="cls-1" x1="101.11" y1="159.66" x2="198.05" y2="122.96"/>
  <line class="cls-1" x1="59.25" y1="78.64" x2="38.98" y2="85.41"/>
  <line class="cls-4" x1="116.67" y1="103.72" x2="70.87" y2="120.14"/>
  <line class="cls-2" x1="92.65" y1="106.02" x2="116.1" y2="97.96"/>
  <line class="cls-1" x1="144.77" y1="50.03" x2="129.53" y2="55.16"/>
  <line class="cls-1" x1="194.65" y1="69.96" x2="177.72" y2="75.96"/>
  <g>
    <g>
      <path class="cls-8" d="m36.75,99.07c-.57-.2-1-.51-1.29-.94s-.38-.91-.29-1.44l.77.12c-.06.35,0,.66.2.94.19.28.47.48.84.61.4.14.76.12,1.08-.05.32-.17.55-.45.69-.85.14-.42.13-.78-.04-1.11s-.46-.56-.9-.71c-.57-.19-1.09-.11-1.56.26l-.52-.31,1.58-3.08,3.18,1.08-.24.69-2.61-.89-.87,1.7c.2-.1.43-.15.69-.16.26-.02.49.01.71.09.62.21,1.05.57,1.31,1.06.25.5.28,1.04.07,1.65-.21.62-.57,1.05-1.07,1.29-.51.24-1.08.26-1.71.04h-.02Z"/>
      <path class="cls-8" d="m41.64,100.74c-.64-.22-1.1-.55-1.38-1.01-.28-.46-.33-.96-.15-1.5.12-.35.33-.62.62-.82s.63-.3,1.01-.29c-.23-.21-.38-.46-.46-.74-.08-.28-.08-.55,0-.81.16-.47.46-.79.9-.96.44-.17.95-.16,1.52.04.56.19.96.49,1.2.89.24.41.28.84.12,1.31-.09.26-.25.48-.49.66s-.51.27-.82.3c.3.22.51.51.62.85s.11.69,0,1.03c-.18.53-.52.9-1.02,1.09-.5.19-1.06.18-1.69-.03h.02Zm.22-.69c.4.14.76.15,1.07.02.31-.12.52-.35.64-.69.11-.33.09-.65-.09-.93-.17-.29-.46-.5-.86-.64-.41-.14-.77-.15-1.08-.03s-.53.35-.64.68c-.11.34-.08.65.09.94.17.29.47.5.87.64h0Zm1-2.88c.33.11.62.12.88.02.26-.1.44-.29.54-.58.1-.28.08-.54-.06-.78-.14-.24-.38-.42-.72-.53-.35-.12-.66-.13-.92-.03s-.44.29-.53.58-.06.55.08.79c.15.24.39.42.73.53Z"/>
      <path class="cls-8" d="m46.7,102.47c-.73-.25-1.2-.72-1.41-1.4s-.15-1.49.17-2.43.77-1.61,1.35-2.03c.58-.41,1.24-.49,1.97-.24s1.2.72,1.4,1.4c.21.69.15,1.5-.16,2.43s-.77,1.6-1.36,2.02-1.24.5-1.97.25h.01Zm.24-.7c.47.16.91.08,1.31-.26.4-.33.73-.86.98-1.59.25-.73.32-1.35.2-1.86-.11-.51-.41-.85-.88-1.01-.48-.17-.92-.08-1.32.25s-.72.87-.97,1.6c-.25.73-.32,1.34-.21,1.85s.41.84.89,1.01h0Z"/>
    </g>
    <g>
      <path class="cls-8" d="m28.14,109.69l.22-.68,2.9-1.17c.86-.35,1.38-.78,1.56-1.29.11-.33.1-.64-.04-.91-.14-.27-.38-.46-.73-.58-.41-.14-.78-.12-1.09.08-.31.19-.52.52-.63.98l-.73-.31c.17-.64.5-1.09,1-1.36s1.06-.29,1.69-.08c.58.2,1,.52,1.24.97.24.45.27.94.09,1.48-.12.36-.35.68-.68.96-.33.27-.79.53-1.38.75l-2.09.83,2.94,1-.24.7-4.03-1.38h0Z"/>
      <path class="cls-8" d="m32.91,111.32l.22-.68,2.9-1.17c.86-.35,1.38-.78,1.56-1.29.11-.33.1-.64-.04-.91-.14-.27-.38-.46-.73-.58-.42-.14-.78-.12-1.09.08-.31.19-.52.52-.63.98l-.73-.31c.17-.64.5-1.09,1-1.36s1.06-.29,1.69-.08c.58.2,1,.52,1.24.97s.27.94.09,1.48c-.12.36-.35.68-.68.96s-.79.53-1.38.76l-2.09.83,2.94,1-.24.7s-4.03-1.38-4.03-1.38Z"/>
      <path class="cls-8" d="m38.32,112.18l.83.29-.3.88-.83-.29.3-.88Z"/>
      <path class="cls-8" d="m41.87,114.46c-.64-.22-1.1-.55-1.38-1.01-.28-.46-.33-.96-.15-1.5.12-.35.33-.62.62-.82.3-.2.63-.3,1.01-.29-.23-.21-.38-.46-.46-.74-.08-.28-.08-.55,0-.81.16-.47.46-.79.9-.96s.95-.16,1.52.04c.56.19.96.49,1.2.89.24.41.28.84.12,1.31-.09.26-.25.48-.49.65s-.51.27-.81.3c.3.22.51.51.62.85s.11.69,0,1.03c-.18.53-.52.9-1.02,1.09-.5.19-1.06.18-1.69-.03h.01Zm.22-.68c.4.14.76.15,1.07.02.31-.12.52-.35.64-.69.11-.33.09-.65-.09-.93-.17-.29-.46-.5-.86-.64-.41-.14-.77-.15-1.08-.03s-.53.35-.64.68c-.11.34-.08.65.09.93.17.29.46.5.87.64v.02Zm1-2.89c.33.11.62.12.88.02.26-.1.44-.29.54-.58s.08-.54-.06-.78c-.14-.24-.38-.42-.72-.53-.35-.12-.66-.13-.92-.03s-.44.29-.53.58-.06.55.08.79c.15.24.39.42.73.53Z"/>
      <path class="cls-8" d="m48.1,109.78l-1.04,1.53-.93-.32,1.48-1.38.49.17Zm1.26.43l-1.04,1.53-.94-.32,1.48-1.38.49.17h0Z"/>
    </g>
  </g>
  <g>
    <g>
      <path class="cls-7" d="m11.5,36.51c.03.67-.12,1.22-.44,1.65-.32.43-.77.66-1.34.69-.37.02-.7-.08-.99-.28s-.51-.48-.64-.84c-.11.29-.29.52-.52.7-.23.18-.49.27-.76.29-.49.02-.9-.14-1.22-.49s-.5-.83-.52-1.43.11-1.07.4-1.44c.29-.37.68-.57,1.17-.59.28-.01.54.06.79.22s.44.37.57.65c.1-.36.29-.66.56-.89s.6-.35.97-.37c.56-.02,1.03.16,1.39.56.36.39.56.92.59,1.58Zm-3.77.17c-.02-.35-.12-.62-.31-.83-.19-.2-.43-.3-.73-.29-.3,0-.53.12-.71.34-.17.22-.25.51-.23.86.02.37.12.66.31.87.19.21.43.3.73.28.3-.02.53-.14.71-.36.17-.22.25-.52.23-.87Zm3.06-.13c-.02-.43-.14-.76-.37-1.01s-.52-.36-.87-.34-.63.16-.84.42-.3.61-.28,1.03.14.77.37,1.02.52.36.87.35.63-.16.84-.42.3-.62.28-1.05Z"/>
      <path class="cls-7" d="m6.98,31.36c-.03-.65.15-1.19.53-1.62.38-.43.89-.67,1.51-.69s1.15.16,1.57.57c.42.41.65.95.68,1.61.03.7-.21,1.28-.71,1.73-.51.45-1.19.7-2.06.73-1.13.05-2.01-.18-2.66-.69-.65-.51-.99-1.2-1.03-2.07-.03-.66.14-1.24.5-1.74l.66.39c-.31.39-.45.84-.43,1.33.03.61.27,1.1.74,1.49.46.39,1.04.57,1.72.55-.29-.13-.53-.34-.72-.63-.18-.29-.28-.61-.3-.96Zm3.19.95c.26-.28.38-.64.36-1.06s-.17-.76-.45-1.02c-.28-.26-.63-.38-1.05-.37-.41.02-.75.17-1,.45-.25.28-.37.64-.35,1.06s.17.76.45,1.02c.28.26.63.38,1.04.36s.76-.17,1.02-.46Z"/>
    </g>
    <g>
      <path class="cls-7" d="m23.72,38.66c.03.62-.12,1.14-.43,1.56s-.74.68-1.29.76l-.15-.77c.36-.06.65-.23.85-.51.2-.28.3-.62.28-1.02-.02-.44-.15-.78-.41-1.03-.25-.25-.57-.37-.97-.35s-.72.15-.94.41c-.22.26-.32.6-.3,1.04.01.25.09.48.23.68l-.51.37-2.06-1.9.13,3.06-.73.03-.18-4.02.71-.03,1.82,1.71c-.09-.62.03-1.14.36-1.55.33-.41.8-.63,1.42-.66s1.11.16,1.5.56.6.95.63,1.63Z"/>
      <path class="cls-7" d="m22.57,35.42l-.04-.88.93-.04.04.88-.93.04Z"/>
      <path class="cls-7" d="m23.3,30.73l-1.54.07.15,3.32-.74.03-4.16-3.01-.04-.94,4.02-.18-.04-.91.74-.03.04.91,1.54-.07.04.82Zm-2.17,2.54l-.11-2.44-3.08.14,3.19,2.3Z"/>
      <path class="cls-7" d="m16.71,25.89l1.8.41.04.99-1.82-.87-.02-.52Zm.06,1.33l1.8.41.04.98-1.82-.87-.02-.51Z"/>
    </g>
  </g>
</svg>