<svg class="ad-draw-svg" preserveAspectRatio="xMidYMid meet" id="Vrstva_1" data-name="Vrstva 1" xmlns="http://www.w3.org/2000/svg" viewBox="0 0 354.33 226.77">
  <defs>
    <style>
      .cls-1 {
        stroke: #010202;
      }

      .cls-1, .cls-2 {
        isolation: isolate;
        opacity: .35;
      }

      .cls-1, .cls-2, .cls-3 {
        fill: none;
        stroke-linecap: round;
        stroke-linejoin: round;
      }

      .cls-1, .cls-2, .cls-3, .cls-4 {
        stroke-width:.7px;
      }

      .cls-5 {
        fill: #1f1f1d;
      }

      .cls-2, .cls-3 {
        stroke: #020303;
      }

      .cls-6 {
        fill: #1d1d1b;
      }

      .cls-4 {
        fill: #030304;
        stroke: #030304;
        stroke-miterlimit: 10;
      }

      .cls-7 {
        fill: #010101;
      }
    
.cls-1{stroke:#ffffff}
.cls-2{stroke:#ffffff}
.cls-3{stroke:#ffffff}
.cls-4{stroke:#ffffff;fill:#ffffff}
.cls-5{fill:#ffffff}
.cls-6{fill:#ffffff}
.cls-7{fill:#ffffff}
</style>
  </defs>
  <line class="cls-3" x1="17.58" y1="105.16" x2="14.69" y2="46.16"/>
  <line class="cls-3" x1="169.42" y1="163.24" x2="344.44" y2="96.97"/>
  <line class="cls-3" x1="260.34" y1="64.37" x2="257.18" y2="63.56"/>
  <line class="cls-3" x1="87.28" y1="119.3" x2="87.29" y2="119.64"/>
  <line class="cls-3" x1="64.07" y1="110.38" x2="68.28" y2="109.12"/>
  <line class="cls-3" x1="240.09" y1="59.19" x2="237.06" y2="58.42"/>
  <line class="cls-3" x1="64.07" y1="110.38" x2="67.07" y2="111.54"/>
  <line class="cls-3" x1="285.84" y1="70.88" x2="282.5" y2="70.03"/>
  <line class="cls-3" x1="113.01" y1="129.18" x2="113.02" y2="129.53"/>
  <line class="cls-3" x1="268.69" y1="66.5" x2="265.47" y2="65.68"/>
  <line class="cls-3" x1="95.67" y1="122.52" x2="95.68" y2="122.86"/>
  <line class="cls-3" x1="256.22" y1="63.31" x2="253.08" y2="62.51"/>
  <line class="cls-3" x1="80.01" y1="116.51" x2="83.15" y2="117.71"/>
  <line class="cls-3" x1="272.92" y1="67.58" x2="269.67" y2="66.75"/>
  <line class="cls-3" x1="99.93" y1="124.16" x2="99.94" y2="124.5"/>
  <line class="cls-3" x1="264.5" y1="65.43" x2="261.3" y2="64.61"/>
  <line class="cls-3" x1="91.45" y1="120.9" x2="91.46" y2="121.24"/>
  <line class="cls-3" x1="244.07" y1="60.21" x2="241.01" y2="59.43"/>
  <line class="cls-3" x1="67.99" y1="111.89" x2="69.19" y2="112.35"/>
  <line class="cls-3" x1="260.33" y1="64.92" x2="260.34" y2="64.37"/>
  <line class="cls-3" x1="240.08" y1="59.71" x2="240.09" y2="59.19"/>
  <line class="cls-3" x1="268.67" y1="67.07" x2="268.69" y2="66.5"/>
  <line class="cls-3" x1="256.21" y1="63.86" x2="256.22" y2="63.31"/>
  <line class="cls-3" x1="264.48" y1="65.99" x2="264.5" y2="65.43"/>
  <line class="cls-3" x1="84.11" y1="118.08" x2="87.28" y2="119.3"/>
  <line class="cls-3" x1="92.43" y1="121.27" x2="95.67" y2="122.52"/>
  <line class="cls-3" x1="96.65" y1="122.9" x2="99.93" y2="124.16"/>
  <line class="cls-3" x1="88.24" y1="119.67" x2="91.45" y2="120.9"/>
  <path class="cls-3" d="m62.69,65.68h0l-.07-.08-.06-.09c-.04-.06-.07-.13-.1-.2s-.05-.14-.06-.21v-.21c0-.07,0-.15,0-.22v-.11h0"/>
  <path class="cls-3" d="m240.29,19.51c-.05-.02-.11-.02-.16,0"/>
  <path class="cls-3" d="m240.43,20.71h.08s.06-.03.08-.06l.06-.07v-.32h0v-.12c-.02-.13-.07-.25-.15-.35,0-.04-.03-.07-.06-.08l-.07-.06h0"/>
  <path class="cls-3" d="m62.85,65.68h-.16"/>
  <path class="cls-3" d="m62.47,64.22h.16"/>
  <path class="cls-3" d="m61,60h0v.32c0,.07,0,.15,0,.22,0,.07,0,.13,0,.2v.11h0l.06.09.06.08.08.08h.26"/>
  <line class="cls-3" x1="62.45" y1="64.21" x2="63.06" y2="64.06"/>
  <line class="cls-3" x1="63.06" y1="64.06" x2="62.25" y2="61.18"/>
  <path class="cls-3" d="m62.45,64.21h0v.06h0v.66h0v.22s.04.07.07.1h.28"/>
  <line class="cls-3" x1="63.67" y1="68.57" x2="64.28" y2="68.42"/>
  <line class="cls-3" x1="64.28" y1="68.42" x2="63.47" y2="65.54"/>
  <path class="cls-3" d="m63.67,68.57h-.05v.06h0v.42s0,.08,0,.12v.18m0,.05v.12s.03.07.05.1c.02.04.04.07.07.1h.26"/>
  <path class="cls-3" d="m64.69,69.9h0"/>
  <line class="cls-3" x1="64.89" y1="72.93" x2="65.5" y2="72.77"/>
  <line class="cls-3" x1="65.5" y1="72.77" x2="64.69" y2="69.9"/>
  <path class="cls-3" d="m64.89,72.93h0v.3s-.01.08,0,.12v.47l.06.1.05.08h.28"/>
  <path class="cls-3" d="m65.91,74.25h0"/>
  <line class="cls-3" x1="66.11" y1="77.29" x2="66.71" y2="77.13"/>
  <line class="cls-3" x1="66.71" y1="77.13" x2="65.91" y2="74.25"/>
  <path class="cls-3" d="m66.11,77.29h0v.06h0v.88s.03.08.06.11l.06.1h.33"/>
  <path class="cls-3" d="m67.13,78.61h0"/>
  <line class="cls-3" x1="67.33" y1="81.65" x2="67.93" y2="81.48"/>
  <line class="cls-3" x1="67.93" y1="81.48" x2="67.13" y2="78.61"/>
  <path class="cls-3" d="m67.33,81.65h0v.06h0v.66h0v.17s.03.08.06.11c.02.04.04.07.07.1h.28"/>
  <path class="cls-3" d="m68.35,83h0"/>
  <line class="cls-3" x1="68.55" y1="86" x2="69.15" y2="85.84"/>
  <line class="cls-3" x1="69.15" y1="85.84" x2="68.35" y2="82.96"/>
  <path class="cls-3" d="m68.55,86h0v.89l.06.11.08.09h.18"/>
  <line class="cls-3" x1="68.96" y1="87.49" x2="69.56" y2="87.32"/>
  <path class="cls-3" d="m69.56,87.32h-.08"/>
  <line class="cls-3" x1="70.37" y1="90.19" x2="69.56" y2="87.32"/>
  <path class="cls-3" d="m69.77,90.36h0"/>
  <line class="cls-3" x1="70.18" y1="91.84" x2="70.78" y2="91.67"/>
  <line class="cls-3" x1="71.59" y1="94.54" x2="70.78" y2="91.67"/>
  <line class="cls-3" x1="72.8" y1="98.9" x2="72" y2="96.02"/>
  <line class="cls-3" x1="74.02" y1="103.25" x2="73.22" y2="100.38"/>
  <line class="cls-3" x1="76.96" y1="116.08" x2="77.56" y2="115.89"/>
  <line class="cls-3" x1="122" y1="133.42" x2="122.6" y2="133.21"/>
  <line class="cls-3" x1="121.16" y1="144.13" x2="121.16" y2="144.13"/>
  <line class="cls-3" x1="121.16" y1="144.13" x2="59.6" y2="119.58"/>
  <line class="cls-3" x1="58.17" y1="108.84" x2="58.76" y2="108.67"/>
  <line class="cls-3" x1="59.25" y1="58.74" x2="58.65" y2="58.88"/>
  <line class="cls-3" x1="60.86" y1="59.25" x2="59.25" y2="58.74"/>
  <path class="cls-3" d="m61.59,61.35h.06"/>
  <path class="cls-3" d="m62.85,65.7h0"/>
  <path class="cls-3" d="m64.08,70.06h0"/>
  <path class="cls-3" d="m65.3,74.41h0"/>
  <path class="cls-3" d="m66.52,78.77h0"/>
  <path class="cls-3" d="m67.74,83.13h0"/>
  <path class="cls-3" d="m69.77,90.36h0v1.06l.06.1.07.1h.28"/>
  <path class="cls-3" d="m70.37,90.19h0"/>
  <line class="cls-3" x1="58.65" y1="58.88" x2="60.26" y2="59.4"/>
  <line class="cls-3" x1="64.08" y1="110.71" x2="64.07" y2="110.38"/>
  <line class="cls-3" x1="68.81" y1="111.01" x2="67.07" y2="111.54"/>
  <line class="cls-3" x1="109.63" y1="128.23" x2="109.62" y2="127.88"/>
  <line class="cls-3" x1="80.03" y1="116.84" x2="80.01" y2="116.51"/>
  <line class="cls-3" x1="84.12" y1="118.42" x2="84.11" y2="118.08"/>
  <line class="cls-3" x1="92.44" y1="121.62" x2="92.43" y2="121.27"/>
  <line class="cls-3" x1="96.67" y1="123.24" x2="96.65" y2="122.9"/>
  <line class="cls-3" x1="88.26" y1="120.01" x2="88.24" y2="119.67"/>
  <line class="cls-3" x1="68.01" y1="112.22" x2="67.99" y2="111.89"/>
  <path class="cls-3" d="m63,64.09h.07"/>
  <path class="cls-3" d="m62.63,64.23h0l.07.08s.05.06.07.1c.04.06.07.12.09.19.03.07.05.14.06.21v.19c0,.07,0,.15,0,.22,0,.03,0,.07,0,.1v.05h0"/>
  <path class="cls-3" d="m70.78,91.67h-.08"/>
  <path class="cls-3" d="m63.91,70h0l-.07-.08-.06-.09c-.04-.06-.07-.13-.1-.2s-.05-.14-.06-.21v-.11h0c0-.07,0-.15,0-.22v-.09h0"/>
  <path class="cls-3" d="m241.27,23.07c-.05-.02-.11-.02-.16,0"/>
  <path class="cls-3" d="m241.41,24.26h.17v-.35h0v-.33c-.02-.06-.05-.12-.09-.17l-.07-.07s-.04-.05-.07-.06h0"/>
  <path class="cls-3" d="m64.07,70h-.15"/>
  <path class="cls-3" d="m63.69,68.58h.16"/>
  <path class="cls-3" d="m67.57,83.11h0s-.06-.07-.07-.11l-.07-.09-.09-.19c-.03-.07-.05-.14-.06-.21v-.66h0"/>
  <path class="cls-3" d="m244.22,33.73c-.05-.02-.12-.02-.17,0"/>
  <path class="cls-3" d="m244.37,34.91h.09l.07-.06.06-.07v-.27h0v-.28l-.09-.16-.07-.07s-.04-.05-.07-.06h-.09"/>
  <path class="cls-3" d="m67.74,83.11h-.17"/>
  <path class="cls-3" d="m67.34,81.66h.17"/>
  <line class="cls-3" x1="294.65" y1="73.13" x2="291.25" y2="72.26"/>
  <line class="cls-3" x1="121.97" y1="132.62" x2="121.98" y2="132.97"/>
  <path class="cls-3" d="m65.13,74.39h0l-.07-.08-.06-.09c-.04-.06-.07-.13-.1-.2s-.05-.14-.06-.21v-.21c-.01-.07-.01-.15,0-.22v-.11h0"/>
  <path class="cls-3" d="m242.26,26.62h-.17"/>
  <path class="cls-3" d="m242.4,27.81h.08l.08-.06.06-.08s0-.05,0-.08c0-.06,0-.13,0-.19h0v-.1c0-.06,0-.12,0-.18-.02-.06-.05-.12-.09-.17l-.06-.07-.07-.06h0"/>
  <path class="cls-3" d="m65.29,74.4h-.16"/>
  <path class="cls-3" d="m64.91,72.94h.17"/>
  <line class="cls-3" x1="248.09" y1="61.24" x2="245" y2="60.45"/>
  <path class="cls-3" d="m68.79,87.46h-.05s-.05-.04-.07-.07l-.07-.09c-.04-.06-.07-.13-.09-.2-.03-.06-.05-.13-.06-.2v-.17h0v-.32h.09"/>
  <path class="cls-3" d="m245.21,37.28c-.06-.02-.12-.02-.18,0"/>
  <path class="cls-3" d="m245.36,38.46h.08l.08-.06v-.71c-.02-.06-.05-.12-.09-.17l-.07-.07-.06-.06h0"/>
  <path class="cls-3" d="m69,87.47h-.17"/>
  <path class="cls-3" d="m68.55,86h.18"/>
  <path class="cls-3" d="m70,91.82h0s-.05-.05-.07-.08l-.07-.09c-.04-.06-.07-.12-.09-.19-.03-.07-.05-.14-.07-.21v-.11h0c-.01-.07-.01-.15,0-.22-.01-.03-.01-.07,0-.1h.09"/>
  <path class="cls-3" d="m246.19,40.83h-.19"/>
  <path class="cls-3" d="m246.34,42h.09l.07-.06.06-.07v-.09c0-.06,0-.12,0-.18h0v-.1c0-.06-.03-.12-.06-.18-.02-.06-.05-.12-.09-.17l-.06-.07-.07-.06h0"/>
  <path class="cls-3" d="m70.18,91.83h-.18"/>
  <path class="cls-3" d="m69.77,90.38h.17"/>
  <line class="cls-3" x1="281.5" y1="69.77" x2="278.19" y2="68.93"/>
  <line class="cls-3" x1="108.6" y1="127.49" x2="108.61" y2="127.83"/>
  <line class="cls-3" x1="296.56" y1="82.49" x2="297.91" y2="74.25"/>
  <line class="cls-3" x1="122.75" y1="144.77" x2="296.56" y2="82.49"/>
  <line class="cls-3" x1="291.76" y1="79.68" x2="291.65" y2="80.33"/>
  <line class="cls-3" x1="291.65" y1="80.33" x2="290.49" y2="80.74"/>
  <line class="cls-3" x1="291.62" y1="81.93" x2="289.75" y2="82.59"/>
  <line class="cls-3" x1="292.26" y1="78.01" x2="292.15" y2="78.68"/>
  <line class="cls-3" x1="292.15" y1="78.68" x2="290.28" y2="79.33"/>
  <line class="cls-3" x1="122.75" y1="144.77" x2="121.16" y2="144.13"/>
  <line class="cls-3" x1="296.45" y1="73.17" x2="297.42" y2="73.42"/>
  <path class="cls-3" d="m297.42,73.42h.12l.11.08.09.09v.06h0c.05.08.08.16.09.25v.26"/>
  <path class="cls-3" d="m123.54,134.86v-.23s.01-.05,0-.08c-.02-.1-.05-.21-.1-.3-.02-.05-.05-.1-.08-.14v-.11l-.06-.06-.06-.05h-.13"/>
  <line class="cls-3" x1="291.63" y1="80.32" x2="291.65" y2="80.33"/>
  <line class="cls-3" x1="291.63" y1="80.32" x2="290.46" y2="80.74"/>
  <line class="cls-3" x1="290.46" y1="80.74" x2="290.49" y2="80.74"/>
  <line class="cls-3" x1="290.3" y1="81.76" x2="290.32" y2="81.76"/>
  <line class="cls-3" x1="291.6" y1="81.92" x2="291.62" y2="81.93"/>
  <line class="cls-3" x1="291.6" y1="81.92" x2="289.76" y2="82.58"/>
  <line class="cls-3" x1="292.13" y1="78.67" x2="292.15" y2="78.68"/>
  <line class="cls-3" x1="292.13" y1="78.67" x2="290.28" y2="79.32"/>
  <line class="cls-3" x1="292.23" y1="78.02" x2="292.13" y2="78.67"/>
  <line class="cls-3" x1="291.73" y1="79.68" x2="291.63" y2="80.32"/>
  <line class="cls-3" x1="294.62" y1="73.8" x2="294.65" y2="73.13"/>
  <line class="cls-3" x1="123.54" y1="134.86" x2="122.75" y2="144.77"/>
  <line class="cls-3" x1="244.06" y1="60.74" x2="244.07" y2="60.21"/>
  <path class="cls-3" d="m69.07,85.88h.08"/>
  <line class="cls-3" x1="122.6" y1="133.22" x2="122.6" y2="133.21"/>
  <path class="cls-3" d="m64.21,68.45h.07"/>
  <path class="cls-3" d="m65.43,72.81h.07"/>
  <path class="cls-3" d="m67.86,81.52h.07"/>
  <line class="cls-3" x1="118.51" y1="131.64" x2="118.51" y2="131.29"/>
  <line class="cls-3" x1="281.47" y1="70.37" x2="281.5" y2="69.77"/>
  <line class="cls-3" x1="105.26" y1="126.55" x2="105.25" y2="126.2"/>
  <line class="cls-3" x1="109.62" y1="127.88" x2="113.01" y2="129.18"/>
  <line class="cls-3" x1="67.99" y1="111.89" x2="68.98" y2="111.59"/>
  <line class="cls-3" x1="122" y1="133.42" x2="121.16" y2="144.13"/>
  <path class="cls-3" d="m63.85,68.59h0l.07.07s.05.06.07.1c.04.06.07.12.09.19.03.07.05.14.06.21v.54h0"/>
  <path class="cls-3" d="m67.51,81.67h0l.07.08.06.09c.04.06.07.13.1.2l.06.2v.21h0c.01.07.01.15,0,.22v.1h0"/>
  <path class="cls-3" d="m65.07,73h0l.07.07.06.1c.04.06.07.12.1.19s.05.14.06.21v.18h0v.32h0"/>
  <path class="cls-3" d="m68.73,86h0l.07.08.06.09c.04.06.07.13.1.2l.06.2v.22c0,.07,0,.14-.02.21v.11h-.09"/>
  <path class="cls-3" d="m69.94,90.38h0l.07.08.07.09c.04.06.07.12.09.19.03.07.05.14.07.21v.11h0v.32m0,.05h-.09"/>
  <line class="cls-3" x1="123" y1="133.81" x2="122" y2="133.42"/>
  <line class="cls-3" x1="239.71" y1="19.61" x2="240.11" y2="19.51"/>
  <line class="cls-3" x1="240.11" y1="19.51" x2="239.46" y2="17.16"/>
  <path class="cls-3" d="m239.71,19.61h-.07"/>
  <line class="cls-3" x1="240.69" y1="23.16" x2="241.09" y2="23.06"/>
  <line class="cls-3" x1="241.09" y1="23.06" x2="240.44" y2="20.72"/>
  <path class="cls-3" d="m240.69,23.16h-.07"/>
  <line class="cls-3" x1="241.68" y1="26.72" x2="242.08" y2="26.61"/>
  <line class="cls-3" x1="242.08" y1="26.61" x2="241.43" y2="24.27"/>
  <path class="cls-3" d="m241.68,26.72h-.08"/>
  <path class="cls-3" d="m242.41,27.82h0"/>
  <line class="cls-3" x1="242.66" y1="30.27" x2="243.06" y2="30.17"/>
  <line class="cls-3" x1="243.06" y1="30.17" x2="242.41" y2="27.82"/>
  <path class="cls-3" d="m242.66,30.27h-.08"/>
  <path class="cls-3" d="m243.39,31.37h0"/>
  <line class="cls-3" x1="243.64" y1="33.83" x2="244.04" y2="33.72"/>
  <line class="cls-3" x1="244.04" y1="33.72" x2="243.39" y2="31.37"/>
  <path class="cls-3" d="m243.64,33.83h-.08"/>
  <path class="cls-3" d="m244.38,34.92h0"/>
  <line class="cls-3" x1="244.63" y1="37.38" x2="245.03" y2="37.27"/>
  <line class="cls-3" x1="245.03" y1="37.27" x2="244.38" y2="34.92"/>
  <path class="cls-3" d="m244.63,37.38h-.09"/>
  <line class="cls-3" x1="244.96" y1="38.59" x2="245.36" y2="38.48"/>
  <path class="cls-3" d="m245.36,38.48h-.09"/>
  <line class="cls-3" x1="246.01" y1="40.82" x2="245.36" y2="38.48"/>
  <path class="cls-3" d="m245.61,40.93h0"/>
  <line class="cls-3" x1="245.94" y1="42.14" x2="246.34" y2="42.03"/>
  <line class="cls-3" x1="246.99" y1="44.37" x2="246.34" y2="42.03"/>
  <line class="cls-3" x1="246.93" y1="45.69" x2="247.33" y2="45.58"/>
  <line class="cls-3" x1="247.97" y1="47.92" x2="247.33" y2="45.58"/>
  <path class="cls-3" d="m247.58,48h0"/>
  <line class="cls-3" x1="247.91" y1="49.24" x2="248.31" y2="49.13"/>
  <line class="cls-3" x1="248.96" y1="51.47" x2="248.31" y2="49.13"/>
  <line class="cls-3" x1="248.89" y1="52.8" x2="249.29" y2="52.68"/>
  <line class="cls-3" x1="248.89" y1="52.8" x2="251.42" y2="61.91"/>
  <line class="cls-3" x1="251.42" y1="61.91" x2="251.81" y2="61.78"/>
  <line class="cls-3" x1="251.81" y1="61.78" x2="249.29" y2="52.68"/>
  <line class="cls-3" x1="251.42" y1="61.91" x2="296.05" y2="73.3"/>
  <line class="cls-3" x1="296.05" y1="73.3" x2="296.44" y2="73.17"/>
  <line class="cls-3" x1="296.44" y1="73.17" x2="251.81" y2="61.78"/>
  <line class="cls-3" x1="238.15" y1="15.63" x2="236.52" y2="15.29"/>
  <line class="cls-3" x1="236.52" y1="15.29" x2="236.12" y2="15.39"/>
  <path class="cls-3" d="m238.15,15.63c.14.03.27.08.39.15s.22.15.32.25"/>
  <path class="cls-3" d="m239,17.28h.06"/>
  <path class="cls-3" d="m240,20.82h0"/>
  <path class="cls-3" d="m241,24.38h0"/>
  <path class="cls-3" d="m242,27.93h0"/>
  <path class="cls-3" d="m243,31.48h0"/>
  <path class="cls-3" d="m244,35h0"/>
  <path class="cls-3" d="m245.61,40.93h-.09"/>
  <path class="cls-3" d="m247,44.37h0"/>
  <path class="cls-3" d="m247.57,48h-.09"/>
  <line class="cls-3" x1="243.78" y1="59.74" x2="233.95" y2="57.23"/>
  <line class="cls-3" x1="54.4" y1="55.85" x2="227.15" y2="14.24"/>
  <line class="cls-3" x1="53.64" y1="57.29" x2="58.65" y2="58.88"/>
  <line class="cls-3" x1="236.52" y1="15.29" x2="231.46" y2="14.23"/>
  <path class="cls-3" d="m54.4,55.85l-.4.15c-.15.04-.29.1-.43.17h-.21l-.1.06-.09.06h-.05v.16"/>
  <path class="cls-3" d="m53.69,58.44l-.23-.08-.22-.11c-.07-.04-.14-.09-.19-.15v-.05h0v-.12"/>
  <path class="cls-3" d="m231.46,14.23h-4.31"/>
  <line class="cls-3" x1="52.94" y1="57.88" x2="52.89" y2="56.73"/>
  <path class="cls-3" d="m52.89,56.73v.12h0l.11.15c.06.06.13.11.2.15l.22.11.23.08"/>
  <path class="cls-3" d="m239.26,16c-.05-.02-.11-.02-.16,0"/>
  <path class="cls-3" d="m239.39,17.17h.09l.08-.06.06-.08s0-.05,0-.08c0-.06,0-.13,0-.19v-.37l-.09-.17-.07-.08-.07-.06h0"/>
  <path class="cls-3" d="m61.58,61.34h-.15"/>
  <path class="cls-3" d="m61.21,59.88h.16"/>
  <path class="cls-3" d="m66.35,78.75h0s-.05-.04-.07-.07c-.03-.03-.05-.06-.07-.1-.04-.06-.07-.12-.09-.19-.03-.07-.05-.14-.06-.21v-.18c-.01-.07-.01-.15,0-.22v-.11h0"/>
  <path class="cls-3" d="m243.24,30.17h-.17"/>
  <path class="cls-3" d="m66.52,78.76h-.17"/>
  <path class="cls-3" d="m66.12,77.3h.17"/>
  <line class="cls-3" x1="277.19" y1="68.67" x2="273.91" y2="67.83"/>
  <line class="cls-3" x1="104.24" y1="125.81" x2="104.25" y2="126.16"/>
  <line class="cls-3" x1="290.23" y1="72" x2="286.86" y2="71.14"/>
  <line class="cls-3" x1="117.46" y1="130.89" x2="117.47" y2="131.24"/>
  <line class="cls-3" x1="252.14" y1="62.27" x2="249.02" y2="61.48"/>
  <line class="cls-3" x1="59.6" y1="119.58" x2="58.25" y2="119.04"/>
  <line class="cls-3" x1="56.92" y1="109.14" x2="58.25" y2="119.04"/>
  <line class="cls-3" x1="57.15" y1="108.51" x2="67.27" y2="105.51"/>
  <line class="cls-3" x1="58.17" y1="108.84" x2="57.33" y2="108.52"/>
  <line class="cls-3" x1="59.6" y1="119.58" x2="58.17" y2="108.84"/>
  <line class="cls-3" x1="236.15" y1="58.19" x2="233.24" y2="57.44"/>
  <line class="cls-3" x1="60.18" y1="108.89" x2="63.16" y2="110.03"/>
  <line class="cls-3" x1="63.16" y1="110.03" x2="63.18" y2="110.36"/>
  <path class="cls-3" d="m238.9,17.29h.1"/>
  <path class="cls-3" d="m242.9,31.49h.1"/>
  <line class="cls-3" x1="258.89" y1="72.76" x2="258.89" y2="72.76"/>
  <path class="cls-3" d="m238.46,16.13c-.1-.09-.21-.18-.33-.25l-.18-.09-.2-.06"/>
  <path class="cls-3" d="m247.83,49.26h.08"/>
  <line class="cls-3" x1="232.14" y1="17.69" x2="232.04" y2="17.34"/>
  <line class="cls-3" x1="236.11" y1="32.03" x2="235.45" y2="29.64"/>
  <line class="cls-3" x1="241.07" y1="49.94" x2="240.41" y2="47.56"/>
  <path class="cls-3" d="m243,30.2h.08"/>
  <path class="cls-3" d="m246.34,42h-.09"/>
  <line class="cls-3" x1="296.05" y1="73.3" x2="296.05" y2="73.3"/>
  <line class="cls-3" x1="236.1" y1="16.34" x2="236.12" y2="15.39"/>
  <line class="cls-3" x1="236.12" y1="15.39" x2="237.75" y2="15.73"/>
  <line class="cls-3" x1="236.12" y1="15.39" x2="59.25" y2="58.74"/>
  <line class="cls-3" x1="277.19" y1="68.67" x2="104.24" y2="125.81"/>
  <line class="cls-3" x1="290.23" y1="72" x2="117.46" y2="130.89"/>
  <line class="cls-3" x1="236.15" y1="58.19" x2="74.93" y2="106.51"/>
  <line class="cls-3" x1="60.18" y1="108.89" x2="67.6" y2="106.68"/>
  <line class="cls-3" x1="285.82" y1="71.49" x2="285.84" y2="70.88"/>
  <line class="cls-3" x1="272.9" y1="68.16" x2="272.92" y2="67.58"/>
  <line class="cls-3" x1="61.05" y1="59.99" x2="61.03" y2="59.99"/>
  <line class="cls-3" x1="248.07" y1="61.77" x2="248.09" y2="61.24"/>
  <path class="cls-3" d="m66.64,77.16h.07"/>
  <path class="cls-3" d="m239.94,20.83h.06"/>
  <path class="cls-3" d="m240.92,24.39h.08"/>
  <path class="cls-3" d="m241.91,27.94h.09"/>
  <path class="cls-3" d="m243.88,35.05h.12"/>
  <path class="cls-3" d="m244.87,38.6h.13"/>
  <path class="cls-3" d="m244.94,37.3h.06"/>
  <line class="cls-3" x1="296.44" y1="73.17" x2="296.44" y2="73.17"/>
  <path class="cls-3" d="m245.86,42.15h.08"/>
  <path class="cls-3" d="m246.84,45.7h.09"/>
  <line class="cls-3" x1="277.17" y1="69.26" x2="277.19" y2="68.67"/>
  <line class="cls-3" x1="100.94" y1="124.88" x2="100.93" y2="124.54"/>
  <line class="cls-3" x1="290.2" y1="72.62" x2="290.23" y2="72"/>
  <line class="cls-3" x1="114.05" y1="129.92" x2="114.04" y2="129.57"/>
  <line class="cls-3" x1="252.12" y1="62.81" x2="252.14" y2="62.27"/>
  <line class="cls-3" x1="77.45" y1="115.52" x2="79.07" y2="116.14"/>
  <line class="cls-3" x1="67.44" y1="106.09" x2="58.17" y2="108.84"/>
  <line class="cls-3" x1="236.14" y1="58.7" x2="236.15" y2="58.19"/>
  <line class="cls-3" x1="60.2" y1="109.22" x2="60.18" y2="108.89"/>
  <line class="cls-3" x1="233.13" y1="21.28" x2="232.47" y2="18.89"/>
  <line class="cls-3" x1="234.12" y1="24.86" x2="233.46" y2="22.47"/>
  <line class="cls-3" x1="235.11" y1="28.45" x2="234.45" y2="26.06"/>
  <line class="cls-3" x1="237.1" y1="35.61" x2="236.44" y2="33.22"/>
  <line class="cls-3" x1="238.09" y1="39.2" x2="237.43" y2="36.81"/>
  <line class="cls-3" x1="239.08" y1="42.78" x2="238.42" y2="40.39"/>
  <line class="cls-3" x1="240.08" y1="46.36" x2="239.41" y2="43.97"/>
  <line class="cls-3" x1="59.6" y1="119.58" x2="59.6" y2="119.58"/>
  <line class="cls-3" x1="233.56" y1="57.35" x2="243.85" y2="59.98"/>
  <line class="cls-3" x1="242.06" y1="53.53" x2="241.4" y2="51.14"/>
  <path class="cls-3" d="m240,19.54h.07"/>
  <path class="cls-3" d="m241,23.09h.07"/>
  <path class="cls-3" d="m242,26.65h.08"/>
  <path class="cls-3" d="m244,33.75h.08"/>
  <line class="cls-3" x1="68.12" y1="108.55" x2="63.16" y2="110.03"/>
  <line class="cls-3" x1="260.34" y1="64.37" x2="87.28" y2="119.3"/>
  <line class="cls-3" x1="84.11" y1="118.08" x2="257.18" y2="63.56"/>
  <line class="cls-3" x1="240.09" y1="59.19" x2="75.62" y2="108.95"/>
  <line class="cls-3" x1="67.07" y1="111.54" x2="67.09" y2="111.87"/>
  <line class="cls-3" x1="75.09" y1="107.07" x2="237.06" y2="58.42"/>
  <line class="cls-3" x1="285.84" y1="70.88" x2="113.01" y2="129.18"/>
  <line class="cls-3" x1="109.62" y1="127.88" x2="282.5" y2="70.03"/>
  <line class="cls-3" x1="268.69" y1="66.5" x2="95.67" y2="122.52"/>
  <line class="cls-3" x1="92.43" y1="121.27" x2="265.47" y2="65.68"/>
  <line class="cls-3" x1="256.22" y1="63.31" x2="83.15" y2="117.71"/>
  <line class="cls-3" x1="83.15" y1="117.71" x2="83.16" y2="118.05"/>
  <line class="cls-3" x1="80.01" y1="116.51" x2="253.08" y2="62.51"/>
  <line class="cls-3" x1="272.92" y1="67.58" x2="99.93" y2="124.16"/>
  <line class="cls-3" x1="96.65" y1="122.9" x2="269.67" y2="66.75"/>
  <line class="cls-3" x1="264.5" y1="65.43" x2="91.45" y2="120.9"/>
  <line class="cls-3" x1="88.24" y1="119.67" x2="261.3" y2="64.61"/>
  <line class="cls-3" x1="244.07" y1="60.21" x2="76.31" y2="111.44"/>
  <line class="cls-3" x1="75.78" y1="109.53" x2="241.01" y2="59.43"/>
  <line class="cls-3" x1="240.43" y1="20.71" x2="62.85" y2="65.68"/>
  <line class="cls-3" x1="62.47" y1="64.22" x2="240.13" y2="19.52"/>
  <line class="cls-3" x1="61.65" y1="61.33" x2="62.25" y2="61.18"/>
  <line class="cls-3" x1="61.65" y1="61.33" x2="62.45" y2="64.21"/>
  <line class="cls-3" x1="62.87" y1="65.69" x2="63.47" y2="65.54"/>
  <line class="cls-3" x1="62.87" y1="65.69" x2="63.67" y2="68.57"/>
  <line class="cls-3" x1="64.09" y1="70.05" x2="64.69" y2="69.9"/>
  <line class="cls-3" x1="64.09" y1="70.05" x2="64.89" y2="72.93"/>
  <line class="cls-3" x1="65.31" y1="74.41" x2="65.91" y2="74.25"/>
  <line class="cls-3" x1="65.31" y1="74.41" x2="66.11" y2="77.29"/>
  <line class="cls-3" x1="66.53" y1="78.77" x2="67.13" y2="78.61"/>
  <line class="cls-3" x1="66.53" y1="78.77" x2="67.33" y2="81.65"/>
  <line class="cls-3" x1="67.74" y1="83.13" x2="68.35" y2="82.96"/>
  <line class="cls-3" x1="67.74" y1="83.13" x2="68.55" y2="86"/>
  <line class="cls-3" x1="68.96" y1="87.49" x2="69.77" y2="90.36"/>
  <line class="cls-3" x1="69.77" y1="90.36" x2="70.37" y2="90.19"/>
  <path class="cls-3" d="m70.29,90.23s.05-.01.08,0"/>
  <line class="cls-3" x1="70.18" y1="91.84" x2="70.99" y2="94.72"/>
  <line class="cls-3" x1="71.4" y1="96.2" x2="72.2" y2="99.07"/>
  <line class="cls-3" x1="72.62" y1="100.55" x2="73.42" y2="103.43"/>
  <line class="cls-3" x1="73.84" y1="104.91" x2="76.96" y2="116.08"/>
  <line class="cls-3" x1="77.56" y1="115.89" x2="74.43" y2="104.73"/>
  <line class="cls-3" x1="76.96" y1="116.08" x2="122" y2="133.42"/>
  <line class="cls-3" x1="122.6" y1="133.21" x2="77.56" y2="115.89"/>
  <line class="cls-3" x1="59.6" y1="119.58" x2="58.17" y2="108.84"/>
  <line class="cls-3" x1="58.17" y1="108.84" x2="69.42" y2="113.17"/>
  <line class="cls-3" x1="69.29" y1="112.71" x2="58.76" y2="108.67"/>
  <line class="cls-3" x1="69.42" y1="113.17" x2="54.15" y2="58.59"/>
  <path class="cls-3" d="m61,60l-.16-.18-.18-.17-.21-.14c-.07-.04-.14-.08-.22-.1"/>
  <path class="cls-3" d="m60.86,59.25c.07.02.14.05.21.09.07.03.13.07.19.12.12.1.23.21.33.32"/>
  <line class="cls-3" x1="58.65" y1="58.88" x2="58.7" y2="60.04"/>
  <line class="cls-3" x1="62.19" y1="61.2" x2="61.59" y2="61.35"/>
  <path class="cls-3" d="m62.19,61.2h-.08"/>
  <line class="cls-3" x1="63.46" y1="65.55" x2="62.85" y2="65.7"/>
  <path class="cls-3" d="m63.46,65.55h-.09"/>
  <line class="cls-3" x1="64.68" y1="69.9" x2="64.08" y2="70.06"/>
  <path class="cls-3" d="m64.68,69.9h-.09"/>
  <line class="cls-3" x1="65.9" y1="74.26" x2="65.3" y2="74.41"/>
  <path class="cls-3" d="m65.9,74.26h-.09"/>
  <line class="cls-3" x1="67.12" y1="78.61" x2="66.52" y2="78.77"/>
  <path class="cls-3" d="m67.12,78.61h-.12"/>
  <line class="cls-3" x1="68.34" y1="82.96" x2="67.74" y2="83.13"/>
  <path class="cls-3" d="m68.34,83h-.09"/>
  <line class="cls-3" x1="69.77" y1="90.36" x2="70.37" y2="90.19"/>
  <line class="cls-3" x1="241.41" y1="24.26" x2="64.07" y2="70.04"/>
  <line class="cls-3" x1="63.69" y1="68.58" x2="241.11" y2="23.07"/>
  <line class="cls-3" x1="244.37" y1="34.91" x2="67.74" y2="83.11"/>
  <line class="cls-3" x1="67.34" y1="81.66" x2="244.05" y2="33.73"/>
  <line class="cls-3" x1="294.65" y1="73.13" x2="121.97" y2="132.62"/>
  <line class="cls-3" x1="118.51" y1="131.29" x2="291.25" y2="72.26"/>
  <line class="cls-3" x1="118.51" y1="131.29" x2="121.97" y2="132.62"/>
  <line class="cls-3" x1="246.93" y1="45.68" x2="72" y2="96.01"/>
  <line class="cls-3" x1="71.59" y1="94.56" x2="246.59" y2="44.5"/>
  <line class="cls-3" x1="242.4" y1="27.81" x2="65.29" y2="74.4"/>
  <line class="cls-3" x1="64.91" y1="72.94" x2="242.09" y2="26.62"/>
  <line class="cls-3" x1="248.09" y1="61.24" x2="77.02" y2="113.98"/>
  <line class="cls-3" x1="76.48" y1="112.03" x2="245" y2="60.45"/>
  <line class="cls-3" x1="248.9" y1="52.78" x2="74.44" y2="104.71"/>
  <line class="cls-3" x1="74.01" y1="103.27" x2="248.55" y2="51.6"/>
  <line class="cls-3" x1="245.36" y1="38.46" x2="68.96" y2="87.47"/>
  <line class="cls-3" x1="68.55" y1="86.02" x2="245.03" y2="37.28"/>
  <line class="cls-3" x1="246.34" y1="42.01" x2="70.18" y2="91.83"/>
  <line class="cls-3" x1="69.77" y1="90.38" x2="246.01" y2="40.83"/>
  <line class="cls-3" x1="281.5" y1="69.77" x2="108.6" y2="127.49"/>
  <line class="cls-3" x1="105.25" y1="126.2" x2="278.19" y2="68.93"/>
  <line class="cls-3" x1="105.25" y1="126.2" x2="108.6" y2="127.49"/>
  <line class="cls-3" x1="290.13" y1="80.25" x2="291.76" y2="79.68"/>
  <line class="cls-3" x1="290.49" y1="80.74" x2="290.32" y2="81.76"/>
  <line class="cls-3" x1="290.32" y1="81.76" x2="291.73" y2="81.27"/>
  <line class="cls-3" x1="291.73" y1="81.27" x2="291.62" y2="81.93"/>
  <line class="cls-3" x1="289.75" y1="82.59" x2="290.13" y2="80.25"/>
  <line class="cls-3" x1="290.28" y1="79.33" x2="290.39" y2="78.67"/>
  <line class="cls-3" x1="290.39" y1="78.67" x2="292.26" y2="78.01"/>
  <line class="cls-3" x1="122" y1="133.42" x2="296.45" y2="73.17"/>
  <line class="cls-3" x1="122" y1="133.42" x2="121.16" y2="144.13"/>
  <line class="cls-3" x1="291.71" y1="81.27" x2="291.6" y2="81.92"/>
  <line class="cls-3" x1="290.46" y1="80.74" x2="290.3" y2="81.76"/>
  <line class="cls-3" x1="239.06" y1="17.26" x2="239.46" y2="17.16"/>
  <line class="cls-3" x1="239.06" y1="17.26" x2="239.71" y2="19.61"/>
  <line class="cls-3" x1="240.04" y1="20.82" x2="240.44" y2="20.72"/>
  <line class="cls-3" x1="240.04" y1="20.82" x2="240.69" y2="23.16"/>
  <line class="cls-3" x1="241.03" y1="24.37" x2="241.43" y2="24.27"/>
  <line class="cls-3" x1="241.03" y1="24.37" x2="241.68" y2="26.72"/>
  <line class="cls-3" x1="242.01" y1="27.93" x2="242.41" y2="27.82"/>
  <line class="cls-3" x1="242.01" y1="27.93" x2="242.66" y2="30.27"/>
  <line class="cls-3" x1="242.99" y1="31.48" x2="243.39" y2="31.37"/>
  <line class="cls-3" x1="242.99" y1="31.48" x2="243.64" y2="33.83"/>
  <line class="cls-3" x1="243.98" y1="35.03" x2="244.38" y2="34.92"/>
  <line class="cls-3" x1="243.98" y1="35.03" x2="244.63" y2="37.38"/>
  <line class="cls-3" x1="244.96" y1="38.59" x2="245.61" y2="40.93"/>
  <line class="cls-3" x1="245.61" y1="40.93" x2="246.01" y2="40.82"/>
  <path class="cls-3" d="m245.92,40.86h.08"/>
  <line class="cls-3" x1="245.94" y1="42.14" x2="246.59" y2="44.48"/>
  <line class="cls-3" x1="246.59" y1="44.48" x2="246.99" y2="44.37"/>
  <line class="cls-3" x1="246.93" y1="45.69" x2="247.58" y2="48.04"/>
  <line class="cls-3" x1="247.58" y1="48.04" x2="247.97" y2="47.92"/>
  <line class="cls-3" x1="247.91" y1="49.24" x2="248.56" y2="51.59"/>
  <line class="cls-3" x1="248.56" y1="51.59" x2="248.96" y2="51.47"/>
  <line class="cls-3" x1="243.85" y1="59.98" x2="242.39" y2="54.72"/>
  <line class="cls-3" x1="239.4" y1="17.18" x2="239" y2="17.28"/>
  <path class="cls-3" d="m239.4,17.18h-.09"/>
  <line class="cls-3" x1="240.43" y1="20.72" x2="240.03" y2="20.82"/>
  <path class="cls-3" d="m240.43,20.72h-.09"/>
  <line class="cls-3" x1="241.42" y1="24.27" x2="241.01" y2="24.38"/>
  <path class="cls-3" d="m241.42,24.27h-.1"/>
  <line class="cls-3" x1="242.4" y1="27.82" x2="242" y2="27.93"/>
  <path class="cls-3" d="m242.4,27.82h-.09"/>
  <line class="cls-3" x1="243.39" y1="31.37" x2="242.99" y2="31.48"/>
  <path class="cls-3" d="m243.39,31.37h-.09"/>
  <line class="cls-3" x1="244.37" y1="34.93" x2="243.97" y2="35.04"/>
  <path class="cls-3" d="m244.37,34.93h-.09"/>
  <line class="cls-3" x1="245.61" y1="40.93" x2="246.01" y2="40.82"/>
  <line class="cls-3" x1="246.59" y1="44.49" x2="246.99" y2="44.37"/>
  <line class="cls-3" x1="247.57" y1="48.04" x2="247.97" y2="47.92"/>
  <line class="cls-3" x1="248.55" y1="51.59" x2="248.95" y2="51.47"/>
  <polyline class="cls-3" points="236.1 16.34 236.1 16.34 61.21 59.42"/>
  <polyline class="cls-3" points="58.7 60.04 54.15 58.59 53.69 58.44"/>
  <path class="cls-3" d="m61.37,59.88h.05l.07.08.06.09c.04.06.07.13.1.2s.05.14.06.21v.21c0,.07,0,.15,0,.22v.16h-.05"/>
  <path class="cls-3" d="m61.43,61.33h0l-.07-.08s-.05-.06-.07-.1c-.04-.06-.07-.12-.09-.19-.03-.07-.05-.14-.06-.21v-.17h0c0-.07,0-.15,0-.22v-.15h0"/>
  <line class="cls-3" x1="239.39" y1="17.17" x2="61.58" y2="61.34"/>
  <line class="cls-3" x1="61.21" y1="59.88" x2="239.1" y2="15.98"/>
  <path class="cls-3" d="m66.29,77.31h0l.07.07.06.1c.04.06.07.12.1.19s.05.14.06.21v.21c.01.07.01.15,0,.22v.11h0"/>
  <line class="cls-3" x1="243.39" y1="31.36" x2="66.52" y2="78.76"/>
  <line class="cls-3" x1="66.12" y1="77.3" x2="243.07" y2="30.18"/>
  <line class="cls-3" x1="100.93" y1="124.54" x2="273.91" y2="67.83"/>
  <line class="cls-3" x1="100.93" y1="124.54" x2="104.24" y2="125.81"/>
  <line class="cls-3" x1="114.04" y1="129.57" x2="286.86" y2="71.14"/>
  <line class="cls-3" x1="114.04" y1="129.57" x2="117.46" y2="130.89"/>
  <line class="cls-3" x1="252.14" y1="62.27" x2="79.07" y2="116.14"/>
  <line class="cls-3" x1="79.07" y1="116.14" x2="79.08" y2="116.48"/>
  <line class="cls-3" x1="77.19" y1="114.57" x2="249.02" y2="61.48"/>
  <path class="cls-3" d="m57.33,108.52h-.22v.4"/>
  <line class="cls-3" x1="247.92" y1="49.23" x2="73.22" y2="100.36"/>
  <line class="cls-3" x1="72.8" y1="98.91" x2="247.57" y2="48.05"/>
  <path class="cls-3" d="m71,94.72h0"/>
  <line class="cls-3" x1="71.4" y1="96.2" x2="72" y2="96.03"/>
  <path class="cls-3" d="m71,94.72h0v.06h0v.83l.06.11c0,.1-.02.19-.06.28h.28"/>
  <path class="cls-3" d="m71.58,94.55h0"/>
  <path class="cls-3" d="m72,96h-.08"/>
  <path class="cls-3" d="m71.22,96.17h0l-.22-.17-.06-.09c-.04-.06-.07-.12-.1-.19l-.06-.21v-.21h0c-.01-.07-.01-.15,0-.22v-.08h.09"/>
  <path class="cls-3" d="m71.4,96.18h-.18"/>
  <path class="cls-3" d="m71,94.73h.17"/>
  <path class="cls-3" d="m71.16,94.74h0l.07.07s.05.06.07.1c.07.12.12.25.15.39v.17h0v.32h-.09"/>
  <line class="cls-3" x1="70.99" y1="94.72" x2="71.59" y2="94.55"/>
  <path class="cls-3" d="m71.5,94.59h.08"/>
  <line class="cls-3" x1="70.98" y1="94.72" x2="71.58" y2="94.55"/>
  <path class="cls-3" d="m72.2,99.07h0"/>
  <line class="cls-3" x1="72.62" y1="100.55" x2="73.22" y2="100.38"/>
  <path class="cls-3" d="m72.2,99.07h0v.3s-.01.08,0,.12v.13h0v.38l.06.1s.04.07.07.1h.24"/>
  <path class="cls-3" d="m72.8,98.9h0"/>
  <path class="cls-3" d="m73.22,100.38h-.09"/>
  <path class="cls-3" d="m72.44,100.53h0l-.07-.08-.06-.09c-.04-.06-.07-.12-.1-.19l-.21-.33v-.2h0v-.32h.09"/>
  <path class="cls-3" d="m72.62,100.54h-.18"/>
  <path class="cls-3" d="m72.21,99.09h.17"/>
  <path class="cls-3" d="m72.38,99.1h0l.07.08.07.09.09.19c.03.07.05.14.06.21v.11h0c.01.07.01.15,0,.22v.11h-.09"/>
  <line class="cls-3" x1="72.2" y1="99.07" x2="72.8" y2="98.9"/>
  <path class="cls-3" d="m72.72,98.94h.08"/>
  <line class="cls-3" x1="72.2" y1="99.07" x2="72.8" y2="98.9"/>
  <path class="cls-3" d="m73.42,103.43h0"/>
  <line class="cls-3" x1="73.84" y1="104.91" x2="74.44" y2="104.74"/>
  <path class="cls-3" d="m73.42,103.43h0v.06h0v.88l.06.11s.04.07.07.1h.29"/>
  <path class="cls-3" d="m74,103.26h0"/>
  <path class="cls-3" d="m74.44,104.74h-.09"/>
  <path class="cls-3" d="m73.66,104.88h0l-.07-.08-.06-.09c-.04-.06-.07-.12-.1-.19s-.05-.14-.06-.21v-.11h0c-.01-.07-.01-.15,0-.22v-.11h0v-.05h.09"/>
  <path class="cls-3" d="m73.83,104.89h-.17"/>
  <path class="cls-3" d="m73.42,103.44h.18"/>
  <path class="cls-3" d="m73.6,103.45h0l.07.07.06.1c.04.06.07.12.1.19.03.06.05.13.06.2v.21h0v.32h-.1"/>
  <line class="cls-3" x1="73.42" y1="103.43" x2="74.02" y2="103.26"/>
  <path class="cls-3" d="m73.94,103.3h.06"/>
  <line class="cls-3" x1="73.42" y1="103.43" x2="74.02" y2="103.26"/>
  <path class="cls-3" d="m247.17,44.38h-.17"/>
  <path class="cls-3" d="m247.32,45.57h.09l.07-.06.06-.07v-.09c0-.06,0-.12,0-.18v-.05h0v-.12l-.06-.18c-.02-.06-.05-.11-.09-.16l-.06-.08-.07-.06h0"/>
  <path class="cls-3" d="m247.32,45.58h-.09"/>
  <path class="cls-3" d="m246.9,44.41h.1"/>
  <path class="cls-3" d="m248.16,47.93h-.16"/>
  <path class="cls-3" d="m248.31,49.12h.08l.08-.06.06-.07v-.09c0-.06,0-.12,0-.18v-.09s0-.07,0-.1v-.18c-.02-.06-.05-.12-.09-.17l-.07-.07-.06-.06h-.05"/>
  <path class="cls-3" d="m248.31,49.13h-.09"/>
  <path class="cls-3" d="m247.89,48h.11"/>
  <path class="cls-3" d="m249.14,51.48h-.14"/>
  <path class="cls-3" d="m249.29,52.67h.09l.07-.06.06-.07v-.09c0-.06,0-.12,0-.18v-.37c-.02-.06-.05-.12-.09-.17l-.06-.07-.07-.06h-.05"/>
  <path class="cls-3" d="m249.29,52.68h-.09"/>
  <path class="cls-3" d="m248.87,51.51h.13"/>
  <path class="cls-3" d="m248.87,51.51h.13"/>
  <path class="cls-3" d="m249.29,52.68h-.09"/>
  <path class="cls-3" d="m249.29,52.67h.09l.07-.06.06-.07v-.09c0-.06,0-.12,0-.18v-.37c-.02-.06-.05-.12-.09-.17l-.06-.07-.07-.06h-.05"/>
  <path class="cls-3" d="m247.89,48h.11"/>
  <path class="cls-3" d="m248.31,49.13h-.09"/>
  <path class="cls-3" d="m248.31,49.12h.08l.08-.06.06-.07v-.09c0-.06,0-.12,0-.18v-.09s0-.07,0-.1v-.18c-.02-.06-.05-.12-.09-.17l-.07-.07-.06-.06h-.05"/>
  <path class="cls-3" d="m246.9,44.41h.1"/>
  <path class="cls-3" d="m247.32,45.58h-.09"/>
  <path class="cls-3" d="m247.32,45.57h.09l.07-.06.06-.07v-.09c0-.06,0-.12,0-.18v-.05h0v-.12l-.06-.18c-.02-.06-.05-.11-.09-.16l-.06-.08-.07-.06h0"/>
  <path class="cls-3" d="m73.94,103.3h.06"/>
  <path class="cls-3" d="m74.44,104.74h-.09"/>
  <path class="cls-3" d="m72.72,98.94h.08"/>
  <path class="cls-3" d="m73.22,100.38h-.09"/>
  <path class="cls-3" d="m71.5,94.59h.08"/>
  <path class="cls-3" d="m72,96h-.08"/>
  <line class="cls-3" x1="72.8" y1="98.91" x2="247.57" y2="48.05"/>
  <line class="cls-3" x1="243.39" y1="31.36" x2="66.52" y2="78.76"/>
  <line class="cls-3" x1="239.39" y1="17.17" x2="61.58" y2="61.34"/>
  <path class="cls-3" d="m244.37,34.93h-.09"/>
  <path class="cls-3" d="m243.39,31.37h-.09"/>
  <path class="cls-3" d="m242.4,27.82h-.09"/>
  <path class="cls-3" d="m241.42,24.27h-.1"/>
  <path class="cls-3" d="m240.43,20.72h-.09"/>
  <path class="cls-3" d="m239.4,17.18h-.09"/>
  <path class="cls-3" d="m245.92,40.86h.08"/>
  <line class="cls-3" x1="246.34" y1="42.01" x2="70.18" y2="91.83"/>
  <line class="cls-3" x1="245.36" y1="38.46" x2="68.96" y2="87.47"/>
  <line class="cls-3" x1="74.01" y1="103.27" x2="248.55" y2="51.6"/>
  <line class="cls-3" x1="242.4" y1="27.81" x2="65.29" y2="74.4"/>
  <line class="cls-3" x1="71.59" y1="94.56" x2="246.59" y2="44.5"/>
  <line class="cls-3" x1="244.37" y1="34.91" x2="67.74" y2="83.11"/>
  <line class="cls-3" x1="241.41" y1="24.26" x2="64.07" y2="70.04"/>
  <path class="cls-3" d="m68.34,83h-.09"/>
  <path class="cls-3" d="m67.12,78.61h-.12"/>
  <path class="cls-3" d="m65.9,74.26h-.09"/>
  <path class="cls-3" d="m64.68,69.9h-.09"/>
  <path class="cls-3" d="m63.46,65.55h-.09"/>
  <path class="cls-3" d="m62.19,61.2h-.08"/>
  <line class="cls-3" x1="59.6" y1="119.58" x2="58.17" y2="108.84"/>
  <path class="cls-3" d="m70.29,90.23s.05-.01.08,0"/>
  <line class="cls-3" x1="240.43" y1="20.71" x2="62.85" y2="65.68"/>
  <path class="cls-3" d="m244,33.75h.08"/>
  <path class="cls-3" d="m242,26.65h.08"/>
  <path class="cls-3" d="m241,23.09h.07"/>
  <path class="cls-3" d="m240,19.54h.07"/>
  <line class="cls-3" x1="59.6" y1="119.58" x2="59.6" y2="119.58"/>
  <line class="cls-3" x1="296.44" y1="73.17" x2="296.44" y2="73.17"/>
  <path class="cls-3" d="m244.94,37.3h.06"/>
  <path class="cls-3" d="m66.64,77.16h.07"/>
  <path class="cls-3" d="m246.34,42h-.09"/>
  <path class="cls-3" d="m243,30.2h.08"/>
  <line class="cls-3" x1="57.15" y1="108.51" x2="67.27" y2="105.51"/>
  <line class="cls-3" x1="56.92" y1="109.14" x2="58.25" y2="119.04"/>
  <line class="cls-3" x1="59.6" y1="119.58" x2="58.25" y2="119.04"/>
  <path class="cls-3" d="m239.39,17.17h.09l.08-.06.06-.08s0-.05,0-.08c0-.06,0-.13,0-.19v-.37l-.09-.17-.07-.08-.07-.06h0"/>
  <line class="cls-3" x1="52.94" y1="57.88" x2="52.89" y2="56.73"/>
  <path class="cls-3" d="m231.46,14.23h-4.31"/>
  <path class="cls-3" d="m53.69,58.44l-.23-.08-.22-.11c-.07-.04-.14-.09-.19-.15v-.05h0v-.12"/>
  <path class="cls-3" d="m54.4,55.85l-.4.15c-.15.04-.29.1-.43.17h-.21l-.1.06-.09.06h-.05v.16"/>
  <line class="cls-3" x1="236.52" y1="15.29" x2="231.46" y2="14.23"/>
  <line class="cls-3" x1="54.4" y1="55.85" x2="227.15" y2="14.24"/>
  <line class="cls-3" x1="243.78" y1="59.74" x2="233.95" y2="57.23"/>
  <path class="cls-3" d="m238.15,15.63c.14.03.27.08.39.15s.22.15.32.25"/>
  <line class="cls-3" x1="238.15" y1="15.63" x2="236.52" y2="15.29"/>
  <line class="cls-3" x1="296.44" y1="73.17" x2="251.81" y2="61.78"/>
  <line class="cls-3" x1="251.81" y1="61.78" x2="249.29" y2="52.68"/>
  <line class="cls-3" x1="248.96" y1="51.47" x2="248.31" y2="49.13"/>
  <line class="cls-3" x1="247.97" y1="47.92" x2="247.33" y2="45.58"/>
  <line class="cls-3" x1="246.99" y1="44.37" x2="246.34" y2="42.03"/>
  <line class="cls-3" x1="246.01" y1="40.82" x2="245.36" y2="38.48"/>
  <path class="cls-3" d="m245.36,38.48h-.09"/>
  <line class="cls-3" x1="245.03" y1="37.27" x2="244.38" y2="34.92"/>
  <line class="cls-3" x1="244.04" y1="33.72" x2="243.39" y2="31.37"/>
  <line class="cls-3" x1="243.06" y1="30.17" x2="242.41" y2="27.82"/>
  <line class="cls-3" x1="242.08" y1="26.61" x2="241.43" y2="24.27"/>
  <line class="cls-3" x1="241.09" y1="23.06" x2="240.44" y2="20.72"/>
  <line class="cls-3" x1="240.11" y1="19.51" x2="239.46" y2="17.16"/>
  <path class="cls-3" d="m67.86,81.52h.07"/>
  <path class="cls-3" d="m65.43,72.81h.07"/>
  <path class="cls-3" d="m64.21,68.45h.07"/>
  <path class="cls-3" d="m69.07,85.88h.08"/>
  <path class="cls-3" d="m297.42,73.42h.12l.11.08.09.09v.06h0c.05.08.08.16.09.25v.26"/>
  <line class="cls-3" x1="296.45" y1="73.17" x2="297.42" y2="73.42"/>
  <line class="cls-3" x1="122.75" y1="144.77" x2="121.16" y2="144.13"/>
  <line class="cls-3" x1="122.75" y1="144.77" x2="296.56" y2="82.49"/>
  <line class="cls-3" x1="296.56" y1="82.49" x2="297.91" y2="74.25"/>
  <path class="cls-3" d="m246.34,42h.09l.07-.06.06-.07v-.09c0-.06,0-.12,0-.18h0v-.1c0-.06-.03-.12-.06-.18-.02-.06-.05-.12-.09-.17l-.06-.07-.07-.06h0"/>
  <path class="cls-3" d="m245.36,38.46h.08l.08-.06v-.71c-.02-.06-.05-.12-.09-.17l-.07-.07-.06-.06h0"/>
  <path class="cls-3" d="m245.21,37.28c-.06-.02-.12-.02-.18,0"/>
  <path class="cls-3" d="m242.4,27.81h.08l.08-.06.06-.08s0-.05,0-.08c0-.06,0-.13,0-.19h0v-.1c0-.06,0-.12,0-.18-.02-.06-.05-.12-.09-.17l-.06-.07-.07-.06h0"/>
  <path class="cls-3" d="m242.26,26.62h-.17"/>
  <path class="cls-3" d="m244.37,34.91h.09l.07-.06.06-.07v-.27h0v-.28l-.09-.16-.07-.07s-.04-.05-.07-.06h-.09"/>
  <path class="cls-3" d="m241.41,24.26h.17v-.35h0v-.33c-.02-.06-.05-.12-.09-.17l-.07-.07s-.04-.05-.07-.06h0"/>
  <path class="cls-3" d="m70.78,91.67h-.08"/>
  <path class="cls-3" d="m63,64.09h.07"/>
  <line class="cls-3" x1="121.16" y1="144.13" x2="121.16" y2="144.13"/>
  <line class="cls-3" x1="74.02" y1="103.25" x2="73.22" y2="100.38"/>
  <line class="cls-3" x1="72.8" y1="98.9" x2="72" y2="96.02"/>
  <line class="cls-3" x1="71.59" y1="94.54" x2="70.78" y2="91.67"/>
  <line class="cls-3" x1="70.37" y1="90.19" x2="69.56" y2="87.32"/>
  <path class="cls-3" d="m69.56,87.32h-.08"/>
  <line class="cls-3" x1="69.15" y1="85.84" x2="68.35" y2="82.96"/>
  <line class="cls-3" x1="67.93" y1="81.48" x2="67.13" y2="78.61"/>
  <line class="cls-3" x1="66.71" y1="77.13" x2="65.91" y2="74.25"/>
  <line class="cls-3" x1="65.5" y1="72.77" x2="64.69" y2="69.9"/>
  <line class="cls-3" x1="64.28" y1="68.42" x2="63.47" y2="65.54"/>
  <line class="cls-3" x1="63.06" y1="64.06" x2="62.25" y2="61.18"/>
  <path class="cls-3" d="m240.43,20.71h.08s.06-.03.08-.06l.06-.07v-.32h0v-.12c-.02-.13-.07-.25-.15-.35,0-.04-.03-.07-.06-.08l-.07-.06h0"/>
  <line class="cls-3" x1="121.16" y1="144.13" x2="59.6" y2="119.58"/>
  <line class="cls-3" x1="54.3" y1="117.7" x2="13.18" y2="103.68"/>
  <line class="cls-3" x1="50.4" y1="55.91" x2="10.62" y2="44.88"/>
  <line class="cls-3" x1="174.9" y1="165.52" x2="127.28" y2="146.57"/>
  <line class="cls-3" x1="348.75" y1="98.15" x2="300.69" y2="83.56"/>
  <line class="cls-3" x1="73.89" y1="165.37" x2="122.81" y2="147.83"/>
  <line class="cls-3" x1="2.84" y1="136.42" x2="51.76" y2="119.13"/>
  <line class="cls-3" x1="79.44" y1="163.19" x2="7.05" y2="135.07"/>
  <polyline class="cls-4" points="14.72 46 16.33 51.49 13.55 51.6 14.72 46"/>
  <polyline class="cls-4" points="17.55 105.16 15.95 99.67 18.72 99.56 17.55 105.16"/>
  <polyline class="cls-4" points="6.94 135.03 12.62 135.71 11.63 138.3 6.94 135.03"/>
  <polyline class="cls-4" points="79.72 163.27 74.04 162.58 75.03 159.99 79.72 163.27"/>
  <polyline class="cls-4" points="169.3 163.28 174 160.02 174.98 162.62 169.3 163.28"/>
  <polyline class="cls-4" points="344.56 96.92 339.86 100.18 338.88 97.58 344.56 96.92"/>
  <g>
    <g>
      <path class="cls-5" d="m250.64,142.24c-.33-2.09-.09-4.23.7-6.2l-3.32,1.23-.25-.68,4.11-1.52.25.68c-.85,2.71-1.09,4.77-.7,6.2l-.79.29h0Z"/>
      <path class="cls-5" d="m256.71,140.07c-.65.29-1.41.21-2-.19-1.29-1.08-1.91-2.76-1.63-4.42.39-1.19,1.67-1.84,2.86-1.46.17.06.33.14.49.23.67.5,1.17,1.2,1.41,2,.32.77.4,1.62.22,2.43-.17.67-.69,1.21-1.35,1.41h0Zm-.25-.69c.45-.15.77-.54.85-1,.1-1.27-.36-2.51-1.26-3.41-.36-.32-.87-.41-1.32-.23-.45.15-.78.53-.87,1-.08.63,0,1.27.26,1.86.18.6.53,1.14,1,1.56.36.34.88.44,1.34.27v-.05Z"/>
      <path class="cls-5" d="m259.54,137.95l.83-.31.33.88-.83.31-.33-.88Z"/>
      <path class="cls-5" d="m262.99,135.43c-.55.23-1.16.23-1.71,0-.53-.23-.94-.68-1.12-1.23-.22-.54-.2-1.16.07-1.68.28-.54.75-.94,1.33-1.13.61-.24,1.3-.19,1.86.15.64.4,1.11,1.02,1.33,1.74.38.86.44,1.84.16,2.74-.28.76-.89,1.36-1.66,1.61-.58.23-1.22.25-1.81.06l.17-.74c1.03.4,2.19-.11,2.59-1.14h0c.22-.58.22-1.23,0-1.81-.04.32-.17.63-.38.88-.22.25-.51.45-.83.56h0Zm-.07-3.35c-.36-.16-.76-.16-1.12,0-.37.12-.67.39-.83.74-.15.36-.15.76,0,1.12.12.36.38.66.73.81.36.15.76.15,1.12,0,.37-.12.67-.39.83-.74.16-.35.16-.75,0-1.1-.13-.35-.39-.64-.73-.8v-.03h0Z"/>
      <path class="cls-5" d="m265.8,129.84l.16,1.84-.92.34.28-2,.48-.18Zm1.25-.46l.16,1.84-.93.34.28-2,.49-.18Z"/>
    </g>
    <g>
      <path class="cls-5" d="m246.95,130.71l-1.83-5c-.26.5-.67.91-1.16,1.18l-.25-.69c.55-.34.97-.87,1.17-1.49l.61-.23,2.19,5.91-.73.32Z"/>
      <path class="cls-5" d="m250.76,129.43c-.54.23-1.15.26-1.71.08-.5-.16-.9-.56-1.06-1.06-.11-.32-.11-.68,0-1,.1-.34.31-.65.6-.86-.29-.02-.58-.11-.82-.28-.23-.16-.41-.38-.51-.64-.17-.43-.14-.91.1-1.31.27-.45.7-.79,1.2-.94.48-.2,1.01-.22,1.5-.06.44.15.78.5.92.94.08.26.08.55,0,.81-.07.29-.22.55-.44.75.35-.02.7.07,1,.26.74.52.97,1.51.53,2.3-.3.48-.77.84-1.31,1.01Zm-.26-.67c.35-.11.65-.34.85-.65.16-.29.18-.63.06-.94-.1-.31-.35-.56-.66-.67-.34-.13-.73-.13-1.07,0-.36.11-.66.35-.85.67-.3.54-.1,1.22.44,1.52h0s.09.05.14.07c.36.11.74.09,1.08-.06v.05h0Zm-1.05-2.86c.29-.09.54-.28.69-.54.13-.24.15-.53.06-.79-.08-.27-.29-.48-.55-.57-.29-.1-.6-.1-.89,0-.3.09-.56.29-.73.56-.14.24-.16.53-.05.79.1.26.31.46.57.56.3.08.62.06.9-.06v.05Z"/>
      <path class="cls-5" d="m255.77,127.52c-.65.29-1.41.21-2-.19-1.29-1.08-1.91-2.76-1.63-4.42.19-.68.71-1.22,1.38-1.43.65-.3,1.42-.22,2,.2.67.5,1.17,1.2,1.41,2,.32.77.4,1.62.22,2.43-.18.68-.7,1.22-1.38,1.41h0Zm-.25-.69c.45-.15.77-.54.85-1,.1-1.26-.36-2.51-1.26-3.4-.57-.48-1.41-.4-1.89.17h0c-.15.19-.25.4-.29.63-.08.63,0,1.27.26,1.86.18.6.53,1.14,1,1.56.38.31.9.38,1.34.18Z"/>
      <path class="cls-5" d="m260.98,125.6c-.66.28-1.41.21-2-.2-1.29-1.08-1.91-2.75-1.63-4.41.39-1.19,1.66-1.85,2.86-1.47.17.06.34.14.49.23.67.5,1.16,1.2,1.41,2,.32.76.4,1.61.22,2.42-.18.67-.69,1.21-1.35,1.43h0Zm-.26-.69c.45-.15.78-.53.86-1,.09-.63,0-1.27-.25-1.85-.19-.6-.53-1.14-1-1.57-.58-.47-1.43-.38-1.9.2h-.01c-.14.18-.24.39-.28.61-.1,1.27.37,2.52,1.27,3.42.37.3.87.37,1.31.19h0Z"/>
    </g>
  </g>
  <path class="cls-3" d="m243.27,31.22h.08l.08-.06.06-.08v-.27h0v-.1c0-.06,0-.12,0-.18l-.09-.17-.06-.07-.07-.06h0"/>
  <path class="cls-3" d="m243.27,31.22h.08l.08-.06.06-.08v-.27h0v-.1c0-.06,0-.12,0-.18l-.09-.17-.06-.07-.07-.06h0"/>
  <line class="cls-1" x1="102.71" y1="207.74" x2="325.92" y2="123.53"/>
  <line class="cls-1" x1="60.56" y1="120.26" x2="33.91" y2="129.79"/>
  <line class="cls-2" x1="90.24" y1="154.55" x2="120.94" y2="144"/>
  <line class="cls-1" x1="264.82" y1="51.96" x2="250.48" y2="56.31"/>
  <line class="cls-1" x1="320.27" y1="71.71" x2="297.11" y2="79.99"/>
  <line class="cls-1" x1="240.26" y1="59.12" x2="243.16" y2="58.26"/>
  <g>
    <g>
      <path class="cls-7" d="m37.33,143.75c.76-1.44,2.29-2.84,4.62-4.19l-3.3-1.27.26-.68,4.09,1.58-.26.68c-2.43,1.47-3.97,2.86-4.62,4.19l-.78-.3h-.01Z"/>
      <path class="cls-7" d="m43.38,146.08l.55-1.44-3.1-1.19.27-.69,4.43-2.6.88.34-1.45,3.75.85.33-.27.69-.85-.33-.55,1.44-.76-.3h0Zm-1.46-3l2.27.88,1.11-2.88-3.39,2h0Z"/>
      <path class="cls-7" d="m47.81,147.87c-.72-.28-1.17-.76-1.35-1.45s-.09-1.5.26-2.42c.36-.92.83-1.58,1.43-1.97s1.26-.45,1.98-.17,1.17.76,1.35,1.46c.18.69.1,1.5-.26,2.42s-.83,1.57-1.43,1.97c-.6.39-1.26.45-1.98.17h0Zm.27-.7c.46.18.9.11,1.32-.21s.76-.83,1.04-1.55.37-1.33.27-1.85c-.09-.51-.37-.86-.84-1.04-.48-.18-.92-.12-1.33.2-.41.32-.76.84-1.04,1.56-.28.72-.37,1.33-.28,1.84s.38.86.85,1.04h.01Z"/>
    </g>
    <g>
      <path class="cls-7" d="m31.19,154.27l.25-.67,2.94-1.05c.87-.31,1.41-.72,1.6-1.23.13-.33.13-.63,0-.91s-.36-.48-.71-.61c-.41-.16-.77-.15-1.09.04-.32.18-.54.5-.67.95l-.72-.33c.19-.63.54-1.07,1.05-1.32s1.07-.25,1.69,0c.58.22.98.56,1.2,1.02.23.46.24.95.03,1.48-.14.36-.38.67-.72.93s-.81.5-1.41.7l-2.12.75,2.9,1.12-.27.69-3.97-1.53.02-.02Z"/>
      <path class="cls-7" d="m38.75,154.96c-.6-.23-1.03-.61-1.27-1.14s-.25-1.08-.03-1.66c.23-.59.61-.99,1.16-1.21.54-.22,1.13-.21,1.75.03.66.25,1.09.7,1.3,1.34s.16,1.37-.15,2.18c-.41,1.05-.97,1.77-1.7,2.16s-1.49.43-2.31.11c-.62-.24-1.08-.62-1.4-1.16l.62-.45c.23.43.58.74,1.05.92.57.22,1.12.19,1.65-.08.54-.27.93-.72,1.19-1.35-.24.22-.53.35-.87.4-.34.05-.67.02-1-.11v.02Zm2.17-2.55c-.16-.35-.43-.6-.82-.76-.39-.15-.76-.15-1.11,0-.35.16-.6.43-.76.82-.15.39-.15.75,0,1.1s.43.6.83.75c.39.15.76.15,1.11,0,.35-.15.6-.42.75-.81s.15-.76,0-1.12v.02Z"/>
      <path class="cls-7" d="m41.13,157.1l.82.32-.34.87-.82-.32.34-.87Z"/>
      <path class="cls-7" d="m42.93,158.8l1.9-4.92c-.49.2-1.04.23-1.65.12l.26-.68c.65.1,1.28,0,1.87-.35l.6.23-2.27,5.88-.72-.28h.01Z"/>
      <path class="cls-7" d="m48.25,154.02l-1.09,1.49-.92-.35,1.53-1.32.48.18h0Zm1.24.48l-1.09,1.49-.92-.36,1.53-1.32.49.19h-.01Z"/>
    </g>
  </g>
  <g>
    <g>
      <path class="cls-6" d="m13.72,80.83l-1.54.09.18,3.32-.74.04-4.19-2.97-.05-.94,4.02-.22-.05-.91.74-.04.05.91,1.54-.09.05.82Zm-2.14,2.56l-.14-2.43-3.08.17,3.22,2.26Z"/>
      <path class="cls-6" d="m13.41,75.33l-1.54.09.18,3.32-.74.04-4.19-2.97-.05-.94,4.02-.22-.05-.91.74-.04.05.91,1.54-.09.05.82Zm-2.14,2.56l-.14-2.43-3.08.17,3.22,2.26Z"/>
      <path class="cls-6" d="m8.93,70.8c-.04-.65.14-1.19.51-1.63.38-.44.88-.68,1.5-.71s1.16.15,1.58.56c.43.41.66.94.69,1.61.04.7-.19,1.28-.69,1.74-.5.46-1.18.71-2.05.76-1.13.06-2.02-.16-2.67-.66-.65-.5-1-1.19-1.05-2.06-.04-.66.12-1.24.48-1.75l.66.38c-.3.4-.44.84-.41,1.34.03.61.29,1.1.75,1.48.47.38,1.05.56,1.73.53-.3-.13-.54-.33-.72-.62-.19-.29-.29-.61-.31-.96Zm3.21.92c.25-.29.37-.64.35-1.06s-.18-.76-.46-1.01c-.28-.26-.64-.37-1.06-.36-.41.02-.75.18-1,.47-.25.29-.37.64-.34,1.06s.18.76.46,1.02c.28.26.63.38,1.04.35s.76-.18,1.01-.47Z"/>
    </g>
    <g>
      <path class="cls-6" d="m25.93,82.37l-5.27.29c.38.37.64.85.78,1.45l-.73.04c-.17-.64-.54-1.16-1.09-1.56l-.04-.65,6.29-.35.04.77Z"/>
      <path class="cls-6" d="m25.8,79.93c-1.63-.1-3.53-.92-5.72-2.49l.2,3.53-.73.04-.24-4.38.73-.04c2.34,1.61,4.24,2.44,5.72,2.49l.05.84Z"/>
      <path class="cls-6" d="m24.68,76.69l-.05-.88.93-.05.05.88-.93.05Z"/>
      <path class="cls-6" d="m21.16,72.6c-.04-.65.14-1.19.51-1.63.38-.44.88-.68,1.5-.71s1.16.15,1.58.56c.43.41.66.94.69,1.61.04.7-.19,1.28-.69,1.74-.5.46-1.18.71-2.05.76-1.13.06-2.02-.16-2.67-.66-.65-.5-1-1.19-1.05-2.06-.04-.66.12-1.24.48-1.75l.66.38c-.3.4-.44.84-.41,1.34.03.61.29,1.1.75,1.48.47.38,1.05.56,1.73.53-.3-.13-.54-.33-.72-.62-.19-.29-.29-.61-.31-.96Zm3.21.92c.25-.29.37-.64.35-1.06s-.18-.76-.46-1.01c-.28-.26-.64-.37-1.06-.36-.41.02-.75.18-1,.47-.25.29-.37.64-.34,1.06s.18.76.46,1.02c.28.26.63.38,1.04.35s.76-.18,1.01-.47Z"/>
      <path class="cls-6" d="m18.69,66.98l1.81.39.06.99-1.83-.85-.03-.52Zm.07,1.33l1.81.39.05.98-1.83-.85-.03-.51Z"/>
    </g>
  </g>
</svg>