<svg class="ad-draw-svg" preserveAspectRatio="xMidYMid meet" id="Vrstva_1" data-name="Vrstva 1" xmlns="http://www.w3.org/2000/svg" viewBox="0 0 226.77 226.77">
  <defs>
    <style>
      .cls-1 {
        fill: none;
        stroke: #010101;
        stroke-linecap: round;
        stroke-linejoin: round;
      }

      .cls-1, .cls-2 {
        stroke-width:.7px;
      }

      .cls-2 {
        fill: #020303;
        stroke: #020303;
        stroke-miterlimit: 10;
      }

      .cls-3 {
        fill: #1d1d1b;
      }
    
.cls-1{stroke:#ffffff}
.cls-2{stroke:#ffffff;fill:#ffffff}
.cls-3{fill:#ffffff}
</style>
  </defs>
  <path class="cls-1" d="M178.51,136.86l-11.87-6.77"/>
  <line class="cls-1" x1="178.64" y1="225.71" x2="117.05" y2="199.07"/>
  <line class="cls-1" x1="62.32" y1="65.24" x2="44.63" y2="56.28"/>
  <path class="cls-1" d="M95,189.81,44.16,168.86"/>
  <path class="cls-1" d="M53.14,58.43l47.49-8.08"/>
  <line class="cls-1" x1="64.92" y1="64.65" x2="64.92" y2="52.1"/>
  <line class="cls-1" x1="169.69" y1="118.78" x2="169.69" y2="51.84"/>
  <line class="cls-1" x1="48.5" y1="170.63" x2="48.5" y2="58.31"/>
  <polyline class="cls-2" points="48.54 170.58 49.86 165.02 47.08 165.05 48.54 170.58"/>
  <polyline class="cls-2" points="48.48 58.32 47.09 63.86 49.87 63.87 48.48 58.32"/>
  <polyline class="cls-2" points="74.44 54.79 80.13 55.31 79.71 52.56 74.44 54.79"/>
  <line class="cls-1" x1="174.51" y1="223.83" x2="174.55" y2="134.7"/>
  <polyline class="cls-2" points="174.51 134.62 173.08 140.16 175.86 140.18 174.51 134.62"/>
  <polyline class="cls-2" points="74.38 17.03 78.94 20.47 80.03 17.91 74.38 17.03"/>
  <polyline class="cls-2" points="169.69 57.05 165.1 53.64 164.03 56.21 169.69 57.05"/>
  <polyline class="cls-2" points="64.97 56.43 59.28 55.91 59.71 58.66 64.97 56.43"/>
  <polyline class="cls-2" points="174.49 223.84 175.93 218.31 173.15 218.29 174.49 223.84"/>
  <g>
    <g>
      <path class="cls-3" d="M86.84,49.7a2.48,2.48,0,0,1-1.69-.22,1.69,1.69,0,0,1-.85-1.25,1.56,1.56,0,0,1,.15-1,1.63,1.63,0,0,1,.75-.74,1.64,1.64,0,0,1-.76-.43,1.27,1.27,0,0,1-.38-.71,1.47,1.47,0,0,1,.33-1.28,2.25,2.25,0,0,1,1.35-.7,2.12,2.12,0,0,1,1.48.21A1.48,1.48,0,0,1,88,44.65a1.35,1.35,0,0,1-.11.81,1.58,1.58,0,0,1-.58.65,1.66,1.66,0,0,1,1,.45,1.56,1.56,0,0,1,.48.91,1.67,1.67,0,0,1-.37,1.45A2.42,2.42,0,0,1,86.84,49.7ZM86.2,46a1.28,1.28,0,0,0,.78-.41,1,1,0,0,0,.2-.77.88.88,0,0,0-.43-.65,1.19,1.19,0,0,0-.89-.12,1.34,1.34,0,0,0-.82.41.9.9,0,0,0-.19.76.93.93,0,0,0,.45.66A1.33,1.33,0,0,0,86.2,46Zm.52,3a1.58,1.58,0,0,0,1-.49,1.09,1.09,0,0,0,.23-.91,1.07,1.07,0,0,0-.53-.78,1.58,1.58,0,0,0-1.06-.14,1.55,1.55,0,0,0-1,.49,1.14,1.14,0,0,0,.29,1.69A1.53,1.53,0,0,0,86.72,49Z"/>
      <path class="cls-3" d="M92.11,48.79a2.08,2.08,0,0,1-1.91-.55,3.9,3.9,0,0,1-1-2.21,4,4,0,0,1,.21-2.43,2.26,2.26,0,0,1,3.52-.6,4.68,4.68,0,0,1,.8,4.62A2.07,2.07,0,0,1,92.11,48.79ZM92,48.06a1.27,1.27,0,0,0,1-.85,3.32,3.32,0,0,0,.09-1.86,3.42,3.42,0,0,0-.71-1.73A1.35,1.35,0,0,0,90.1,44,3.54,3.54,0,0,0,90,45.88a3.47,3.47,0,0,0,.71,1.72A1.27,1.27,0,0,0,92,48.06Z"/>
    </g>
    <g>
      <path class="cls-3" d="M87.76,61.69a2.37,2.37,0,0,1-1.6-.23,1.92,1.92,0,0,1-.93-1.18L86,60a1.22,1.22,0,0,0,.61.78,1.53,1.53,0,0,0,1,.15,1.48,1.48,0,0,0,1-.53,1.25,1.25,0,0,0,.22-1,1.24,1.24,0,0,0-.53-.88,1.48,1.48,0,0,0-1.07-.16,1.28,1.28,0,0,0-.64.31l-.44-.45L87.77,56l-3,.52-.13-.72,4-.68.12.7-1.47,2a2,2,0,0,1,1.59.17,1.84,1.84,0,0,1,.83,1.32,1.88,1.88,0,0,1-.37,1.56A2.39,2.39,0,0,1,87.76,61.69Z"/>
      <path class="cls-3" d="M90.83,60.13,91.7,60l.16.93-.87.15Z"/>
      <path class="cls-3" d="M93.25,60.66l-.9-5.19a3,3,0,0,1-1.35.94l-.13-.71a2.81,2.81,0,0,0,1.43-1.27l.64-.11L94,60.53Z"/>
      <path class="cls-3" d="M95.35,53.83l-.17,1.84-1,.17.64-1.92Zm1.31-.23-.17,1.84-1,.17.63-1.92Z"/>
    </g>
  </g>
  <line class="cls-1" x1="74.35" y1="63.06" x2="74.35" y2="12.72"/>
  <g>
    <g>
      <path class="cls-3" d="M45.53,121.48a11.58,11.58,0,0,1-5.57-2.8v3.54h-.73v-4.39H40q3.36,2.61,5.57,2.81Z"/>
      <path class="cls-3" d="M45.53,115H44v3.32h-.74l-4-3.2v-.94h4v-.91H44v.91h1.54Zm-2.28,2.44V115H40.17Z"/>
      <path class="cls-3" d="M45.6,110.22a2.08,2.08,0,0,1-.87,1.79,4.76,4.76,0,0,1-4.7,0,2.27,2.27,0,0,1,0-3.57,4.7,4.7,0,0,1,4.7,0A2.06,2.06,0,0,1,45.6,110.22Zm-.73,0a1.31,1.31,0,0,0-.67-1.16,4.24,4.24,0,0,0-3.64,0,1.35,1.35,0,0,0,0,2.33,3.55,3.55,0,0,0,1.83.4,3.48,3.48,0,0,0,1.82-.4A1.3,1.3,0,0,0,44.87,110.22Z"/>
    </g>
    <g>
      <path class="cls-3" d="M57.5,123.61h-.71l-2-2.37a2.44,2.44,0,0,0-1.72-1,1.11,1.11,0,0,0-.85.33,1.21,1.21,0,0,0-.31.88,1.23,1.23,0,0,0,.42,1,1.45,1.45,0,0,0,1.13.28l0,.8a2.08,2.08,0,0,1-1.61-.51,2,2,0,0,1-.62-1.57,2.12,2.12,0,0,1,.51-1.49,1.79,1.79,0,0,1,1.38-.57,2.18,2.18,0,0,1,1.12.34,4.76,4.76,0,0,1,1.16,1.06l1.46,1.71v-3.11h.74Z"/>
      <path class="cls-3" d="M55.42,116.31a2.22,2.22,0,0,1-.6,1.6,2.06,2.06,0,0,1-1.54.63,2,2,0,0,1-1.55-.65,2.32,2.32,0,0,1-.6-1.64,2.1,2.1,0,0,1,.78-1.7,3.23,3.23,0,0,1,2.1-.64,3.93,3.93,0,0,1,2.62.8,2.84,2.84,0,0,1,.36,3.83l-.63-.41a2.07,2.07,0,0,0-.19-2.83,2.52,2.52,0,0,0-1.7-.63,1.65,1.65,0,0,1,.69.67A1.9,1.9,0,0,1,55.42,116.31Zm-3.15-1.09a1.38,1.38,0,0,0-.41,1,1.36,1.36,0,0,0,.41,1,1.44,1.44,0,0,0,1,.42,1.39,1.39,0,0,0,1-.41,1.47,1.47,0,0,0,.4-1,1.45,1.45,0,0,0-.4-1,1.5,1.5,0,0,0-2.06,0Z"/>
      <path class="cls-3" d="M56.56,113.32v-.89h.94v.89Z"/>
      <path class="cls-3" d="M57.5,111H52.22a2.93,2.93,0,0,1,.71,1.49H52.2a2.85,2.85,0,0,0-1-1.62v-.64h6.3Z"/>
      <path class="cls-3" d="M51.13,106.45l1.78.48v1l-1.78-1Zm0,1.33,1.78.49v1l-1.78-1Z"/>
    </g>
  </g>
  <g>
    <g>
      <path class="cls-3" d="M118,32.43a2.46,2.46,0,0,1-1.3-1.11,1.68,1.68,0,0,1,0-1.5,1.57,1.57,0,0,1,.68-.78,1.74,1.74,0,0,1,1-.22,1.57,1.57,0,0,1-.41-.77,1.32,1.32,0,0,1,.07-.81,1.48,1.48,0,0,1,1-.89,2.22,2.22,0,0,1,1.52.14,2.17,2.17,0,0,1,1.13,1,1.5,1.5,0,0,1,0,1.31,1.38,1.38,0,0,1-.53.62,1.53,1.53,0,0,1-.84.24,1.68,1.68,0,0,1,.57.89,1.66,1.66,0,0,1-.09,1,1.69,1.69,0,0,1-1.1,1A2.38,2.38,0,0,1,118,32.43Zm.27-.66a1.51,1.51,0,0,0,1.07.1,1,1,0,0,0,.68-.64,1.07,1.07,0,0,0,0-.94,1.52,1.52,0,0,0-.81-.69,1.54,1.54,0,0,0-1.08-.1,1.05,1.05,0,0,0-.69.63,1.07,1.07,0,0,0,0,.94A1.59,1.59,0,0,0,118.3,31.77ZM119.5,29a1.22,1.22,0,0,0,.87.07.89.89,0,0,0,.58-.54.86.86,0,0,0,0-.78,1.26,1.26,0,0,0-.67-.58,1.32,1.32,0,0,0-.92-.09.85.85,0,0,0-.57.54.91.91,0,0,0,0,.79A1.32,1.32,0,0,0,119.5,29Z"/>
      <path class="cls-3" d="M123,34.51a2.08,2.08,0,0,1-1.31-1.5A3.91,3.91,0,0,1,122,30.6a4,4,0,0,1,1.49-1.93,2.28,2.28,0,0,1,3.29,1.39,3.89,3.89,0,0,1-.34,2.41,3.91,3.91,0,0,1-1.49,1.92A2.07,2.07,0,0,1,123,34.51Zm.29-.68a1.29,1.29,0,0,0,1.32-.17,3.35,3.35,0,0,0,1.08-1.51,3.45,3.45,0,0,0,.33-1.84,1.26,1.26,0,0,0-.8-1.07,1.28,1.28,0,0,0-1.34.16,3.46,3.46,0,0,0-1.08,1.53,3.42,3.42,0,0,0-.33,1.83A1.29,1.29,0,0,0,123.25,33.83Z"/>
      <path class="cls-3" d="M127.89,36.58a2.44,2.44,0,0,1-1.23-1,1.92,1.92,0,0,1-.19-1.45l.76.17a1.27,1.27,0,0,0,.13,1,1.56,1.56,0,0,0,.8.66,1.26,1.26,0,0,0,1.07,0,1.44,1.44,0,0,0,.75-.8A1.39,1.39,0,0,0,130,34a1.47,1.47,0,0,0-.85-.76,1.56,1.56,0,0,0-1.57.15l-.5-.34,1.78-3,3.1,1.3-.29.67L129.16,31l-1,1.64a2,2,0,0,1,.7-.12,1.94,1.94,0,0,1,.7.14,2.22,2.22,0,0,1,1.23,1.15,2.07,2.07,0,0,1,0,1.65,2.13,2.13,0,0,1-1.16,1.21A2.18,2.18,0,0,1,127.89,36.58Z"/>
    </g>
    <g>
      <path class="cls-3" d="M112.18,43A2.47,2.47,0,0,1,111,41.9a1.9,1.9,0,0,1-.13-1.5l.76.2a1.19,1.19,0,0,0,.09,1,1.72,1.72,0,0,0,1.91.77,1.25,1.25,0,0,0,.73-.73,1.22,1.22,0,0,0,0-1,1.46,1.46,0,0,0-.81-.72,1.37,1.37,0,0,0-.72-.08l-.12-.62,2.6-1L112.47,37l.28-.67,3.71,1.56-.28.65-2.33.92a1.91,1.91,0,0,1,1.25,1,1.84,1.84,0,0,1,0,1.57,1.88,1.88,0,0,1-1.15,1.11A2.4,2.4,0,0,1,112.18,43Z"/>
      <path class="cls-3" d="M116.06,44.51l2-4.86a2.87,2.87,0,0,1-1.65.06l.28-.67a2.75,2.75,0,0,0,1.88-.29l.6.25-2.45,5.81Z"/>
      <path class="cls-3" d="M118.31,44.44l.82.34-.37.87L118,45.3Z"/>
      <path class="cls-3" d="M119.77,46.07a11.59,11.59,0,0,1,4.74-4l-3.26-1.37.28-.67,4,1.7-.28.67c-2.47,1.39-4.06,2.74-4.75,4Z"/>
      <path class="cls-3" d="M127.53,42.43l-1.14,1.45-.9-.38,1.57-1.27Zm1.23.51-1.14,1.46-.91-.39,1.57-1.27Z"/>
    </g>
  </g>
  <g>
    <g>
      <path class="cls-3" d="M171.6,184.75a2.4,2.4,0,0,1-.47,1.52,1.87,1.87,0,0,1-1.26.74l-.14-.76a1.29,1.29,0,0,0,.83-.49,1.63,1.63,0,0,0,.31-1,1.29,1.29,0,0,0-.4-1,1.42,1.42,0,0,0-1-.37,1.37,1.37,0,0,0-1,.39,1.49,1.49,0,0,0-.38,1.07,1.57,1.57,0,0,0,.76,1.4l-.13.59-3.43-.49V183H166v2.75l1.89.27a1.87,1.87,0,0,1-.38-.59,2,2,0,0,1-.14-.7,2.15,2.15,0,0,1,.58-1.58,2,2,0,0,1,1.53-.6,2.09,2.09,0,0,1,1.57.6A2.16,2.16,0,0,1,171.6,184.75Z"/>
      <path class="cls-3" d="M171.53,180.79h-5.27a2.88,2.88,0,0,1,.7,1.49h-.73a2.78,2.78,0,0,0-1-1.62V180h6.3Z"/>
      <path class="cls-3" d="M171.6,176.57a2.09,2.09,0,0,1-.86,1.79,4.72,4.72,0,0,1-4.71,0,2.27,2.27,0,0,1,0-3.57,4.7,4.7,0,0,1,4.7,0A2.08,2.08,0,0,1,171.6,176.57Zm-.73,0a1.29,1.29,0,0,0-.67-1.15,4.24,4.24,0,0,0-3.64,0,1.34,1.34,0,0,0,0,2.32,4.24,4.24,0,0,0,3.64,0A1.3,1.3,0,0,0,170.87,176.57Z"/>
    </g>
    <g>
      <path class="cls-3" d="M183.5,189.63h-.71l-2-2.37a2.44,2.44,0,0,0-1.72-1.05,1.11,1.11,0,0,0-.85.33,1.21,1.21,0,0,0-.31.88,1.23,1.23,0,0,0,.42,1,1.45,1.45,0,0,0,1.13.28l0,.79a2,2,0,0,1-2.23-2.07,2.12,2.12,0,0,1,.51-1.49,1.79,1.79,0,0,1,1.38-.57,2.15,2.15,0,0,1,1.12.34,4.59,4.59,0,0,1,1.16,1.06l1.46,1.71v-3.11h.74Z"/>
      <path class="cls-3" d="M183.57,182.08a2.08,2.08,0,0,1-.87,1.79,4.76,4.76,0,0,1-4.7,0,2.27,2.27,0,0,1,0-3.57,4.7,4.7,0,0,1,4.7,0A2.06,2.06,0,0,1,183.57,182.08Zm-.74,0a1.3,1.3,0,0,0-.66-1.16,4.24,4.24,0,0,0-3.64,0,1.35,1.35,0,0,0,0,2.33,4.27,4.27,0,0,0,3.65,0A1.29,1.29,0,0,0,182.83,182.08Z"/>
      <path class="cls-3" d="M182.56,178.69v-.88h.94v.88Z"/>
      <path class="cls-3" d="M183.5,176.39h-5.27a3,3,0,0,1,.7,1.5h-.73a2.78,2.78,0,0,0-1-1.62v-.65h6.3Z"/>
      <path class="cls-3" d="M177.13,171.82l1.78.49v1l-1.78-1Zm0,1.33,1.78.49v1l-1.78-1Z"/>
    </g>
  </g>
  <g>
    <path class="cls-1" d="M104.11,188a.68.68,0,0,0-.2.18"/>
    <path class="cls-1" d="M103.91,188.17a2.87,2.87,0,0,0-.2.39"/>
    <path class="cls-1" d="M103.72,189.59a.5.5,0,0,0,.2-.18"/>
    <path class="cls-1" d="M102.29,189.74a2.42,2.42,0,0,0,.71,0"/>
    <path class="cls-1" d="M101.25,188.3a1.79,1.79,0,0,1,.2-.39"/>
    <path class="cls-1" d="M103.91,188.17a.23.23,0,0,0,0-.32"/>
    <path class="cls-1" d="M101.48,187.68a1.22,1.22,0,0,1,.21-.69,1.11,1.11,0,0,1,.56-.44"/>
    <path class="cls-1" d="M103.63,189.62l.09,0"/>
    <path class="cls-1" d="M103.13,186.55a1.22,1.22,0,0,1,.75,1.11"/>
    <path class="cls-1" d="M102.25,186.55a1.21,1.21,0,0,1,.88,0"/>
    <path class="cls-1" d="M103.88,187.82l.23.17"/>
    <path class="cls-1" d="M103.71,188.56a2.82,2.82,0,0,0-.71,0"/>
    <path class="cls-1" d="M101.25,188.3a1.25,1.25,0,0,1,.51.1"/>
    <path class="cls-1" d="M101.76,188.4a.84.84,0,0,1-.28-.18.23.23,0,0,1,0-.31"/>
    <path class="cls-1" d="M103.91,188.17a.88.88,0,0,1-.42.26,2.84,2.84,0,0,1-.49.1"/>
    <path class="cls-1" d="M101.82,188.38a.88.88,0,0,1-.21-.12.28.28,0,0,1-.13-.21"/>
    <path class="cls-1" d="M127,189.82a1.56,1.56,0,0,0,.43-.25.55.55,0,0,0,.23-.41"/>
    <path class="cls-1" d="M123.52,188l.31-.11"/>
    <line class="cls-1" x1="127.63" y1="188.72" x2="127.63" y2="189.16"/>
    <line class="cls-1" x1="122.85" y1="189.12" x2="122.85" y2="188.68"/>
    <path class="cls-1" d="M122.85,189.12a.48.48,0,0,0,.07.23,1,1,0,0,0,.22.23l.22.14.28.12a4.23,4.23,0,0,0,1.1.23,5.34,5.34,0,0,0,1.13,0,4.18,4.18,0,0,0,1.1-.25"/>
    <path class="cls-1" d="M127.63,188.72a.54.54,0,0,1-.23.41,2,2,0,0,1-.42.25"/>
    <path class="cls-1" d="M124.35,189.11a3,3,0,0,0,1,.14,2.69,2.69,0,0,0,.93-.17"/>
    <line class="cls-1" x1="126.62" y1="188.39" x2="126.61" y2="188.71"/>
    <line class="cls-1" x1="123.87" y1="188.68" x2="123.87" y2="188.45"/>
    <path class="cls-1" d="M124.24,188.74a.69.69,0,0,1-.34-.27"/>
    <path class="cls-1" d="M126.62,188.39a.3.3,0,0,1-.14.23.84.84,0,0,1-.24.14"/>
    <path class="cls-1" d="M114.61,194.92a2,2,0,0,0,.45-.26.61.61,0,0,0,.25-.44"/>
    <path class="cls-1" d="M111.15,193.06l.27-.1"/>
    <line class="cls-1" x1="115.31" y1="193.77" x2="115.31" y2="194.22"/>
    <line class="cls-1" x1="110.44" y1="194.21" x2="110.44" y2="193.76"/>
    <path class="cls-1" d="M110.44,194.21a.48.48,0,0,0,.07.24.69.69,0,0,0,.22.23,1.07,1.07,0,0,0,.22.15l.28.12a4.31,4.31,0,0,0,1.12.24,6.19,6.19,0,0,0,1.14,0,4.34,4.34,0,0,0,1.12-.26"/>
    <path class="cls-1" d="M115.31,193.77a.61.61,0,0,1-.25.44,1.7,1.7,0,0,1-.45.26"/>
    <path class="cls-1" d="M104.37,190.72a1.58,1.58,0,0,0,.46-.25.62.62,0,0,0,.26-.44"/>
    <path class="cls-1" d="M101,188.92l.23-.08"/>
    <line class="cls-1" x1="105.09" y1="189.59" x2="105.09" y2="190.03"/>
    <line class="cls-1" x1="100.3" y1="190.06" x2="100.3" y2="189.62"/>
    <path class="cls-1" d="M100.3,190.06a.48.48,0,0,0,.07.23,1.2,1.2,0,0,0,.22.23l.22.13a2.36,2.36,0,0,0,.28.12,4.51,4.51,0,0,0,1.08.22,6,6,0,0,0,1.12,0,4.15,4.15,0,0,0,1.08-.26"/>
    <path class="cls-1" d="M105.09,189.59a.62.62,0,0,1-.26.44,2.05,2.05,0,0,1-.46.25"/>
    <path class="cls-1" d="M104.12,188.82a2.27,2.27,0,0,1,.6.26.66.66,0,0,1,.37.51"/>
    <path class="cls-1" d="M103,188.53a3.45,3.45,0,0,0-.72.18"/>
    <path class="cls-1" d="M114.32,192.13a.55.55,0,0,0-.19.18"/>
    <path class="cls-1" d="M114.13,192.31a2.17,2.17,0,0,0-.19.41"/>
    <path class="cls-1" d="M113.94,193.76a.5.5,0,0,0,.19-.19"/>
    <path class="cls-1" d="M112.49,193.92a2.9,2.9,0,0,0,.72,0"/>
    <path class="cls-1" d="M111.42,192.44a2.14,2.14,0,0,1,.2-.4"/>
    <path class="cls-1" d="M111.62,192l0,0"/>
    <path class="cls-1" d="M114.13,192.31a.23.23,0,0,0,0-.31"/>
    <line class="cls-1" x1="124.06" y1="187.13" x2="124.06" y2="186.76"/>
    <path class="cls-1" d="M126.08,188.77l0,0"/>
    <path class="cls-1" d="M126.16,188.74l-.08,0"/>
    <path class="cls-1" d="M124.4,188.75l0,0"/>
    <path class="cls-1" d="M124.4,188.75a2.46,2.46,0,0,0,.6.12,3,3,0,0,0,.6,0"/>
    <line class="cls-1" x1="126.45" y1="186.78" x2="126.45" y2="187.15"/>
    <path class="cls-1" d="M125.6,188.87a2.56,2.56,0,0,0,.48-.1"/>
    <path class="cls-1" d="M124.37,187.5a2.17,2.17,0,0,1,.53.31"/>
    <path class="cls-1" d="M124.9,188.84a1.64,1.64,0,0,1-.5-.09"/>
    <path class="cls-1" d="M124.36,188.73a2.17,2.17,0,0,1-.53-.31"/>
    <line class="cls-1" x1="123.83" y1="188.42" x2="123.84" y2="187.4"/>
    <path class="cls-1" d="M125.6,188.87a2.77,2.77,0,0,0,.57-.13"/>
    <line class="cls-1" x1="124.9" y1="187.81" x2="124.9" y2="188.84"/>
    <path class="cls-1" d="M125.61,187.63a2.85,2.85,0,0,0-.71.18"/>
    <path class="cls-1" d="M126.48,188.51a3.39,3.39,0,0,0,.18-.39"/>
    <line class="cls-1" x1="126.32" y1="187.66" x2="126.31" y2="188.69"/>
    <line class="cls-1" x1="126.66" y1="188.12" x2="126.66" y2="187.09"/>
    <path class="cls-1" d="M113.21,192.69a3.42,3.42,0,0,1-.64,0,2.23,2.23,0,0,1-.62-.14"/>
    <path class="cls-1" d="M101.32,189.61a.32.32,0,0,0,.12.22,1,1,0,0,0,.21.14"/>
    <line class="cls-1" x1="101.76" y1="189.69" x2="101.83" y2="189.66"/>
    <line class="cls-1" x1="101.76" y1="189.69" x2="101.76" y2="190.01"/>
    <path class="cls-1" d="M103.65,189.67a3.05,3.05,0,0,1-1.89,0"/>
    <path class="cls-1" d="M103.65,190a1,1,0,0,0,.27-.15.35.35,0,0,0,.15-.25"/>
    <path class="cls-1" d="M111.48,193.76a.35.35,0,0,0,.12.24.79.79,0,0,0,.23.14"/>
    <line class="cls-1" x1="111.94" y1="193.86" x2="112.01" y2="193.83"/>
    <line class="cls-1" x1="111.83" y1="194.14" x2="111.95" y2="194.1"/>
    <line class="cls-1" x1="111.94" y1="193.86" x2="111.95" y2="194.19"/>
    <path class="cls-1" d="M113.87,193.84a2.9,2.9,0,0,1-1,.17,2.93,2.93,0,0,1-1-.15"/>
    <path class="cls-1" d="M113.87,194.17a1.35,1.35,0,0,0,.26-.15.36.36,0,0,0,.14-.26"/>
    <line class="cls-1" x1="155.84" y1="128.84" x2="68.98" y2="72.99"/>
    <line class="cls-1" x1="108.61" y1="190.04" x2="108.23" y2="98.41"/>
    <line class="cls-1" x1="119.52" y1="105.49" x2="119.35" y2="189.14"/>
    <path class="cls-1" d="M112.41,190.66a1.3,1.3,0,0,1,.91,0"/>
    <path class="cls-1" d="M113.32,190.66a1.25,1.25,0,0,1,.77,1.15"/>
    <line class="cls-1" x1="111.65" y1="192.18" x2="111.65" y2="191.8"/>
    <path class="cls-1" d="M112,193.84l-.09,0"/>
    <path class="cls-1" d="M112.05,193.84a2.85,2.85,0,0,0,1.16.11"/>
    <line class="cls-1" x1="114.09" y1="191.81" x2="114.09" y2="192.18"/>
    <path class="cls-1" d="M111.65,191.8a1.19,1.19,0,0,1,.21-.68,1.23,1.23,0,0,1,.55-.46"/>
    <path class="cls-1" d="M112.49,193.92a1.38,1.38,0,0,1-.45-.08"/>
    <path class="cls-1" d="M112,193.81a2.87,2.87,0,0,1-.53-.32"/>
    <line class="cls-1" x1="111.42" y1="193.49" x2="111.42" y2="192.44"/>
    <path class="cls-1" d="M113.21,194a3,3,0,0,0,.73-.19"/>
    <line class="cls-1" x1="112.48" y1="192.88" x2="112.49" y2="193.92"/>
    <path class="cls-1" d="M114.13,193.57a2.09,2.09,0,0,0,.19-.4"/>
    <line class="cls-1" x1="113.94" y1="192.72" x2="113.94" y2="193.76"/>
    <line class="cls-1" x1="114.32" y1="193.17" x2="114.32" y2="192.13"/>
    <path class="cls-1" d="M104.37,190.28a4.52,4.52,0,0,1-1.35.28,5.83,5.83,0,0,1-1.38-.09,3.1,3.1,0,0,1-.66-.19,1.29,1.29,0,0,1-.33-.17.69.69,0,0,1-.24-.21.43.43,0,0,1,0-.62,1.22,1.22,0,0,1,.25-.2,2.49,2.49,0,0,1,.33-.16"/>
    <path class="cls-1" d="M114.61,194.47a4.35,4.35,0,0,1-1.38.28,6.07,6.07,0,0,1-1.41-.08,3.71,3.71,0,0,1-.67-.2,2.16,2.16,0,0,1-.34-.17,1,1,0,0,1-.25-.22.46.46,0,0,1,0-.64,1.27,1.27,0,0,1,.25-.21,2.06,2.06,0,0,1,.33-.17"/>
    <path class="cls-1" d="M123.87,188.68a.36.36,0,0,0,.13.24.84.84,0,0,0,.24.14"/>
    <line class="cls-1" x1="124.24" y1="189.06" x2="124.24" y2="188.74"/>
    <line class="cls-1" x1="124.24" y1="189.06" x2="124.35" y2="189.01"/>
    <line class="cls-1" x1="124.36" y1="188.78" x2="124.35" y2="189.11"/>
    <path class="cls-1" d="M126.24,188.76a2.55,2.55,0,0,1-.94.16,3,3,0,0,1-.94-.14"/>
    <path class="cls-1" d="M126.23,189.08a1,1,0,0,0,.25-.13.32.32,0,0,0,.13-.24"/>
    <path class="cls-1" d="M127,189.38a4.76,4.76,0,0,1-1.35.27,5.71,5.71,0,0,1-1.37-.09,3.57,3.57,0,0,1-.66-.18l-.34-.16a1.22,1.22,0,0,1-.25-.2.43.43,0,0,1-.05-.62.93.93,0,0,1,.23-.21,2.06,2.06,0,0,1,.33-.17"/>
    <path class="cls-1" d="M126.66,187.94a2.3,2.3,0,0,1,.6.27.87.87,0,0,1,.25.21.49.49,0,0,1,.12.3"/>
    <line class="cls-1" x1="101.48" y1="188.05" x2="101.48" y2="187.68"/>
    <path class="cls-1" d="M103.53,189.66l0,0"/>
    <path class="cls-1" d="M103.63,189.62l-.1,0"/>
    <path class="cls-1" d="M101.86,189.67l-.09,0"/>
    <path class="cls-1" d="M101.86,189.67a2.74,2.74,0,0,0,.57.11,3.62,3.62,0,0,0,.57,0"/>
    <path class="cls-1" d="M114.09,192l.23.17"/>
    <line class="cls-1" x1="103.88" y1="187.66" x2="103.88" y2="188.03"/>
    <path class="cls-1" d="M103,188.53a3.32,3.32,0,0,1-.63,0,2.16,2.16,0,0,1-.61-.14"/>
    <path class="cls-1" d="M101.48,187.87l0,0"/>
    <path class="cls-1" d="M103,189.77a2.38,2.38,0,0,0,.53-.11"/>
    <path class="cls-1" d="M101.45,187.91l0,0"/>
    <path class="cls-1" d="M101.76,188.4a2.47,2.47,0,0,1,.52.31"/>
    <path class="cls-1" d="M102.29,189.74a1.25,1.25,0,0,1-.43-.07"/>
    <path class="cls-1" d="M101.77,189.64a2.29,2.29,0,0,1-.51-.32"/>
    <line class="cls-1" x1="101.26" y1="189.32" x2="101.25" y2="188.3"/>
    <path class="cls-1" d="M103,189.77a2.23,2.23,0,0,0,.63-.15"/>
    <line class="cls-1" x1="102.28" y1="188.71" x2="102.29" y2="189.74"/>
    <path class="cls-1" d="M103.92,189.41a2.05,2.05,0,0,0,.2-.39"/>
    <line class="cls-1" x1="103.71" y1="188.56" x2="103.72" y2="189.59"/>
    <line class="cls-1" x1="104.12" y1="189.02" x2="104.11" y2="187.99"/>
    <path class="cls-1" d="M101.82,188.38a2.08,2.08,0,0,0,.55.12,3.51,3.51,0,0,0,.56,0,2.66,2.66,0,0,0,.56-.12,1,1,0,0,0,.25-.13l.11-.11a.27.27,0,0,0,0-.12"/>
    <path class="cls-1" d="M111.65,192l0,0"/>
    <path class="cls-1" d="M127,188.06l1.6.63"/>
    <line class="cls-1" x1="101.72" y1="189.61" x2="101.65" y2="189.64"/>
    <path class="cls-1" d="M104.05,189.18a.29.29,0,0,1,0,.09"/>
    <line class="cls-1" x1="111.9" y1="193.79" x2="111.83" y2="193.81"/>
    <path class="cls-1" d="M114.25,193.34a.16.16,0,0,1,0,.1"/>
    <path class="cls-1" d="M103.88,187.79l4.71-1.85"/>
    <line class="cls-1" x1="111.72" y1="191.41" x2="108.79" y2="190.22"/>
    <line class="cls-1" x1="124.31" y1="188.71" x2="124.24" y2="188.74"/>
    <path class="cls-1" d="M126.59,188.29a.17.17,0,0,1,0,.1"/>
    <path class="cls-1" d="M112,192.53a2.1,2.1,0,0,0,.55.13,2.81,2.81,0,0,0,.58,0,2.07,2.07,0,0,0,.55-.11,1.3,1.3,0,0,0,.26-.14l.11-.11a.27.27,0,0,0,0-.12"/>
    <path class="cls-1" d="M113.94,192.72a2.54,2.54,0,0,0-.73,0"/>
    <path class="cls-1" d="M126.49,187.27a.76.76,0,0,1-.4.26,2.56,2.56,0,0,1-.48.1"/>
    <path class="cls-1" d="M126.32,187.66a2.42,2.42,0,0,0-.71,0"/>
    <path class="cls-1" d="M124.42,187.48a2.48,2.48,0,0,0,.54.12,3.47,3.47,0,0,0,.56,0,2.59,2.59,0,0,0,.54-.11,1.08,1.08,0,0,0,.24-.12.38.38,0,0,0,.11-.11.28.28,0,0,0,0-.12"/>
    <path class="cls-1" d="M111.42,192.44a1.57,1.57,0,0,1,.53.11"/>
    <line class="cls-1" x1="124.4" y1="188.75" x2="124.4" y2="188.75"/>
    <path class="cls-1" d="M124.06,187l0,.06"/>
    <path class="cls-1" d="M126.45,186.94l.21.15"/>
    <path class="cls-1" d="M126.66,187.93l.12,0"/>
    <path class="cls-1" d="M124.42,187.48a1.71,1.71,0,0,1-.23-.13.29.29,0,0,1-.13-.22"/>
    <path class="cls-1" d="M125.61,187.63a3.31,3.31,0,0,1-.63,0,2.55,2.55,0,0,1-.61-.13"/>
    <path class="cls-1" d="M124.37,187.5a.92.92,0,0,1-.3-.18A.24.24,0,0,1,124,187"/>
    <path class="cls-1" d="M123.84,187.4a1.42,1.42,0,0,1,.53.1"/>
    <path class="cls-1" d="M124.8,185.66a1.17,1.17,0,0,1,.88,0"/>
    <path class="cls-1" d="M125.68,185.65a1.24,1.24,0,0,1,.56.45,1.19,1.19,0,0,1,.21.68"/>
    <path class="cls-1" d="M126.17,188.74l.14-.05"/>
    <path class="cls-1" d="M124.06,186.76a1.19,1.19,0,0,1,.74-1.1"/>
    <path class="cls-1" d="M126.49,187.27a.22.22,0,0,0,0-.29"/>
    <path class="cls-1" d="M124,187l0-.07"/>
    <path class="cls-1" d="M123.84,187.4A1.71,1.71,0,0,1,124,187"/>
    <path class="cls-1" d="M124.9,188.84a2.72,2.72,0,0,0,.7,0"/>
    <path class="cls-1" d="M126.31,188.69a.48.48,0,0,0,.17-.18"/>
    <path class="cls-1" d="M126.49,187.27a1.92,1.92,0,0,0-.17.39"/>
    <path class="cls-1" d="M126.66,187.09a.49.49,0,0,0-.17.18"/>
    <path class="cls-1" d="M112,192.55a.8.8,0,0,1-.3-.19.24.24,0,0,1,0-.32"/>
    <path class="cls-1" d="M114.13,192.31a.77.77,0,0,1-.42.27,2.13,2.13,0,0,1-.5.11"/>
    <line class="cls-1" x1="101.65" y1="189.97" x2="101.65" y2="189.64"/>
    <path class="cls-1" d="M112,192.53a1,1,0,0,1-.23-.13.32.32,0,0,1-.13-.22"/>
    <line class="cls-1" x1="111.83" y1="194.14" x2="111.83" y2="193.81"/>
    <path class="cls-1" d="M113,101.32a1.5,1.5,0,0,1-.8-.21"/>
    <path class="cls-1" d="M157.88,128l-1.68.69"/>
    <line class="cls-1" x1="158.09" y1="128.12" x2="155.98" y2="128.81"/>
    <path class="cls-1" d="M114.32,193a2.67,2.67,0,0,1,.62.28.69.69,0,0,1,.37.53"/>
    <line class="cls-1" x1="124.36" y1="188.78" x2="124.42" y2="188.76"/>
    <path class="cls-1" d="M113.21,192.69a3.14,3.14,0,0,0-.73.19"/>
    <path class="cls-1" d="M112,192.55a2.24,2.24,0,0,1,.53.33"/>
    <path class="cls-1" d="M119.17,189.32a.41.41,0,0,0,.11-.07s.07-.06.07-.11"/>
    <line class="cls-1" x1="119.17" y1="189.32" x2="114.03" y2="191.41"/>
    <path class="cls-1" d="M108.43,98.66l-.13-.1a.26.26,0,0,1-.07-.15"/>
    <path class="cls-1" d="M99.34,189.58l1.92-.75"/>
    <path class="cls-1" d="M128.59,188.69a1.1,1.1,0,0,1,.32.17.4.4,0,0,1,.18.3"/>
    <path class="cls-1" d="M128.64,190.76,114,196.83"/>
    <path class="cls-1" d="M114,195.63a3.08,3.08,0,0,1-1.16.2,3,3,0,0,1-1.15-.2"/>
    <path class="cls-1" d="M114,196.83a3.08,3.08,0,0,1-1.16.2,3,3,0,0,1-1.15-.2"/>
    <path class="cls-1" d="M111.73,196.83,99.3,191.67"/>
    <path class="cls-1" d="M104.07,189.27a.37.37,0,0,1-.15.25,1.43,1.43,0,0,1-.27.15"/>
    <path class="cls-1" d="M101.65,189.64a.63.63,0,0,1-.31-.25"/>
    <line class="cls-1" x1="101.32" y1="189.61" x2="101.32" y2="189.37"/>
    <line class="cls-1" x1="104.07" y1="189.27" x2="104.07" y2="189.59"/>
    <line class="cls-1" x1="101.65" y1="189.97" x2="101.76" y2="189.92"/>
    <path class="cls-1" d="M101.76,190a2.58,2.58,0,0,0,.95.14,2.73,2.73,0,0,0,.94-.16"/>
    <path class="cls-1" d="M114.27,193.44a.35.35,0,0,1-.14.25,1.35,1.35,0,0,1-.26.15"/>
    <path class="cls-1" d="M111.83,193.81a.7.7,0,0,1-.33-.26"/>
    <line class="cls-1" x1="111.48" y1="193.76" x2="111.48" y2="193.53"/>
    <line class="cls-1" x1="114.27" y1="193.44" x2="114.27" y2="193.76"/>
    <path class="cls-1" d="M112,194.19a3,3,0,0,0,1.92,0"/>
    <path class="cls-1" d="M155.84,128.84h0l0,0,0,0,.09,0,.19-.08"/>
    <path class="cls-1" d="M111.73,195.63l-12.44-5.14"/>
    <path class="cls-1" d="M128.65,189.59l-14.61,6"/>
    <path class="cls-1" d="M108.43,98.66l3.81,2.45"/>
    <path class="cls-1" d="M119.36,185.08l4.7,1.84"/>
    <path class="cls-1" d="M98.84,190.06a.4.4,0,0,1,.18-.3,1.26,1.26,0,0,1,.32-.18"/>
    <line class="cls-1" x1="98.86" y1="191.23" x2="98.84" y2="190.06"/>
    <path class="cls-1" d="M129.08,190.33a.37.37,0,0,1-.16.27,1,1,0,0,1-.28.16"/>
    <path class="cls-1" d="M129.09,189.16a.38.38,0,0,1-.16.27,1,1,0,0,1-.28.16"/>
    <line class="cls-1" x1="129.09" y1="189.16" x2="129.08" y2="190.33"/>
    <path class="cls-1" d="M108.23,98.41a.17.17,0,0,1,.08-.13"/>
    <path class="cls-1" d="M108.61,190a.17.17,0,0,0,.06.12.67.67,0,0,0,.12.06"/>
    <path class="cls-1" d="M156,128.81l-.07,0h-.07"/>
    <path class="cls-1" d="M68.5,72.33c-.24-.68-.49-1.35-.74-2"/>
    <path class="cls-1" d="M68.5,72.33a2.58,2.58,0,0,0,.19.37A1.33,1.33,0,0,0,69,73"/>
    <path class="cls-1" d="M99.3,191.67a1.18,1.18,0,0,1-.29-.16.37.37,0,0,1-.15-.28"/>
    <path class="cls-1" d="M99.29,190.49a1.18,1.18,0,0,1-.29-.16.4.4,0,0,1-.16-.27"/>
    <path class="cls-1" d="M101.48,187.68a.28.28,0,0,0,.12.21.94.94,0,0,0,.22.12"/>
    <path class="cls-1" d="M114.09,191.81a.32.32,0,0,1-.12.22,1,1,0,0,1-.23.12"/>
    <path class="cls-1" d="M111.65,191.8a.27.27,0,0,0,.13.22.76.76,0,0,0,.23.13"/>
    <line class="cls-1" x1="103.65" y1="189.67" x2="103.65" y2="189.99"/>
    <path class="cls-1" d="M124.43,187.11a2.39,2.39,0,0,0,.84.14,2.45,2.45,0,0,0,.85-.14"/>
    <path class="cls-1" d="M124.06,186.76a.32.32,0,0,0,.13.22,1.12,1.12,0,0,0,.24.13"/>
    <path class="cls-1" d="M126.45,186.78a.28.28,0,0,1-.12.21.88.88,0,0,1-.21.12"/>
    <path class="cls-1" d="M112,192.15a2.57,2.57,0,0,0,1.73,0"/>
    <path class="cls-1" d="M101.82,188a2.45,2.45,0,0,0,.85.14,2.49,2.49,0,0,0,.85-.14"/>
    <path class="cls-1" d="M103.88,187.66a.32.32,0,0,1-.13.22,1,1,0,0,1-.23.13"/>
    <line class="cls-1" x1="112.89" y1="195.83" x2="112.89" y2="197.03"/>
    <line class="cls-1" x1="112.85" y1="190.56" x2="112.73" y2="101.32"/>
    <line class="cls-1" x1="65.63" y1="68.94" x2="158.38" y2="128.31"/>
    <path class="cls-1" d="M158.72,127.05a5.2,5.2,0,0,0,1.82.71,4.6,4.6,0,0,0,1,.11,3.24,3.24,0,0,0,1-.13"/>
    <line class="cls-1" x1="65.83" y1="67.79" x2="158.72" y2="127.05"/>
    <path class="cls-1" d="M65.29,67a.57.57,0,0,0,.16.45,2.24,2.24,0,0,0,.38.31"/>
    <path class="cls-1" d="M168.33,125.83a1.69,1.69,0,0,0,.38-.19.71.71,0,0,0,.25-.34"/>
    <path class="cls-1" d="M169,125.3a.64.64,0,0,0,0-.41,1.15,1.15,0,0,0-.22-.35,2.92,2.92,0,0,0-.64-.52"/>
    <line class="cls-1" x1="168.96" y1="125.3" x2="168.61" y2="126.53"/>
    <path class="cls-1" d="M65.1,68.18a.57.57,0,0,0,.16.45,1.85,1.85,0,0,0,.37.31"/>
    <line class="cls-1" x1="65.1" y1="68.18" x2="65.29" y2="67.03"/>
    <line class="cls-1" x1="72.07" y1="65.38" x2="66.13" y2="66.49"/>
    <path class="cls-1" d="M75.34,66a3.8,3.8,0,0,0-.77-.35,4.5,4.5,0,0,0-.82-.22,5.83,5.83,0,0,0-.84-.09,4,4,0,0,0-.84,0"/>
    <line class="cls-1" x1="168.07" y1="124.02" x2="75.34" y2="65.99"/>
    <line class="cls-1" x1="162.49" y1="127.74" x2="168.33" y2="125.83"/>
    <path class="cls-1" d="M66.13,66.49a1.72,1.72,0,0,0-.5.16.58.58,0,0,0-.34.38"/>
    <path class="cls-1" d="M158.38,128.31a5.38,5.38,0,0,0,1.82.7,4.58,4.58,0,0,0,1,.11,3.16,3.16,0,0,0,1-.13"/>
    <path class="cls-1" d="M168,127.06a1,1,0,0,0,.38-.19.58.58,0,0,0,.25-.34"/>
    <line class="cls-1" x1="162.14" y1="128.99" x2="167.98" y2="127.06"/>
    <line class="cls-1" x1="160.54" y1="127.76" x2="160.2" y2="129.01"/>
    <path class="cls-1" d="M162.49,121.8a1.23,1.23,0,0,0,.26-.12.48.48,0,0,0,.17-.23"/>
    <path class="cls-1" d="M78,67.81a3.55,3.55,0,0,0-2.19-.41"/>
    <line class="cls-1" x1="162.34" y1="120.62" x2="77.98" y2="67.81"/>
    <line class="cls-1" x1="157.8" y1="123.29" x2="162.49" y2="121.8"/>
    <path class="cls-1" d="M155.31,122.83a3.54,3.54,0,0,0,1.2.47,3.59,3.59,0,0,0,.65.07,2.29,2.29,0,0,0,.64-.08"/>
    <line class="cls-1" x1="70.85" y1="69.18" x2="155.31" y2="122.83"/>
    <path class="cls-1" d="M71,68.31a1,1,0,0,0-.33.11.39.39,0,0,0-.22.25"/>
    <line class="cls-1" x1="75.79" y1="67.4" x2="71.03" y2="68.31"/>
    <line class="cls-1" x1="70.72" y1="69.91" x2="155.1" y2="123.61"/>
    <path class="cls-1" d="M155.1,123.61a3.59,3.59,0,0,0,1.21.47,3.48,3.48,0,0,0,.64.07,2.29,2.29,0,0,0,.64-.08"/>
    <line class="cls-1" x1="157.59" y1="124.07" x2="162.28" y2="122.58"/>
    <path class="cls-1" d="M162.28,122.58a.91.91,0,0,0,.26-.13.44.44,0,0,0,.17-.23"/>
    <line class="cls-1" x1="70.35" y1="69.39" x2="70.48" y2="68.67"/>
    <path class="cls-1" d="M70.35,69.39a.39.39,0,0,0,.12.31,1.27,1.27,0,0,0,.25.21"/>
    <path class="cls-1" d="M162.92,121.45a.55.55,0,0,0-.17-.49,1.49,1.49,0,0,0-.41-.34"/>
    <line class="cls-1" x1="162.92" y1="121.45" x2="162.71" y2="122.22"/>
    <path class="cls-1" d="M70.48,68.67a.38.38,0,0,0,.11.3,1,1,0,0,0,.26.21"/>
    <line class="cls-1" x1="156.18" y1="124.05" x2="156.39" y2="123.27"/>
  </g>
  <path class="cls-1" d="M169.62,57,74.49,17.07"/>
</svg>