<svg class="ad-draw-svg" preserveAspectRatio="xMidYMid meet" id="Vrstva_1" data-name="Vrstva 1" xmlns="http://www.w3.org/2000/svg" viewBox="0 0 226.77 226.77">
  <defs>
    <style>
      .cls-1 {
        fill: #020303;
        stroke: #020303;
        stroke-miterlimit: 10;
      }

      .cls-1, .cls-2 {
        stroke-width:.7px;
      }

      .cls-3 {
        fill: #1e1e1c;
      }

      .cls-3, .cls-4 {
        stroke-width: 0px;
      }

      .cls-4 {
        fill: #1d1d1b;
      }

      .cls-2 {
        fill: none;
        stroke: #010101;
        stroke-linecap: round;
        stroke-linejoin: round;
      }
    
.cls-1{stroke:#ffffff;fill:#ffffff}
.cls-2{stroke:#ffffff}
.cls-3{fill:#ffffff}
.cls-4{fill:#ffffff}
</style>
  </defs>
  <path class="cls-2" d="m27.37,95.34c12.26,6.75,24.53,13.5,36.79,20.25"/>
  <path class="cls-2" d="m178.71,127.69c11.71,6.44,23.42,12.89,35.13,19.33"/>
  <path class="cls-2" d="m117.83,145.82c11.68,6.44,23.37,12.88,35.05,19.32"/>
  <path class="cls-2" d="m15.71,132.18c15.79-4.59,31.57-9.17,47.36-13.76"/>
  <path class="cls-2" d="m64.62,159.77c15.93-4.62,31.86-9.25,47.8-13.87"/>
  <path class="cls-2" d="m20.25,130.93c16.47,9.12,32.94,18.23,49.42,27.35"/>
  <path class="cls-2" d="m148.59,162.74c20.44-5.94,40.88-11.89,61.33-17.83"/>
  <line class="cls-2" x1="31.11" y1="97.39" x2="31.11" y2="16.93"/>
  <path class="cls-2" d="m27.11,14.5c13.82,7.6,27.63,15.21,41.45,22.81"/>
  <polyline class="cls-1" points="31.09 16.77 32.48 22.31 29.71 22.31 31.09 16.77"/>
  <polyline class="cls-1" points="31.13 97.35 29.74 91.81 32.51 91.81 31.13 97.35"/>
  <polyline class="cls-1" points="20.23 130.94 25.76 132.35 24.44 134.79 20.23 130.94"/>
  <polyline class="cls-1" points="69.77 158.25 64.24 156.83 65.56 154.4 69.77 158.25"/>
  <polyline class="cls-1" points="148.53 162.67 153.5 159.86 154.23 162.53 148.53 162.67"/>
  <polyline class="cls-1" points="209.91 144.9 204.93 147.71 204.2 145.04 209.91 144.9"/>
  <g>
    <g>
      <path class="cls-3" d="m40.42,65.42c.02.56-.16,1.1-.5,1.54-.32.41-.8.67-1.32.71l-.11-.77c.34-.04.65-.2.87-.47.22-.29.33-.64.32-1,0-.37-.12-.72-.36-1-.54-.51-1.37-.51-1.91,0-.23.28-.35.64-.34,1,0,.24.07.48.2.69l-.52.35-2-2v3.06h-.73v-4h.73l1.74,1.79c-.07-.55.09-1.1.44-1.53.37-.41.9-.63,1.45-.6.56-.02,1.1.21,1.47.63.38.45.58,1.02.57,1.6Z"/>
      <path class="cls-3" d="m40.35,62.58h-.71l-2-2.37c-.4-.58-1.02-.96-1.72-1.05-.32-.01-.62.1-.85.32-.46.56-.42,1.39.11,1.89.32.24.73.34,1.13.28l-.05.79c-1.1.13-2.09-.66-2.22-1.75-.01-.11-.02-.22-.01-.33-.03-.54.16-1.08.51-1.49.36-.37.86-.58,1.38-.56.4,0,.78.12,1.12.33.42.29.8.65,1.11,1.06l1.46,1.71v-3.1h.74v4.27Z"/>
      <path class="cls-3" d="m39.41,57.19v-.89h.94v.89h-.94Z"/>
      <path class="cls-3" d="m40.42,53.21c.02.56-.16,1.1-.5,1.54-.32.41-.8.67-1.32.71l-.11-.78c.34-.03.66-.19.87-.46.22-.29.33-.64.32-1,0-.37-.12-.72-.36-1-.54-.51-1.37-.51-1.91,0-.23.28-.36.64-.34,1,0,.25.07.49.2.7l-.52.35-2-2v3.06h-.73v-4h.73l1.74,1.8c-.07-.55.09-1.1.44-1.53.37-.41.9-.63,1.45-.6.56-.02,1.1.21,1.47.63.37.44.58,1,.57,1.58Z"/>
      <path class="cls-3" d="m33.98,47.42l1.78.49v1l-1.78-1v-.49Zm0,1.33l1.78.49v1l-1.78-1v-.49Z"/>
    </g>
    <g>
      <path class="cls-3" d="m28.4,62.8c.03.59-.15,1.17-.52,1.64-.33.41-.83.64-1.36.62-.36,0-.71-.11-1-.32-.28-.22-.49-.53-.6-.87-.11.28-.3.51-.55.68-.22.16-.49.25-.77.25-.46.01-.9-.19-1.2-.54-.32-.42-.48-.93-.46-1.46-.02-.51.14-1.02.46-1.42.3-.35.74-.55,1.2-.54.28,0,.55.09.78.25.24.17.43.41.54.68.11-.34.32-.64.6-.86.29-.22.64-.34,1-.33.52-.01,1.03.21,1.36.62.36.45.54,1.02.52,1.6Zm-3.77,0c.01-.3-.08-.6-.27-.83-.18-.2-.44-.32-.72-.33-.27-.01-.54.1-.72.31-.19.24-.28.54-.27.85-.02.32.08.63.27.89.18.21.44.33.72.31.28,0,.54-.13.72-.33.19-.25.29-.56.27-.87Zm3.06,0c.01-.36-.11-.72-.33-1-.21-.25-.52-.39-.85-.38-.33,0-.65.13-.86.38-.22.29-.33.64-.32,1,0,.36.1.71.32,1,.21.26.53.4.86.39.33.02.65-.13.85-.39.22-.28.34-.63.33-.99h0Z"/>
      <path class="cls-3" d="m28.32,60.15h-.71l-2-2.37c-.4-.6-1.05-1-1.77-1.08-.31-.01-.62.11-.84.33-.22.23-.34.55-.32.87-.02.38.14.75.43,1,.32.25.73.35,1.13.28l-.06.79c-1.1.13-2.09-.66-2.22-1.75-.01-.11-.02-.22-.01-.33-.02-.54.16-1.08.52-1.49.35-.38.85-.58,1.37-.56.4,0,.79.12,1.13.33.44.3.83.66,1.16,1.07l1.46,1.71v-3.06h.73v4.26Z"/>
      <path class="cls-3" d="m28.4,52.6c.04.7-.29,1.38-.87,1.78-1.46.84-3.25.84-4.71,0-.98-.76-1.16-2.17-.4-3.16.12-.15.25-.29.4-.4,1.45-.84,3.24-.84,4.69,0,.59.39.93,1.07.89,1.78Zm-.74,0c.01-.48-.25-.93-.67-1.16-.56-.3-1.19-.44-1.82-.41-.63-.03-1.26.11-1.82.41-.42.23-.68.68-.67,1.16-.02.49.24.94.67,1.17,1.15.53,2.49.53,3.64,0,.43-.23.69-.68.67-1.17Z"/>
    </g>
  </g>
  <g>
    <g>
      <path class="cls-3" d="m173.09,148.27c.56-.18,1.18-.13,1.7.14.51.28.88.75,1.02,1.31.19.54.13,1.14-.15,1.65-.32.51-.82.88-1.41,1.03-.63.2-1.32.1-1.85-.29-.6-.45-1.02-1.1-1.19-1.83-.31-.89-.29-1.87.04-2.75.34-.74.99-1.28,1.77-1.48.59-.18,1.23-.16,1.81.07l-.22.73c-.44-.2-.94-.24-1.4-.1-.56.15-1.02.54-1.27,1.06-.27.56-.32,1.2-.14,1.8.07-.32.22-.61.44-.85.23-.23.52-.4.84-.49Zm-.18,3.33c.33.18.71.22,1.07.11.36-.1.67-.33.85-.66.18-.33.22-.71.12-1.07-.1-.36-.33-.67-.66-.85-.33-.17-.71-.21-1.07-.11-.36.1-.67.34-.85.66-.19.33-.23.72-.12,1.07.1.36.33.67.66.85h0Z"/>
      <path class="cls-3" d="m177.55,151.38c-.19-2.11.21-4.23,1.16-6.13l-3.4.97-.2-.7,4.21-1.21.21.73c-1.06,2.63-1.44,4.68-1.17,6.13l-.81.2Z"/>
      <path class="cls-3" d="m183.76,149.67c-.67.23-1.4.1-1.95-.35-1.21-1.17-1.7-2.89-1.29-4.52.23-.67.79-1.17,1.47-1.33.65-.21,1.36-.1,1.91.32,1.21,1.17,1.7,2.89,1.29,4.52-.22.66-.76,1.17-1.43,1.36Zm-.2-.71c.46-.12.82-.49.93-.95.21-1.26-.16-2.54-1-3.5-.34-.34-.84-.47-1.3-.32-.47.12-.83.49-.94.96-.19,1.26.17,2.54,1,3.51.34.34.85.46,1.31.31Z"/>
    </g>
    <g>
      <path class="cls-3" d="m172.58,165.32l-.2-.69,1.73-2.58c.43-.55.61-1.25.49-1.94-.07-.31-.27-.57-.55-.72-.29-.15-.63-.17-.93-.07-.37.09-.68.34-.84.69-.15.38-.14.8.04,1.16l-.77.22c-.22-.55-.21-1.16.04-1.7.28-.52.77-.89,1.34-1.03.52-.17,1.08-.14,1.58.09.46.23.8.66.93,1.16.1.39.1.8-.02,1.18-.16.5-.39.98-.7,1.41l-1.24,1.87,2.99-.86.2.71-4.08,1.08Z"/>
      <path class="cls-3" d="m178.49,159.22c.57-.18,1.18-.13,1.71.15.51.27.88.75,1.02,1.31.18.55.11,1.16-.19,1.66-.31.52-.82.89-1.41,1.04-.63.2-1.32.09-1.85-.29-.6-.45-1.02-1.1-1.19-1.83-.32-.89-.3-1.87.04-2.75.33-.74.99-1.28,1.77-1.48.6-.18,1.24-.15,1.81.08l-.22.73c-.43-.21-.93-.25-1.39-.11-.56.15-1.03.54-1.28,1.06-.27.56-.32,1.21-.14,1.81.06-.32.22-.61.44-.85.24-.25.54-.42.87-.52Zm-.18,3.33c.33.18.71.22,1.07.12.36-.1.67-.34.85-.67.18-.33.23-.71.13-1.08-.1-.36-.34-.67-.67-.85-.33-.17-.71-.21-1.07-.11-.36.1-.67.34-.85.66-.37.7-.12,1.57.56,1.97l-.02-.05Z"/>
      <path class="cls-3" d="m182.44,161.51l.85-.24.26.9-.85.24-.26-.9Z"/>
      <path class="cls-3" d="m187.17,161.14l-.43-1.51-3.19.91-.2-.71,1.97-4.73.9-.26,1.1,3.85.87-.25.2.71-.87.25.42,1.48-.78.25Zm-2.97-1.52l2.35-.67-.85-2.97-1.49,3.64Z"/>
      <path class="cls-3" d="m189.06,153.96l.03,1.85-.96.28.47-2,.46-.13Zm1.28-.37l.03,1.87-.96.28.42-1.98.51-.17Z"/>
    </g>
  </g>
  <g>
    <g>
      <path class="cls-4" d="m40.81,138.88c.94-1.33,2.64-2.52,5.12-3.56l-3.11-1.69.35-.64,3.85,2.09-.35.64c-2.6,1.14-4.31,2.32-5.13,3.55l-.74-.4Z"/>
      <path class="cls-4" d="m46.21,141.89c-.53-.29-.9-.67-1.11-1.14-.21-.47-.23-.96-.05-1.47l.74.25c-.11.33-.1.66.04.96s.38.55.73.74c.37.2.73.25,1.07.14.34-.11.62-.35.82-.73.21-.38.26-.75.15-1.1-.11-.35-.36-.63-.76-.85-.53-.29-1.06-.29-1.59,0l-.46-.39,2.07-2.78,2.95,1.6-.35.64-2.42-1.32-1.14,1.53c.22-.06.45-.08.71-.05.25.03.48.1.68.21.57.31.94.73,1.11,1.27.17.53.1,1.07-.21,1.63-.31.57-.74.94-1.28,1.09-.54.15-1.1.07-1.69-.25Z"/>
      <path class="cls-4" d="m50.91,144.45c-.68-.37-1.06-.91-1.15-1.62s.1-1.5.58-2.37c.47-.87,1.03-1.46,1.67-1.77.64-.31,1.3-.28,1.98.09.67.37,1.06.91,1.15,1.62.09.71-.1,1.5-.57,2.37s-1.03,1.45-1.68,1.76c-.65.31-1.31.28-1.98-.08Zm.35-.65c.44.24.88.23,1.33-.03s.86-.73,1.23-1.4c.37-.67.54-1.27.51-1.8-.03-.52-.26-.9-.7-1.14-.45-.24-.9-.23-1.35.03-.45.26-.86.73-1.23,1.41-.37.68-.54,1.27-.51,1.79.02.52.26.9.71,1.14Z"/>
    </g>
    <g>
      <path class="cls-4" d="m31.83,148l.33-.63,3.06-.66c.91-.2,1.49-.54,1.75-1.01.17-.31.21-.61.12-.9-.09-.29-.3-.52-.62-.7-.38-.21-.75-.24-1.09-.11-.34.14-.6.42-.78.86l-.67-.43c.27-.6.68-.99,1.22-1.17.54-.18,1.1-.11,1.68.21.54.29.9.68,1.06,1.17.16.48.11.97-.16,1.47-.18.34-.46.61-.83.83-.37.22-.87.39-1.49.51l-2.2.46,2.73,1.48-.35.65-3.74-2.04Z"/>
      <path class="cls-4" d="m39.24,149.66c-.57-.31-.94-.74-1.11-1.29-.17-.55-.11-1.1.19-1.65.3-.55.74-.9,1.3-1.05.57-.15,1.15-.06,1.73.26.62.33.99.84,1.11,1.5.13.67-.02,1.38-.44,2.15-.54.99-1.19,1.63-1.96,1.92-.77.29-1.54.23-2.3-.19-.58-.32-.99-.76-1.23-1.33l.67-.36c.17.46.48.81.93,1.05.53.29,1.08.34,1.65.14.57-.2,1.02-.59,1.36-1.19-.26.18-.57.28-.91.29-.34,0-.67-.07-.98-.24Zm2.47-2.25c-.11-.37-.35-.66-.72-.86-.37-.2-.74-.25-1.11-.13-.37.11-.65.35-.86.71-.2.36-.24.73-.13,1.09.11.37.35.65.72.85.37.2.74.25,1.1.14.37-.1.65-.34.85-.7.2-.37.25-.74.14-1.11Z"/>
      <path class="cls-4" d="m41.32,152.1l.77.42-.45.82-.78-.42.45-.82Z"/>
      <path class="cls-4" d="m46.65,151.25c.57.31.94.74,1.12,1.29.17.55.11,1.1-.19,1.65-.3.55-.74.9-1.31,1.05-.57.15-1.15.06-1.73-.26-.62-.33-.99-.84-1.11-1.5-.13-.67.02-1.38.43-2.15.54-.99,1.19-1.63,1.96-1.92.77-.29,1.54-.23,2.3.19.58.32.99.76,1.23,1.33l-.67.36c-.18-.46-.48-.82-.92-1.05-.53-.29-1.08-.33-1.65-.14-.57.2-1.02.6-1.36,1.19.26-.18.57-.28.91-.29.34,0,.67.07.98.24Zm-2.47,2.25c.11.37.35.65.72.85.37.2.74.25,1.1.14.37-.11.65-.34.86-.71.2-.36.24-.73.13-1.09-.11-.37-.35-.65-.72-.85-.37-.2-.74-.25-1.1-.14-.37.1-.65.34-.85.7-.2.37-.25.74-.13,1.1Z"/>
      <path class="cls-4" d="m51.56,151.48l-1.28,1.33-.86-.47,1.69-1.11.45.25Zm1.17.64l-1.28,1.33-.87-.47,1.69-1.11.46.25Z"/>
    </g>
  </g>
  <g>
    <line class="cls-2" x1="131.28" y1="102.06" x2="131.99" y2="101.85"/>
    <line class="cls-2" x1="127.61" y1="100.04" x2="131.28" y2="102.06"/>
    <line class="cls-2" x1="72.76" y1="119.06" x2="73.46" y2="118.85"/>
    <line class="cls-2" x1="169.66" y1="123.75" x2="170.14" y2="124.31"/>
    <line class="cls-2" x1="115.73" y1="139.41" x2="116.21" y2="139.97"/>
    <path class="cls-2" d="m72.76,119.06c-1.45-.8-2.91-1.6-4.36-2.4"/>
    <path class="cls-2" d="m73.46,118.85c4.06-9.67,8.11-19.33,12.17-29"/>
    <path class="cls-2" d="m85.24,89.3c-4.16,9.92-8.33,19.84-12.49,29.75"/>
    <path class="cls-2" d="m113.51,96.21c-7.09-2.5-14.17-5.01-21.26-7.51"/>
    <path class="cls-2" d="m91.54,88.9c7.09,2.5,14.17,5.01,21.26,7.51"/>
    <path class="cls-2" d="m84.47,75.96c-.24-1.77-.48-3.54-.72-5.31"/>
    <path class="cls-2" d="m83.75,70.64c-.04-.32-.11-.64-.2-.95"/>
    <path class="cls-2" d="m82.85,69.9c.09.31.15.63.2.95"/>
    <path class="cls-2" d="m83.55,69.69c-2.61-9.36-5.22-18.71-7.83-28.07"/>
    <path class="cls-2" d="m75.01,41.82c2.61,9.36,5.22,18.72,7.83,28.07"/>
    <path class="cls-2" d="m125.28,100.72c-.2.24-.36.53-.36.85"/>
    <line class="cls-2" x1="166.99" y1="77.89" x2="166.97" y2="77.57"/>
    <line class="cls-2" x1="105.33" y1="93.02" x2="109.15" y2="94.37"/>
    <line class="cls-2" x1="105.33" y1="93.02" x2="163.14" y2="76.22"/>
    <line class="cls-2" x1="149.66" y1="71.77" x2="149.7" y2="71.49"/>
    <line class="cls-2" x1="88.11" y1="84.95" x2="91.88" y2="88.28"/>
    <line class="cls-2" x1="88.11" y1="84.95" x2="145.93" y2="68.16"/>
    <path class="cls-2" d="m114.46,142.08c.47-.14.85-.44,1.14-.83.29-.38.48-.83.62-1.28.27-.9.31-1.91.24-2.84"/>
    <line class="cls-2" x1="118.1" y1="94.87" x2="118.12" y2="94.88"/>
    <line class="cls-2" x1="112.8" y1="96.41" x2="118.1" y2="94.87"/>
    <line class="cls-2" x1="112.8" y1="96.41" x2="115.94" y2="136.96"/>
    <line class="cls-2" x1="119.19" y1="102.49" x2="121.76" y2="135.59"/>
    <line class="cls-2" x1="116.45" y1="137.14" x2="113.79" y2="102.82"/>
    <path class="cls-2" d="m115.94,136.96c.06.8.02,1.68-.21,2.46-.12.39-.29.78-.53,1.11-.25.33-.58.6-.99.72"/>
    <line class="cls-2" x1="142.77" y1="61.11" x2="141.88" y2="54.77"/>
    <line class="cls-2" x1="84.95" y1="77.91" x2="142.77" y2="61.11"/>
    <line class="cls-2" x1="84.06" y1="71.57" x2="84.95" y2="77.91"/>
    <line class="cls-2" x1="141.88" y1="54.77" x2="140.63" y2="54.55"/>
    <line class="cls-2" x1="84.06" y1="71.57" x2="141.88" y2="54.77"/>
    <line class="cls-2" x1="83.81" y1="71.06" x2="140.63" y2="54.55"/>
    <line class="cls-2" x1="77.86" y1="48.63" x2="135.68" y2="31.83"/>
    <line class="cls-2" x1="76.1" y1="42.31" x2="77.86" y2="48.63"/>
    <line class="cls-2" x1="76.1" y1="42.31" x2="133.92" y2="25.52"/>
    <line class="cls-2" x1="84.46" y1="39.84" x2="124.9" y2="28.09"/>
    <path class="cls-2" d="m173.64,86.13c.01.15-.09.28-.19.37-.1.1-.23.18-.36.24-.25.13-.54.23-.81.31"/>
    <line class="cls-2" x1="113.28" y1="96.28" x2="113.79" y2="102.82"/>
    <path class="cls-2" d="m113.28,96.28c.35.12.77.19,1.13.22.38.03.77.04,1.15.03.74-.03,1.57-.14,2.28-.34"/>
    <path class="cls-2" d="m171.78,80.52c.27-.08.56-.18.81-.31.12-.07.25-.15.36-.24.1-.09.2-.22.19-.37"/>
    <line class="cls-2" x1="172.28" y1="87.06" x2="118.36" y2="102.73"/>
    <line class="cls-2" x1="117.85" y1="96.19" x2="171.78" y2="80.52"/>
    <line class="cls-2" x1="172.52" y1="79.08" x2="113.28" y2="96.28"/>
    <path class="cls-2" d="m84.47,75.96c.34,2.52,1.17,5.11,2.39,7.35.61,1.12,1.36,2.23,2.24,3.17.44.47.92.92,1.44,1.3.28.2.56.39.87.55.27.15.55.27.83.37"/>
    <line class="cls-2" x1="158.32" y1="74.83" x2="158.3" y2="74.51"/>
    <line class="cls-2" x1="100.48" y1="91.3" x2="158.3" y2="74.51"/>
    <line class="cls-2" x1="96.66" y1="89.95" x2="154.48" y2="73.16"/>
    <line class="cls-2" x1="68.39" y1="116.65" x2="68.39" y2="117.45"/>
    <line class="cls-2" x1="68.39" y1="116.65" x2="112.63" y2="140.99"/>
    <line class="cls-2" x1="112.63" y1="141.79" x2="68.39" y2="117.45"/>
    <path class="cls-2" d="m168.39,126.42c.47-.14.85-.44,1.14-.83.29-.38.48-.83.62-1.28.27-.9.31-1.91.24-2.84"/>
    <line class="cls-2" x1="173.69" y1="124.88" x2="168.39" y2="126.42"/>
    <line class="cls-2" x1="166.73" y1="80.75" x2="172.03" y2="79.21"/>
    <path class="cls-2" d="m169.87,121.29c.06.8.02,1.68-.21,2.46-.12.39-.29.78-.53,1.11-.25.33-.58.6-.99.72"/>
    <line class="cls-2" x1="166.73" y1="80.75" x2="166.74" y2="80.76"/>
    <line class="cls-2" x1="162.94" y1="81.86" x2="162.93" y2="81.85"/>
    <line class="cls-2" x1="153.99" y1="73.3" x2="153.97" y2="72.98"/>
    <line class="cls-2" x1="153.97" y1="72.98" x2="150.14" y2="71.63"/>
    <line class="cls-2" x1="96.15" y1="89.77" x2="153.97" y2="72.98"/>
    <line class="cls-2" x1="92.33" y1="88.42" x2="96.15" y2="89.77"/>
    <line class="cls-2" x1="92.33" y1="88.42" x2="150.14" y2="71.63"/>
    <line class="cls-2" x1="141.67" y1="53.3" x2="139.91" y2="46.99"/>
    <line class="cls-2" x1="83.85" y1="70.1" x2="141.67" y2="53.3"/>
    <line class="cls-2" x1="139.91" y1="46.99" x2="138.76" y2="47.28"/>
    <line class="cls-2" x1="82.09" y1="63.78" x2="139.91" y2="46.99"/>
    <line class="cls-2" x1="81.91" y1="63.79" x2="138.76" y2="47.28"/>
    <line class="cls-2" x1="130.88" y1="22.19" x2="76.96" y2="37.85"/>
    <line class="cls-2" x1="134.42" y1="24.58" x2="75.18" y2="41.78"/>
    <path class="cls-2" d="m91.54,88.9c-.29-.1-.56-.23-.83-.37-.3-.16-.59-.35-.87-.55-.52-.38-1-.83-1.44-1.3-.87-.94-1.62-2.04-2.23-3.17-1.22-2.24-2.05-4.83-2.39-7.35"/>
    <line class="cls-2" x1="71.59" y1="42.69" x2="75.18" y2="41.78"/>
    <path class="cls-2" d="m75.18,41.78c-.11-.38-.16-.78-.14-1.18.02-.4.09-.79.24-1.16.15-.37.37-.71.65-.99.29-.28.63-.49,1.02-.6"/>
    <line class="cls-2" x1="84.26" y1="39.13" x2="84.47" y2="39.88"/>
    <path class="cls-2" d="m92.02,95.13c-.71-.25-1.39-.6-2.03-1.01-.63-.41-1.23-.88-1.79-1.39-1.11-1.01-2.1-2.2-2.96-3.43"/>
    <line class="cls-2" x1="79.86" y1="55.78" x2="137.67" y2="38.99"/>
    <line class="cls-2" x1="135.91" y1="32.68" x2="134.77" y2="32.96"/>
    <line class="cls-2" x1="78.09" y1="49.47" x2="135.91" y2="32.68"/>
    <line class="cls-2" x1="77.91" y1="49.48" x2="134.77" y2="32.96"/>
    <line class="cls-2" x1="113.48" y1="95.9" x2="171.3" y2="79.1"/>
    <line class="cls-2" x1="109.66" y1="94.55" x2="113.48" y2="95.9"/>
    <line class="cls-2" x1="109.66" y1="94.55" x2="167.48" y2="77.75"/>
    <line class="cls-2" x1="162.66" y1="76.36" x2="162.63" y2="76.04"/>
    <line class="cls-2" x1="104.82" y1="92.84" x2="162.63" y2="76.04"/>
    <line class="cls-2" x1="100.99" y1="91.48" x2="158.81" y2="74.69"/>
    <line class="cls-2" x1="139.67" y1="46.15" x2="137.91" y2="39.83"/>
    <line class="cls-2" x1="81.85" y1="62.94" x2="81.68" y2="62.98"/>
    <line class="cls-2" x1="144.64" y1="68.49" x2="145.59" y2="67.66"/>
    <line class="cls-2" x1="87.77" y1="84.45" x2="145.59" y2="67.66"/>
    <line class="cls-2" x1="85.18" y1="78.58" x2="142.99" y2="61.79"/>
    <line class="cls-2" x1="144.64" y1="68.49" x2="87.89" y2="84.97"/>
    <line class="cls-2" x1="81.85" y1="62.94" x2="139.67" y2="46.15"/>
    <line class="cls-2" x1="137.91" y1="39.83" x2="136.77" y2="40.12"/>
    <line class="cls-2" x1="80.09" y1="56.63" x2="137.91" y2="39.83"/>
    <line class="cls-2" x1="79.91" y1="56.63" x2="136.77" y2="40.12"/>
    <path class="cls-2" d="m132.76,98.54c-.49,1.17-.98,2.34-1.47,3.51"/>
    <path class="cls-2" d="m142.83,61.83c-.06-.23-.12-.46-.17-.69"/>
    <line class="cls-2" x1="169.86" y1="122.69" x2="131.99" y2="101.85"/>
    <path class="cls-2" d="m121.97,93.76s-.04,0-.07,0"/>
    <line class="cls-2" x1="118.12" y1="94.88" x2="118.1" y2="94.87"/>
    <path class="cls-2" d="m137.5,39.04c.08.28.16.56.23.84"/>
    <path class="cls-2" d="m139.5,46.2c.08.28.16.56.23.84"/>
    <path class="cls-2" d="m149.7,71.76s-.02-.01-.04-.02"/>
    <path class="cls-2" d="m141.48,53.36c.03.16.06.33.09.49"/>
    <path class="cls-2" d="m153.99,73.29s0,0,.01,0"/>
    <path class="cls-2" d="m158.32,74.82s.01,0,.02,0"/>
    <path class="cls-2" d="m162.66,76.35h.02"/>
    <line class="cls-2" x1="96.68" y1="90.27" x2="96.66" y2="89.95"/>
    <line class="cls-2" x1="101.02" y1="91.8" x2="100.99" y2="91.48"/>
    <line class="cls-2" x1="131.23" y1="33.12" x2="131.46" y2="33.92"/>
    <line class="cls-2" x1="131.57" y1="33.03" x2="131.8" y2="33.83"/>
    <line class="cls-2" x1="137.65" y1="55.42" x2="137.53" y2="54.51"/>
    <path class="cls-2" d="m141.51,61.48c.02.07.04.14.07.21"/>
    <line class="cls-2" x1="141.65" y1="69.4" x2="141.63" y2="69.36"/>
    <path class="cls-2" d="m138.26,62.42c.03.12.07.24.12.35"/>
    <path class="cls-2" d="m86.61,77.42c.02.07.04.14.07.21"/>
    <line class="cls-2" x1="92.35" y1="88.73" x2="92.33" y2="88.42"/>
    <line class="cls-2" x1="81.92" y1="63.83" x2="82.09" y2="63.78"/>
    <path class="cls-2" d="m68.39,116.65c4.61-10.99,9.23-21.98,13.84-32.96"/>
    <line class="cls-2" x1="109.68" y1="94.86" x2="109.66" y2="94.55"/>
    <line class="cls-2" x1="121.8" y1="28.99" x2="121.6" y2="28.3"/>
    <line class="cls-2" x1="85.03" y1="78.7" x2="85.18" y2="78.58"/>
    <line class="cls-2" x1="79.92" y1="56.67" x2="80.09" y2="56.63"/>
    <path class="cls-2" d="m83.04,70.85c.24,1.77.48,3.54.72,5.31"/>
    <line class="cls-2" x1="109.15" y1="94.37" x2="166.97" y2="77.57"/>
    <line class="cls-2" x1="91.88" y1="88.28" x2="149.7" y2="71.49"/>
    <line class="cls-2" x1="121.9" y1="93.77" x2="121.92" y2="93.77"/>
    <line class="cls-2" x1="133.92" y1="25.52" x2="133.74" y2="25.56"/>
    <line class="cls-2" x1="83.87" y1="71.54" x2="84.06" y2="71.57"/>
    <line class="cls-2" x1="75.93" y1="42.36" x2="76.1" y2="42.31"/>
    <path class="cls-2" d="m145.74,68.21c-.1-.14-.2-.28-.29-.43"/>
    <path class="cls-2" d="m166.99,77.88s.01,0,.02,0"/>
    <path class="cls-2" d="m131.99,101.85c.49-1.17.98-2.34,1.47-3.51"/>
    <path class="cls-2" d="m139.34,70.07s.02-.04.02-.05"/>
    <line class="cls-2" x1="80.09" y1="56.63" x2="81.85" y2="62.94"/>
    <line class="cls-2" x1="105.35" y1="93.33" x2="105.33" y2="93.02"/>
    <line class="cls-2" x1="88.07" y1="85.22" x2="88.11" y2="84.95"/>
    <path class="cls-2" d="m82.23,83.69c-1.07-2.62-1.84-5.44-2.22-8.25"/>
    <path class="cls-2" d="m113.28,102.64c-7.09-2.5-14.17-5.01-21.26-7.51"/>
    <line class="cls-2" x1="145.59" y1="67.66" x2="142.99" y2="61.79"/>
    <line class="cls-2" x1="87.77" y1="84.45" x2="87.63" y2="84.58"/>
    <line class="cls-2" x1="85.18" y1="78.58" x2="87.77" y2="84.45"/>
    <path class="cls-2" d="m79.2,69.97c-2.54-9.09-5.07-18.19-7.61-27.28"/>
    <path class="cls-2" d="m79.2,69.97c.09.31.15.63.2.95"/>
    <path class="cls-2" d="m80.01,75.44c-.21-1.51-.41-3.01-.62-4.52"/>
    <path class="cls-2" d="m124.92,101.57c0,.36.19.68.42.92.23.25.54.45.83.62"/>
    <line class="cls-2" x1="124.92" y1="102.37" x2="124.92" y2="101.57"/>
    <path class="cls-2" d="m126.18,103.91c-.3-.16-.6-.37-.83-.62-.23-.25-.42-.56-.42-.92"/>
    <line class="cls-2" x1="126.18" y1="103.91" x2="166.56" y2="126.13"/>
    <line class="cls-2" x1="166.56" y1="125.33" x2="126.18" y2="103.11"/>
    <line class="cls-2" x1="109.15" y1="94.37" x2="109.17" y2="94.68"/>
    <line class="cls-2" x1="166.97" y1="77.57" x2="163.14" y2="76.22"/>
    <line class="cls-2" x1="91.88" y1="88.28" x2="91.84" y2="88.54"/>
    <line class="cls-2" x1="149.7" y1="71.49" x2="145.93" y2="68.16"/>
    <path class="cls-2" d="m114.21,141.24c-.27.08-.54.08-.82.04-.27-.05-.53-.15-.77-.28"/>
    <line class="cls-2" x1="119.76" y1="140.54" x2="114.46" y2="142.08"/>
    <line class="cls-2" x1="113.31" y1="96.59" x2="112.8" y2="96.41"/>
    <path class="cls-2" d="m112.63,141.79c.28.15.58.27.89.33.31.06.63.05.94-.04"/>
    <path class="cls-2" d="m121.76,135.59c.07.92.03,1.93-.24,2.84-.13.45-.33.9-.62,1.28-.29.38-.66.69-1.14.83"/>
    <path class="cls-2" d="m125.14,27.26c-.11.03-.32.09-.44.12"/>
    <line class="cls-2" x1="84.95" y1="77.91" x2="84.83" y2="77.88"/>
    <line class="cls-2" x1="118.1" y1="94.87" x2="121.9" y2="93.77"/>
    <line class="cls-2" x1="118.1" y1="94.87" x2="118.1" y2="94.87"/>
    <path class="cls-2" d="m135.51,31.88c.08.28.16.56.23.84"/>
    <line class="cls-2" x1="77.86" y1="48.63" x2="77.69" y2="48.67"/>
    <line class="cls-2" x1="135.68" y1="31.83" x2="133.92" y2="25.52"/>
    <path class="cls-2" d="m143,58.96c.34,2.52,1.17,5.11,2.39,7.35.61,1.12,1.36,2.23,2.24,3.17.44.47.92.92,1.44,1.3.28.2.56.39.87.55.27.15.55.27.83.37"/>
    <path class="cls-2" d="m142.08,52.69c-2.61-9.36-5.22-18.71-7.83-28.07"/>
    <line class="cls-2" x1="162.63" y1="76.04" x2="158.81" y2="74.69"/>
    <path class="cls-2" d="m142.27,53.64c-.04-.32-.11-.64-.2-.95"/>
    <path class="cls-2" d="m141.57,53.85c.04.3.08.6.12.89"/>
    <line class="cls-2" x1="104.82" y1="92.84" x2="104.84" y2="93.15"/>
    <path class="cls-2" d="m143,58.96c-.24-1.77-.48-3.54-.72-5.31"/>
    <line class="cls-2" x1="171.3" y1="79.1" x2="167.48" y2="77.75"/>
    <path class="cls-2" d="m172.03,79.21c-7.09-2.5-14.17-5.01-21.26-7.51"/>
    <line class="cls-2" x1="96.66" y1="89.95" x2="100.48" y2="91.3"/>
    <path class="cls-2" d="m77.55,117.23c-.46-.25-.97-.44-1.47-.59-.51-.15-1.03-.25-1.55-.33"/>
    <line class="cls-2" x1="82.09" y1="63.78" x2="83.85" y2="70.1"/>
    <line class="cls-2" x1="100.99" y1="91.48" x2="104.82" y2="92.84"/>
    <line class="cls-2" x1="113.48" y1="95.9" x2="113.51" y2="96.21"/>
    <line class="cls-2" x1="166.73" y1="80.75" x2="166.73" y2="80.75"/>
    <line class="cls-2" x1="140.44" y1="53.66" x2="140.57" y2="54.57"/>
    <line class="cls-2" x1="138.86" y1="62.99" x2="138.67" y2="62.53"/>
    <line class="cls-2" x1="144.55" y1="68.51" x2="144.57" y2="68.55"/>
    <line class="cls-2" x1="141.28" y1="69.46" x2="141.3" y2="69.5"/>
    <line class="cls-2" x1="137.17" y1="54.61" x2="137.3" y2="55.52"/>
    <line class="cls-2" x1="133.23" y1="40.28" x2="133.45" y2="41.08"/>
    <line class="cls-2" x1="135.23" y1="47.44" x2="135.45" y2="48.24"/>
    <line class="cls-2" x1="133.57" y1="40.18" x2="133.79" y2="40.98"/>
    <line class="cls-2" x1="135.57" y1="47.34" x2="135.79" y2="48.14"/>
    <line class="cls-2" x1="136.71" y1="40.14" x2="136.49" y2="39.34"/>
    <line class="cls-2" x1="134.71" y1="32.98" x2="134.49" y2="32.18"/>
    <line class="cls-2" x1="85.54" y1="69.6" x2="85.67" y2="70.52"/>
    <line class="cls-2" x1="89.65" y1="84.46" x2="89.67" y2="84.5"/>
    <line class="cls-2" x1="83.81" y1="63.24" x2="83.58" y2="62.44"/>
    <line class="cls-2" x1="81.81" y1="56.08" x2="81.59" y2="55.28"/>
    <line class="cls-2" x1="79.81" y1="48.93" x2="79.59" y2="48.12"/>
    <line class="cls-2" x1="171.32" y1="79.41" x2="171.3" y2="79.1"/>
    <line class="cls-2" x1="166.74" y1="80.76" x2="166.73" y2="80.75"/>
    <line class="cls-2" x1="167.33" y1="88.5" x2="169.87" y2="121.29"/>
    <line class="cls-2" x1="173.11" y1="86.74" x2="175.69" y2="119.93"/>
    <path class="cls-2" d="m173.13,79.59c-.01-.15-.13-.26-.24-.33-.11-.08-.25-.14-.38-.18"/>
    <line class="cls-2" x1="173.13" y1="79.59" x2="173.64" y2="86.13"/>
    <path class="cls-2" d="m118.36,102.73c-.71.21-1.54.32-2.28.34-.38.01-.77,0-1.15-.03-.36-.03-.78-.1-1.13-.22"/>
    <path class="cls-2" d="m138.67,62.53c-.03-.07-.05-.14-.07-.21"/>
    <line class="cls-2" x1="141.58" y1="61.68" x2="141.78" y2="62.14"/>
    <line class="cls-2" x1="138.38" y1="62.77" x2="138.51" y2="63.09"/>
    <line class="cls-2" x1="137.67" y1="38.99" x2="135.91" y2="32.68"/>
    <line class="cls-2" x1="100.48" y1="91.3" x2="100.51" y2="91.62"/>
    <line class="cls-2" x1="158.3" y1="74.51" x2="154.48" y2="73.16"/>
    <line class="cls-2" x1="79.86" y1="55.78" x2="79.68" y2="55.83"/>
    <line class="cls-2" x1="86.68" y1="77.63" x2="86.88" y2="78.09"/>
    <line class="cls-2" x1="77.55" y1="117.23" x2="115.93" y2="138.35"/>
    <line class="cls-2" x1="170.38" y1="121.47" x2="167.81" y2="88.36"/>
    <path class="cls-2" d="m168.14,125.58c-.27.08-.54.08-.82.04-.27-.05-.53-.15-.77-.28"/>
    <line class="cls-2" x1="172.03" y1="79.21" x2="172.05" y2="79.21"/>
    <path class="cls-2" d="m166.56,126.13c.28.15.58.27.89.33.31.06.63.05.94-.04"/>
    <path class="cls-2" d="m175.69,119.93c.07.92.03,1.93-.24,2.84-.13.45-.33.9-.62,1.28-.29.38-.66.69-1.14.83"/>
    <path class="cls-2" d="m84.21,39.15s-.06.02-.1.03"/>
    <line class="cls-2" x1="133.54" y1="24.83" x2="133.74" y2="25.56"/>
    <line class="cls-2" x1="162.93" y1="81.85" x2="166.73" y2="80.75"/>
    <path class="cls-2" d="m162.93,81.85s-.04.02-.06.03"/>
    <line class="cls-2" x1="96.15" y1="89.77" x2="96.17" y2="90.09"/>
    <line class="cls-2" x1="83.85" y1="70.1" x2="83.66" y2="70.14"/>
    <path class="cls-2" d="m128.08,23.01c-.21-.01-.42,0-.63.05"/>
    <path class="cls-2" d="m130.97,22.17c.38-.1.77-.09,1.15,0,.38.09.73.27,1.04.5.31.23.57.53.78.85.21.32.37.68.48,1.06"/>
    <path class="cls-2" d="m127.37,23.07s-.05.01-.08.02"/>
    <line class="cls-2" x1="127.37" y1="23.07" x2="130.97" y2="22.17"/>
    <line class="cls-2" x1="73.36" y1="38.76" x2="127.29" y2="23.09"/>
    <path class="cls-2" d="m130.88,22.19s.05-.02.08-.02"/>
    <path class="cls-2" d="m73.36,38.76c-.39.11-.73.32-1.02.6-.29.28-.5.62-.65.99-.15.37-.23.76-.24,1.16-.02.4.03.8.14,1.18"/>
    <line class="cls-2" x1="78.09" y1="49.47" x2="79.86" y2="55.78"/>
    <line class="cls-2" x1="77.92" y1="49.51" x2="78.09" y2="49.47"/>
    <line class="cls-2" x1="86.68" y1="77.63" x2="84.89" y2="78.15"/>
    <line class="cls-2" x1="138.38" y1="62.77" x2="138.67" y2="62.53"/>
    <line class="cls-2" x1="121.65" y1="28.28" x2="121.85" y2="28.98"/>
    <line class="cls-2" x1="150.77" y1="71.7" x2="150.53" y2="71.77"/>
    <line class="cls-2" x1="142.27" y1="53.64" x2="141.57" y2="53.85"/>
    <line class="cls-2" x1="142.08" y1="52.69" x2="141.54" y2="52.85"/>
    <line class="cls-2" x1="142.49" y1="59.11" x2="143" y2="58.96"/>
    <line class="cls-2" x1="82.85" y1="69.9" x2="83.55" y2="69.69"/>
    <line class="cls-2" x1="83.04" y1="70.85" x2="83.75" y2="70.64"/>
    <line class="cls-2" x1="83.77" y1="76.16" x2="84.47" y2="75.96"/>
    <line class="cls-2" x1="92.25" y1="88.7" x2="91.54" y2="88.9"/>
    <line class="cls-2" x1="125.14" y1="27.27" x2="125.35" y2="28.01"/>
    <line class="cls-2" x1="124.71" y1="27.4" x2="124.91" y2="28.13"/>
    <line class="cls-2" x1="84.33" y1="39.92" x2="84.12" y2="39.19"/>
    <line class="cls-2" x1="127.29" y1="23.09" x2="130.88" y2="22.19"/>
    <line class="cls-2" x1="141.58" y1="61.68" x2="138.67" y2="62.53"/>
    <line class="cls-2" x1="115.57" y1="96.53" x2="116.08" y2="103.07"/>
    <line class="cls-2" x1="173.09" y1="86.75" x2="172.58" y2="80.21"/>
    <line class="cls-2" x1="121.52" y1="138.43" x2="116.21" y2="139.97"/>
    <line class="cls-2" x1="175.44" y1="122.77" x2="170.14" y2="124.31"/>
    <line class="cls-2" x1="76.96" y1="37.85" x2="73.36" y2="38.76"/>
  </g>
</svg>