<svg class="ad-draw-svg" preserveAspectRatio="xMidYMid meet" id="Vrstva_1" data-name="Vrstva 1" xmlns="http://www.w3.org/2000/svg" viewBox="0 0 226.77 226.77">
  <defs>
    <style>
      .cls-1 {
        stroke: #e72b6b;
        stroke-miterlimit: 10;
      }

      .cls-1, .cls-2, .cls-3 {
        fill: none;
      }

      .cls-1, .cls-3 {
        stroke-width:.7px;
      }

      .cls-3 {
        stroke: #010101;
        stroke-dasharray: .4 .4;
        stroke-linejoin: round;
      }
    
.cls-3{stroke:#ffffff}
</style>
  </defs>
  <g>
    <g>
      <path class="cls-1" d="M57.43,152.67c-.02.08-.02.16-.03.24v.24"/>
      <path class="cls-1" d="M55.82,152.03s-.07.02-.1.03-.07.03-.1.05-.06.04-.08.06l-.08.08s-.04.06-.06.09-.04.06-.05.1c-.02.03-.03.06-.04.1,0,.03-.03.07-.04.1,0,.03-.02.07-.03.1,0,.04-.02.07-.02.11,0,.07-.02.14-.03.21,0,.14,0,.29,0,.43"/>
      <path class="cls-1" d="M55.42,153.54v-.32s0-.11.02-.16c0-.05.02-.11.04-.16,0-.03.02-.05.03-.08,0-.02.02-.05.03-.07s.03-.05.04-.07c0-.02.03-.04.04-.06l.06-.06s.04-.03.06-.05.05-.03.07-.04c.02,0,.05-.02.07-.02"/>
      <path class="cls-1" d="M67.83,154.39s.03,0,.05,0c.02,0,.03,0,.05.02.02,0,.03,0,.05.02.02,0,.04.02.05.03.01,0,.03.02.04.03s.03.02.04.03.03.02.04.04c.01,0,.03.03.04.04.03.03.05.05.07.08.02.03.05.06.07.09s.04.06.06.09.04.07.06.1c.03.07.07.13.09.2.03.07.05.14.07.21.04.14.06.29.07.44"/>
      <line class="cls-1" x1="71.16" y1="157.71" x2="71.02" y2="155.44"/>
      <path class="cls-1" d="M69.85,153.55s.04,0,.07,0c.02,0,.05,0,.07.02.02,0,.05.02.07.03s.05.02.07.04c.02,0,.04.02.06.04.02,0,.04.03.06.04.02.02.04.03.06.05s.04.03.06.05l.1.1s.06.08.09.12c.03.04.06.08.08.12.03.04.05.09.07.13.05.09.09.18.12.27.04.09.07.19.09.28.05.19.09.39.1.59"/>
      <path class="cls-1" d="M68.97,155.87c-.01-.2-.05-.4-.1-.59-.03-.1-.06-.19-.09-.28s-.08-.18-.12-.27c-.02-.04-.05-.09-.07-.13-.03-.04-.05-.08-.08-.12-.03-.04-.06-.08-.09-.12-.03-.04-.06-.07-.1-.11-.02-.02-.04-.04-.06-.05-.02-.02-.04-.03-.06-.05-.02,0-.04-.03-.06-.04-.02,0-.04-.03-.06-.04-.02,0-.05-.03-.07-.04-.02,0-.05-.02-.07-.03-.02,0-.04-.02-.07-.02-.02,0-.04,0-.07,0"/>
      <line class="cls-1" x1="55.58" y1="155.7" x2="55.42" y2="153.54"/>
      <line class="cls-1" x1="56.03" y1="152.44" x2="67.83" y2="154.39"/>
      <line class="cls-1" x1="67.81" y1="153.96" x2="56" y2="152.03"/>
      <line class="cls-1" x1="57.4" y1="153.15" x2="57.56" y2="155.3"/>
      <line class="cls-1" x1="69.12" y1="158.15" x2="68.97" y2="155.87"/>
      <line class="cls-1" x1="68.71" y1="155.82" x2="68.86" y2="158.2"/>
      <line class="cls-1" x1="57.99" y1="151.65" x2="69.85" y2="153.55"/>
      <line class="cls-1" x1="55.35" y1="155.63" x2="55.19" y2="153.5"/>
      <path class="cls-1" d="M55.89,152.44h.14"/>
      <path class="cls-1" d="M57.8,151.65c.06,0,.12,0,.18,0"/>
      <line class="cls-1" x1="55.82" y1="152.03" x2="57.8" y2="151.65"/>
      <path class="cls-1" d="M56,152.03c-.06,0-.12,0-.18,0"/>
    </g>
    <g>
      <line class="cls-3" x1="144.78" y1="141.28" x2="144.79" y2="141.42"/>
      <line class="cls-3" x1="26.82" y1="167.3" x2="26.86" y2="167.65"/>
      <line class="cls-3" x1="71.15" y1="157.52" x2="144.78" y2="141.28"/>
      <line class="cls-3" x1="34.33" y1="165.64" x2="68.85" y2="158.03"/>
      <line class="cls-3" x1="71.07" y1="156.31" x2="141.56" y2="140.92"/>
      <line class="cls-3" x1="34.2" y1="164.36" x2="68.76" y2="156.81"/>
      <line class="cls-3" x1="34.47" y1="167.14" x2="145.84" y2="142.28"/>
      <line class="cls-3" x1="27.19" y1="167.4" x2="29.3" y2="167.96"/>
      <line class="cls-3" x1="70.89" y1="157.74" x2="145.22" y2="141.32"/>
      <line class="cls-3" x1="34.34" y1="165.82" x2="70.89" y2="157.74"/>
      <line class="cls-3" x1="27.22" y1="167.74" x2="27.19" y2="167.4"/>
      <line class="cls-3" x1="119.89" y1="110.74" x2="2.61" y2="128.13"/>
      <line class="cls-3" x1="119.89" y1="110.74" x2="119.52" y2="110.93"/>
      <line class="cls-3" x1="11.84" y1="143.91" x2="120.86" y2="124.66"/>
      <line class="cls-3" x1="6.41" y1="139.71" x2="122.31" y2="120.23"/>
      <line class="cls-3" x1="12.71" y1="144.07" x2="119.98" y2="125.07"/>
      <line class="cls-3" x1="124.86" y1="128.7" x2="123.97" y2="129.1"/>
      <line class="cls-3" x1="27.61" y1="146.8" x2="124.86" y2="128.7"/>
      <line class="cls-3" x1="13.73" y1="144.25" x2="121.03" y2="125.19"/>
      <line class="cls-3" x1="28.36" y1="146.94" x2="123.97" y2="129.1"/>
      <line class="cls-3" x1="9.04" y1="150.55" x2="21.7" y2="148.18"/>
      <line class="cls-3" x1="7.31" y1="145.4" x2="26.4" y2="149.1"/>
      <line class="cls-3" x1="31.15" y1="147.45" x2="11.71" y2="143.88"/>
      <path class="cls-3" d="M29.71,168.39c-.57-5.67-1.14-11.33-1.7-17"/>
      <path class="cls-3" d="M34.49,167.32l-1.65-16.86"/>
      <path class="cls-3" d="M32.83,203.15c.07.67.05,1.34-.07,2-.06.33-.18.64-.34.93-.15.3-.42.53-.74.64"/>
      <path class="cls-3" d="M27.63,151.32c1.73,17.28,3.47,34.56,5.2,51.83"/>
      <line class="cls-3" x1="7.12" y1="144.7" x2="11.71" y2="143.88"/>
      <line class="cls-3" x1="119.46" y1="110.74" x2="119.62" y2="111.26"/>
      <line class="cls-3" x1="124.98" y1="129.66" x2="125.51" y2="133.8"/>
      <line class="cls-3" x1="32.99" y1="152.01" x2="125.51" y2="133.8"/>
      <line class="cls-3" x1="10.27" y1="156.48" x2="27.8" y2="153.03"/>
      <line class="cls-3" x1="124.02" y1="129.73" x2="124.98" y2="129.66"/>
      <line class="cls-3" x1="30.79" y1="147.39" x2="124.98" y2="129.66"/>
      <line class="cls-3" x1="30.43" y1="147.32" x2="124.02" y2="129.73"/>
      <line class="cls-3" x1="9.17" y1="151.32" x2="23.73" y2="148.58"/>
      <line class="cls-3" x1="70.22" y1="153.71" x2="134.04" y2="140.09"/>
      <line class="cls-3" x1="33.92" y1="161.45" x2="67.37" y2="154.32"/>
      <line class="cls-3" x1="67.52" y1="153.17" x2="131" y2="139.76"/>
      <line class="cls-3" x1="33.8" y1="160.3" x2="64.44" y2="153.83"/>
      <line class="cls-3" x1="137.55" y1="140.48" x2="137.56" y2="140.62"/>
      <line class="cls-3" x1="70.92" y1="154.85" x2="137.55" y2="140.48"/>
      <line class="cls-3" x1="34.05" y1="162.8" x2="68.62" y2="155.34"/>
      <line class="cls-3" x1="70.36" y1="153.83" x2="134.45" y2="140.14"/>
      <line class="cls-3" x1="33.93" y1="161.61" x2="67.77" y2="154.38"/>
      <line class="cls-3" x1="10.54" y1="127.04" x2="10.67" y2="127.52"/>
      <path class="cls-3" d="M110.88,161.28c0-.24.24-.41.4-.51.2-.11.4-.19.62-.25"/>
      <line class="cls-3" x1="121.02" y1="125.19" x2="144.01" y2="126.79"/>
      <path class="cls-3" d="M146.28,142.33l-.54-13.79"/>
      <path class="cls-3" d="M146.97,170.72c.03.64-.09,1.27-.35,1.85-.25.59-.75,1.05-1.36,1.25"/>
      <path class="cls-3" d="M145.29,128.51c.19,4.67.37,9.31.55,13.92"/>
      <line class="cls-3" x1="123.9" y1="124.09" x2="120.85" y2="124.62"/>
      <line class="cls-3" x1="120.85" y1="124.62" x2="121.02" y2="125.19"/>
      <line class="cls-3" x1="29.71" y1="168.39" x2="30.28" y2="174.06"/>
      <path class="cls-3" d="M29.71,168.39c.63.12,1.28.15,1.92.1.64-.04,1.28-.12,1.91-.26"/>
      <line class="cls-3" x1="149.67" y1="146.79" x2="34.09" y2="173.92"/>
      <line class="cls-3" x1="33.54" y1="168.23" x2="149.5" y2="142.17"/>
      <line class="cls-3" x1="149.36" y1="141.64" x2="29.71" y2="168.39"/>
      <line class="cls-3" x1="141.13" y1="140.87" x2="141.14" y2="141.01"/>
      <line class="cls-3" x1="71.06" y1="156.15" x2="141.13" y2="140.87"/>
      <line class="cls-3" x1="34.18" y1="164.2" x2="68.76" y2="156.66"/>
      <line class="cls-3" x1="70.95" y1="155" x2="137.97" y2="140.53"/>
      <line class="cls-3" x1="34.06" y1="162.96" x2="68.66" y2="155.49"/>
      <line class="cls-3" x1="119.57" y1="111.25" x2="114.59" y2="111.99"/>
      <line class="cls-3" x1="119.57" y1="111.25" x2="119.45" y2="110.86"/>
      <path class="cls-3" d="M10.28,164.88c-2.06,8.05-4.12,16.11-6.17,24.2"/>
      <path class="cls-3" d="M15.19,169.66c-1.2-.43-2.26-1.18-3.07-2.17-.83-.96-1.55-2.02-2.14-3.15"/>
      <path class="cls-3" d="M15.11,164.47l14.23,3.84"/>
      <path class="cls-3" d="M14.64,164.57l14.72,4"/>
      <path class="cls-3" d="M9.74,154.95c.28,1.88.83,3.7,1.63,5.42.4.86.9,1.67,1.49,2.41.56.77,1.35,1.35,2.25,1.66"/>
      <path class="cls-3" d="M9.04,150.71c.22,1.42.44,2.85.67,4.27"/>
      <path class="cls-3" d="M8.91,149.95c.07.25.12.5.16.75"/>
      <path class="cls-3" d="M2.98,128.13c1.49,5.5,2.98,11,4.48,16.5"/>
      <path class="cls-3" d="M2.51,128.2l4.53,16.56"/>
      <line class="cls-3" x1="120.81" y1="115.21" x2="119.93" y2="115.65"/>
      <line class="cls-3" x1="4.72" y1="133.5" x2="120.81" y2="115.21"/>
      <line class="cls-3" x1="3.39" y1="128.61" x2="4.72" y2="133.5"/>
      <line class="cls-3" x1="3.39" y1="128.61" x2="119.62" y2="111.26"/>
      <line class="cls-3" x1="4.55" y1="133.89" x2="119.93" y2="115.65"/>
      <line class="cls-3" x1="122.15" y1="119.7" x2="121.27" y2="120.12"/>
      <line class="cls-3" x1="6.23" y1="139.06" x2="122.15" y2="119.7"/>
      <line class="cls-3" x1="4.9" y1="134.15" x2="120.96" y2="115.74"/>
      <line class="cls-3" x1="6.05" y1="139.43" x2="121.27" y2="120.12"/>
      <line class="cls-3" x1="130.65" y1="139.73" x2="130.63" y2="139.84"/>
      <line class="cls-3" x1="127.77" y1="138.06" x2="130.65" y2="139.73"/>
      <line class="cls-3" x1="67.21" y1="153.12" x2="130.65" y2="139.73"/>
      <line class="cls-3" x1="33.79" y1="160.18" x2="64.12" y2="153.78"/>
      <line class="cls-3" x1="60.21" y1="152" x2="127.77" y2="138.06"/>
      <line class="cls-3" x1="33.53" y1="157.51" x2="55.18" y2="153.04"/>
      <line class="cls-3" x1="12.48" y1="162.31" x2="12.51" y2="161.85"/>
      <line class="cls-3" x1="127.52" y1="137.78" x2="127.05" y2="138.21"/>
      <line class="cls-3" x1="59.16" y1="151.84" x2="127.52" y2="137.78"/>
      <line class="cls-3" x1="33.49" y1="157.12" x2="55.27" y2="152.64"/>
      <line class="cls-3" x1="33.05" y1="152.53" x2="125.66" y2="134.22"/>
      <line class="cls-3" x1="10.43" y1="157" x2="27.86" y2="153.56"/>
      <line class="cls-3" x1="12.36" y1="162.14" x2="12.49" y2="162.11"/>
      <line class="cls-3" x1="119.76" y1="110.81" x2="119.45" y2="110.86"/>
      <path class="cls-3" d="M130.85,139.79l-.21-.05"/>
      <path class="cls-3" d="M111.89,160.51l3,1.09"/>
      <line class="cls-3" x1="24.14" y1="166.91" x2="24.1" y2="166.57"/>
      <line class="cls-3" x1="118.63" y1="111.39" x2="118.57" y2="111.42"/>
      <line class="cls-3" x1="2.51" y1="128.2" x2="2.61" y2="128.13"/>
      <path class="cls-3" d="M144.97,141.38h-.19"/>
      <path class="cls-3" d="M141.31,140.95h-.18"/>
      <line class="cls-3" x1="26.82" y1="167.3" x2="29.18" y2="166.78"/>
      <line class="cls-3" x1="24.1" y1="166.57" x2="29.05" y2="165.49"/>
      <line class="cls-3" x1="27.19" y1="167.4" x2="29.2" y2="166.95"/>
      <line class="cls-3" x1="141.56" y1="140.92" x2="144.78" y2="141.28"/>
      <line class="cls-3" x1="24.1" y1="166.57" x2="26.82" y2="167.3"/>
      <line class="cls-3" x1="145.22" y1="141.32" x2="145.8" y2="141.39"/>
      <path class="cls-3" d="M2.61,128.13c-.12-.43-.12-.88,0-1.31s.37-.81.73-1.08"/>
      <path class="cls-3" d="M3.33,125.74c.27-.21.6-.34.94-.39"/>
      <path class="cls-3" d="M1.27,127.3c-.35.27-.6.64-.72,1.07-.12.43-.12.87,0,1.3"/>
      <line class="cls-3" x1="1.27" y1="127.3" x2="3.33" y2="125.74"/>
      <line class="cls-3" x1="4.27" y1="125.35" x2="117.76" y2="108.99"/>
      <path class="cls-3" d="M117.76,108.95c.5-.04.99.14,1.35.5.37.34.64.77.78,1.25"/>
      <line class="cls-3" x1="7.2" y1="145.46" x2="7.01" y2="144.76"/>
      <line class="cls-3" x1="9.26" y1="150.22" x2="9.01" y2="150.37"/>
      <line class="cls-3" x1="9.26" y1="150.22" x2="20.96" y2="148.04"/>
      <line class="cls-3" x1="7.99" y1="145.53" x2="9.26" y2="150.22"/>
      <line class="cls-3" x1="26.32" y1="148.36" x2="7.12" y2="144.7"/>
      <line class="cls-3" x1="9.45" y1="151.4" x2="24.08" y2="148.65"/>
      <line class="cls-3" x1="134.04" y1="140.09" x2="134.05" y2="140.23"/>
      <line class="cls-3" x1="17.82" y1="164.88" x2="17.86" y2="165.22"/>
      <line class="cls-3" x1="3.11" y1="128.62" x2="10.52" y2="127.52"/>
      <line class="cls-3" x1="143.98" y1="126.19" x2="120.85" y2="124.62"/>
      <path class="cls-3" d="M34.09,173.95c-.62.14-1.26.23-1.9.26-.64.06-1.28.01-1.91-.12"/>
      <line class="cls-3" x1="23.75" y1="166.47" x2="23.78" y2="166.82"/>
      <path class="cls-3" d="M9.98,164.34c-2.1,8.28-4.2,16.56-6.31,24.84"/>
      <path class="cls-3" d="M9.28,155.07c.28,1.88.83,3.7,1.63,5.42.39.88.89,1.71,1.49,2.46.56.77,1.34,1.35,2.24,1.67"/>
      <path class="cls-3" d="M8.61,150.8c.22,1.42.44,2.84.67,4.27"/>
      <path class="cls-3" d="M8.45,150.05c.07.25.12.5.16.75"/>
      <path class="cls-3" d="M7.2,145.46c.42,1.53.83,3.06,1.25,4.59"/>
      <path class="cls-3" d="M114.93,161.6c1.21-2.5,2.41-5,3.62-7.51"/>
      <line class="cls-3" x1="18.2" y1="165.31" x2="18.16" y2="164.97"/>
      <path class="cls-3" d="M118.04,116.2c0-.08,0-.16-.08-.24"/>
      <line class="cls-3" x1="6.17" y1="139.87" x2="6.41" y2="139.71"/>
      <path class="cls-3" d="M120.04,115.6c0,.09.06.19.08.28"/>
      <path class="cls-3" d="M121.37,120.08c0,.09,0,.19.08.29"/>
      <path class="cls-3" d="M118.25,115.95c0,.09.05.17.07.25"/>
      <path class="cls-3" d="M119.6,120.4l.08.27"/>
      <line class="cls-3" x1="9.18" y1="151.4" x2="9.45" y2="151.4"/>
      <line class="cls-3" x1="15.34" y1="164.54" x2="15.3" y2="164.2"/>
      <path class="cls-3" d="M7.69,145.47c.41,1.5.82,3,1.22,4.49"/>
      <path class="cls-3" d="M114.48,155.05l-2.59,5.46"/>
      <path class="cls-3" d="M134.21,140.19h-.16"/>
      <line class="cls-3" x1="11.08" y1="150.17" x2="11.2" y2="150.93"/>
      <line class="cls-3" x1="12.03" y1="156.13" x2="12.09" y2="156.48"/>
      <path class="cls-3" d="M122.27,120.23c0-.17-.1-.34-.16-.51"/>
      <path class="cls-3" d="M123.75,124.11l-4-13.3"/>
      <path class="cls-3" d="M124.94,129.66c0-.2-.05-.39-.07-.59"/>
      <line class="cls-3" x1="122.27" y1="129.41" x2="122.35" y2="130.04"/>
      <line class="cls-3" x1="122.9" y1="134.32" x2="122.93" y2="134.6"/>
      <line class="cls-3" x1="122.07" y1="130.1" x2="121.99" y2="129.46"/>
      <line class="cls-3" x1="124.04" y1="129.06" x2="124.12" y2="129.72"/>
      <line class="cls-3" x1="124.66" y1="133.97" x2="124.7" y2="134.25"/>
      <line class="cls-3" x1="128.19" y1="141.48" x2="128.18" y2="141.48"/>
      <path class="cls-3" d="M10.52,127.52h.14"/>
      <line class="cls-3" x1="123.86" y1="125.39" x2="124.86" y2="128.7"/>
      <line class="cls-3" x1="124.59" y1="133.98" x2="124.73" y2="134.41"/>
      <path class="cls-3" d="M119.39,120.72l-.08-.27"/>
      <line class="cls-3" x1="7.43" y1="145.42" x2="7.2" y2="145.46"/>
      <line class="cls-3" x1="6.41" y1="139.71" x2="7.73" y2="144.59"/>
      <line class="cls-3" x1="121.01" y1="125.19" x2="121.02" y2="125.19"/>
      <line class="cls-3" x1="119.98" y1="125.07" x2="120.06" y2="125.36"/>
      <line class="cls-3" x1="7.01" y1="144.76" x2="7.12" y2="144.7"/>
      <line class="cls-3" x1="7.2" y1="145.46" x2="7.31" y2="145.4"/>
      <line class="cls-3" x1="122.31" y1="120.23" x2="123.49" y2="124.16"/>
      <path class="cls-3" d="M31.88,207.42c.37-.13.67-.39.85-.74.19-.33.33-.7.39-1.08.15-.76.17-1.53.08-2.3"/>
      <line class="cls-3" x1="30.58" y1="206.49" x2="3.67" y2="189.18"/>
      <line class="cls-3" x1="32.87" y1="203.69" x2="7.71" y2="187.92"/>
      <path class="cls-3" d="M36.51,206.07c.37-.12.67-.38.86-.72.19-.34.33-.7.41-1.08.14-.76.18-1.53.09-2.3"/>
      <line class="cls-3" x1="36.51" y1="206.07" x2="31.88" y2="207.42"/>
      <path class="cls-3" d="M31.68,206.72c-.38.09-.78,0-1.1-.23"/>
      <path class="cls-3" d="M7.71,187.95c-.47-.27-.99-.45-1.52-.54-.53-.1-1.07-.15-1.61-.16"/>
      <line class="cls-3" x1="1.19" y1="188.16" x2="30.6" y2="207.15"/>
      <path class="cls-3" d="M26.4,149.1c.22.06.41.19.54.37.14.17.25.36.35.56.18.41.3.84.34,1.29"/>
      <path class="cls-3" d="M28.04,151.39c-.06-.6-.22-1.2-.47-1.75-.13-.27-.29-.53-.48-.77-.18-.25-.44-.43-.74-.51"/>
      <path class="cls-3" d="M32.84,150.46c-.05-.61-.21-1.2-.47-1.75-.12-.28-.28-.53-.48-.76-.18-.24-.44-.42-.74-.5"/>
      <path class="cls-3" d="M33.2,203.3c-.97-9.74-1.94-19.49-2.92-29.24"/>
      <path class="cls-3" d="M37.87,201.95l-2.76-28.29"/>
      <path class="cls-3" d="M30.6,207.15c.37.27.83.37,1.28.27"/>
      <line class="cls-3" x1="1.19" y1="188.16" x2="1.15" y2="187.56"/>
      <line class="cls-3" x1="7.31" y1="145.4" x2="7.12" y2="144.7"/>
      <line class="cls-3" x1="18.16" y1="164.97" x2="28.77" y2="162.71"/>
      <line class="cls-3" x1="9.45" y1="151.4" x2="10.27" y2="156.48"/>
      <line class="cls-3" x1="10.27" y1="156.48" x2="10.03" y2="156.48"/>
      <line class="cls-3" x1="20.75" y1="165.67" x2="20.78" y2="166.01"/>
      <line class="cls-3" x1="20.75" y1="165.67" x2="28.89" y2="163.91"/>
      <line class="cls-3" x1="17.82" y1="164.88" x2="28.76" y2="162.55"/>
      <line class="cls-3" x1="131" y1="139.76" x2="134.04" y2="140.09"/>
      <line class="cls-3" x1="15.3" y1="164.2" x2="17.82" y2="164.88"/>
      <line class="cls-3" x1="15.3" y1="164.2" x2="28.64" y2="161.39"/>
      <line class="cls-3" x1="134.45" y1="140.14" x2="137.55" y2="140.48"/>
      <line class="cls-3" x1="18.16" y1="164.97" x2="20.75" y2="165.67"/>
      <path class="cls-3" d="M10.54,127.04h-.15"/>
      <line class="cls-3" x1="10.39" y1="127.03" x2="2.98" y2="128.13"/>
      <path class="cls-3" d="M149.36,141.64c-.17-4.56-.34-9.13-.52-13.7"/>
      <path class="cls-3" d="M146.04,147.64c.31,7.69.62,15.38.92,23.08"/>
      <path class="cls-3" d="M145.44,174.38c.71-.23,1.29-.75,1.6-1.43.3-.67.43-1.41.39-2.14"/>
      <path class="cls-3" d="M111.91,162.13c-.22-.08-.43-.18-.63-.31-.17-.11-.41-.3-.4-.54"/>
      <path class="cls-3" d="M145.74,128.54c-.02-.53-.18-1.05-.47-1.5-.28-.46-.75-.77-1.29-.85"/>
      <line class="cls-3" x1="146.54" y1="172.73" x2="115.22" y2="161.53"/>
      <path class="cls-3" d="M110.86,161.78c.04.24.19.44.4.55.2.13.42.23.64.3"/>
      <line class="cls-3" x1="110.86" y1="161.78" x2="110.88" y2="161.28"/>
      <path class="cls-3" d="M148.45,173.5c.71-.23,1.28-.75,1.58-1.43.3-.67.44-1.4.4-2.13"/>
      <line class="cls-3" x1="148.45" y1="173.5" x2="145.44" y2="174.38"/>
      <path class="cls-3" d="M145.26,173.82c-.43.12-.89.1-1.31-.07"/>
      <line class="cls-3" x1="111.9" y1="162.63" x2="143.92" y2="174.3"/>
      <line class="cls-3" x1="143.95" y1="173.75" x2="111.91" y2="162.13"/>
      <path class="cls-3" d="M144.04,126.79c.39.05.74.28.94.62.21.33.33.71.34,1.1"/>
      <line class="cls-3" x1="147.09" y1="125.61" x2="123.9" y2="124.09"/>
      <path class="cls-3" d="M148.84,127.95c-.02-.53-.18-1.05-.47-1.49-.28-.46-.75-.77-1.28-.84"/>
      <path class="cls-3" d="M150.43,169.95l-.88-23.12"/>
      <path class="cls-3" d="M147.4,170.8l-.91-23.26"/>
      <path class="cls-3" d="M143.92,174.3c.49.19,1.02.21,1.52.08"/>
      <path class="cls-3" d="M150.27,146.49c0,.06-.07.11-.11.13l-.16.07-.33.1"/>
      <path class="cls-3" d="M150.09,141.89c0-.07-.1-.11-.14-.13l-.19-.06-.4-.06"/>
      <line class="cls-3" x1="150.09" y1="141.89" x2="150.27" y2="146.49"/>
      <path class="cls-3" d="M149.5,142.17l.33-.09.15-.07s.12-.07.11-.12"/>
      <line class="cls-3" x1="23.75" y1="166.47" x2="29.04" y2="165.32"/>
      <line class="cls-3" x1="21.1" y1="165.76" x2="28.91" y2="164.07"/>
      <line class="cls-3" x1="15.01" y1="164.14" x2="28.63" y2="161.27"/>
      <line class="cls-3" x1="12.51" y1="161.85" x2="15.01" y2="164.14"/>
      <line class="cls-3" x1="12.51" y1="161.85" x2="28.36" y2="158.58"/>
      <line class="cls-3" x1="12.27" y1="161.48" x2="28.32" y2="158.18"/>
      <line class="cls-3" x1="113.14" y1="112.23" x2="114.19" y2="111.68"/>
      <line class="cls-3" x1="119.51" y1="111.28" x2="119.57" y2="111.25"/>
      <path class="cls-3" d="M6.58,133.57l.09.3"/>
      <path class="cls-3" d="M8.09,139.09l.09.33"/>
      <line class="cls-3" x1="3.16" y1="128.78" x2="3.39" y2="128.61"/>
      <line class="cls-3" x1="4.66" y1="134.32" x2="4.9" y2="134.15"/>
      <line class="cls-3" x1="10.23" y1="157.29" x2="10.43" y2="157"/>
      <path class="cls-3" d="M137.73,140.58h-.17"/>
      <line class="cls-3" x1="21.13" y1="166.1" x2="21.1" y2="165.76"/>
      <line class="cls-3" x1="137.97" y1="140.53" x2="141.13" y2="140.87"/>
      <line class="cls-3" x1="21.1" y1="165.76" x2="23.75" y2="166.47"/>
      <path class="cls-3" d="M114.59,111.95h-.18"/>
      <path class="cls-3" d="M114.19,111.68l.28-.09"/>
      <line class="cls-3" x1="114.47" y1="111.59" x2="119.45" y2="110.86"/>
      <path class="cls-3" d="M1.15,187.56l6.89-27.91"/>
      <path class="cls-3" d="M3.67,189.18l-2.52-1.62"/>
      <line class="cls-3" x1="3.67" y1="189.18" x2="4.11" y2="189.08"/>
      <path class="cls-3" d="M29.9,173.95l-14.71-4.29"/>
      <line class="cls-3" x1="2.51" y1="128.2" x2="2.98" y2="128.13"/>
      <path class="cls-3" d="M.55,129.67l2-1.47"/>
      <path class="cls-3" d="M6.25,150.67l-5.7-21"/>
      <path class="cls-3" d="M6.41,151.42c-.04-.25-.09-.5-.16-.75"/>
      <path class="cls-3" d="M6.97,155.01c-.19-1.2-.37-2.39-.56-3.59"/>
      <path class="cls-3" d="M8.04,159.65c-.48-1.52-.84-3.07-1.08-4.64"/>
      <path class="cls-3" d="M12.09,156.48v.19"/>
      <path class="cls-3" d="M120.92,115.75l-.15-.52"/>
      <path class="cls-3" d="M127.69,138.07c-.08-.08-.15-.16-.22-.25"/>
      <path class="cls-3" d="M125.62,134.23l-.12-.49"/>
      <path class="cls-3" d="M128.4,138.42c-.81-.77-1.46-1.7-1.92-2.72-.46-1.02-.76-2.1-.89-3.21"/>
      <path class="cls-3" d="M122.69,134.81c-.02-.06-.04-.13-.05-.19"/>
      <line class="cls-3" x1="4.72" y1="133.5" x2="4.48" y2="133.67"/>
      <line class="cls-3" x1="119.62" y1="111.26" x2="120.81" y2="115.21"/>
      <line class="cls-3" x1="4.9" y1="134.15" x2="6.23" y2="139.06"/>
      <line class="cls-3" x1="6.23" y1="139.06" x2="5.99" y2="139.22"/>
      <line class="cls-3" x1="120.96" y1="115.74" x2="122.15" y2="119.7"/>
      <line class="cls-3" x1="15.01" y1="164.14" x2="14.99" y2="164.44"/>
      <line class="cls-3" x1="10.43" y1="157" x2="12.27" y2="161.48"/>
      <line class="cls-3" x1="12.27" y1="161.48" x2="12.09" y2="161.73"/>
      <line class="cls-3" x1="125.66" y1="134.22" x2="127.52" y2="137.78"/>
      <path class="cls-3" d="M125.04,128.4l-.9-3"/>
      <path class="cls-3" d="M124.87,129.07c0-.12,0-.24-.06-.35"/>
      <path class="cls-3" d="M125.17,129.01c-.02-.21-.07-.41-.13-.61"/>
      <path class="cls-3" d="M125.59,132.49l-.42-3.48"/>
      <path class="cls-3" d="M115.22,161.53l3.63-7.51"/>
      <line class="cls-3" x1="115.22" y1="161.53" x2="114.93" y2="161.6"/>
      <line class="cls-3" x1="122.64" y1="134.62" x2="122.61" y2="134.37"/>
      <path class="cls-3" d="M124.7,134.25v.15"/>
      <path class="cls-3" d="M122.93,134.6v.15"/>
      <line class="cls-3" x1="122.64" y1="134.62" x2="122.61" y2="134.37"/>
      <path class="cls-3" d="M115.22,161.53l3.63-7.51"/>
      <path class="cls-3" d="M125.59,132.49l-.42-3.48"/>
      <path class="cls-3" d="M125.17,129.01c-.02-.21-.07-.41-.13-.61"/>
      <path class="cls-3" d="M125.04,128.4l-.9-3"/>
      <path class="cls-3" d="M122.69,134.81c-.02-.06-.04-.13-.05-.19"/>
      <path class="cls-3" d="M128.4,138.42c-.81-.77-1.46-1.7-1.92-2.72-.46-1.02-.76-2.1-.89-3.21"/>
      <path class="cls-3" d="M12.09,156.48v.19"/>
      <path class="cls-3" d="M8.04,159.65c-.48-1.52-.84-3.07-1.08-4.64"/>
      <path class="cls-3" d="M6.97,155.01c-.19-1.2-.37-2.39-.56-3.59"/>
      <path class="cls-3" d="M6.41,151.42c-.04-.25-.09-.5-.16-.75"/>
      <path class="cls-3" d="M6.25,150.67l-5.7-21"/>
      <path class="cls-3" d="M29.9,173.95l-14.71-4.29"/>
      <path class="cls-3" d="M1.15,187.56l6.89-27.91"/>
      <line class="cls-3" x1="137.97" y1="140.53" x2="141.13" y2="140.87"/>
      <path class="cls-3" d="M137.73,140.58h-.17"/>
      <path class="cls-3" d="M8.09,139.09l.09.33"/>
      <path class="cls-3" d="M6.58,133.57l.09.3"/>
      <line class="cls-3" x1="150.09" y1="141.89" x2="150.27" y2="146.49"/>
      <path class="cls-3" d="M150.09,141.89c0-.07-.1-.11-.14-.13l-.19-.06-.4-.06"/>
      <path class="cls-3" d="M150.27,146.49c0,.06-.07.11-.11.13l-.16.07-.33.1"/>
      <path class="cls-3" d="M143.92,174.3c.49.19,1.02.21,1.52.08"/>
      <path class="cls-3" d="M150.43,169.95l-.88-23.12"/>
      <path class="cls-3" d="M148.84,127.95c-.02-.53-.18-1.05-.47-1.49-.28-.46-.75-.77-1.28-.84"/>
      <line class="cls-3" x1="147.09" y1="125.61" x2="123.9" y2="124.09"/>
      <path class="cls-3" d="M144.04,126.79c.39.05.74.28.94.62.21.33.33.71.34,1.1"/>
      <line class="cls-3" x1="111.9" y1="162.63" x2="143.92" y2="174.3"/>
      <line class="cls-3" x1="148.45" y1="173.5" x2="145.44" y2="174.38"/>
      <path class="cls-3" d="M148.45,173.5c.71-.23,1.28-.75,1.58-1.43.3-.67.44-1.4.4-2.13"/>
      <line class="cls-3" x1="110.86" y1="161.78" x2="110.88" y2="161.28"/>
      <path class="cls-3" d="M110.86,161.78c.04.24.19.44.4.55.2.13.42.23.64.3"/>
      <line class="cls-3" x1="146.54" y1="172.73" x2="115.22" y2="161.53"/>
      <path class="cls-3" d="M146.04,147.64c.31,7.69.62,15.38.92,23.08"/>
      <path class="cls-3" d="M149.36,141.64c-.17-4.56-.34-9.13-.52-13.7"/>
      <line class="cls-3" x1="134.45" y1="140.14" x2="137.55" y2="140.48"/>
      <line class="cls-3" x1="131" y1="139.76" x2="134.04" y2="140.09"/>
      <line class="cls-3" x1="1.19" y1="188.16" x2="1.15" y2="187.56"/>
      <path class="cls-3" d="M30.6,207.15c.37.27.83.37,1.28.27"/>
      <path class="cls-3" d="M37.87,201.95l-2.76-28.29"/>
      <line class="cls-3" x1="1.19" y1="188.16" x2="30.6" y2="207.15"/>
      <path class="cls-3" d="M7.71,187.95c-.47-.27-.99-.45-1.52-.54-.53-.1-1.07-.15-1.61-.16"/>
      <line class="cls-3" x1="36.51" y1="206.07" x2="31.88" y2="207.42"/>
      <path class="cls-3" d="M36.51,206.07c.37-.12.67-.38.86-.72.19-.34.33-.7.41-1.08.14-.76.18-1.53.09-2.3"/>
      <line class="cls-3" x1="32.87" y1="203.69" x2="7.71" y2="187.92"/>
      <line class="cls-3" x1="119.98" y1="125.07" x2="120.06" y2="125.36"/>
      <path class="cls-3" d="M119.39,120.72l-.08-.27"/>
      <line class="cls-3" x1="122.07" y1="130.1" x2="121.99" y2="129.46"/>
      <path class="cls-3" d="M123.75,124.11l-4-13.3"/>
      <line class="cls-3" x1="12.03" y1="156.13" x2="12.09" y2="156.48"/>
      <line class="cls-3" x1="11.08" y1="150.17" x2="11.2" y2="150.93"/>
      <path class="cls-3" d="M134.21,140.19h-.16"/>
      <path class="cls-3" d="M114.48,155.05l-2.59,5.46"/>
      <path class="cls-3" d="M118.04,116.2c0-.08,0-.16-.08-.24"/>
      <line class="cls-3" x1="134.04" y1="140.09" x2="134.05" y2="140.23"/>
      <path class="cls-3" d="M117.76,108.95c.5-.04.99.14,1.35.5.37.34.64.77.78,1.25"/>
      <line class="cls-3" x1="4.27" y1="125.35" x2="117.76" y2="108.99"/>
      <line class="cls-3" x1="1.27" y1="127.3" x2="3.33" y2="125.74"/>
      <path class="cls-3" d="M1.27,127.3c-.35.27-.6.64-.72,1.07-.12.43-.12.87,0,1.3"/>
      <path class="cls-3" d="M3.33,125.74c.27-.21.6-.34.94-.39"/>
      <line class="cls-3" x1="145.22" y1="141.32" x2="145.8" y2="141.39"/>
      <line class="cls-3" x1="141.56" y1="140.92" x2="144.78" y2="141.28"/>
      <path class="cls-3" d="M141.31,140.95h-.18"/>
      <path class="cls-3" d="M144.97,141.38h-.19"/>
      <path class="cls-3" d="M111.89,160.51l3,1.09"/>
      <path class="cls-3" d="M130.85,139.79l-.21-.05"/>
      <path class="cls-3" d="M15.19,169.66c-1.2-.43-2.26-1.18-3.07-2.17-.83-.96-1.55-2.02-2.14-3.15"/>
      <path class="cls-3" d="M10.28,164.88c-2.06,8.05-4.12,16.11-6.17,24.2"/>
      <line class="cls-3" x1="149.67" y1="146.79" x2="34.09" y2="173.92"/>
      <line class="cls-3" x1="123.9" y1="124.09" x2="120.85" y2="124.62"/>
      <path class="cls-3" d="M145.29,128.51c.19,4.67.37,9.31.55,13.92"/>
      <path class="cls-3" d="M146.97,170.72c.03.64-.09,1.27-.35,1.85-.25.59-.75,1.05-1.36,1.25"/>
      <path class="cls-3" d="M110.88,161.28c0-.24.24-.41.4-.51.2-.11.4-.19.62-.25"/>
      <line class="cls-3" x1="137.55" y1="140.48" x2="137.56" y2="140.62"/>
      <line class="cls-3" x1="30.43" y1="147.32" x2="124.02" y2="129.73"/>
      <line class="cls-3" x1="32.99" y1="152.01" x2="125.51" y2="133.8"/>
      <path class="cls-3" d="M32.83,203.15c.07.67.05,1.34-.07,2-.06.33-.18.64-.34.93-.15.3-.42.53-.74.64"/>
      <line class="cls-3" x1="28.36" y1="146.94" x2="123.97" y2="129.1"/>
      <line class="cls-3" x1="12.71" y1="144.07" x2="119.98" y2="125.07"/>
      <line class="cls-3" x1="119.89" y1="110.74" x2="119.52" y2="110.93"/>
      <line class="cls-3" x1="144.78" y1="141.28" x2="144.79" y2="141.42"/>
    </g>
  </g>
  <rect class="cls-2"/>
</svg>