<svg class="ad-draw-svg" preserveAspectRatio="xMidYMid meet" id="Vrstva_1" data-name="Vrstva 1" xmlns="http://www.w3.org/2000/svg" viewBox="0 0 226.77 226.77">
  <defs>
    <style>
      .cls-1, .cls-2, .cls-5 {
        fill: none;
        stroke-linecap: round;
        stroke-linejoin: round;
      }

      .cls-1, .cls-5 {
        stroke: #1e1e1c;
      }

      .cls-1 {
        stroke-width: 0.35px;
      }

      .cls-2 {
        stroke: #010202;
      }

      .cls-2, .cls-3, .cls-5 {
        stroke-width:.7px;
      }

      .cls-3 {
        fill: #020303;
        stroke: #020303;
        stroke-miterlimit: 10;
      }

      .cls-4 {
        fill: #1e1e1c;
      }

      .cls-6 {
        fill: #010101;
      }
    
.cls-1{stroke:#ffffff}
.cls-2{stroke:#ffffff}
.cls-5{stroke:#ffffff}
.cls-3{stroke:#ffffff;fill:#ffffff}
.cls-4{fill:#ffffff}
.cls-6{fill:#ffffff}
</style>
  </defs>
  <g>
    <line class="cls-1" x1="140.63" y1="121.78" x2="140.51" y2="121.53"/>
    <line class="cls-1" x1="221.59" y1="159.04" x2="163.96" y2="183.13"/>
    <line class="cls-1" x1="161.98" y1="183.03" x2="161.04" y2="182.5"/>
    <line class="cls-1" x1="221.94" y1="151.34" x2="220.97" y2="150.91"/>
    <path class="cls-1" d="M164,183.13a2.48,2.48,0,0,1-2-.1"/>
    <line class="cls-1" x1="222.37" y1="151.79" x2="221.92" y2="158.71"/>
    <path class="cls-1" d="M222.37,151.79a.36.36,0,0,0-.15-.28,1,1,0,0,0-.28-.17"/>
    <path class="cls-1" d="M221.92,158.71c0,.17-.2.28-.33.33"/>
    <line class="cls-1" x1="109.68" y1="49.19" x2="54.18" y2="59.67"/>
    <line class="cls-1" x1="111.37" y1="50.81" x2="110.95" y2="49.92"/>
    <line class="cls-1" x1="51.75" y1="65.11" x2="51.32" y2="64.15"/>
    <path class="cls-1" d="M111,49.92a1.43,1.43,0,0,0-.53-.56,1.12,1.12,0,0,0-.74-.17"/>
    <path class="cls-1" d="M54.18,59.67a.77.77,0,0,0-.51.31"/>
    <path class="cls-1" d="M51.32,64.15a.85.85,0,0,1,0-.83"/>
    <line class="cls-1" x1="51.36" y1="63.32" x2="53.67" y2="59.98"/>
    <line class="cls-1" x1="122.15" y1="83.21" x2="122.12" y2="83.15"/>
    <line class="cls-1" x1="125.18" y1="89.54" x2="125.13" y2="89.43"/>
    <line class="cls-1" x1="115.29" y1="99.32" x2="115.29" y2="99.16"/>
    <line class="cls-1" x1="115.39" y1="106.69" x2="115.38" y2="106.49"/>
    <line class="cls-1" x1="115.69" y1="129.49" x2="115.69" y2="129.18"/>
    <line class="cls-1" x1="120.61" y1="97.92" x2="120.61" y2="97.76"/>
    <line class="cls-1" x1="120.68" y1="105.23" x2="120.68" y2="105.03"/>
    <line class="cls-1" x1="120.9" y1="127.88" x2="120.9" y2="127.58"/>
    <path class="cls-1" d="M124.4,183.66a1,1,0,0,0,.9.15"/>
    <path class="cls-1" d="M131.9,180.05a2.22,2.22,0,0,1-.13.81,1,1,0,0,1-.53.61"/>
    <path class="cls-1" d="M70.63,110a1.44,1.44,0,0,0-.23.94"/>
    <path class="cls-1" d="M64.63,110.93a2.09,2.09,0,0,0-.31,1.35"/>
    <line class="cls-1" x1="64.32" y1="112.28" x2="65.99" y2="145.3"/>
    <line class="cls-1" x1="70.4" y1="110.95" x2="71.91" y2="143.78"/>
    <path class="cls-1" d="M71.91,143.78a3.11,3.11,0,0,0,.25,1,1.81,1.81,0,0,0,.63.84"/>
    <path class="cls-1" d="M66,145.3a4.5,4.5,0,0,0,.35,1.49,2.79,2.79,0,0,0,.91,1.22"/>
    <line class="cls-1" x1="64.63" y1="110.93" x2="69.59" y2="105.18"/>
    <line class="cls-1" x1="70.63" y1="110.01" x2="71.37" y2="109.18"/>
    <line class="cls-1" x1="72.79" y1="145.66" x2="125.45" y2="177.69"/>
    <line class="cls-1" x1="67.25" y1="148.01" x2="124.4" y2="183.66"/>
    <line class="cls-1" x1="131.24" y1="181.47" x2="125.3" y2="183.81"/>
    <line class="cls-1" x1="89" y1="137.74" x2="88.81" y2="137.98"/>
    <line class="cls-1" x1="131.3" y1="102.31" x2="131.22" y2="102.14"/>
    <line class="cls-1" x1="128.23" y1="95.9" x2="128.16" y2="95.76"/>
    <line class="cls-1" x1="67.12" y1="89.03" x2="66.98" y2="89.21"/>
    <path class="cls-1" d="M118.35,159a16.7,16.7,0,0,1,4.88,1.91"/>
    <line class="cls-1" x1="118.35" y1="158.98" x2="97.69" y2="154.77"/>
    <path class="cls-1" d="M97.69,154.77a10.07,10.07,0,0,1-3.85-1.83,18.81,18.81,0,0,1-3.1-2.95,31.13,31.13,0,0,1-4.46-7.31"/>
    <line class="cls-1" x1="85.61" y1="130.82" x2="85.76" y2="130.67"/>
    <line class="cls-1" x1="125.38" y1="162.11" x2="125.35" y2="162.13"/>
    <line class="cls-1" x1="73.05" y1="102.77" x2="73.23" y2="102.72"/>
    <line class="cls-1" x1="131.88" y1="165.83" x2="131.9" y2="180.05"/>
    <line class="cls-1" x1="95.87" y1="127.36" x2="85.44" y2="130.45"/>
    <line class="cls-1" x1="105.39" y1="132.36" x2="88.61" y2="137.54"/>
    <line class="cls-1" x1="96.24" y1="127.55" x2="85.76" y2="130.67"/>
    <line class="cls-1" x1="79.3" y1="116.74" x2="79.45" y2="116.58"/>
    <line class="cls-1" x1="134.4" y1="108.77" x2="134.29" y2="108.56"/>
    <line class="cls-1" x1="137.51" y1="115.27" x2="137.39" y2="115.02"/>
    <line class="cls-1" x1="119.14" y1="76.94" x2="119.13" y2="76.9"/>
    <line class="cls-1" x1="115.49" y1="114.18" x2="115.48" y2="113.93"/>
    <line class="cls-1" x1="115.59" y1="121.79" x2="115.59" y2="121.5"/>
    <line class="cls-1" x1="120.76" y1="112.67" x2="120.75" y2="112.43"/>
    <line class="cls-1" x1="120.83" y1="120.23" x2="120.83" y2="119.94"/>
    <line class="cls-1" x1="73.24" y1="102.7" x2="73.1" y2="102.87"/>
    <line class="cls-1" x1="220.97" y1="150.91" x2="181.76" y2="133.48"/>
    <line class="cls-1" x1="92.6" y1="144.42" x2="92.59" y2="144.63"/>
    <line class="cls-1" x1="161.04" y1="182.5" x2="123.23" y2="160.89"/>
    <line class="cls-1" x1="86.28" y1="142.68" x2="51.75" y2="65.11"/>
    <line class="cls-1" x1="70.17" y1="95.84" x2="70.03" y2="96.01"/>
    <path class="cls-1" d="M181.76,133.48a21.68,21.68,0,0,0-6.31-1.78"/>
    <line class="cls-1" x1="175.45" y1="131.7" x2="153.52" y2="129.22"/>
    <path class="cls-1" d="M145.83,122.33a16.08,16.08,0,0,0,3,4.39,8.17,8.17,0,0,0,4.64,2.5"/>
    <line class="cls-1" x1="145.83" y1="122.33" x2="111.37" y2="50.81"/>
    <line class="cls-1" x1="76.33" y1="109.62" x2="76.19" y2="109.78"/>
    <line class="cls-1" x1="79.08" y1="115.76" x2="78.94" y2="115.92"/>
    <line class="cls-1" x1="133.59" y1="101.49" x2="134.59" y2="100.56"/>
    <line class="cls-1" x1="134.59" y1="100.56" x2="131.88" y2="94.94"/>
    <line class="cls-1" x1="76.33" y1="109.62" x2="76.19" y2="109.78"/>
    <line class="cls-1" x1="76.33" y1="109.62" x2="79.08" y2="115.76"/>
    <line class="cls-1" x1="136.66" y1="107.88" x2="137.67" y2="106.97"/>
    <line class="cls-1" x1="137.67" y1="106.97" x2="134.95" y2="101.31"/>
    <line class="cls-1" x1="79.45" y1="116.58" x2="82.1" y2="122.49"/>
    <line class="cls-1" x1="137.2" y1="160.94" x2="137.2" y2="161.13"/>
    <line class="cls-1" x1="194.76" y1="139.81" x2="189.59" y2="137.51"/>
    <line class="cls-1" x1="57.75" y1="68.12" x2="57.62" y2="68.3"/>
    <line class="cls-1" x1="55.14" y1="62.29" x2="55.01" y2="62.47"/>
    <line class="cls-1" x1="106.44" y1="149.27" x2="110.67" y2="150.05"/>
    <line class="cls-1" x1="167.06" y1="131.06" x2="162.57" y2="130.55"/>
    <line class="cls-1" x1="110.87" y1="50.91" x2="111.37" y2="50.81"/>
    <line class="cls-1" x1="111.13" y1="51.44" x2="145.13" y2="122.05"/>
    <line class="cls-1" x1="145.83" y1="122.33" x2="111.37" y2="50.81"/>
    <path class="cls-1" d="M145.83,122.33a16.08,16.08,0,0,0,3,4.39,8.17,8.17,0,0,0,4.64,2.5"/>
    <path class="cls-1" d="M153,129.39a6.19,6.19,0,0,1-1.35-.33"/>
    <line class="cls-1" x1="153.02" y1="129.39" x2="174.94" y2="131.87"/>
    <line class="cls-1" x1="175.45" y1="131.7" x2="153.52" y2="129.22"/>
    <path class="cls-1" d="M174.94,131.87a21.61,21.61,0,0,1,6.31,1.79"/>
    <path class="cls-1" d="M181.76,133.48a21.68,21.68,0,0,0-6.31-1.78"/>
    <line class="cls-1" x1="141.15" y1="114.19" x2="103.02" y2="125.53"/>
    <line class="cls-1" x1="143.91" y1="119.92" x2="111.52" y2="129.89"/>
    <line class="cls-1" x1="142.87" y1="120.8" x2="112.23" y2="130.25"/>
    <line class="cls-1" x1="171.55" y1="170.32" x2="161.26" y2="174.46"/>
    <line class="cls-1" x1="161.26" y1="174.46" x2="126.36" y2="155.13"/>
    <line class="cls-1" x1="181.25" y1="133.66" x2="219.88" y2="150.86"/>
    <line class="cls-1" x1="123.18" y1="153.92" x2="161.2" y2="175.02"/>
    <path class="cls-1" d="M123.79,153.71a20,20,0,0,0-6-2.25"/>
    <path class="cls-1" d="M117.15,151.67a20,20,0,0,1,6,2.25"/>
    <line class="cls-1" x1="117.76" y1="151.46" x2="97.11" y2="147.66"/>
    <path class="cls-1" d="M96.52,147.86A8.56,8.56,0,0,1,92,144.79a19.81,19.81,0,0,1-2.91-4.73"/>
    <path class="cls-1" d="M89.66,139.88a19.89,19.89,0,0,0,2.91,4.73,8.53,8.53,0,0,0,4.54,3"/>
    <line class="cls-1" x1="81.95" y1="122.65" x2="54.92" y2="62.26"/>
    <line class="cls-1" x1="89.66" y1="139.88" x2="82.36" y2="123.57"/>
    <line class="cls-1" x1="81.77" y1="123.74" x2="89.07" y2="140.06"/>
    <line class="cls-1" x1="54.07" y1="61.79" x2="81.5" y2="123.12"/>
    <line class="cls-1" x1="86.28" y1="142.68" x2="51.75" y2="65.11"/>
    <line class="cls-1" x1="161.04" y1="182.5" x2="123.23" y2="160.89"/>
    <line class="cls-1" x1="61.09" y1="75.56" x2="60.95" y2="75.74"/>
    <line class="cls-1" x1="61.09" y1="75.56" x2="63.74" y2="81.48"/>
    <line class="cls-1" x1="116.86" y1="63.73" x2="61.09" y2="75.56"/>
    <line class="cls-1" x1="118.54" y1="70.17" x2="119.47" y2="69.16"/>
    <line class="cls-1" x1="119.47" y1="69.16" x2="63.74" y2="81.48"/>
    <line class="cls-1" x1="64.09" y1="82.28" x2="63.9" y2="82.32"/>
    <line class="cls-1" x1="92.6" y1="144.42" x2="92.59" y2="144.63"/>
    <line class="cls-1" x1="152.18" y1="129.39" x2="147.93" y2="126.7"/>
    <line class="cls-1" x1="114.8" y1="137.31" x2="92.6" y2="144.42"/>
    <line class="cls-1" x1="147.93" y1="126.7" x2="121.7" y2="135.1"/>
    <line class="cls-1" x1="152.18" y1="129.39" x2="126.75" y2="137.69"/>
    <line class="cls-1" x1="122.81" y1="76.08" x2="67.12" y2="89.03"/>
    <line class="cls-1" x1="125.46" y1="81.59" x2="69.81" y2="95.04"/>
    <line class="cls-1" x1="124.49" y1="82.57" x2="69.94" y2="95.82"/>
    <line class="cls-1" x1="138.04" y1="107.72" x2="93.27" y2="120.54"/>
    <line class="cls-1" x1="140.78" y1="113.42" x2="101.87" y2="124.95"/>
    <line class="cls-1" x1="139.75" y1="114.32" x2="102.64" y2="125.34"/>
    <path class="cls-1" d="M84.18,121.35a.54.54,0,0,1,.39.06"/>
    <line class="cls-1" x1="131.84" y1="142.66" x2="131.85" y2="153.3"/>
    <line class="cls-1" x1="83.97" y1="121.48" x2="81.77" y2="123.74"/>
    <line class="cls-1" x1="81.5" y1="123.12" x2="83.69" y2="120.85"/>
    <line class="cls-1" x1="125.48" y1="182.1" x2="125.35" y2="162.13"/>
    <line class="cls-1" x1="125.3" y1="155.07" x2="125.23" y2="144.46"/>
    <line class="cls-1" x1="125.71" y1="144.72" x2="125.78" y2="155.34"/>
    <path class="cls-1" d="M130.21,139.46a3,3,0,0,1,1.2,1.39,4.37,4.37,0,0,1,.43,1.81"/>
    <path class="cls-1" d="M125.71,144.72a4.37,4.37,0,0,0-.42-1.82,3.11,3.11,0,0,0-1.2-1.41"/>
    <path class="cls-1" d="M124.09,142.2a2.18,2.18,0,0,1,.84,1,3.11,3.11,0,0,1,.3,1.27"/>
    <path class="cls-1" d="M125.48,182.1a1.62,1.62,0,0,1-.09.57.67.67,0,0,1-.37.42"/>
    <line class="cls-1" x1="90.43" y1="119.09" x2="130.21" y2="139.46"/>
    <line class="cls-1" x1="84.57" y1="121.41" x2="124.09" y2="142.2"/>
    <line class="cls-1" x1="124.09" y1="141.49" x2="84.55" y2="120.75"/>
    <line class="cls-1" x1="126.42" y1="155.11" x2="125.78" y2="155.34"/>
    <line class="cls-1" x1="81.77" y1="123.74" x2="81.5" y2="123.12"/>
    <line class="cls-1" x1="82.39" y1="123.57" x2="81.77" y2="123.74"/>
    <line class="cls-1" x1="161.2" y1="175.02" x2="162.14" y2="175.54"/>
    <line class="cls-1" x1="220.97" y1="150.91" x2="181.76" y2="133.48"/>
    <line class="cls-1" x1="222.05" y1="152.12" x2="164.13" y2="175.64"/>
    <line class="cls-1" x1="161.2" y1="175.02" x2="220.97" y2="150.91"/>
    <line class="cls-1" x1="161.04" y1="182.5" x2="161.2" y2="175.02"/>
    <line class="cls-1" x1="195.46" y1="140.12" x2="137.87" y2="161.32"/>
    <line class="cls-1" x1="58.1" y1="68.9" x2="57.97" y2="69.08"/>
    <line class="cls-1" x1="113.91" y1="57.61" x2="58.1" y2="68.9"/>
    <line class="cls-1" x1="213.92" y1="148.35" x2="155.81" y2="171.24"/>
    <line class="cls-1" x1="183.87" y1="134.96" x2="126.68" y2="155.12"/>
    <line class="cls-1" x1="188.91" y1="137.21" x2="131.54" y2="157.82"/>
    <line class="cls-1" x1="116.18" y1="151.06" x2="120.68" y2="152.13"/>
    <line class="cls-1" x1="172.88" y1="131.72" x2="131.84" y2="145.72"/>
    <line class="cls-1" x1="73.24" y1="102.7" x2="73.1" y2="102.87"/>
    <line class="cls-1" x1="73.24" y1="102.7" x2="75.97" y2="108.8"/>
    <line class="cls-1" x1="128.84" y1="88.61" x2="73.24" y2="102.7"/>
    <line class="cls-1" x1="130.53" y1="95.14" x2="76.07" y2="109.52"/>
    <line class="cls-1" x1="125.81" y1="82.32" x2="70.17" y2="95.84"/>
    <line class="cls-1" x1="127.5" y1="88.83" x2="72.99" y2="102.64"/>
    <line class="cls-1" x1="64.09" y1="82.27" x2="63.95" y2="82.45"/>
    <line class="cls-1" x1="64.09" y1="82.27" x2="66.76" y2="88.23"/>
    <line class="cls-1" x1="119.82" y1="69.88" x2="64.09" y2="82.27"/>
    <line class="cls-1" x1="121.5" y1="76.35" x2="66.91" y2="89.04"/>
    <line class="cls-1" x1="157.6" y1="129.98" x2="129.69" y2="139.19"/>
    <line class="cls-1" x1="207.61" y1="145.54" x2="149.67" y2="167.84"/>
    <line class="cls-1" x1="97.2" y1="147.58" x2="101.22" y2="148.32"/>
    <line class="cls-1" x1="152.74" y1="129.43" x2="127.03" y2="137.83"/>
    <line class="cls-1" x1="167.66" y1="131.12" x2="131.84" y2="143.21"/>
    <line class="cls-1" x1="201.46" y1="142.8" x2="143.69" y2="164.54"/>
    <line class="cls-1" x1="178.28" y1="132.67" x2="131.85" y2="148.72"/>
    <line class="cls-1" x1="147.42" y1="126.13" x2="144.33" y2="120.64"/>
    <line class="cls-1" x1="144.33" y1="120.64" x2="112.6" y2="130.44"/>
    <line class="cls-1" x1="146.46" y1="127.18" x2="147.42" y2="126.13"/>
    <line class="cls-1" x1="92.6" y1="144.42" x2="92.45" y2="144.47"/>
    <line class="cls-1" x1="146.46" y1="127.18" x2="121.7" y2="135.1"/>
    <line class="cls-1" x1="219.88" y1="150.86" x2="211.15" y2="154.38"/>
    <line class="cls-1" x1="162.57" y1="130.55" x2="131.45" y2="140.93"/>
    <line class="cls-1" x1="113.57" y1="56.89" x2="110.99" y2="51.54"/>
    <line class="cls-1" x1="55.14" y1="62.29" x2="57.75" y2="68.12"/>
    <line class="cls-1" x1="110.99" y1="51.54" x2="55.14" y2="62.29"/>
    <line class="cls-1" x1="189.59" y1="137.51" x2="132.2" y2="158.18"/>
    <line class="cls-1" x1="134.95" y1="101.31" x2="79.45" y2="116.58"/>
    <line class="cls-1" x1="136.66" y1="107.88" x2="92.95" y2="120.38"/>
    <line class="cls-1" x1="131.88" y1="94.94" x2="76.33" y2="109.62"/>
    <line class="cls-1" x1="133.59" y1="101.49" x2="79.17" y2="116.45"/>
    <line class="cls-1" x1="95.11" y1="126.95" x2="85.39" y2="129.83"/>
    <line class="cls-1" x1="152.16" y1="129.62" x2="152.18" y2="129.39"/>
    <line class="cls-1" x1="137.87" y1="161.5" x2="137.87" y2="161.32"/>
    <line class="cls-1" x1="61.05" y1="75.61" x2="60.91" y2="75.64"/>
    <line class="cls-1" x1="155.81" y1="171.44" x2="155.81" y2="171.24"/>
    <line class="cls-1" x1="126.68" y1="155.31" x2="126.68" y2="155.12"/>
    <line class="cls-1" x1="125.25" y1="147.96" x2="116.18" y2="151.06"/>
    <line class="cls-1" x1="125.27" y1="150.55" x2="120.68" y2="152.13"/>
    <line class="cls-1" x1="122.74" y1="141.49" x2="101.76" y2="148.42"/>
    <line class="cls-1" x1="149.67" y1="168.04" x2="149.67" y2="167.84"/>
    <line class="cls-1" x1="120.1" y1="140.1" x2="97.2" y2="147.58"/>
    <line class="cls-1" x1="111.26" y1="150.26" x2="111.24" y2="150.16"/>
    <line class="cls-1" x1="125.24" y1="145.43" x2="111.24" y2="150.16"/>
    <line class="cls-1" x1="143.69" y1="164.73" x2="143.69" y2="164.54"/>
    <line class="cls-1" x1="125.27" y1="150.99" x2="121.3" y2="152.37"/>
    <line class="cls-1" x1="105.76" y1="132.56" x2="89" y2="137.74"/>
    <line class="cls-1" x1="114.8" y1="137.31" x2="114.8" y2="137.31"/>
    <line class="cls-1" x1="106.46" y1="149.38" x2="106.44" y2="149.27"/>
    <line class="cls-1" x1="124.9" y1="143.12" x2="106.44" y2="149.27"/>
    <line class="cls-1" x1="132.2" y1="158.37" x2="132.2" y2="158.18"/>
    <line class="cls-1" x1="115.95" y1="121.39" x2="115.96" y2="121.68"/>
    <line class="cls-1" x1="116.05" y1="129.07" x2="116.06" y2="129.37"/>
    <line class="cls-1" x1="120.83" y1="120.23" x2="120.83" y2="119.94"/>
    <line class="cls-1" x1="120.76" y1="112.67" x2="120.75" y2="112.43"/>
    <line class="cls-1" x1="115.59" y1="121.79" x2="115.59" y2="121.5"/>
    <line class="cls-1" x1="115.49" y1="114.18" x2="115.48" y2="113.93"/>
    <line class="cls-1" x1="119.14" y1="76.94" x2="119.13" y2="76.9"/>
    <line class="cls-1" x1="115.63" y1="63.99" x2="116.51" y2="63"/>
    <line class="cls-1" x1="124.76" y1="142.88" x2="105.88" y2="149.17"/>
    <line class="cls-1" x1="122.42" y1="141.32" x2="101.22" y2="148.32"/>
    <line class="cls-1" x1="125.25" y1="147.66" x2="115.59" y2="150.95"/>
    <line class="cls-1" x1="113.88" y1="136.83" x2="92.1" y2="143.78"/>
    <line class="cls-1" x1="125.24" y1="145.14" x2="110.67" y2="150.05"/>
    <line class="cls-1" x1="137.51" y1="115.27" x2="137.39" y2="115.02"/>
    <line class="cls-1" x1="134.4" y1="108.77" x2="134.29" y2="108.56"/>
    <line class="cls-1" x1="97.22" y1="147.68" x2="97.2" y2="147.58"/>
    <path class="cls-1" d="M148.74,127.21a13.47,13.47,0,0,1-2.06-2.4"/>
    <line class="cls-1" x1="79.3" y1="116.74" x2="79.45" y2="116.58"/>
    <line class="cls-1" x1="82.59" y1="123.6" x2="85.39" y2="129.83"/>
    <line class="cls-1" x1="104.69" y1="131.99" x2="88.57" y2="136.95"/>
    <line class="cls-1" x1="96.24" y1="127.55" x2="85.76" y2="130.67"/>
    <line class="cls-1" x1="105.39" y1="132.36" x2="88.61" y2="137.54"/>
    <line class="cls-1" x1="125.3" y1="154.54" x2="123.79" y2="153.71"/>
    <line class="cls-1" x1="119.82" y1="139.95" x2="96.68" y2="147.51"/>
    <line class="cls-1" x1="86.57" y1="122.46" x2="82.59" y2="123.6"/>
    <line class="cls-1" x1="95.87" y1="127.36" x2="85.44" y2="130.45"/>
    <line class="cls-1" x1="131.88" y1="165.83" x2="131.9" y2="180.05"/>
    <line class="cls-1" x1="73.05" y1="102.77" x2="73.23" y2="102.72"/>
    <line class="cls-1" x1="82.37" y1="123.59" x2="82.39" y2="123.57"/>
    <line class="cls-1" x1="126.42" y1="155.16" x2="126.42" y2="155.11"/>
    <line class="cls-1" x1="125.38" y1="162.11" x2="125.35" y2="162.13"/>
    <line class="cls-1" x1="110.87" y1="50.91" x2="102.36" y2="52.54"/>
    <line class="cls-1" x1="85.61" y1="130.82" x2="85.76" y2="130.67"/>
    <line class="cls-1" x1="85.76" y1="130.67" x2="88.57" y2="136.95"/>
    <line class="cls-1" x1="143.91" y1="119.92" x2="141.15" y2="114.19"/>
    <line class="cls-1" x1="142.87" y1="120.8" x2="143.91" y2="119.92"/>
    <line class="cls-1" x1="88.57" y1="136.95" x2="88.42" y2="137.1"/>
    <line class="cls-1" x1="54.92" y1="62.26" x2="64.63" y2="60.39"/>
    <line class="cls-1" x1="172.11" y1="170.62" x2="171.55" y2="170.32"/>
    <line class="cls-1" x1="64.63" y1="60.39" x2="64.57" y2="60.47"/>
    <line class="cls-1" x1="64.37" y1="59.81" x2="54.66" y2="61.68"/>
    <line class="cls-1" x1="64.63" y1="60.39" x2="64.37" y2="59.81"/>
    <line class="cls-1" x1="102.36" y1="52.54" x2="102.62" y2="53.08"/>
    <line class="cls-1" x1="102.36" y1="52.54" x2="101.72" y2="53.32"/>
    <line class="cls-1" x1="211.15" y1="154.38" x2="211.72" y2="154.64"/>
    <line class="cls-1" x1="211.15" y1="154.38" x2="211.12" y2="154.89"/>
    <line class="cls-1" x1="54.07" y1="61.79" x2="54.66" y2="61.68"/>
    <line class="cls-1" x1="51.75" y1="65.11" x2="54.07" y2="61.79"/>
    <path class="cls-1" d="M97.69,154.77a10.07,10.07,0,0,1-3.85-1.83,18.81,18.81,0,0,1-3.1-2.95,31.13,31.13,0,0,1-4.46-7.31"/>
    <line class="cls-1" x1="118.35" y1="158.98" x2="97.69" y2="154.77"/>
    <path class="cls-1" d="M118.35,159a16.7,16.7,0,0,1,4.88,1.91"/>
    <line class="cls-1" x1="119.47" y1="69.16" x2="116.86" y2="63.73"/>
    <line class="cls-1" x1="63.74" y1="81.48" x2="63.6" y2="81.66"/>
    <line class="cls-1" x1="92.6" y1="144.42" x2="96.68" y2="147.51"/>
    <line class="cls-1" x1="96.68" y1="147.51" x2="96.68" y2="147.56"/>
    <line class="cls-1" x1="67.12" y1="89.03" x2="69.81" y2="95.04"/>
    <line class="cls-1" x1="67.12" y1="89.03" x2="66.98" y2="89.21"/>
    <line class="cls-1" x1="125.46" y1="81.59" x2="122.81" y2="76.08"/>
    <line class="cls-1" x1="124.49" y1="82.57" x2="125.46" y2="81.59"/>
    <line class="cls-1" x1="69.81" y1="95.04" x2="69.67" y2="95.21"/>
    <line class="cls-1" x1="82.59" y1="123.6" x2="82.44" y2="123.75"/>
    <line class="cls-1" x1="140.78" y1="113.42" x2="138.04" y2="107.72"/>
    <line class="cls-1" x1="139.75" y1="114.32" x2="140.78" y2="113.42"/>
    <line class="cls-1" x1="85.39" y1="129.83" x2="85.23" y2="129.99"/>
    <path class="cls-1" d="M125.3,183.81a1,1,0,0,0,.53-.61,2.45,2.45,0,0,0,.12-.81"/>
    <line class="cls-1" x1="124.4" y1="182.99" x2="67.22" y2="147.41"/>
    <line class="cls-1" x1="69.86" y1="105.79" x2="64.89" y2="111.52"/>
    <line class="cls-1" x1="111.13" y1="51.44" x2="111.01" y2="51.58"/>
    <line class="cls-1" x1="128.23" y1="95.9" x2="128.16" y2="95.76"/>
    <line class="cls-1" x1="125.83" y1="162.4" x2="125.95" y2="182.39"/>
    <line class="cls-1" x1="131.3" y1="102.31" x2="131.22" y2="102.14"/>
    <line class="cls-1" x1="102.55" y1="53.16" x2="102.62" y2="53.08"/>
    <line class="cls-1" x1="194.76" y1="139.81" x2="137.2" y2="160.94"/>
    <line class="cls-1" x1="113.57" y1="56.89" x2="57.75" y2="68.12"/>
    <path class="cls-1" d="M84.55,120.75a.78.78,0,0,0-.56-.08"/>
    <line class="cls-1" x1="92.1" y1="143.78" x2="92" y2="143.9"/>
    <line class="cls-1" x1="89" y1="137.74" x2="88.81" y2="137.98"/>
    <line class="cls-1" x1="131.24" y1="181.47" x2="125.3" y2="183.81"/>
    <path class="cls-1" d="M89.86,119a.75.75,0,0,1,.57.08"/>
    <path class="cls-1" d="M84,120.67a.61.61,0,0,0-.3.18"/>
    <line class="cls-1" x1="83.99" y1="120.67" x2="89.86" y2="119.01"/>
    <path class="cls-1" d="M125,183.09a.69.69,0,0,1-.62-.1"/>
    <line class="cls-1" x1="67.25" y1="148.01" x2="124.4" y2="183.66"/>
    <line class="cls-1" x1="72.79" y1="145.66" x2="125.45" y2="177.69"/>
    <line class="cls-1" x1="89" y1="137.74" x2="92.1" y2="143.78"/>
    <line class="cls-1" x1="70.63" y1="110.01" x2="71.37" y2="109.18"/>
    <line class="cls-1" x1="64.63" y1="110.93" x2="69.59" y2="105.18"/>
    <path class="cls-1" d="M66,145.3a4.5,4.5,0,0,0,.35,1.49,2.79,2.79,0,0,0,.91,1.22"/>
    <path class="cls-1" d="M67.22,147.41a2,2,0,0,1-.64-.85,3.5,3.5,0,0,1-.25-1.05"/>
    <path class="cls-1" d="M71.91,143.78a3.11,3.11,0,0,0,.25,1,1.81,1.81,0,0,0,.63.84"/>
    <line class="cls-1" x1="183.21" y1="134.66" x2="178.28" y2="132.67"/>
    <line class="cls-1" x1="70.4" y1="110.95" x2="71.91" y2="143.78"/>
    <line class="cls-1" x1="66.33" y1="145.51" x2="64.67" y2="112.46"/>
    <line class="cls-1" x1="148.96" y1="167.45" x2="148.96" y2="167.64"/>
    <line class="cls-1" x1="64.32" y1="112.28" x2="65.99" y2="145.3"/>
    <path class="cls-1" d="M64.63,110.93a2.09,2.09,0,0,0-.31,1.35"/>
    <path class="cls-1" d="M64.67,112.46a1.49,1.49,0,0,1,.22-.94"/>
    <path class="cls-1" d="M70.63,110a1.44,1.44,0,0,0-.23.94"/>
    <line class="cls-1" x1="206.88" y1="145.21" x2="201.46" y2="142.8"/>
    <line class="cls-1" x1="172.26" y1="131.65" x2="167.66" y2="131.12"/>
    <line class="cls-1" x1="86.42" y1="122.38" x2="86.42" y2="122.39"/>
    <path class="cls-1" d="M131.9,180.05a2.22,2.22,0,0,1-.13.81,1,1,0,0,1-.53.61"/>
    <path class="cls-1" d="M124.4,183.66a1,1,0,0,0,.9.15"/>
    <path class="cls-1" d="M84,121.48a.5.5,0,0,1,.21-.13"/>
    <line class="cls-1" x1="115.59" y1="150.95" x2="115.61" y2="151.06"/>
    <line class="cls-1" x1="157.02" y1="129.92" x2="152.74" y2="129.43"/>
    <line class="cls-1" x1="101.22" y1="148.32" x2="101.24" y2="148.42"/>
    <line class="cls-1" x1="155.08" y1="170.84" x2="155.08" y2="171.03"/>
    <line class="cls-1" x1="125.83" y1="162.4" x2="125.86" y2="162.39"/>
    <line class="cls-1" x1="125.35" y1="162.13" x2="125.83" y2="162.4"/>
    <line class="cls-1" x1="125.78" y1="155.34" x2="125.3" y2="155.07"/>
    <line class="cls-1" x1="137.87" y1="161.32" x2="143" y2="164.15"/>
    <line class="cls-1" x1="200.75" y1="142.48" x2="143" y2="164.15"/>
    <line class="cls-1" x1="58.1" y1="68.9" x2="60.73" y2="74.77"/>
    <line class="cls-1" x1="116.51" y1="63" x2="60.73" y2="74.77"/>
    <line class="cls-1" x1="155.81" y1="171.24" x2="161.38" y2="174.32"/>
    <line class="cls-1" x1="219.61" y1="150.89" x2="161.38" y2="174.32"/>
    <line class="cls-1" x1="126.68" y1="155.12" x2="131.54" y2="157.82"/>
    <line class="cls-1" x1="116.18" y1="151.06" x2="116.19" y2="151.17"/>
    <line class="cls-1" x1="177.63" y1="132.49" x2="131.85" y2="148.28"/>
    <line class="cls-1" x1="131.52" y1="94.19" x2="75.97" y2="108.8"/>
    <line class="cls-1" x1="128.48" y1="87.87" x2="72.88" y2="101.89"/>
    <line class="cls-1" x1="101.76" y1="148.42" x2="101.78" y2="148.52"/>
    <line class="cls-1" x1="143.69" y1="164.54" x2="148.96" y2="167.45"/>
    <line class="cls-1" x1="121.3" y1="152.37" x2="121.3" y2="152.51"/>
    <line class="cls-1" x1="121.3" y1="152.37" x2="125.3" y2="154.39"/>
    <line class="cls-1" x1="102.62" y1="53.08" x2="111.13" y2="51.44"/>
    <line class="cls-1" x1="213.17" y1="148.01" x2="207.61" y2="145.54"/>
    <line class="cls-1" x1="132.2" y1="158.18" x2="137.2" y2="160.94"/>
    <line class="cls-1" x1="137.67" y1="106.97" x2="92.11" y2="119.95"/>
    <line class="cls-1" x1="134.59" y1="100.56" x2="79.08" y2="115.76"/>
    <line class="cls-1" x1="219.61" y1="150.97" x2="219.61" y2="150.89"/>
    <line class="cls-1" x1="102.36" y1="52.54" x2="64.37" y2="59.81"/>
    <line class="cls-1" x1="200.72" y1="143.08" x2="200.75" y2="142.48"/>
    <line class="cls-1" x1="188.89" y1="137.76" x2="188.91" y2="137.21"/>
    <line class="cls-1" x1="115.76" y1="106.39" x2="115.76" y2="106.59"/>
    <line class="cls-1" x1="115.85" y1="113.83" x2="115.86" y2="114.08"/>
    <line class="cls-1" x1="120.9" y1="127.88" x2="120.9" y2="127.58"/>
    <line class="cls-1" x1="120.68" y1="105.23" x2="120.68" y2="105.03"/>
    <line class="cls-1" x1="120.61" y1="97.92" x2="120.61" y2="97.76"/>
    <line class="cls-1" x1="115.69" y1="129.49" x2="115.69" y2="129.18"/>
    <line class="cls-1" x1="115.39" y1="106.69" x2="115.38" y2="106.49"/>
    <line class="cls-1" x1="115.29" y1="99.32" x2="115.29" y2="99.16"/>
    <line class="cls-1" x1="177.68" y1="132.88" x2="177.63" y2="132.49"/>
    <line class="cls-1" x1="58.03" y1="69" x2="57.94" y2="69.02"/>
    <line class="cls-1" x1="213.13" y1="148.66" x2="213.17" y2="148.01"/>
    <line class="cls-1" x1="172.3" y1="131.92" x2="172.26" y2="131.65"/>
    <line class="cls-1" x1="183.2" y1="135.19" x2="183.21" y2="134.66"/>
    <line class="cls-1" x1="125.18" y1="89.54" x2="125.13" y2="89.43"/>
    <line class="cls-1" x1="122.15" y1="83.21" x2="122.12" y2="83.15"/>
    <line class="cls-1" x1="112.74" y1="57.85" x2="113.57" y2="56.89"/>
    <line class="cls-1" x1="194.73" y1="140.39" x2="194.76" y2="139.81"/>
    <path class="cls-1" d="M53.67,60a.87.87,0,0,0,0,.84"/>
    <line class="cls-1" x1="101.76" y1="148.42" x2="105.88" y2="149.17"/>
    <line class="cls-1" x1="51.36" y1="63.32" x2="53.67" y2="59.98"/>
    <path class="cls-1" d="M51.32,64.15a.85.85,0,0,1,0-.83"/>
    <path class="cls-1" d="M54.18,59.67a.77.77,0,0,0-.51.31"/>
    <path class="cls-1" d="M111,49.92a1.43,1.43,0,0,0-.53-.56,1.12,1.12,0,0,0-.74-.17"/>
    <line class="cls-1" x1="51.75" y1="65.11" x2="51.32" y2="64.15"/>
    <line class="cls-1" x1="111.37" y1="50.81" x2="110.95" y2="49.92"/>
    <line class="cls-1" x1="53.63" y1="60.82" x2="54.07" y2="61.79"/>
    <line class="cls-1" x1="109.68" y1="49.19" x2="54.18" y2="59.67"/>
    <line class="cls-1" x1="161.98" y1="130.48" x2="157.6" y2="129.98"/>
    <path class="cls-1" d="M221.92,158.71c0,.17-.2.28-.33.33"/>
    <path class="cls-1" d="M222.37,151.79a.36.36,0,0,0-.15-.28,1,1,0,0,0-.28-.17"/>
    <line class="cls-1" x1="222.37" y1="151.79" x2="221.92" y2="158.71"/>
    <path class="cls-1" d="M162.14,175.54a2.59,2.59,0,0,0,2,.1"/>
    <path class="cls-1" d="M164,183.13a2.48,2.48,0,0,1-2-.1"/>
    <path class="cls-1" d="M222.05,152.12c.12-.05.31-.16.32-.33"/>
    <line class="cls-1" x1="221.94" y1="151.34" x2="220.97" y2="150.91"/>
    <line class="cls-1" x1="161.98" y1="183.03" x2="161.04" y2="182.5"/>
    <line class="cls-1" x1="221.59" y1="159.04" x2="163.96" y2="183.13"/>
    <line class="cls-1" x1="200.75" y1="142.48" x2="195.46" y2="140.12"/>
    <line class="cls-1" x1="143" y1="164.15" x2="143" y2="164.34"/>
    <line class="cls-1" x1="116.51" y1="63" x2="113.91" y2="57.61"/>
    <line class="cls-1" x1="60.73" y1="74.77" x2="60.6" y2="74.95"/>
    <line class="cls-1" x1="219.61" y1="150.89" x2="213.92" y2="148.35"/>
    <line class="cls-1" x1="161.38" y1="174.32" x2="161.37" y2="174.41"/>
    <line class="cls-1" x1="188.91" y1="137.21" x2="183.87" y2="134.96"/>
    <line class="cls-1" x1="131.54" y1="157.82" x2="131.54" y2="158"/>
    <line class="cls-1" x1="115.66" y1="99.07" x2="115.66" y2="99.22"/>
    <line class="cls-1" x1="177.63" y1="132.49" x2="172.88" y2="131.72"/>
    <line class="cls-1" x1="120.68" y1="152.13" x2="120.7" y2="152.28"/>
    <line class="cls-1" x1="131.52" y1="94.19" x2="128.84" y2="88.61"/>
    <line class="cls-1" x1="130.53" y1="95.14" x2="131.52" y2="94.19"/>
    <line class="cls-1" x1="75.97" y1="108.8" x2="75.82" y2="108.96"/>
    <line class="cls-1" x1="70.17" y1="95.84" x2="72.88" y2="101.89"/>
    <line class="cls-1" x1="70.17" y1="95.84" x2="70.03" y2="96.01"/>
    <line class="cls-1" x1="128.48" y1="87.87" x2="125.81" y2="82.32"/>
    <line class="cls-1" x1="127.5" y1="88.83" x2="128.48" y2="87.87"/>
    <line class="cls-1" x1="72.88" y1="101.89" x2="72.73" y2="102.06"/>
    <line class="cls-1" x1="122.45" y1="75.35" x2="66.76" y2="88.23"/>
    <line class="cls-1" x1="161.98" y1="130.48" x2="131.33" y2="140.69"/>
    <line class="cls-1" x1="213.17" y1="148.01" x2="155.08" y2="170.84"/>
    <line class="cls-1" x1="157.02" y1="129.92" x2="129.37" y2="139.03"/>
    <line class="cls-1" x1="111.24" y1="150.16" x2="115.59" y2="150.95"/>
    <line class="cls-1" x1="172.26" y1="131.65" x2="131.84" y2="145.42"/>
    <line class="cls-1" x1="206.88" y1="145.21" x2="148.96" y2="167.45"/>
    <line class="cls-1" x1="183.21" y1="134.66" x2="131.85" y2="152.72"/>
    <line class="cls-1" x1="147.42" y1="126.13" x2="120.78" y2="134.63"/>
    <line class="cls-1" x1="211.65" y1="154.18" x2="211.65" y2="154.18"/>
    <line class="cls-1" x1="110.67" y1="150.05" x2="110.69" y2="150.16"/>
    <line class="cls-1" x1="167.06" y1="131.06" x2="131.84" y2="142.92"/>
    <line class="cls-1" x1="162.02" y1="130.73" x2="161.98" y2="130.48"/>
    <line class="cls-1" x1="193.44" y1="145.82" x2="193.44" y2="145.82"/>
    <line class="cls-1" x1="66.76" y1="88.23" x2="66.62" y2="88.41"/>
    <line class="cls-1" x1="140.63" y1="121.78" x2="140.51" y2="121.53"/>
    <line class="cls-1" x1="167.1" y1="131.32" x2="167.06" y2="131.06"/>
    <line class="cls-1" x1="149.67" y1="167.84" x2="155.08" y2="170.84"/>
    <line class="cls-1" x1="206.85" y1="145.83" x2="206.88" y2="145.21"/>
    <line class="cls-1" x1="105.88" y1="149.17" x2="105.9" y2="149.28"/>
    <line class="cls-1" x1="157.06" y1="130.16" x2="157.02" y2="129.92"/>
    <line class="cls-1" x1="122.45" y1="75.35" x2="119.82" y2="69.88"/>
    <line class="cls-1" x1="121.5" y1="76.35" x2="122.45" y2="75.35"/>
    <line class="cls-1" x1="96.52" y1="147.86" x2="117.15" y2="151.67"/>
    <line class="cls-1" x1="110.87" y1="50.91" x2="111.13" y2="51.44"/>
    <line class="cls-1" x1="84.42" y1="121.35" x2="83.97" y2="121.48"/>
    <line class="cls-1" x1="54.92" y1="62.26" x2="54.66" y2="61.68"/>
    <line class="cls-1" x1="117.15" y1="151.67" x2="117.76" y2="151.46"/>
    <line class="cls-1" x1="97.11" y1="147.66" x2="96.52" y2="147.86"/>
    <line class="cls-1" x1="219.88" y1="150.86" x2="220.46" y2="151.12"/>
    <line class="cls-1" x1="161.83" y1="174.77" x2="161.26" y2="174.46"/>
    <line class="cls-1" x1="174.94" y1="131.87" x2="175.45" y2="131.7"/>
    <line class="cls-1" x1="153.52" y1="129.22" x2="153.02" y2="129.39"/>
    <line class="cls-1" x1="145.37" y1="122.48" x2="145.83" y2="122.33"/>
  </g>
  <path class="cls-2" d="M52.35,55.8l-.15-32"/>
  <path class="cls-2" d="M110.71,44.61q0-14.55,0-29.11"/>
  <path class="cls-2" d="M52.23,28.24l56.35-8.32"/>
  <path class="cls-2" d="M47.22,61,7.05,69.7"/>
  <path class="cls-2" d="M57.44,146.3,10.13,161"/>
  <path class="cls-2" d="M14.17,159.38q-1.42-45.32-2.86-90.62"/>
  <polyline class="cls-3" points="52.33 28.22 58.02 28.75 57.6 26 52.33 28.22"/>
  <polyline class="cls-3" points="110.7 19.65 105.01 19.04 105.4 21.79 110.7 19.65"/>
  <polyline class="cls-3" points="11.31 68.96 12.9 74.45 10.12 74.55 11.31 68.96"/>
  <polyline class="cls-3" points="14.22 159.64 12.64 154.15 15.41 154.05 14.22 159.64"/>
  <g>
    <g>
      <path class="cls-4" d="M54.55,181l2.89-4.41a2.91,2.91,0,0,1-1.64-.23l.4-.61a2.76,2.76,0,0,0,1.9.05l.54.35-3.45,5.27-.65-.42Z"/>
      <path class="cls-4" d="M57.87,183.28a2.4,2.4,0,0,1-1-1.23,1.9,1.9,0,0,1,.07-1.46l.72.31a1.28,1.28,0,0,0,0,1,1.58,1.58,0,0,0,.66.8,1.32,1.32,0,0,0,1.05.22,1.44,1.44,0,0,0,.88-.66,1.38,1.38,0,0,0,.24-1.08,1.46,1.46,0,0,0-.69-.9,1.57,1.57,0,0,0-1.58-.13l-.43-.43,2.29-2.6,2.81,1.84-.4.61L60.13,178l-1.26,1.43a1.89,1.89,0,0,1,.71,0,1.94,1.94,0,0,1,.66.26,2.16,2.16,0,0,1,1,1.35,2.08,2.08,0,0,1-.34,1.61,2.1,2.1,0,0,1-1.36,1A2.2,2.2,0,0,1,57.87,183.28Z"/>
      <path class="cls-4" d="M62.35,186.21a2.05,2.05,0,0,1-1-1.7,3.92,3.92,0,0,1,.77-2.31,4,4,0,0,1,1.81-1.63,2.26,2.26,0,0,1,3,2,4.7,4.7,0,0,1-2.57,3.93A2.06,2.06,0,0,1,62.35,186.21Zm.4-.62a1.29,1.29,0,0,0,1.33.08,3.41,3.41,0,0,0,1.34-1.3,3.54,3.54,0,0,0,.66-1.75,1.34,1.34,0,0,0-1.94-1.27,3.45,3.45,0,0,0-1.34,1.31,3.51,3.51,0,0,0-.66,1.74,1.3,1.3,0,0,0,.61,1.2Z"/>
      <path class="cls-4" d="M66.84,189.15a2.57,2.57,0,0,1-1.09-1.32,1.67,1.67,0,0,1,.22-1.49,1.55,1.55,0,0,1,.81-.64,1.71,1.71,0,0,1,1,0,1.5,1.5,0,0,1-.26-.83,1.34,1.34,0,0,1,.21-.79,1.47,1.47,0,0,1,1.11-.7,2.19,2.19,0,0,1,1.47.41,2.16,2.16,0,0,1,.94,1.16,1.51,1.51,0,0,1-.2,1.3,1.31,1.31,0,0,1-.64.51,1.57,1.57,0,0,1-.86.09,1.65,1.65,0,0,1,.39,1,1.63,1.63,0,0,1-.27,1,1.69,1.69,0,0,1-1.26.8,2.41,2.41,0,0,1-1.63-.45Zm.38-.6a1.56,1.56,0,0,0,1,.29,1.06,1.06,0,0,0,.79-.51,1.09,1.09,0,0,0,.15-.92,1.81,1.81,0,0,0-1.72-1.13,1.13,1.13,0,0,0-.93,1.43,1.6,1.6,0,0,0,.69.84ZM68.9,186a1.22,1.22,0,0,0,.85.23.92.92,0,0,0,.66-.43.9.9,0,0,0,.14-.77,1.27,1.27,0,0,0-.56-.69,1.38,1.38,0,0,0-.89-.26.87.87,0,0,0-.66.43.92.92,0,0,0-.12.78,1.3,1.3,0,0,0,.57.7Z"/>
    </g>
    <g>
      <path class="cls-4" d="M48.12,191.2a2.4,2.4,0,0,1-1-1.23,1.93,1.93,0,0,1,.07-1.47l.72.31a1.23,1.23,0,0,0,0,1,1.58,1.58,0,0,0,.66.8,1.32,1.32,0,0,0,1.05.22,1.44,1.44,0,0,0,.88-.66,1.38,1.38,0,0,0,.24-1.08,1.46,1.46,0,0,0-.69-.9,1.57,1.57,0,0,0-1.58-.13l-.43-.43,2.29-2.6,2.81,1.84-.4.61-2.3-1.51-1.26,1.43a1.89,1.89,0,0,1,.71,0,1.94,1.94,0,0,1,.66.26,2.16,2.16,0,0,1,1,1.35,2.08,2.08,0,0,1-.34,1.61,2.1,2.1,0,0,1-1.36,1,2.2,2.2,0,0,1-1.67-.39Z"/>
      <path class="cls-4" d="M53.51,192.16a2.2,2.2,0,0,1-1-1.38,2.19,2.19,0,0,1,1.71-2.57,2.35,2.35,0,0,1,1.71.39,2.06,2.06,0,0,1,1,1.59,3.18,3.18,0,0,1-.61,2.1,3.94,3.94,0,0,1-2.11,1.76,2.84,2.84,0,0,1-3.4-1.79l.7-.31a2,2,0,0,0,.84,1.12,2,2,0,0,0,1.63.27,2.49,2.49,0,0,0,1.45-1.07,1.64,1.64,0,0,1-.93.21,2,2,0,0,1-1-.32Zm2.64-2a1.42,1.42,0,0,0-.65-.91,1.4,1.4,0,0,0-1.09-.22,1.48,1.48,0,0,0-.92.64,1.37,1.37,0,0,0-.22,1.08,1.42,1.42,0,0,0,.65.9,1.39,1.39,0,0,0,1.09.23,1.36,1.36,0,0,0,.9-.63,1.42,1.42,0,0,0,.23-1.1Z"/>
      <path class="cls-4" d="M55.39,194.76l.74.48-.51.78-.74-.48Z"/>
      <path class="cls-4" d="M58.78,198.09l.84-1.29L56.84,195l.4-.62,4.88-1.62.79.52-2.2,3.37.76.5-.4.62-.76-.5-.84,1.29ZM58,194.85l2,1.34,1.69-2.58L58,194.86Z"/>
      <path class="cls-4" d="M65.43,194.83l-1.38,1.23-.82-.54,1.77-1Zm1.12.73-1.38,1.23-.83-.54,1.77-1Z"/>
    </g>
  </g>
  <g>
    <path class="cls-4" d="M75.26,17.67a2.22,2.22,0,0,1,1.67.37,2.06,2.06,0,0,1,.84,1.43,2,2,0,0,1-.42,1.62,2.29,2.29,0,0,1-1.54.83A2.07,2.07,0,0,1,74,21.38a3.25,3.25,0,0,1-.94-2,3.94,3.94,0,0,1,.42-2.72,2.84,2.84,0,0,1,3.74-.9l-.32.69a2,2,0,0,0-1.37-.29,2,2,0,0,0-1.41.88,2.52,2.52,0,0,0-.38,1.77,1.65,1.65,0,0,1,.56-.78,1.93,1.93,0,0,1,.93-.39Zm-.63,3.27a1.41,1.41,0,0,0,1.09.25,1.39,1.39,0,0,0,1-.55A1.4,1.4,0,0,0,77,19.56a1.35,1.35,0,0,0-.55-.95,1.55,1.55,0,0,0-2.06.29A1.37,1.37,0,0,0,74.08,20,1.39,1.39,0,0,0,74.63,20.94Z"/>
    <path class="cls-4" d="M80.85,21.21a2.38,2.38,0,0,1-1.6-.27,1.91,1.91,0,0,1-.89-1.21l.75-.23a1.25,1.25,0,0,0,.59.8,1.58,1.58,0,0,0,1,.18,1.49,1.49,0,0,0,1-.51A1.23,1.23,0,0,0,82,19a1.26,1.26,0,0,0-.5-.89,1.46,1.46,0,0,0-1.06-.19,1.32,1.32,0,0,0-.66.29l-.42-.47L81,15.47l-3,.44-.1-.72,4-.57.1.7-1.52,2a1.93,1.93,0,0,1,1.58.21,1.81,1.81,0,0,1,.79,1.35,1.87,1.87,0,0,1-.41,1.55,2.4,2.4,0,0,1-1.56.79Z"/>
    <path class="cls-4" d="M86.24,20.43a2.07,2.07,0,0,1-1.89-.6,4,4,0,0,1-1-2.24,4,4,0,0,1,.28-2.42,2.1,2.1,0,0,1,1.64-1.12,2.06,2.06,0,0,1,1.89.61,3.93,3.93,0,0,1,1,2.23,4,4,0,0,1-.29,2.42,2.06,2.06,0,0,1-1.64,1.12Zm-.11-.73a1.3,1.3,0,0,0,1.05-.83A3.43,3.43,0,0,0,87.33,17a3.48,3.48,0,0,0-.67-1.75,1.34,1.34,0,0,0-2.3.33,3.57,3.57,0,0,0-.14,1.87,3.49,3.49,0,0,0,.66,1.74,1.28,1.28,0,0,0,1.25.49Z"/>
  </g>
  <g>
    <path class="cls-4" d="M72.94,34.51l-.12-.7,2-2.39a2.43,2.43,0,0,0,.77-1.87,1.08,1.08,0,0,0-.46-.78,1.23,1.23,0,0,0-.92-.17,1.24,1.24,0,0,0-.93.58,1.46,1.46,0,0,0-.1,1.16l-.79.07a2,2,0,0,1,1.7-2.53,2.1,2.1,0,0,1,1.55.28,1.8,1.8,0,0,1,.77,1.27,2.24,2.24,0,0,1-.15,1.16,4.77,4.77,0,0,1-.87,1.31L74,33.61,77,33.12l.12.73-4.21.67Z"/>
    <path class="cls-4" d="M80.66,33.28l-.24-1.52-3.28.52L77,31.55l2.53-4.47.93-.15.63,4,.9-.14.12.73-.9.14.24,1.52ZM77.9,31.41,80.31,31,79.83,28l-1.92,3.43Z"/>
    <path class="cls-4" d="M82.92,32l.87-.14.15.92-.87.14Z"/>
    <path class="cls-4" d="M87.13,32.33a2.53,2.53,0,0,1-1.69-.25,1.69,1.69,0,0,1-.83-1.25,1.57,1.57,0,0,1,.17-1,1.68,1.68,0,0,1,.76-.73,1.58,1.58,0,0,1-.75-.44,1.26,1.26,0,0,1-.37-.72,1.49,1.49,0,0,1,.35-1.27,2.48,2.48,0,0,1,2.84-.45,1.52,1.52,0,0,1,.72,1.1,1.37,1.37,0,0,1-.13.81,1.49,1.49,0,0,1-.58.64,1.74,1.74,0,0,1,.95.46,1.55,1.55,0,0,1,.47.92,1.65,1.65,0,0,1-.4,1.44A2.41,2.41,0,0,1,87.13,32.33Zm-.59-3.72a1.23,1.23,0,0,0,.78-.4.92.92,0,0,0,.21-.76.85.85,0,0,0-.42-.66,1.27,1.27,0,0,0-.88-.13,1.36,1.36,0,0,0-.83.4.89.89,0,0,0-.2.76.91.91,0,0,0,.44.66A1.26,1.26,0,0,0,86.54,28.61Zm.47,3a1.57,1.57,0,0,0,1-.48,1,1,0,0,0,.24-.9,1.08,1.08,0,0,0-.51-.78,1.53,1.53,0,0,0-1.06-.16,1.57,1.57,0,0,0-1,.48,1.09,1.09,0,0,0-.25.91,1,1,0,0,0,.52.78,1.56,1.56,0,0,0,1.07.16Z"/>
    <path class="cls-4" d="M90.45,25.28l-.2,1.84-1,.15.66-1.91Zm1.31-.21-.2,1.84-1,.15.66-1.91Z"/>
  </g>
  <path class="cls-2" d="M14.22,159.64l97.19,59.68"/>
  <path class="cls-5" d="M106.85,221.29l55-23.06"/>
  <polyline class="cls-3" points="111.41 219.32 105.97 217.57 107.43 215.21 111.41 219.32"/>
  <polyline class="cls-3" points="14.29 159.74 19.77 161.39 18.35 163.77 14.29 159.74"/>
  <g>
    <g>
      <path class="cls-6" d="M10.32,119.92a2.5,2.5,0,0,1-.45,1.65,1.66,1.66,0,0,1-1.34.69,1.6,1.6,0,0,1-1-.28,1.72,1.72,0,0,1-.65-.83,1.67,1.67,0,0,1-.51.7,1.29,1.29,0,0,1-.76.28,1.48,1.48,0,0,1-1.22-.48,2.51,2.51,0,0,1-.13-2.88,1.47,1.47,0,0,1,1.17-.59,1.36,1.36,0,0,1,.79.21,1.5,1.5,0,0,1,.57.65,1.7,1.7,0,0,1,.57-.89,1.56,1.56,0,0,1,1-.36,1.66,1.66,0,0,1,1.39.55A2.41,2.41,0,0,1,10.32,119.92Zm-3.77.17a1.23,1.23,0,0,0-.31-.82A.9.9,0,0,0,5.5,119a.83.83,0,0,0-.7.34,1.26,1.26,0,0,0-.23.86,1.35,1.35,0,0,0,.3.87.86.86,0,0,0,.74.28.93.93,0,0,0,.7-.36A1.31,1.31,0,0,0,6.55,120.09ZM9.61,120a1.59,1.59,0,0,0-.38-1,1.05,1.05,0,0,0-.87-.34,1.07,1.07,0,0,0-.84.42,1.55,1.55,0,0,0-.27,1,1.57,1.57,0,0,0,.36,1,1.13,1.13,0,0,0,.88.35,1.09,1.09,0,0,0,.83-.43A1.55,1.55,0,0,0,9.61,120Z"/>
      <path class="cls-6" d="M10.08,114.78a2.38,2.38,0,0,1-.41,1.55,1.88,1.88,0,0,1-1.23.8l-.17-.76a1.27,1.27,0,0,0,.81-.52,1.72,1.72,0,0,0,.26-1,1.33,1.33,0,0,0-.44-1,1.46,1.46,0,0,0-1-.33,1.36,1.36,0,0,0-1,.44,1.45,1.45,0,0,0-.34,1.09,1.59,1.59,0,0,0,.82,1.36l-.1.6-3.44-.34-.21-3.33h.73l.12,2.75,1.9.19a2,2,0,0,1-.41-.59,1.8,1.8,0,0,1-.17-.69,2.12,2.12,0,0,1,.51-1.6,2,2,0,0,1,1.53-.71,2.1,2.1,0,0,1,1.59.53A2.14,2.14,0,0,1,10.08,114.78Z"/>
      <path class="cls-6" d="M9.82,110.83l-5.27.24a2.83,2.83,0,0,1,.76,1.46H4.58a2.73,2.73,0,0,0-1-1.57v-.64l6.29-.3Z"/>
    </g>
    <g>
      <path class="cls-6" d="M22.21,123.06a2.41,2.41,0,0,1-.41,1.56,1.87,1.87,0,0,1-1.29.76l-.15-.76a1.25,1.25,0,0,0,.84-.51,1.48,1.48,0,0,0,.28-1,1.51,1.51,0,0,0-.4-1,1.26,1.26,0,0,0-1-.35,1.17,1.17,0,0,0-.93.42,1.38,1.38,0,0,0-.29,1,1.32,1.32,0,0,0,.23.69l-.51.37-2-1.9.15,3.06H16l-.18-4,.71,0,1.82,1.71a2,2,0,0,1,.36-1.55,1.84,1.84,0,0,1,1.42-.66,1.93,1.93,0,0,1,1.51.56A2.39,2.39,0,0,1,22.21,123.06Z"/>
      <path class="cls-6" d="M22,117.87a2.43,2.43,0,0,1-.43,1.57,1.85,1.85,0,0,1-1.29.76l-.15-.77a1.22,1.22,0,0,0,.85-.5,1.65,1.65,0,0,0,.28-1,1.47,1.47,0,0,0-.41-1,1.28,1.28,0,0,0-1-.35,1.25,1.25,0,0,0-.94.42,1.44,1.44,0,0,0-.29,1,1.26,1.26,0,0,0,.23.68l-.51.38-2-1.9.14,3.06h-.73l-.18-4h.71l1.83,1.71a1.91,1.91,0,0,1,.36-1.55,1.8,1.8,0,0,1,1.42-.66,1.87,1.87,0,0,1,1.5.56A2.35,2.35,0,0,1,22,117.87Z"/>
      <path class="cls-6" d="M20.88,114.64l0-.89.94,0,0,.88Z"/>
      <path class="cls-6" d="M21.66,110.7a2.35,2.35,0,0,1-.41,1.54A1.88,1.88,0,0,1,20,113l-.16-.76a1.2,1.2,0,0,0,.8-.53,1.54,1.54,0,0,0,.26-1,1.29,1.29,0,0,0-.44-1,1.4,1.4,0,0,0-1-.32,1.35,1.35,0,0,0-1,.43,1.47,1.47,0,0,0-.34,1.1,1.6,1.6,0,0,0,.82,1.36l-.1.6-3.44-.35-.15-3.35H16l.12,2.75,1.9.18a1.93,1.93,0,0,1-.41-.57,1.89,1.89,0,0,1-.17-.7,2.12,2.12,0,0,1,.51-1.6,2,2,0,0,1,1.5-.67,2.13,2.13,0,0,1,1.59.52A2.17,2.17,0,0,1,21.66,110.7Z"/>
      <path class="cls-6" d="M15,105.64l1.8.41v1L15,106.17ZM15,107l1.8.41v1L15,107.51Z"/>
    </g>
  </g>
</svg>