<svg class="ad-draw-svg" preserveAspectRatio="xMidYMid meet" id="Vrstva_1" data-name="Vrstva 1" xmlns="http://www.w3.org/2000/svg" viewBox="0 0 226.77 226.77">
  <defs>
    <style>
      .cls-1, .cls-6 {
        fill: none;
        stroke-linecap: round;
        stroke-linejoin: round;
      }

      .cls-1 {
        stroke: #010101;
      }

      .cls-1, .cls-2, .cls-6 {
        stroke-width:.7px;
      }

      .cls-2, .cls-4 {
        fill: #010202;
      }

      .cls-2 {
        stroke: #010202;
        stroke-miterlimit: 10;
      }

      .cls-3 {
        isolation: isolate;
      }

      .cls-5 {
        fill: #1d1d1b;
      }

      .cls-6 {
        stroke: #1d1d1b;
      }
    
.cls-1{stroke:#ffffff}
.cls-6{stroke:#ffffff}
.cls-2{stroke:#ffffff;fill:#ffffff}
.cls-4{fill:#ffffff}
.cls-5{fill:#ffffff}
</style>
  </defs>
  <path class="cls-1" d="M42.84,111.68Q41.4,63.74,40,15.78"/>
  <line class="cls-1" x1="74.5" y1="28.78" x2="36.24" y2="14.25"/>
  <polyline class="cls-2" points="42.83 111.8 41.27 106.3 44.04 106.21 42.83 111.8"/>
  <polyline class="cls-2" points="39.94 15.77 41.52 21.26 38.75 21.36 39.94 15.77"/>
  <line class="cls-1" x1="133.19" y1="160.97" x2="201.52" y2="131.97"/>
  <line class="cls-1" x1="137.5" y1="163.25" x2="98.62" y2="143"/>
  <line class="cls-1" x1="166.89" y1="115.54" x2="205.4" y2="133.66"/>
  <g>
    <line class="cls-1" x1="73.61" y1="130.49" x2="29.76" y2="147.41"/>
    <line class="cls-1" x1="21.98" y1="138.87" x2="86.17" y2="178.04"/>
    <line class="cls-1" x1="94.01" y1="142.6" x2="49.51" y2="159.94"/>
    <polyline class="cls-2" points="53.9 158.28 59.35 160.01 57.89 162.37 53.9 158.28"/>
    <polyline class="cls-2" points="33.62 145.91 28.17 144.19 29.63 141.82 33.62 145.91"/>
    <g>
      <g class="cls-3">
        <path class="cls-4" d="M64.32,172.84a2.22,2.22,0,0,1-1.06-1.34,2.19,2.19,0,0,1,1.61-2.63,2.25,2.25,0,0,1,1.72.33,2.1,2.1,0,0,1,1,1.55,3.22,3.22,0,0,1-.53,2.12,3.92,3.92,0,0,1-2,1.84A2.84,2.84,0,0,1,61.6,173l.68-.33a2,2,0,0,0,.88,1.08,1.91,1.91,0,0,0,1.64.21,2.44,2.44,0,0,0,1.41-1.12,1.69,1.69,0,0,1-.92.25A1.89,1.89,0,0,1,64.32,172.84Zm2.57-2.13a1.53,1.53,0,0,0-1.78-1.08,1.5,1.5,0,0,0-.89.68A1.38,1.38,0,0,0,64,171.4a1.46,1.46,0,0,0,.69.88,1.42,1.42,0,0,0,1.09.19,1.38,1.38,0,0,0,.88-.66A1.41,1.41,0,0,0,66.89,170.71Z"/>
        <path class="cls-4" d="M66.3,175.37l.75.45-.48.81-.75-.46Z"/>
        <path class="cls-4" d="M67.33,177.08l.36-.61,3.08-.53a2.42,2.42,0,0,0,1.8-.93,1.13,1.13,0,0,0,.15-.9,1.17,1.17,0,0,0-.59-.72,1.18,1.18,0,0,0-1.08-.15,1.43,1.43,0,0,0-.82.82l-.65-.45a2,2,0,0,1,1.26-1.12,2,2,0,0,1,1.67.28,2.1,2.1,0,0,1,1,1.21,1.78,1.78,0,0,1-.23,1.47,2.13,2.13,0,0,1-.86.79,5.25,5.25,0,0,1-1.51.44l-2.22.37,2.66,1.6-.38.63Z"/>
        <path class="cls-4" d="M76.26,175l-1.34,1.28-.84-.51,1.74-1Zm1.14.69L76.06,177l-.85-.51,1.74-1Z"/>
      </g>
      <g class="cls-3">
        <path class="cls-4" d="M67.61,163.23l.36-.61,3.08-.53a2.47,2.47,0,0,0,1.79-.93,1.11,1.11,0,0,0,.16-.9,1.2,1.2,0,0,0-.59-.72,1.22,1.22,0,0,0-1.08-.16,1.48,1.48,0,0,0-.82.83l-.65-.46a2,2,0,0,1,1.26-1.12,2.08,2.08,0,0,1,1.67.28,2.15,2.15,0,0,1,1,1.22,1.79,1.79,0,0,1-.23,1.46,2.16,2.16,0,0,1-.87.79,4.93,4.93,0,0,1-1.51.45l-2.21.36,2.66,1.61-.38.63Z"/>
        <path class="cls-4" d="M73.67,167a2.45,2.45,0,0,1-1.07-1.22,1.91,1.91,0,0,1,.08-1.5l.72.3a1.27,1.27,0,0,0,0,1,1.6,1.6,0,0,0,.69.8,1.54,1.54,0,0,0,1.09.23A1.21,1.21,0,0,0,76,166a1.26,1.26,0,0,0,.18-1,1.44,1.44,0,0,0-.7-.82,1.18,1.18,0,0,0-.7-.19l0-.63,2.72-.66-2.62-1.58.38-.63,3.44,2.08-.36.61-2.44.57a1.93,1.93,0,0,1,1.09,1.16,1.83,1.83,0,0,1-.24,1.55,1.89,1.89,0,0,1-1.3.94A2.4,2.4,0,0,1,73.67,167Z"/>
        <path class="cls-4" d="M78.07,169.62A2.35,2.35,0,0,1,77,168.4a1.87,1.87,0,0,1,.07-1.5l.73.3a1.23,1.23,0,0,0,0,1,1.56,1.56,0,0,0,.69.8,1.49,1.49,0,0,0,1.09.23,1.39,1.39,0,0,0,1-1.62,1.44,1.44,0,0,0-.7-.82,1.34,1.34,0,0,0-.7-.19l0-.63,2.72-.66-2.62-1.58.38-.62L83,165.17l-.36.61-2.44.57a1.93,1.93,0,0,1,1.09,1.16,1.83,1.83,0,0,1-.24,1.55,1.89,1.89,0,0,1-1.3.94A2.35,2.35,0,0,1,78.07,169.62Z"/>
      </g>
    </g>
  </g>
  <polyline class="cls-2" points="133.22 160.97 137.8 157.54 138.87 160.09 133.22 160.97"/>
  <polyline class="cls-2" points="201.64 131.93 197.07 135.36 195.99 132.8 201.64 131.93"/>
  <g>
    <g class="cls-3">
      <path class="cls-4" d="M165.69,157.15a2.41,2.41,0,0,1-1.61.15,1.91,1.91,0,0,1-1.18-.93l.67-.42a1.24,1.24,0,0,0,.77.62,1.58,1.58,0,0,0,1.06-.1,1.56,1.56,0,0,0,.82-.75,1.39,1.39,0,0,0-.74-1.76,1.49,1.49,0,0,0-1.08.09,1.3,1.3,0,0,0-.55.46l-.53-.34,1-2.6-2.81,1.21-.29-.66,3.7-1.6.28.65-1,2.32a1.87,1.87,0,0,1,1.57-.21,1.8,1.8,0,0,1,1.12,1.09,1.86,1.86,0,0,1,0,1.61A2.44,2.44,0,0,1,165.69,157.15Z"/>
      <path class="cls-4" d="M171.33,154.63l-.61-1.41-3.05,1.31-.29-.67,1.34-5,.86-.38,1.6,3.7.83-.36.3.67-.84.36.61,1.42Zm-3.14-1.12,2.24-1-1.23-2.83Z"/>
      <path class="cls-4" d="M172.28,147.28l.26,1.83-.9.39.17-2Zm1.23-.53.26,1.83-.91.39.17-2Z"/>
    </g>
    <g class="cls-3">
      <path class="cls-4" d="M160.1,146.48a2.46,2.46,0,0,1-1.7.18,1.68,1.68,0,0,1-1.12-1,1.53,1.53,0,0,1-.09-1,1.71,1.71,0,0,1,.55-.9,1.6,1.6,0,0,1-.84-.23,1.38,1.38,0,0,1-.54-.61,1.53,1.53,0,0,1,0-1.32,2.21,2.21,0,0,1,1.15-1,2.13,2.13,0,0,1,1.49-.14,1.48,1.48,0,0,1,1,.89,1.31,1.31,0,0,1,.08.81,1.49,1.49,0,0,1-.41.77,1.69,1.69,0,0,1,1,.21,1.59,1.59,0,0,1,.68.77,1.68,1.68,0,0,1,0,1.5A2.42,2.42,0,0,1,160.1,146.48ZM158.6,143a1.23,1.23,0,0,0,.66-.58.91.91,0,0,0,0-.79.9.9,0,0,0-.57-.54,1.28,1.28,0,0,0-.89.09,1.39,1.39,0,0,0-.71.6.89.89,0,0,0,0,.78.91.91,0,0,0,.59.53A1.32,1.32,0,0,0,158.6,143Zm1.21,2.81a1.54,1.54,0,0,0,.81-.7,1.1,1.1,0,0,0,0-.94,1.08,1.08,0,0,0-.69-.63,1.52,1.52,0,0,0-1.07.11,1.56,1.56,0,0,0-.82.7,1.07,1.07,0,0,0,0,.94,1,1,0,0,0,.7.63A1.55,1.55,0,0,0,159.81,145.83Z"/>
      <path class="cls-4" d="M163.3,140.42a2.24,2.24,0,0,1,1.7-.08,2.1,2.1,0,0,1,1.19,1.17,2.05,2.05,0,0,1,0,1.68,2.31,2.31,0,0,1-1.27,1.2,2.08,2.08,0,0,1-1.87,0,3.19,3.19,0,0,1-1.42-1.67,3.85,3.85,0,0,1-.3-2.73,2.68,2.68,0,0,1,1.56-1.7,2.71,2.71,0,0,1,1.81-.15l-.13.75a2,2,0,0,0-1.39.08,1.94,1.94,0,0,0-1.13,1.21,2.48,2.48,0,0,0,.1,1.81,1.65,1.65,0,0,1,.33-.89A1.91,1.91,0,0,1,163.3,140.42Zm.24,3.33a1.43,1.43,0,0,0,1.11,0,1.41,1.41,0,0,0,.79-.78,1.37,1.37,0,0,0,0-1.12,1.32,1.32,0,0,0-.78-.77,1.39,1.39,0,0,0-1.11,0,1.44,1.44,0,0,0-.79.78,1.36,1.36,0,0,0,0,1.1A1.39,1.39,0,0,0,163.54,143.75Z"/>
      <path class="cls-4" d="M170.57,141.88l-.61-1.41-3.05,1.31-.29-.67,1.34-5,.87-.38,1.59,3.69.84-.36.29.68-.84.36.61,1.42Zm-3.14-1.12,2.24-1L168.44,137Z"/>
    </g>
  </g>
  <line class="cls-1" x1="73.82" y1="127.5" x2="39" y2="109.79"/>
  <g>
    <g>
      <path class="cls-5" d="M36.8,71a2.21,2.21,0,0,1-.55,1.62,2.05,2.05,0,0,1-1.52.67,2,2,0,0,1-1.57-.6,2.3,2.3,0,0,1-.65-1.62,2.1,2.1,0,0,1,.73-1.72,3.29,3.29,0,0,1,2.08-.71,3.93,3.93,0,0,1,2.65.73,2.83,2.83,0,0,1,.47,3.81l-.65-.39a1.91,1.91,0,0,0,.44-1.33A2,2,0,0,0,37.52,70a2.45,2.45,0,0,0-1.71-.58,1.68,1.68,0,0,1,.71.64A1.92,1.92,0,0,1,36.8,71Zm-3.18-1a1.39,1.39,0,0,0-.38,1,1.38,1.38,0,0,0,.44,1,1.43,1.43,0,0,0,1,.38,1.36,1.36,0,0,0,1-.44A1.43,1.43,0,0,0,36.11,71a1.45,1.45,0,0,0-.43-1,1.41,1.41,0,0,0-1-.38A1.39,1.39,0,0,0,33.62,70Z"/>
      <path class="cls-5" d="M38.69,64.65l-1.54,0,.1,3.31-.74,0L32.39,65l0-1,4-.12,0-.91.74,0,0,.91,1.54-.05Zm-2.2,2.51-.08-2.44-3.08.09Z"/>
      <path class="cls-5" d="M38.61,62A11.58,11.58,0,0,1,33,59.4l.11,3.54-.73,0-.13-4.38.73,0c2.29,1.67,4.18,2.55,5.65,2.64Z"/>
    </g>
    <g>
      <path class="cls-5" d="M51,72.69a2.37,2.37,0,0,1-.45,1.56,1.86,1.86,0,0,1-1.3.74l-.14-.77a1.24,1.24,0,0,0,.86-.49,1.64,1.64,0,0,0,.29-1,1.44,1.44,0,0,0-.39-1,1.23,1.23,0,0,0-1-.37,1.27,1.27,0,0,0-.94.4,1.47,1.47,0,0,0-.31,1,1.25,1.25,0,0,0,.22.68l-.51.37-2-1.93.09,3.06-.73,0-.12-4,.71,0,1.8,1.74a1.94,1.94,0,0,1,.38-1.54,1.84,1.84,0,0,1,1.43-.64,1.88,1.88,0,0,1,1.5.58A2.4,2.4,0,0,1,51,72.69Z"/>
      <path class="cls-5" d="M50.86,69.23A11.58,11.58,0,0,1,45.2,66.6l.11,3.54-.73,0-.13-4.38.73,0c2.29,1.67,4.18,2.54,5.65,2.63Z"/>
      <path class="cls-5" d="M49.82,66l0-.88.94,0,0,.89Z"/>
      <path class="cls-5" d="M50.71,62a2.36,2.36,0,0,1-.45,1.55,1.87,1.87,0,0,1-1.3.75l-.14-.77a1.28,1.28,0,0,0,.86-.49A1.64,1.64,0,0,0,50,62a1.48,1.48,0,0,0-.39-1,1.26,1.26,0,0,0-1-.36,1.23,1.23,0,0,0-.94.4,1.47,1.47,0,0,0-.31,1,1.25,1.25,0,0,0,.22.68l-.51.37-2-1.93.09,3.06-.73,0-.12-4,.71,0,1.8,1.74a2,2,0,0,1,.38-1.55,1.87,1.87,0,0,1,1.43-.64,2,2,0,0,1,1.5.58A2.45,2.45,0,0,1,50.71,62Z"/>
      <path class="cls-5" d="M44.09,56.37l1.79.43,0,1-1.81-.9Zm0,1.33,1.8.43,0,1-1.82-.89Z"/>
    </g>
  </g>
  <g>
    <line class="cls-6" x1="98.95" y1="45.79" x2="94.28" y2="46.9"/>
    <path class="cls-6" d="M135.6,51.24a.85.85,0,0,0,.14-.44.75.75,0,0,0,0-.26.44.44,0,0,0-.1-.19.29.29,0,0,0-.18-.11.53.53,0,0,0-.25,0,.71.71,0,0,0-.38.28.85.85,0,0,0-.14.44.77.77,0,0,0,0,.26.5.5,0,0,0,.1.19.42.42,0,0,0,.18.11.42.42,0,0,0,.25,0A.69.69,0,0,0,135.6,51.24Z"/>
    <line class="cls-6" x1="133.88" y1="50.63" x2="134.69" y2="50.42"/>
    <line class="cls-6" x1="133.89" y1="50.3" x2="133.88" y2="50.63"/>
    <line class="cls-6" x1="135.96" y1="49.76" x2="133.89" y2="50.3"/>
    <line class="cls-6" x1="135.95" y1="50.09" x2="135.96" y2="49.76"/>
    <line class="cls-6" x1="135.74" y1="50.14" x2="135.95" y2="50.09"/>
    <path class="cls-6" d="M134.69,50.42a1.37,1.37,0,0,0-.13.2,2,2,0,0,0-.08.26,1.25,1.25,0,0,0,0,.19v.14c0,.07,0,.13,0,.19a.82.82,0,0,0,.1.26.69.69,0,0,0,.18.16.46.46,0,0,0,.23.06.63.63,0,0,0,.27,0,1,1,0,0,0,.43-.29,1.1,1.1,0,0,0,.14-.21,1.33,1.33,0,0,0,.1-.24,1.64,1.64,0,0,0,.05-.32,1.21,1.21,0,0,0,0-.19.79.79,0,0,0-.08-.3.28.28,0,0,0-.06-.09.16.16,0,0,0-.08-.06"/>
    <line class="cls-6" x1="135.26" y1="45.87" x2="135.29" y2="46.24"/>
    <line class="cls-6" x1="135.33" y1="45.85" x2="135.26" y2="45.87"/>
    <path class="cls-6" d="M135.29,46.24l0,.25a.58.58,0,0,0,.05.14.31.31,0,0,0,0,.1.15.15,0,0,0,.16,0l.07,0,.08-.09a.61.61,0,0,0,.05-.12.58.58,0,0,0,0-.26.69.69,0,0,0-.05-.24.33.33,0,0,0-.18-.17.36.36,0,0,0-.25,0"/>
    <line class="cls-6" x1="135.07" y1="45.92" x2="135.1" y2="46.29"/>
    <line class="cls-6" x1="135.04" y1="45.93" x2="135.07" y2="45.92"/>
    <path class="cls-6" d="M135,46.9a.29.29,0,0,1-.16,0,.32.32,0,0,1-.11-.12.67.67,0,0,1,0-.32.71.71,0,0,1,.08-.31.4.4,0,0,1,.25-.19"/>
    <line class="cls-6" x1="134.97" y1="47.21" x2="135.02" y2="46.9"/>
    <path class="cls-6" d="M135.06,45.6a.65.65,0,0,0-.41.32.87.87,0,0,0-.1.24,1.09,1.09,0,0,0-.05.26v.26a1.1,1.1,0,0,0,.06.26.62.62,0,0,0,.16.2.33.33,0,0,0,.25.07"/>
    <line class="cls-6" x1="136" y1="45.36" x2="135.06" y2="45.6"/>
    <line class="cls-6" x1="136" y1="45.68" x2="136" y2="45.36"/>
    <line class="cls-6" x1="135.75" y1="45.75" x2="136" y2="45.68"/>
    <path class="cls-6" d="M135.1,46.29a1.7,1.7,0,0,0,.14.66.29.29,0,0,0,.27.16h.11l.06,0,.13-.1a1.08,1.08,0,0,0,.16-.3,1.88,1.88,0,0,0,.05-.33A.92.92,0,0,0,136,46a.51.51,0,0,0-.09-.16.27.27,0,0,0-.12-.09"/>
    <path class="cls-6" d="M135.67,44.5a.86.86,0,0,0,.15-.44,1.1,1.1,0,0,0,0-.26.56.56,0,0,0-.09-.19.35.35,0,0,0-.19-.12.53.53,0,0,0-.25,0,.69.69,0,0,0-.38.27.89.89,0,0,0-.15.45,1.18,1.18,0,0,0,0,.26.66.66,0,0,0,.09.19.35.35,0,0,0,.19.12.43.43,0,0,0,.25,0A.64.64,0,0,0,135.67,44.5Z"/>
    <line class="cls-6" x1="133.95" y1="43.86" x2="134.76" y2="43.66"/>
    <line class="cls-6" x1="133.95" y1="43.53" x2="133.95" y2="43.86"/>
    <line class="cls-6" x1="136.03" y1="43.01" x2="133.95" y2="43.53"/>
    <line class="cls-6" x1="136.02" y1="43.34" x2="136.03" y2="43.01"/>
    <line class="cls-6" x1="135.81" y1="43.4" x2="136.02" y2="43.34"/>
    <path class="cls-6" d="M134.76,43.66a.74.74,0,0,0-.13.21,1.14,1.14,0,0,0-.09.26,1.11,1.11,0,0,0,0,.19v.14a1.11,1.11,0,0,0,0,.19.82.82,0,0,0,.1.26.44.44,0,0,0,.17.16.39.39,0,0,0,.23.07.66.66,0,0,0,.28,0,1,1,0,0,0,.43-.28,1,1,0,0,0,.24-.46,1.64,1.64,0,0,0,0-.32v-.19a1,1,0,0,0-.08-.3.61.61,0,0,0-.07-.1l-.08-.05"/>
    <line class="cls-6" x1="134.31" y1="56.26" x2="133.88" y2="55.92"/>
    <line class="cls-6" x1="134.31" y1="56.56" x2="134.31" y2="56.26"/>
    <line class="cls-6" x1="133.88" y1="56.42" x2="134.31" y2="56.56"/>
    <line class="cls-6" x1="133.88" y1="55.92" x2="133.88" y2="56.42"/>
    <path class="cls-6" d="M134.44,59.33l1.46-.41"/>
    <path class="cls-6" d="M134.44,58.91v.42"/>
    <path class="cls-6" d="M134.69,58.84l-.25.07"/>
    <path class="cls-6" d="M135,57.44a.58.58,0,0,0-.35.24,1.14,1.14,0,0,0-.1.19.66.66,0,0,0-.06.2.78.78,0,0,0,0,.22.75.75,0,0,0,0,.21.49.49,0,0,0,.24.34"/>
    <path class="cls-6" d="M135.92,57.17l-1,.27"/>
    <path class="cls-6" d="M135.92,57.59v-.42"/>
    <path class="cls-6" d="M135,57.83l.89-.24"/>
    <path class="cls-6" d="M135.27,58.68a.6.6,0,0,1-.35,0,.31.31,0,0,1-.14-.11.35.35,0,0,1-.06-.17.34.34,0,0,1,0-.1.22.22,0,0,1,0-.08.37.37,0,0,1,.05-.17.45.45,0,0,1,.1-.14.51.51,0,0,1,.16-.09"/>
    <path class="cls-6" d="M135.91,58.5l-.64.18"/>
    <path class="cls-6" d="M135.9,58.92c0-.14,0-.28,0-.42"/>
    <line class="cls-6" x1="134.25" y1="62.69" x2="134.25" y2="62.34"/>
    <line class="cls-6" x1="133.81" y1="63.25" x2="134.25" y2="62.69"/>
    <line class="cls-6" x1="133.81" y1="62.93" x2="133.81" y2="63.25"/>
    <line class="cls-6" x1="134.05" y1="62.56" x2="133.81" y2="62.93"/>
    <line class="cls-6" x1="133.82" y1="62.33" x2="134.05" y2="62.56"/>
    <line class="cls-6" x1="133.82" y1="62.02" x2="133.82" y2="62.33"/>
    <line class="cls-6" x1="134.25" y1="62.34" x2="133.82" y2="62.02"/>
    <line class="cls-6" x1="134.48" y1="55.36" x2="134.48" y2="55.79"/>
    <line class="cls-6" x1="136.46" y1="55.83" x2="134.48" y2="55.36"/>
    <line class="cls-6" x1="136.46" y1="56.26" x2="136.46" y2="55.83"/>
    <line class="cls-6" x1="135.89" y1="56.13" x2="136.46" y2="56.26"/>
    <line class="cls-6" x1="134.46" y1="57.27" x2="135.89" y2="56.13"/>
    <line class="cls-6" x1="134.47" y1="56.81" x2="134.46" y2="57.27"/>
    <line class="cls-6" x1="135.49" y1="56.03" x2="134.47" y2="56.81"/>
    <line class="cls-6" x1="134.48" y1="55.79" x2="135.49" y2="56.03"/>
    <path class="cls-6" d="M135.4,68.3a.86.86,0,0,0,.19-.19,1.28,1.28,0,0,0,.14-.23,1.3,1.3,0,0,0,.1-.52"/>
    <path class="cls-6" d="M135.29,68c0,.11.07.21.11.31"/>
    <path class="cls-6" d="M135.18,67.6a1.05,1.05,0,0,1,0-.19l0-.1a.3.3,0,0,1,0-.08.27.27,0,0,1,.08-.07h.09a.09.09,0,0,1,.06.06.18.18,0,0,1,0,.1.13.13,0,0,1,0,.06v.13a1.29,1.29,0,0,1,0,.19.64.64,0,0,1-.25.29"/>
    <path class="cls-6" d="M134.7,67a.62.62,0,0,0-.22.26,1.75,1.75,0,0,0-.12.32,2,2,0,0,0,0,.34,1.25,1.25,0,0,0,0,.19.44.44,0,0,0,0,.15.37.37,0,0,0,.12.13.27.27,0,0,0,.15,0,.39.39,0,0,0,.16-.07.49.49,0,0,0,.13-.12.64.64,0,0,0,.08-.14.49.49,0,0,0,.06-.17l0-.16,0-.17"/>
    <path class="cls-6" d="M134.81,67.32c0-.11-.07-.21-.11-.31"/>
    <path class="cls-6" d="M134.91,67.61l0,.16,0,.09a.26.26,0,0,1,0,.08l0,.07a.11.11,0,0,1-.07,0l-.07,0,0,0s0,0,0,0a.22.22,0,0,1,0-.08.27.27,0,0,1,0-.09.47.47,0,0,1,0-.17.69.69,0,0,1,.07-.15.49.49,0,0,1,.13-.12"/>
    <path class="cls-6" d="M135.83,67.36a.71.71,0,0,0-.1-.45.39.39,0,0,0-.08-.1.31.31,0,0,0-.1,0,.2.2,0,0,0-.11,0l-.12,0a.49.49,0,0,0-.18.14l-.07.1,0,.11s0,.07,0,.11,0,.08,0,.11,0,.16-.05.24"/>
    <path class="cls-6" d="M135,61.78a.54.54,0,0,0-.25.22.9.9,0,0,0-.09.32.59.59,0,0,0,.05.32.34.34,0,0,0,.12.12.29.29,0,0,0,.16,0"/>
    <line class="cls-6" x1="134.97" y1="62.8" x2="134.98" y2="61.78"/>
    <path class="cls-6" d="M135.23,61.28l-.13,0"/>
    <line class="cls-6" x1="135.21" y1="62.75" x2="135.23" y2="61.28"/>
    <path class="cls-6" d="M135.38,61.67a.2.2,0,0,1,.15.06.08.08,0,0,1,0,0l0,0,0,.09a.91.91,0,0,1,0,.17,1,1,0,0,1,0,.17.93.93,0,0,1-.13.31.71.71,0,0,1-.27.21"/>
    <path class="cls-6" d="M135.46,61.25c0,.14-.05.28-.08.42"/>
    <path class="cls-6" d="M135.1,61.31a.7.7,0,0,0-.27.14.92.92,0,0,0-.23.25,1.22,1.22,0,0,0-.14.28,3,3,0,0,0-.07.32,1.37,1.37,0,0,0,0,.35.69.69,0,0,0,.08.28.64.64,0,0,0,.1.13.38.38,0,0,0,.13.09.55.55,0,0,0,.31.05.77.77,0,0,0,.29-.1,1,1,0,0,0,.26-.21,1.51,1.51,0,0,0,.18-.26,1.82,1.82,0,0,0,.11-.3,2.31,2.31,0,0,0,0-.37,1.24,1.24,0,0,0,0-.27,1.21,1.21,0,0,0-.05-.18l-.09-.13a.38.38,0,0,0-.26-.13"/>
    <path class="cls-6" d="M135.48,61a1.14,1.14,0,0,0,.19-.19c.05-.07.1-.16.14-.23a1.39,1.39,0,0,0,.1-.53"/>
    <path class="cls-6" d="M135.37,60.66l.11.32"/>
    <path class="cls-6" d="M135.26,60.26a1.62,1.62,0,0,1,0-.19.69.69,0,0,1,0-.1l0-.08a.24.24,0,0,1,.08-.06h.09a.1.1,0,0,1,.06.05.42.42,0,0,1,0,.1.2.2,0,0,1,0,.07v.13a.77.77,0,0,1,0,.19.57.57,0,0,1-.24.29"/>
    <path class="cls-6" d="M134.77,59.66a.78.78,0,0,0-.22.26l0,.08,0,.08c0,.05,0,.11,0,.16a1.37,1.37,0,0,0,0,.35.65.65,0,0,0,0,.19.88.88,0,0,0,0,.15.37.37,0,0,0,.12.13.22.22,0,0,0,.16,0,.35.35,0,0,0,.16-.06.34.34,0,0,0,.12-.12.67.67,0,0,0,.09-.14l.06-.17,0-.17,0-.17"/>
    <path class="cls-6" d="M134.88,60c0-.1-.07-.2-.11-.31"/>
    <path class="cls-6" d="M135,60.27a1.36,1.36,0,0,1,0,.17s0,.05,0,.08l0,.08a.24.24,0,0,1-.06.08l-.07,0a0,0,0,0,1-.06,0l0,0,0,0s0-.05,0-.08v-.09a.47.47,0,0,1,0-.17,1.19,1.19,0,0,1,.08-.16.68.68,0,0,1,.12-.12"/>
    <path class="cls-6" d="M135.91,60a.76.76,0,0,0-.1-.46l-.08-.09-.1,0h-.11l-.12,0a.49.49,0,0,0-.18.14.61.61,0,0,0-.07.1.47.47,0,0,0-.05.1.56.56,0,0,0,0,.12V60s0,0,0,.05,0,.16,0,.24"/>
    <line class="cls-6" x1="98.11" y1="58.26" x2="95.75" y2="58.87"/>
    <line class="cls-6" x1="98.11" y1="58.61" x2="98.11" y2="58.26"/>
    <line class="cls-6" x1="95.76" y1="59.22" x2="98.11" y2="58.61"/>
    <line class="cls-6" x1="95.75" y1="58.87" x2="95.76" y2="59.22"/>
    <path class="cls-6" d="M135.57,53.52a.86.86,0,0,0,.15-.45.78.78,0,0,0,0-.26.37.37,0,0,0-.09-.19.32.32,0,0,0-.18-.12.36.36,0,0,0-.25,0,.61.61,0,0,0-.37.28.79.79,0,0,0-.16.44,1.23,1.23,0,0,0,0,.27.48.48,0,0,0,.09.19.43.43,0,0,0,.19.13.4.4,0,0,0,.24,0A.63.63,0,0,0,135.57,53.52Z"/>
    <path class="cls-6" d="M135.74,52.3a.52.52,0,0,0-.29-.16h-.17l-.19.05a1,1,0,0,0-.27.18,1.05,1.05,0,0,0-.22.3,1.34,1.34,0,0,0-.17.67,1.2,1.2,0,0,0,0,.38.69.69,0,0,0,.15.28.48.48,0,0,0,.29.15.54.54,0,0,0,.18,0l.18,0a.92.92,0,0,0,.28-.19,1.58,1.58,0,0,0,.22-.29,1.45,1.45,0,0,0,.16-.68,1,1,0,0,0-.05-.38A.72.72,0,0,0,135.74,52.3Z"/>
    <path class="cls-6" d="M135.77,48.34a.77.77,0,0,0,0-.26.35.35,0,0,0-.12-.17.34.34,0,0,0-.19-.09h-.12a.35.35,0,0,0-.14,0A.55.55,0,0,0,135,48a.55.55,0,0,0-.16.18.89.89,0,0,0-.12.45.74.74,0,0,0,0,.26.44.44,0,0,0,.12.18.33.33,0,0,0,.19.08h.12l.13,0a.43.43,0,0,0,.2-.11.7.7,0,0,0,.16-.19A.8.8,0,0,0,135.77,48.34Z"/>
    <line class="cls-6" x1="136.49" y1="48.76" x2="135.76" y2="48.95"/>
    <line class="cls-6" x1="136.49" y1="49.09" x2="136.49" y2="48.76"/>
    <line class="cls-6" x1="134.49" y1="49.61" x2="136.49" y2="49.09"/>
    <line class="cls-6" x1="134.49" y1="49.28" x2="134.49" y2="49.61"/>
    <line class="cls-6" x1="134.71" y1="49.22" x2="134.49" y2="49.28"/>
    <path class="cls-6" d="M135.76,49a2.39,2.39,0,0,0,.13-.21,2.58,2.58,0,0,0,.08-.26,1.1,1.1,0,0,0,0-.18v-.15a1.11,1.11,0,0,0,0-.19.77.77,0,0,0-.1-.25.58.58,0,0,0-.18-.17.46.46,0,0,0-.23-.06.84.84,0,0,0-.27,0,1,1,0,0,0-.43.28,1.35,1.35,0,0,0-.24.46,1.75,1.75,0,0,0,0,.32.6.6,0,0,0,0,.19,1,1,0,0,0,.08.29.61.61,0,0,0,.07.1l.08.06"/>
    <path class="cls-6" d="M134.37,66.68l1.45-.42"/>
    <path class="cls-6" d="M134.37,66.27v.41"/>
    <path class="cls-6" d="M134.62,66.2l-.25.07"/>
    <path class="cls-6" d="M134.65,65a.71.71,0,0,0-.21.27.89.89,0,0,0-.08.33v.07a.17.17,0,0,0,0,.1.51.51,0,0,0,0,.17.39.39,0,0,0,.23.24"/>
    <path class="cls-6" d="M134.87,63.65a.59.59,0,0,0-.33.25.79.79,0,0,0-.16.39,1.48,1.48,0,0,0,0,.21.75.75,0,0,0,0,.21.82.82,0,0,0,.09.19.41.41,0,0,0,.17.12"/>
    <path class="cls-6" d="M135.86,63.37l-1,.28"/>
    <path class="cls-6" d="M135.85,63.79c0-.14,0-.28,0-.42"/>
    <path class="cls-6" d="M135,64.05l.9-.26"/>
    <path class="cls-6" d="M135.1,64.82a.42.42,0,0,1-.31,0,.29.29,0,0,1-.15-.27.86.86,0,0,1,0-.16.88.88,0,0,1,0-.15.58.58,0,0,1,.1-.12.3.3,0,0,1,.15-.07"/>
    <path class="cls-6" d="M135.84,64.61l-.74.21"/>
    <path class="cls-6" d="M135.84,65v-.41"/>
    <path class="cls-6" d="M134.93,65.28l.91-.26"/>
    <path class="cls-6" d="M135.09,66.06a.42.42,0,0,1-.31,0,.26.26,0,0,1-.15-.26.43.43,0,0,1,0-.16.44.44,0,0,1,.05-.15.4.4,0,0,1,.1-.12.39.39,0,0,1,.14-.08"/>
    <path class="cls-6" d="M135.83,65.85l-.74.21"/>
    <path class="cls-6" d="M135.82,66.26c0-.14,0-.28,0-.41"/>
    <path class="cls-6" d="M97.91,60.15a.66.66,0,0,0,0-.28.45.45,0,0,0-.14-.19.58.58,0,0,0-.22-.08h-.13l-.08,0-.07,0a.79.79,0,0,0-.4.32.92.92,0,0,0-.13.49.69.69,0,0,0,0,.28.4.4,0,0,0,.14.18.42.42,0,0,0,.22.08h.13l.15,0a.75.75,0,0,0,.39-.31A.87.87,0,0,0,97.91,60.15Z"/>
    <line class="cls-6" x1="98.75" y1="60.57" x2="97.91" y2="60.79"/>
    <line class="cls-6" x1="98.75" y1="60.91" x2="98.75" y2="60.57"/>
    <line class="cls-6" x1="96.48" y1="61.51" x2="98.75" y2="60.91"/>
    <line class="cls-6" x1="96.47" y1="61.17" x2="96.48" y2="61.51"/>
    <line class="cls-6" x1="96.71" y1="61.1" x2="96.47" y2="61.17"/>
    <path class="cls-6" d="M97.91,60.79a.79.79,0,0,0,.14-.23,1.52,1.52,0,0,0,.09-.28,1.36,1.36,0,0,0,0-.2V60a.41.41,0,0,0,0-.11.63.63,0,0,0,0-.19.91.91,0,0,0-.13-.26.54.54,0,0,0-.21-.16.58.58,0,0,0-.26-.06.93.93,0,0,0-.29,0,1.06,1.06,0,0,0-.47.3,1.18,1.18,0,0,0-.17.22,1.39,1.39,0,0,0-.1.26,1.06,1.06,0,0,0,0,.35,1.47,1.47,0,0,0,0,.21.77.77,0,0,0,.11.3.38.38,0,0,0,.16.17"/>
    <line class="cls-6" x1="96.61" y1="53.79" x2="97.54" y2="53.55"/>
    <line class="cls-6" x1="96.62" y1="54.18" x2="96.61" y2="53.79"/>
    <line class="cls-6" x1="96.37" y1="54.24" x2="96.62" y2="54.18"/>
    <line class="cls-6" x1="96.36" y1="53.85" x2="96.37" y2="54.24"/>
    <line class="cls-6" x1="95.85" y1="53.98" x2="96.36" y2="53.85"/>
    <line class="cls-6" x1="95.84" y1="53.63" x2="95.85" y2="53.98"/>
    <line class="cls-6" x1="96.35" y1="53.5" x2="95.84" y2="53.63"/>
    <line class="cls-6" x1="96.34" y1="52.94" x2="96.35" y2="53.5"/>
    <line class="cls-6" x1="96.6" y1="52.87" x2="96.34" y2="52.94"/>
    <line class="cls-6" x1="96.6" y1="53.43" x2="96.6" y2="52.87"/>
    <line class="cls-6" x1="97.54" y1="53.2" x2="96.6" y2="53.43"/>
    <path class="cls-6" d="M97.75,52.58a.53.53,0,0,1,0,.18v.09a.28.28,0,0,1,0,.09.4.4,0,0,1-.09.17.32.32,0,0,1-.16.09"/>
    <line class="cls-6" x1="98.01" y1="52.49" x2="97.75" y2="52.58"/>
    <path class="cls-6" d="M97.54,53.55a.71.71,0,0,0,.29-.14,1.19,1.19,0,0,0,.18-.27,1.26,1.26,0,0,0,0-.33.89.89,0,0,0,0-.32"/>
    <line class="cls-6" x1="96.86" y1="54.67" x2="96.76" y2="54.4"/>
    <path class="cls-6" d="M97,55.19a.59.59,0,0,1-.05.19.42.42,0,0,1,0,.1l-.07.06a.14.14,0,0,1-.09,0,.18.18,0,0,1-.09,0,.25.25,0,0,1,0-.07.23.23,0,0,1,0-.11,1.21,1.21,0,0,1,0-.19,1.29,1.29,0,0,1,0-.19.56.56,0,0,1,.09-.17.57.57,0,0,1,.14-.13"/>
    <path class="cls-6" d="M97.61,55.79a1.18,1.18,0,0,0,.29-.3,1.11,1.11,0,0,0,.16-.39,1.36,1.36,0,0,0,0-.2.81.81,0,0,0,0-.22,1.7,1.7,0,0,0,0-.22.56.56,0,0,0-.09-.17.34.34,0,0,0-.37-.13.7.7,0,0,0-.2.08,1,1,0,0,0-.14.15.66.66,0,0,0-.09.19l-.06.2c0,.07,0,.15,0,.22l0,.19"/>
    <line class="cls-6" x1="97.5" y1="55.51" x2="97.61" y2="55.79"/>
    <path class="cls-6" d="M97.31,55a1.55,1.55,0,0,1,0-.23l0-.12.07-.09a.2.2,0,0,1,.11-.06.12.12,0,0,1,.1,0,.18.18,0,0,1,.08.07.39.39,0,0,1,.06.11s0,.06,0,.09v.15a1,1,0,0,1,0,.23.79.79,0,0,1-.3.35"/>
    <path class="cls-6" d="M96.76,54.4a.87.87,0,0,0-.26.28,1,1,0,0,0-.12.35.88.88,0,0,0,0,.17,1.34,1.34,0,0,0,0,.2,1.42,1.42,0,0,0,0,.2.56.56,0,0,0,.07.16.35.35,0,0,0,.14.13.25.25,0,0,0,.17,0l.1,0,.08-.05a.37.37,0,0,0,.13-.12,1.09,1.09,0,0,0,.15-.35c0-.12.05-.24.07-.36"/>
    <path class="cls-6" d="M97.29,57a2.7,2.7,0,0,0,0,.28.59.59,0,0,0,.06.14.36.36,0,0,0,.07.1.21.21,0,0,0,.17,0l.08,0a.28.28,0,0,0,.09-.1.31.31,0,0,0,.06-.13.5.5,0,0,0,0-.12s0,0,0-.06a.38.38,0,0,0,0-.1.59.59,0,0,0-.07-.26.39.39,0,0,0-.21-.17.66.66,0,0,0-.28,0"/>
    <line class="cls-6" x1="97.25" y1="56.63" x2="97.29" y2="57.02"/>
    <line class="cls-6" x1="97.32" y1="56.61" x2="97.25" y2="56.63"/>
    <path class="cls-6" d="M97,56.34a.72.72,0,0,0-.44.34,1.08,1.08,0,0,0-.17.55v.15a.57.57,0,0,0,0,.13.9.9,0,0,0,.08.28.64.64,0,0,0,.19.21.55.55,0,0,0,.28.06"/>
    <line class="cls-6" x1="98.08" y1="56.07" x2="97" y2="56.34"/>
    <line class="cls-6" x1="98.08" y1="56.41" x2="98.08" y2="56.07"/>
    <line class="cls-6" x1="97.8" y1="56.49" x2="98.08" y2="56.41"/>
    <path class="cls-6" d="M97.07,57.08a1.56,1.56,0,0,0,.19.7.32.32,0,0,0,.31.16l.07,0h0l.08,0a.45.45,0,0,0,.13-.11.87.87,0,0,0,.18-.31,1.12,1.12,0,0,0,.05-.36.89.89,0,0,0-.07-.36.91.91,0,0,0-.11-.16.42.42,0,0,0-.14-.09"/>
    <line class="cls-6" x1="97.03" y1="56.69" x2="97.07" y2="57.08"/>
    <line class="cls-6" x1="96.99" y1="56.69" x2="97.03" y2="56.69"/>
    <path class="cls-6" d="M97,57.72a.35.35,0,0,1-.17,0,.37.37,0,0,1-.13-.12.67.67,0,0,1-.07-.34.83.83,0,0,1,.1-.34.44.44,0,0,1,.27-.21"/>
    <line class="cls-6" x1="96.95" y1="58.06" x2="96.99" y2="57.72"/>
    <line class="cls-6" x1="150.73" y1="21.2" x2="150.73" y2="21.38"/>
    <line class="cls-6" x1="148.17" y1="20.72" x2="148.15" y2="21.94"/>
    <line class="cls-6" x1="164.59" y1="29.31" x2="164.58" y2="29.32"/>
    <path class="cls-6" d="M111.52,23.89h0"/>
    <path class="cls-6" d="M84.56,29.49h0"/>
    <line class="cls-6" x1="110.26" y1="24.83" x2="109.02" y2="25.08"/>
    <path class="cls-6" d="M111.84,28h0"/>
    <path class="cls-6" d="M112.64,26.67a1.23,1.23,0,0,1,0,.38,1,1,0,0,1-.07.38.86.86,0,0,1-.2.33.7.7,0,0,1-.32.2"/>
    <line class="cls-6" x1="110.26" y1="24.83" x2="110.05" y2="24.89"/>
    <line class="cls-6" x1="110.5" y1="26.74" x2="109.57" y2="26.94"/>
    <line class="cls-6" x1="109.57" y1="26.94" x2="109.42" y2="26.36"/>
    <line class="cls-6" x1="110.11" y1="25.82" x2="109.25" y2="26"/>
    <line class="cls-6" x1="109.77" y1="26.88" x2="110.71" y2="26.68"/>
    <line class="cls-6" x1="110.71" y1="26.68" x2="110.8" y2="27.06"/>
    <line class="cls-6" x1="109.24" y1="25.99" x2="110.32" y2="25.76"/>
    <line class="cls-6" x1="110.32" y1="25.76" x2="110.41" y2="26.13"/>
    <line class="cls-6" x1="110.32" y1="25.76" x2="110.11" y2="25.82"/>
    <line class="cls-6" x1="110.71" y1="26.68" x2="110.5" y2="26.74"/>
    <line class="cls-6" x1="109.77" y1="26.88" x2="109.57" y2="26.94"/>
    <line class="cls-6" x1="109.64" y1="26.3" x2="109.42" y2="26.36"/>
    <path class="cls-6" d="M81.75,30.43h0"/>
    <path class="cls-6" d="M92.63,33.34a3.88,3.88,0,0,1,1.31.71"/>
    <path class="cls-6" d="M93.94,34.05l.54.43.55.42.28.2.28.19a6.08,6.08,0,0,0,.59.35,4,4,0,0,0,.63.3,1.75,1.75,0,0,0,.32.12l.33.1a3,3,0,0,0,1.37,0"/>
    <path class="cls-6" d="M126.31,30.06a1.53,1.53,0,0,0,.41-.14,1.76,1.76,0,0,0,.37-.23"/>
    <path class="cls-6" d="M111.7,23.86l.19-.05"/>
    <path class="cls-6" d="M115.74,23.32a2.77,2.77,0,0,0-1.28,0"/>
    <path class="cls-6" d="M81.53,30.12l.2-.05"/>
    <path class="cls-6" d="M84.37,29.53h.07l.12,0"/>
    <path class="cls-6" d="M92.62,33a4.23,4.23,0,0,1,1.54.88"/>
    <path class="cls-6" d="M94.16,33.86c.35.29.7.59,1.07.87l.27.2.29.2c.19.12.38.24.59.35a3.54,3.54,0,0,0,.62.3l.32.13.33.09A3,3,0,0,0,99,36"/>
    <path class="cls-6" d="M127.1,26.68a4.35,4.35,0,0,0-1.55-.81"/>
    <path class="cls-6" d="M97.2,33.19s0,0,0,.05"/>
    <path class="cls-6" d="M124.51,27.24a.05.05,0,0,1,0,.05"/>
    <line class="cls-6" x1="111.7" y1="23.86" x2="111.71" y2="23.9"/>
    <path class="cls-6" d="M97.2,33.19s0,.05,0,.08"/>
    <path class="cls-6" d="M96.89,33.09a.36.36,0,0,1,.31.1"/>
    <path class="cls-6" d="M124,27.18a.41.41,0,0,1,.32.1"/>
    <line class="cls-6" x1="112.09" y1="27.96" x2="111.88" y2="28.02"/>
    <path class="cls-6" d="M112.09,28h0"/>
    <line class="cls-6" x1="81.73" y1="30.07" x2="84.56" y2="29.48"/>
    <line class="cls-6" x1="111.89" y1="23.81" x2="114.46" y2="23.28"/>
    <path class="cls-6" d="M81.73,30.07a2.52,2.52,0,0,1,1.25.06"/>
    <path class="cls-6" d="M84.56,29.48l-.19.05"/>
    <path class="cls-6" d="M114.46,23.28l-.2,0"/>
    <line class="cls-6" x1="127.28" y1="29.54" x2="127.09" y2="29.69"/>
    <path class="cls-6" d="M124,27.21l.06,0"/>
    <path class="cls-6" d="M96.85,33.1h0"/>
    <line class="cls-6" x1="109.03" y1="25.1" x2="110.05" y2="24.89"/>
    <line class="cls-6" x1="93.85" y1="31.89" x2="111.84" y2="28.03"/>
    <line class="cls-6" x1="110.58" y1="27.11" x2="110.5" y2="26.74"/>
    <line class="cls-6" x1="110.19" y1="26.18" x2="110.11" y2="25.82"/>
    <path class="cls-6" d="M113.16,24.18l-.19.11"/>
    <line class="cls-6" x1="124.49" y1="27.32" x2="124.51" y2="27.24"/>
    <line class="cls-6" x1="97.18" y1="33.27" x2="97.2" y2="33.19"/>
    <line class="cls-6" x1="112.05" y1="27.97" x2="93.82" y2="31.88"/>
    <line class="cls-6" x1="109.64" y1="26.3" x2="109.77" y2="26.88"/>
    <path class="cls-6" d="M111.89,23.81a2.77,2.77,0,0,1,1.28,0"/>
    <path class="cls-6" d="M126.5,29.91a2,2,0,0,0,.41-.14,1.76,1.76,0,0,0,.37-.23"/>
    <line class="cls-6" x1="107.78" y1="43.68" x2="106.2" y2="43.19"/>
    <line class="cls-6" x1="106.2" y1="43.19" x2="106.21" y2="43.79"/>
    <line class="cls-6" x1="106.2" y1="43.19" x2="111.65" y2="41.9"/>
    <line class="cls-6" x1="108.5" y1="135.86" x2="113.61" y2="133.85"/>
    <line class="cls-6" x1="101.11" y1="45.27" x2="99.54" y2="44.78"/>
    <line class="cls-6" x1="99.54" y1="44.78" x2="99.55" y2="45.4"/>
    <line class="cls-6" x1="102.24" y1="138.32" x2="107.46" y2="136.27"/>
    <line class="cls-6" x1="107.46" y1="135.33" x2="108.5" y2="135.86"/>
    <line class="cls-6" x1="148.75" y1="120.03" x2="153.21" y2="118.28"/>
    <line class="cls-6" x1="150.51" y1="33.46" x2="148.91" y2="33.04"/>
    <line class="cls-6" x1="148.91" y1="33.04" x2="148.9" y2="33.51"/>
    <line class="cls-6" x1="148.91" y1="33.04" x2="153.62" y2="31.92"/>
    <line class="cls-6" x1="163.77" y1="109.05" x2="166.18" y2="29.71"/>
    <line class="cls-6" x1="159.32" y1="115.87" x2="159.76" y2="115.7"/>
    <line class="cls-6" x1="161.66" y1="30.79" x2="160.07" y2="30.39"/>
    <line class="cls-6" x1="160.07" y1="30.39" x2="164.58" y2="29.32"/>
    <path class="cls-6" d="M159.76,115.7a5.17,5.17,0,0,0,1.67-1.14,8.16,8.16,0,0,0,1.22-1.63,9.28,9.28,0,0,0,.79-1.87,8,8,0,0,0,.33-2"/>
    <line class="cls-6" x1="147.87" y1="119.64" x2="148.75" y2="120.03"/>
    <line class="cls-6" x1="131.86" y1="126.84" x2="132.18" y2="126.72"/>
    <line class="cls-6" x1="132.6" y1="126.78" x2="148.31" y2="120.59"/>
    <path class="cls-6" d="M131.86,126.84a.28.28,0,0,1-.22,0"/>
    <line class="cls-6" x1="132.44" y1="126.78" x2="132.33" y2="126.72"/>
    <path class="cls-6" d="M128.69,25.93a3.91,3.91,0,0,1,1.74,1,6.46,6.46,0,0,1,1.2,1.65,8.42,8.42,0,0,1,1,3.94"/>
    <path class="cls-6" d="M132.6,126.78a.29.29,0,0,1-.16,0"/>
    <path class="cls-6" d="M132.33,126.72a.19.19,0,0,0-.15,0"/>
    <line class="cls-6" x1="131.64" y1="126.85" x2="131.42" y2="126.75"/>
    <path class="cls-6" d="M131.64,126.85a.29.29,0,0,1-.14-.15.64.64,0,0,1,0-.2"/>
    <path class="cls-6" d="M131.82,126.45h0"/>
    <line class="cls-6" x1="148.31" y1="120.2" x2="147.86" y2="120.38"/>
    <line class="cls-6" x1="143.32" y1="122.17" x2="142.4" y2="122.53"/>
    <line class="cls-6" x1="164.59" y1="29.32" x2="164.59" y2="29.31"/>
    <line class="cls-6" x1="160.07" y1="30.39" x2="159.16" y2="30.6"/>
    <line class="cls-6" x1="150.51" y1="33.46" x2="148.75" y2="120.03"/>
    <line class="cls-6" x1="166.18" y1="29.71" x2="161.66" y2="30.79"/>
    <line class="cls-6" x1="160.07" y1="30.39" x2="160.05" y2="30.83"/>
    <line class="cls-6" x1="143.16" y1="34.41" x2="143.16" y2="34.9"/>
    <line class="cls-6" x1="120.69" y1="40.59" x2="119.11" y2="40.12"/>
    <line class="cls-6" x1="119.11" y1="40.12" x2="119.11" y2="40.68"/>
    <line class="cls-6" x1="119.11" y1="40.12" x2="124.33" y2="38.88"/>
    <line class="cls-6" x1="120.62" y1="131.09" x2="125.54" y2="129.16"/>
    <line class="cls-6" x1="126.94" y1="39.09" x2="125.36" y2="38.64"/>
    <line class="cls-6" x1="125.36" y1="38.64" x2="125.35" y2="39.18"/>
    <line class="cls-6" x1="125.36" y1="38.64" x2="130.46" y2="37.43"/>
    <line class="cls-6" x1="114.3" y1="42.12" x2="112.73" y2="41.64"/>
    <line class="cls-6" x1="114.62" y1="133.45" x2="119.63" y2="131.48"/>
    <line class="cls-6" x1="119.63" y1="130.61" x2="120.62" y2="131.09"/>
    <line class="cls-6" x1="125.54" y1="128.32" x2="126.51" y2="128.78"/>
    <line class="cls-6" x1="125.91" y1="39.34" x2="120.69" y2="40.59"/>
    <line class="cls-6" x1="132.89" y1="37.67" x2="132.54" y2="37.57"/>
    <path class="cls-6" d="M148.17,20.72a6.38,6.38,0,0,1,.3-1.84,4.35,4.35,0,0,1,.92-1.62"/>
    <line class="cls-6" x1="132.1" y1="32.8" x2="132.07" y2="36.97"/>
    <path class="cls-6" d="M79.13,31a2.25,2.25,0,0,1,1.18.06"/>
    <path class="cls-6" d="M112.86,24.31a6.84,6.84,0,0,0-.74.21"/>
    <path class="cls-6" d="M89.94,33.92a3.17,3.17,0,0,1,.51.2,5.39,5.39,0,0,1,.52.3,5.27,5.27,0,0,1,.87.76,7.7,7.7,0,0,1,1.28,1.91,10.51,10.51,0,0,1,1.07,4.44"/>
    <line class="cls-6" x1="137.77" y1="124.35" x2="142.4" y2="122.53"/>
    <line class="cls-6" x1="138.89" y1="36.24" x2="137.3" y2="35.8"/>
    <line class="cls-6" x1="137.3" y1="35.8" x2="137.29" y2="36.31"/>
    <line class="cls-6" x1="137.3" y1="35.8" x2="142.2" y2="34.64"/>
    <line class="cls-6" x1="100.66" y1="138.94" x2="101.19" y2="138.74"/>
    <line class="cls-6" x1="97.68" y1="138.9" x2="97.04" y2="138.57"/>
    <line class="cls-6" x1="154.09" y1="117.93" x2="158.46" y2="116.21"/>
    <line class="cls-6" x1="156.14" y1="32.11" x2="154.55" y2="31.7"/>
    <line class="cls-6" x1="154.55" y1="31.7" x2="154.54" y2="32.16"/>
    <line class="cls-6" x1="154.55" y1="31.7" x2="159.16" y2="30.6"/>
    <line class="cls-6" x1="102.36" y1="44.03" x2="102.36" y2="44.11"/>
    <line class="cls-6" x1="112.43" y1="41.64" x2="112.43" y2="42.13"/>
    <line class="cls-6" x1="112.73" y1="41.64" x2="112.73" y2="42.22"/>
    <line class="cls-6" x1="137.9" y1="36.47" x2="132.89" y2="37.67"/>
    <line class="cls-6" x1="94.27" y1="45.95" x2="94.19" y2="41.53"/>
    <path class="cls-6" d="M80.88,30.61a.55.55,0,0,1,.26-.32,1.49,1.49,0,0,1,.39-.17"/>
    <line class="cls-6" x1="101.17" y1="137.77" x2="102.24" y2="138.32"/>
    <line class="cls-6" x1="158.48" y1="115.52" x2="159.32" y2="115.87"/>
    <line class="cls-6" x1="128.37" y1="25.84" x2="128.69" y2="25.93"/>
    <line class="cls-6" x1="137.77" y1="124.35" x2="136.84" y2="124.71"/>
    <line class="cls-6" x1="116.23" y1="40.73" x2="116.37" y2="40.78"/>
    <line class="cls-6" x1="137.3" y1="35.8" x2="136.31" y2="36.04"/>
    <line class="cls-6" x1="143.16" y1="34.41" x2="142.2" y2="34.64"/>
    <line class="cls-6" x1="154.55" y1="31.7" x2="153.62" y2="31.92"/>
    <line class="cls-6" x1="117.64" y1="40.47" x2="117.5" y2="40.43"/>
    <line class="cls-6" x1="113.31" y1="41.5" x2="113.17" y2="41.46"/>
    <line class="cls-6" x1="113.61" y1="132.95" x2="114.62" y2="133.45"/>
    <line class="cls-6" x1="132.54" y1="36.93" x2="136.31" y2="36.04"/>
    <line class="cls-6" x1="131.85" y1="126.45" x2="132.12" y2="126.57"/>
    <path class="cls-6" d="M113.43,24.26a1.9,1.9,0,0,0-.34,0"/>
    <line class="cls-6" x1="110.1" y1="25.1" x2="109.08" y2="25.32"/>
    <path class="cls-6" d="M112,24.19l.29-.09"/>
    <line class="cls-6" x1="115.83" y1="23.34" x2="116.9" y2="23.12"/>
    <line class="cls-6" x1="153.23" y1="117.56" x2="154.09" y2="117.93"/>
    <path class="cls-6" d="M150.43,21.26a3.52,3.52,0,0,1,.3-1.4,3,3,0,0,1,.38-.62,1.89,1.89,0,0,1,.57-.44"/>
    <line class="cls-6" x1="132.55" y1="36.81" x2="132.81" y2="36.74"/>
    <line class="cls-6" x1="110.35" y1="25.21" x2="110.26" y2="24.83"/>
    <line class="cls-6" x1="92.63" y1="33.34" x2="82.98" y2="30.48"/>
    <line class="cls-6" x1="82.98" y1="30.13" x2="92.62" y2="32.98"/>
    <path class="cls-6" d="M123,26.43a4.07,4.07,0,0,1,1.54.81"/>
    <line class="cls-6" x1="113.23" y1="42.37" x2="107.78" y2="43.68"/>
    <line class="cls-6" x1="99.54" y1="44.78" x2="105.1" y2="43.45"/>
    <line class="cls-6" x1="106.68" y1="43.94" x2="101.11" y2="45.27"/>
    <line class="cls-6" x1="155.21" y1="32.33" x2="150.51" y2="33.46"/>
    <line class="cls-6" x1="144.76" y1="34.83" x2="143.16" y2="34.41"/>
    <line class="cls-6" x1="143.16" y1="34.41" x2="147.96" y2="33.27"/>
    <path class="cls-6" d="M131.78,126.38s0,.06,0,.07"/>
    <line class="cls-6" x1="132.12" y1="126.57" x2="136.84" y2="124.71"/>
    <line class="cls-6" x1="80.31" y1="31.04" x2="89.94" y2="33.92"/>
    <line class="cls-6" x1="143.79" y1="35.07" x2="138.89" y2="36.24"/>
    <line class="cls-6" x1="99.98" y1="45.54" x2="98.95" y2="45.79"/>
    <line class="cls-6" x1="160.75" y1="31.01" x2="156.14" y2="32.11"/>
    <line class="cls-6" x1="156.14" y1="32.11" x2="154.09" y2="117.93"/>
    <path class="cls-6" d="M76.12,36.12a8.66,8.66,0,0,1,.08-1.52,6.36,6.36,0,0,1,.38-1.47,4.05,4.05,0,0,1,.78-1.29,2.45,2.45,0,0,1,1.3-.77"/>
    <line class="cls-6" x1="89.85" y1="33.94" x2="80.22" y2="31.06"/>
    <line class="cls-6" x1="79.84" y1="31.14" x2="89.46" y2="34.02"/>
    <path class="cls-6" d="M94.1,41.55A10.82,10.82,0,0,0,93,37.11a8.23,8.23,0,0,0-1.29-1.91,5.64,5.64,0,0,0-.86-.76,5.54,5.54,0,0,0-.53-.3,3.07,3.07,0,0,0-.5-.2"/>
    <line class="cls-6" x1="78.7" y1="126.7" x2="76.12" y2="36.12"/>
    <line class="cls-6" x1="100.58" y1="139.39" x2="114.12" y2="134.06"/>
    <line class="cls-6" x1="78.66" y1="31.07" x2="79.04" y2="31"/>
    <path class="cls-6" d="M79,31l-.19,0"/>
    <line class="cls-6" x1="97.36" y1="139.35" x2="80.79" y2="130.62"/>
    <path class="cls-6" d="M97.36,139.35a3.3,3.3,0,0,0,1.6.37,4.3,4.3,0,0,0,1.62-.33"/>
    <path class="cls-6" d="M80.79,130.62A3.6,3.6,0,0,1,79.22,129a5.53,5.53,0,0,1-.52-2.26"/>
    <path class="cls-6" d="M100.57,139a4.09,4.09,0,0,1-1.5.3,3,3,0,0,1-1.49-.35"/>
    <line class="cls-6" x1="162.65" y1="18.18" x2="152.75" y2="15.94"/>
    <line class="cls-6" x1="152.44" y1="16" x2="162.35" y2="18.25"/>
    <line class="cls-6" x1="164.14" y1="108.91" x2="166.72" y2="24.83"/>
    <line class="cls-6" x1="159.84" y1="115.67" x2="159.76" y2="115.7"/>
    <line class="cls-6" x1="148.31" y1="120.59" x2="159.83" y2="116.05"/>
    <path class="cls-6" d="M159.83,116.05a5.3,5.3,0,0,0,1.79-1.23,8.25,8.25,0,0,0,1.31-1.75,9.12,9.12,0,0,0,.85-2,8.79,8.79,0,0,0,.36-2.15"/>
    <path class="cls-6" d="M163.85,109a8,8,0,0,1-.33,2,9.13,9.13,0,0,1-.79,1.88,7.65,7.65,0,0,1-1.22,1.62,4.94,4.94,0,0,1-1.67,1.15"/>
    <path class="cls-6" d="M162.65,18.18a4.27,4.27,0,0,1,1.82,1,6.11,6.11,0,0,1,1.28,1.63,8,8,0,0,1,1,4"/>
    <path class="cls-6" d="M166.42,24.9a8,8,0,0,0-1-4,6.32,6.32,0,0,0-1.28-1.64,4.15,4.15,0,0,0-1.82-1"/>
    <line class="cls-6" x1="151.21" y1="15.98" x2="151.51" y2="15.92"/>
    <path class="cls-6" d="M151.51,15.92a2.88,2.88,0,0,1,1.24,0"/>
    <path class="cls-6" d="M151.36,16l.15,0"/>
    <line class="cls-6" x1="166.42" y1="24.9" x2="163.85" y2="109.02"/>
    <path class="cls-6" d="M166.34,24.91a7.84,7.84,0,0,0-1-4,6.24,6.24,0,0,0-1.29-1.64,4.16,4.16,0,0,0-1.82-1"/>
    <line class="cls-6" x1="162.27" y1="18.26" x2="152.37" y2="16.02"/>
    <line class="cls-6" x1="166.34" y1="24.91" x2="166.22" y2="28.86"/>
    <path class="cls-6" d="M117.75,22.94A2.75,2.75,0,0,1,119,23"/>
    <line class="cls-6" x1="114.04" y1="28.07" x2="114.05" y2="29.35"/>
    <line class="cls-6" x1="118.54" y1="25.98" x2="123.52" y2="27.29"/>
    <path class="cls-6" d="M118,25.93a1.7,1.7,0,0,0-.66.44,2.64,2.64,0,0,0-.43.67,4,4,0,0,0-.29,1.57"/>
    <line class="cls-6" x1="114.13" y1="134.05" x2="130.85" y2="127.47"/>
    <line class="cls-6" x1="130.88" y1="127.23" x2="131.06" y2="127.16"/>
    <path class="cls-6" d="M130.88,127.43s0,0,0,0"/>
    <path class="cls-6" d="M116.55,23.54h0"/>
    <line class="cls-6" x1="114.12" y1="133.65" x2="113.61" y2="133.85"/>
    <path class="cls-6" d="M132.71,32.54a8.59,8.59,0,0,0-1-4,6.41,6.41,0,0,0-1.22-1.66,3.89,3.89,0,0,0-1.75-1"/>
    <line class="cls-6" x1="147.56" y1="17.07" x2="147.78" y2="17.03"/>
    <line class="cls-6" x1="116.62" y1="28.61" x2="116.62" y2="28.79"/>
    <line class="cls-6" x1="150.43" y1="21.26" x2="150.73" y2="21.2"/>
    <path class="cls-6" d="M150.73,21.2a3.54,3.54,0,0,1,.36-1.53,2.37,2.37,0,0,1,.46-.63,1.67,1.67,0,0,1,.67-.41"/>
    <path class="cls-6" d="M152.07,18.66a1.3,1.3,0,0,0-.39.14"/>
    <line class="cls-6" x1="116.28" y1="28.68" x2="116.62" y2="28.61"/>
    <path class="cls-6" d="M146.34,16.67h0"/>
    <path class="cls-6" d="M122.5,21.62h0"/>
    <line class="cls-6" x1="145.28" y1="17.52" x2="144.19" y2="17.75"/>
    <path class="cls-6" d="M146.69,20.55h0"/>
    <path class="cls-6" d="M147.42,19.28a1.42,1.42,0,0,1,0,.71.94.94,0,0,1-.17.31.67.67,0,0,1-.3.19"/>
    <line class="cls-6" x1="145.28" y1="17.52" x2="145.07" y2="17.58"/>
    <line class="cls-6" x1="145.48" y1="19.33" x2="144.66" y2="19.51"/>
    <line class="cls-6" x1="144.66" y1="19.51" x2="144.53" y2="18.96"/>
    <line class="cls-6" x1="145.13" y1="18.46" x2="144.39" y2="18.61"/>
    <line class="cls-6" x1="144.87" y1="19.44" x2="145.7" y2="19.27"/>
    <line class="cls-6" x1="145.7" y1="19.27" x2="145.78" y2="19.63"/>
    <line class="cls-6" x1="144.39" y1="18.6" x2="145.34" y2="18.4"/>
    <line class="cls-6" x1="145.34" y1="18.4" x2="145.43" y2="18.75"/>
    <line class="cls-6" x1="145.34" y1="18.4" x2="145.13" y2="18.46"/>
    <line class="cls-6" x1="145.7" y1="19.27" x2="145.48" y2="19.33"/>
    <line class="cls-6" x1="144.87" y1="19.44" x2="144.66" y2="19.51"/>
    <line class="cls-6" x1="144.74" y1="18.9" x2="144.53" y2="18.96"/>
    <path class="cls-6" d="M120,22.47h.06"/>
    <path class="cls-6" d="M131.14,25a3.92,3.92,0,0,1,1.33.65"/>
    <path class="cls-6" d="M132.47,25.65,133,26l.25.19.26.19a10.84,10.84,0,0,0,1.07.69,5,5,0,0,0,1.16.51,2.56,2.56,0,0,0,1.26.07"/>
    <path class="cls-6" d="M161.2,22.27a2,2,0,0,0,.32-.1,1.75,1.75,0,0,0,.29-.18"/>
    <path class="cls-6" d="M146.49,16.64l.2-.05"/>
    <path class="cls-6" d="M150.27,16.14a3,3,0,0,0-1.3,0"/>
    <path class="cls-6" d="M119.83,22.17l.2-.05"/>
    <path class="cls-6" d="M122.33,21.65h.06l.11,0"/>
    <path class="cls-6" d="M131.14,24.66a4.24,4.24,0,0,1,1.55.8"/>
    <path class="cls-6" d="M132.69,25.46l.5.4.25.19.26.19a10.88,10.88,0,0,0,1.06.71,4.81,4.81,0,0,0,1.16.51l.32.07.31,0h.32a1.67,1.67,0,0,0,.31-.05"/>
    <path class="cls-6" d="M161.72,19.14a4.27,4.27,0,0,0-1.55-.74"/>
    <path class="cls-6" d="M157.89,18.89a4.35,4.35,0,0,1,1.55.74"/>
    <path class="cls-6" d="M135.36,24.87s0,0,0,.06"/>
    <path class="cls-6" d="M159.44,19.63a0,0,0,0,0,0,0s0,0,0,0"/>
    <line class="cls-6" x1="146.49" y1="16.64" x2="146.5" y2="16.67"/>
    <path class="cls-6" d="M135.36,24.87a.19.19,0,0,1,0,.08"/>
    <path class="cls-6" d="M135.05,24.79a.38.38,0,0,1,.31.08"/>
    <path class="cls-6" d="M159,19.58a.41.41,0,0,1,.32.09"/>
    <line class="cls-6" x1="146.93" y1="20.49" x2="146.72" y2="20.55"/>
    <path class="cls-6" d="M146.93,20.49h0"/>
    <line class="cls-6" x1="120.03" y1="22.12" x2="122.53" y2="21.6"/>
    <line class="cls-6" x1="146.69" y1="16.59" x2="148.97" y2="16.12"/>
    <path class="cls-6" d="M120,22.12a2.77,2.77,0,0,1,1.28,0"/>
    <path class="cls-6" d="M122.53,21.6l-.2,0"/>
    <path class="cls-6" d="M149,16.12l-.21.05"/>
    <line class="cls-6" x1="162" y1="21.84" x2="161.81" y2="21.99"/>
    <path class="cls-6" d="M135,24.79h0"/>
    <line class="cls-6" x1="144.19" y1="17.77" x2="145.07" y2="17.58"/>
    <line class="cls-6" x1="131.99" y1="23.7" x2="146.69" y2="20.55"/>
    <line class="cls-6" x1="145.56" y1="19.67" x2="145.48" y2="19.33"/>
    <line class="cls-6" x1="145.21" y1="18.8" x2="145.13" y2="18.46"/>
    <line class="cls-6" x1="135.34" y1="24.95" x2="135.36" y2="24.87"/>
    <line class="cls-6" x1="146.9" y1="20.49" x2="131.96" y2="23.7"/>
    <line class="cls-6" x1="144.74" y1="18.9" x2="144.87" y2="19.44"/>
    <path class="cls-6" d="M161.39,22.12a1.5,1.5,0,0,0,.32-.1,1.41,1.41,0,0,0,.29-.18"/>
    <path class="cls-6" d="M146.69,16.59a3,3,0,0,1,1.3,0"/>
    <line class="cls-6" x1="157.81" y1="19.83" x2="152.78" y2="18.67"/>
    <line class="cls-6" x1="145.12" y1="17.79" x2="144.24" y2="17.97"/>
    <path class="cls-6" d="M146.82,16.94l.24-.08"/>
    <line class="cls-6" x1="150.36" y1="16.16" x2="151.14" y2="16"/>
    <path class="cls-6" d="M119.1,22.66a.71.71,0,0,1,.31-.31,1.57,1.57,0,0,1,.42-.18"/>
    <path class="cls-6" d="M128.78,25.51a4.31,4.31,0,0,1,1.86,1.11,6.71,6.71,0,0,1,1.29,1.76,9.14,9.14,0,0,1,1,4.23"/>
    <line class="cls-6" x1="118.96" y1="22.98" x2="128.78" y2="25.51"/>
    <path class="cls-6" d="M147.78,17l-.22,0"/>
    <path class="cls-6" d="M147.56,17.07l-.32.08-.3.1"/>
    <line class="cls-6" x1="128.78" y1="25.85" x2="118.96" y2="23.31"/>
    <line class="cls-6" x1="145.37" y1="17.88" x2="145.28" y2="17.52"/>
    <line class="cls-6" x1="131.14" y1="25" x2="121.31" y2="22.49"/>
    <line class="cls-6" x1="121.31" y1="22.16" x2="131.14" y2="24.66"/>
    <line class="cls-6" x1="159.41" y1="19.71" x2="159.44" y2="19.63"/>
    <path class="cls-6" d="M120.1,22.46a2.61,2.61,0,0,1,1.21,0"/>
    <line class="cls-6" x1="150.43" y1="21.44" x2="150.43" y2="21.26"/>
    <line class="cls-6" x1="164.45" y1="29.28" x2="164.59" y2="29.31"/>
    <path class="cls-6" d="M81.8,30.42a2.47,2.47,0,0,1,1.18.06"/>
    <line class="cls-6" x1="94.17" y1="45.92" x2="94.27" y2="45.95"/>
    <line class="cls-6" x1="94.17" y1="46.05" x2="98.41" y2="45.04"/>
    <line class="cls-6" x1="148.76" y1="120.03" x2="148.32" y2="120.2"/>
    <line class="cls-6" x1="154.09" y1="117.93" x2="153.21" y2="118.28"/>
    <line class="cls-6" x1="159.32" y1="115.87" x2="158.46" y2="116.21"/>
    <line class="cls-6" x1="114.62" y1="133.45" x2="114.13" y2="133.65"/>
    <line class="cls-6" x1="120.63" y1="131.09" x2="119.63" y2="131.48"/>
    <line class="cls-6" x1="126.51" y1="128.78" x2="125.54" y2="129.16"/>
    <line class="cls-6" x1="132.55" y1="36.67" x2="132.67" y2="36.7"/>
    <line class="cls-6" x1="131.87" y1="37.02" x2="131.86" y2="37.82"/>
    <path class="cls-6" d="M117.33,23.07a2,2,0,0,1,.42-.13"/>
    <line class="cls-6" x1="100.66" y1="138.94" x2="100.57" y2="138.98"/>
    <line class="cls-6" x1="102.24" y1="138.32" x2="101.19" y2="138.74"/>
    <line class="cls-6" x1="108.5" y1="135.86" x2="107.46" y2="136.27"/>
    <line class="cls-6" x1="116.28" y1="28.87" x2="116.28" y2="28.68"/>
    <path class="cls-6" d="M149.6,17.3h0"/>
    <path class="cls-6" d="M115,24.67a4.84,4.84,0,0,0-.73,1.62,7.16,7.16,0,0,0-.21,1.78"/>
    <path class="cls-6" d="M118.39,23.23a3.56,3.56,0,0,1,.57.08"/>
    <line class="cls-6" x1="148.91" y1="33.04" x2="147.96" y2="33.27"/>
    <line class="cls-6" x1="109.12" y1="25.47" x2="110.35" y2="25.21"/>
    <line class="cls-6" x1="110.05" y1="24.89" x2="110.14" y2="25.25"/>
    <line class="cls-6" x1="109.02" y1="25.08" x2="109.12" y2="25.47"/>
    <line class="cls-6" x1="112.11" y1="24.44" x2="112.64" y2="26.67"/>
    <line class="cls-6" x1="110.8" y1="27.06" x2="109.56" y2="27.32"/>
    <line class="cls-6" x1="109.56" y1="27.32" x2="109.24" y2="25.99"/>
    <line class="cls-6" x1="110.41" y1="26.13" x2="109.64" y2="26.3"/>
    <line class="cls-6" x1="122.97" y1="26.77" x2="113.17" y2="24.19"/>
    <path class="cls-6" d="M123,26.77a3.66,3.66,0,0,1,1,.44"/>
    <line class="cls-6" x1="98.83" y1="36.2" x2="126.31" y2="30.06"/>
    <path class="cls-6" d="M85.81,29.54a2.52,2.52,0,0,0-1.25-.06"/>
    <path class="cls-6" d="M111.52,23.89h.06l.12,0"/>
    <line class="cls-6" x1="95.48" y1="32.36" x2="85.81" y2="29.54"/>
    <line class="cls-6" x1="125.55" y1="25.87" x2="115.74" y2="23.32"/>
    <line class="cls-6" x1="113.17" y1="23.85" x2="122.97" y2="26.43"/>
    <path class="cls-6" d="M97,33.23a4.31,4.31,0,0,0-1.53-.87"/>
    <line class="cls-6" x1="99.01" y1="36.04" x2="126.5" y2="29.91"/>
    <line class="cls-6" x1="96.89" y1="33.09" x2="124.02" y2="27.18"/>
    <line class="cls-6" x1="84.58" y1="29.48" x2="111.54" y2="23.89"/>
    <path class="cls-6" d="M111.54,23.89a.36.36,0,0,1,.21,0,.46.46,0,0,1,.17.14,1.13,1.13,0,0,1,.19.38"/>
    <path class="cls-6" d="M112,24.15a2.48,2.48,0,0,1,1.21,0"/>
    <path class="cls-6" d="M127.28,29.54a2.06,2.06,0,0,0,.29-.3,2.12,2.12,0,0,0,.21-.36,1.74,1.74,0,0,0,.11-.39,1.42,1.42,0,0,0,0-.41,1.86,1.86,0,0,0-.08-.41,1.81,1.81,0,0,0-.18-.37,2.3,2.3,0,0,0-.54-.62"/>
    <path class="cls-6" d="M97.22,33.24s0,0,0,0h-.06a.21.21,0,0,1-.11,0"/>
    <path class="cls-6" d="M124.54,27.29a.05.05,0,0,1-.05,0h0l-.1,0"/>
    <line class="cls-6" x1="108.5" y1="135.86" x2="107.78" y2="43.68"/>
    <line class="cls-6" x1="111.65" y1="41.9" x2="113.23" y2="42.37"/>
    <line class="cls-6" x1="113.23" y1="42.37" x2="113.61" y2="133.85"/>
    <line class="cls-6" x1="102.24" y1="138.32" x2="101.11" y2="45.27"/>
    <line class="cls-6" x1="105.1" y1="43.45" x2="106.68" y2="43.94"/>
    <line class="cls-6" x1="106.68" y1="43.94" x2="107.46" y2="136.27"/>
    <line class="cls-6" x1="153.21" y1="118.28" x2="155.21" y2="32.33"/>
    <line class="cls-6" x1="153.62" y1="31.92" x2="155.21" y2="32.33"/>
    <line class="cls-6" x1="161.66" y1="30.79" x2="159.32" y2="115.87"/>
    <line class="cls-6" x1="166.18" y1="29.71" x2="164.58" y2="29.32"/>
    <line class="cls-6" x1="149.56" y1="33.69" x2="144.76" y2="34.83"/>
    <line class="cls-6" x1="144.76" y1="34.83" x2="143.32" y2="122.17"/>
    <line class="cls-6" x1="143.32" y1="122.17" x2="147.86" y2="120.38"/>
    <line class="cls-6" x1="147.86" y1="120.38" x2="149.56" y2="33.69"/>
    <line class="cls-6" x1="142.41" y1="121.77" x2="143.32" y2="122.17"/>
    <line class="cls-6" x1="147.96" y1="33.27" x2="149.56" y2="33.69"/>
    <line class="cls-6" x1="131.78" y1="126.38" x2="132.58" y2="32.55"/>
    <line class="cls-6" x1="120.62" y1="131.09" x2="120.69" y2="40.59"/>
    <line class="cls-6" x1="124.33" y1="38.88" x2="125.91" y2="39.34"/>
    <line class="cls-6" x1="125.91" y1="39.34" x2="125.54" y2="129.16"/>
    <line class="cls-6" x1="126.51" y1="128.78" x2="126.94" y2="39.09"/>
    <line class="cls-6" x1="130.46" y1="37.43" x2="132.05" y2="37.87"/>
    <line class="cls-6" x1="132.05" y1="37.87" x2="131.32" y2="126.88"/>
    <line class="cls-6" x1="132.05" y1="37.87" x2="126.94" y2="39.09"/>
    <line class="cls-6" x1="126.51" y1="128.78" x2="131.32" y2="126.88"/>
    <line class="cls-6" x1="114.62" y1="133.45" x2="114.3" y2="42.12"/>
    <line class="cls-6" x1="112.73" y1="41.64" x2="118.06" y2="40.37"/>
    <line class="cls-6" x1="118.06" y1="40.37" x2="119.64" y2="40.84"/>
    <line class="cls-6" x1="119.64" y1="40.84" x2="119.63" y2="131.48"/>
    <line class="cls-6" x1="119.64" y1="40.84" x2="114.3" y2="42.12"/>
    <line class="cls-6" x1="132.89" y1="37.67" x2="132.12" y2="126.57"/>
    <line class="cls-6" x1="136.84" y1="124.71" x2="137.9" y2="36.47"/>
    <line class="cls-6" x1="136.31" y1="36.04" x2="137.9" y2="36.47"/>
    <path class="cls-6" d="M118.12,23.16a2.65,2.65,0,0,0-1.22,0"/>
    <path class="cls-6" d="M78.9,31a1,1,0,0,1,.23-.06"/>
    <path class="cls-6" d="M132.1,32.8a9.28,9.28,0,0,0-1-4.23,7.19,7.19,0,0,0-1.29-1.76,4.16,4.16,0,0,0-1.87-1.11"/>
    <line class="cls-6" x1="127.93" y1="25.7" x2="118.12" y2="23.16"/>
    <line class="cls-6" x1="132.07" y1="36.97" x2="94.27" y2="45.95"/>
    <path class="cls-6" d="M113.09,24.27l-.23,0"/>
    <line class="cls-6" x1="79.13" y1="30.98" x2="81.8" y2="30.42"/>
    <line class="cls-6" x1="138.89" y1="36.24" x2="137.77" y2="124.35"/>
    <line class="cls-6" x1="142.4" y1="122.53" x2="143.79" y2="35.07"/>
    <line class="cls-6" x1="136.85" y1="123.93" x2="137.77" y2="124.35"/>
    <line class="cls-6" x1="142.2" y1="34.64" x2="143.79" y2="35.07"/>
    <line class="cls-6" x1="98.41" y1="45.04" x2="99.98" y2="45.54"/>
    <line class="cls-6" x1="99.98" y1="45.54" x2="101.19" y2="138.74"/>
    <line class="cls-6" x1="94.28" y1="46.9" x2="95.76" y2="135.16"/>
    <path class="cls-6" d="M95.76,135.16a5.53,5.53,0,0,0,.33,1.84,3.55,3.55,0,0,0,1,1.53,2.93,2.93,0,0,0,1.7.7,4,4,0,0,0,1.83-.29"/>
    <line class="cls-6" x1="158.46" y1="116.21" x2="160.75" y2="31.01"/>
    <line class="cls-6" x1="159.16" y1="30.6" x2="160.75" y2="31.01"/>
    <path class="cls-6" d="M80.22,31.06A2.25,2.25,0,0,0,79,31"/>
    <path class="cls-6" d="M89.46,34a3.17,3.17,0,0,1,.51.2,4,4,0,0,1,.52.31,5.2,5.2,0,0,1,.86.76,8.17,8.17,0,0,1,1.29,1.9,10.59,10.59,0,0,1,1.07,4.45"/>
    <line class="cls-6" x1="93.71" y1="41.64" x2="95.31" y2="135.33"/>
    <line class="cls-6" x1="95.67" y1="135.2" x2="94.1" y2="41.55"/>
    <path class="cls-6" d="M95.31,135.33a5.72,5.72,0,0,0,.49,2.3,3.62,3.62,0,0,0,1.56,1.72"/>
    <path class="cls-6" d="M78.66,31.07a2.37,2.37,0,0,1,1.18.07"/>
    <path class="cls-6" d="M97.58,138.93a3.36,3.36,0,0,1-1.46-1.59,5.3,5.3,0,0,1-.45-2.14"/>
    <path class="cls-6" d="M152.44,16a2.82,2.82,0,0,0-1.26,0"/>
    <path class="cls-6" d="M152.37,16a2.69,2.69,0,0,0-1.23,0"/>
    <path class="cls-6" d="M148.74,17.09a2.81,2.81,0,0,0-1-.06"/>
    <line class="cls-6" x1="132.71" y1="32.54" x2="132.67" y2="36.7"/>
    <line class="cls-6" x1="132.67" y1="36.7" x2="132.91" y2="36.77"/>
    <line class="cls-6" x1="132.91" y1="36.77" x2="132.95" y2="32.61"/>
    <line class="cls-6" x1="166.22" y1="28.86" x2="132.91" y2="36.77"/>
    <line class="cls-6" x1="117.75" y1="22.94" x2="120.1" y2="22.46"/>
    <path class="cls-6" d="M116.28,28.68a4.43,4.43,0,0,1,.11-1,3.1,3.1,0,0,1,.4-.94,1.74,1.74,0,0,1,.75-.67,1.49,1.49,0,0,1,1-.07"/>
    <line class="cls-6" x1="131.47" y1="126.5" x2="132.24" y2="32.63"/>
    <path class="cls-6" d="M131.47,126.5a.78.78,0,0,1-.12.39.59.59,0,0,1-.29.27"/>
    <path class="cls-6" d="M128.35,26a3.93,3.93,0,0,1,1.74,1,6.51,6.51,0,0,1,1.21,1.64,8.61,8.61,0,0,1,.94,4"/>
    <line class="cls-6" x1="130.89" y1="127.06" x2="130.88" y2="127.43"/>
    <path class="cls-6" d="M152.78,18.67a1.55,1.55,0,0,0-.71,0"/>
    <line class="cls-6" x1="144.27" y1="18.11" x2="145.37" y2="17.88"/>
    <line class="cls-6" x1="145.07" y1="17.58" x2="145.15" y2="17.93"/>
    <line class="cls-6" x1="144.19" y1="17.75" x2="144.27" y2="18.11"/>
    <line class="cls-6" x1="146.92" y1="17.18" x2="147.42" y2="19.28"/>
    <line class="cls-6" x1="145.78" y1="19.63" x2="144.69" y2="19.86"/>
    <line class="cls-6" x1="144.69" y1="19.86" x2="144.39" y2="18.6"/>
    <line class="cls-6" x1="145.43" y1="18.75" x2="144.74" y2="18.9"/>
    <line class="cls-6" x1="157.88" y1="19.22" x2="147.98" y2="16.93"/>
    <path class="cls-6" d="M157.88,19.22a3.92,3.92,0,0,1,1,.39"/>
    <line class="cls-6" x1="136.98" y1="27.68" x2="161.2" y2="22.27"/>
    <path class="cls-6" d="M123.81,21.64a2.77,2.77,0,0,0-1.28,0"/>
    <path class="cls-6" d="M146.34,16.67h0l.1,0"/>
    <line class="cls-6" x1="133.65" y1="24.12" x2="123.81" y2="21.64"/>
    <line class="cls-6" x1="160.17" y1="18.4" x2="150.27" y2="16.14"/>
    <line class="cls-6" x1="147.99" y1="16.61" x2="157.89" y2="18.89"/>
    <path class="cls-6" d="M135.2,24.91a4.3,4.3,0,0,0-1.55-.79"/>
    <line class="cls-6" x1="137.18" y1="27.52" x2="161.39" y2="22.12"/>
    <line class="cls-6" x1="135.05" y1="24.79" x2="158.96" y2="19.58"/>
    <line class="cls-6" x1="122.52" y1="21.61" x2="146.36" y2="16.67"/>
    <path class="cls-6" d="M146.36,16.67a.27.27,0,0,1,.2,0,.43.43,0,0,1,.17.12.77.77,0,0,1,.19.37"/>
    <line class="cls-6" x1="146.75" y1="16.91" x2="147.45" y2="16.77"/>
    <path class="cls-6" d="M146.75,16.91a2.83,2.83,0,0,1,1.23,0"/>
    <path class="cls-6" d="M162,21.84a1.07,1.07,0,0,0,.28-.28,1.17,1.17,0,0,0,.2-.34,1.3,1.3,0,0,0,.09-.39,1.28,1.28,0,0,0,0-.39,1.74,1.74,0,0,0-.3-.73,2.48,2.48,0,0,0-.55-.57"/>
    <path class="cls-6" d="M135.39,24.93s0,0,0,0a0,0,0,0,1,0,0,.15.15,0,0,1-.1,0"/>
    <path class="cls-6" d="M159.46,19.68s0,0,0,0h0a.16.16,0,0,1-.09,0"/>
    <path class="cls-6" d="M84.56,29.49h0"/>
    <path class="cls-6" d="M111.7,23.86l.19-.05"/>
    <path class="cls-6" d="M115.74,23.32a2.77,2.77,0,0,0-1.28,0"/>
    <path class="cls-6" d="M81.53,30.12l.2-.05"/>
    <path class="cls-6" d="M84.37,29.53h.07l.12,0"/>
    <line class="cls-6" x1="81.73" y1="30.07" x2="84.56" y2="29.48"/>
    <line class="cls-6" x1="111.89" y1="23.81" x2="114.46" y2="23.28"/>
    <path class="cls-6" d="M84.56,29.48l-.19.05"/>
    <path class="cls-6" d="M114.46,23.28l-.2,0"/>
    <line class="cls-6" x1="131.86" y1="126.84" x2="132.18" y2="126.72"/>
    <line class="cls-6" x1="132.6" y1="126.78" x2="148.31" y2="120.59"/>
    <path class="cls-6" d="M131.86,126.84a.28.28,0,0,1-.22,0"/>
    <line class="cls-6" x1="132.44" y1="126.78" x2="132.33" y2="126.72"/>
    <path class="cls-6" d="M132.6,126.78a.29.29,0,0,1-.16,0"/>
    <path class="cls-6" d="M132.33,126.72a.19.19,0,0,0-.15,0"/>
    <line class="cls-6" x1="131.64" y1="126.85" x2="131.42" y2="126.75"/>
    <path class="cls-6" d="M80.88,30.61a.55.55,0,0,1,.26-.32,1.49,1.49,0,0,1,.39-.17"/>
    <line class="cls-6" x1="115.83" y1="23.34" x2="116.9" y2="23.12"/>
    <path class="cls-6" d="M76.12,36.12a8.66,8.66,0,0,1,.08-1.52,6.36,6.36,0,0,1,.38-1.47,4.05,4.05,0,0,1,.78-1.29,2.45,2.45,0,0,1,1.3-.77"/>
    <line class="cls-6" x1="78.7" y1="126.7" x2="76.12" y2="36.12"/>
    <line class="cls-6" x1="100.58" y1="139.39" x2="114.12" y2="134.06"/>
    <line class="cls-6" x1="78.66" y1="31.07" x2="79.04" y2="31"/>
    <path class="cls-6" d="M79,31l-.19,0"/>
    <line class="cls-6" x1="97.36" y1="139.35" x2="80.79" y2="130.62"/>
    <path class="cls-6" d="M97.36,139.35a3.3,3.3,0,0,0,1.6.37,4.3,4.3,0,0,0,1.62-.33"/>
    <path class="cls-6" d="M80.79,130.62A3.6,3.6,0,0,1,79.22,129a5.53,5.53,0,0,1-.52-2.26"/>
    <line class="cls-6" x1="162.65" y1="18.18" x2="152.75" y2="15.94"/>
    <line class="cls-6" x1="164.14" y1="108.91" x2="166.72" y2="24.83"/>
    <line class="cls-6" x1="148.31" y1="120.59" x2="159.83" y2="116.05"/>
    <path class="cls-6" d="M159.83,116.05a5.3,5.3,0,0,0,1.79-1.23,8.25,8.25,0,0,0,1.31-1.75,9.12,9.12,0,0,0,.85-2,8.79,8.79,0,0,0,.36-2.15"/>
    <path class="cls-6" d="M162.65,18.18a4.27,4.27,0,0,1,1.82,1,6.11,6.11,0,0,1,1.28,1.63,8,8,0,0,1,1,4"/>
    <line class="cls-6" x1="151.21" y1="15.98" x2="151.51" y2="15.92"/>
    <path class="cls-6" d="M151.51,15.92a2.88,2.88,0,0,1,1.24,0"/>
    <line class="cls-6" x1="114.13" y1="134.05" x2="130.85" y2="127.47"/>
    <line class="cls-6" x1="130.88" y1="127.23" x2="131.06" y2="127.16"/>
    <path class="cls-6" d="M130.88,127.43s0,0,0,0"/>
    <path class="cls-6" d="M122.5,21.62h0"/>
    <path class="cls-6" d="M146.49,16.64l.2-.05"/>
    <path class="cls-6" d="M150.27,16.14a3,3,0,0,0-1.3,0"/>
    <path class="cls-6" d="M119.83,22.17l.2-.05"/>
    <path class="cls-6" d="M122.33,21.65h.06l.11,0"/>
    <line class="cls-6" x1="120.03" y1="22.12" x2="122.53" y2="21.6"/>
    <line class="cls-6" x1="146.69" y1="16.59" x2="148.97" y2="16.12"/>
    <path class="cls-6" d="M122.53,21.6l-.2,0"/>
    <path class="cls-6" d="M149,16.12l-.21.05"/>
    <line class="cls-6" x1="150.36" y1="16.16" x2="151.14" y2="16"/>
    <path class="cls-6" d="M119.1,22.66a.71.71,0,0,1,.31-.31,1.57,1.57,0,0,1,.42-.18"/>
    <path class="cls-6" d="M117.33,23.07a2,2,0,0,1,.42-.13"/>
    <path class="cls-6" d="M111.52,23.89h.06l.12,0"/>
    <line class="cls-6" x1="84.58" y1="29.48" x2="111.54" y2="23.89"/>
    <path class="cls-6" d="M111.54,23.89a.36.36,0,0,1,.21,0,.46.46,0,0,1,.17.14,1.13,1.13,0,0,1,.19.38"/>
    <path class="cls-6" d="M78.9,31a1,1,0,0,1,.23-.06"/>
    <line class="cls-6" x1="79.13" y1="30.98" x2="81.8" y2="30.42"/>
    <line class="cls-6" x1="117.75" y1="22.94" x2="120.1" y2="22.46"/>
    <path class="cls-6" d="M146.34,16.67h0l.1,0"/>
    <line class="cls-6" x1="122.52" y1="21.61" x2="146.36" y2="16.67"/>
    <path class="cls-6" d="M146.36,16.67a.27.27,0,0,1,.2,0,.43.43,0,0,1,.17.12.77.77,0,0,1,.19.37"/>
  </g>
</svg>