<svg id="Vrstva_1" data-name="Vrstva 1" xmlns="http://www.w3.org/2000/svg" viewBox="0 0 255.12 226.77">
  <defs>
    <style>
      .cls-1, .cls-4 {
        fill: none;
        stroke: #010101;
        stroke-linecap: round;
        stroke-linejoin: round;
      }

      .cls-1, .cls-2, .cls-4 {
        stroke-width:.7px;
      }

      .cls-2 {
        fill: #010202;
        stroke: #010202;
        stroke-miterlimit: 10;
      }

      .cls-3 {
        fill: #1d1d1b;
      }

      .cls-4 {
        stroke-dasharray: 1 1;
      }
    
.cls-1{stroke:#ffffff}
.cls-4{stroke:#ffffff}
.cls-2{stroke:#ffffff;fill:#ffffff}
.cls-3{fill:#24466f}
</style>
  </defs>
  <line class="cls-1" x1="141.62" y1="21.42" x2="183.34" y2="26.12"/>
  <line class="cls-1" x1="183.62" y1="102.17" x2="183.62" y2="22.04"/>
  <line class="cls-1" x1="46.26" y1="102.85" x2="46.26" y2="49.37"/>
  <line class="cls-1" x1="73.29" y1="54.46" x2="41.85" y2="48.08"/>
  <line class="cls-1" x1="89.37" y1="115.91" x2="41.97" y2="101.59"/>
  <line class="cls-1" x1="76" y1="24.9" x2="141.39" y2="21.46"/>
  <line class="cls-1" x1="75.99" y1="53.73" x2="75.99" y2="20.67"/>
  <line class="cls-1" x1="141.57" y1="48.39" x2="141.57" y2="17.31"/>
  <line class="cls-1" x1="175.73" y1="103.47" x2="113.12" y2="112.1"/>
  <line class="cls-1" x1="181.47" y1="103.65" x2="117.04" y2="112.6"/>
  <line class="cls-1" x1="170.75" y1="102.95" x2="108.42" y2="111.46"/>
  <line class="cls-1" x1="175.73" y1="103.47" x2="180.16" y2="103.73"/>
  <line class="cls-1" x1="180.16" y1="103.73" x2="180.16" y2="103.83"/>
  <line class="cls-1" x1="182.28" y1="103.78" x2="182.81" y2="111.12"/>
  <path class="cls-1" d="M181.54,111.46l.66-.11.33-.08h.21"/>
  <path class="cls-1" d="M181.47,103.65h.79"/>
  <line class="cls-1" x1="175.11" y1="103.42" x2="175.12" y2="103.55"/>
  <line class="cls-1" x1="170.75" y1="102.95" x2="175.11" y2="103.42"/>
  <line class="cls-1" x1="161.09" y1="101.24" x2="99.3" y2="109.47"/>
  <line class="cls-1" x1="165.3" y1="102.11" x2="165.3" y2="102.29"/>
  <line class="cls-1" x1="156.23" y1="100" x2="94.72" y2="108.07"/>
  <line class="cls-1" x1="160.36" y1="101.07" x2="160.36" y2="101.34"/>
  <line class="cls-1" x1="155.68" y1="99.76" x2="155.62" y2="100.08"/>
  <line class="cls-1" x1="165.88" y1="102.21" x2="103.82" y2="110.58"/>
  <line class="cls-1" x1="170.17" y1="102.88" x2="170.17" y2="103.03"/>
  <line class="cls-1" x1="143.75" y1="83.2" x2="143.83" y2="84.07"/>
  <line class="cls-1" x1="87.6" y1="82.06" x2="87.51" y2="81.67"/>
  <line class="cls-1" x1="85.9" y1="74.45" x2="85.81" y2="74.09"/>
  <line class="cls-1" x1="89.94" y1="98.07" x2="89.87" y2="97.3"/>
  <path class="cls-1" d="M155.67,99.83l.46.19"/>
  <path class="cls-1" d="M160.36,101.15l.51.12"/>
  <path class="cls-1" d="M165.3,102.22h.21"/>
  <line class="cls-1" x1="161.09" y1="101.24" x2="165.3" y2="102.11"/>
  <line class="cls-1" x1="156.23" y1="100" x2="160.36" y2="101.07"/>
  <path class="cls-1" d="M85.07,105.06a27.19,27.19,0,0,0,2.26,4.71,16.1,16.1,0,0,0,3.35,4"/>
  <line class="cls-1" x1="76.01" y1="60.91" x2="82.41" y2="89.7"/>
  <path class="cls-1" d="M82.41,89.7a6.72,6.72,0,0,1,.16,1"/>
  <line class="cls-1" x1="82.57" y1="90.73" x2="83.02" y2="95.74"/>
  <path class="cls-1" d="M83,95.74a36.75,36.75,0,0,0,2,9.32"/>
  <line class="cls-1" x1="84.2" y1="66.87" x2="84.12" y2="66.54"/>
  <line class="cls-1" x1="144.41" y1="90.78" x2="144.47" y2="91.5"/>
  <path class="cls-1" d="M80.62,55.55a2.37,2.37,0,0,1,1.12-.37"/>
  <path class="cls-1" d="M77.13,57.74a2.48,2.48,0,0,0-1.06,1.4A3.43,3.43,0,0,0,76,60.91"/>
  <line class="cls-1" x1="77.13" y1="57.74" x2="80.62" y2="55.55"/>
  <path class="cls-1" d="M138.79,50.82A2.63,2.63,0,0,1,140,51a3.35,3.35,0,0,1,1,.66,4.17,4.17,0,0,1,1.2,2"/>
  <line class="cls-1" x1="81.74" y1="55.18" x2="138.79" y2="50.82"/>
  <line class="cls-1" x1="142.18" y1="53.73" x2="142" y2="53.83"/>
  <line class="cls-1" x1="89.24" y1="90.2" x2="89.16" y2="89.29"/>
  <line class="cls-1" x1="165.88" y1="102.21" x2="170.17" y2="102.88"/>
  <path class="cls-1" d="M149.38,88.3a19.39,19.39,0,0,0,1.17,5.21,15.65,15.65,0,0,0,1.15,2.41,11.78,11.78,0,0,0,1.58,2.15"/>
  <line class="cls-1" x1="148.9" y1="82.74" x2="149.38" y2="88.3"/>
  <path class="cls-1" d="M148.74,81.77a6.72,6.72,0,0,1,.16,1"/>
  <line class="cls-1" x1="142" y1="53.83" x2="148.74" y2="81.77"/>
  <path class="cls-1" d="M85.08,105.06a25.21,25.21,0,0,0,3.13,6,15.6,15.6,0,0,0,2.28,2.52,9.14,9.14,0,0,0,2.9,1.75"/>
  <line class="cls-1" x1="92.64" y1="116.81" x2="92.62" y2="115.06"/>
  <line class="cls-1" x1="110.84" y1="122.24" x2="92.64" y2="116.81"/>
  <line class="cls-1" x1="110.84" y1="122.24" x2="92.87" y2="116.88"/>
  <line class="cls-1" x1="141.47" y1="53.87" x2="142" y2="53.83"/>
  <line class="cls-1" x1="142" y1="53.83" x2="148.74" y2="81.77"/>
  <path class="cls-1" d="M148.74,81.77a6.72,6.72,0,0,1,.16,1"/>
  <line class="cls-1" x1="148.37" y1="82.8" x2="148.85" y2="88.36"/>
  <line class="cls-1" x1="148.9" y1="82.74" x2="149.38" y2="88.3"/>
  <path class="cls-1" d="M149.38,88.3a19.39,19.39,0,0,0,1.17,5.21,15.65,15.65,0,0,0,1.15,2.41,11.78,11.78,0,0,0,1.58,2.15"/>
  <line class="cls-1" x1="111.65" y1="122.12" x2="110.84" y2="122.24"/>
  <line class="cls-1" x1="107.86" y1="111.37" x2="103.82" y2="110.58"/>
  <line class="cls-1" x1="165.88" y1="102.21" x2="170.17" y2="102.88"/>
  <line class="cls-1" x1="82.17" y1="67.05" x2="81.82" y2="67.26"/>
  <line class="cls-1" x1="143.37" y1="61.64" x2="144.88" y2="67.92"/>
  <line class="cls-1" x1="83.67" y1="73.75" x2="82.17" y2="67.05"/>
  <line class="cls-1" x1="87.2" y1="90.53" x2="86.84" y2="90.54"/>
  <line class="cls-1" x1="148.43" y1="83.64" x2="149.01" y2="90.23"/>
  <line class="cls-1" x1="87.82" y1="97.55" x2="87.2" y2="90.53"/>
  <line class="cls-1" x1="144.86" y1="67.93" x2="145.06" y2="68.76"/>
  <line class="cls-1" x1="89.24" y1="90.2" x2="89.16" y2="89.29"/>
  <line class="cls-1" x1="111.65" y1="122.12" x2="111.7" y2="122.11"/>
  <line class="cls-1" x1="111.69" y1="121.16" x2="111.64" y2="121.16"/>
  <path class="cls-1" d="M111.7,122.11a11.47,11.47,0,0,0,1.44-.29,5.13,5.13,0,0,0,.69-.25l.18-.1.13-.09a.54.54,0,0,0,.14-.16.19.19,0,0,0,0-.15"/>
  <path class="cls-1" d="M132.88,54.56h-.23l-.22.08"/>
  <line class="cls-1" x1="141.47" y1="53.87" x2="132.88" y2="54.56"/>
  <line class="cls-1" x1="132.43" y1="54.68" x2="131.16" y2="55.39"/>
  <line class="cls-1" x1="142.18" y1="53.73" x2="142" y2="53.83"/>
  <line class="cls-1" x1="81.74" y1="55.18" x2="138.79" y2="50.82"/>
  <path class="cls-1" d="M138.79,50.82A2.63,2.63,0,0,1,140,51a3.35,3.35,0,0,1,1,.66,4.17,4.17,0,0,1,1.2,2"/>
  <line class="cls-1" x1="77.13" y1="57.74" x2="80.62" y2="55.55"/>
  <path class="cls-1" d="M77.13,57.74a2.48,2.48,0,0,0-1.06,1.4A3.43,3.43,0,0,0,76,60.91"/>
  <path class="cls-1" d="M80.62,55.55a2.37,2.37,0,0,1,1.12-.37"/>
  <line class="cls-1" x1="79.5" y1="58.74" x2="142.18" y2="53.73"/>
  <path class="cls-1" d="M79.5,58.74a3.58,3.58,0,0,1,0-1.78,2.6,2.6,0,0,1,1.07-1.41"/>
  <line class="cls-1" x1="147.3" y1="83.69" x2="147.22" y2="82.77"/>
  <line class="cls-1" x1="144.8" y1="90.73" x2="144.86" y2="91.45"/>
  <line class="cls-1" x1="144.41" y1="90.78" x2="144.47" y2="91.5"/>
  <line class="cls-1" x1="143.83" y1="68.46" x2="143.93" y2="68.87"/>
  <line class="cls-1" x1="140.77" y1="68.82" x2="140.85" y2="69.16"/>
  <line class="cls-1" x1="140.37" y1="68.86" x2="140.45" y2="69.2"/>
  <line class="cls-1" x1="108.42" y1="111.46" x2="108.44" y2="111.89"/>
  <line class="cls-1" x1="103.82" y1="110.58" x2="103.83" y2="111.02"/>
  <line class="cls-1" x1="83.67" y1="73.75" x2="144.88" y2="67.92"/>
  <line class="cls-1" x1="148.43" y1="83.64" x2="87.2" y2="90.53"/>
  <line class="cls-1" x1="84.2" y1="66.87" x2="84.12" y2="66.54"/>
  <line class="cls-1" x1="141.47" y1="53.87" x2="141.64" y2="54.55"/>
  <path class="cls-1" d="M83,95.74a36.75,36.75,0,0,0,2,9.32"/>
  <line class="cls-1" x1="82.57" y1="90.73" x2="83.02" y2="95.74"/>
  <path class="cls-1" d="M82.41,89.7a6.72,6.72,0,0,1,.16,1"/>
  <line class="cls-1" x1="76.01" y1="60.91" x2="82.41" y2="89.7"/>
  <line class="cls-1" x1="79.33" y1="58.84" x2="76.01" y2="60.91"/>
  <line class="cls-1" x1="79.33" y1="58.84" x2="79.93" y2="58.8"/>
  <path class="cls-1" d="M85.07,105.06a27.19,27.19,0,0,0,2.26,4.71,16.1,16.1,0,0,0,3.35,4"/>
  <line class="cls-1" x1="90.51" y1="104.81" x2="90.45" y2="105.24"/>
  <path class="cls-1" d="M117.64,120.43h1.3a9.87,9.87,0,0,0,1.31-.06,18.78,18.78,0,0,0,2.59-.26"/>
  <line class="cls-1" x1="116.51" y1="112.94" x2="117.06" y2="112.86"/>
  <line class="cls-1" x1="116.51" y1="112.94" x2="117.07" y2="112.97"/>
  <line class="cls-1" x1="117.64" y1="120.43" x2="117.07" y2="120.39"/>
  <line class="cls-1" x1="89.5" y1="58.03" x2="79.93" y2="58.8"/>
  <line class="cls-1" x1="80.13" y1="59.68" x2="80.16" y2="59.68"/>
  <line class="cls-1" x1="89.67" y1="58.06" x2="89.83" y2="58.73"/>
  <path class="cls-1" d="M89.67,58.06H89.5"/>
  <line class="cls-1" x1="98.61" y1="109.27" x2="94.72" y2="108.07"/>
  <line class="cls-1" x1="156.23" y1="100" x2="160.36" y2="101.07"/>
  <line class="cls-1" x1="167.5" y1="113.86" x2="167.55" y2="113.85"/>
  <line class="cls-1" x1="168.26" y1="113.75" x2="167.55" y2="113.85"/>
  <line class="cls-1" x1="168.26" y1="113.75" x2="168.27" y2="113.42"/>
  <line class="cls-1" x1="83.87" y1="74.64" x2="83.52" y2="74.84"/>
  <line class="cls-1" x1="145.09" y1="68.75" x2="146.61" y2="75.06"/>
  <line class="cls-1" x1="85.37" y1="81.37" x2="83.87" y2="74.64"/>
  <line class="cls-1" x1="85.57" y1="82.27" x2="85.22" y2="82.47"/>
  <line class="cls-1" x1="146.81" y1="75.9" x2="148.34" y2="82.23"/>
  <line class="cls-1" x1="113.12" y1="112.1" x2="113.15" y2="112.52"/>
  <line class="cls-1" x1="117.3" y1="112.45" x2="113.12" y2="112.1"/>
  <line class="cls-1" x1="151.32" y1="96.83" x2="151" y2="97.11"/>
  <line class="cls-1" x1="87.87" y1="98.32" x2="87.71" y2="98.48"/>
  <line class="cls-1" x1="80.48" y1="59.48" x2="80.16" y2="59.68"/>
  <line class="cls-1" x1="141.66" y1="54.55" x2="143.17" y2="60.8"/>
  <line class="cls-1" x1="103.28" y1="110.46" x2="99.3" y2="109.47"/>
  <line class="cls-1" x1="161.09" y1="101.24" x2="165.3" y2="102.11"/>
  <line class="cls-1" x1="99.3" y1="109.47" x2="99.31" y2="109.91"/>
  <path class="cls-1" d="M163.87,114.07a24.48,24.48,0,0,0,3.63-.21"/>
  <line class="cls-1" x1="167.55" y1="113.53" x2="167.55" y2="113.85"/>
  <line class="cls-1" x1="85.02" y1="81.57" x2="85.37" y2="81.37"/>
  <line class="cls-1" x1="117.31" y1="112.56" x2="117.3" y2="112.45"/>
  <line class="cls-1" x1="90.05" y1="104.63" x2="90.07" y2="104.62"/>
  <line class="cls-1" x1="81.62" y1="66.36" x2="81.97" y2="66.16"/>
  <line class="cls-1" x1="103.28" y1="110.9" x2="103.28" y2="110.46"/>
  <line class="cls-1" x1="94.2" y1="107.8" x2="90.51" y2="104.81"/>
  <path class="cls-1" d="M122.25,112.28c-.82.12-1.77.21-2.6.26a9.43,9.43,0,0,0-1.3.06,9.54,9.54,0,0,1-1.31,0"/>
  <line class="cls-1" x1="98.61" y1="109.72" x2="98.61" y2="109.27"/>
  <path class="cls-1" d="M165.3,102.22h.21"/>
  <path class="cls-1" d="M160.36,101.15l.51.12"/>
  <path class="cls-1" d="M148.3,82.25a1.51,1.51,0,0,0,.07.55"/>
  <path class="cls-1" d="M155.67,99.83l.46.19"/>
  <line class="cls-1" x1="112.55" y1="112.46" x2="112.53" y2="112.03"/>
  <line class="cls-1" x1="83.32" y1="73.95" x2="83.67" y2="73.75"/>
  <line class="cls-1" x1="87.54" y1="97.55" x2="87.82" y2="97.55"/>
  <line class="cls-1" x1="146.58" y1="75.07" x2="146.78" y2="75.9"/>
  <line class="cls-1" x1="107.88" y1="111.8" x2="107.86" y2="111.37"/>
  <line class="cls-1" x1="89.94" y1="98.07" x2="89.87" y2="97.3"/>
  <line class="cls-1" x1="85.9" y1="74.45" x2="85.81" y2="74.09"/>
  <line class="cls-1" x1="87.6" y1="82.06" x2="87.51" y2="81.67"/>
  <path class="cls-1" d="M114.32,120.14a.38.38,0,0,1,0,.15.93.93,0,0,1-.14.14l-.14.1-.18.09a5.54,5.54,0,0,1-.68.25,14.11,14.11,0,0,1-1.44.29"/>
  <line class="cls-1" x1="147.94" y1="91.08" x2="147.88" y2="90.36"/>
  <line class="cls-1" x1="144.14" y1="83.16" x2="144.22" y2="84.02"/>
  <line class="cls-1" x1="143.75" y1="83.2" x2="143.83" y2="84.07"/>
  <line class="cls-1" x1="79.33" y1="58.84" x2="79.5" y2="58.74"/>
  <line class="cls-1" x1="139.06" y1="61.7" x2="139.13" y2="62.01"/>
  <line class="cls-1" x1="143.15" y1="60.81" x2="143.34" y2="61.64"/>
  <line class="cls-1" x1="145.55" y1="75.59" x2="145.65" y2="76.02"/>
  <line class="cls-1" x1="142.48" y1="75.97" x2="142.57" y2="76.34"/>
  <line class="cls-1" x1="142.08" y1="76.01" x2="142.17" y2="76.38"/>
  <line class="cls-1" x1="110.83" y1="119.7" x2="110.84" y2="122.24"/>
  <line class="cls-1" x1="142.12" y1="61.36" x2="142.21" y2="61.74"/>
  <line class="cls-1" x1="138.66" y1="61.74" x2="138.73" y2="62.05"/>
  <path class="cls-1" d="M169.63,103l.56.08"/>
  <path class="cls-1" d="M148.85,88.36a20.31,20.31,0,0,0,.94,4.56,15.41,15.41,0,0,0,2.09,4.15"/>
  <line class="cls-1" x1="111.65" y1="122.12" x2="111.64" y2="119.81"/>
  <line class="cls-1" x1="112.53" y1="112.03" x2="108.42" y2="111.46"/>
  <line class="cls-1" x1="170.17" y1="102.88" x2="170.17" y2="103.03"/>
  <line class="cls-1" x1="107.86" y1="111.37" x2="170.17" y2="102.88"/>
  <line class="cls-1" x1="165.88" y1="102.21" x2="103.82" y2="110.58"/>
  <line class="cls-1" x1="143.67" y1="68.54" x2="83.4" y2="74.32"/>
  <line class="cls-1" x1="144.88" y1="67.92" x2="143.67" y2="68.54"/>
  <line class="cls-1" x1="143.37" y1="61.64" x2="82.17" y2="67.05"/>
  <line class="cls-1" x1="87.82" y1="97.55" x2="149.01" y2="90.23"/>
  <line class="cls-1" x1="147.12" y1="83.7" x2="86.83" y2="90.47"/>
  <line class="cls-1" x1="147.12" y1="83.7" x2="148.43" y2="83.64"/>
  <line class="cls-1" x1="114.32" y1="120.12" x2="114.33" y2="121.07"/>
  <path class="cls-1" d="M117.07,120.39a90.66,90.66,0,0,1-23.69-5"/>
  <path class="cls-1" d="M94.05,108.3a87.41,87.41,0,0,0,23.08,4.55"/>
  <path class="cls-1" d="M116.51,112.94a87.28,87.28,0,0,1-23.06-4.56"/>
  <line class="cls-1" x1="86.6" y1="88.64" x2="79.93" y2="58.8"/>
  <line class="cls-1" x1="86" y1="88.7" x2="79.33" y2="58.84"/>
  <path class="cls-1" d="M86.76,89.67a6.72,6.72,0,0,0-.16-1"/>
  <path class="cls-1" d="M86.16,89.74a6.72,6.72,0,0,0-.16-1"/>
  <line class="cls-1" x1="87.29" y1="95.6" x2="86.76" y2="89.67"/>
  <line class="cls-1" x1="86.69" y1="95.67" x2="86.16" y2="89.74"/>
  <path class="cls-1" d="M94.05,108.3a5.87,5.87,0,0,1-.81-.36,5.59,5.59,0,0,1-.82-.55,8.29,8.29,0,0,1-1.34-1.31,14,14,0,0,1-2-3.21,21.26,21.26,0,0,1-1.22-3.55,24.66,24.66,0,0,1-.61-3.72"/>
  <path class="cls-1" d="M93.45,108.38a5.87,5.87,0,0,1-.81-.36,6.63,6.63,0,0,1-.83-.55,9.29,9.29,0,0,1-1.34-1.32,14.94,14.94,0,0,1-2-3.2,21.33,21.33,0,0,1-1.21-3.56,23.48,23.48,0,0,1-.62-3.72"/>
  <line class="cls-1" x1="94.12" y1="108.32" x2="94.2" y2="107.8"/>
  <line class="cls-1" x1="155.68" y1="99.76" x2="155.62" y2="100.08"/>
  <line class="cls-1" x1="94.2" y1="107.8" x2="155.68" y2="99.76"/>
  <line class="cls-1" x1="151.79" y1="97.01" x2="90.51" y2="104.81"/>
  <line class="cls-1" x1="151.79" y1="97.01" x2="155.68" y2="99.76"/>
  <line class="cls-1" x1="117.04" y1="112.6" x2="117.64" y2="120.43"/>
  <line class="cls-1" x1="117.07" y1="120.39" x2="116.51" y2="112.94"/>
  <line class="cls-1" x1="160.36" y1="101.07" x2="160.36" y2="101.34"/>
  <line class="cls-1" x1="98.61" y1="109.27" x2="160.36" y2="101.07"/>
  <line class="cls-1" x1="94.72" y1="108.07" x2="94.72" y2="108.52"/>
  <line class="cls-1" x1="156.23" y1="100" x2="94.72" y2="108.07"/>
  <line class="cls-1" x1="145.39" y1="75.67" x2="85.1" y2="81.92"/>
  <line class="cls-1" x1="146.61" y1="75.06" x2="145.39" y2="75.67"/>
  <line class="cls-1" x1="85.37" y1="81.37" x2="146.61" y2="75.06"/>
  <line class="cls-1" x1="145.09" y1="68.75" x2="83.87" y2="74.64"/>
  <line class="cls-1" x1="86.71" y1="89.23" x2="87.09" y2="89.03"/>
  <line class="cls-1" x1="147.11" y1="82.83" x2="86.75" y2="89.55"/>
  <line class="cls-1" x1="148.34" y1="82.23" x2="147.11" y2="82.83"/>
  <line class="cls-1" x1="87.09" y1="89.03" x2="148.34" y2="82.23"/>
  <line class="cls-1" x1="146.81" y1="75.9" x2="85.57" y2="82.27"/>
  <line class="cls-1" x1="87.09" y1="89.03" x2="85.57" y2="82.27"/>
  <line class="cls-1" x1="90.07" y1="104.62" x2="151.32" y2="96.83"/>
  <line class="cls-1" x1="149.05" y1="90.95" x2="87.87" y2="98.32"/>
  <line class="cls-1" x1="90.07" y1="104.62" x2="87.87" y2="98.32"/>
  <line class="cls-1" x1="149.05" y1="90.95" x2="151.32" y2="96.83"/>
  <line class="cls-1" x1="141.96" y1="61.45" x2="81.71" y2="66.75"/>
  <line class="cls-1" x1="143.17" y1="60.8" x2="141.96" y2="61.45"/>
  <line class="cls-1" x1="81.97" y1="66.16" x2="143.17" y2="60.8"/>
  <line class="cls-1" x1="141.66" y1="54.55" x2="80.48" y2="59.48"/>
  <line class="cls-1" x1="81.97" y1="66.16" x2="80.48" y2="59.48"/>
  <line class="cls-1" x1="165.3" y1="102.11" x2="165.3" y2="102.29"/>
  <line class="cls-1" x1="103.28" y1="110.46" x2="165.3" y2="102.11"/>
  <line class="cls-1" x1="161.09" y1="101.24" x2="99.3" y2="109.47"/>
  <line class="cls-1" x1="170.75" y1="102.95" x2="175.11" y2="103.42"/>
  <line class="cls-1" x1="175.11" y1="103.42" x2="175.12" y2="103.55"/>
  <path class="cls-1" d="M181.47,103.65h.79"/>
  <path class="cls-1" d="M181.54,111.46l.66-.11.33-.08h.21"/>
  <line class="cls-1" x1="182.28" y1="103.78" x2="182.81" y2="111.12"/>
  <path class="cls-1" d="M182.28,103.78h-.22l-.32.07-.66.11"/>
  <line class="cls-1" x1="180.16" y1="103.73" x2="180.16" y2="103.83"/>
  <line class="cls-1" x1="175.73" y1="103.47" x2="180.16" y2="103.73"/>
  <path class="cls-1" d="M179,103.89h.54"/>
  <line class="cls-1" x1="112.53" y1="112.03" x2="175.11" y2="103.42"/>
  <line class="cls-1" x1="170.75" y1="102.95" x2="108.42" y2="111.46"/>
  <line class="cls-1" x1="122.84" y1="120.13" x2="181.54" y2="111.46"/>
  <line class="cls-1" x1="181.47" y1="103.65" x2="117.04" y2="112.6"/>
  <line class="cls-1" x1="181.01" y1="104.1" x2="122.25" y2="112.28"/>
  <line class="cls-1" x1="117.3" y1="112.45" x2="180.16" y2="103.73"/>
  <line class="cls-1" x1="175.73" y1="103.47" x2="113.12" y2="112.1"/>
  <polyline class="cls-2" points="141.54 21.43 135.91 20.31 136.05 23.08 141.54 21.43"/>
  <polyline class="cls-2" points="141.7 21.41 147.38 20.61 147.08 23.38 141.7 21.41"/>
  <polyline class="cls-2" points="183.56 26.11 177.88 26.9 178.18 24.14 183.56 26.11"/>
  <polyline class="cls-2" points="76 24.94 81.63 26.03 81.47 23.25 76 24.94"/>
  <polyline class="cls-2" points="46.3 49.03 44.89 54.59 47.67 54.6 46.3 49.03"/>
  <polyline class="cls-2" points="46.27 102.86 47.67 97.31 44.89 97.3 46.27 102.86"/>
  <g>
    <g>
      <path class="cls-3" d="M158.76,16.15a2.23,2.23,0,0,1,1.53.77,2.06,2.06,0,0,1,.46,1.6,2,2,0,0,1-.81,1.48,2.39,2.39,0,0,1-1.7.42,2.12,2.12,0,0,1-1.61-1,3.26,3.26,0,0,1-.42-2.16,3.92,3.92,0,0,1,1.09-2.53,2.67,2.67,0,0,1,2.2-.71,2.64,2.64,0,0,1,1.65.76l-.48.59a2,2,0,0,0-2.84-.12,2.54,2.54,0,0,0-.8,1.63,1.63,1.63,0,0,1,.73-.62A1.8,1.8,0,0,1,158.76,16.15Zm-1.43,3a1.45,1.45,0,0,0,1,.52,1.42,1.42,0,0,0,1.07-.3,1.38,1.38,0,0,0,.52-1,1.31,1.31,0,0,0-.3-1.06,1.55,1.55,0,0,0-2.08-.23,1.35,1.35,0,0,0-.51,1,1.38,1.38,0,0,0,.3,1.07Z"/>
      <path class="cls-3" d="M161.73,20.73a11.45,11.45,0,0,1,3.38-5.25l-3.52-.33.08-.72,4.36.47-.08.72q-3,3.08-3.39,5.25Z"/>
      <path class="cls-3" d="M165.61,21.15l.06-.71,2.58-1.78a2.44,2.44,0,0,0,1.24-1.61,1.11,1.11,0,0,0-.24-.88,1.14,1.14,0,0,0-.84-.4,1.22,1.22,0,0,0-1,.31,1.49,1.49,0,0,0-.4,1.1l-.78-.14a2,2,0,0,1,2.31-2,2.11,2.11,0,0,1,1.43.68,1.75,1.75,0,0,1,.41,1.42,2.07,2.07,0,0,1-.45,1.09,5,5,0,0,1-1.19,1l-1.86,1.27,3.1.33-.08.74Z"/>
    </g>
    <g>
      <path class="cls-3" d="M151.62,31.84l.07-.71,2.58-1.78a2.48,2.48,0,0,0,1.23-1.61,1.12,1.12,0,0,0-.23-.88,1.25,1.25,0,0,0-.85-.41,1.2,1.2,0,0,0-1,.32,1.43,1.43,0,0,0-.4,1.09l-.79-.13a2.1,2.1,0,0,1,.68-1.56,2.06,2.06,0,0,1,1.63-.45,2.15,2.15,0,0,1,1.43.68,1.73,1.73,0,0,1,.42,1.43,2.17,2.17,0,0,1-.46,1.08,4.93,4.93,0,0,1-1.18,1l-1.86,1.27,3.09.33-.08.74Z"/>
      <path class="cls-3" d="M159.41,28.42a2.23,2.23,0,0,1,1.53.77,2.08,2.08,0,0,1,.46,1.61,2.05,2.05,0,0,1-.81,1.47,2.39,2.39,0,0,1-1.7.42,2.08,2.08,0,0,1-1.61-1,3.21,3.21,0,0,1-.41-2.16A3.91,3.91,0,0,1,158,27a2.67,2.67,0,0,1,2.2-.71,2.75,2.75,0,0,1,1.66.76l-.49.59a2,2,0,0,0-2.84-.12,2.54,2.54,0,0,0-.8,1.63,1.63,1.63,0,0,1,.73-.62A1.9,1.9,0,0,1,159.41,28.42Zm-1.43,3a1.45,1.45,0,0,0,1,.52,1.42,1.42,0,0,0,1.07-.29,1.46,1.46,0,0,0,.53-1,1.39,1.39,0,0,0-1.3-1.57,1.38,1.38,0,0,0-1.59,1.28,1.4,1.4,0,0,0,.29,1.08Z"/>
      <path class="cls-3" d="M162.19,32l.88.09-.1.93-.88-.09Z"/>
      <path class="cls-3" d="M166,33.46a2.52,2.52,0,0,1-1.47-.64,1.94,1.94,0,0,1-.6-1.34h.78a1.29,1.29,0,0,0,.4.88,1.62,1.62,0,0,0,1,.41,1.29,1.29,0,0,0,1-.28,1.44,1.44,0,0,0,.49-1,1.37,1.37,0,0,0-.28-1.07,1.42,1.42,0,0,0-1-.49,1.53,1.53,0,0,0-1.47.6l-.58-.19.86-3.36,3.35.36-.08.72-2.75-.29-.47,1.85a1.73,1.73,0,0,1,.64-.31,1.89,1.89,0,0,1,.71-.07A2.2,2.2,0,0,1,168,30a2,2,0,0,1,.43,1.59,2.1,2.1,0,0,1-.76,1.5A2.21,2.21,0,0,1,166,33.46Z"/>
      <path class="cls-3" d="M170.69,27.47,170,29.15l-1-.1,1.17-1.64Zm1.33.14-.68,1.72-1-.1,1.14-1.68Z"/>
    </g>
  </g>
  <g>
    <g>
      <path class="cls-3" d="M103.07,16.22a2.2,2.2,0,0,1,1.63.52,2,2,0,0,1,.71,1.5,2.06,2.06,0,0,1-.56,1.59,2.34,2.34,0,0,1-1.61.69,2.12,2.12,0,0,1-1.74-.7,3.18,3.18,0,0,1-.76-2.06,3.8,3.8,0,0,1,.7-2.67,2.61,2.61,0,0,1,2.06-1,2.67,2.67,0,0,1,1.75.48l-.38.66a2,2,0,0,0-1.34-.41,1.94,1.94,0,0,0-1.48.75,2.54,2.54,0,0,0-.61,1.68,1.57,1.57,0,0,1,.63-.72A2,2,0,0,1,103.07,16.22Zm-.93,3.21a1.48,1.48,0,0,0,1.07.35,1.39,1.39,0,0,0,1.37-1.42v-.1a1.42,1.42,0,0,0-.46-1,1.55,1.55,0,0,0-2.09.11,1.37,1.37,0,0,0-.35,1A1.39,1.39,0,0,0,102.14,19.43Z"/>
      <path class="cls-3" d="M106.73,20.26a11.46,11.46,0,0,1,2.5-5.72l-3.54.18V14l4.39-.23v.73q-2.43,3.51-2.52,5.73Z"/>
      <path class="cls-3" d="M113.18,20a2,2,0,0,1-1.83-.78,3.87,3.87,0,0,1-.75-2.32,3.84,3.84,0,0,1,.5-2.39,2.05,2.05,0,0,1,1.74-1,2.09,2.09,0,0,1,1.83.78,3.94,3.94,0,0,1,.77,2.38,3.88,3.88,0,0,1-.5,2.38A2.06,2.06,0,0,1,113.18,20Zm0-.74a1.29,1.29,0,0,0,1.12-.73,3.53,3.53,0,0,0,.32-1.84,3.48,3.48,0,0,0-.51-1.8,1.27,1.27,0,0,0-1.19-.61,1.3,1.3,0,0,0-1.14.73,3.48,3.48,0,0,0-.31,1.85,3.36,3.36,0,0,0,.51,1.8,1.26,1.26,0,0,0,1.16.6Z"/>
    </g>
    <g>
      <path class="cls-3" d="M98.74,32.75V32L101,29.87a2.48,2.48,0,0,0,1-1.78,1.09,1.09,0,0,0-.37-.83,1.24,1.24,0,0,0-.89-.27,1.21,1.21,0,0,0-1,.48,1.47,1.47,0,0,0-.3,1.19h-.79A2,2,0,0,1,99.07,27a2,2,0,0,1,1.54-.71,2.14,2.14,0,0,1,1.52.44,1.8,1.8,0,0,1,.63,1.34,2.3,2.3,0,0,1-.27,1.15,5.86,5.86,0,0,1-1,1.22L99.85,32l3.11-.17v.74Z"/>
      <path class="cls-3" d="M105.88,28.14a2.15,2.15,0,0,1,1.78,3.61,2.34,2.34,0,0,1-1.61.69,2.12,2.12,0,0,1-1.74-.7,3.18,3.18,0,0,1-.76-2.06,3.9,3.9,0,0,1,.67-2.67A2.6,2.6,0,0,1,106.28,26a2.67,2.67,0,0,1,1.75.48l-.38.67a2,2,0,0,0-1.34-.42,2,2,0,0,0-1.48.75,2.52,2.52,0,0,0-.54,1.73,1.57,1.57,0,0,1,.63-.72A1.92,1.92,0,0,1,105.88,28.14ZM105,31.35a1.53,1.53,0,0,0,2.07-.11,1.46,1.46,0,0,0-2.16-1.95,1.48,1.48,0,0,0,.11,2.06Z"/>
      <path class="cls-3" d="M109.23,31.26l.88-.05v.94h-.88Z"/>
      <path class="cls-3" d="M113.93,32l-.08-1.54-3.32.17v-.73l3-4.2h1l.21,4h.91v.74h-.91l.08,1.54Zm-2.56-2.15,2.44-.13-.16-3.09Z"/>
      <path class="cls-3" d="M117.44,25.37l-.39,1.81-1,.05.86-1.83Zm1.33-.07-.39,1.81-1,.05.86-1.83Z"/>
    </g>
  </g>
  <g>
    <g>
      <path class="cls-3" d="M43.26,79.31a2.52,2.52,0,0,1-.47,1.53,1.88,1.88,0,0,1-1.27.74l-.13-.77a1.2,1.2,0,0,0,.82-.49,1.61,1.61,0,0,0,.31-1,1.31,1.31,0,0,0-.39-1,1.46,1.46,0,0,0-1-.37,1.39,1.39,0,0,0-1,.39,1.68,1.68,0,0,0,.38,2.47l-.13.6-3.44-.5V77.52h.73v2.79l1.9.27a1.71,1.71,0,0,1-.38-.6,1.86,1.86,0,0,1-.14-.7,2.16,2.16,0,0,1,.58-1.58,2,2,0,0,1,1.54-.6,2.14,2.14,0,0,1,1.57.6A2.21,2.21,0,0,1,43.26,79.31Z"/>
      <path class="cls-3" d="M43.19,75.31H37.9a3,3,0,0,1,.71,1.5h-.73a2.83,2.83,0,0,0-1-1.63v-.65H43.2Z"/>
      <path class="cls-3" d="M43.26,71.31a2.46,2.46,0,0,1-.47,1.53,1.91,1.91,0,0,1-1.27.75l-.13-.77a1.2,1.2,0,0,0,.82-.49,1.61,1.61,0,0,0,.31-1,1.31,1.31,0,0,0-.39-1,1.47,1.47,0,0,0-1-.38,1.39,1.39,0,0,0-1,.39,1.54,1.54,0,0,0-.38,1.08,1.56,1.56,0,0,0,.76,1.4l-.13.6-3.44-.5V69.54h.73v2.77l1.9.27a1.86,1.86,0,0,1-.38-.6,1.68,1.68,0,0,1-.19-.67,2.18,2.18,0,0,1,.58-1.59,2,2,0,0,1,1.54-.6,2.14,2.14,0,0,1,1.57.6A2.23,2.23,0,0,1,43.26,71.31Z"/>
    </g>
    <g>
      <path class="cls-3" d="M55.31,85.73H54.6l-2.05-2.37a2.48,2.48,0,0,0-1.73-1,1.15,1.15,0,0,0-.85.33,1.25,1.25,0,0,0-.32.88,1.23,1.23,0,0,0,.43,1,1.43,1.43,0,0,0,1.13.28l-.05.79a2,2,0,0,1-2.23-1.74,1.9,1.9,0,0,1,0-.34A2.16,2.16,0,0,1,49.44,82a1.81,1.81,0,0,1,1.38-.57,2.26,2.26,0,0,1,1.13.34,5.09,5.09,0,0,1,1.16,1.06l1.46,1.71v-3.1h.74Z"/>
      <path class="cls-3" d="M55.38,78.16A2.06,2.06,0,0,1,54.51,80a4.74,4.74,0,0,1-4.72,0,2.26,2.26,0,0,1-.4-3.17,2.52,2.52,0,0,1,.4-.4,4.67,4.67,0,0,1,4.71,0A2.07,2.07,0,0,1,55.38,78.16Zm-.74,0A1.31,1.31,0,0,0,54,77a3.62,3.62,0,0,0-1.83-.41,3.5,3.5,0,0,0-1.82.41,1.34,1.34,0,0,0,0,2.33,4.28,4.28,0,0,0,3.65,0A1.27,1.27,0,0,0,54.64,78.16Z"/>
      <path class="cls-3" d="M54.37,74.76v-.88h.94v.88Z"/>
      <path class="cls-3" d="M55.38,70.77a2.37,2.37,0,0,1-.49,1.54,1.9,1.9,0,0,1-1.33.71l-.12-.78a1.2,1.2,0,0,0,.88-.47,1.56,1.56,0,0,0,.32-1,1.48,1.48,0,0,0-.36-1,1.4,1.4,0,0,0-1.91,0,1.47,1.47,0,0,0-.34,1,1.27,1.27,0,0,0,.2.69l-.53.35-2-2v3.07H49v-4h.71l1.75,1.79a1.94,1.94,0,0,1,.43-1.53,1.85,1.85,0,0,1,1.45-.6,1.89,1.89,0,0,1,1.48.63A2.36,2.36,0,0,1,55.38,70.77Z"/>
      <path class="cls-3" d="M48.92,65l1.79.49v1l-1.79-1Zm0,1.34,1.79.49v1l-1.79-1Z"/>
    </g>
  </g>
  <g>
    <path class="cls-4" d="M229.52,153.87,61.28,187.4"/>
    <path class="cls-4" d="M83.25,114.76l-36.5,4.71"/>
    <path class="cls-4" d="M226.71,110,61.79,135.54"/>
    <path class="cls-4" d="M229.52,153.87,61.28,187.4"/>
    <path class="cls-4" d="M182.36,99.52l-18.68,2.22"/>
    <path class="cls-4" d="M204.36,96.85l-19.3,2.37"/>
    <path class="cls-4" d="M90.65,113.75l-4.37.59"/>
  </g>
</svg>
