<svg id="Vrstva_1" data-name="Vrstva 1" xmlns="http://www.w3.org/2000/svg" viewBox="0 0 255.12 226.77">
  <defs>
    <style>
      .cls-1 {
        fill: none;
        stroke: #010101;
        stroke-linecap: round;
        stroke-linejoin: round;
      }

      .cls-1, .cls-2 {
        stroke-width:.7px;
      }

      .cls-2 {
        fill: #010202;
        stroke: #010202;
        stroke-miterlimit: 10;
      }

      .cls-3 {
        fill: #1d1d1b;
      }
    
.cls-1{stroke:#ffffff}
.cls-2{stroke:#ffffff;fill:#ffffff}
.cls-3{fill:#24466f}
</style>
  </defs>
  <line class="cls-1" x1="22.07" y1="48.1" x2="22.48" y2="121.89"/>
  <path class="cls-1" d="M50.13,31.28q0,14.09,0,28.18"/>
  <path class="cls-1" d="M149.85,13.92v25.5"/>
  <path class="cls-1" d="M13.05,147.55l92.71,60.71"/>
  <line class="cls-1" x1="160.87" y1="65.06" x2="163.18" y2="69.76"/>
  <line class="cls-1" x1="63.02" y1="88.88" x2="62.79" y2="89.18"/>
  <line class="cls-1" x1="65.43" y1="94.33" x2="63.02" y2="88.88"/>
  <line class="cls-1" x1="228.62" y1="120.58" x2="233.16" y2="122.47"/>
  <line class="cls-1" x1="144.55" y1="173.68" x2="245.3" y2="133.82"/>
  <line class="cls-1" x1="142.08" y1="173.13" x2="142.83" y2="173.59"/>
  <line class="cls-1" x1="244.87" y1="126.89" x2="245.67" y2="127.22"/>
  <path class="cls-1" d="M245.3,133.82a.65.65,0,0,0,.16-.09.27.27,0,0,0,.1-.16"/>
  <path class="cls-1" d="M245.67,127.22a1,1,0,0,1,.23.13.29.29,0,0,1,.13.23"/>
  <path class="cls-1" d="M142.83,173.59a1.62,1.62,0,0,0,.41.17,3.32,3.32,0,0,0,.44.06,2.18,2.18,0,0,0,.87-.14"/>
  <path class="cls-1" d="M144.52,166.88a2.17,2.17,0,0,1-.87.13,1.78,1.78,0,0,1-.86-.21"/>
  <line class="cls-1" x1="246.03" y1="127.58" x2="245.56" y2="133.57"/>
  <path class="cls-1" d="M246,127.58a.23.23,0,0,1-.1.15.65.65,0,0,1-.16.09"/>
  <line class="cls-1" x1="208.96" y1="112.57" x2="213.17" y2="114.15"/>
  <line class="cls-1" x1="168.06" y1="129.64" x2="167.72" y2="129.49"/>
  <line class="cls-1" x1="239.03" y1="124.91" x2="243.75" y2="126.87"/>
  <line class="cls-1" x1="233.77" y1="122.72" x2="238.41" y2="124.65"/>
  <line class="cls-1" x1="179.44" y1="102.93" x2="179.83" y2="103.61"/>
  <line class="cls-1" x1="82.47" y1="132.84" x2="82.25" y2="133.16"/>
  <line class="cls-1" x1="85.21" y1="138.22" x2="82.47" y2="132.84"/>
  <line class="cls-1" x1="142.27" y1="165.73" x2="137.78" y2="163.03"/>
  <line class="cls-1" x1="137.19" y1="162.67" x2="132.8" y2="160.03"/>
  <line class="cls-1" x1="171.41" y1="86.54" x2="173.76" y2="91.34"/>
  <line class="cls-1" x1="74.04" y1="113.79" x2="73.8" y2="114.07"/>
  <line class="cls-1" x1="76.51" y1="119.36" x2="74.04" y2="113.79"/>
  <path class="cls-1" d="M143.52,45a.56.56,0,0,0-.18.07.91.91,0,0,0-.16.11"/>
  <line class="cls-1" x1="143.18" y1="45.21" x2="142.84" y2="45.59"/>
  <line class="cls-1" x1="143.52" y1="45.03" x2="150.31" y2="43.62"/>
  <line class="cls-1" x1="191.02" y1="110.65" x2="194.85" y2="111"/>
  <line class="cls-1" x1="96.77" y1="143.22" x2="93.34" y2="142.5"/>
  <line class="cls-1" x1="150.53" y1="43.98" x2="152.79" y2="48.6"/>
  <line class="cls-1" x1="174.07" y1="91.98" x2="176.44" y2="96.79"/>
  <line class="cls-1" x1="166.11" y1="75.75" x2="168.44" y2="80.5"/>
  <line class="cls-1" x1="181.64" y1="114" x2="181.48" y2="114.05"/>
  <line class="cls-1" x1="181.5" y1="113.44" x2="181.66" y2="113.39"/>
  <path class="cls-1" d="M182.72,104.83a11.25,11.25,0,0,1,2.73,1.57,4.88,4.88,0,0,1,1.07,1.15A2.72,2.72,0,0,1,187,109"/>
  <line class="cls-1" x1="150.03" y1="99.53" x2="150.19" y2="99.48"/>
  <line class="cls-1" x1="144.17" y1="104.59" x2="144.17" y2="104"/>
  <path class="cls-1" d="M144.17,104a2.7,2.7,0,0,1,.74-1.76,6.58,6.58,0,0,1,1.52-1.22,15.29,15.29,0,0,1,3.6-1.49"/>
  <line class="cls-1" x1="186.97" y1="109.04" x2="186.95" y2="109.65"/>
  <line class="cls-1" x1="70.51" y1="100.68" x2="70.54" y2="100.74"/>
  <line class="cls-1" x1="72.17" y1="100.25" x2="72.19" y2="100.3"/>
  <line class="cls-1" x1="70.51" y1="100.68" x2="72.17" y2="100.25"/>
  <line class="cls-1" x1="61.32" y1="109.16" x2="65.52" y2="104.04"/>
  <line class="cls-1" x1="66.61" y1="107.73" x2="66.96" y2="107.31"/>
  <line class="cls-1" x1="65.28" y1="103.5" x2="61.09" y2="108.62"/>
  <path class="cls-1" d="M61.16,110a2.06,2.06,0,0,1,0-.43.85.85,0,0,1,.15-.4"/>
  <path class="cls-1" d="M66.61,107.73a.87.87,0,0,0-.16.4,2.17,2.17,0,0,0,0,.44"/>
  <path class="cls-1" d="M61.09,108.62a1.21,1.21,0,0,0-.22.58,3.19,3.19,0,0,0,0,.62"/>
  <line class="cls-1" x1="60.85" y1="109.82" x2="63.3" y2="143.78"/>
  <line class="cls-1" x1="63.6" y1="143.98" x2="61.16" y2="109.99"/>
  <line class="cls-1" x1="66.44" y1="108.57" x2="68.71" y2="142.36"/>
  <path class="cls-1" d="M64.38,145.68a1.07,1.07,0,0,1-.32-.35,2.13,2.13,0,0,1-.23-.42,3,3,0,0,1-.23-.93"/>
  <path class="cls-1" d="M68.71,142.36a3.34,3.34,0,0,0,.23.93,2.82,2.82,0,0,0,.23.42,1.37,1.37,0,0,0,.33.35"/>
  <path class="cls-1" d="M63.3,143.78a4.4,4.4,0,0,0,.33,1.33,4.3,4.3,0,0,0,.32.6,2,2,0,0,0,.47.5"/>
  <line class="cls-1" x1="111.53" y1="171.82" x2="69.5" y2="144.06"/>
  <line class="cls-1" x1="64.42" y1="146.21" x2="106.16" y2="174.41"/>
  <line class="cls-1" x1="64.38" y1="145.68" x2="106.14" y2="173.84"/>
  <line class="cls-1" x1="186.84" y1="110.27" x2="190.52" y2="110.6"/>
  <line class="cls-1" x1="89.1" y1="141.63" x2="85.64" y2="138.81"/>
  <line class="cls-1" x1="76.51" y1="120.01" x2="77.9" y2="119.61"/>
  <line class="cls-1" x1="77.68" y1="119.85" x2="76.58" y2="120.16"/>
  <line class="cls-1" x1="77.9" y1="119.61" x2="77.68" y2="119.85"/>
  <line class="cls-1" x1="68.44" y1="101.2" x2="69.43" y2="100.94"/>
  <line class="cls-1" x1="69.43" y1="100.94" x2="69.46" y2="101.02"/>
  <line class="cls-1" x1="77.9" y1="119.61" x2="77.97" y2="119.77"/>
  <line class="cls-1" x1="168.75" y1="81.13" x2="171.1" y2="85.9"/>
  <line class="cls-1" x1="71.27" y1="107.51" x2="71.02" y2="107.79"/>
  <line class="cls-1" x1="73.72" y1="113.05" x2="71.27" y2="107.51"/>
  <line class="cls-1" x1="150.31" y1="43.62" x2="150.73" y2="43.53"/>
  <line class="cls-1" x1="206.49" y1="112.1" x2="205.16" y2="111.97"/>
  <path class="cls-1" d="M211.9,113.48a18.34,18.34,0,0,0-5.41-1.38"/>
  <line class="cls-1" x1="171.07" y1="85.93" x2="171.37" y2="86.55"/>
  <line class="cls-1" x1="243.95" y1="127.14" x2="244.08" y2="127.19"/>
  <line class="cls-1" x1="158.19" y1="90.06" x2="158.19" y2="90.24"/>
  <line class="cls-1" x1="154.15" y1="85.09" x2="154.15" y2="84.93"/>
  <line class="cls-1" x1="73.25" y1="106.97" x2="73.19" y2="106.82"/>
  <line class="cls-1" x1="199.8" y1="111.45" x2="203.78" y2="111.81"/>
  <line class="cls-1" x1="101.21" y1="144.16" x2="162.39" y2="123.86"/>
  <line class="cls-1" x1="104.8" y1="144.92" x2="101.21" y2="144.16"/>
  <line class="cls-1" x1="101.21" y1="144.16" x2="101.28" y2="144.58"/>
  <line class="cls-1" x1="223.57" y1="118.47" x2="228.02" y2="120.33"/>
  <line class="cls-1" x1="123.16" y1="154.25" x2="123.17" y2="154.75"/>
  <line class="cls-1" x1="108.99" y1="146.03" x2="105.28" y2="145.02"/>
  <line class="cls-1" x1="176.75" y1="97.44" x2="179.13" y2="102.28"/>
  <line class="cls-1" x1="79.65" y1="126.45" x2="79.39" y2="126.71"/>
  <line class="cls-1" x1="82.14" y1="132.08" x2="79.65" y2="126.45"/>
  <line class="cls-1" x1="104.8" y1="144.92" x2="162.38" y2="125.66"/>
  <line class="cls-1" x1="113.42" y1="148.4" x2="109.5" y2="146.24"/>
  <line class="cls-1" x1="81.63" y1="125.86" x2="81.52" y2="125.61"/>
  <line class="cls-1" x1="204.22" y1="111.89" x2="203.78" y2="111.85"/>
  <path class="cls-1" d="M208.43,112.62l.22.06"/>
  <line class="cls-1" x1="228.01" y1="120.5" x2="228.39" y2="120.66"/>
  <line class="cls-1" x1="179.1" y1="102.3" x2="179.41" y2="102.94"/>
  <path class="cls-1" d="M237.1,129.77a.37.37,0,0,0-.18.17"/>
  <line class="cls-1" x1="153.79" y1="91.29" x2="153.79" y2="91.47"/>
  <line class="cls-1" x1="167.77" y1="126.16" x2="208.4" y2="112.43"/>
  <line class="cls-1" x1="167.91" y1="116.36" x2="170.63" y2="115.48"/>
  <line class="cls-1" x1="167.89" y1="117.97" x2="176.63" y2="115.13"/>
  <line class="cls-1" x1="85.64" y1="138.82" x2="85.64" y2="138.82"/>
  <line class="cls-1" x1="167.89" y1="118.19" x2="177.89" y2="114.93"/>
  <line class="cls-1" x1="70.48" y1="100.72" x2="70.51" y2="100.68"/>
  <path class="cls-1" d="M90.32,141.44l-.18-.14"/>
  <line class="cls-1" x1="69.34" y1="101.05" x2="69.43" y2="100.94"/>
  <line class="cls-1" x1="84.45" y1="132.22" x2="84.33" y2="131.94"/>
  <line class="cls-1" x1="77.68" y1="119.86" x2="77.68" y2="119.85"/>
  <line class="cls-1" x1="180.31" y1="103.81" x2="150.73" y2="43.53"/>
  <line class="cls-1" x1="213.17" y1="114.32" x2="213.51" y2="114.47"/>
  <line class="cls-1" x1="168.42" y1="80.52" x2="168.72" y2="81.14"/>
  <line class="cls-1" x1="163.15" y1="69.79" x2="163.45" y2="70.4"/>
  <line class="cls-1" x1="152.77" y1="48.62" x2="153.06" y2="49.22"/>
  <line class="cls-1" x1="176.41" y1="96.82" x2="176.72" y2="97.45"/>
  <line class="cls-1" x1="173.73" y1="91.36" x2="174.04" y2="91.99"/>
  <line class="cls-1" x1="162.66" y1="76.65" x2="162.64" y2="76.61"/>
  <line class="cls-1" x1="161.38" y1="76.99" x2="161.35" y2="76.94"/>
  <line class="cls-1" x1="161.28" y1="77.02" x2="161.35" y2="76.94"/>
  <line class="cls-1" x1="158.23" y1="83.83" x2="158.23" y2="83.98"/>
  <line class="cls-1" x1="153.81" y1="85.02" x2="153.81" y2="85.18"/>
  <line class="cls-1" x1="158.15" y1="96.36" x2="158.15" y2="96.58"/>
  <line class="cls-1" x1="65.02" y1="88.4" x2="64.99" y2="88.33"/>
  <line class="cls-1" x1="76.03" y1="113.23" x2="75.95" y2="113.05"/>
  <line class="cls-1" x1="78.82" y1="119.53" x2="78.73" y2="119.31"/>
  <line class="cls-1" x1="190.93" y1="110.68" x2="190.52" y2="110.64"/>
  <line class="cls-1" x1="243.74" y1="127.05" x2="243.95" y2="127.14"/>
  <line class="cls-1" x1="238.39" y1="124.82" x2="238.8" y2="124.99"/>
  <line class="cls-1" x1="233.15" y1="122.64" x2="233.54" y2="122.81"/>
  <line class="cls-1" x1="154.13" y1="91.38" x2="154.13" y2="91.19"/>
  <line class="cls-1" x1="154.11" y1="97.75" x2="154.11" y2="97.53"/>
  <line class="cls-1" x1="68.48" y1="101.29" x2="68.44" y2="101.2"/>
  <line class="cls-1" x1="153.77" y1="97.63" x2="153.77" y2="97.85"/>
  <line class="cls-1" x1="132.22" y1="159.69" x2="127.92" y2="157.11"/>
  <line class="cls-1" x1="127.92" y1="157.11" x2="127.93" y2="157.61"/>
  <line class="cls-1" x1="185.12" y1="112.36" x2="190.52" y2="110.6"/>
  <line class="cls-1" x1="92.89" y1="142.4" x2="89.54" y2="141.69"/>
  <line class="cls-1" x1="89.54" y1="141.69" x2="89.61" y2="142.1"/>
  <line class="cls-1" x1="213.17" y1="114.15" x2="168.06" y2="129.64"/>
  <line class="cls-1" x1="137.78" y1="163.03" x2="137.78" y2="163.54"/>
  <line class="cls-1" x1="132.8" y1="160.03" x2="132.8" y2="160.54"/>
  <line class="cls-1" x1="167.86" y1="119.86" x2="194.85" y2="111"/>
  <line class="cls-1" x1="93.34" y1="142.5" x2="93.41" y2="142.91"/>
  <line class="cls-1" x1="167.91" y1="116.17" x2="170.1" y2="115.47"/>
  <line class="cls-1" x1="85.64" y1="138.81" x2="85.63" y2="139.31"/>
  <line class="cls-1" x1="79.31" y1="125.7" x2="76.84" y2="120.1"/>
  <line class="cls-1" x1="70.94" y1="106.78" x2="68.5" y2="101.27"/>
  <path class="cls-1" d="M147.66,107.64a9.52,9.52,0,0,1-2.25-1.4,4.29,4.29,0,0,1-.86-1,2.41,2.41,0,0,1-.38-1.25"/>
  <line class="cls-1" x1="147.66" y1="107.64" x2="158.18" y2="112.51"/>
  <path class="cls-1" d="M181.5,113.44a29.65,29.65,0,0,1-5.81,1.18,42,42,0,0,1-5.93.22,40.31,40.31,0,0,1-5.9-.63,27.61,27.61,0,0,1-2.89-.68c-.51-.15-1-.31-1.5-.49s-.87-.34-1.29-.53"/>
  <path class="cls-1" d="M187,109a2.82,2.82,0,0,1-.67,1.65,5.94,5.94,0,0,1-1.36,1.19,14.14,14.14,0,0,1-3.28,1.51"/>
  <line class="cls-1" x1="70.49" y1="100.75" x2="70.44" y2="100.62"/>
  <line class="cls-1" x1="105.28" y1="145.02" x2="105.35" y2="145.44"/>
  <line class="cls-1" x1="109.5" y1="146.24" x2="109.53" y2="146.69"/>
  <line class="cls-1" x1="165.98" y1="130.36" x2="165.98" y2="130.82"/>
  <line class="cls-1" x1="163.49" y1="70.39" x2="165.8" y2="75.12"/>
  <line class="cls-1" x1="65.76" y1="95.06" x2="65.52" y2="95.35"/>
  <line class="cls-1" x1="68.18" y1="100.53" x2="65.76" y2="95.06"/>
  <line class="cls-1" x1="171.25" y1="92.63" x2="172.31" y2="92.32"/>
  <line class="cls-1" x1="172.04" y1="92.56" x2="171.32" y2="92.76"/>
  <line class="cls-1" x1="172.31" y1="92.32" x2="172.04" y2="92.56"/>
  <line class="cls-1" x1="163.46" y1="76.37" x2="164.21" y2="76.17"/>
  <line class="cls-1" x1="164.21" y1="76.17" x2="164.1" y2="76.28"/>
  <line class="cls-1" x1="164.21" y1="76.17" x2="164.25" y2="76.24"/>
  <line class="cls-1" x1="172.31" y1="92.32" x2="172.39" y2="92.47"/>
  <line class="cls-1" x1="162.64" y1="76.54" x2="162.69" y2="76.64"/>
  <line class="cls-1" x1="162.48" y1="70.65" x2="162.4" y2="70.5"/>
  <line class="cls-1" x1="162.3" y1="76.63" x2="162.33" y2="76.69"/>
  <line class="cls-1" x1="117.42" y1="82.02" x2="117.38" y2="81.93"/>
  <line class="cls-1" x1="116.6" y1="88.57" x2="116.65" y2="88.68"/>
  <line class="cls-1" x1="116.92" y1="88.48" x2="116.97" y2="88.6"/>
  <line class="cls-1" x1="153.1" y1="49.21" x2="155.37" y2="53.85"/>
  <path class="cls-1" d="M107.16,152.32a13.61,13.61,0,0,1,4,1.73"/>
  <line class="cls-1" x1="107.16" y1="152.32" x2="90.04" y2="148.37"/>
  <path class="cls-1" d="M90,148.37a8.53,8.53,0,0,1-3.31-1.72A17.6,17.6,0,0,1,84.09,144a30,30,0,0,1-3.83-6.47"/>
  <line class="cls-1" x1="49.26" y1="67.13" x2="51.17" y2="64.26"/>
  <line class="cls-1" x1="51.17" y1="64.26" x2="51.72" y2="64.15"/>
  <line class="cls-1" x1="57.06" y1="76.22" x2="57.28" y2="75.91"/>
  <line class="cls-1" x1="213.74" y1="114.39" x2="218.03" y2="116.17"/>
  <line class="cls-1" x1="113.95" y1="148.72" x2="113.97" y2="149.21"/>
  <line class="cls-1" x1="60.43" y1="62.33" x2="51.72" y2="64.15"/>
  <line class="cls-1" x1="51.95" y1="64.68" x2="52.15" y2="64.64"/>
  <line class="cls-1" x1="60.62" y1="62.36" x2="60.78" y2="62.72"/>
  <path class="cls-1" d="M60.62,62.36a.12.12,0,0,0-.09,0h-.1"/>
  <line class="cls-1" x1="117.98" y1="151.62" x2="117.97" y2="151.13"/>
  <line class="cls-1" x1="150.85" y1="43.4" x2="150.73" y2="43.53"/>
  <line class="cls-1" x1="150.48" y1="42.63" x2="150.85" y2="43.4"/>
  <line class="cls-1" x1="51.4" y1="62.15" x2="149.41" y2="42.01"/>
  <line class="cls-1" x1="51.27" y1="64.11" x2="50.88" y2="63.23"/>
  <line class="cls-1" x1="48.87" y1="66.25" x2="49.26" y2="67.13"/>
  <path class="cls-1" d="M149.41,42a.62.62,0,0,1,.33,0,.88.88,0,0,1,.3.13,1.2,1.2,0,0,1,.44.48"/>
  <path class="cls-1" d="M50.88,63.23a.76.76,0,0,1-.08-.39.7.7,0,0,1,.11-.37"/>
  <line class="cls-1" x1="48.91" y1="65.5" x2="50.91" y2="62.47"/>
  <path class="cls-1" d="M50.91,62.47a.75.75,0,0,1,.49-.32"/>
  <path class="cls-1" d="M48.91,65.5a.63.63,0,0,0-.12.37,1,1,0,0,0,.08.38"/>
  <line class="cls-1" x1="51.27" y1="64.11" x2="150.85" y2="43.4"/>
  <line class="cls-1" x1="106.16" y1="174.42" x2="112.79" y2="178.9"/>
  <line class="cls-1" x1="111.53" y1="171.82" x2="113.5" y2="173.11"/>
  <line class="cls-1" x1="113.33" y1="155.4" x2="112.94" y2="155.16"/>
  <path class="cls-1" d="M113.63,177.55a1.34,1.34,0,0,1,0,.49.6.6,0,0,1-.3.38"/>
  <line class="cls-1" x1="113.33" y1="155.4" x2="113.36" y2="155.39"/>
  <path class="cls-1" d="M112.79,178.9a1.23,1.23,0,0,0,.35.16.7.7,0,0,0,.38,0"/>
  <path class="cls-1" d="M119.47,175.72a2.36,2.36,0,0,1-.09.7,1.14,1.14,0,0,1-.16.31.64.64,0,0,1-.27.22"/>
  <path class="cls-1" d="M113.28,178.42a.46.46,0,0,1-.26,0,.9.9,0,0,1-.24-.12"/>
  <line class="cls-1" x1="118.95" y1="176.95" x2="113.52" y2="179.05"/>
  <line class="cls-1" x1="114.02" y1="177.81" x2="113.33" y2="155.4"/>
  <path class="cls-1" d="M113.52,179.05a.73.73,0,0,0,.27-.22,1,1,0,0,0,.15-.32,2.07,2.07,0,0,0,.08-.7"/>
  <line class="cls-1" x1="151.54" y1="162.65" x2="151.59" y2="162.67"/>
  <path class="cls-1" d="M151.54,162.65a.19.19,0,0,0-.18,0"/>
  <line class="cls-1" x1="51.17" y1="64.26" x2="51.27" y2="64.11"/>
  <line class="cls-1" x1="119.03" y1="158.89" x2="119.47" y2="175.72"/>
  <line class="cls-1" x1="195.37" y1="111.04" x2="199.27" y2="111.4"/>
  <line class="cls-1" x1="100.74" y1="144.06" x2="97.23" y2="143.32"/>
  <line class="cls-1" x1="97.23" y1="143.32" x2="97.3" y2="143.73"/>
  <line class="cls-1" x1="158.27" y1="59.75" x2="160.56" y2="64.44"/>
  <line class="cls-1" x1="60.3" y1="82.74" x2="60.08" y2="83.04"/>
  <line class="cls-1" x1="62.7" y1="88.16" x2="60.3" y2="82.74"/>
  <line class="cls-1" x1="155.68" y1="54.47" x2="157.96" y2="59.13"/>
  <line class="cls-1" x1="57.6" y1="76.63" x2="57.38" y2="76.94"/>
  <line class="cls-1" x1="59.99" y1="82.02" x2="57.6" y2="76.63"/>
  <line class="cls-1" x1="218.61" y1="116.41" x2="222.98" y2="118.23"/>
  <line class="cls-1" x1="118.51" y1="151.45" x2="118.52" y2="151.95"/>
  <line class="cls-1" x1="110.61" y1="77.23" x2="110.64" y2="77.29"/>
  <line class="cls-1" x1="107.95" y1="71.52" x2="107.97" y2="71.56"/>
  <line class="cls-1" x1="100.74" y1="144.06" x2="162.4" y2="123.62"/>
  <line class="cls-1" x1="163.86" y1="135.58" x2="163.86" y2="135.58"/>
  <line class="cls-1" x1="105.31" y1="65.84" x2="105.31" y2="65.85"/>
  <line class="cls-1" x1="62.47" y1="88.46" x2="62.7" y2="88.16"/>
  <line class="cls-1" x1="59.76" y1="82.32" x2="59.99" y2="82.02"/>
  <line class="cls-1" x1="122.62" y1="154.41" x2="122.61" y2="153.92"/>
  <line class="cls-1" x1="122.61" y1="153.92" x2="118.51" y2="151.45"/>
  <line class="cls-1" x1="111.24" y1="77.08" x2="111.27" y2="77.14"/>
  <line class="cls-1" x1="108.58" y1="71.37" x2="108.6" y2="71.41"/>
  <line class="cls-1" x1="105.94" y1="65.7" x2="105.94" y2="65.71"/>
  <line class="cls-1" x1="111.56" y1="77" x2="111.59" y2="77.06"/>
  <line class="cls-1" x1="108.9" y1="71.3" x2="108.92" y2="71.33"/>
  <line class="cls-1" x1="106.26" y1="65.63" x2="106.26" y2="65.63"/>
  <line class="cls-1" x1="67.94" y1="100.82" x2="68.18" y2="100.53"/>
  <line class="cls-1" x1="157.41" y1="65.84" x2="157.44" y2="65.9"/>
  <line class="cls-1" x1="154.82" y1="60.53" x2="154.83" y2="60.56"/>
  <line class="cls-1" x1="152.23" y1="55.24" x2="152.23" y2="55.25"/>
  <line class="cls-1" x1="157.07" y1="65.92" x2="157.1" y2="65.98"/>
  <line class="cls-1" x1="154.47" y1="60.61" x2="154.49" y2="60.64"/>
  <line class="cls-1" x1="151.89" y1="55.32" x2="151.89" y2="55.33"/>
  <line class="cls-1" x1="152.08" y1="49.43" x2="152.05" y2="49.38"/>
  <line class="cls-1" x1="154.66" y1="54.7" x2="154.62" y2="54.62"/>
  <line class="cls-1" x1="157.25" y1="59.99" x2="157.2" y2="59.89"/>
  <line class="cls-1" x1="109.42" y1="64.92" x2="109.42" y2="64.91"/>
  <line class="cls-1" x1="112.07" y1="70.59" x2="112.06" y2="70.56"/>
  <line class="cls-1" x1="115.96" y1="88.73" x2="116.02" y2="88.85"/>
  <line class="cls-1" x1="137.93" y1="129.93" x2="137.93" y2="129.93"/>
  <line class="cls-1" x1="65.2" y1="94.62" x2="65.43" y2="94.33"/>
  <line class="cls-1" x1="132.22" y1="160.19" x2="132.22" y2="159.69"/>
  <line class="cls-1" x1="92.96" y1="142.81" x2="92.89" y2="142.4"/>
  <line class="cls-1" x1="168.06" y1="130.1" x2="168.06" y2="129.64"/>
  <line class="cls-1" x1="137.19" y1="163.18" x2="137.19" y2="162.67"/>
  <line class="cls-1" x1="85.01" y1="138.5" x2="85.21" y2="138.22"/>
  <line class="cls-1" x1="142.28" y1="166.12" x2="142.27" y2="165.73"/>
  <line class="cls-1" x1="76.26" y1="119.63" x2="76.51" y2="119.36"/>
  <line class="cls-1" x1="54.38" y1="70.16" x2="54.6" y2="69.84"/>
  <line class="cls-1" x1="89.09" y1="141.97" x2="89.1" y2="141.63"/>
  <line class="cls-1" x1="79.06" y1="125.96" x2="79.31" y2="125.7"/>
  <line class="cls-1" x1="70.7" y1="107.06" x2="70.94" y2="106.78"/>
  <line class="cls-1" x1="96.84" y1="143.64" x2="96.77" y2="143.22"/>
  <line class="cls-1" x1="73.47" y1="113.33" x2="73.72" y2="113.05"/>
  <line class="cls-1" x1="127.37" y1="157.27" x2="127.36" y2="156.77"/>
  <line class="cls-1" x1="109.07" y1="146.49" x2="108.99" y2="146.03"/>
  <line class="cls-1" x1="113.45" y1="148.9" x2="113.42" y2="148.4"/>
  <line class="cls-1" x1="81.88" y1="132.34" x2="82.14" y2="132.08"/>
  <line class="cls-1" x1="222.97" y1="118.4" x2="223.34" y2="118.56"/>
  <line class="cls-1" x1="218.02" y1="116.34" x2="218.38" y2="116.49"/>
  <line class="cls-1" x1="165.78" y1="75.14" x2="166.08" y2="75.76"/>
  <line class="cls-1" x1="160.54" y1="64.46" x2="160.84" y2="65.07"/>
  <line class="cls-1" x1="157.94" y1="59.16" x2="158.23" y2="59.76"/>
  <line class="cls-1" x1="155.35" y1="53.88" x2="155.64" y2="54.48"/>
  <line class="cls-1" x1="59.6" y1="76.18" x2="59.59" y2="76.17"/>
  <line class="cls-1" x1="62.3" y1="82.27" x2="62.28" y2="82.23"/>
  <line class="cls-1" x1="54.59" y1="70.64" x2="54.89" y2="70.58"/>
  <line class="cls-1" x1="67.75" y1="94.55" x2="67.71" y2="94.46"/>
  <line class="cls-1" x1="195.27" y1="111.07" x2="194.86" y2="111.04"/>
  <line class="cls-1" x1="120.11" y1="87.78" x2="120.06" y2="87.66"/>
  <line class="cls-1" x1="122.82" y1="93.56" x2="122.75" y2="93.42"/>
  <line class="cls-1" x1="125.54" y1="99.38" x2="125.46" y2="99.21"/>
  <line class="cls-1" x1="128.27" y1="105.22" x2="128.18" y2="105.02"/>
  <line class="cls-1" x1="131.02" y1="111.1" x2="130.91" y2="110.87"/>
  <line class="cls-1" x1="133.79" y1="117.01" x2="133.66" y2="116.75"/>
  <line class="cls-1" x1="165.1" y1="76.01" x2="165.02" y2="75.84"/>
  <line class="cls-1" x1="167.75" y1="81.41" x2="167.65" y2="81.21"/>
  <line class="cls-1" x1="170.4" y1="86.82" x2="170.29" y2="86.61"/>
  <line class="cls-1" x1="173.07" y1="92.27" x2="172.95" y2="92.03"/>
  <line class="cls-1" x1="175.75" y1="97.74" x2="175.62" y2="97.47"/>
  <line class="cls-1" x1="178.31" y1="102.96" x2="178.3" y2="102.94"/>
  <line class="cls-1" x1="172.04" y1="92.56" x2="172.04" y2="92.56"/>
  <line class="cls-1" x1="173.25" y1="98.24" x2="173.35" y2="98.45"/>
  <line class="cls-1" x1="170.58" y1="92.77" x2="170.67" y2="92.96"/>
  <line class="cls-1" x1="167.92" y1="87.34" x2="168" y2="87.5"/>
  <line class="cls-1" x1="165.27" y1="81.92" x2="165.34" y2="82.06"/>
  <line class="cls-1" x1="159.86" y1="65.31" x2="159.8" y2="65.18"/>
  <line class="cls-1" x1="172.91" y1="98.34" x2="173.01" y2="98.55"/>
  <line class="cls-1" x1="170.24" y1="92.87" x2="170.33" y2="93.06"/>
  <line class="cls-1" x1="167.58" y1="87.43" x2="167.66" y2="87.59"/>
  <line class="cls-1" x1="164.93" y1="82.02" x2="165" y2="82.15"/>
  <line class="cls-1" x1="114.74" y1="76.29" x2="114.71" y2="76.23"/>
  <line class="cls-1" x1="130.22" y1="117.81" x2="130.35" y2="118.07"/>
  <line class="cls-1" x1="127.47" y1="111.9" x2="127.58" y2="112.13"/>
  <line class="cls-1" x1="124.73" y1="106.02" x2="124.82" y2="106.22"/>
  <line class="cls-1" x1="122" y1="100.17" x2="122.08" y2="100.35"/>
  <line class="cls-1" x1="119.29" y1="94.35" x2="119.36" y2="94.5"/>
  <line class="cls-1" x1="130.54" y1="117.71" x2="130.66" y2="117.97"/>
  <line class="cls-1" x1="127.79" y1="111.8" x2="127.9" y2="112.03"/>
  <line class="cls-1" x1="125.05" y1="105.93" x2="125.14" y2="106.13"/>
  <line class="cls-1" x1="122.32" y1="100.08" x2="122.4" y2="100.26"/>
  <line class="cls-1" x1="119.61" y1="94.27" x2="119.68" y2="94.41"/>
  <line class="cls-1" x1="163.49" y1="76.44" x2="163.46" y2="76.37"/>
  <line class="cls-1" x1="171.32" y1="92.77" x2="171.25" y2="92.63"/>
  <line class="cls-1" x1="113.28" y1="82.97" x2="113.32" y2="83.05"/>
  <line class="cls-1" x1="113.91" y1="82.81" x2="113.95" y2="82.89"/>
  <line class="cls-1" x1="114.23" y1="82.73" x2="114.27" y2="82.81"/>
  <line class="cls-1" x1="160.02" y1="71.18" x2="160.06" y2="71.26"/>
  <line class="cls-1" x1="159.68" y1="71.26" x2="159.72" y2="71.34"/>
  <line class="cls-1" x1="129.6" y1="118" x2="129.72" y2="118.26"/>
  <line class="cls-1" x1="126.84" y1="112.08" x2="126.95" y2="112.32"/>
  <line class="cls-1" x1="124.1" y1="106.2" x2="124.2" y2="106.4"/>
  <line class="cls-1" x1="121.38" y1="100.35" x2="121.46" y2="100.52"/>
  <line class="cls-1" x1="118.66" y1="94.52" x2="118.73" y2="94.67"/>
  <line class="cls-1" x1="65.39" y1="95.05" x2="162.3" y2="70.6"/>
  <line class="cls-1" x1="163.18" y1="69.76" x2="162.3" y2="70.6"/>
  <line class="cls-1" x1="65.43" y1="94.33" x2="163.18" y2="69.76"/>
  <line class="cls-1" x1="63.02" y1="88.88" x2="160.87" y2="65.06"/>
  <line class="cls-1" x1="233.16" y1="122.47" x2="233.13" y2="122.96"/>
  <line class="cls-1" x1="132.22" y1="159.69" x2="233.16" y2="122.47"/>
  <line class="cls-1" x1="127.92" y1="157.11" x2="228.62" y2="120.58"/>
  <line class="cls-1" x1="142.03" y1="166.34" x2="142.08" y2="173.13"/>
  <line class="cls-1" x1="244.87" y1="126.89" x2="142.03" y2="166.34"/>
  <line class="cls-1" x1="144.52" y1="166.88" x2="245.77" y2="127.82"/>
  <line class="cls-1" x1="142.79" y1="166.8" x2="142.03" y2="166.34"/>
  <line class="cls-1" x1="190.52" y1="110.6" x2="190.55" y2="110.8"/>
  <line class="cls-1" x1="92.89" y1="142.4" x2="162.44" y2="119.75"/>
  <line class="cls-1" x1="89.54" y1="141.69" x2="162.45" y2="118.12"/>
  <line class="cls-1" x1="208.96" y1="112.57" x2="167.76" y2="126.52"/>
  <line class="cls-1" x1="213.17" y1="114.15" x2="213.16" y2="114.59"/>
  <line class="cls-1" x1="243.75" y1="126.87" x2="243.73" y2="127.23"/>
  <line class="cls-1" x1="142.27" y1="165.73" x2="243.75" y2="126.87"/>
  <line class="cls-1" x1="137.78" y1="163.03" x2="239.03" y2="124.91"/>
  <line class="cls-1" x1="238.41" y1="124.65" x2="238.37" y2="125.16"/>
  <line class="cls-1" x1="137.19" y1="162.67" x2="238.41" y2="124.65"/>
  <line class="cls-1" x1="132.8" y1="160.03" x2="233.77" y2="122.72"/>
  <line class="cls-1" x1="85.21" y1="138.22" x2="161.09" y2="114.18"/>
  <line class="cls-1" x1="82.47" y1="132.84" x2="153.48" y2="110.94"/>
  <line class="cls-1" x1="178.74" y1="103.15" x2="179.44" y2="102.93"/>
  <line class="cls-1" x1="76.42" y1="119.98" x2="172.84" y2="92.12"/>
  <line class="cls-1" x1="173.76" y1="91.34" x2="172.84" y2="92.12"/>
  <line class="cls-1" x1="76.51" y1="119.36" x2="173.76" y2="91.34"/>
  <line class="cls-1" x1="74.04" y1="113.79" x2="171.41" y2="86.54"/>
  <line class="cls-1" x1="150.31" y1="43.62" x2="150.49" y2="43.99"/>
  <line class="cls-1" x1="194.85" y1="111" x2="194.88" y2="111.2"/>
  <line class="cls-1" x1="96.77" y1="143.22" x2="162.42" y2="121.65"/>
  <line class="cls-1" x1="93.34" y1="142.5" x2="162.43" y2="119.97"/>
  <line class="cls-1" x1="184.43" y1="112.8" x2="191.02" y2="110.65"/>
  <line class="cls-1" x1="152.79" y1="48.6" x2="151.98" y2="49.46"/>
  <line class="cls-1" x1="54.6" y1="69.84" x2="152.79" y2="48.6"/>
  <line class="cls-1" x1="52.24" y1="64.5" x2="150.53" y2="43.98"/>
  <line class="cls-1" x1="54.6" y1="69.84" x2="52.24" y2="64.5"/>
  <line class="cls-1" x1="52.24" y1="64.5" x2="52.02" y2="64.83"/>
  <line class="cls-1" x1="89.1" y1="141.63" x2="162.46" y2="117.94"/>
  <line class="cls-1" x1="85.64" y1="138.81" x2="162.23" y2="114.48"/>
  <line class="cls-1" x1="79.21" y1="126.3" x2="145.17" y2="106.62"/>
  <line class="cls-1" x1="169.35" y1="99.4" x2="175.51" y2="97.56"/>
  <line class="cls-1" x1="176.44" y1="96.79" x2="175.51" y2="97.56"/>
  <line class="cls-1" x1="79.31" y1="125.7" x2="144.81" y2="106.21"/>
  <line class="cls-1" x1="168.44" y1="99.17" x2="176.44" y2="96.79"/>
  <line class="cls-1" x1="76.84" y1="120.1" x2="174.07" y2="91.98"/>
  <line class="cls-1" x1="76.84" y1="120.1" x2="76.59" y2="120.37"/>
  <line class="cls-1" x1="70.87" y1="107.44" x2="167.54" y2="81.31"/>
  <line class="cls-1" x1="168.44" y1="80.5" x2="167.54" y2="81.31"/>
  <line class="cls-1" x1="70.94" y1="106.78" x2="168.44" y2="80.5"/>
  <line class="cls-1" x1="68.5" y1="101.27" x2="166.11" y2="75.75"/>
  <line class="cls-1" x1="68.5" y1="101.27" x2="68.27" y2="101.56"/>
  <line class="cls-1" x1="158.18" y1="113.12" x2="147.66" y2="108.24"/>
  <path class="cls-1" d="M158.18,113.12c.42.19.85.37,1.28.53s1,.35,1.5.49a28.89,28.89,0,0,0,2.89.69,40.31,40.31,0,0,0,5.9.63,42,42,0,0,0,5.93-.22,28.86,28.86,0,0,0,5.8-1.19"/>
  <path class="cls-1" d="M181.64,114a14,14,0,0,0,3.29-1.51,5.89,5.89,0,0,0,1.35-1.19,2.78,2.78,0,0,0,.67-1.65"/>
  <line class="cls-1" x1="182.72" y1="104.83" x2="172.02" y2="100.3"/>
  <path class="cls-1" d="M150.19,99.48a30.65,30.65,0,0,1,5.44-1,42.76,42.76,0,0,1,5.54-.2,40.79,40.79,0,0,1,5.52.55A24.66,24.66,0,0,1,172,100.3"/>
  <path class="cls-1" d="M144.17,104.59a2.51,2.51,0,0,0,.38,1.25,4.59,4.59,0,0,0,.86,1,9.52,9.52,0,0,0,2.25,1.4"/>
  <line class="cls-1" x1="76.64" y1="120.31" x2="76.51" y2="120.01"/>
  <line class="cls-1" x1="73.64" y1="113.7" x2="170.19" y2="86.7"/>
  <line class="cls-1" x1="171.1" y1="85.9" x2="170.19" y2="86.7"/>
  <line class="cls-1" x1="73.72" y1="113.05" x2="171.1" y2="85.9"/>
  <line class="cls-1" x1="71.27" y1="107.51" x2="168.75" y2="81.13"/>
  <line class="cls-1" x1="199.7" y1="111.48" x2="199.28" y2="111.44"/>
  <line class="cls-1" x1="244.5" y1="127.03" x2="211.9" y2="113.48"/>
  <line class="cls-1" x1="243.95" y1="127.14" x2="237.1" y2="129.77"/>
  <line class="cls-1" x1="161.35" y1="76.94" x2="162.64" y2="76.61"/>
  <line class="cls-1" x1="203.78" y1="111.81" x2="203.81" y2="112.03"/>
  <line class="cls-1" x1="167.8" y1="123.84" x2="203.78" y2="111.81"/>
  <line class="cls-1" x1="104.87" y1="145.34" x2="104.8" y2="144.92"/>
  <line class="cls-1" x1="167.83" y1="122.05" x2="199.8" y2="111.45"/>
  <line class="cls-1" x1="228.02" y1="120.33" x2="227.99" y2="120.81"/>
  <line class="cls-1" x1="127.36" y1="156.77" x2="228.02" y2="120.33"/>
  <line class="cls-1" x1="123.16" y1="154.25" x2="223.57" y2="118.47"/>
  <line class="cls-1" x1="127.36" y1="156.77" x2="123.16" y2="154.25"/>
  <line class="cls-1" x1="208.4" y1="112.43" x2="208.44" y2="112.75"/>
  <line class="cls-1" x1="108.99" y1="146.03" x2="162.35" y2="127.99"/>
  <line class="cls-1" x1="204.32" y1="111.86" x2="208.4" y2="112.43"/>
  <line class="cls-1" x1="105.28" y1="145.02" x2="162.37" y2="125.9"/>
  <line class="cls-1" x1="167.8" y1="124.09" x2="204.32" y2="111.86"/>
  <line class="cls-1" x1="162.34" y1="128.73" x2="162.49" y2="114.54"/>
  <line class="cls-1" x1="167.93" y1="115.36" x2="167.71" y2="130.22"/>
  <line class="cls-1" x1="161.87" y1="128.51" x2="109.5" y2="146.24"/>
  <line class="cls-1" x1="165.98" y1="130.36" x2="113.42" y2="148.4"/>
  <line class="cls-1" x1="161.87" y1="128.51" x2="165.98" y2="130.36"/>
  <line class="cls-1" x1="82.02" y1="132.65" x2="153.1" y2="110.76"/>
  <line class="cls-1" x1="179.13" y1="102.28" x2="178.29" y2="102.95"/>
  <line class="cls-1" x1="82.14" y1="132.08" x2="152.47" y2="110.47"/>
  <line class="cls-1" x1="177.72" y1="102.71" x2="179.13" y2="102.28"/>
  <line class="cls-1" x1="79.65" y1="126.45" x2="145.38" y2="106.81"/>
  <line class="cls-1" x1="169.78" y1="99.52" x2="176.75" y2="97.44"/>
  <line class="cls-1" x1="68.12" y1="101.23" x2="164.91" y2="75.94"/>
  <line class="cls-1" x1="165.8" y1="75.12" x2="164.91" y2="75.94"/>
  <line class="cls-1" x1="68.18" y1="100.53" x2="165.8" y2="75.12"/>
  <line class="cls-1" x1="65.76" y1="95.06" x2="163.49" y2="70.39"/>
  <line class="cls-1" x1="57.27" y1="76.7" x2="154.52" y2="54.73"/>
  <line class="cls-1" x1="155.37" y1="53.85" x2="154.52" y2="54.73"/>
  <line class="cls-1" x1="57.28" y1="75.91" x2="155.37" y2="53.85"/>
  <line class="cls-1" x1="54.91" y1="70.55" x2="153.1" y2="49.21"/>
  <line class="cls-1" x1="57.28" y1="75.91" x2="54.91" y2="70.55"/>
  <line class="cls-1" x1="54.91" y1="70.55" x2="54.69" y2="70.87"/>
  <line class="cls-1" x1="142.08" y1="173.13" x2="111.19" y2="154.05"/>
  <line class="cls-1" x1="80.26" y1="137.5" x2="49.26" y2="67.13"/>
  <line class="cls-1" x1="51.17" y1="64.26" x2="82.54" y2="135.22"/>
  <line class="cls-1" x1="83.08" y1="135.05" x2="51.72" y2="64.15"/>
  <path class="cls-1" d="M88.92,142.24a5.49,5.49,0,0,1-2.17-1.09A11.19,11.19,0,0,1,85,139.42a19.42,19.42,0,0,1-2.5-4.2"/>
  <path class="cls-1" d="M83.08,135.05a18.89,18.89,0,0,0,2.5,4.19A10.06,10.06,0,0,0,87.3,141a5.41,5.41,0,0,0,2.16,1.1"/>
  <line class="cls-1" x1="88.92" y1="142.24" x2="106.02" y2="145.89"/>
  <line class="cls-1" x1="106.58" y1="145.7" x2="89.46" y2="142.07"/>
  <path class="cls-1" d="M106,145.89a16.44,16.44,0,0,1,5,2.06"/>
  <path class="cls-1" d="M111.55,147.76a16.44,16.44,0,0,0-5-2.06"/>
  <line class="cls-1" x1="110.99" y1="147.95" x2="142.04" y2="166.66"/>
  <line class="cls-1" x1="142.28" y1="166.24" x2="111.55" y2="147.76"/>
  <line class="cls-1" x1="218.03" y1="116.17" x2="218" y2="116.62"/>
  <line class="cls-1" x1="117.97" y1="151.13" x2="218.03" y2="116.17"/>
  <line class="cls-1" x1="113.95" y1="148.72" x2="213.74" y2="114.39"/>
  <line class="cls-1" x1="117.97" y1="151.13" x2="113.95" y2="148.72"/>
  <line class="cls-1" x1="151.36" y1="162.64" x2="142.16" y2="166.17"/>
  <line class="cls-1" x1="112.78" y1="178.31" x2="106.14" y2="173.84"/>
  <line class="cls-1" x1="112.94" y1="155.16" x2="113.63" y2="177.55"/>
  <line class="cls-1" x1="199.27" y1="111.4" x2="199.3" y2="111.61"/>
  <line class="cls-1" x1="167.83" y1="121.82" x2="199.27" y2="111.4"/>
  <line class="cls-1" x1="100.81" y1="144.48" x2="100.74" y2="144.06"/>
  <line class="cls-1" x1="97.23" y1="143.32" x2="162.41" y2="121.88"/>
  <line class="cls-1" x1="167.86" y1="120.09" x2="195.37" y2="111.04"/>
  <line class="cls-1" x1="62.67" y1="88.9" x2="159.69" y2="65.29"/>
  <line class="cls-1" x1="160.56" y1="64.44" x2="159.69" y2="65.29"/>
  <line class="cls-1" x1="62.7" y1="88.16" x2="160.56" y2="64.44"/>
  <line class="cls-1" x1="60.3" y1="82.74" x2="158.27" y2="59.75"/>
  <line class="cls-1" x1="59.96" y1="82.78" x2="157.1" y2="59.99"/>
  <line class="cls-1" x1="157.96" y1="59.13" x2="157.1" y2="59.99"/>
  <line class="cls-1" x1="59.99" y1="82.02" x2="157.96" y2="59.13"/>
  <line class="cls-1" x1="57.6" y1="76.63" x2="155.68" y2="54.47"/>
  <line class="cls-1" x1="222.98" y1="118.23" x2="222.95" y2="118.69"/>
  <line class="cls-1" x1="122.61" y1="153.92" x2="222.98" y2="118.23"/>
  <line class="cls-1" x1="118.51" y1="151.45" x2="218.61" y2="116.41"/>
  <path class="cls-1" d="M18.37,46.1,48,61"/>
  <path class="cls-1" d="M101.16,210l39-15.07"/>
  <path class="cls-1" d="M18.86,120,45.4,135"/>
  <path class="cls-1" d="M9.08,148.82l36.11-11.55"/>
  <line class="cls-1" x1="199.27" y1="111.4" x2="199.3" y2="111.61"/>
  <line class="cls-1" x1="112.94" y1="155.16" x2="113.63" y2="177.55"/>
  <line class="cls-1" x1="80.26" y1="137.5" x2="49.26" y2="67.13"/>
  <line class="cls-1" x1="142.08" y1="173.13" x2="111.19" y2="154.05"/>
  <line class="cls-1" x1="204.32" y1="111.86" x2="208.4" y2="112.43"/>
  <line class="cls-1" x1="203.78" y1="111.81" x2="203.81" y2="112.03"/>
  <line class="cls-1" x1="161.35" y1="76.94" x2="162.64" y2="76.61"/>
  <line class="cls-1" x1="244.5" y1="127.03" x2="211.9" y2="113.48"/>
  <line class="cls-1" x1="199.7" y1="111.48" x2="199.28" y2="111.44"/>
  <line class="cls-1" x1="76.64" y1="120.31" x2="76.51" y2="120.01"/>
  <line class="cls-1" x1="182.72" y1="104.83" x2="172.02" y2="100.3"/>
  <line class="cls-1" x1="76.84" y1="120.1" x2="76.59" y2="120.37"/>
  <line class="cls-1" x1="76.84" y1="120.1" x2="174.07" y2="91.98"/>
  <line class="cls-1" x1="169.35" y1="99.4" x2="175.51" y2="97.56"/>
  <line class="cls-1" x1="194.85" y1="111" x2="194.88" y2="111.2"/>
  <line class="cls-1" x1="190.52" y1="110.6" x2="190.55" y2="110.8"/>
  <line class="cls-1" x1="244.87" y1="126.89" x2="142.03" y2="166.34"/>
  <line class="cls-1" x1="118.66" y1="94.52" x2="118.73" y2="94.67"/>
  <line class="cls-1" x1="121.38" y1="100.35" x2="121.46" y2="100.52"/>
  <line class="cls-1" x1="124.1" y1="106.2" x2="124.2" y2="106.4"/>
  <line class="cls-1" x1="126.84" y1="112.08" x2="126.95" y2="112.32"/>
  <line class="cls-1" x1="129.6" y1="118" x2="129.72" y2="118.26"/>
  <line class="cls-1" x1="159.68" y1="71.26" x2="159.72" y2="71.34"/>
  <line class="cls-1" x1="113.28" y1="82.97" x2="113.32" y2="83.05"/>
  <line class="cls-1" x1="114.74" y1="76.29" x2="114.71" y2="76.23"/>
  <line class="cls-1" x1="164.93" y1="82.02" x2="165" y2="82.15"/>
  <line class="cls-1" x1="167.58" y1="87.43" x2="167.66" y2="87.59"/>
  <line class="cls-1" x1="170.24" y1="92.87" x2="170.33" y2="93.06"/>
  <line class="cls-1" x1="172.91" y1="98.34" x2="173.01" y2="98.55"/>
  <line class="cls-1" x1="133.79" y1="117.01" x2="133.66" y2="116.75"/>
  <line class="cls-1" x1="131.02" y1="111.1" x2="130.91" y2="110.87"/>
  <line class="cls-1" x1="128.27" y1="105.22" x2="128.18" y2="105.02"/>
  <line class="cls-1" x1="125.54" y1="99.38" x2="125.46" y2="99.21"/>
  <line class="cls-1" x1="122.82" y1="93.56" x2="122.75" y2="93.42"/>
  <line class="cls-1" x1="120.11" y1="87.78" x2="120.06" y2="87.66"/>
  <line class="cls-1" x1="195.27" y1="111.07" x2="194.86" y2="111.04"/>
  <line class="cls-1" x1="62.3" y1="82.27" x2="62.28" y2="82.23"/>
  <line class="cls-1" x1="59.6" y1="76.18" x2="59.59" y2="76.17"/>
  <line class="cls-1" x1="115.96" y1="88.73" x2="116.02" y2="88.85"/>
  <line class="cls-1" x1="112.07" y1="70.59" x2="112.06" y2="70.56"/>
  <line class="cls-1" x1="109.42" y1="64.92" x2="109.42" y2="64.91"/>
  <line class="cls-1" x1="151.89" y1="55.32" x2="151.89" y2="55.33"/>
  <line class="cls-1" x1="154.47" y1="60.61" x2="154.49" y2="60.64"/>
  <line class="cls-1" x1="157.07" y1="65.92" x2="157.1" y2="65.98"/>
  <line class="cls-1" x1="105.31" y1="65.84" x2="105.31" y2="65.85"/>
  <line class="cls-1" x1="107.95" y1="71.52" x2="107.97" y2="71.56"/>
  <line class="cls-1" x1="110.61" y1="77.23" x2="110.64" y2="77.29"/>
  <line class="cls-1" x1="195.37" y1="111.04" x2="199.27" y2="111.4"/>
  <line class="cls-1" x1="119.03" y1="158.89" x2="119.47" y2="175.72"/>
  <line class="cls-1" x1="118.95" y1="176.95" x2="113.52" y2="179.05"/>
  <path class="cls-1" d="M119.47,175.72a2.36,2.36,0,0,1-.09.7,1.14,1.14,0,0,1-.16.31.64.64,0,0,1-.27.22"/>
  <path class="cls-1" d="M112.79,178.9a1.23,1.23,0,0,0,.35.16.7.7,0,0,0,.38,0"/>
  <line class="cls-1" x1="113.33" y1="155.4" x2="113.36" y2="155.39"/>
  <line class="cls-1" x1="113.33" y1="155.4" x2="112.94" y2="155.16"/>
  <line class="cls-1" x1="111.53" y1="171.82" x2="113.5" y2="173.11"/>
  <line class="cls-1" x1="106.16" y1="174.42" x2="112.79" y2="178.9"/>
  <path class="cls-1" d="M48.91,65.5a.63.63,0,0,0-.12.37,1,1,0,0,0,.08.38"/>
  <path class="cls-1" d="M50.91,62.47a.75.75,0,0,1,.49-.32"/>
  <line class="cls-1" x1="48.91" y1="65.5" x2="50.91" y2="62.47"/>
  <path class="cls-1" d="M149.41,42a.62.62,0,0,1,.33,0,.88.88,0,0,1,.3.13,1.2,1.2,0,0,1,.44.48"/>
  <line class="cls-1" x1="48.87" y1="66.25" x2="49.26" y2="67.13"/>
  <line class="cls-1" x1="51.4" y1="62.15" x2="149.41" y2="42.01"/>
  <line class="cls-1" x1="150.48" y1="42.63" x2="150.85" y2="43.4"/>
  <line class="cls-1" x1="150.85" y1="43.4" x2="150.73" y2="43.53"/>
  <path class="cls-1" d="M90,148.37a8.53,8.53,0,0,1-3.31-1.72A17.6,17.6,0,0,1,84.09,144a30,30,0,0,1-3.83-6.47"/>
  <line class="cls-1" x1="107.16" y1="152.32" x2="90.04" y2="148.37"/>
  <path class="cls-1" d="M107.16,152.32a13.61,13.61,0,0,1,4,1.73"/>
  <line class="cls-1" x1="117.42" y1="82.02" x2="117.38" y2="81.93"/>
  <line class="cls-1" x1="162.3" y1="76.63" x2="162.33" y2="76.69"/>
  <line class="cls-1" x1="153.77" y1="97.63" x2="153.77" y2="97.85"/>
  <line class="cls-1" x1="190.93" y1="110.68" x2="190.52" y2="110.64"/>
  <line class="cls-1" x1="78.82" y1="119.53" x2="78.73" y2="119.31"/>
  <line class="cls-1" x1="76.03" y1="113.23" x2="75.95" y2="113.05"/>
  <line class="cls-1" x1="65.02" y1="88.4" x2="64.99" y2="88.33"/>
  <line class="cls-1" x1="158.15" y1="96.36" x2="158.15" y2="96.58"/>
  <line class="cls-1" x1="153.81" y1="85.02" x2="153.81" y2="85.18"/>
  <line class="cls-1" x1="158.23" y1="83.83" x2="158.23" y2="83.98"/>
  <line class="cls-1" x1="161.28" y1="77.02" x2="161.35" y2="76.94"/>
  <line class="cls-1" x1="180.31" y1="103.81" x2="150.73" y2="43.53"/>
  <line class="cls-1" x1="77.68" y1="119.86" x2="77.68" y2="119.85"/>
  <line class="cls-1" x1="84.45" y1="132.22" x2="84.33" y2="131.94"/>
  <line class="cls-1" x1="70.48" y1="100.72" x2="70.51" y2="100.68"/>
  <line class="cls-1" x1="153.79" y1="91.29" x2="153.79" y2="91.47"/>
  <line class="cls-1" x1="204.22" y1="111.89" x2="203.78" y2="111.85"/>
  <line class="cls-1" x1="81.63" y1="125.86" x2="81.52" y2="125.61"/>
  <line class="cls-1" x1="199.8" y1="111.45" x2="203.78" y2="111.81"/>
  <line class="cls-1" x1="73.25" y1="106.97" x2="73.19" y2="106.82"/>
  <line class="cls-1" x1="158.19" y1="90.06" x2="158.19" y2="90.24"/>
  <path class="cls-1" d="M211.9,113.48a18.34,18.34,0,0,0-5.41-1.38"/>
  <line class="cls-1" x1="206.49" y1="112.1" x2="205.16" y2="111.97"/>
  <line class="cls-1" x1="77.68" y1="119.85" x2="76.58" y2="120.16"/>
  <line class="cls-1" x1="186.84" y1="110.27" x2="190.52" y2="110.6"/>
  <line class="cls-1" x1="64.42" y1="146.21" x2="106.16" y2="174.41"/>
  <line class="cls-1" x1="111.53" y1="171.82" x2="69.5" y2="144.06"/>
  <path class="cls-1" d="M63.3,143.78a4.4,4.4,0,0,0,.33,1.33,4.3,4.3,0,0,0,.32.6,2,2,0,0,0,.47.5"/>
  <path class="cls-1" d="M68.71,142.36a3.34,3.34,0,0,0,.23.93,2.82,2.82,0,0,0,.23.42,1.37,1.37,0,0,0,.33.35"/>
  <line class="cls-1" x1="66.44" y1="108.57" x2="68.71" y2="142.36"/>
  <line class="cls-1" x1="60.85" y1="109.82" x2="63.3" y2="143.78"/>
  <path class="cls-1" d="M61.09,108.62a1.21,1.21,0,0,0-.22.58,3.19,3.19,0,0,0,0,.62"/>
  <path class="cls-1" d="M66.61,107.73a.87.87,0,0,0-.16.4,2.17,2.17,0,0,0,0,.44"/>
  <line class="cls-1" x1="65.28" y1="103.5" x2="61.09" y2="108.62"/>
  <line class="cls-1" x1="66.61" y1="107.73" x2="66.96" y2="107.31"/>
  <line class="cls-1" x1="70.51" y1="100.68" x2="72.17" y2="100.25"/>
  <line class="cls-1" x1="72.17" y1="100.25" x2="72.19" y2="100.3"/>
  <line class="cls-1" x1="186.97" y1="109.04" x2="186.95" y2="109.65"/>
  <path class="cls-1" d="M182.72,104.83a11.25,11.25,0,0,1,2.73,1.57,4.88,4.88,0,0,1,1.07,1.15A2.72,2.72,0,0,1,187,109"/>
  <line class="cls-1" x1="191.02" y1="110.65" x2="194.85" y2="111"/>
  <line class="cls-1" x1="246.03" y1="127.58" x2="245.56" y2="133.57"/>
  <path class="cls-1" d="M142.83,173.59a1.62,1.62,0,0,0,.41.17,3.32,3.32,0,0,0,.44.06,2.18,2.18,0,0,0,.87-.14"/>
  <path class="cls-1" d="M245.67,127.22a1,1,0,0,1,.23.13.29.29,0,0,1,.13.23"/>
  <path class="cls-1" d="M245.3,133.82a.65.65,0,0,0,.16-.09.27.27,0,0,0,.1-.16"/>
  <line class="cls-1" x1="244.87" y1="126.89" x2="245.67" y2="127.22"/>
  <line class="cls-1" x1="142.08" y1="173.13" x2="142.83" y2="173.59"/>
  <line class="cls-1" x1="144.55" y1="173.68" x2="245.3" y2="133.82"/>
  <line class="cls-1" x1="50.14" y1="35.41" x2="149.78" y2="18.11"/>
  <polyline class="cls-2" points="50.09 35.44 55.3 33.08 55.8 35.81 50.09 35.44"/>
  <polyline class="cls-2" points="149.85 18.09 144.62 20.4 144.15 17.66 149.85 18.09"/>
  <polyline class="cls-2" points="22.04 47.88 23.48 53.42 20.71 53.45 22.04 47.88"/>
  <polyline class="cls-2" points="22.46 121.95 21.05 116.41 23.83 116.39 22.46 121.95"/>
  <polyline class="cls-2" points="13.09 147.56 18.49 149.45 16.97 151.76 13.09 147.56"/>
  <polyline class="cls-2" points="105.66 208.2 100.26 206.31 101.78 203.99 105.66 208.2"/>
  <g>
    <g>
      <path class="cls-3" d="M91.62,25.15l-.9-5.2a3,3,0,0,1-1.36.95l-.12-.72a2.87,2.87,0,0,0,1.43-1.26l.63-.11L92.38,25Z"/>
      <path class="cls-3" d="M93.29,24.86l-.13-.7,2-2.42a2.48,2.48,0,0,0,.74-1.88,1.13,1.13,0,0,0-.47-.78,1.23,1.23,0,0,0-.92-.16,1.25,1.25,0,0,0-.92.6,1.47,1.47,0,0,0-.08,1.16l-.79.08a2.05,2.05,0,0,1,.23-1.68,2.33,2.33,0,0,1,3-.62,1.8,1.8,0,0,1,.79,1.26,2.14,2.14,0,0,1-.13,1.16,5.1,5.1,0,0,1-.85,1.33L94.3,23.94l3.06-.53.13.72Z"/>
      <path class="cls-3" d="M100.45,23.69a2.39,2.39,0,0,1-1.58-.2,1.89,1.89,0,0,1-1-1.12l.73-.26a1.3,1.3,0,0,0,.63.73,1.6,1.6,0,0,0,1,.13,1.32,1.32,0,0,0,.92-.56,1.45,1.45,0,0,0,.19-1.08,1.34,1.34,0,0,0-.56-.95,1.48,1.48,0,0,0-1.12-.19,1.58,1.58,0,0,0-1.25,1l-.61,0-.09-3.46,3.31-.57.12.71-2.71.47,0,1.91a2,2,0,0,1,1.19-.73,2.21,2.21,0,0,1,1.66.3,2.06,2.06,0,0,1,.85,1.41,2.15,2.15,0,0,1-.32,1.65A2.2,2.2,0,0,1,100.45,23.69Z"/>
      <path class="cls-3" d="M106.43,22.59l-.26-1.52-3.27.57-.13-.73,2.47-4.51.93-.16.68,4,.9-.15.12.73-.89.15.26,1.52Zm-2.79-1.83,2.41-.42-.53-3Z"/>
    </g>
    <g>
      <path class="cls-3" d="M93.93,36.89l-.27-1.51-3.27.56-.12-.72,2.46-4.51.93-.16.69,4,.89-.15.13.72-.9.16.26,1.51Zm-2.79-1.82,2.4-.42-.53-3Z"/>
      <path class="cls-3" d="M97.82,34.11a2.24,2.24,0,0,1-1.68-.32,2.08,2.08,0,0,1-.88-1.41,2,2,0,0,1,.38-1.64,2.25,2.25,0,0,1,1.51-.87,2.07,2.07,0,0,1,1.81.49,3.2,3.2,0,0,1,1,2A4,4,0,0,1,99.6,35a2.84,2.84,0,0,1-3.71,1l.3-.7A2.05,2.05,0,0,0,99,34.67a2.45,2.45,0,0,0,.32-1.77,1.61,1.61,0,0,1-.53.79A1.9,1.9,0,0,1,97.82,34.11Zm.54-3.29a1.38,1.38,0,0,0-1.09-.23,1.36,1.36,0,0,0-1,.58,1.42,1.42,0,0,0-.23,1.09,1.38,1.38,0,0,0,.57.94,1.44,1.44,0,0,0,1.1.22,1.45,1.45,0,0,0,.6-2.6Z"/>
      <path class="cls-3" d="M101,34.73l.87-.15.16.92-.87.15Z"/>
      <path class="cls-3" d="M105.71,34.86l-.26-1.52-3.27.56-.13-.72,2.46-4.51.94-.16.68,4,.9-.15.12.72-.89.16.26,1.52ZM102.92,33l2.4-.42-.52-3Z"/>
      <path class="cls-3" d="M108.36,27.93l-.17,1.84-1,.17.63-1.92Zm1.31-.23-.17,1.84-1,.17.64-1.92Z"/>
    </g>
  </g>
  <g>
    <g>
      <path class="cls-3" d="M53.78,170.62l2.9-4.4a2.88,2.88,0,0,1-1.63-.24l.4-.61a2.81,2.81,0,0,0,1.9.06l.54.36-3.46,5.26Z"/>
      <path class="cls-3" d="M57.09,172.88a2.4,2.4,0,0,1-1-1.23,1.9,1.9,0,0,1,.08-1.46l.71.3a1.26,1.26,0,0,0,0,1,1.62,1.62,0,0,0,.66.8,1.32,1.32,0,0,0,1.05.22,1.43,1.43,0,0,0,.88-.65,1.38,1.38,0,0,0,.24-1.08,1.48,1.48,0,0,0-.69-.91,1.57,1.57,0,0,0-1.58-.13l-.43-.44,2.3-2.59,2.81,1.85-.4.61-2.3-1.52-1.27,1.43a1.9,1.9,0,0,1,.71,0,1.76,1.76,0,0,1,.66.26,2.16,2.16,0,0,1,1,1.35,2,2,0,0,1-.34,1.61,2.12,2.12,0,0,1-1.37,1A2.22,2.22,0,0,1,57.09,172.88Z"/>
      <path class="cls-3" d="M60.43,175l2.9-4.4a3,3,0,0,1-1.63-.24l.4-.61a2.82,2.82,0,0,0,1.9.06l.54.35-3.46,5.27Z"/>
      <path class="cls-3" d="M63.91,177.38a2.09,2.09,0,0,1-1-1.71,4,4,0,0,1,.77-2.31,3.88,3.88,0,0,1,1.82-1.62,2.07,2.07,0,0,1,2,.25,2.12,2.12,0,0,1,1,1.71,4.72,4.72,0,0,1-2.59,3.93A2.09,2.09,0,0,1,63.91,177.38Zm.41-.62a1.29,1.29,0,0,0,1.33.08,4.24,4.24,0,0,0,2-3,1.3,1.3,0,0,0-.59-1.2,1.29,1.29,0,0,0-1.35-.08,3.41,3.41,0,0,0-1.34,1.3,3.51,3.51,0,0,0-.66,1.74A1.28,1.28,0,0,0,64.32,176.76Z"/>
    </g>
    <g>
      <path class="cls-3" d="M46.61,180.32a2.44,2.44,0,0,1-1-1.24,1.9,1.9,0,0,1,.07-1.46l.72.31a1.23,1.23,0,0,0,0,1,1.62,1.62,0,0,0,.66.8,1.33,1.33,0,0,0,1.06.22,1.42,1.42,0,0,0,.87-.65,1.39,1.39,0,0,0,.25-1.08,1.48,1.48,0,0,0-.69-.91,1.57,1.57,0,0,0-1.58-.13l-.43-.44,2.3-2.59,2.8,1.85-.4.61-2.3-1.52-1.27,1.43a1.9,1.9,0,0,1,.71,0,1.76,1.76,0,0,1,.66.26,2.21,2.21,0,0,1,1,1.35,2.34,2.34,0,0,1-1.71,2.6A2.23,2.23,0,0,1,46.61,180.32Z"/>
      <path class="cls-3" d="M52,181.29a2.24,2.24,0,0,1-1-1.38,2.19,2.19,0,0,1,1.71-2.57,2.31,2.31,0,0,1,1.71.4,2.09,2.09,0,0,1,1,1.59,3.2,3.2,0,0,1-.61,2.1,3.89,3.89,0,0,1-2.12,1.75,2.67,2.67,0,0,1-2.28-.37,2.75,2.75,0,0,1-1.12-1.43l.7-.31a2,2,0,0,0,.84,1.12,1.93,1.93,0,0,0,1.63.28,2.45,2.45,0,0,0,1.45-1.07,1.64,1.64,0,0,1-.93.21A1.9,1.9,0,0,1,52,181.29Zm2.65-2a1.42,1.42,0,0,0-.64-.92,1.4,1.4,0,0,0-1.09-.22,1.44,1.44,0,0,0-.92.64,1.34,1.34,0,0,0-.22,1.07,1.42,1.42,0,0,0,.65.91,1.44,1.44,0,0,0,1.09.24,1.51,1.51,0,0,0,1.13-1.72Z"/>
      <path class="cls-3" d="M53.88,183.89l.74.49-.52.78-.74-.49Z"/>
      <path class="cls-3" d="M57.25,187.23,58.1,186l-2.78-1.83.41-.62,4.88-1.6.79.52-2.21,3.36.76.5-.41.62-.76-.5-.85,1.28ZM56.47,184l2,1.34,1.7-2.58Z"/>
      <path class="cls-3" d="M63.92,184l-1.39,1.23-.82-.55,1.78-1Zm1.11.74L63.65,186l-.83-.55,1.78-1Z"/>
    </g>
  </g>
  <g>
    <path class="cls-3" d="M19.59,90.4a2.44,2.44,0,0,1-.5,1.63,1.68,1.68,0,0,1-1.36.64,1.58,1.58,0,0,1-1-.32,1.6,1.6,0,0,1-.61-.85,1.68,1.68,0,0,1-.55.68,1.35,1.35,0,0,1-.77.26,1.51,1.51,0,0,1-1.2-.54,2.19,2.19,0,0,1-.47-1.45A2.08,2.08,0,0,1,13.6,89a1.52,1.52,0,0,1,1.19-.55,1.36,1.36,0,0,1,.78.25,1.57,1.57,0,0,1,.55.67,1.72,1.72,0,0,1,.59-.87,1.59,1.59,0,0,1,1-.33,1.66,1.66,0,0,1,1.37.6A2.4,2.4,0,0,1,19.59,90.4Zm-3.77,0a1.2,1.2,0,0,0-.28-.84.9.9,0,0,0-.72-.31.87.87,0,0,0-.72.31,1.52,1.52,0,0,0,0,1.73.84.84,0,0,0,.72.31.92.92,0,0,0,.72-.34A1.28,1.28,0,0,0,15.82,90.43Zm3.06,0a1.49,1.49,0,0,0-.33-1,1.15,1.15,0,0,0-1.71,0,1.54,1.54,0,0,0-.32,1,1.57,1.57,0,0,0,.34,1,1,1,0,0,0,.86.38,1.06,1.06,0,0,0,.85-.39A1.56,1.56,0,0,0,18.88,90.41Z"/>
    <path class="cls-3" d="M19.55,85.26a2.45,2.45,0,0,1-.46,1.52,1.9,1.9,0,0,1-1.26.76l-.14-.76a1.28,1.28,0,0,0,.82-.5,1.63,1.63,0,0,0,.3-1,1.32,1.32,0,0,0-.4-1,1.38,1.38,0,0,0-1-.36,1.35,1.35,0,0,0-1,.4A1.49,1.49,0,0,0,16,85.4a1.56,1.56,0,0,0,.76,1.38l-.12.6-3.43-.47,0-3.35h.73l0,2.75,1.9.26a1.83,1.83,0,0,1-.39-.6,2,2,0,0,1-.15-.69,2.21,2.21,0,0,1,.57-1.59,2,2,0,0,1,1.53-.61,2.09,2.09,0,0,1,1.57.58A2.21,2.21,0,0,1,19.55,85.26Z"/>
    <path class="cls-3" d="M19.5,79.9a2.09,2.09,0,0,1-.85,1.8,4,4,0,0,1-2.35.64,4,4,0,0,1-2.36-.6,2.27,2.27,0,0,1,0-3.57,3.92,3.92,0,0,1,2.35-.65,3.87,3.87,0,0,1,2.35.61A2.05,2.05,0,0,1,19.5,79.9Zm-.74,0a1.28,1.28,0,0,0-.67-1.15,3.53,3.53,0,0,0-1.82-.4,3.47,3.47,0,0,0-1.82.43A1.26,1.26,0,0,0,13.79,80a1.28,1.28,0,0,0,.67,1.16,3.46,3.46,0,0,0,1.83.39,3.38,3.38,0,0,0,1.82-.42A1.27,1.27,0,0,0,18.76,79.91Z"/>
  </g>
  <g>
    <path class="cls-3" d="M31.58,92.68a2.33,2.33,0,0,1-.48,1.54,1.85,1.85,0,0,1-1.32.72l-.12-.77a1.27,1.27,0,0,0,.87-.48,1.54,1.54,0,0,0,.31-1,1.45,1.45,0,0,0-.36-1,1.27,1.27,0,0,0-1-.39,1.24,1.24,0,0,0-.95.38,1.46,1.46,0,0,0-.34,1,1.3,1.3,0,0,0,.21.69l-.52.36-2-2,0,3.06h-.73l0-4h.71l1.77,1.78A1.94,1.94,0,0,1,28.08,91a1.82,1.82,0,0,1,1.45-.6A1.88,1.88,0,0,1,31,91,2.36,2.36,0,0,1,31.58,92.68Z"/>
    <path class="cls-3" d="M31.54,87.54a2.44,2.44,0,0,1-.48,1.54,1.87,1.87,0,0,1-1.32.72L29.62,89a1.27,1.27,0,0,0,.86-.48,1.55,1.55,0,0,0,.32-1,1.47,1.47,0,0,0-.37-1,1.38,1.38,0,0,0-1.91,0,1.5,1.5,0,0,0-.33,1,1.29,1.29,0,0,0,.2.69l-.52.36-2-2,0,3.05h-.73l0-4h.71l1.76,1.78A2,2,0,0,1,28,85.87a1.83,1.83,0,0,1,1.44-.6,1.87,1.87,0,0,1,1.48.61A2.41,2.41,0,0,1,31.54,87.54Z"/>
    <path class="cls-3" d="M30.5,84.26v-.88h.94v.88Z"/>
    <path class="cls-3" d="M31.47,80.35A2.4,2.4,0,0,1,31,81.88a1.94,1.94,0,0,1-1.26.76l-.14-.77a1.29,1.29,0,0,0,.82-.49,1.65,1.65,0,0,0,.3-1,1.35,1.35,0,0,0-.4-1,1.46,1.46,0,0,0-1-.37,1.4,1.4,0,0,0-1,.4,1.52,1.52,0,0,0-.37,1.08,1.58,1.58,0,0,0,.77,1.39l-.12.6L25.12,82l0-3.36h.73l0,2.75,1.89.26a2,2,0,0,1-.53-1.3,2.12,2.12,0,0,1,.57-1.58,2,2,0,0,1,1.52-.61,2.11,2.11,0,0,1,1.58.58A2.16,2.16,0,0,1,31.47,80.35Z"/>
    <path class="cls-3" d="M25,75.06l1.79.47v1L25,75.58Zm0,1.33,1.79.47v1L25,76.9Z"/>
  </g>
</svg>
