<svg id="Vrstva_1" data-name="Vrstva 1" xmlns="http://www.w3.org/2000/svg" viewBox="0 0 226.77 226.77">
  <defs>
    <style>
      .cls-1 {
        fill: none;
        stroke: #010101;
        stroke-linecap: round;
        stroke-linejoin: round;
      }

      .cls-1, .cls-2 {
        stroke-width:.7px;
      }

      .cls-2 {
        fill: #010202;
        stroke: #010202;
        stroke-miterlimit: 10;
      }

      .cls-3 {
        isolation: isolate;
      }

      .cls-4 {
        fill: #1d1d1b;
      }
    
.cls-1{stroke:#ffffff}
.cls-2{stroke:#ffffff;fill:#ffffff}
.cls-4{fill:#ffffff}
</style>
  </defs>
  <line class="cls-1" x1="149.76" y1="196.39" x2="181.6" y2="202.86"/>
  <line class="cls-1" x1="126.91" y1="211.62" x2="157.53" y2="218.29"/>
  <line class="cls-1" x1="138.6" y1="226.29" x2="206.78" y2="182.66"/>
  <line class="cls-1" x1="56.01" y1="49.17" x2="58.31" y2="192.47"/>
  <line class="cls-1" x1="84.88" y1="49.9" x2="51.72" y2="47.38"/>
  <line class="cls-1" x1="53.98" y1="191.6" x2="86.9" y2="198.3"/>
  <line class="cls-1" x1="128.69" y1="50.03" x2="128.46" y2="20.61"/>
  <line class="cls-1" x1="87.82" y1="47.78" x2="87.43" y2="18.64"/>
  <line class="cls-1" x1="144.95" y1="69.2" x2="144.96" y2="60.65"/>
  <path class="cls-1" d="M144.81,194a46.89,46.89,0,0,0,3.57-15.25c.09-1.45.08-2.33.09-3.78s0-2.65,0-4c0-2.66,0-5.32,0-8l.09-31.46.08-31.47c0-2.63,0-5.27,0-7.9,0-1.32,0-2.64,0-4v-2c0-.64,0-1.27,0-1.9a38.54,38.54,0,0,0-1.06-8.49,26.62,26.62,0,0,0-1.17-3.64,18.78,18.78,0,0,0-1.52-3"/>
  <line class="cls-1" x1="129.96" y1="207.55" x2="129.42" y2="207.43"/>
  <path class="cls-1" d="M130,207.55a.29.29,0,0,0,.22,0,.57.57,0,0,0,.13-.08l.15-.1.6-.38,1.2-.77,2.28-1.46,4.55-2.92,4.55-2.92.49-.31a1.49,1.49,0,0,0,.2-.15,1.08,1.08,0,0,0,.18-.24,2.22,2.22,0,0,0,.26-.72,4.29,4.29,0,0,0,0-.8V194"/>
  <path class="cls-1" d="M126.78,52.88a1.86,1.86,0,0,1,.41.08"/>
  <path class="cls-1" d="M143.52,58.33a2,2,0,0,1,1.09.92,2.63,2.63,0,0,1,.35,1.4"/>
  <path class="cls-1" d="M91.17,195.29c0,.67,0,1.35,0,2l0,1a1.45,1.45,0,0,0,.08.5.5.5,0,0,0,.33.35"/>
  <path class="cls-1" d="M88.23,69.78a32.25,32.25,0,0,0-2.77,7.07A40.54,40.54,0,0,0,84.15,85c0,.64-.06,1.28-.07,1.91s0,1.28,0,1.91c0,1.35.07,2.7.11,4q.09,4,.2,8l.81,31.83L86,164.62q.21,7.95.41,15.92c0,.81,0,1.61.08,2.42s.12,1.52.23,2.28a24,24,0,0,0,.93,4.18,16.44,16.44,0,0,0,1.52,3.43,10.55,10.55,0,0,0,2,2.44"/>
  <line class="cls-1" x1="87.82" y1="52.45" x2="88.23" y2="69.78"/>
  <line class="cls-1" x1="92.15" y1="199.27" x2="91.65" y2="199.17"/>
  <path class="cls-1" d="M87.82,52.45a2.52,2.52,0,0,1,.5-1.49,1.61,1.61,0,0,1,1.38-.66"/>
  <path class="cls-1" d="M107.17,56.21a1.09,1.09,0,0,0-.94.45,1.66,1.66,0,0,0-.3,1"/>
  <line class="cls-1" x1="106.07" y1="65.87" x2="128.2" y2="67.73"/>
  <line class="cls-1" x1="106.06" y1="65.87" x2="105.93" y2="57.69"/>
  <line class="cls-1" x1="92.15" y1="199.27" x2="92.15" y2="199.27"/>
  <line class="cls-1" x1="128.71" y1="203.09" x2="92" y2="195.21"/>
  <line class="cls-1" x1="129.41" y1="207.43" x2="92.15" y2="199.27"/>
  <path class="cls-1" d="M92.15,199.27a.46.46,0,0,1-.3-.26"/>
  <line class="cls-1" x1="127.19" y1="52.96" x2="143.52" y2="58.33"/>
  <path class="cls-1" d="M106.07,65.87H106"/>
  <line class="cls-1" x1="128.14" y1="57.77" x2="107.17" y2="56.21"/>
  <line class="cls-1" x1="126.78" y1="52.88" x2="89.7" y2="50.3"/>
  <path class="cls-1" d="M128.24,203l.34-.05"/>
  <path class="cls-1" d="M92,195.21l-.34.18"/>
  <path class="cls-1" d="M91.73,198.48l-.07-3.09"/>
  <path class="cls-1" d="M130,207.55a.29.29,0,0,0,.22,0,.57.57,0,0,0,.13-.08l.15-.1.6-.38,1.2-.77,2.28-1.46,4.55-2.92,4.55-2.92.49-.31a1.49,1.49,0,0,0,.2-.15,1.08,1.08,0,0,0,.18-.24,2.22,2.22,0,0,0,.26-.72,4.29,4.29,0,0,0,0-.8V194"/>
  <path class="cls-1" d="M128.24,203l.34-.05"/>
  <line class="cls-1" x1="129.57" y1="203.55" x2="129.03" y2="203.43"/>
  <path class="cls-1" d="M129.57,203.55v3.1a2.24,2.24,0,0,0,.06.52c.05.15.13.34.32.38"/>
  <path class="cls-1" d="M124.66,189.15a33.14,33.14,0,0,0,.7,6.73,16.21,16.21,0,0,0,2.57,6.21"/>
  <line class="cls-1" x1="130.11" y1="95.03" x2="130.85" y2="93.96"/>
  <path class="cls-1" d="M130.28,92.87a1.1,1.1,0,0,0-.46.66,2.22,2.22,0,0,0-.13.81"/>
  <path class="cls-1" d="M131,93.91a1.72,1.72,0,0,0-.16-.77"/>
  <line class="cls-1" x1="130.75" y1="93.88" x2="131.02" y2="93.91"/>
  <path class="cls-1" d="M106.07,65.87H106"/>
  <line class="cls-1" x1="128.21" y1="68.85" x2="105.7" y2="66.94"/>
  <line class="cls-1" x1="130.1" y1="93.37" x2="130.85" y2="93.96"/>
  <path class="cls-1" d="M130.21,95.42a.53.53,0,0,0,.41-.2,1.44,1.44,0,0,0,.23-.4,2.37,2.37,0,0,0,.17-.91"/>
  <path class="cls-1" d="M129.69,94.34a1.7,1.7,0,0,0,.1.63c.06.18.2.42.42.45"/>
  <path class="cls-1" d="M131,92.8a2.22,2.22,0,0,1,.23,1"/>
  <path class="cls-1" d="M130.73,92.3a.77.77,0,0,0-.82-.48,1.27,1.27,0,0,0-.74.66,4,4,0,0,0-.47,2"/>
  <line class="cls-1" x1="130.73" y1="92.3" x2="131" y2="92.8"/>
  <path class="cls-1" d="M129.48,94.4a2.93,2.93,0,0,1,.35-1.47,1,1,0,0,1,.56-.5.59.59,0,0,1,.61.37"/>
  <path class="cls-1" d="M127.19,53a2.1,2.1,0,0,1,1.14,1,2.79,2.79,0,0,1,.36,1.47"/>
  <line class="cls-1" x1="127.19" y1="52.96" x2="143.52" y2="58.33"/>
  <line class="cls-1" x1="127.27" y1="53.73" x2="126.7" y2="53.54"/>
  <path class="cls-1" d="M143.12,58.25a1.77,1.77,0,0,1,.4.08"/>
  <path class="cls-1" d="M128.12,55.35a2.11,2.11,0,0,0-.29-1.06,1.55,1.55,0,0,0-.84-.69"/>
  <path class="cls-1" d="M92.15,199.27a.46.46,0,0,1-.3-.26"/>
  <line class="cls-1" x1="129.41" y1="207.43" x2="92.15" y2="199.27"/>
  <line class="cls-1" x1="128.71" y1="203.09" x2="92" y2="195.21"/>
  <line class="cls-1" x1="91.66" y1="195.39" x2="129.03" y2="203.43"/>
  <line class="cls-1" x1="128.69" y1="55.4" x2="128.8" y2="73.41"/>
  <line class="cls-1" x1="128.12" y1="55.35" x2="128.23" y2="73.36"/>
  <path class="cls-1" d="M128.8,73.41a37.86,37.86,0,0,0-2.69,7.35,48.86,48.86,0,0,0-1.35,8.5q-.06,1-.09,2c0,.66,0,1.31,0,2l0,4.19.07,8.32q.12,16.47.25,32.92t.26,32.93q.06,8.24.13,16.46c0,.45,0,.9,0,1.35s0,.83,0,1.24c0,.8.08,1.6.16,2.39a28.83,28.83,0,0,0,.79,4.42,18.33,18.33,0,0,0,1.37,3.59,10.49,10.49,0,0,0,1.82,2.53"/>
  <path class="cls-1" d="M128.23,73.36a37,37,0,0,0-2.68,7.35,46.89,46.89,0,0,0-1.35,8.5c0,.65-.08,1.31-.09,2s0,1.31,0,2l0,4.18.07,8.33q.12,16.44.26,32.9t.26,32.91q.07,8.24.14,16.46c0,.45,0,.9,0,1.35s0,.82,0,1.23c0,.8.08,1.6.16,2.4a27.45,27.45,0,0,0,.8,4.4,17.45,17.45,0,0,0,1.37,3.6,10.21,10.21,0,0,0,1.81,2.52"/>
  <path class="cls-1" d="M129,203.43c0,.69,0,1.38,0,2.07v1a2.22,2.22,0,0,0,.06.51.48.48,0,0,0,.31.38"/>
  <line class="cls-1" x1="128.02" y1="202.68" x2="91.62" y2="194.88"/>
  <path class="cls-1" d="M123.53,92.69a47.66,47.66,0,0,1,1-9.82,39.24,39.24,0,0,1,3.09-9.36"/>
  <line class="cls-1" x1="124.33" y1="189.35" x2="123.53" y2="92.69"/>
  <path class="cls-1" d="M127.82,202.55a16,16,0,0,1-2.75-6.31,32.66,32.66,0,0,1-.74-6.89"/>
  <line class="cls-1" x1="128.18" y1="72.52" x2="92.6" y2="69.37"/>
  <path class="cls-1" d="M127.8,73.93a38.1,38.1,0,0,0-3,9.1,45.77,45.77,0,0,0-.92,9.56"/>
  <line class="cls-1" x1="123.88" y1="92.59" x2="124.66" y2="189.15"/>
  <line class="cls-1" x1="128.07" y1="73.69" x2="128.03" y2="73.7"/>
  <line class="cls-1" x1="130.04" y1="91.8" x2="130.11" y2="91.81"/>
  <path class="cls-1" d="M130.28,92.87c.26-.13.47,0,.58.27"/>
  <path class="cls-1" d="M129.69,95.41a2.21,2.21,0,0,1-.21-1"/>
  <line class="cls-1" x1="129.48" y1="94.4" x2="128.7" y2="94.44"/>
  <line class="cls-1" x1="124.53" y1="146.82" x2="124.32" y2="146.78"/>
  <line class="cls-1" x1="124.32" y1="146.94" x2="124.53" y2="146.97"/>
  <path class="cls-1" d="M130.07,91.8h0"/>
  <path class="cls-1" d="M131,92.83l0,0"/>
  <path class="cls-1" d="M91.85,199a1.41,1.41,0,0,1-.12-.53"/>
  <line class="cls-1" x1="130.1" y1="93.37" x2="130.11" y2="95.03"/>
  <line class="cls-1" x1="105.69" y1="66.33" x2="128.2" y2="68.23"/>
  <line class="cls-1" x1="92.15" y1="199.27" x2="92.15" y2="199.27"/>
  <path class="cls-1" d="M91.66,195.39c0,.61,0,1.22,0,1.82l0,.91v.25a1.48,1.48,0,0,0,0,.21,1.09,1.09,0,0,0,.11.43"/>
  <line class="cls-1" x1="129.89" y1="93.35" x2="130.1" y2="93.37"/>
  <line class="cls-1" x1="106.06" y1="65.87" x2="105.93" y2="57.69"/>
  <path class="cls-1" d="M130.24,92.9a1.31,1.31,0,0,1,.29.81"/>
  <path class="cls-1" d="M88.75,69.83A32.25,32.25,0,0,0,86,76.9a40.74,40.74,0,0,0-1.31,8.2c0,.63-.06,1.27-.07,1.91s0,1.27,0,1.91c0,1.35.07,2.7.11,4,.06,2.69.13,5.37.2,8.06q.41,15.92.8,31.84t.8,31.85q.21,8,.41,15.92c0,.81,0,1.62.08,2.43s.12,1.52.23,2.28a24.34,24.34,0,0,0,.93,4.19A16.59,16.59,0,0,0,89.7,193a10.26,10.26,0,0,0,2,2.44"/>
  <line class="cls-1" x1="88.23" y1="69.78" x2="88.75" y2="69.83"/>
  <line class="cls-1" x1="91.66" y1="195.39" x2="91.17" y2="195.29"/>
  <path class="cls-1" d="M105,66.16s0,0,.06.06l.09,0,.17,0,.36,0"/>
  <path class="cls-1" d="M106.48,67a19.08,19.08,0,0,1,1.91,3.77"/>
  <line class="cls-1" x1="105.02" y1="66.76" x2="105.01" y2="66.16"/>
  <line class="cls-1" x1="106.07" y1="65.87" x2="128.2" y2="67.73"/>
  <path class="cls-1" d="M105.7,66.94l-.36,0-.18,0-.08,0s-.06,0-.06-.06"/>
  <path class="cls-1" d="M105.26,66l-.14,0s-.11,0-.11.08"/>
  <line class="cls-1" x1="105.96" y1="65.88" x2="105.26" y2="66.04"/>
  <path class="cls-1" d="M130,95.29a1.35,1.35,0,0,0,.46-.73"/>
  <line class="cls-1" x1="129.8" y1="95" x2="130.11" y2="95.03"/>
  <path class="cls-1" d="M107.17,56.21a1.09,1.09,0,0,0-.94.45,1.66,1.66,0,0,0-.3,1"/>
  <path class="cls-1" d="M87.82,52.45a2.52,2.52,0,0,1,.5-1.49,1.61,1.61,0,0,1,1.38-.66"/>
  <path class="cls-1" d="M89.62,50.93a1.07,1.07,0,0,0-1,.49,1.86,1.86,0,0,0-.31,1.07"/>
  <line class="cls-1" x1="92.15" y1="199.27" x2="91.65" y2="199.17"/>
  <line class="cls-1" x1="88.34" y1="52.49" x2="88.75" y2="69.83"/>
  <line class="cls-1" x1="87.82" y1="52.45" x2="88.23" y2="69.78"/>
  <path class="cls-1" d="M88.23,69.78a32.25,32.25,0,0,0-2.77,7.07A40.54,40.54,0,0,0,84.15,85c0,.64-.06,1.28-.07,1.91s0,1.28,0,1.91c0,1.35.07,2.7.11,4q.09,4,.2,8l.81,31.83L86,164.62q.21,7.95.41,15.92c0,.81,0,1.61.08,2.42s.12,1.52.23,2.28a24,24,0,0,0,.93,4.18,16.44,16.44,0,0,0,1.52,3.43,10.55,10.55,0,0,0,2,2.44"/>
  <path class="cls-1" d="M91.17,195.29c0,.67,0,1.35,0,2l0,1a1.45,1.45,0,0,0,.08.5.5.5,0,0,0,.33.35"/>
  <path class="cls-1" d="M143.52,58.33a2,2,0,0,1,1.09.92,2.63,2.63,0,0,1,.35,1.4"/>
  <path class="cls-1" d="M126.78,52.88a1.86,1.86,0,0,1,.41.08"/>
  <line class="cls-1" x1="128.8" y1="73.41" x2="128.23" y2="73.36"/>
  <path class="cls-1" d="M129.62,96.33c-.4,0-.63-.46-.75-.77a3.54,3.54,0,0,1-.17-1.12"/>
  <line class="cls-1" x1="129.62" y1="96.33" x2="129.55" y2="96.32"/>
  <path class="cls-1" d="M129.69,95.41a.78.78,0,0,0,.3.35.45.45,0,0,0,.46,0"/>
  <path class="cls-1" d="M127.69,202.61a.45.45,0,0,0-.19.22"/>
  <line class="cls-1" x1="129.96" y1="207.55" x2="129.42" y2="207.43"/>
  <path class="cls-1" d="M129.55,96.32a.91.91,0,0,1-.65-.54"/>
  <path class="cls-1" d="M144.81,194a46.89,46.89,0,0,0,3.57-15.25c.09-1.45.08-2.33.09-3.78s0-2.65,0-4c0-2.66,0-5.32,0-8l.09-31.46.08-31.47c0-2.63,0-5.27,0-7.9,0-1.32,0-2.64,0-4v-2c0-.64,0-1.27,0-1.9a38.54,38.54,0,0,0-1.06-8.49,26.62,26.62,0,0,0-1.17-3.64,18.78,18.78,0,0,0-1.52-3"/>
  <path class="cls-1" d="M128.23,72.53h0"/>
  <line class="cls-1" x1="144.95" y1="69.2" x2="144.96" y2="60.65"/>
  <line class="cls-1" x1="128.31" y1="202.61" x2="128.29" y2="202.62"/>
  <path class="cls-1" d="M130.7,95.56a.82.82,0,0,1-.25.2"/>
  <path class="cls-1" d="M129.62,96.33a.88.88,0,0,0,.71-.35"/>
  <path class="cls-1" d="M127.57,73.51a.86.86,0,0,1,.46-.46"/>
  <path class="cls-1" d="M128,202.68a.28.28,0,0,1-.2-.13"/>
  <path class="cls-1" d="M92.6,69.37a8.94,8.94,0,0,0-2.19.09"/>
  <path class="cls-1" d="M91.41,194.74a.38.38,0,0,0,.21.14"/>
  <path class="cls-1" d="M128.29,202.62a.37.37,0,0,1-.27.06"/>
  <path class="cls-1" d="M89.16,70.07A34.46,34.46,0,0,0,86,79a41.33,41.33,0,0,0-.87,9.48"/>
  <line class="cls-1" x1="85.13" y1="88.52" x2="87.46" y2="181.88"/>
  <path class="cls-1" d="M87.46,181.88a29.3,29.3,0,0,0,.93,6.78,15.19,15.19,0,0,0,3,6.08"/>
  <path class="cls-1" d="M89.64,69.63a.83.83,0,0,0-.48.44"/>
  <line class="cls-1" x1="128.03" y1="73.05" x2="128.23" y2="73"/>
  <line class="cls-1" x1="90.41" y1="69.46" x2="89.64" y2="69.63"/>
  <path class="cls-1" d="M128,73.7a.43.43,0,0,0-.23.23"/>
  <line class="cls-1" x1="89.62" y1="50.93" x2="126.7" y2="53.54"/>
  <line class="cls-1" x1="126.78" y1="52.88" x2="89.7" y2="50.3"/>
  <line class="cls-1" x1="128.14" y1="57.77" x2="107.17" y2="56.21"/>
  <path class="cls-1" d="M128.63,94.44a3.12,3.12,0,0,0,.27,1.34"/>
  <path class="cls-1" d="M130,91.8a.87.87,0,0,0-.71.34,2.47,2.47,0,0,0-.41.7,4.16,4.16,0,0,0-.29,1.6"/>
  <line class="cls-1" x1="128.63" y1="94.44" x2="128.7" y2="94.44"/>
  <line class="cls-1" x1="130.7" y1="95.56" x2="130.33" y2="95.98"/>
  <path class="cls-1" d="M131.23,93.84a2.82,2.82,0,0,1-.53,1.72"/>
  <line class="cls-1" x1="128.42" y1="25.55" x2="87.53" y2="22.83"/>
  <polyline class="cls-2" points="87.49 22.85 93.12 21.81 92.94 24.58 87.49 22.85"/>
  <polyline class="cls-2" points="128.48 25.52 122.86 26.55 123.03 23.79 128.48 25.52"/>
  <polyline class="cls-2" points="56.01 47.66 57.49 53.19 54.72 53.23 56.01 47.66"/>
  <polyline class="cls-2" points="58.3 192.41 56.82 186.88 59.59 186.83 58.3 192.41"/>
  <polyline class="cls-2" points="152.82 217.25 148.88 221.4 147.4 219.06 152.82 217.25"/>
  <polyline class="cls-2" points="176.82 201.85 180.77 197.71 182.25 200.05 176.82 201.85"/>
  <g>
    <g class="cls-3">
      <path class="cls-4" d="M66.12,128.59a2.34,2.34,0,0,1-.48,1.55,1.87,1.87,0,0,1-1.31.73l-.13-.78a1.2,1.2,0,0,0,.87-.48,1.54,1.54,0,0,0,.31-1,1.47,1.47,0,0,0-.37-1,1.2,1.2,0,0,0-1-.38,1.22,1.22,0,0,0-.95.38,1.5,1.5,0,0,0-.33,1,1.3,1.3,0,0,0,.21.69l-.52.36-2-2,0,3.06h-.73l0-4h.71l1.76,1.77a2,2,0,0,1,.42-1.54,1.82,1.82,0,0,1,1.44-.61,1.9,1.9,0,0,1,1.48.61A2.38,2.38,0,0,1,66.12,128.59Z"/>
      <path class="cls-4" d="M63.91,123.52a2.22,2.22,0,0,1-.58,1.6,2.21,2.21,0,0,1-3.09,0,2.27,2.27,0,0,1-.62-1.64,2.07,2.07,0,0,1,.77-1.7,3.16,3.16,0,0,1,2.08-.67,4,4,0,0,1,2.64.77,2.66,2.66,0,0,1,1,2.11,2.71,2.71,0,0,1-.56,1.72l-.64-.41a1.94,1.94,0,0,0,.46-1.32,2,2,0,0,0-.68-1.5,2.43,2.43,0,0,0-1.7-.61,1.6,1.6,0,0,1,.69.65A1.85,1.85,0,0,1,63.91,123.52Zm-3.17-1.06a1.38,1.38,0,0,0-.39,1,1.35,1.35,0,0,0,.42,1,1.41,1.41,0,0,0,1,.4,1.33,1.33,0,0,0,1-.42,1.54,1.54,0,0,0,0-2.07,1.51,1.51,0,0,0-2.07,0Z"/>
      <path class="cls-4" d="M65,120.51v-.89H66v.89Z"/>
      <path class="cls-4" d="M65.9,115.84l-1.54,0,0,3.32h-.74L59.6,116v-.94l4,0v-.91h.73V115l1.54,0Zm-2.25,2.47,0-2.44-3.09,0Z"/>
      <path class="cls-4" d="M59.47,110.8l1.79.46v1l-1.79-.93Zm0,1.33,1.79.46v1l-1.8-.93Z"/>
    </g>
    <g class="cls-3">
      <path class="cls-4" d="M54,129.05l-5.27.06a3,3,0,0,1,.72,1.48h-.73a2.84,2.84,0,0,0-1-1.61v-.65l6.3-.07Z"/>
      <path class="cls-4" d="M54.05,124.83a2.07,2.07,0,0,1-.84,1.8,4.75,4.75,0,0,1-4.71.05,2.05,2.05,0,0,1-.89-1.77,2.1,2.1,0,0,1,.85-1.8,4.73,4.73,0,0,1,4.7,0A2.05,2.05,0,0,1,54.05,124.83Zm-.73,0a1.31,1.31,0,0,0-.68-1.15,4.24,4.24,0,0,0-3.64,0,1.35,1.35,0,0,0,0,2.33,4.34,4.34,0,0,0,3.64,0A1.32,1.32,0,0,0,53.32,124.84Z"/>
      <path class="cls-4" d="M54,119.28a2.07,2.07,0,0,1-.85,1.8,4.73,4.73,0,0,1-4.7,0,2.27,2.27,0,0,1,0-3.57,4,4,0,0,1,2.34-.65,3.92,3.92,0,0,1,2.36.6A2.07,2.07,0,0,1,54,119.28Zm-.74,0a1.27,1.27,0,0,0-.68-1.15,3.4,3.4,0,0,0-1.82-.39,3.5,3.5,0,0,0-1.82.43,1.36,1.36,0,0,0,0,2.33,4.36,4.36,0,0,0,3.65,0A1.29,1.29,0,0,0,53.25,119.29Z"/>
      <path class="cls-4" d="M53.93,113.73a2.1,2.1,0,0,1-.85,1.8,4.75,4.75,0,0,1-4.71,0,2.26,2.26,0,0,1,0-3.57A4.65,4.65,0,0,1,53,112,2.06,2.06,0,0,1,53.93,113.73Zm-.74,0a1.29,1.29,0,0,0-.68-1.15,4.25,4.25,0,0,0-3.64,0,1.35,1.35,0,0,0,0,2.33,3.56,3.56,0,0,0,1.83.38,3.5,3.5,0,0,0,1.82-.43A1.29,1.29,0,0,0,53.19,113.74Z"/>
    </g>
  </g>
  <g>
    <g class="cls-3">
      <path class="cls-4" d="M193.39,201.84l-2.86-4.44a2.89,2.89,0,0,1-.87,1.4l-.4-.62a2.78,2.78,0,0,0,.83-1.71l.54-.35,3.41,5.3Z"/>
      <path class="cls-4" d="M196,200.15l-2.85-4.44a2.84,2.84,0,0,1-.88,1.4l-.39-.61a2.82,2.82,0,0,0,.82-1.72l.55-.35,3.4,5.3Z"/>
      <path class="cls-4" d="M197.23,198.25l.74-.48.51.79-.74.48Z"/>
      <path class="cls-4" d="M201.23,196.88a2.53,2.53,0,0,1-1.65.45,1.67,1.67,0,0,1-1.27-.81,1.62,1.62,0,0,1-.26-1,1.68,1.68,0,0,1,.41-1,1.51,1.51,0,0,1-.87-.1,1.27,1.27,0,0,1-.63-.51,1.48,1.48,0,0,1-.19-1.3,2.17,2.17,0,0,1,1-1.17,2.11,2.11,0,0,1,1.44-.39,1.52,1.52,0,0,1,1.1.72,1.34,1.34,0,0,1,.21.79,1.51,1.51,0,0,1-.27.82,1.79,1.79,0,0,1,1.05,0,1.61,1.61,0,0,1,.8.65,1.68,1.68,0,0,1,.22,1.48A2.43,2.43,0,0,1,201.23,196.88Zm-2-3.17a1.29,1.29,0,0,0,.56-.68.91.91,0,0,0-.12-.78.84.84,0,0,0-.65-.44,1.25,1.25,0,0,0-.86.23,1.41,1.41,0,0,0-.6.7.88.88,0,0,0,.13.78.94.94,0,0,0,.67.43A1.35,1.35,0,0,0,199.19,193.71Zm1.65,2.57a1.51,1.51,0,0,0,.68-.82,1.07,1.07,0,0,0-.14-.93,1.1,1.1,0,0,0-.78-.51,1.57,1.57,0,0,0-1,.28,1.55,1.55,0,0,0-.69.83,1.13,1.13,0,0,0,.92,1.44A1.55,1.55,0,0,0,200.84,196.28Z"/>
      <path class="cls-4" d="M201.42,189.09l.56,1.76-.83.54-.16-2Zm1.12-.72.56,1.76-.83.54-.16-2Z"/>
    </g>
    <g class="cls-3">
      <path class="cls-4" d="M188.08,191a2.44,2.44,0,0,1-1.56.42,1.9,1.9,0,0,1-1.31-.73l.59-.52a1.28,1.28,0,0,0,.86.48,1.62,1.62,0,0,0,1-.27,1.51,1.51,0,0,0,.69-.87,1.39,1.39,0,0,0-1-1.62,1.44,1.44,0,0,0-1.05.27,1.26,1.26,0,0,0-.48.54l-.57-.25.6-2.73-2.57,1.65-.39-.61,3.38-2.18.38.6-.56,2.44a1.92,1.92,0,0,1,1.52-.47,1.84,1.84,0,0,1,1.29.9,1.88,1.88,0,0,1,.27,1.58A2.44,2.44,0,0,1,188.08,191Z"/>
      <path class="cls-4" d="M192.66,188.09a2.07,2.07,0,0,1-2,.24,4.71,4.71,0,0,1-2.54-4,2.06,2.06,0,0,1,1-1.7,2.09,2.09,0,0,1,2-.23,4.71,4.71,0,0,1,2.54,3.95A2.06,2.06,0,0,1,192.66,188.09Zm-.4-.62a1.28,1.28,0,0,0,.62-1.18,3.49,3.49,0,0,0-.64-1.75,3.54,3.54,0,0,0-1.33-1.32,1.33,1.33,0,0,0-1.34.06,1.31,1.31,0,0,0-.62,1.2,3.45,3.45,0,0,0,.65,1.75,3.35,3.35,0,0,0,1.32,1.31A1.27,1.27,0,0,0,192.26,187.47Z"/>
      <path class="cls-4" d="M197.33,185.09a2.06,2.06,0,0,1-2,.24,4,4,0,0,1-1.8-1.65,3.94,3.94,0,0,1-.74-2.31,2.26,2.26,0,0,1,3-1.93,4.71,4.71,0,0,1,2.54,3.95A2.06,2.06,0,0,1,197.33,185.09Zm-.39-.62a1.3,1.3,0,0,0,.61-1.19,3.52,3.52,0,0,0-.64-1.75,3.58,3.58,0,0,0-1.33-1.31,1.29,1.29,0,0,0-1.34.06,1.31,1.31,0,0,0-.62,1.2,3.45,3.45,0,0,0,.65,1.75,3.42,3.42,0,0,0,1.32,1.31A1.29,1.29,0,0,0,196.94,184.47Z"/>
    </g>
  </g>
  <g>
    <g class="cls-3">
      <path class="cls-4" d="M103,33.09l.31-5.27a2.84,2.84,0,0,1-1.53.61l0-.72a2.79,2.79,0,0,0,1.68-.9l.65,0-.38,6.29Z"/>
      <path class="cls-4" d="M104.66,33.19l0-.71,2.48-1.9a2.43,2.43,0,0,0,1.16-1.66,1.1,1.1,0,0,0-.28-.86,1.17,1.17,0,0,0-.86-.37,1.22,1.22,0,0,0-1,.36,1.51,1.51,0,0,0-.34,1.12l-.79-.11a2,2,0,0,1,.6-1.57,2.06,2.06,0,0,1,1.61-.53,2.11,2.11,0,0,1,1.45.61,1.72,1.72,0,0,1,.48,1.4,2.06,2.06,0,0,1-.4,1.1,4.75,4.75,0,0,1-1.13,1.1l-1.79,1.35,3.1.19,0,.74Z"/>
      <path class="cls-4" d="M111.61,27.22,111,29l-1-.06,1.06-1.72Zm1.33.08-.59,1.75-1-.06,1.06-1.72Z"/>
    </g>
    <g class="cls-3">
      <path class="cls-4" d="M102.24,21.07a2.36,2.36,0,0,1-1.51-.59,1.9,1.9,0,0,1-.63-1.36l.78-.07a1.27,1.27,0,0,0,.41.9,1.57,1.57,0,0,0,1,.38,1.5,1.5,0,0,0,1.07-.29,1.3,1.3,0,0,0,.45-.93,1.28,1.28,0,0,0-.31-1,1.51,1.51,0,0,0-1-.4,1.31,1.31,0,0,0-.7.16l-.32-.55,2.1-1.84-3-.19,0-.73,4,.25,0,.71-1.9,1.63a1.93,1.93,0,0,1,1.5.52,1.83,1.83,0,0,1,.51,1.49,1.86,1.86,0,0,1-.71,1.43A2.39,2.39,0,0,1,102.24,21.07Z"/>
      <path class="cls-4" d="M107.67,21.4a2.07,2.07,0,0,1-1.73-1,4,4,0,0,1-.48-2.38,4,4,0,0,1,.76-2.31,2.28,2.28,0,0,1,3.57.21,4,4,0,0,1,.48,2.39,3.87,3.87,0,0,1-.77,2.3A2.07,2.07,0,0,1,107.67,21.4Zm0-.74a1.3,1.3,0,0,0,1.19-.59,3.52,3.52,0,0,0,.52-1.8,3.59,3.59,0,0,0-.3-1.84,1.34,1.34,0,0,0-2.32-.14,3.46,3.46,0,0,0-.52,1.8,3.53,3.53,0,0,0,.3,1.83A1.28,1.28,0,0,0,107.72,20.66Z"/>
      <path class="cls-4" d="M113.94,21.7l.1-1.53-3.32-.2,0-.74,3.43-3.82.94.05-.24,4,.91.05,0,.74-.9-.05-.1,1.53Zm-2.29-2.42,2.43.15.19-3.08Z"/>
    </g>
  </g>
</svg>
