<svg id="Vrstva_1" data-name="Vrstva 1" xmlns="http://www.w3.org/2000/svg" viewBox="0 0 340.16 226.77"><defs><style>.cls-1{fill:none;stroke:#010101;stroke-linecap:round;stroke-linejoin:round;}.cls-1,.cls-2{stroke-width:.7px;}.cls-2{fill:#010202;stroke:#010202;stroke-miterlimit:10;}.cls-3{fill:#1d1d1b;}
.cls-1{stroke:#ffffff}
.cls-2{stroke:#ffffff;fill:#ffffff}
.cls-3{fill:#24466f}
</style></defs><line class="cls-1" x1="79.57" y1="93.71" x2="77.35" y2="92.05"/><line class="cls-1" x1="79.51" y1="93.54" x2="81.07" y2="82.34"/><line class="cls-1" x1="214.18" y1="99.03" x2="222.27" y2="101.64"/><line class="cls-1" x1="90.26" y1="79.91" x2="241.32" y2="63.2"/><line class="cls-1" x1="244.97" y1="75.67" x2="242.46" y2="76.28"/><line class="cls-1" x1="87.65" y1="80.69" x2="89.91" y2="79.98"/><path class="cls-1" d="M88.67,95.74a.24.24,0,0,1-.26-.22h0"/><line class="cls-1" x1="242.45" y1="76.28" x2="88.67" y2="95.74"/><line class="cls-1" x1="88.41" y1="95.52" x2="86.29" y2="83.34"/><line class="cls-1" x1="88.9" y1="97.26" x2="91.16" y2="96.62"/><line class="cls-1" x1="91.2" y1="96.61" x2="245.2" y2="76.93"/><line class="cls-1" x1="245.44" y1="77.11" x2="247.65" y2="89.26"/><path class="cls-1" d="M91.23,110.9a.27.27,0,0,1-.19-.23"/><line class="cls-1" x1="93.67" y1="111.54" x2="91.23" y2="110.9"/><line class="cls-1" x1="247.46" y1="89.52" x2="93.78" y2="111.55"/><path class="cls-1" d="M88.76,97.53a.23.23,0,0,1,.14-.27"/><line class="cls-1" x1="49.17" y1="119.31" x2="54.95" y2="119.91"/><line class="cls-1" x1="55.76" y1="119.97" x2="55.8" y2="117.82"/><line class="cls-1" x1="55.79" y1="120" x2="58.97" y2="121.48"/><line class="cls-1" x1="99.05" y1="135.71" x2="98.89" y2="133.32"/><line class="cls-1" x1="252.35" y1="107.58" x2="261.46" y2="108.3"/><line class="cls-1" x1="107.2" y1="131.71" x2="252.3" y2="107.59"/><line class="cls-1" x1="117.42" y1="140.51" x2="117.52" y2="138.63"/><line class="cls-1" x1="131.85" y1="144.56" x2="131.96" y2="142.66"/><line class="cls-1" x1="89.08" y1="136.02" x2="88.96" y2="134.16"/><path class="cls-1" d="M257.19,93.25l14.19,2.49"/><path class="cls-1" d="M245.33,91.17l11.85,2.08"/><path class="cls-1" d="M52.21,173.42,60.85,107"/><path class="cls-1" d="M67.28,107.11q-.44,3.4-.91,6.81c-.32,2.27-.6,4.54-.91,6.81l-.92,6.81c-.3,2.27-.59,4.53-.91,6.8L61.81,148c-.3,2.27-.6,4.54-.92,6.81s-.59,4.54-.91,6.81"/><path class="cls-1" d="M58.64,169.38a.74.74,0,0,0-.67-.16"/><path class="cls-1" d="M58.52,169.27l.09.09"/><line class="cls-1" x1="58.52" y1="169.27" x2="58.64" y2="169.38"/><path class="cls-1" d="M58.33,173.64a.09.09,0,0,0,.06-.06"/><path class="cls-1" d="M54.69,174.36c.15-1.21.31-2.42.47-3.63"/><line class="cls-1" x1="59.48" y1="165.39" x2="67.08" y2="107.18"/><line class="cls-1" x1="63.69" y1="107.81" x2="55.48" y2="170.11"/><line class="cls-1" x1="80.82" y1="131.65" x2="80.86" y2="133.46"/><line class="cls-1" x1="88.96" y1="134.17" x2="80.82" y2="131.65"/><path class="cls-1" d="M207.59,143.32a3.53,3.53,0,0,1-.65,0"/><line class="cls-1" x1="207.36" y1="142.65" x2="209.35" y2="143.18"/><line class="cls-1" x1="209.35" y1="143.18" x2="206.87" y2="143.68"/><line class="cls-1" x1="209.35" y1="143.47" x2="209.35" y2="143.18"/><path class="cls-1" d="M207,143.32h.47"/><path class="cls-1" d="M56.13,173.44a3,3,0,0,0-.94,0"/><path class="cls-1" d="M54.81,173.39a1.38,1.38,0,0,0,.6.13,3.14,3.14,0,0,0,.61-.05"/><path class="cls-1" d="M55.18,173.12a3.32,3.32,0,0,1,.89,0h.21c.06,0,.17.07.14.15s-.32.16-.4.18"/><line class="cls-1" x1="58.25" y1="173.62" x2="58.24" y2="173.28"/><line class="cls-1" x1="234.76" y1="63.8" x2="235.24" y2="63.87"/><line class="cls-1" x1="80.82" y1="131.65" x2="80.77" y2="133.42"/><line class="cls-1" x1="55.83" y1="121.73" x2="55.86" y2="120.03"/><path class="cls-1" d="M246.06,91.29c0,.06-.08.1-.11.11l-.16.06-.33.06"/><path class="cls-1" d="M232.36,63.47h0"/><path class="cls-1" d="M245.36,91.52c-.25,0-.37-.38-.41-.58"/><line class="cls-1" x1="234.1" y1="63.3" x2="236.9" y2="63.69"/><path class="cls-1" d="M245.41,91.2c-.13,0-.21-.18-.23-.29"/><line class="cls-1" x1="233.84" y1="63.3" x2="232.39" y2="63.46"/><line class="cls-1" x1="80.91" y1="131.63" x2="80.86" y2="129.34"/><line class="cls-1" x1="106.05" y1="125.12" x2="232.6" y2="104.97"/><path class="cls-1" d="M81,131.66h0"/><line class="cls-1" x1="80.95" y1="131.66" x2="88.82" y2="134.09"/><line class="cls-1" x1="115.76" y1="118.35" x2="115.79" y2="120.3"/><path class="cls-1" d="M52.07,104.64l58.87,16"/><path class="cls-1" d="M56.15,102.36l59.12,15.69"/><line class="cls-1" x1="279.85" y1="117.23" x2="131.86" y2="144.48"/><line class="cls-1" x1="118.39" y1="139.01" x2="118.51" y2="136.62"/><line class="cls-1" x1="118.73" y1="136.37" x2="273.52" y2="109.57"/><path class="cls-1" d="M280,117.06a.18.18,0,0,1-.13.17"/><path class="cls-1" d="M129.8,143.05a7.57,7.57,0,0,1-1.9.07,5.61,5.61,0,0,1-1.85-.43"/><line class="cls-1" x1="118.44" y1="139.06" x2="126.05" y2="142.69"/><line class="cls-1" x1="129.8" y1="143.05" x2="132.06" y2="142.64"/><line class="cls-1" x1="280.14" y1="115.65" x2="281.74" y2="115.36"/><line class="cls-1" x1="132.2" y1="137.96" x2="130.33" y2="137.09"/><line class="cls-1" x1="135.24" y1="137.42" x2="132.2" y2="137.96"/><line class="cls-1" x1="133.49" y1="136.87" x2="131.6" y2="137.2"/><line class="cls-1" x1="132.63" y1="136.22" x2="129.6" y2="136.75"/><line class="cls-1" x1="129.6" y1="136.75" x2="129.07" y2="136.5"/><path class="cls-1" d="M72.27,125.41a.25.25,0,0,1,.21-.23"/><line class="cls-1" x1="72.22" y1="127.63" x2="72.27" y2="125.41"/><line class="cls-1" x1="115.76" y1="118.52" x2="223.23" y2="101.97"/><line class="cls-1" x1="72.48" y1="125.18" x2="98.44" y2="121.18"/><line class="cls-1" x1="72.26" y1="127.66" x2="79.87" y2="131.2"/><line class="cls-1" x1="108.61" y1="137.19" x2="108.45" y2="134.76"/><line class="cls-1" x1="262.74" y1="108.4" x2="272.13" y2="109.13"/><line class="cls-1" x1="108.67" y1="134.48" x2="262.68" y2="108.4"/><line class="cls-1" x1="108.66" y1="137.21" x2="117.35" y2="138.56"/><line class="cls-1" x1="89.89" y1="134.3" x2="89.73" y2="131.95"/><line class="cls-1" x1="106.71" y1="128.94" x2="242.3" y2="106.8"/><line class="cls-1" x1="89.94" y1="131.68" x2="99.98" y2="130.04"/><line class="cls-1" x1="89.93" y1="134.32" x2="98.03" y2="135.57"/><path class="cls-1" d="M229.74,78.72a.28.28,0,0,1-.09-.32"/><path class="cls-1" d="M229.65,78.63a.48.48,0,0,0,.26-.16.68.68,0,0,0,.13-.27"/><path class="cls-1" d="M229.65,78.4a.57.57,0,0,1,.18-.32c.08-.07.22-.15.33-.09"/><line class="cls-1" x1="206.79" y1="144.01" x2="207.49" y2="140.86"/><path class="cls-1" d="M210,139.78a.49.49,0,0,0-.14-.18"/><line class="cls-1" x1="55.81" y1="121.72" x2="55.83" y2="121.72"/><path class="cls-1" d="M105,119.05q6.9,39.58,13.79,79.16"/><path class="cls-1" d="M111.8,198c0,.05.07.08.1.09"/><path class="cls-1" d="M111.8,198c-.28-1.66-.57-3.32-.86-5"/><path class="cls-1" d="M110.94,193q-3.3-19-6.61-38l-6.6-38"/><line class="cls-1" x1="81.17" y1="82.42" x2="77.58" y2="108.05"/><line class="cls-1" x1="89.06" y1="80.25" x2="85.81" y2="79.58"/><line class="cls-1" x1="85.63" y1="79.57" x2="83.63" y2="79.79"/><line class="cls-1" x1="75.19" y1="106.75" x2="77.01" y2="93.62"/><path class="cls-1" d="M75.28,106.84h-.06"/><path class="cls-1" d="M75.24,106.69v.06"/><line class="cls-1" x1="108.11" y1="136.97" x2="108.59" y2="136.89"/><line class="cls-1" x1="89.87" y1="134.01" x2="88.96" y2="134.16"/><line class="cls-1" x1="108.14" y1="137.13" x2="108.66" y2="137.21"/><line class="cls-1" x1="85.63" y1="79.57" x2="232.39" y2="63.46"/><line class="cls-1" x1="234.1" y1="63.3" x2="234.1" y2="63.3"/><path class="cls-1" d="M79.59,93.72h0"/><line class="cls-1" x1="98.03" y1="135.57" x2="99.09" y2="135.73"/><path class="cls-1" d="M267.75,119.45,275.31,161"/><line class="cls-1" x1="101.36" y1="137.96" x2="92.52" y2="136.56"/><line class="cls-1" x1="279.89" y1="117.21" x2="280.03" y2="117.26"/><line class="cls-1" x1="80.91" y1="131.64" x2="80.82" y2="131.65"/><line class="cls-1" x1="207.09" y1="142.65" x2="207.36" y2="142.65"/><line class="cls-1" x1="206.8" y1="143.98" x2="209.35" y2="143.47"/><line class="cls-1" x1="242.48" y1="77.28" x2="242.3" y2="76.3"/><line class="cls-1" x1="71.29" y1="127.21" x2="72.26" y2="127.66"/><line class="cls-1" x1="228.83" y1="79.02" x2="229.06" y2="77.98"/><line class="cls-1" x1="91.53" y1="110.97" x2="91.67" y2="111.78"/><path class="cls-1" d="M213.74,99.07c.35-1.62.71-3.25,1.06-4.87"/><line class="cls-1" x1="218.84" y1="100.53" x2="220.43" y2="93.39"/><line class="cls-1" x1="88.82" y1="97.3" x2="88.55" y2="95.72"/><line class="cls-1" x1="80.86" y1="133.4" x2="80.77" y2="133.42"/><line class="cls-1" x1="239.48" y1="76.66" x2="239.66" y2="77.64"/><line class="cls-1" x1="239.44" y1="77.67" x2="239.26" y2="76.69"/><line class="cls-1" x1="58.76" y1="123.1" x2="55.83" y2="121.73"/><line class="cls-1" x1="242.52" y1="76.26" x2="242.7" y2="77.25"/><line class="cls-1" x1="244.99" y1="89.87" x2="245.18" y2="90.91"/><path class="cls-1" d="M282.15,115.24a1.48,1.48,0,0,1-.41.12"/><path class="cls-1" d="M131.85,144.48h0"/><line class="cls-1" x1="100.87" y1="135.13" x2="100.87" y2="135.13"/><line class="cls-1" x1="229.31" y1="77.94" x2="229.07" y2="78.99"/><line class="cls-1" x1="218.04" y1="93.73" x2="216.7" y2="99.84"/><path class="cls-1" d="M220.54,93.37l-1.59,7.2"/><line class="cls-1" x1="231.87" y1="78.63" x2="232.11" y2="77.59"/><path class="cls-1" d="M209.35,143.46h.08"/><line class="cls-1" x1="54.95" y1="119.91" x2="55.66" y2="119.98"/><line class="cls-1" x1="55.76" y1="119.97" x2="55.66" y2="119.98"/><line class="cls-1" x1="245.38" y1="77.13" x2="247.58" y2="89.28"/><line class="cls-1" x1="117.52" y1="138.63" x2="118.41" y2="138.47"/><line class="cls-1" x1="89" y1="136.01" x2="89.08" y2="136"/><line class="cls-1" x1="64.99" y1="124.28" x2="71.29" y2="127.21"/><path class="cls-1" d="M259.77,108.16q-1.36-7.47-2.72-14.93"/><path class="cls-1" d="M247.6,89l26.85,4.62"/><line class="cls-1" x1="56" y1="117.59" x2="59.54" y2="117.08"/><line class="cls-1" x1="202.44" y1="95.97" x2="203.96" y2="96.03"/><line class="cls-1" x1="88.88" y1="95.72" x2="89.13" y2="97.19"/><line class="cls-1" x1="93" y1="96.38" x2="92.8" y2="95.22"/><path class="cls-1" d="M79.57,93.71a.16.16,0,0,1-.06-.17"/><line class="cls-1" x1="83.53" y1="79.8" x2="83.63" y2="79.79"/><path class="cls-1" d="M77.35,92.05a.25.25,0,0,1-.09-.24"/><path class="cls-1" d="M231.36,62a1.07,1.07,0,0,1,.66.12"/><line class="cls-1" x1="77.26" y1="91.81" x2="78.8" y2="80.65"/><line class="cls-1" x1="81.23" y1="78.17" x2="231.36" y2="61.97"/><path class="cls-1" d="M78.8,80.65A3.14,3.14,0,0,1,79.61,79a2.67,2.67,0,0,1,1.62-.84"/><line class="cls-1" x1="232.02" y1="62.09" x2="234.27" y2="63.33"/><path class="cls-1" d="M81.07,82.34a3.12,3.12,0,0,1,.83-1.67,2.73,2.73,0,0,1,1.63-.87"/><path class="cls-1" d="M222.27,101.64a.22.22,0,0,1,.14.21"/><line class="cls-1" x1="222.41" y1="101.85" x2="222.39" y2="102.1"/><path class="cls-1" d="M214.18,99h-.05"/><path class="cls-1" d="M71.63,127.24a.65.65,0,0,1-.34,0"/><path class="cls-1" d="M214.13,99h0"/><line class="cls-1" x1="71.63" y1="127.24" x2="72.23" y2="127.15"/><path class="cls-1" d="M245.13,75.42a.22.22,0,0,1-.16.25"/><path class="cls-1" d="M89.91,80a2,2,0,0,1,.35-.07"/><path class="cls-1" d="M241.32,63.2a1.58,1.58,0,0,1,1.31.58,2.7,2.7,0,0,1,.63,1.33"/><line class="cls-1" x1="243.26" y1="65.11" x2="245.13" y2="75.42"/><path class="cls-1" d="M242.46,76.28h0"/><line class="cls-1" x1="243.2" y1="65.13" x2="245.07" y2="75.44"/><path class="cls-1" d="M86.29,83.34a2.71,2.71,0,0,1,.19-1.59,2,2,0,0,1,1.17-1.06"/><path class="cls-1" d="M241.3,63.2a1.55,1.55,0,0,1,1.29.6,2.75,2.75,0,0,1,.61,1.33"/><path class="cls-1" d="M91.16,96.62h0"/><path class="cls-1" d="M245.2,76.93a.23.23,0,0,1,.24.18"/><path class="cls-1" d="M93.78,111.55h-.11"/><path class="cls-1" d="M247.65,89.26a.23.23,0,0,1-.19.26"/><path class="cls-1" d="M88.9,97.26h0"/><line class="cls-1" x1="91.04" y1="110.67" x2="88.76" y2="97.53"/><path class="cls-1" d="M204,96a.2.2,0,0,1,.19.19h0"/><line class="cls-1" x1="204.15" y1="96.22" x2="204.16" y2="96.26"/><path class="cls-1" d="M48.67,117a.29.29,0,0,1,.19-.28,1.1,1.1,0,0,1,.35-.11,6,6,0,0,1,.72-.13"/><line class="cls-1" x1="48.86" y1="119.22" x2="48.67" y2="117.04"/><line class="cls-1" x1="49.93" y1="116.52" x2="59.79" y2="115.11"/><path class="cls-1" d="M55.27,119.89a1.71,1.71,0,0,1-.32,0"/><path class="cls-1" d="M49.17,119.31h-.31"/><line class="cls-1" x1="55.27" y1="119.89" x2="55.76" y2="119.82"/><path class="cls-1" d="M213.08,98.67a.22.22,0,0,1,.14.21"/><line class="cls-1" x1="213.22" y1="98.88" x2="213.2" y2="99.15"/><path class="cls-1" d="M55.8,117.82a.24.24,0,0,1,.2-.23"/><path class="cls-1" d="M205.21,96.13h-.05"/><line class="cls-1" x1="205.21" y1="96.13" x2="213.08" y2="98.67"/><path class="cls-1" d="M55.79,120h0"/><path class="cls-1" d="M205.16,96.13h0"/><line class="cls-1" x1="261.66" y1="108.5" x2="261.67" y2="108.57"/><path class="cls-1" d="M98.89,133.32a.25.25,0,0,1,.21-.27"/><path class="cls-1" d="M261.46,108.3a.2.2,0,0,1,.2.2h0"/><path class="cls-1" d="M252.35,107.58h0"/><line class="cls-1" x1="99.1" y1="133.05" x2="100.47" y2="132.82"/><path class="cls-1" d="M99.09,135.73h0"/><path class="cls-1" d="M252.32,107.59h0"/><line class="cls-1" x1="99.09" y1="135.73" x2="101.02" y2="136.03"/><line class="cls-1" x1="88.96" y1="134.16" x2="89.93" y2="134.32"/><line class="cls-1" x1="117.4" y1="140.5" x2="117.42" y2="140.49"/><path class="cls-1" d="M263.17,94.3l2.61,14.33"/><line class="cls-1" x1="88.96" y1="134.17" x2="88.96" y2="134.17"/><line class="cls-1" x1="118.73" y1="141.14" x2="117.42" y2="140.51"/><line class="cls-1" x1="120.96" y1="142.21" x2="118.73" y2="141.14"/><line class="cls-1" x1="125.95" y1="144.6" x2="120.96" y2="142.21"/><line class="cls-1" x1="117.52" y1="138.63" x2="118.44" y2="139.06"/><path class="cls-1" d="M126,144.6a5.55,5.55,0,0,0,1.84.43,7.57,7.57,0,0,0,1.9-.07"/><line class="cls-1" x1="129.69" y1="144.96" x2="131.85" y2="144.56"/><line class="cls-1" x1="117.27" y1="138.54" x2="117.4" y2="140.5"/><line class="cls-1" x1="92.52" y1="136.56" x2="89.08" y2="136.02"/><line class="cls-1" x1="117.4" y1="140.5" x2="108.48" y2="139.09"/><path class="cls-1" d="M267.78,152.24q-2.88-15.87-5.77-31.73"/><path class="cls-1" d="M257.19,93.25h0"/><path class="cls-1" d="M269.34,160.81a.94.94,0,0,0,.15.08"/><path class="cls-1" d="M269.34,160.81c-.25-1.36-.5-2.72-.74-4.07"/><path class="cls-1" d="M268.6,156.74c-.27-1.5-.55-3-.82-4.5"/><line class="cls-1" x1="269.49" y1="160.89" x2="272.18" y2="161.61"/><path class="cls-1" d="M272.18,161.61a1.34,1.34,0,0,0,.63,0"/><path class="cls-1" d="M272.81,161.63l2.39-.57"/><path class="cls-1" d="M275.2,161.06h.07"/><path class="cls-1" d="M282.32,115.05c0,.09-.1.15-.17.19"/><line class="cls-1" x1="282.32" y1="115.05" x2="282.14" y2="116.66"/><path class="cls-1" d="M281.56,117a1.89,1.89,0,0,0,.34-.09.3.3,0,0,0,.24-.23"/><line class="cls-1" x1="280.21" y1="115.64" x2="280.03" y2="117.26"/><line class="cls-1" x1="280.03" y1="117.26" x2="281.56" y2="116.98"/><path class="cls-1" d="M271.42,94.1l-25.33-4.39"/><path class="cls-1" d="M275.18,93.92a.15.15,0,0,1-.12.11l-.15.06a1.65,1.65,0,0,1-.32.06"/><line class="cls-1" x1="275.18" y1="93.92" x2="275.13" y2="95.56"/><path class="cls-1" d="M271.38,95.74a11.54,11.54,0,0,0,3.16.05"/><path class="cls-1" d="M274.59,94.15a11.61,11.61,0,0,1-3.17-.05"/><path class="cls-1" d="M274.54,95.79a1.65,1.65,0,0,0,.32-.06.44.44,0,0,0,.16-.06.11.11,0,0,0,.11-.11"/><path class="cls-1" d="M274.45,93.64a2.59,2.59,0,0,1,.4.09l.19.06s.14.07.14.13"/><line class="cls-1" x1="58.24" y1="173.28" x2="54.74" y2="173.98"/><path class="cls-1" d="M58.25,173.6h.08"/><line class="cls-1" x1="54.69" y1="174.33" x2="58.25" y2="173.62"/><line class="cls-1" x1="58.81" y1="170.01" x2="58.33" y2="173.64"/><path class="cls-1" d="M58.73,169.47l-.09-.09"/><path class="cls-1" d="M58.81,170a.73.73,0,0,0-.08-.54"/><path class="cls-1" d="M58.61,169.36a.37.37,0,0,1,.07.27"/><line class="cls-1" x1="58.61" y1="169.35" x2="58.61" y2="169.35"/><path class="cls-1" d="M52.21,173.42a.07.07,0,0,0,.07.07"/><path class="cls-1" d="M58.91,169.66c-.17,1.3-.35,2.61-.52,3.92"/><path class="cls-1" d="M59.48,165.39l-.57,4.27"/><path class="cls-1" d="M58.68,169.63a.62.62,0,0,1-.07.19"/><line class="cls-1" x1="60.92" y1="107.05" x2="60.92" y2="107.05"/><path class="cls-1" d="M52.28,173.49l2,.82"/><path class="cls-1" d="M54.27,174.31a1,1,0,0,0,.42.05"/><path class="cls-1" d="M55.48,170.11a1.37,1.37,0,0,0-.32.62"/><path class="cls-1" d="M55.48,170.11a1.43,1.43,0,0,1,.87-.57"/><line class="cls-1" x1="56.35" y1="169.54" x2="57.97" y2="169.22"/><line class="cls-1" x1="89" y1="136.01" x2="80.86" y2="133.46"/><line class="cls-1" x1="88.96" y1="134.17" x2="89" y2="136.01"/><path class="cls-1" d="M207.81,143.2l-.07-.07H207"/><path class="cls-1" d="M207.59,143.32h.12s.1,0,.1-.08"/><path class="cls-1" d="M55.08,173.49h.11"/><line class="cls-1" x1="55.16" y1="172.52" x2="56.45" y2="172.55"/><line class="cls-1" x1="56.45" y1="172.55" x2="58.24" y2="173.28"/><path class="cls-1" d="M55.18,173.12a.93.93,0,0,0-.35.13"/><path class="cls-1" d="M245.46,91.2h0"/><path class="cls-1" d="M110.92,118.72,52,102.89"/><line class="cls-1" x1="131.6" y1="137.2" x2="132.41" y2="137.58"/><line class="cls-1" x1="80.21" y1="131.23" x2="80.9" y2="131.12"/><line class="cls-1" x1="117.72" y1="138.54" x2="118.42" y2="138.42"/><path class="cls-1" d="M209.62,139.63a.53.53,0,0,1,.37.06"/><line class="cls-1" x1="232.36" y1="63.71" x2="232.36" y2="63.47"/><line class="cls-1" x1="135.14" y1="137.44" x2="135.14" y2="137.44"/><line class="cls-1" x1="133.39" y1="136.88" x2="133.39" y2="136.88"/><line class="cls-1" x1="232.39" y1="63.7" x2="232.39" y2="63.48"/><line class="cls-1" x1="132.09" y1="136.02" x2="132.1" y2="135.97"/><line class="cls-1" x1="132.96" y1="136.67" x2="132.96" y2="136.62"/><line class="cls-1" x1="134.7" y1="137.22" x2="134.7" y2="137.17"/><line class="cls-1" x1="132.41" y1="137.63" x2="132.41" y2="137.58"/><line class="cls-1" x1="131.59" y1="137.25" x2="131.6" y2="137.2"/><line class="cls-1" x1="105.18" y1="120.15" x2="107.62" y2="119.77"/><line class="cls-1" x1="210.04" y1="130.08" x2="207.78" y2="140.33"/><path class="cls-1" d="M212.51,129.63q-1.15,5.25-2.33,10.51"/><line class="cls-1" x1="132.55" y1="136.23" x2="132.09" y2="136.02"/><line class="cls-1" x1="135.16" y1="137.44" x2="134.7" y2="137.22"/><line class="cls-1" x1="133.41" y1="136.88" x2="132.96" y2="136.67"/><line class="cls-1" x1="91.32" y1="111.69" x2="91.18" y2="110.88"/><path class="cls-1" d="M80.86,129.34a.26.26,0,0,1,.21-.25"/><line class="cls-1" x1="81.07" y1="129.09" x2="99.31" y2="126.19"/><line class="cls-1" x1="79.87" y1="131.2" x2="80.82" y2="131.65"/><line class="cls-1" x1="80.82" y1="131.65" x2="80.91" y2="131.63"/><line class="cls-1" x1="77.46" y1="131.87" x2="64.77" y2="125.92"/><line class="cls-1" x1="80.77" y1="133.42" x2="77.46" y2="131.87"/><path class="cls-1" d="M115.76,118.35c0,.1-.15.18-.21.21l-.3.11a6.18,6.18,0,0,1-.62.12"/><path class="cls-1" d="M114.63,118.79a11.62,11.62,0,0,1-1.86.12,8.24,8.24,0,0,1-1.85-.19"/><line class="cls-1" x1="232.4" y1="63.48" x2="233.32" y2="63.61"/><line class="cls-1" x1="245.36" y1="91.18" x2="245.46" y2="91.2"/><line class="cls-1" x1="245.36" y1="91.52" x2="240.03" y2="90.58"/><path class="cls-1" d="M234.1,63.3h-.26"/><path class="cls-1" d="M245.46,91.52h-.1"/><path class="cls-1" d="M245.46,91.2h-.05"/><line class="cls-1" x1="244.95" y1="90.94" x2="244.76" y2="89.9"/><path class="cls-1" d="M232.39,63.46h0"/><path class="cls-1" d="M241.28,106.69a.21.21,0,0,1,.17.21"/><line class="cls-1" x1="241.45" y1="106.9" x2="241.45" y2="106.94"/><path class="cls-1" d="M232.68,105h0"/><line class="cls-1" x1="232.68" y1="104.97" x2="241.28" y2="106.69"/><path class="cls-1" d="M89.17,134.1a1,1,0,0,1-.35,0"/><path class="cls-1" d="M232.64,105h0"/><line class="cls-1" x1="89.17" y1="134.1" x2="89.87" y2="133.99"/><path class="cls-1" d="M51.69,102.69c0-.06.06-.1.09-.12l.15-.07a1.58,1.58,0,0,1,.31-.09,4.62,4.62,0,0,1,.63-.11"/><path class="cls-1" d="M51.74,104.44c0,.07.09.11.14.13l.19.07"/><line class="cls-1" x1="51.74" y1="104.44" x2="51.69" y2="102.69"/><path class="cls-1" d="M52.87,102.3a13,13,0,0,1,1.65-.1,7.45,7.45,0,0,1,1.63.16"/><path class="cls-1" d="M52,102.89l-.19-.07s-.14-.06-.14-.13"/><path class="cls-1" d="M115.27,118.05l.29.1c.06,0,.2.1.2.2"/><path class="cls-1" d="M114.66,120.75a4.26,4.26,0,0,0,.62-.13,1.45,1.45,0,0,0,.29-.11c.07,0,.22-.11.22-.21"/><path class="cls-1" d="M110.94,120.68a8.27,8.27,0,0,0,1.86.19,11.62,11.62,0,0,0,1.86-.12"/><line class="cls-1" x1="134.7" y1="137.17" x2="135.24" y2="137.42"/><path class="cls-1" d="M131.86,144.48c.08,0,.11-.12.11-.19"/><path class="cls-1" d="M118.51,136.62a.28.28,0,0,1,.22-.25"/><path class="cls-1" d="M281.73,112.29a1.7,1.7,0,0,1,.53.24.52.52,0,0,1,.29.47"/><line class="cls-1" x1="282.55" y1="113" x2="282.32" y2="115.05"/><path class="cls-1" d="M273.63,109.58h0"/><line class="cls-1" x1="273.63" y1="109.58" x2="281.73" y2="112.29"/><path class="cls-1" d="M273.52,109.57h.07"/><path class="cls-1" d="M118.44,139.06a0,0,0,0,1,0-.05"/><line class="cls-1" x1="132.06" y1="142.64" x2="131.97" y2="144.29"/><line class="cls-1" x1="279.98" y1="117.06" x2="280.14" y2="115.65"/><line class="cls-1" x1="132.41" y1="137.58" x2="134.7" y2="137.17"/><line class="cls-1" x1="132.96" y1="136.62" x2="133.49" y2="136.87"/><line class="cls-1" x1="130.33" y1="137.09" x2="132.96" y2="136.62"/><line class="cls-1" x1="132.1" y1="135.97" x2="132.63" y2="136.22"/><line class="cls-1" x1="129.07" y1="136.5" x2="132.1" y2="135.97"/><path class="cls-1" d="M231.64,104.67a.2.2,0,0,1,.14.21"/><line class="cls-1" x1="231.78" y1="104.88" x2="231.77" y2="105.1"/><path class="cls-1" d="M223.33,102h-.05"/><line class="cls-1" x1="223.33" y1="101.98" x2="231.64" y2="104.67"/><path class="cls-1" d="M80.21,131.23a.5.5,0,0,1-.34,0"/><line class="cls-1" x1="231.73" y1="104.84" x2="231.7" y2="105.11"/><path class="cls-1" d="M72.26,127.66h0"/><path class="cls-1" d="M223.28,102h-.05"/><line class="cls-1" x1="251.39" y1="107.7" x2="251.39" y2="107.74"/><line class="cls-1" x1="272.33" y1="109.34" x2="272.35" y2="109.78"/><path class="cls-1" d="M108.45,134.76a.26.26,0,0,1,.22-.28"/><path class="cls-1" d="M262.68,108.4a.06.06,0,0,1,.06,0"/><path class="cls-1" d="M272.13,109.13a.22.22,0,0,1,.2.21"/><path class="cls-1" d="M108.66,137.21h0"/><path class="cls-1" d="M117.72,138.54a1.15,1.15,0,0,1-.37,0"/><path class="cls-1" d="M89.73,132a.25.25,0,0,1,.21-.27"/><path class="cls-1" d="M242.3,106.8h0"/><path class="cls-1" d="M251.19,107.49a.22.22,0,0,1,.2.21"/><line class="cls-1" x1="242.35" y1="106.8" x2="251.19" y2="107.49"/><path class="cls-1" d="M89.93,134.32h0"/><path class="cls-1" d="M98.38,135.55H98"/><line class="cls-1" x1="98.38" y1="135.55" x2="99.03" y2="135.44"/><path class="cls-1" d="M204.08,143.31v.05h.07"/><path class="cls-1" d="M204.08,143.31l2.76-12.64"/><path class="cls-1" d="M233.3,63.61h0"/><line class="cls-1" x1="233.32" y1="63.61" x2="234.76" y2="63.8"/><path class="cls-1" d="M230.16,78a.28.28,0,0,1,.09.33"/><path class="cls-1" d="M230,78.2a.31.31,0,0,0,0-.23"/><path class="cls-1" d="M229.86,78.75a.24.24,0,0,1-.12,0"/><path class="cls-1" d="M230.25,78.32a.68.68,0,0,1-.13.27.48.48,0,0,1-.26.16"/><path class="cls-1" d="M210.18,140.14c-.24,1.11-.49,2.21-.73,3.32"/><path class="cls-1" d="M210,139.69a.49.49,0,0,1,.14.18"/><path class="cls-1" d="M210.13,140.34c-.23,1-.47,2.1-.7,3.14"/><line class="cls-1" x1="210" y1="139.77" x2="209.25" y2="143.15"/><path class="cls-1" d="M210,140a.29.29,0,0,1,0,.13v.06h0"/><line class="cls-1" x1="209.86" y1="139.6" x2="209.99" y2="139.69"/><line class="cls-1" x1="204.19" y1="143.38" x2="206.41" y2="143.98"/><path class="cls-1" d="M206.41,144a1.21,1.21,0,0,0,.38,0"/><path class="cls-1" d="M209.43,143.48h0"/><path class="cls-1" d="M210,139.78a.25.25,0,0,1,0,.17"/><path class="cls-1" d="M210.13,140.34a.76.76,0,0,0,0-.47"/><line class="cls-1" x1="208.45" y1="139.86" x2="209.62" y2="139.63"/><line class="cls-1" x1="210.13" y1="139.87" x2="212.4" y2="129.65"/><path class="cls-1" d="M207.78,140.33a1.2,1.2,0,0,0-.29.53"/><path class="cls-1" d="M208.45,139.86a1.19,1.19,0,0,0-.67.47"/><line class="cls-1" x1="55.66" y1="119.98" x2="55.81" y2="121.72"/><path class="cls-1" d="M49,120.94h.31"/><line class="cls-1" x1="49" y1="120.94" x2="48.86" y2="119.22"/><line class="cls-1" x1="53.06" y1="121.43" x2="49.31" y2="121.04"/><line class="cls-1" x1="54.79" y1="121.62" x2="53.06" y2="121.43"/><line class="cls-1" x1="55.81" y1="121.72" x2="54.79" y2="121.62"/><line class="cls-1" x1="132.09" y1="136.02" x2="129.15" y2="136.54"/><line class="cls-1" x1="132.41" y1="137.63" x2="131.59" y2="137.25"/><line class="cls-1" x1="134.7" y1="137.22" x2="132.41" y2="137.63"/><line class="cls-1" x1="132.96" y1="136.67" x2="130.4" y2="137.12"/><path class="cls-1" d="M114.41,199.13a1.33,1.33,0,0,0,.74,0"/><path class="cls-1" d="M115.15,199.16l3.42-.81"/><path class="cls-1" d="M118.57,198.35h.13s.09,0,.08-.09"/><path class="cls-1" d="M111.9,198.1l2.51,1"/><path class="cls-1" d="M83.63,79.79a2.74,2.74,0,0,0-1.65.92,3.32,3.32,0,0,0-.81,1.71"/><path class="cls-1" d="M85.81,79.58h-.18"/><path class="cls-1" d="M75.19,106.75h0"/><path class="cls-1" d="M75.22,106.79h0"/><path class="cls-1" d="M77,93.62a.23.23,0,0,1,.21-.21"/><line class="cls-1" x1="77.22" y1="93.41" x2="78.9" y2="93.21"/><path class="cls-1" d="M75.28,106.84a1.82,1.82,0,0,0,.3.11"/><line class="cls-1" x1="75.58" y1="106.95" x2="77.56" y2="107.47"/><path class="cls-1" d="M75.27,106.82h0"/><line class="cls-1" x1="77.56" y1="107.47" x2="77.67" y2="107.46"/><line class="cls-1" x1="77.56" y1="107.47" x2="79.25" y2="95.35"/><path class="cls-1" d="M79.25,95.35a.34.34,0,0,1,.14-.21"/><path class="cls-1" d="M75.19,106.76h0"/><line class="cls-1" x1="66.07" y1="116.14" x2="84.53" y2="113.48"/><line class="cls-1" x1="93.31" y1="112.22" x2="205.12" y2="96.12"/><line class="cls-1" x1="65.4" y1="121.15" x2="95.98" y2="116.6"/><line class="cls-1" x1="104.84" y1="115.28" x2="214.08" y2="99.02"/><line class="cls-1" x1="88.73" y1="111" x2="91.04" y2="110.67"/><line class="cls-1" x1="66.34" y1="114.18" x2="79.99" y2="112.24"/><line class="cls-1" x1="244.97" y1="75.67" x2="242.46" y2="76.28"/><line class="cls-1" x1="245.44" y1="77.11" x2="247.65" y2="89.26"/><line class="cls-1" x1="252.35" y1="107.58" x2="261.46" y2="108.3"/><line class="cls-1" x1="117.42" y1="140.51" x2="117.52" y2="138.63"/><line class="cls-1" x1="131.85" y1="144.56" x2="131.96" y2="142.66"/><line class="cls-1" x1="89.08" y1="136.02" x2="88.96" y2="134.16"/><path class="cls-1" d="M52.21,173.42,60.85,107"/><path class="cls-1" d="M67.28,107.11q-.44,3.4-.91,6.81c-.32,2.27-.6,4.54-.91,6.81l-.92,6.81c-.3,2.27-.59,4.53-.91,6.8L61.81,148c-.3,2.27-.6,4.54-.92,6.81s-.59,4.54-.91,6.81"/><path class="cls-1" d="M58.33,173.64a.09.09,0,0,0,.06-.06"/><path class="cls-1" d="M54.69,174.36c.15-1.21.31-2.42.47-3.63"/><line class="cls-1" x1="209.35" y1="143.47" x2="209.35" y2="143.18"/><path class="cls-1" d="M207,143.32h.47"/><path class="cls-1" d="M56.13,173.44a3,3,0,0,0-.94,0"/><line class="cls-1" x1="58.25" y1="173.62" x2="58.24" y2="173.28"/><line class="cls-1" x1="55.83" y1="121.73" x2="55.86" y2="120.03"/><path class="cls-1" d="M246.06,91.29c0,.06-.08.1-.11.11l-.16.06-.33.06"/><path class="cls-1" d="M52.07,104.64l58.87,16"/><path class="cls-1" d="M56.15,102.36l59.12,15.69"/><line class="cls-1" x1="279.85" y1="117.23" x2="131.86" y2="144.48"/><line class="cls-1" x1="206.79" y1="144.01" x2="207.49" y2="140.86"/><line class="cls-1" x1="55.81" y1="121.72" x2="55.83" y2="121.72"/><path class="cls-1" d="M111.8,198c0,.05.07.08.1.09"/><path class="cls-1" d="M111.8,198c-.28-1.66-.57-3.32-.86-5"/><path class="cls-1" d="M110.94,193q-3.3-19-6.61-37.91l-6.6-37.9"/><line class="cls-1" x1="75.19" y1="106.75" x2="77.01" y2="93.62"/><path class="cls-1" d="M75.28,106.84h-.06"/><path class="cls-1" d="M267.75,119.45,275.31,161"/><line class="cls-1" x1="101.36" y1="137.96" x2="92.52" y2="136.56"/><line class="cls-1" x1="279.89" y1="117.21" x2="280.03" y2="117.26"/><line class="cls-1" x1="206.8" y1="143.98" x2="209.35" y2="143.47"/><path class="cls-1" d="M213.74,99.07c.35-1.62.71-3.25,1.06-4.87"/><line class="cls-1" x1="80.86" y1="133.4" x2="80.77" y2="133.42"/><line class="cls-1" x1="58.76" y1="123.1" x2="55.83" y2="121.73"/><line class="cls-1" x1="242.52" y1="76.26" x2="242.7" y2="77.25"/><path class="cls-1" d="M131.85,144.48h0"/><path class="cls-1" d="M220.54,93.37l-1.59,7.2"/><path class="cls-1" d="M209.35,143.46h.08"/><line class="cls-1" x1="89" y1="136.01" x2="89.08" y2="136"/><path class="cls-1" d="M259.77,108.16q-1.36-7.47-2.72-14.93"/><path class="cls-1" d="M247.6,89l26.85,4.62"/><line class="cls-1" x1="202.44" y1="95.97" x2="203.96" y2="96.03"/><path class="cls-1" d="M77.35,92.05a.25.25,0,0,1-.09-.24"/><path class="cls-1" d="M231.36,62a1.07,1.07,0,0,1,.66.12"/><line class="cls-1" x1="77.26" y1="91.81" x2="78.8" y2="80.65"/><line class="cls-1" x1="81.23" y1="78.17" x2="231.36" y2="61.97"/><path class="cls-1" d="M78.8,80.65A3.14,3.14,0,0,1,79.61,79a2.67,2.67,0,0,1,1.62-.84"/><line class="cls-1" x1="232.02" y1="62.09" x2="234.27" y2="63.33"/><path class="cls-1" d="M222.27,101.64a.22.22,0,0,1,.14.21"/><line class="cls-1" x1="222.41" y1="101.85" x2="222.39" y2="102.1"/><path class="cls-1" d="M245.13,75.42a.22.22,0,0,1-.16.25"/><path class="cls-1" d="M241.32,63.2a1.58,1.58,0,0,1,1.31.58,2.7,2.7,0,0,1,.63,1.33"/><line class="cls-1" x1="243.26" y1="65.11" x2="245.13" y2="75.42"/><path class="cls-1" d="M245.2,76.93a.23.23,0,0,1,.24.18"/><path class="cls-1" d="M204,96a.2.2,0,0,1,.19.19h0"/><line class="cls-1" x1="204.15" y1="96.22" x2="204.16" y2="96.26"/><path class="cls-1" d="M48.67,117a.29.29,0,0,1,.19-.28,1.1,1.1,0,0,1,.35-.11,6,6,0,0,1,.72-.13"/><line class="cls-1" x1="48.86" y1="119.22" x2="48.67" y2="117.04"/><line class="cls-1" x1="49.93" y1="116.52" x2="59.79" y2="115.11"/><path class="cls-1" d="M213.08,98.67a.22.22,0,0,1,.14.21"/><line class="cls-1" x1="213.22" y1="98.88" x2="213.2" y2="99.15"/><path class="cls-1" d="M75.19,106.76h0"/><line class="cls-1" x1="77.56" y1="107.47" x2="77.67" y2="107.46"/><path class="cls-1" d="M75.27,106.82h0"/><line class="cls-1" x1="75.58" y1="106.95" x2="77.56" y2="107.47"/><path class="cls-1" d="M75.28,106.84a1.82,1.82,0,0,0,.3.11"/><line class="cls-1" x1="77.22" y1="93.41" x2="78.9" y2="93.21"/><path class="cls-1" d="M77,93.62a.23.23,0,0,1,.21-.21"/><path class="cls-1" d="M75.22,106.79h0"/><path class="cls-1" d="M75.19,106.75h0"/><path class="cls-1" d="M111.9,198.1l2.51,1"/><path class="cls-1" d="M118.57,198.35h.13s.09,0,.08-.09"/><path class="cls-1" d="M115.15,199.16l3.42-.81"/><path class="cls-1" d="M114.41,199.13a1.33,1.33,0,0,0,.74,0"/><line class="cls-1" x1="55.81" y1="121.72" x2="54.79" y2="121.62"/><line class="cls-1" x1="54.79" y1="121.62" x2="53.06" y2="121.43"/><line class="cls-1" x1="53.06" y1="121.43" x2="49.31" y2="121.04"/><line class="cls-1" x1="49" y1="120.94" x2="48.86" y2="119.22"/><path class="cls-1" d="M49,120.94h.31"/><path class="cls-1" d="M209.43,143.48h0"/><path class="cls-1" d="M206.41,144a1.21,1.21,0,0,0,.38,0"/><line class="cls-1" x1="204.19" y1="143.38" x2="206.41" y2="143.98"/><path class="cls-1" d="M210.18,140.14c-.24,1.11-.49,2.21-.73,3.32"/><path class="cls-1" d="M204.08,143.31l2.76-12.64"/><path class="cls-1" d="M204.08,143.31v.05h.07"/><line class="cls-1" x1="242.35" y1="106.8" x2="251.19" y2="107.49"/><path class="cls-1" d="M251.19,107.49a.22.22,0,0,1,.2.21"/><path class="cls-1" d="M242.3,106.8h0"/><path class="cls-1" d="M272.13,109.13a.22.22,0,0,1,.2.21"/><line class="cls-1" x1="272.33" y1="109.34" x2="272.35" y2="109.78"/><line class="cls-1" x1="251.39" y1="107.7" x2="251.39" y2="107.74"/><path class="cls-1" d="M223.28,102h-.05"/><line class="cls-1" x1="223.33" y1="101.98" x2="231.64" y2="104.67"/><path class="cls-1" d="M223.33,102h-.05"/><line class="cls-1" x1="231.78" y1="104.88" x2="231.77" y2="105.1"/><path class="cls-1" d="M231.64,104.67a.2.2,0,0,1,.14.21"/><path class="cls-1" d="M273.52,109.57h.07"/><line class="cls-1" x1="273.63" y1="109.58" x2="281.73" y2="112.29"/><path class="cls-1" d="M273.63,109.58h0"/><line class="cls-1" x1="282.55" y1="113" x2="282.32" y2="115.05"/><path class="cls-1" d="M281.73,112.29a1.7,1.7,0,0,1,.53.24.52.52,0,0,1,.29.47"/><path class="cls-1" d="M52.87,102.3a13,13,0,0,1,1.65-.1,7.45,7.45,0,0,1,1.63.16"/><line class="cls-1" x1="51.74" y1="104.44" x2="51.69" y2="102.69"/><path class="cls-1" d="M51.74,104.44c0,.07.09.11.14.13l.19.07"/><path class="cls-1" d="M51.69,102.69c0-.06.06-.1.09-.12l.15-.07a1.58,1.58,0,0,1,.31-.09,4.62,4.62,0,0,1,.63-.11"/><path class="cls-1" d="M232.64,105h0"/><line class="cls-1" x1="232.68" y1="104.97" x2="241.28" y2="106.69"/><path class="cls-1" d="M232.68,105h0"/><line class="cls-1" x1="241.45" y1="106.9" x2="241.45" y2="106.94"/><path class="cls-1" d="M241.28,106.69a.21.21,0,0,1,.17.21"/><path class="cls-1" d="M245.46,91.52h-.1"/><line class="cls-1" x1="245.36" y1="91.52" x2="240.03" y2="90.58"/><line class="cls-1" x1="80.77" y1="133.42" x2="77.46" y2="131.87"/><line class="cls-1" x1="77.46" y1="131.87" x2="64.77" y2="125.92"/><path class="cls-1" d="M212.51,129.63q-1.15,5.25-2.33,10.51"/><path class="cls-1" d="M55.08,173.49h.11"/><line class="cls-1" x1="89" y1="136.01" x2="80.86" y2="133.46"/><path class="cls-1" d="M54.27,174.31a1,1,0,0,0,.42.05"/><path class="cls-1" d="M52.28,173.49l2,.82"/><path class="cls-1" d="M59.48,165.39l-.57,4.27"/><path class="cls-1" d="M58.91,169.66c-.17,1.3-.35,2.61-.52,3.92"/><path class="cls-1" d="M52.21,173.42a.07.07,0,0,0,.07.07"/><line class="cls-1" x1="54.69" y1="174.33" x2="58.25" y2="173.62"/><path class="cls-1" d="M58.25,173.6h.08"/><path class="cls-1" d="M274.45,93.64a2.59,2.59,0,0,1,.4.09l.19.06s.14.07.14.13"/><path class="cls-1" d="M274.54,95.79a1.65,1.65,0,0,0,.32-.06.44.44,0,0,0,.16-.06.11.11,0,0,0,.11-.11"/><path class="cls-1" d="M271.38,95.74a11.54,11.54,0,0,0,3.16.05"/><line class="cls-1" x1="275.18" y1="93.92" x2="275.13" y2="95.56"/><line class="cls-1" x1="280.03" y1="117.26" x2="281.56" y2="116.98"/><path class="cls-1" d="M281.56,117a1.89,1.89,0,0,0,.34-.09.3.3,0,0,0,.24-.23"/><line class="cls-1" x1="282.32" y1="115.05" x2="282.14" y2="116.66"/><path class="cls-1" d="M275.2,161.06h.07"/><path class="cls-1" d="M272.81,161.63l2.39-.57"/><path class="cls-1" d="M272.18,161.61a1.34,1.34,0,0,0,.63,0"/><line class="cls-1" x1="269.49" y1="160.89" x2="272.18" y2="161.61"/><path class="cls-1" d="M268.6,156.74c-.27-1.5-.55-3-.82-4.5"/><path class="cls-1" d="M269.34,160.81c-.25-1.36-.5-2.72-.74-4.07"/><path class="cls-1" d="M269.34,160.81a.94.94,0,0,0,.15.08"/><path class="cls-1" d="M267.78,152.24q-2.88-15.87-5.77-31.73"/><line class="cls-1" x1="117.4" y1="140.5" x2="108.48" y2="139.09"/><line class="cls-1" x1="92.52" y1="136.56" x2="89.08" y2="136.02"/><line class="cls-1" x1="129.69" y1="144.96" x2="131.85" y2="144.56"/><path class="cls-1" d="M126,144.6a5.55,5.55,0,0,0,1.84.43,7.57,7.57,0,0,0,1.9-.07"/><line class="cls-1" x1="125.95" y1="144.6" x2="120.96" y2="142.21"/><line class="cls-1" x1="120.96" y1="142.21" x2="118.73" y2="141.14"/><line class="cls-1" x1="118.73" y1="141.14" x2="117.42" y2="140.51"/><path class="cls-1" d="M263.17,94.3l2.61,14.33"/><line class="cls-1" x1="117.4" y1="140.5" x2="117.42" y2="140.49"/><path class="cls-1" d="M252.32,107.59h0"/><path class="cls-1" d="M252.35,107.58h0"/><path class="cls-1" d="M205.16,96.13h0"/><line class="cls-1" x1="205.21" y1="96.13" x2="213.08" y2="98.67"/><path class="cls-1" d="M205.21,96.13h-.05"/><line class="cls-1" x1="118.79" y1="136.38" x2="126.41" y2="139.98"/><line class="cls-1" x1="129.79" y1="140.3" x2="281.82" y2="113.04"/><line class="cls-1" x1="81.1" y1="129.1" x2="88.98" y2="131.49"/><line class="cls-1" x1="107.14" y1="131.39" x2="251.16" y2="107.49"/><line class="cls-1" x1="98.22" y1="133.16" x2="98.38" y2="135.55"/><line class="cls-1" x1="107.65" y1="134.28" x2="261.43" y2="108.3"/><line class="cls-1" x1="117.39" y1="135.78" x2="272.1" y2="109.13"/><path class="cls-1" d="M71.55,124.74a.19.19,0,0,1,.1.13.43.43,0,0,1,0,.16"/><line class="cls-1" x1="115.24" y1="118.04" x2="222.22" y2="101.64"/><line class="cls-1" x1="71.68" y1="125.03" x2="71.63" y2="127.24"/><path class="cls-1" d="M80.14,128.69a.32.32,0,0,1,.1.13.49.49,0,0,1,0,.17"/><line class="cls-1" x1="105.96" y1="124.6" x2="231.59" y2="104.66"/><line class="cls-1" x1="80.27" y1="128.99" x2="80.21" y2="131.23"/><path class="cls-1" d="M49.94,116.52a2.09,2.09,0,0,0-.69.12,1.28,1.28,0,0,0-.33.11c-.08,0,0,.09.07.1h.18"/><line class="cls-1" x1="55.09" y1="117.68" x2="55.27" y2="119.89"/><line class="cls-1" x1="106.66" y1="128.61" x2="241.24" y2="106.68"/><line class="cls-1" x1="65.31" y1="121.86" x2="71.55" y2="124.74"/><line class="cls-1" x1="65.49" y1="120.54" x2="94.61" y2="116.23"/><line class="cls-1" x1="103.45" y1="114.91" x2="213.03" y2="98.67"/><line class="cls-1" x1="66.12" y1="115.83" x2="83.83" y2="113.29"/><path class="cls-1" d="M126.41,140a5.34,5.34,0,0,0,1.67.38,7,7,0,0,0,1.71-.06"/><line class="cls-1" x1="89.12" y1="131.78" x2="89.17" y2="134.1"/><line class="cls-1" x1="88.98" y1="131.49" x2="99.92" y2="129.71"/><path class="cls-1" d="M89,131.49a.24.24,0,0,1,.11.13.43.43,0,0,1,0,.16"/><line class="cls-1" x1="117.56" y1="136.07" x2="117.72" y2="138.54"/><line class="cls-1" x1="108.69" y1="134.48" x2="117.39" y2="135.78"/><line class="cls-1" x1="89.97" y1="131.68" x2="98.06" y2="132.89"/><line class="cls-1" x1="98.06" y1="132.89" x2="100.41" y2="132.5"/><path class="cls-1" d="M98.06,132.89a.22.22,0,0,1,.12.11.43.43,0,0,1,0,.16"/><line class="cls-1" x1="99.13" y1="133.05" x2="100.54" y2="133.26"/><path class="cls-1" d="M117.39,135.78a.2.2,0,0,1,.13.12.49.49,0,0,1,0,.17"/><line class="cls-1" x1="72.52" y1="125.19" x2="80.14" y2="128.69"/><line class="cls-1" x1="105.09" y1="119.6" x2="106.3" y2="119.41"/><line class="cls-1" x1="71.55" y1="124.74" x2="98.34" y2="120.63"/><line class="cls-1" x1="80.14" y1="128.69" x2="99.22" y2="125.67"/><line class="cls-1" x1="56.04" y1="117.6" x2="59.28" y2="119.09"/><line class="cls-1" x1="54.95" y1="117.44" x2="59.58" y2="116.77"/><line class="cls-1" x1="49.17" y1="116.88" x2="54.95" y2="117.44"/><path class="cls-1" d="M55,117.44a.45.45,0,0,1,.1.1.33.33,0,0,1,0,.14"/><line class="cls-1" x1="90.93" y1="95.11" x2="88.67" y2="95.74"/><line class="cls-1" x1="91.02" y1="94.82" x2="245.07" y2="75.42"/><line class="cls-1" x1="88.89" y1="82.58" x2="91.02" y2="94.82"/><line class="cls-1" x1="91.36" y1="96.82" x2="93.87" y2="111.26"/><path class="cls-1" d="M91,94.82A.54.54,0,0,1,91,95s0,.12-.09.13"/><path class="cls-1" d="M93.87,111.26a.49.49,0,0,1,0,.17s0,.11-.09.12"/><path class="cls-1" d="M91.2,96.61a.11.11,0,0,1,.11.08.29.29,0,0,1,0,.13"/><path class="cls-1" d="M90.26,79.91A1.81,1.81,0,0,0,89.08,81a2.79,2.79,0,0,0-.19,1.61"/><line class="cls-1" x1="278.24" y1="161.77" x2="326.04" y2="177.66"/><line class="cls-1" x1="154.81" y1="215.99" x2="322.03" y2="176.34"/><line class="cls-1" x1="118.27" y1="200.92" x2="160.02" y2="218.2"/><line class="cls-1" x1="21.46" y1="62.2" x2="21.46" y2="160.84"/><line class="cls-1" x1="17.54" y1="159.32" x2="49.7" y2="172.58"/><line class="cls-1" x1="78.57" y1="77.36" x2="17.31" y2="61.08"/><line class="cls-1" x1="198.26" y1="63.81" x2="198.26" y2="14.08"/><line class="cls-1" x1="198.26" y1="18.32" x2="282.64" y2="32.84"/><line class="cls-1" x1="282.64" y1="110.19" x2="282.64" y2="27.95"/><polyline class="cls-2" points="21.45 62.24 22.85 67.79 20.08 67.8 21.45 62.24"/><polyline class="cls-2" points="21.48 160.95 20.08 155.4 22.85 155.4 21.48 160.95"/><polyline class="cls-2" points="198.3 18.32 204 17.88 203.54 20.61 198.3 18.32"/><polyline class="cls-2" points="282.64 32.87 276.94 33.25 277.43 30.52 282.64 32.87"/><polyline class="cls-2" points="154.81 216 159.89 213.36 160.53 216.06 154.81 216"/><polyline class="cls-2" points="322.01 176.35 316.94 178.99 316.29 176.29 322.01 176.35"/><path class="cls-3" d="M232.12,33.53l.26-1.52-3.27-.56.13-.73,3.83-3.42.93.16-.68,4,.89.15-.12.73-.9-.16-.26,1.52Zm-2-2.66,2.4.42.52-3.05Z"/><path class="cls-3" d="M237.54,30.18a2.17,2.17,0,0,1,1.47.87,2.08,2.08,0,0,1,.36,1.62,2,2,0,0,1-.9,1.41,2.27,2.27,0,0,1-1.72.32,2.08,2.08,0,0,1-1.54-1.06,3.28,3.28,0,0,1-.28-2.18,4,4,0,0,1,1.24-2.45A2.86,2.86,0,0,1,240,29l-.52.56a2,2,0,0,0-2.81-.31h0a2.49,2.49,0,0,0-.91,1.56,1.66,1.66,0,0,1,.77-.56A1.87,1.87,0,0,1,237.54,30.18Zm-1.61,2.92a1.4,1.4,0,0,0,.95.57,1.33,1.33,0,0,0,1.09-.22,1.41,1.41,0,0,0,.58-1,1.28,1.28,0,0,0-.23-1.07,1.52,1.52,0,0,0-2-.36,1.61,1.61,0,0,0-.39,2.08Z"/><path class="cls-3" d="M240.1,34l.87.16-.16.92-.86-.15Z"/><path class="cls-3" d="M242.21,35.27l.89-5.2a2.89,2.89,0,0,1-1.59.44l.12-.72a2.76,2.76,0,0,0,1.77-.71l.64.11-1,6.21Z"/><path class="cls-3" d="M246.48,29.54l-.78,1.67-1-.17,1.3-1.59Zm1.31.22L247,31.44l-1-.17,1.24-1.6Z"/><path class="cls-3" d="M233.42,21.56l.9-5.2a3.07,3.07,0,0,1-1.59.44l.12-.72a2.84,2.84,0,0,0,1.77-.71l.63.11-1.07,6.21Z"/><path class="cls-3" d="M236.5,22.09l.89-5.2a2.89,2.89,0,0,1-1.59.44l.13-.72a2.87,2.87,0,0,0,1.76-.71l.64.11-1.07,6.21Z"/><path class="cls-3" d="M238.91,22.5a11.45,11.45,0,0,1,3.71-5l-3.49-.61.12-.71,4.32.74-.12.72c-2.1,1.91-3.33,3.59-3.71,5Z"/><path class="cls-3" d="M245.25,23.66a2,2,0,0,1-1.61-1.15,3.9,3.9,0,0,1-.22-2.43,3.91,3.91,0,0,1,1-2.21,2.25,2.25,0,0,1,3.18.14,2.21,2.21,0,0,1,.33.47,3.87,3.87,0,0,1,.22,2.42,3.91,3.91,0,0,1-1,2.21A2.08,2.08,0,0,1,245.25,23.66Zm.13-.72a1.3,1.3,0,0,0,1.25-.46,3.53,3.53,0,0,0,.71-1.73,3.46,3.46,0,0,0-.09-1.86,1.31,1.31,0,0,0-1-.86,1.33,1.33,0,0,0-1.27.46,3.43,3.43,0,0,0-.7,1.73,3.27,3.27,0,0,0,.09,1.86A1.29,1.29,0,0,0,245.38,22.94Z"/><path class="cls-3" d="M30.66,121.12a2.37,2.37,0,0,1-.5,1.54,2,2,0,0,1-1.32.71l-.12-.78a1.27,1.27,0,0,0,.88-.47,1.57,1.57,0,0,0,.32-1,1.5,1.5,0,0,0-.36-1.05,1.25,1.25,0,0,0-.95-.4,1.28,1.28,0,0,0-1,.37,1.47,1.47,0,0,0-.34,1,1.32,1.32,0,0,0,.2.69l-.52.35-2-2v3h-.73v-4H25L26.74,121a1.93,1.93,0,0,1,.44-1.53,1.83,1.83,0,0,1,1.44-.59,1.89,1.89,0,0,1,1.48.62A2.39,2.39,0,0,1,30.66,121.12Z"/><path class="cls-3" d="M30.59,114.94H29.05v3.32h-.74l-4-3.19v-.95h4v-.91h.74v.91h1.54Zm-2.28,2.44v-2.44H25.22Z"/><path class="cls-3" d="M29.65,112.5v-.88h.94v.88Z"/><path class="cls-3" d="M30.59,107.85H29.05v3.32h-.74l-4-3.2v-1h4v-.91h.74V107h1.54Zm-2.28,2.44v-2.44H25.22Z"/><path class="cls-3" d="M24.21,102.73l1.79.48v1l-1.79-1Zm0,1.33,1.79.49v1l-1.79-1Z"/><path class="cls-3" d="M18.64,117.7a2.55,2.55,0,0,1-.52,1.64,1.69,1.69,0,0,1-1.37.62,1.63,1.63,0,0,1-1-.32,1.66,1.66,0,0,1-.6-.87,1.66,1.66,0,0,1-.55.68,1.31,1.31,0,0,1-.77.25,1.51,1.51,0,0,1-1.2-.54,2.2,2.2,0,0,1-.46-1.46,2.09,2.09,0,0,1,.46-1.42,1.51,1.51,0,0,1,1.2-.54,1.37,1.37,0,0,1,.78.25,1.56,1.56,0,0,1,.54.68,1.66,1.66,0,0,1,.6-.87,1.63,1.63,0,0,1,1-.32,1.68,1.68,0,0,1,1.37.62A2.42,2.42,0,0,1,18.64,117.7Zm-3.78,0a1.28,1.28,0,0,0-.27-.84.93.93,0,0,0-.72-.32.91.91,0,0,0-.72.31,1.24,1.24,0,0,0-.27.85,1.32,1.32,0,0,0,.27.88.9.9,0,0,0,.72.32,1,1,0,0,0,.72-.33A1.31,1.31,0,0,0,14.86,117.7Zm3.06,0a1.5,1.5,0,0,0-.32-1,1.15,1.15,0,0,0-1.62-.09l-.09.09a1.5,1.5,0,0,0-.32,1,1.57,1.57,0,0,0,.32,1,1.15,1.15,0,0,0,1.62.09l.09-.09a1.53,1.53,0,0,0,.32-1Z"/><path class="cls-3" d="M18.56,114.39a11.66,11.66,0,0,1-5.57-2.8v3.54h-.73v-4.38H13c2.25,1.74,4.1,2.67,5.57,2.8Z"/><path class="cls-3" d="M18.56,107.91H17v3.32h-.73l-4-3.19v-1h4v-.91H17V107h1.54Zm-2.27,2.44v-2.44H13.2Z"/><path class="cls-3" d="M230,207.45a11.58,11.58,0,0,1,1.43-6.07l-3.44.82-.17-.7,4.26-1,.17.71c-1.17,2.58-1.65,4.61-1.44,6.07Z"/><path class="cls-3" d="M236.24,206a2.1,2.1,0,0,1-1.94-.43,4.78,4.78,0,0,1-1.09-4.58,2.29,2.29,0,0,1,3-1.11,2.6,2.6,0,0,1,.45.28,4,4,0,0,1,1.15,2.14,4,4,0,0,1-.06,2.43A2.08,2.08,0,0,1,236.24,206Zm-.17-.72a1.29,1.29,0,0,0,1-.92,3.27,3.27,0,0,0,0-1.86,3.45,3.45,0,0,0-.82-1.68,1.36,1.36,0,0,0-2.28.54,3.49,3.49,0,0,0,0,1.87,3.41,3.41,0,0,0,.82,1.67,1.29,1.29,0,0,0,1.28.41Z"/><path class="cls-3" d="M239.31,204.26l.86-.2.22.91-.86.2Z"/><path class="cls-3" d="M243,202.2a2.2,2.2,0,0,1-1.7-.22,2,2,0,0,1-1-1.35,2,2,0,0,1,.27-1.65,2.31,2.31,0,0,1,1.45-1,2.13,2.13,0,0,1,1.84.37,3.23,3.23,0,0,1,1.11,1.89,3.87,3.87,0,0,1-.18,2.74,2.64,2.64,0,0,1-1.83,1.4,2.75,2.75,0,0,1-1.81-.16l.26-.72a2.05,2.05,0,0,0,2.71-.84,2.48,2.48,0,0,0,.21-1.79,1.56,1.56,0,0,1-.48.82A1.91,1.91,0,0,1,243,202.2Zm.33-3.32a1.51,1.51,0,0,0-2,.48,1.44,1.44,0,0,0-.16,1.11,1.36,1.36,0,0,0,.64.89,1.37,1.37,0,0,0,1.1.15,1.43,1.43,0,0,0,.92-.63,1.39,1.39,0,0,0,.16-1.09,1.35,1.35,0,0,0-.63-.91Z"/><path class="cls-3" d="M246.49,197l-.06,1.85-1,.22.51-1.95Zm1.29-.31-.05,1.85-1,.23.52-2Z"/><path class="cls-3" d="M228.74,195.38l-1.23-5.13a2.83,2.83,0,0,1-1.29,1l-.17-.71a2.79,2.79,0,0,0,1.35-1.34l.63-.15,1.46,6.12Z"/><path class="cls-3" d="M232.68,194.52a2.52,2.52,0,0,1-1.71-.12,1.68,1.68,0,0,1-.93-1.19,1.64,1.64,0,0,1,.79-1.81,1.63,1.63,0,0,1-.78-.38,1.36,1.36,0,0,1-.43-.69,1.54,1.54,0,0,1,.25-1.3,2.2,2.2,0,0,1,1.31-.78,2.08,2.08,0,0,1,1.49.12,1.47,1.47,0,0,1,.8,1,1.25,1.25,0,0,1-.06.81,1.57,1.57,0,0,1-.53.69,1.64,1.64,0,0,1,1.52,1.26,1.68,1.68,0,0,1-.28,1.47A2.4,2.4,0,0,1,232.68,194.52Zm-.88-3.67a1.19,1.19,0,0,0,.75-.46,1,1,0,0,0,.15-.77.87.87,0,0,0-.47-.63,1.25,1.25,0,0,0-.89-.06,1.31,1.31,0,0,0-.79.46.87.87,0,0,0-.14.78.91.91,0,0,0,.49.62,1.39,1.39,0,0,0,.9.06Zm.7,3a1.55,1.55,0,0,0,.92-.55,1,1,0,0,0,.17-.92,1,1,0,0,0-.57-.75,1.78,1.78,0,0,0-2,.48,1.14,1.14,0,0,0,.26,1.58l.14.08a1.54,1.54,0,0,0,1.08.06Z"/><path class="cls-3" d="M237.88,193.28a2.1,2.1,0,0,1-1.94-.43,4.75,4.75,0,0,1-1.1-4.58,2.27,2.27,0,0,1,3-1.11,2.47,2.47,0,0,1,.47.29,3.92,3.92,0,0,1,1.15,2.14,4,4,0,0,1-.06,2.43A2.11,2.11,0,0,1,237.88,193.28Zm-.18-.72a1.29,1.29,0,0,0,1-.92,3.27,3.27,0,0,0,0-1.86,3.45,3.45,0,0,0-.82-1.68,1.35,1.35,0,0,0-1.91,0,1.4,1.4,0,0,0-.35.57,3.49,3.49,0,0,0,0,1.87,3.4,3.4,0,0,0,.81,1.67,1.29,1.29,0,0,0,1.27.38Z"/><path class="cls-3" d="M243.28,192a2,2,0,0,1-1.94-.43,4,4,0,0,1-1.16-2.14,3.91,3.91,0,0,1,.07-2.44,2.24,2.24,0,0,1,3-1.12,2.48,2.48,0,0,1,.49.3,4,4,0,0,1,1.16,2.14,4,4,0,0,1-.07,2.43A2.11,2.11,0,0,1,243.28,192Zm-.17-.72a1.29,1.29,0,0,0,1-.91,3.49,3.49,0,0,0,0-1.87,3.58,3.58,0,0,0-.82-1.68,1.35,1.35,0,0,0-1.91,0,1.4,1.4,0,0,0-.35.57,3.49,3.49,0,0,0,0,1.87,3.66,3.66,0,0,0,.81,1.68,1.3,1.3,0,0,0,1.27.36Z"/><path class="cls-1" d="M100.7,118.05q7,40.52,14.08,81.05"/><path class="cls-1" d="M264.82,120.1l7.56,41.55"/><path class="cls-1" d="M264.82,120.1l7.56,41.55"/><path class="cls-1" d="M260.26,93.8l2.66,14.5"/></svg>