<svg vector-effect="non-scaling-stroke" id="Vrstva_1" data-name="Vrstva 1" xmlns="http://www.w3.org/2000/svg" viewBox="0 0 311.81 226.77">
  <defs>
    <style>
      .cls-1 {
        fill: none;
        stroke: #cfe0fa;
        stroke-linecap: round;
        stroke-linejoin: round;
      }

      .cls-1, .cls-2 {
        stroke-width: 0.25px;
      }

      .cls-2 {
        fill: #010202;
        stroke: #010202;
        stroke-miterlimit: 10;
      }

      .cls-3 {
        isolation: isolate;
      }

      .cls-4 {
        fill: #1d1d1b;
      }
    </style>
  </defs>
  <line class="cls-1" x1="89.87" y1="139.9" x2="106.91" y2="146.24"/>
  <line class="cls-1" x1="23.93" y1="87.22" x2="24.82" y2="121.7"/>
  <line class="cls-1" x1="20.92" y1="120.34" x2="70.14" y2="138.32"/>
  <line class="cls-1" x1="41.01" y1="167.99" x2="111.81" y2="155.09"/>
  <line class="cls-1" x1="264.69" y1="102.72" x2="283" y2="106.6"/>
  <line class="cls-1" x1="4.9" y1="152.06" x2="74.58" y2="140.12"/>
  <line class="cls-1" x1="60.39" y1="45.84" x2="267.32" y2="18.05"/>
  <line class="cls-1" x1="61.39" y1="92.7" x2="60.28" y2="41.63"/>
  <line class="cls-1" x1="57.5" y1="97.16" x2="20.07" y2="86"/>
  <path class="cls-1" d="M266.79,61.28q.29-23.67.58-47.35"/>
  <line class="cls-1" x1="8.94" y1="151.4" x2="47.56" y2="166.59"/>
  <line class="cls-1" x1="283" y1="107.93" x2="283.04" y2="106.69"/>
  <path class="cls-1" d="M64.22,103a4.71,4.71,0,0,1-.81-.32c-.21-.12-.54-.33-.57-.62"/>
  <line class="cls-1" x1="90.46" y1="111.1" x2="64.22" y2="102.96"/>
  <line class="cls-1" x1="105.61" y1="107.68" x2="67.54" y2="96.52"/>
  <path class="cls-1" d="M90.62,107.52a19,19,0,0,0,3.67.63c1.24.11,2.48.16,3.72.16.62,0,1.24,0,1.86,0s1.25-.06,1.87-.11c1.21-.09,2.49-.24,3.69-.45"/>
  <line class="cls-1" x1="105.43" y1="111.26" x2="105.61" y2="107.68"/>
  <line class="cls-1" x1="176.13" y1="98.48" x2="174.68" y2="98.13"/>
  <line class="cls-1" x1="183.84" y1="93.89" x2="143.59" y2="84.74"/>
  <line class="cls-1" x1="183.84" y1="93.89" x2="176.41" y2="95.19"/>
  <line class="cls-1" x1="183.54" y1="97.14" x2="183.84" y2="93.89"/>
  <line class="cls-1" x1="193.67" y1="95.3" x2="192.3" y2="94.99"/>
  <line class="cls-1" x1="201.05" y1="90.85" x2="160.48" y2="82.12"/>
  <line class="cls-1" x1="200.73" y1="94.03" x2="201.05" y2="90.85"/>
  <line class="cls-1" x1="289.75" y1="77.9" x2="288.79" y2="78.07"/>
  <line class="cls-1" x1="276.68" y1="80.26" x2="275.68" y2="80.44"/>
  <line class="cls-1" x1="269.94" y1="81.48" x2="268.91" y2="81.67"/>
  <line class="cls-1" x1="263.05" y1="82.72" x2="262" y2="82.92"/>
  <line class="cls-1" x1="248.81" y1="85.3" x2="247.71" y2="85.5"/>
  <line class="cls-1" x1="226.23" y1="89.38" x2="225.57" y2="89.5"/>
  <line class="cls-1" x1="304.04" y1="75.12" x2="304.03" y2="75.48"/>
  <path class="cls-1" d="M263.46,103.67l-.18,0s-.14.06-.14.12"/>
  <line class="cls-1" x1="69.38" y1="97.06" x2="69.29" y2="96.25"/>
  <path class="cls-1" d="M264.3,103.49a.57.57,0,0,0,.32-.27,1.24,1.24,0,0,0,.11-.42"/>
  <line class="cls-1" x1="193.41" y1="77.48" x2="193.36" y2="77.03"/>
  <line class="cls-1" x1="295.13" y1="76.96" x2="295.54" y2="74.19"/>
  <line class="cls-1" x1="255.35" y1="67.76" x2="255.32" y2="67.43"/>
  <line class="cls-1" x1="290.25" y1="75.12" x2="289.85" y2="77.92"/>
  <line class="cls-1" x1="242.54" y1="69.77" x2="242.51" y2="69.41"/>
  <line class="cls-1" x1="289.85" y1="77.92" x2="295.13" y2="76.96"/>
  <line class="cls-1" x1="170.04" y1="81.15" x2="169.99" y2="80.65"/>
  <line class="cls-1" x1="248.98" y1="68.41" x2="290.25" y2="75.12"/>
  <line class="cls-1" x1="145.08" y1="85.08" x2="145.03" y2="84.52"/>
  <line class="cls-1" x1="295.54" y1="74.19" x2="254.27" y2="67.59"/>
  <line class="cls-1" x1="118.36" y1="89.3" x2="118.3" y2="88.66"/>
  <line class="cls-1" x1="289.85" y1="77.92" x2="288.83" y2="77.75"/>
  <line class="cls-1" x1="99.48" y1="92.28" x2="99.4" y2="91.59"/>
  <line class="cls-1" x1="282.3" y1="79.28" x2="282.69" y2="76.45"/>
  <line class="cls-1" x1="117.77" y1="108.98" x2="116.12" y2="109.28"/>
  <line class="cls-1" x1="107.14" y1="110.9" x2="105.43" y2="111.21"/>
  <line class="cls-1" x1="184.91" y1="96.85" x2="183.54" y2="97.09"/>
  <line class="cls-1" x1="166.92" y1="100.1" x2="165.49" y2="100.36"/>
  <line class="cls-1" x1="157.59" y1="101.78" x2="156.12" y2="102.05"/>
  <line class="cls-1" x1="138.2" y1="105.29" x2="136.64" y2="105.57"/>
  <line class="cls-1" x1="261.57" y1="66.79" x2="261.54" y2="66.47"/>
  <line class="cls-1" x1="89.69" y1="93.83" x2="89.61" y2="93.1"/>
  <line class="cls-1" x1="109.03" y1="90.77" x2="108.96" y2="90.11"/>
  <line class="cls-1" x1="208.18" y1="75.16" x2="208.14" y2="74.74"/>
  <line class="cls-1" x1="185.79" y1="78.67" x2="185.74" y2="78.21"/>
  <line class="cls-1" x1="249.01" y1="68.76" x2="248.98" y2="68.41"/>
  <path class="cls-1" d="M295.68,77.47a.18.18,0,0,1,.06.17"/>
  <line class="cls-1" x1="136.38" y1="86.45" x2="136.32" y2="85.87"/>
  <line class="cls-1" x1="153.59" y1="83.74" x2="153.54" y2="83.2"/>
  <line class="cls-1" x1="217.13" y1="91.02" x2="218.35" y2="90.8"/>
  <line class="cls-1" x1="234.38" y1="84.97" x2="234.03" y2="88.01"/>
  <line class="cls-1" x1="218.45" y1="90.82" x2="225.03" y2="89.63"/>
  <line class="cls-1" x1="296.08" y1="76.76" x2="295.14" y2="76.93"/>
  <line class="cls-1" x1="283.28" y1="79.07" x2="282.3" y2="79.25"/>
  <line class="cls-1" x1="241.45" y1="86.63" x2="240.32" y2="86.83"/>
  <line class="cls-1" x1="233.93" y1="87.99" x2="232.76" y2="88.2"/>
  <line class="cls-1" x1="302.27" y1="75.64" x2="301.36" y2="75.8"/>
  <line class="cls-1" x1="288.36" y1="78.8" x2="288.1" y2="87.53"/>
  <path class="cls-1" d="M302.25,76.27a7.93,7.93,0,0,0,1-.23,2.72,2.72,0,0,0,.47-.19c.12-.07.32-.2.32-.37"/>
  <path class="cls-1" d="M288.1,87.53a.2.2,0,0,1,0,.11.11.11,0,0,1-.08.07"/>
  <line class="cls-1" x1="210.71" y1="89.15" x2="210.39" y2="92.28"/>
  <line class="cls-1" x1="225.04" y1="89.59" x2="225.57" y2="89.5"/>
  <line class="cls-1" x1="79.66" y1="95.43" x2="79.58" y2="94.66"/>
  <line class="cls-1" x1="79.58" y1="94.66" x2="118.07" y2="105.48"/>
  <line class="cls-1" x1="79.58" y1="94.66" x2="87.95" y2="93.36"/>
  <line class="cls-1" x1="117.86" y1="109.01" x2="126.51" y2="107.45"/>
  <line class="cls-1" x1="69.29" y1="96.25" x2="77.88" y2="94.92"/>
  <line class="cls-1" x1="107.23" y1="110.93" x2="116.11" y2="109.32"/>
  <line class="cls-1" x1="209.6" y1="92.38" x2="210.29" y2="92.26"/>
  <line class="cls-1" x1="225.57" y1="89.5" x2="225.06" y2="89.39"/>
  <line class="cls-1" x1="202.78" y1="104.43" x2="218.66" y2="101.31"/>
  <path class="cls-1" d="M225.57,90.21V89.5"/>
  <line class="cls-1" x1="193.36" y1="77.03" x2="234.38" y2="84.97"/>
  <line class="cls-1" x1="200.87" y1="76.31" x2="200.83" y2="75.87"/>
  <line class="cls-1" x1="193.36" y1="77.03" x2="199.6" y2="76.06"/>
  <line class="cls-1" x1="234.03" y1="88.01" x2="240.31" y2="86.87"/>
  <line class="cls-1" x1="240.67" y1="83.86" x2="234.38" y2="84.97"/>
  <line class="cls-1" x1="200.83" y1="75.87" x2="206.93" y2="74.93"/>
  <line class="cls-1" x1="241.56" y1="86.65" x2="247.7" y2="85.54"/>
  <line class="cls-1" x1="248.07" y1="82.56" x2="241.92" y2="83.64"/>
  <line class="cls-1" x1="289.18" y1="75.31" x2="283.78" y2="76.26"/>
  <line class="cls-1" x1="242.51" y1="69.41" x2="247.91" y2="68.58"/>
  <line class="cls-1" x1="283.39" y1="79.09" x2="288.78" y2="78.11"/>
  <line class="cls-1" x1="255.32" y1="67.43" x2="260.52" y2="66.63"/>
  <line class="cls-1" x1="296.18" y1="76.77" x2="301.35" y2="75.84"/>
  <line class="cls-1" x1="301.76" y1="73.09" x2="296.58" y2="74.01"/>
  <line class="cls-1" x1="169.99" y1="80.65" x2="210.71" y2="89.15"/>
  <line class="cls-1" x1="178" y1="79.9" x2="177.96" y2="79.42"/>
  <line class="cls-1" x1="169.99" y1="80.65" x2="176.64" y2="79.62"/>
  <line class="cls-1" x1="217.46" y1="87.96" x2="210.71" y2="89.15"/>
  <line class="cls-1" x1="210.39" y1="92.28" x2="217.12" y2="91.06"/>
  <line class="cls-1" x1="177.96" y1="79.42" x2="184.46" y2="78.41"/>
  <line class="cls-1" x1="225.38" y1="86.56" x2="218.79" y2="87.72"/>
  <line class="cls-1" x1="165.76" y1="97.07" x2="157.95" y2="98.45"/>
  <line class="cls-1" x1="127.48" y1="87.86" x2="127.41" y2="87.25"/>
  <line class="cls-1" x1="145.03" y1="84.52" x2="185.3" y2="93.63"/>
  <line class="cls-1" x1="145.03" y1="84.52" x2="152.13" y2="83.42"/>
  <line class="cls-1" x1="185.01" y1="96.87" x2="192.24" y2="95.56"/>
  <line class="cls-1" x1="127.41" y1="87.25" x2="167.3" y2="96.8"/>
  <line class="cls-1" x1="127.41" y1="87.25" x2="134.85" y2="86.09"/>
  <line class="cls-1" x1="167.02" y1="100.12" x2="174.62" y2="98.75"/>
  <line class="cls-1" x1="118.3" y1="88.66" x2="157.95" y2="98.45"/>
  <line class="cls-1" x1="118.3" y1="88.66" x2="125.91" y2="87.48"/>
  <line class="cls-1" x1="157.69" y1="101.81" x2="165.48" y2="100.4"/>
  <line class="cls-1" x1="99.4" y1="91.59" x2="138.53" y2="101.87"/>
  <line class="cls-1" x1="99.4" y1="91.59" x2="107.38" y2="90.35"/>
  <line class="cls-1" x1="138.3" y1="105.31" x2="146.5" y2="103.83"/>
  <line class="cls-1" x1="128.12" y1="107.11" x2="126.51" y2="107.4"/>
  <line class="cls-1" x1="116.57" y1="110.26" x2="114.29" y2="149.98"/>
  <line class="cls-1" x1="202.45" y1="90.6" x2="202.13" y2="93.78"/>
  <line class="cls-1" x1="128.44" y1="103.65" x2="128.22" y2="107.14"/>
  <line class="cls-1" x1="148.37" y1="100.14" x2="148.12" y2="103.54"/>
  <line class="cls-1" x1="176.41" y1="95.19" x2="176.13" y2="98.48"/>
  <line class="cls-1" x1="193.98" y1="92.1" x2="193.67" y2="95.3"/>
  <line class="cls-1" x1="202.03" y1="93.75" x2="200.74" y2="93.99"/>
  <line class="cls-1" x1="193.57" y1="95.28" x2="192.24" y2="95.52"/>
  <line class="cls-1" x1="176.03" y1="98.45" x2="174.63" y2="98.7"/>
  <line class="cls-1" x1="148.02" y1="103.51" x2="146.5" y2="103.79"/>
  <line class="cls-1" x1="116.62" y1="121.33" x2="202.78" y2="104.43"/>
  <line class="cls-1" x1="209.05" y1="92.27" x2="209.6" y2="92.38"/>
  <path class="cls-1" d="M117.2,109.91a.37.37,0,0,1,.07.23"/>
  <line class="cls-1" x1="209.6" y1="92.38" x2="209.03" y2="92.49"/>
  <path class="cls-1" d="M90.42,111.9l0,0"/>
  <line class="cls-1" x1="90.42" y1="111.9" x2="90.4" y2="111.07"/>
  <path class="cls-1" d="M90.46,111.92a21.09,21.09,0,0,0,3.69.63c1.25.11,2.49.15,3.74.15a44.58,44.58,0,0,0,7.47-.64"/>
  <path class="cls-1" d="M209.6,92.38v.74"/>
  <line class="cls-1" x1="222.31" y1="72.54" x2="263.53" y2="79.83"/>
  <line class="cls-1" x1="229.18" y1="71.48" x2="270.43" y2="78.62"/>
  <line class="cls-1" x1="215.29" y1="73.63" x2="256.49" y2="81.08"/>
  <path class="cls-1" d="M265,103.88s-.07.06-.1.07l-.12,0a1.06,1.06,0,0,1-.25,0,2.07,2.07,0,0,1-.5,0"/>
  <line class="cls-1" x1="63.81" y1="99.42" x2="90.62" y2="107.52"/>
  <line class="cls-1" x1="201.05" y1="90.85" x2="193.98" y2="92.1"/>
  <line class="cls-1" x1="161.91" y1="82.43" x2="161.86" y2="81.91"/>
  <line class="cls-1" x1="64.57" y1="103.76" x2="66.04" y2="103.52"/>
  <path class="cls-1" d="M64.25,103a2.93,2.93,0,0,1-1.08-.56"/>
  <path class="cls-1" d="M114,150.5a.35.35,0,0,0,.23-.21,1.08,1.08,0,0,0,.07-.31"/>
  <line class="cls-1" x1="89.83" y1="139.96" x2="89.88" y2="141.48"/>
  <line class="cls-1" x1="106.98" y1="147.29" x2="90.64" y2="141.17"/>
  <line class="cls-1" x1="114.68" y1="150.34" x2="113.99" y2="150.5"/>
  <path class="cls-1" d="M106.91,146.24s0,0,0,0"/>
  <path class="cls-1" d="M89.84,139.88s0,0,0,0"/>
  <path class="cls-1" d="M116.57,110.26a.36.36,0,0,0-.07-.22"/>
  <line class="cls-1" x1="83.27" y1="138.36" x2="79.86" y2="107.81"/>
  <path class="cls-1" d="M113.84,150.49a.2.2,0,0,0,.15,0"/>
  <path class="cls-1" d="M115,149.82a.81.81,0,0,1-.06.31.37.37,0,0,1-.23.21"/>
  <path class="cls-1" d="M83.71,139.16a.68.68,0,0,1-.31-.34,1.51,1.51,0,0,1-.13-.46"/>
  <line class="cls-1" x1="89.88" y1="141.48" x2="83.71" y2="139.16"/>
  <line class="cls-1" x1="113.84" y1="150.49" x2="107" y2="147.92"/>
  <path class="cls-1" d="M106.9,146.33a1.29,1.29,0,0,0,.07.43"/>
  <path class="cls-1" d="M107,146.3a.07.07,0,0,0,0-.06"/>
  <path class="cls-1" d="M106.92,146.24h0"/>
  <line class="cls-1" x1="106.9" y1="146.28" x2="106.9" y2="146.33"/>
  <path class="cls-1" d="M89.85,139.88h0"/>
  <path class="cls-1" d="M89.88,139.94s0-.06,0-.06"/>
  <line class="cls-1" x1="90.55" y1="141.34" x2="90.55" y2="141.13"/>
  <line class="cls-1" x1="89.88" y1="141.48" x2="90.55" y2="141.34"/>
  <line class="cls-1" x1="89.82" y1="139.92" x2="89.83" y2="139.96"/>
  <line class="cls-1" x1="89.88" y1="139.98" x2="89.88" y2="139.94"/>
  <line class="cls-1" x1="295.54" y1="74.19" x2="290.25" y2="75.12"/>
  <line class="cls-1" x1="161.86" y1="81.91" x2="202.45" y2="90.6"/>
  <line class="cls-1" x1="161.86" y1="81.91" x2="168.65" y2="80.86"/>
  <line class="cls-1" x1="261.54" y1="66.47" x2="302.79" y2="72.91"/>
  <path class="cls-1" d="M304.61,72.17a.25.25,0,0,0,0-.17.65.65,0,0,0-.17-.16,1.9,1.9,0,0,0-.37-.2,5.74,5.74,0,0,0-.8-.26,16.05,16.05,0,0,0-1.65-.33"/>
  <line class="cls-1" x1="304.61" y1="72.17" x2="304.2" y2="74.89"/>
  <line class="cls-1" x1="301.58" y1="71.05" x2="272.28" y2="66.54"/>
  <path class="cls-1" d="M302.89,72.89a7.51,7.51,0,0,0,.94-.21,3,3,0,0,0,.45-.18c.11-.06.31-.17.33-.33"/>
  <path class="cls-1" d="M272.28,66.54a41.09,41.09,0,0,0-5.31-.38c-.89,0-1.78,0-2.67,0a26.1,26.1,0,0,0-2.65.25"/>
  <line class="cls-1" x1="261.54" y1="66.47" x2="261.65" y2="66.45"/>
  <line class="cls-1" x1="302.38" y1="75.65" x2="302.48" y2="75.63"/>
  <line class="cls-1" x1="302.89" y1="72.89" x2="302.79" y2="72.91"/>
  <line class="cls-1" x1="89.61" y1="93.1" x2="128.44" y2="103.65"/>
  <line class="cls-1" x1="89.61" y1="93.1" x2="97.79" y2="91.84"/>
  <line class="cls-1" x1="128.22" y1="107.14" x2="136.63" y2="105.61"/>
  <line class="cls-1" x1="108.96" y1="90.11" x2="148.37" y2="100.14"/>
  <line class="cls-1" x1="108.96" y1="90.11" x2="116.76" y2="88.9"/>
  <line class="cls-1" x1="148.12" y1="103.54" x2="156.11" y2="102.09"/>
  <line class="cls-1" x1="269.29" y1="78.82" x2="263.53" y2="79.83"/>
  <line class="cls-1" x1="235.94" y1="70.8" x2="235.91" y2="70.44"/>
  <line class="cls-1" x1="255.3" y1="81.29" x2="249.28" y2="82.35"/>
  <line class="cls-1" x1="222.34" y1="72.94" x2="222.31" y2="72.54"/>
  <line class="cls-1" x1="229.21" y1="71.86" x2="229.18" y2="71.48"/>
  <line class="cls-1" x1="222.31" y1="72.54" x2="228.04" y2="71.66"/>
  <line class="cls-1" x1="263.15" y1="82.74" x2="268.91" y2="81.7"/>
  <line class="cls-1" x1="229.18" y1="71.48" x2="234.8" y2="70.61"/>
  <line class="cls-1" x1="270.04" y1="81.5" x2="275.67" y2="80.48"/>
  <line class="cls-1" x1="208.14" y1="74.74" x2="249.28" y2="82.35"/>
  <line class="cls-1" x1="215.33" y1="74.04" x2="215.29" y2="73.63"/>
  <line class="cls-1" x1="215.29" y1="73.63" x2="221.15" y2="72.72"/>
  <line class="cls-1" x1="262.37" y1="80.04" x2="256.49" y2="81.08"/>
  <line class="cls-1" x1="256.11" y1="84.02" x2="261.99" y2="82.95"/>
  <line class="cls-1" x1="208.14" y1="74.74" x2="214.11" y2="73.81"/>
  <line class="cls-1" x1="248.92" y1="85.32" x2="254.93" y2="84.23"/>
  <path class="cls-1" d="M63,102.81c0,.29.31.5.52.62a3.64,3.64,0,0,0,.76.33"/>
  <line class="cls-1" x1="63" y1="102.81" x2="62.98" y2="102.32"/>
  <path class="cls-1" d="M64.28,103.76a.94.94,0,0,0,.29,0"/>
  <line class="cls-1" x1="185.74" y1="78.21" x2="192.11" y2="77.22"/>
  <line class="cls-1" x1="226.33" y1="89.4" x2="232.76" y2="88.24"/>
  <line class="cls-1" x1="233.11" y1="85.2" x2="226.67" y2="86.33"/>
  <line class="cls-1" x1="282.69" y1="76.45" x2="277.18" y2="77.43"/>
  <line class="cls-1" x1="235.91" y1="70.44" x2="241.42" y2="69.58"/>
  <line class="cls-1" x1="276.79" y1="80.28" x2="282.3" y2="79.28"/>
  <line class="cls-1" x1="248.98" y1="68.41" x2="254.27" y2="67.59"/>
  <path class="cls-1" d="M282.52,108a.88.88,0,0,0,.49-.33"/>
  <path class="cls-1" d="M290.42,109.48a.5.5,0,0,0,.34-.43"/>
  <path class="cls-1" d="M263.8,103.85s.08-.06.1-.06l.13,0,.25,0a2.81,2.81,0,0,1,.5,0"/>
  <path class="cls-1" d="M263.14,103.84s0,.07.07.09l.11,0,.23.07"/>
  <path class="cls-1" d="M281.12,107.28a.49.49,0,0,1,.16,0c.06,0,.08.07,0,.11a1.13,1.13,0,0,1-.32,0,2.22,2.22,0,0,1-.63,0"/>
  <path class="cls-1" d="M279.9,107.56a5.24,5.24,0,0,0,1.81,0"/>
  <line class="cls-1" x1="264.3" y1="103.49" x2="263.46" y2="103.67"/>
  <line class="cls-1" x1="263.55" y1="104.05" x2="279.9" y2="107.56"/>
  <line class="cls-1" x1="263.31" y1="103.71" x2="257.96" y2="102.56"/>
  <line class="cls-1" x1="290.83" y1="109.38" x2="290.42" y2="109.48"/>
  <path class="cls-1" d="M280.13,107.35s.08-.06.1-.07l.13,0a1.06,1.06,0,0,1,.25,0,2.15,2.15,0,0,1,.51,0"/>
  <line class="cls-1" x1="263.13" y1="104.44" x2="263.14" y2="103.84"/>
  <path class="cls-1" d="M283,106.6s0,0,0,0"/>
  <path class="cls-1" d="M264.69,102.72s0,0,0,0"/>
  <path class="cls-1" d="M295.32,77.72a.21.21,0,0,0-.06-.18"/>
  <line class="cls-1" x1="257.52" y1="101.95" x2="256.83" y2="93.83"/>
  <path class="cls-1" d="M290.25,109.48h.17"/>
  <path class="cls-1" d="M291.18,109a.48.48,0,0,1-.35.43"/>
  <path class="cls-1" d="M258,102.56a.55.55,0,0,1-.32-.23.89.89,0,0,1-.12-.38"/>
  <line class="cls-1" x1="291.18" y1="108.95" x2="295.74" y2="77.64"/>
  <line class="cls-1" x1="295.32" y1="77.72" x2="290.76" y2="109.05"/>
  <line class="cls-1" x1="290.25" y1="109.48" x2="283" y2="107.93"/>
  <path class="cls-1" d="M283,106.67a1.06,1.06,0,0,1-.12.43.51.51,0,0,1-.32.29"/>
  <path class="cls-1" d="M264,104l-.11,0s-.09,0-.09-.07"/>
  <path class="cls-1" d="M263.54,104.65a.86.86,0,0,1-.23-.06l-.11,0a.13.13,0,0,1-.07-.1"/>
  <path class="cls-1" d="M281.69,108.2a5.24,5.24,0,0,1-1.81,0"/>
  <path class="cls-1" d="M264.78,103.78l.11,0s.08,0,.08.07"/>
  <path class="cls-1" d="M280.34,107.46l-.12,0-.05,0a.07.07,0,0,1,0-.05"/>
  <line class="cls-1" x1="281.71" y1="107.58" x2="282.54" y2="107.39"/>
  <line class="cls-1" x1="279.88" y1="108.18" x2="263.54" y2="104.65"/>
  <line class="cls-1" x1="282.52" y1="108.01" x2="281.69" y2="108.2"/>
  <path class="cls-1" d="M283,106.65a.05.05,0,0,0,0-.05"/>
  <path class="cls-1" d="M283,106.6h0"/>
  <line class="cls-1" x1="283.04" y1="106.69" x2="283.04" y2="106.65"/>
  <line class="cls-1" x1="282.98" y1="106.64" x2="282.98" y2="106.67"/>
  <path class="cls-1" d="M264.7,102.72h0"/>
  <path class="cls-1" d="M264.73,102.76s0,0,0,0"/>
  <line class="cls-1" x1="264.67" y1="102.79" x2="264.66" y2="103.12"/>
  <line class="cls-1" x1="264.67" y1="102.75" x2="264.67" y2="102.79"/>
  <line class="cls-1" x1="264.73" y1="102.8" x2="264.73" y2="102.76"/>
  <path class="cls-1" d="M62.43,98.5c0,.29.37.5.58.61a4.57,4.57,0,0,0,.8.31"/>
  <line class="cls-1" x1="62.84" y1="102.02" x2="62.43" y2="98.5"/>
  <path class="cls-1" d="M105.25,111.29a35.75,35.75,0,0,1-3.69.46c-.62,0-1.24.09-1.86.11s-1.24,0-1.86,0c-1.24,0-2.48,0-3.72-.16a19.76,19.76,0,0,1-3.66-.64"/>
  <path class="cls-1" d="M67.37,96.55a22.89,22.89,0,0,0-2.71.57,8.74,8.74,0,0,0-1.3.46,3.16,3.16,0,0,0-.59.35,1.24,1.24,0,0,0-.27.29.47.47,0,0,0-.07.28"/>
  <line class="cls-1" x1="67.37" y1="96.55" x2="67.54" y2="96.52"/>
  <line class="cls-1" x1="105.61" y1="107.68" x2="105.43" y2="107.71"/>
  <line class="cls-1" x1="105.25" y1="111.29" x2="105.43" y2="111.26"/>
  <line class="cls-1" x1="136.32" y1="85.87" x2="176.41" y2="95.19"/>
  <line class="cls-1" x1="136.32" y1="85.87" x2="143.59" y2="84.74"/>
  <line class="cls-1" x1="176.13" y1="98.48" x2="183.54" y2="97.14"/>
  <line class="cls-1" x1="153.54" y1="83.2" x2="193.98" y2="92.1"/>
  <line class="cls-1" x1="153.54" y1="83.2" x2="160.48" y2="82.12"/>
  <line class="cls-1" x1="193.67" y1="95.3" x2="200.73" y2="94.03"/>
  <line class="cls-1" x1="277.18" y1="77.43" x2="276.79" y2="80.28"/>
  <line class="cls-1" x1="235.91" y1="70.44" x2="277.18" y2="77.43"/>
  <line class="cls-1" x1="282.69" y1="76.45" x2="241.42" y2="69.58"/>
  <line class="cls-1" x1="276.79" y1="80.28" x2="275.72" y2="80.09"/>
  <line class="cls-1" x1="232.76" y1="88.24" x2="233.11" y2="85.2"/>
  <line class="cls-1" x1="226.67" y1="86.33" x2="226.33" y2="89.4"/>
  <line class="cls-1" x1="185.74" y1="78.21" x2="226.67" y2="86.33"/>
  <line class="cls-1" x1="233.11" y1="85.2" x2="192.11" y2="77.22"/>
  <line class="cls-1" x1="226.33" y1="89.4" x2="225.09" y2="89.15"/>
  <line class="cls-1" x1="254.93" y1="84.23" x2="255.3" y2="81.29"/>
  <line class="cls-1" x1="249.28" y1="82.35" x2="248.92" y2="85.32"/>
  <line class="cls-1" x1="255.3" y1="81.29" x2="214.11" y2="73.81"/>
  <line class="cls-1" x1="248.92" y1="85.32" x2="247.75" y2="85.1"/>
  <line class="cls-1" x1="261.99" y1="82.95" x2="262.37" y2="80.04"/>
  <line class="cls-1" x1="256.49" y1="81.08" x2="256.11" y2="84.02"/>
  <line class="cls-1" x1="262.37" y1="80.04" x2="221.15" y2="72.72"/>
  <line class="cls-1" x1="256.11" y1="84.02" x2="254.98" y2="83.81"/>
  <line class="cls-1" x1="275.67" y1="80.48" x2="276.06" y2="77.62"/>
  <line class="cls-1" x1="276.06" y1="77.62" x2="270.43" y2="78.62"/>
  <line class="cls-1" x1="270.43" y1="78.62" x2="270.04" y2="81.5"/>
  <line class="cls-1" x1="276.06" y1="77.62" x2="234.8" y2="70.61"/>
  <line class="cls-1" x1="270.04" y1="81.5" x2="268.96" y2="81.3"/>
  <line class="cls-1" x1="268.91" y1="81.7" x2="269.29" y2="78.82"/>
  <line class="cls-1" x1="263.53" y1="79.83" x2="263.15" y2="82.74"/>
  <line class="cls-1" x1="269.29" y1="78.82" x2="228.04" y2="71.66"/>
  <line class="cls-1" x1="263.15" y1="82.74" x2="262.04" y2="82.54"/>
  <line class="cls-1" x1="156.11" y1="102.09" x2="156.37" y2="98.73"/>
  <line class="cls-1" x1="156.37" y1="98.73" x2="148.37" y2="100.14"/>
  <line class="cls-1" x1="156.37" y1="98.73" x2="116.76" y2="88.9"/>
  <line class="cls-1" x1="148.12" y1="103.54" x2="146.55" y2="103.13"/>
  <line class="cls-1" x1="136.63" y1="105.61" x2="136.87" y2="102.17"/>
  <line class="cls-1" x1="136.87" y1="102.17" x2="128.44" y2="103.65"/>
  <line class="cls-1" x1="136.87" y1="102.17" x2="97.79" y2="91.84"/>
  <line class="cls-1" x1="128.22" y1="107.14" x2="126.56" y2="106.67"/>
  <line class="cls-1" x1="302.79" y1="72.91" x2="302.38" y2="75.65"/>
  <line class="cls-1" x1="302.38" y1="75.65" x2="301.4" y2="75.5"/>
  <path class="cls-1" d="M304.2,74.89c0,.16-.21.28-.32.34a2.58,2.58,0,0,1-.46.18,6.11,6.11,0,0,1-.94.22"/>
  <line class="cls-1" x1="202.13" y1="93.78" x2="209.02" y2="92.53"/>
  <line class="cls-1" x1="209.02" y1="92.53" x2="209.35" y2="89.39"/>
  <line class="cls-1" x1="209.35" y1="89.39" x2="202.45" y2="90.6"/>
  <line class="cls-1" x1="209.35" y1="89.39" x2="168.65" y2="80.86"/>
  <line class="cls-1" x1="202.13" y1="93.78" x2="200.79" y2="93.48"/>
  <line class="cls-1" x1="107" y1="147.92" x2="106.96" y2="146.35"/>
  <line class="cls-1" x1="114.97" y1="149.82" x2="117.27" y2="110.14"/>
  <path class="cls-1" d="M90.64,141.17a1.13,1.13,0,0,1-.56-.47,1.53,1.53,0,0,1-.2-.72"/>
  <line class="cls-1" x1="105.36" y1="112.06" x2="209.6" y2="93.12"/>
  <line class="cls-1" x1="146.5" y1="103.83" x2="146.75" y2="100.43"/>
  <line class="cls-1" x1="146.75" y1="100.43" x2="138.53" y2="101.87"/>
  <line class="cls-1" x1="138.53" y1="101.87" x2="138.3" y2="105.31"/>
  <line class="cls-1" x1="146.75" y1="100.43" x2="107.38" y2="90.35"/>
  <line class="cls-1" x1="138.3" y1="105.31" x2="136.68" y2="104.88"/>
  <line class="cls-1" x1="165.48" y1="100.4" x2="165.76" y2="97.07"/>
  <line class="cls-1" x1="157.95" y1="98.45" x2="157.69" y2="101.81"/>
  <line class="cls-1" x1="165.76" y1="97.07" x2="125.91" y2="87.48"/>
  <line class="cls-1" x1="157.69" y1="101.81" x2="156.16" y2="101.42"/>
  <line class="cls-1" x1="174.62" y1="98.75" x2="174.91" y2="95.46"/>
  <line class="cls-1" x1="174.91" y1="95.46" x2="167.3" y2="96.8"/>
  <line class="cls-1" x1="167.3" y1="96.8" x2="167.02" y2="100.12"/>
  <line class="cls-1" x1="174.91" y1="95.46" x2="134.85" y2="86.09"/>
  <line class="cls-1" x1="167.02" y1="100.12" x2="165.54" y2="99.76"/>
  <line class="cls-1" x1="192.24" y1="95.56" x2="192.55" y2="92.35"/>
  <line class="cls-1" x1="192.55" y1="92.35" x2="185.3" y2="93.63"/>
  <line class="cls-1" x1="185.3" y1="93.63" x2="185.01" y2="96.87"/>
  <line class="cls-1" x1="192.55" y1="92.35" x2="152.13" y2="83.42"/>
  <line class="cls-1" x1="185.01" y1="96.87" x2="183.59" y2="96.54"/>
  <line class="cls-1" x1="225.03" y1="89.63" x2="225.38" y2="86.56"/>
  <line class="cls-1" x1="218.79" y1="87.72" x2="218.45" y2="90.82"/>
  <line class="cls-1" x1="177.96" y1="79.42" x2="218.79" y2="87.72"/>
  <line class="cls-1" x1="225.38" y1="86.56" x2="184.46" y2="78.41"/>
  <line class="cls-1" x1="218.45" y1="90.82" x2="217.18" y2="90.56"/>
  <line class="cls-1" x1="217.12" y1="91.06" x2="217.46" y2="87.96"/>
  <line class="cls-1" x1="217.46" y1="87.96" x2="176.64" y2="79.62"/>
  <line class="cls-1" x1="210.39" y1="92.28" x2="209.08" y2="92"/>
  <line class="cls-1" x1="301.35" y1="75.84" x2="301.76" y2="73.09"/>
  <line class="cls-1" x1="296.58" y1="74.01" x2="296.18" y2="76.77"/>
  <line class="cls-1" x1="255.32" y1="67.43" x2="296.58" y2="74.01"/>
  <line class="cls-1" x1="301.76" y1="73.09" x2="260.52" y2="66.63"/>
  <line class="cls-1" x1="296.18" y1="76.77" x2="295.18" y2="76.61"/>
  <line class="cls-1" x1="288.78" y1="78.11" x2="289.18" y2="75.31"/>
  <line class="cls-1" x1="283.78" y1="76.26" x2="283.39" y2="79.09"/>
  <line class="cls-1" x1="242.51" y1="69.41" x2="283.78" y2="76.26"/>
  <line class="cls-1" x1="289.18" y1="75.31" x2="247.91" y2="68.58"/>
  <line class="cls-1" x1="283.39" y1="79.09" x2="282.35" y2="78.91"/>
  <line class="cls-1" x1="247.7" y1="85.54" x2="248.07" y2="82.56"/>
  <line class="cls-1" x1="241.92" y1="83.64" x2="241.56" y2="86.65"/>
  <line class="cls-1" x1="200.83" y1="75.87" x2="241.92" y2="83.64"/>
  <line class="cls-1" x1="248.07" y1="82.56" x2="206.93" y2="74.93"/>
  <line class="cls-1" x1="241.56" y1="86.65" x2="240.37" y2="86.42"/>
  <line class="cls-1" x1="240.31" y1="86.87" x2="240.67" y2="83.86"/>
  <line class="cls-1" x1="240.67" y1="83.86" x2="199.6" y2="76.06"/>
  <line class="cls-1" x1="234.03" y1="88.01" x2="232.81" y2="87.77"/>
  <line class="cls-1" x1="209.6" y1="93.12" x2="225.57" y2="90.21"/>
  <line class="cls-1" x1="116.11" y1="109.32" x2="116.32" y2="105.79"/>
  <line class="cls-1" x1="116.32" y1="105.79" x2="107.42" y2="107.36"/>
  <line class="cls-1" x1="107.42" y1="107.36" x2="107.23" y2="110.93"/>
  <line class="cls-1" x1="69.29" y1="96.25" x2="107.42" y2="107.36"/>
  <line class="cls-1" x1="116.32" y1="105.79" x2="77.88" y2="94.92"/>
  <line class="cls-1" x1="107.23" y1="110.93" x2="105.47" y2="110.4"/>
  <line class="cls-1" x1="126.51" y1="107.45" x2="126.73" y2="103.96"/>
  <line class="cls-1" x1="126.73" y1="103.96" x2="118.07" y2="105.48"/>
  <line class="cls-1" x1="118.07" y1="105.48" x2="117.86" y2="109.01"/>
  <line class="cls-1" x1="126.73" y1="103.96" x2="87.95" y2="93.36"/>
  <line class="cls-1" x1="117.86" y1="109.01" x2="116.16" y2="108.52"/>
  <line class="cls-1" x1="218.66" y1="101.31" x2="287.99" y2="87.71"/>
  <line class="cls-1" x1="225.57" y1="90.21" x2="302.25" y2="76.27"/>
  <line class="cls-1" x1="256.01" y1="84" x2="254.93" y2="84.19"/>
  <line class="cls-1" x1="106.96" y1="146.35" x2="106.95" y2="146.3"/>
  <line class="cls-1" x1="218.66" y1="101.31" x2="287.99" y2="87.71"/>
  <path class="cls-1" d="M90.64,141.17a1.13,1.13,0,0,1-.56-.47,1.53,1.53,0,0,1-.2-.72"/>
  <line class="cls-1" x1="114.97" y1="149.82" x2="117.27" y2="110.14"/>
  <line class="cls-1" x1="107" y1="147.92" x2="106.96" y2="146.35"/>
  <path class="cls-1" d="M304.2,74.89c0,.16-.21.28-.32.34a2.58,2.58,0,0,1-.46.18,6.11,6.11,0,0,1-.94.22"/>
  <line class="cls-1" x1="283" y1="107.93" x2="283.04" y2="106.69"/>
  <line class="cls-1" x1="304.04" y1="75.12" x2="304.03" y2="75.48"/>
  <line class="cls-1" x1="69.38" y1="97.06" x2="69.29" y2="96.25"/>
  <line class="cls-1" x1="193.41" y1="77.48" x2="193.36" y2="77.03"/>
  <line class="cls-1" x1="255.35" y1="67.76" x2="255.32" y2="67.43"/>
  <line class="cls-1" x1="242.54" y1="69.77" x2="242.51" y2="69.41"/>
  <line class="cls-1" x1="170.04" y1="81.15" x2="169.99" y2="80.65"/>
  <line class="cls-1" x1="145.08" y1="85.08" x2="145.03" y2="84.52"/>
  <line class="cls-1" x1="118.36" y1="89.3" x2="118.3" y2="88.66"/>
  <line class="cls-1" x1="99.48" y1="92.28" x2="99.4" y2="91.59"/>
  <line class="cls-1" x1="261.57" y1="66.79" x2="261.54" y2="66.47"/>
  <line class="cls-1" x1="89.69" y1="93.83" x2="89.61" y2="93.1"/>
  <line class="cls-1" x1="109.03" y1="90.77" x2="108.96" y2="90.11"/>
  <line class="cls-1" x1="208.18" y1="75.16" x2="208.14" y2="74.74"/>
  <line class="cls-1" x1="185.79" y1="78.67" x2="185.74" y2="78.21"/>
  <line class="cls-1" x1="249.01" y1="68.76" x2="248.98" y2="68.41"/>
  <path class="cls-1" d="M295.68,77.47a.18.18,0,0,1,.06.17"/>
  <line class="cls-1" x1="136.38" y1="86.45" x2="136.32" y2="85.87"/>
  <line class="cls-1" x1="106.96" y1="146.35" x2="106.95" y2="146.3"/>
  <line class="cls-1" x1="153.59" y1="83.74" x2="153.54" y2="83.2"/>
  <path class="cls-1" d="M302.25,76.27a7.93,7.93,0,0,0,1-.23,2.72,2.72,0,0,0,.47-.19c.12-.07.32-.2.32-.37"/>
  <line class="cls-1" x1="79.66" y1="95.43" x2="79.58" y2="94.66"/>
  <line class="cls-1" x1="79.58" y1="94.66" x2="87.95" y2="93.36"/>
  <line class="cls-1" x1="69.29" y1="96.25" x2="77.88" y2="94.92"/>
  <line class="cls-1" x1="202.78" y1="104.43" x2="218.66" y2="101.31"/>
  <line class="cls-1" x1="200.87" y1="76.31" x2="200.83" y2="75.87"/>
  <line class="cls-1" x1="193.36" y1="77.03" x2="199.6" y2="76.06"/>
  <line class="cls-1" x1="200.83" y1="75.87" x2="206.93" y2="74.93"/>
  <line class="cls-1" x1="242.51" y1="69.41" x2="247.91" y2="68.58"/>
  <line class="cls-1" x1="255.32" y1="67.43" x2="260.52" y2="66.63"/>
  <line class="cls-1" x1="178" y1="79.9" x2="177.96" y2="79.42"/>
  <line class="cls-1" x1="169.99" y1="80.65" x2="176.64" y2="79.62"/>
  <line class="cls-1" x1="177.96" y1="79.42" x2="184.46" y2="78.41"/>
  <line class="cls-1" x1="127.48" y1="87.86" x2="127.41" y2="87.25"/>
  <line class="cls-1" x1="145.03" y1="84.52" x2="152.13" y2="83.42"/>
  <line class="cls-1" x1="127.41" y1="87.25" x2="134.85" y2="86.09"/>
  <line class="cls-1" x1="118.3" y1="88.66" x2="125.91" y2="87.48"/>
  <line class="cls-1" x1="99.4" y1="91.59" x2="107.38" y2="90.35"/>
  <line class="cls-1" x1="116.62" y1="121.33" x2="202.78" y2="104.43"/>
  <line class="cls-1" x1="161.91" y1="82.43" x2="161.86" y2="81.91"/>
  <line class="cls-1" x1="64.57" y1="103.76" x2="66.04" y2="103.52"/>
  <line class="cls-1" x1="106.98" y1="147.29" x2="90.64" y2="141.17"/>
  <line class="cls-1" x1="114.68" y1="150.34" x2="113.99" y2="150.5"/>
  <line class="cls-1" x1="83.27" y1="138.36" x2="79.86" y2="107.81"/>
  <path class="cls-1" d="M113.84,150.49a.2.2,0,0,0,.15,0"/>
  <path class="cls-1" d="M115,149.82a.81.81,0,0,1-.06.31.37.37,0,0,1-.23.21"/>
  <path class="cls-1" d="M83.71,139.16a.68.68,0,0,1-.31-.34,1.51,1.51,0,0,1-.13-.46"/>
  <line class="cls-1" x1="89.88" y1="141.48" x2="83.71" y2="139.16"/>
  <line class="cls-1" x1="113.84" y1="150.49" x2="107" y2="147.92"/>
  <path class="cls-1" d="M106.9,146.33a1.29,1.29,0,0,0,.07.43"/>
  <line class="cls-1" x1="90.55" y1="141.34" x2="90.55" y2="141.13"/>
  <line class="cls-1" x1="89.88" y1="141.48" x2="90.55" y2="141.34"/>
  <line class="cls-1" x1="161.86" y1="81.91" x2="168.65" y2="80.86"/>
  <path class="cls-1" d="M304.61,72.17a.25.25,0,0,0,0-.17.65.65,0,0,0-.17-.16,1.9,1.9,0,0,0-.37-.2,5.74,5.74,0,0,0-.8-.26,16.05,16.05,0,0,0-1.65-.33"/>
  <line class="cls-1" x1="304.61" y1="72.17" x2="304.2" y2="74.89"/>
  <line class="cls-1" x1="301.58" y1="71.05" x2="272.28" y2="66.54"/>
  <path class="cls-1" d="M272.28,66.54a41.09,41.09,0,0,0-5.31-.38c-.89,0-1.78,0-2.67,0a26.1,26.1,0,0,0-2.65.25"/>
  <line class="cls-1" x1="261.54" y1="66.47" x2="261.65" y2="66.45"/>
  <line class="cls-1" x1="89.61" y1="93.1" x2="97.79" y2="91.84"/>
  <line class="cls-1" x1="108.96" y1="90.11" x2="116.76" y2="88.9"/>
  <line class="cls-1" x1="235.94" y1="70.8" x2="235.91" y2="70.44"/>
  <line class="cls-1" x1="222.34" y1="72.94" x2="222.31" y2="72.54"/>
  <line class="cls-1" x1="229.21" y1="71.86" x2="229.18" y2="71.48"/>
  <line class="cls-1" x1="222.31" y1="72.54" x2="228.04" y2="71.66"/>
  <line class="cls-1" x1="229.18" y1="71.48" x2="234.8" y2="70.61"/>
  <line class="cls-1" x1="215.33" y1="74.04" x2="215.29" y2="73.63"/>
  <line class="cls-1" x1="215.29" y1="73.63" x2="221.15" y2="72.72"/>
  <line class="cls-1" x1="208.14" y1="74.74" x2="214.11" y2="73.81"/>
  <path class="cls-1" d="M63,102.81c0,.29.31.5.52.62a3.64,3.64,0,0,0,.76.33"/>
  <line class="cls-1" x1="63" y1="102.81" x2="62.98" y2="102.32"/>
  <path class="cls-1" d="M64.28,103.76a.94.94,0,0,0,.29,0"/>
  <line class="cls-1" x1="185.74" y1="78.21" x2="192.11" y2="77.22"/>
  <line class="cls-1" x1="235.91" y1="70.44" x2="241.42" y2="69.58"/>
  <line class="cls-1" x1="248.98" y1="68.41" x2="254.27" y2="67.59"/>
  <path class="cls-1" d="M282.52,108a.88.88,0,0,0,.49-.33"/>
  <line class="cls-1" x1="263.31" y1="103.71" x2="257.96" y2="102.56"/>
  <line class="cls-1" x1="290.83" y1="109.38" x2="290.42" y2="109.48"/>
  <line class="cls-1" x1="263.13" y1="104.44" x2="263.14" y2="103.84"/>
  <line class="cls-1" x1="257.52" y1="101.95" x2="256.83" y2="93.83"/>
  <path class="cls-1" d="M290.25,109.48h.17"/>
  <path class="cls-1" d="M291.18,109a.48.48,0,0,1-.35.43"/>
  <path class="cls-1" d="M258,102.56a.55.55,0,0,1-.32-.23.89.89,0,0,1-.12-.38"/>
  <line class="cls-1" x1="291.18" y1="108.95" x2="295.74" y2="77.64"/>
  <line class="cls-1" x1="290.25" y1="109.48" x2="283" y2="107.93"/>
  <path class="cls-1" d="M263.54,104.65a.86.86,0,0,1-.23-.06l-.11,0a.13.13,0,0,1-.07-.1"/>
  <path class="cls-1" d="M281.69,108.2a5.24,5.24,0,0,1-1.81,0"/>
  <line class="cls-1" x1="279.88" y1="108.18" x2="263.54" y2="104.65"/>
  <line class="cls-1" x1="282.52" y1="108.01" x2="281.69" y2="108.2"/>
  <line class="cls-1" x1="62.84" y1="102.02" x2="62.43" y2="98.5"/>
  <path class="cls-1" d="M67.37,96.55a22.89,22.89,0,0,0-2.71.57,8.74,8.74,0,0,0-1.3.46,3.16,3.16,0,0,0-.59.35,1.24,1.24,0,0,0-.27.29.47.47,0,0,0-.07.28"/>
  <line class="cls-1" x1="67.37" y1="96.55" x2="67.54" y2="96.52"/>
  <line class="cls-1" x1="136.32" y1="85.87" x2="143.59" y2="84.74"/>
  <line class="cls-1" x1="153.54" y1="83.2" x2="160.48" y2="82.12"/>
  <polyline class="cls-2" points="267.29 18.06 261.61 17.4 261.96 20.15 267.29 18.06"/>
  <polyline class="cls-2" points="60.44 45.8 66.12 46.46 65.76 43.71 60.44 45.8"/>
  <polyline class="cls-2" points="23.91 87.24 22.66 92.82 25.43 92.75 23.91 87.24"/>
  <polyline class="cls-2" points="24.86 121.77 26.08 116.18 23.31 116.26 24.86 121.77"/>
  <polyline class="cls-2" points="8.95 151.4 13.62 154.7 14.62 152.11 8.95 151.4"/>
  <polyline class="cls-2" points="47.92 166.69 43.25 163.4 42.25 165.99 47.92 166.69"/>
  <g>
    <g class="cls-3">
      <path class="cls-4" d="M156.41,42.19,155.7,37a2.86,2.86,0,0,1-1.38.89l-.1-.72a2.77,2.77,0,0,0,1.47-1.21l.65-.08.83,6.24Z"/>
      <path class="cls-4" d="M158.09,42l-.1-.71,2.07-2.33a2.48,2.48,0,0,0,.82-1.86,1.14,1.14,0,0,0-.44-.79,1.21,1.21,0,0,0-.91-.2,1.26,1.26,0,0,0-.95.56,1.5,1.5,0,0,0-.12,1.16l-.79.05a2,2,0,0,1,1.76-2.49,2.11,2.11,0,0,1,1.54.31,1.83,1.83,0,0,1,.75,1.29,2.08,2.08,0,0,1-.19,1.16,5.09,5.09,0,0,1-.89,1.29l-1.51,1.67,3.08-.41.1.73Z"/>
      <path class="cls-4" d="M163.09,41.3l-.11-.71,2.08-2.33a2.5,2.5,0,0,0,.81-1.86,1.11,1.11,0,0,0-.44-.79,1.2,1.2,0,0,0-.91-.2,1.24,1.24,0,0,0-.94.56,1.49,1.49,0,0,0-.13,1.16l-.79,0a2,2,0,0,1,1.76-2.49A2.14,2.14,0,0,1,166,35a1.82,1.82,0,0,1,.74,1.29,2.17,2.17,0,0,1-.18,1.16,4.91,4.91,0,0,1-.9,1.29l-1.5,1.67,3.08-.41.1.73Z"/>
      <path class="cls-4" d="M168.31,39.65l.87-.11.12.92-.87.12Z"/>
      <path class="cls-4" d="M170.7,40.28l-.7-5.23a2.84,2.84,0,0,1-1.38.89l-.1-.72A2.79,2.79,0,0,0,170,34l.64-.09.84,6.24Z"/>
      <path class="cls-4" d="M173.07,33.53l-.25,1.83-1,.13.71-1.89Zm1.32-.18-.25,1.83-1,.14.71-1.9Z"/>
    </g>
    <g class="cls-3">
      <path class="cls-4" d="M156.5,30.13a2.38,2.38,0,0,1-1.6-.28,1.87,1.87,0,0,1-.87-1.22l.75-.22a1.25,1.25,0,0,0,.58.81,1.57,1.57,0,0,0,1,.18,1.47,1.47,0,0,0,1-.49,1.4,1.4,0,0,0-.23-1.9,1.45,1.45,0,0,0-1.06-.2,1.24,1.24,0,0,0-.66.29l-.42-.47,1.71-2.22-3,.41-.1-.73,4-.53.09.7-1.54,2a2,2,0,0,1,1.58.23,2,2,0,0,1,.35,2.9A2.41,2.41,0,0,1,156.5,30.13Z"/>
      <path class="cls-4" d="M160.63,29.51l-.7-5.23a2.91,2.91,0,0,1-1.39.9l-.1-.73a2.78,2.78,0,0,0,1.48-1.2l.64-.09.84,6.24Z"/>
      <path class="cls-4" d="M164.81,29a2.09,2.09,0,0,1-1.88-.62,4,4,0,0,1-.93-2.25,4,4,0,0,1,.3-2.42,2.09,2.09,0,0,1,1.66-1.1,2.07,2.07,0,0,1,1.88.63,4,4,0,0,1,.94,2.25,4,4,0,0,1-.31,2.41A2.07,2.07,0,0,1,164.81,29Zm-.09-.73a1.29,1.29,0,0,0,1.05-.82,3.36,3.36,0,0,0,.17-1.85,3.44,3.44,0,0,0-.65-1.75,1.27,1.27,0,0,0-1.24-.51,1.29,1.29,0,0,0-1.07.81,3.54,3.54,0,0,0-.16,1.87,3.49,3.49,0,0,0,.65,1.74A1.27,1.27,0,0,0,164.72,28.29Z"/>
      <path class="cls-4" d="M170.32,28.28a2.08,2.08,0,0,1-1.89-.62,4,4,0,0,1-.93-2.25,4,4,0,0,1,.31-2.42,2.27,2.27,0,0,1,3.53-.47,3.89,3.89,0,0,1,.94,2.25,3.93,3.93,0,0,1-.31,2.41A2.07,2.07,0,0,1,170.32,28.28Zm-.1-.73a1.31,1.31,0,0,0,1.06-.81,3.52,3.52,0,0,0,.16-1.86,3.44,3.44,0,0,0-.65-1.75,1.27,1.27,0,0,0-1.23-.51,1.29,1.29,0,0,0-1.07.81,3.54,3.54,0,0,0-.16,1.87,3.47,3.47,0,0,0,.64,1.75A1.29,1.29,0,0,0,170.22,27.55Z"/>
    </g>
  </g>
  <g>
    <g class="cls-3">
      <path class="cls-4" d="M33.69,111.34l-5.27.14a2.85,2.85,0,0,1,.74,1.48l-.73,0a2.77,2.77,0,0,0-1-1.6l0-.65,6.3-.16Z"/>
      <path class="cls-4" d="M33.63,108.9A11.54,11.54,0,0,1,28,106.24l.09,3.54-.73,0-.12-4.38.73,0q3.43,2.52,5.65,2.66Z"/>
      <path class="cls-4" d="M32.61,105.63l0-.88.94,0,0,.88Z"/>
      <path class="cls-4" d="M31.36,101.57a2.25,2.25,0,0,1-.56,1.61,2,2,0,0,1-1.53.66,2,2,0,0,1-1.56-.6,2.34,2.34,0,0,1-.65-1.63,2.05,2.05,0,0,1,.75-1.71,3.18,3.18,0,0,1,2.07-.7,3.91,3.91,0,0,1,2.65.74,2.62,2.62,0,0,1,1,2.08,2.71,2.71,0,0,1-.53,1.74l-.65-.4a1.91,1.91,0,0,0,.44-1.33,2,2,0,0,0-.7-1.5,2.55,2.55,0,0,0-1.71-.58,1.57,1.57,0,0,1,.7.65A1.9,1.9,0,0,1,31.36,101.57Zm-3.19-1a1.47,1.47,0,0,0-.38,1,1.4,1.4,0,0,0,.44,1,1.43,1.43,0,0,0,1.05.38,1.36,1.36,0,0,0,1-.43,1.43,1.43,0,0,0,.37-1,1.41,1.41,0,0,0-.43-1,1.33,1.33,0,0,0-1-.38A1.45,1.45,0,0,0,28.17,100.55Z"/>
      <path class="cls-4" d="M26.91,95.77l1.79.43,0,1-1.81-.9Zm0,1.33,1.8.44,0,1L27,97.61Z"/>
    </g>
    <g class="cls-3">
      <path class="cls-4" d="M21.61,108.73l-1.54,0,.09,3.32-.74,0L15.31,109l0-.94,4-.11,0-.91.73,0,0,.91,1.54,0Zm-2.21,2.5-.07-2.44-3.09.08Z"/>
      <path class="cls-4" d="M21.56,104.21a2.43,2.43,0,0,1-.43,1.54,1.89,1.89,0,0,1-1.25.77l-.15-.76a1.27,1.27,0,0,0,.81-.51,1.57,1.57,0,0,0,.28-1,1.37,1.37,0,0,0-.41-1,1.45,1.45,0,0,0-1-.34,1.38,1.38,0,0,0-1,.42,1.5,1.5,0,0,0-.35,1.08,1.6,1.6,0,0,0,.79,1.38l-.11.59-3.44-.4-.08-3.36.72,0,.08,2.76,1.89.22a1.9,1.9,0,0,1-.39-.59,1.81,1.81,0,0,1-.16-.69,2.15,2.15,0,0,1,.54-1.6,2,2,0,0,1,1.51-.64,2.13,2.13,0,0,1,1.59.56A2.22,2.22,0,0,1,21.56,104.21Z"/>
      <path class="cls-4" d="M21.43,99.07A2.43,2.43,0,0,1,21,100.6a1.92,1.92,0,0,1-1.24.78l-.16-.76a1.29,1.29,0,0,0,.82-.51,1.6,1.6,0,0,0,.28-1,1.3,1.3,0,0,0-.42-1,1.44,1.44,0,0,0-1-.35,1.37,1.37,0,0,0-1,.42,1.48,1.48,0,0,0-.35,1.09,1.56,1.56,0,0,0,.79,1.37l-.11.6-3.44-.41L15,97.48l.73,0,.07,2.75,1.9.22a2,2,0,0,1-.4-.59,1.92,1.92,0,0,1-.16-.69,2.13,2.13,0,0,1,.54-1.59,2,2,0,0,1,1.52-.64,2.11,2.11,0,0,1,1.58.55A2.19,2.19,0,0,1,21.43,99.07Z"/>
    </g>
  </g>
  <g>
    <g class="cls-3">
      <path class="cls-4" d="M19.58,165.75l.25-.66,3-1a2.45,2.45,0,0,0,1.61-1.23,1.09,1.09,0,0,0,0-.9,1.21,1.21,0,0,0-.7-.62,1.25,1.25,0,0,0-1.09,0,1.47,1.47,0,0,0-.67.95l-.72-.33A2,2,0,0,1,24,160.63a2.12,2.12,0,0,1,1.2,1,1.77,1.77,0,0,1,0,1.48,2.14,2.14,0,0,1-.72.93,4.87,4.87,0,0,1-1.41.69l-2.13.74,2.9,1.13-.27.69Z"/>
      <path class="cls-4" d="M24.47,167.67a11.56,11.56,0,0,1,4.64-4.17l-3.3-1.29.27-.68,4.08,1.6-.27.68c-2.44,1.45-4,2.84-4.64,4.16Z"/>
      <path class="cls-4" d="M32.14,163.83,31,165.31l-.92-.36,1.54-1.31Zm1.24.48-1.1,1.49-.93-.36,1.54-1.32Z"/>
    </g>
    <g class="cls-3">
      <path class="cls-4" d="M26.47,151a2.16,2.16,0,0,1,1.26,1.14,2.08,2.08,0,0,1,0,1.66A2,2,0,0,1,26.59,155a2.36,2.36,0,0,1-1.75,0,2.11,2.11,0,0,1-1.29-1.35,3.22,3.22,0,0,1,.16-2.18,3.89,3.89,0,0,1,1.71-2.16,2.67,2.67,0,0,1,2.31-.1,2.71,2.71,0,0,1,1.39,1.16l-.62.45a2,2,0,0,0-2.7-.86,2.47,2.47,0,0,0-1.2,1.35,1.56,1.56,0,0,1,.86-.4A2,2,0,0,1,26.47,151Zm-2.17,2.53A1.44,1.44,0,0,0,27,153.5a1.36,1.36,0,0,0,0-1.1,1.47,1.47,0,0,0-.83-.75,1.38,1.38,0,0,0-1.11,0,1.37,1.37,0,0,0-.76.8A1.38,1.38,0,0,0,24.3,153.56Z"/>
      <path class="cls-4" d="M29.75,156.92a2.47,2.47,0,0,1-1.33-1.07,1.71,1.71,0,0,1-.09-1.5,1.64,1.64,0,0,1,1.69-1,1.67,1.67,0,0,1-.43-.76,1.34,1.34,0,0,1,.05-.82,1.49,1.49,0,0,1,.94-.91,2.2,2.2,0,0,1,1.52.1,2.12,2.12,0,0,1,1.16,1,1.5,1.5,0,0,1,.07,1.31,1.33,1.33,0,0,1-.52.63,1.51,1.51,0,0,1-.83.26,1.67,1.67,0,0,1,.58.88,1.58,1.58,0,0,1-.05,1A1.71,1.71,0,0,1,31.44,157,2.45,2.45,0,0,1,29.75,156.92Zm.25-.66a1.55,1.55,0,0,0,1.07.07,1.16,1.16,0,0,0,.63-1.6,1.83,1.83,0,0,0-1.92-.75,1.15,1.15,0,0,0-.62,1.6A1.58,1.58,0,0,0,30,156.26Zm1.13-2.85a1.24,1.24,0,0,0,.88.06,1,1,0,0,0,.56-.56.86.86,0,0,0,0-.78,1.24,1.24,0,0,0-.69-.56,1.31,1.31,0,0,0-.92-.07.88.88,0,0,0-.56.55.94.94,0,0,0,.05.79A1.3,1.3,0,0,0,31.13,153.41Z"/>
      <path class="cls-4" d="M34.54,158.8a2.49,2.49,0,0,1-1.25-1,1.93,1.93,0,0,1-.23-1.45l.76.15a1.25,1.25,0,0,0,.16.95,1.53,1.53,0,0,0,.81.65,1.31,1.31,0,0,0,1.08,0,1.38,1.38,0,0,0,.72-.82,1.34,1.34,0,0,0,0-1.11,1.49,1.49,0,0,0-.86-.74,1.56,1.56,0,0,0-1.57.2l-.51-.34,1.71-3,3.13,1.22-.27.68-2.56-1-1,1.66a2,2,0,0,1,1.4,0,2.2,2.2,0,0,1,1.26,1.12,2.06,2.06,0,0,1,0,1.65,2.11,2.11,0,0,1-1.13,1.24A2.21,2.21,0,0,1,34.54,158.8Z"/>
    </g>
  </g>
</svg>
