<svg vector-effect="non-scaling-stroke" id="Vrstva_1" data-name="Vrstva 1" xmlns="http://www.w3.org/2000/svg" viewBox="0 0 340.16 226.77">
  <defs>
    <style>
      .cls-1, .cls-2 {
        fill: none;
        stroke: #cfe0fa;
        stroke-linejoin: round;
      }

      .cls-1, .cls-2, .cls-5 {
        stroke-linecap: round;
      }

      .cls-1, .cls-2, .cls-3, .cls-5 {
        stroke-width: 0.25px;
      }

      .cls-2 {
        stroke-dasharray: 1 1;
      }

      .cls-3, .cls-5 {
        fill: #010202;
        stroke: #010202;
        stroke-miterlimit: 10;
      }

      .cls-4 {
        fill: #1d1d1b;
      }
    </style>
  </defs>
  <line class="cls-1" x1="101.28" y1="135.31" x2="100.36" y2="135.45"/>
  <line class="cls-1" x1="101.28" y1="135.31" x2="101.33" y2="135.3"/>
  <line class="cls-1" x1="101.31" y1="134.29" x2="101.26" y2="134.29"/>
  <path class="cls-1" d="M101.33,135.3a13.68,13.68,0,0,0,1.8-.37,6.41,6.41,0,0,0,.87-.31l.22-.12.17-.12a.81.81,0,0,0,.18-.19.32.32,0,0,0,.05-.19"/>
  <line class="cls-1" x1="105.42" y1="133.71" x2="105.94" y2="133.76"/>
  <line class="cls-1" x1="104.62" y1="133.62" x2="104.62" y2="134"/>
  <polyline class="cls-1" points="100.36 135.45 83.56 129.36 83.56 128.05"/>
  <g>
    <path class="cls-1" d="M83.43,127.87a9.85,9.85,0,0,1-2.51-1.73"/>
    <line class="cls-1" x1="269.17" y1="100.57" x2="112.06" y2="122.01"/>
    <line class="cls-1" x1="253.57" y1="97.71" x2="253.5" y2="98.01"/>
    <line class="cls-1" x1="274.32" y1="101" x2="112.17" y2="123.34"/>
    <line class="cls-1" x1="254.13" y1="97.93" x2="111.64" y2="116.61"/>
    <line class="cls-1" x1="258.42" y1="98.89" x2="258.41" y2="99.15"/>
    <line class="cls-1" x1="264.13" y1="99.92" x2="111.94" y2="120.45"/>
    <line class="cls-1" x1="110.73" y1="104.96" x2="246.71" y2="88.69"/>
    <line class="cls-1" x1="259.17" y1="99.05" x2="111.8" y2="118.68"/>
    <line class="cls-1" x1="263.53" y1="99.83" x2="263.53" y2="100"/>
    <line class="cls-1" x1="76.8" y1="84.23" x2="76.72" y2="83.85"/>
    <line class="cls-1" x1="75.13" y1="76.17" x2="75.05" y2="75.82"/>
    <line class="cls-1" x1="168.11" y1="83.01" x2="168.02" y2="82.63"/>
    <line class="cls-1" x1="166.39" y1="75.61" x2="166.31" y2="75.26"/>
    <line class="cls-1" x1="164.67" y1="68.25" x2="164.6" y2="67.93"/>
    <line class="cls-1" x1="80.86" y1="109.36" x2="80.79" y2="108.54"/>
    <line class="cls-1" x1="80.11" y1="101" x2="80.02" y2="100.02"/>
    <line class="cls-1" x1="238.92" y1="75.28" x2="239.01" y2="75.63"/>
    <line class="cls-1" x1="236.59" y1="61.59" x2="236.66" y2="61.88"/>
    <line class="cls-1" x1="238.3" y1="68.36" x2="238.39" y2="68.69"/>
    <line class="cls-1" x1="241.7" y1="82" x2="241.77" y2="82.83"/>
    <line class="cls-1" x1="242.32" y1="89.22" x2="242.38" y2="89.91"/>
    <line class="cls-1" x1="170.43" y1="98.57" x2="170.36" y2="97.83"/>
    <line class="cls-1" x1="169.76" y1="90.92" x2="169.68" y2="90.03"/>
    <line class="cls-1" x1="245.01" y1="75.17" x2="246.41" y2="80.65"/>
    <path class="cls-1" d="M245.52,74h.06"/>
    <path class="cls-1" d="M271.09,74.47a1.32,1.32,0,0,1,.77.24,2.17,2.17,0,0,1,.57.6,3.35,3.35,0,0,1,.51,1.56"/>
    <line class="cls-1" x1="278.43" y1="76.32" x2="280.16" y2="101.12"/>
    <path class="cls-1" d="M275.9,73.07a1.79,1.79,0,0,1,1.06.32,2.86,2.86,0,0,1,.78.81,4.44,4.44,0,0,1,.69,2.12"/>
    <line class="cls-1" x1="245.58" y1="73.95" x2="275.9" y2="73.07"/>
    <line class="cls-1" x1="269.17" y1="100.57" x2="273.68" y2="100.96"/>
    <line class="cls-1" x1="273.68" y1="100.96" x2="273.69" y2="101.09"/>
    <path class="cls-1" d="M75.63,116.79a31.17,31.17,0,0,0,2.12,5,17.89,17.89,0,0,0,3.17,4.37"/>
    <line class="cls-1" x1="66.68" y1="69.81" x2="72.97" y2="100.45"/>
    <path class="cls-1" d="M73,100.45a8.33,8.33,0,0,1,.16,1.1"/>
    <line class="cls-1" x1="73.13" y1="101.55" x2="73.61" y2="106.87"/>
    <path class="cls-1" d="M73.61,106.87a44.69,44.69,0,0,0,2,9.92"/>
    <line class="cls-1" x1="268.57" y1="100.5" x2="268.57" y2="100.65"/>
    <line class="cls-1" x1="163.1" y1="83.14" x2="163.19" y2="83.52"/>
    <line class="cls-1" x1="159.68" y1="68.36" x2="159.76" y2="68.68"/>
    <path class="cls-1" d="M164.82,90.57c0,.23.07.45.09.68"/>
    <path class="cls-1" d="M165.61,98.4l.12.74"/>
    <path class="cls-1" d="M253.54,97.82l.39.13"/>
    <path class="cls-1" d="M258.41,99l.43.09"/>
    <line class="cls-1" x1="274.32" y1="101" x2="274.63" y2="101.01"/>
    <line class="cls-1" x1="254.13" y1="97.93" x2="258.42" y2="98.89"/>
    <line class="cls-1" x1="264.13" y1="99.92" x2="268.57" y2="100.5"/>
    <line class="cls-1" x1="161.39" y1="75.73" x2="161.47" y2="76.09"/>
    <path class="cls-1" d="M71,64.29a3,3,0,0,1,1.49-.54"/>
    <path class="cls-1" d="M67.81,66.57a2.94,2.94,0,0,0-1,1.45,3.4,3.4,0,0,0-.08,1.79"/>
    <line class="cls-1" x1="67.81" y1="66.57" x2="70.99" y2="64.29"/>
    <path class="cls-1" d="M236.69,51.19a2.33,2.33,0,0,1,1.1.21,3.24,3.24,0,0,1,.92.64A4.19,4.19,0,0,1,239.83,54"/>
    <line class="cls-1" x1="72.48" y1="63.75" x2="236.69" y2="51.19"/>
    <line class="cls-1" x1="239.83" y1="53.97" x2="239.64" y2="54.07"/>
    <line class="cls-1" x1="164.91" y1="91.25" x2="164.93" y2="91.47"/>
    <path class="cls-1" d="M263.53,100l.12,0"/>
    <path class="cls-1" d="M247,86.86a17.22,17.22,0,0,0,1.13,4.85A15.06,15.06,0,0,0,249.26,94a12.16,12.16,0,0,0,1.52,2"/>
    <line class="cls-1" x1="246.56" y1="81.57" x2="247.02" y2="86.86"/>
    <path class="cls-1" d="M246.41,80.65a4.77,4.77,0,0,1,.15.92"/>
    <line class="cls-1" x1="239.64" y1="54.07" x2="244.72" y2="74.03"/>
    <line class="cls-1" x1="281.09" y1="101.24" x2="281.58" y2="108.21"/>
    <path class="cls-1" d="M280.54,108.49a4.68,4.68,0,0,0,.54-.09l.27-.06.13,0,0,0,0,0s0,0,0,0v0"/>
    <path class="cls-1" d="M280.16,101.12l.48,0,.24,0a.35.35,0,0,1,.11,0h.08l0,0h0"/>
    <line class="cls-1" x1="259.17" y1="99.05" x2="263.53" y2="99.83"/>
    <line class="cls-1" x1="70.92" y1="68.34" x2="70.63" y2="68.55"/>
    <line class="cls-1" x1="239.38" y1="54.74" x2="240.89" y2="60.69"/>
    <line class="cls-1" x1="92.67" y1="122.85" x2="88.98" y2="121.72"/>
    <line class="cls-1" x1="259.17" y1="99.05" x2="263.53" y2="99.83"/>
    <path class="cls-1" d="M280.16,101.12l.48,0,.24,0a.35.35,0,0,1,.11,0h.08l0,0h0"/>
    <path class="cls-1" d="M280.54,108.49a4.68,4.68,0,0,0,.54-.09l.27-.06.13,0,0,0,0,0s0,0,0,0v0"/>
    <path class="cls-1" d="M105.94,133.76c.41,0,1,0,1.37,0s.92,0,1.37-.06c.88-.06,1.86-.16,2.73-.29"/>
    <line class="cls-1" x1="281.09" y1="101.24" x2="281.58" y2="108.21"/>
    <line class="cls-1" x1="77.55" y1="101.39" x2="77.18" y2="101.4"/>
    <line class="cls-1" x1="239.16" y1="54.11" x2="239.64" y2="54.07"/>
    <line class="cls-1" x1="239.64" y1="54.07" x2="244.72" y2="74.03"/>
    <path class="cls-1" d="M246.41,80.65a4.77,4.77,0,0,1,.15.92"/>
    <line class="cls-1" x1="246.09" y1="81.62" x2="246.16" y2="82.42"/>
    <line class="cls-1" x1="246.56" y1="81.57" x2="247.02" y2="86.86"/>
    <path class="cls-1" d="M247,86.86a17.22,17.22,0,0,0,1.13,4.85A15.06,15.06,0,0,0,249.26,94a12.16,12.16,0,0,0,1.52,2"/>
    <line class="cls-1" x1="75.94" y1="92.6" x2="75.58" y2="92.82"/>
    <line class="cls-1" x1="74.26" y1="84.48" x2="73.9" y2="84.71"/>
    <line class="cls-1" x1="242.82" y1="68.26" x2="244.3" y2="74.08"/>
    <path class="cls-1" d="M246,81.11c0,.17,0,.34.07.51"/>
    <line class="cls-1" x1="249.05" y1="94.97" x2="248.73" y2="95.23"/>
    <line class="cls-1" x1="78.28" y1="109.67" x2="78.1" y2="109.88"/>
    <path class="cls-1" d="M263.53,100l.12,0"/>
    <line class="cls-1" x1="240.85" y1="60.72" x2="241.04" y2="61.49"/>
    <line class="cls-1" x1="164.91" y1="91.25" x2="164.93" y2="91.47"/>
    <line class="cls-1" x1="72.59" y1="76.39" x2="72.23" y2="76.63"/>
    <line class="cls-1" x1="241.09" y1="61.49" x2="242.61" y2="67.46"/>
    <line class="cls-1" x1="239.83" y1="53.97" x2="239.64" y2="54.07"/>
    <line class="cls-1" x1="72.48" y1="63.75" x2="236.69" y2="51.19"/>
    <path class="cls-1" d="M236.69,51.19a2.33,2.33,0,0,1,1.1.21,3.24,3.24,0,0,1,.92.64A4.19,4.19,0,0,1,239.83,54"/>
    <line class="cls-1" x1="67.81" y1="66.57" x2="70.99" y2="64.29"/>
    <path class="cls-1" d="M67.81,66.57a2.94,2.94,0,0,0-1,1.45,3.4,3.4,0,0,0-.08,1.79"/>
    <path class="cls-1" d="M71,64.29a3,3,0,0,1,1.49-.54"/>
    <line class="cls-1" x1="69.85" y1="67.55" x2="239.83" y2="53.97"/>
    <path class="cls-1" d="M69.85,67.55a3.44,3.44,0,0,1,.08-1.8A2.88,2.88,0,0,1,71,64.29"/>
    <line class="cls-1" x1="161.39" y1="75.73" x2="161.47" y2="76.09"/>
    <line class="cls-1" x1="264.13" y1="99.92" x2="268.57" y2="100.5"/>
    <line class="cls-1" x1="254.13" y1="97.93" x2="258.42" y2="98.89"/>
    <line class="cls-1" x1="96.93" y1="123.9" x2="93.17" y2="122.99"/>
    <line class="cls-1" x1="274.32" y1="101" x2="274.63" y2="101.01"/>
    <path class="cls-1" d="M258.41,99l.43.09"/>
    <path class="cls-1" d="M253.54,97.82l.39.13"/>
    <path class="cls-1" d="M277.6,101.38l.55,0"/>
    <line class="cls-1" x1="242.57" y1="67.49" x2="242.77" y2="68.27"/>
    <path class="cls-1" d="M165.61,98.4l.12.74"/>
    <path class="cls-1" d="M164.82,90.57c0,.23.07.45.09.68"/>
    <line class="cls-1" x1="159.68" y1="68.36" x2="159.76" y2="68.68"/>
    <line class="cls-1" x1="163.1" y1="83.14" x2="163.19" y2="83.52"/>
    <line class="cls-1" x1="92.67" y1="122.85" x2="104.43" y2="121.26"/>
    <line class="cls-1" x1="88.98" y1="121.72" x2="89" y2="122.21"/>
    <line class="cls-1" x1="280.05" y1="101.5" x2="110.76" y2="125.08"/>
    <path class="cls-1" d="M110.76,125.08c-.88.12-1.85.22-2.74.28l-1.37.07c-.41,0-1,0-1.37,0"/>
    <line class="cls-1" x1="80.39" y1="116.39" x2="103.82" y2="113.42"/>
    <line class="cls-1" x1="268.57" y1="100.5" x2="268.57" y2="100.65"/>
    <line class="cls-1" x1="99.09" y1="123.6" x2="104.56" y2="122.86"/>
    <line class="cls-1" x1="93.17" y1="122.99" x2="93.19" y2="123.47"/>
    <line class="cls-1" x1="88.34" y1="121.49" x2="104.29" y2="119.38"/>
    <line class="cls-1" x1="84.73" y1="120.14" x2="84.74" y2="120.65"/>
    <line class="cls-1" x1="80.81" y1="116.61" x2="80.74" y2="117.13"/>
    <path class="cls-1" d="M73.61,106.87a44.69,44.69,0,0,0,2,9.92"/>
    <line class="cls-1" x1="73.13" y1="101.55" x2="73.61" y2="106.87"/>
    <path class="cls-1" d="M73,100.45a8.33,8.33,0,0,1,.16,1.1"/>
    <line class="cls-1" x1="66.68" y1="69.81" x2="72.97" y2="100.45"/>
    <line class="cls-1" x1="69.7" y1="67.66" x2="66.68" y2="69.81"/>
    <line class="cls-1" x1="69.7" y1="67.66" x2="70.37" y2="67.61"/>
    <path class="cls-1" d="M75.63,116.79a31.17,31.17,0,0,0,2.12,5,17.89,17.89,0,0,0,3.17,4.37"/>
    <line class="cls-1" x1="273.68" y1="100.96" x2="273.69" y2="101.09"/>
    <line class="cls-1" x1="97.44" y1="124.01" x2="97.47" y2="124.48"/>
    <line class="cls-1" x1="269.17" y1="100.57" x2="273.68" y2="100.96"/>
    <path class="cls-1" d="M231.39,54.73a.85.85,0,0,0-.22,0l-.21.07"/>
    <line class="cls-1" x1="239.16" y1="54.11" x2="231.39" y2="54.73"/>
    <line class="cls-1" x1="239.16" y1="54.11" x2="239.33" y2="54.75"/>
    <line class="cls-1" x1="230.96" y1="54.84" x2="229.63" y2="55.53"/>
    <line class="cls-1" x1="75.55" y1="92.69" x2="74.87" y2="92.76"/>
    <line class="cls-1" x1="74.87" y1="92.76" x2="75.29" y2="92.49"/>
    <line class="cls-1" x1="74.68" y1="91.8" x2="75.09" y2="91.54"/>
    <path class="cls-1" d="M102.93,95.55a7.61,7.61,0,0,0-.58-2.38,4,4,0,0,0-.64-1,2,2,0,0,0-.46-.4,1,1,0,0,0-.3-.13.87.87,0,0,0-.28,0"/>
    <path class="cls-1" d="M107.66,90.82a.9.9,0,0,1,.28,0,1.3,1.3,0,0,1,.3.13,1.91,1.91,0,0,1,.46.39,3.87,3.87,0,0,1,.65,1,7.17,7.17,0,0,1,.58,2.37"/>
    <path class="cls-1" d="M100.75,92.61a.9.9,0,0,1,.43.13,1.63,1.63,0,0,1,.34.3,3.12,3.12,0,0,1,.47.76,5.82,5.82,0,0,1,.42,1.75"/>
    <path class="cls-1" d="M75.29,92.49a.21.21,0,0,1,.12,0"/>
    <path class="cls-1" d="M75.28,91.47a.34.34,0,0,0-.19.07"/>
    <path class="cls-1" d="M82,90.78h0"/>
    <line class="cls-1" x1="104.57" y1="123.03" x2="99.47" y2="123.73"/>
    <path class="cls-1" d="M240.79,74.44h0"/>
    <line class="cls-1" x1="245.58" y1="73.95" x2="275.9" y2="73.07"/>
    <path class="cls-1" d="M275.9,73.07a1.79,1.79,0,0,1,1.06.32,2.86,2.86,0,0,1,.78.81,4.44,4.44,0,0,1,.69,2.12"/>
    <line class="cls-1" x1="278.43" y1="76.32" x2="280.16" y2="101.12"/>
    <path class="cls-1" d="M271.09,74.47a1.32,1.32,0,0,1,.77.24,2.17,2.17,0,0,1,.57.6,3.35,3.35,0,0,1,.51,1.56"/>
    <path class="cls-1" d="M240.71,75.32l.11,0"/>
    <path class="cls-1" d="M240.74,74.44a.67.67,0,0,0-.24.07"/>
    <path class="cls-1" d="M245.52,74h.06"/>
    <path class="cls-1" d="M240.82,75.28h0"/>
    <line class="cls-1" x1="244.33" y1="75.19" x2="244.33" y2="75.19"/>
    <path class="cls-1" d="M273.55,76.85a4.55,4.55,0,0,0-.69-2.13,2.73,2.73,0,0,0-.78-.81,1.8,1.8,0,0,0-1.06-.33"/>
    <line class="cls-1" x1="75.51" y1="92.47" x2="75.5" y2="92.46"/>
    <line class="cls-1" x1="101.29" y1="125.16" x2="101.26" y2="124.69"/>
    <line class="cls-1" x1="266.12" y1="110.93" x2="266.16" y2="110.92"/>
    <line class="cls-1" x1="266.81" y1="110.83" x2="266.16" y2="110.92"/>
    <line class="cls-1" x1="266.81" y1="110.83" x2="266.81" y2="110.52"/>
    <line class="cls-1" x1="166.42" y1="59.92" x2="157.61" y2="60.63"/>
    <line class="cls-1" x1="157.16" y1="60.75" x2="155.92" y2="61.48"/>
    <path class="cls-1" d="M157.61,60.63l-.23,0-.22.08"/>
    <line class="cls-1" x1="166.57" y1="59.95" x2="166.73" y2="60.61"/>
    <path class="cls-1" d="M166.57,60s0,0,0,0h-.12"/>
    <line class="cls-1" x1="81.14" y1="66.75" x2="70.37" y2="67.61"/>
    <line class="cls-1" x1="70.56" y1="68.55" x2="70.63" y2="68.55"/>
    <line class="cls-1" x1="81.35" y1="66.78" x2="81.5" y2="67.49"/>
    <path class="cls-1" d="M81.35,66.78s0,0,0,0h-.17"/>
    <line class="cls-1" x1="72.04" y1="75.68" x2="72.39" y2="75.44"/>
    <line class="cls-1" x1="77.92" y1="108.85" x2="78.22" y2="108.85"/>
    <line class="cls-1" x1="245.01" y1="75.17" x2="246.41" y2="80.65"/>
    <line class="cls-1" x1="244.58" y1="75.18" x2="246.08" y2="81.08"/>
    <line class="cls-1" x1="80.35" y1="116.44" x2="80.39" y2="116.39"/>
    <line class="cls-1" x1="73.71" y1="83.76" x2="74.06" y2="83.52"/>
    <line class="cls-1" x1="69.7" y1="67.66" x2="69.85" y2="67.55"/>
    <path class="cls-1" d="M104.09,133.55a6.64,6.64,0,0,1-1.36.47c-.46.11-1,.2-1.42.27"/>
    <line class="cls-1" x1="100.32" y1="132.97" x2="100.36" y2="135.45"/>
    <line class="cls-1" x1="88.35" y1="121.99" x2="88.34" y2="121.49"/>
    <line class="cls-1" x1="104.74" y1="125.12" x2="101.8" y2="124.77"/>
    <line class="cls-1" x1="84.18" y1="120.42" x2="84.25" y2="119.85"/>
    <path class="cls-1" d="M272.75,101.09l.6,0"/>
    <line class="cls-1" x1="92.68" y1="123.33" x2="92.67" y2="122.85"/>
    <line class="cls-1" x1="111.93" y1="120.25" x2="263.53" y2="99.83"/>
    <line class="cls-1" x1="104.31" y1="119.67" x2="88.98" y2="121.72"/>
    <line class="cls-1" x1="77.16" y1="92.47" x2="75.94" y2="92.6"/>
    <line class="cls-1" x1="111.32" y1="112.46" x2="249.05" y2="94.97"/>
    <line class="cls-1" x1="96.95" y1="124.37" x2="96.93" y2="123.9"/>
    <line class="cls-1" x1="112.05" y1="121.84" x2="268.57" y2="100.5"/>
    <line class="cls-1" x1="104.45" y1="121.46" x2="93.17" y2="122.99"/>
    <line class="cls-1" x1="111.78" y1="118.38" x2="258.42" y2="98.89"/>
    <line class="cls-1" x1="111.61" y1="116.27" x2="253.57" y2="97.71"/>
    <line class="cls-1" x1="103.84" y1="113.68" x2="80.81" y2="116.61"/>
    <line class="cls-1" x1="169.76" y1="90.92" x2="169.68" y2="90.03"/>
    <line class="cls-1" x1="170.43" y1="98.57" x2="170.36" y2="97.83"/>
    <line class="cls-1" x1="166.24" y1="98.32" x2="166.31" y2="99.07"/>
    <line class="cls-1" x1="165.55" y1="90.49" x2="165.63" y2="91.39"/>
    <line class="cls-1" x1="166.62" y1="98.28" x2="166.69" y2="99.02"/>
    <line class="cls-1" x1="165.93" y1="90.45" x2="166.01" y2="91.34"/>
    <line class="cls-1" x1="244.96" y1="82.48" x2="244.89" y2="81.62"/>
    <line class="cls-1" x1="245.57" y1="89.52" x2="245.51" y2="88.84"/>
    <line class="cls-1" x1="242.11" y1="81.96" x2="242.18" y2="82.78"/>
    <line class="cls-1" x1="242.32" y1="89.22" x2="242.38" y2="89.91"/>
    <line class="cls-1" x1="241.7" y1="82" x2="241.77" y2="82.83"/>
    <line class="cls-1" x1="241.49" y1="68" x2="241.59" y2="68.38"/>
    <line class="cls-1" x1="239.77" y1="61.25" x2="239.86" y2="61.6"/>
    <line class="cls-1" x1="238.3" y1="68.36" x2="238.39" y2="68.69"/>
    <line class="cls-1" x1="236.59" y1="61.59" x2="236.66" y2="61.88"/>
    <line class="cls-1" x1="238.92" y1="75.28" x2="239.01" y2="75.63"/>
    <line class="cls-1" x1="238.72" y1="68.32" x2="238.8" y2="68.65"/>
    <line class="cls-1" x1="237" y1="61.55" x2="237.08" y2="61.85"/>
    <line class="cls-1" x1="80.11" y1="101" x2="80.02" y2="100.02"/>
    <line class="cls-1" x1="80.86" y1="109.36" x2="80.79" y2="108.54"/>
    <path class="cls-1" d="M262.75,111.12c.56,0,1.13,0,1.69,0s1.14-.08,1.68-.16"/>
    <line class="cls-1" x1="164.28" y1="83.02" x2="164.36" y2="83.4"/>
    <line class="cls-1" x1="162.56" y1="75.62" x2="162.64" y2="75.97"/>
    <line class="cls-1" x1="160.85" y1="68.26" x2="160.93" y2="68.58"/>
    <line class="cls-1" x1="164.67" y1="68.25" x2="164.6" y2="67.93"/>
    <line class="cls-1" x1="166.39" y1="75.61" x2="166.31" y2="75.26"/>
    <line class="cls-1" x1="168.11" y1="83.01" x2="168.02" y2="82.63"/>
    <line class="cls-1" x1="163.89" y1="83.06" x2="163.98" y2="83.44"/>
    <line class="cls-1" x1="162.17" y1="75.66" x2="162.26" y2="76.01"/>
    <line class="cls-1" x1="160.47" y1="68.29" x2="160.54" y2="68.61"/>
    <line class="cls-1" x1="75.13" y1="76.17" x2="75.05" y2="75.82"/>
    <line class="cls-1" x1="76.8" y1="84.23" x2="76.72" y2="83.85"/>
    <line class="cls-1" x1="266.17" y1="110.61" x2="266.16" y2="110.92"/>
    <line class="cls-1" x1="239.63" y1="61.32" x2="72.12" y2="76.08"/>
    <line class="cls-1" x1="240.89" y1="60.69" x2="239.63" y2="61.32"/>
    <line class="cls-1" x1="72.39" y1="75.44" x2="240.89" y2="60.69"/>
    <line class="cls-1" x1="239.38" y1="54.74" x2="70.92" y2="68.34"/>
    <line class="cls-1" x1="72.39" y1="75.44" x2="70.92" y2="68.34"/>
    <line class="cls-1" x1="263.53" y1="99.83" x2="263.53" y2="100"/>
    <line class="cls-1" x1="259.17" y1="99.05" x2="111.8" y2="118.68"/>
    <line class="cls-1" x1="111.41" y1="133.45" x2="280.54" y2="108.49"/>
    <line class="cls-1" x1="105.28" y1="125.41" x2="105.94" y2="133.76"/>
    <line class="cls-1" x1="280.16" y1="101.12" x2="105.28" y2="125.41"/>
    <path class="cls-1" d="M281.09,101.24v0l0,0,0,0,0,0-.13,0-.27,0a5.07,5.07,0,0,1-.54.09"/>
    <line class="cls-1" x1="78.22" y1="108.85" x2="103.22" y2="105.86"/>
    <line class="cls-1" x1="110.73" y1="104.96" x2="246.71" y2="88.69"/>
    <line class="cls-1" x1="244.8" y1="82.49" x2="110.15" y2="97.62"/>
    <line class="cls-1" x1="102.64" y1="98.47" x2="77.17" y2="101.33"/>
    <line class="cls-1" x1="246.17" y1="82.42" x2="110.16" y2="97.73"/>
    <line class="cls-1" x1="102.64" y1="98.57" x2="77.55" y2="101.39"/>
    <line class="cls-1" x1="244.8" y1="82.49" x2="246.17" y2="82.42"/>
    <line class="cls-1" x1="78.22" y1="108.85" x2="77.55" y2="101.39"/>
    <line class="cls-1" x1="246.17" y1="82.42" x2="246.71" y2="88.69"/>
    <path class="cls-1" d="M246.62,87.63a17.39,17.39,0,0,0,1,4,13.64,13.64,0,0,0,2,3.56"/>
    <line class="cls-1" x1="77.04" y1="100.03" x2="77.42" y2="99.79"/>
    <line class="cls-1" x1="244.8" y1="81.66" x2="110.08" y2="96.67"/>
    <line class="cls-1" x1="102.56" y1="97.51" x2="77.08" y2="100.35"/>
    <line class="cls-1" x1="246.08" y1="81.08" x2="244.8" y2="81.66"/>
    <line class="cls-1" x1="77.42" y1="99.79" x2="102.52" y2="97.01"/>
    <line class="cls-1" x1="110.04" y1="96.18" x2="246.08" y2="81.08"/>
    <line class="cls-1" x1="242.97" y1="75.22" x2="93.29" y2="90.79"/>
    <line class="cls-1" x1="77.42" y1="99.79" x2="75.94" y2="92.6"/>
    <line class="cls-1" x1="238.92" y1="75.28" x2="89.3" y2="90.79"/>
    <line class="cls-1" x1="84.12" y1="90.78" x2="240.11" y2="74.69"/>
    <line class="cls-1" x1="242.82" y1="68.26" x2="74.26" y2="84.48"/>
    <line class="cls-1" x1="75.69" y1="91.42" x2="74.26" y2="84.48"/>
    <line class="cls-1" x1="246.75" y1="89.38" x2="110.79" y2="105.75"/>
    <line class="cls-1" x1="103.28" y1="106.66" x2="78.28" y2="109.67"/>
    <line class="cls-1" x1="80.39" y1="116.39" x2="78.28" y2="109.67"/>
    <line class="cls-1" x1="246.75" y1="89.38" x2="249.05" y2="94.97"/>
    <line class="cls-1" x1="241.35" y1="68.07" x2="73.78" y2="84.13"/>
    <line class="cls-1" x1="242.61" y1="67.46" x2="241.35" y2="68.07"/>
    <line class="cls-1" x1="74.06" y1="83.52" x2="242.61" y2="67.46"/>
    <line class="cls-1" x1="241.09" y1="61.49" x2="72.59" y2="76.39"/>
    <line class="cls-1" x1="74.06" y1="83.52" x2="72.59" y2="76.39"/>
    <line class="cls-1" x1="101.28" y1="135.31" x2="101.24" y2="133.13"/>
    <line class="cls-1" x1="264.13" y1="99.92" x2="111.94" y2="120.45"/>
    <line class="cls-1" x1="258.42" y1="98.89" x2="258.41" y2="99.15"/>
    <line class="cls-1" x1="254.13" y1="97.93" x2="111.64" y2="116.61"/>
    <line class="cls-1" x1="104.14" y1="117.6" x2="84.73" y2="120.14"/>
    <line class="cls-1" x1="88.34" y1="121.49" x2="84.73" y2="120.14"/>
    <line class="cls-1" x1="112.25" y1="124.32" x2="274.68" y2="101.78"/>
    <line class="cls-1" x1="101.8" y1="124.77" x2="101.84" y2="125.24"/>
    <line class="cls-1" x1="274.32" y1="101" x2="112.17" y2="123.34"/>
    <line class="cls-1" x1="104.68" y1="124.38" x2="101.8" y2="124.77"/>
    <line class="cls-1" x1="253.57" y1="97.71" x2="253.5" y2="98.01"/>
    <line class="cls-1" x1="84.25" y1="119.85" x2="104.12" y2="117.25"/>
    <line class="cls-1" x1="249.55" y1="95.13" x2="111.33" y2="112.72"/>
    <line class="cls-1" x1="84.25" y1="119.85" x2="80.81" y2="116.61"/>
    <line class="cls-1" x1="249.55" y1="95.13" x2="253.57" y2="97.71"/>
    <path class="cls-1" d="M105.42,133.71a76.51,76.51,0,0,1-22-5.84"/>
    <path class="cls-1" d="M84.08,120.38a73.29,73.29,0,0,0,20.7,5.21"/>
    <path class="cls-1" d="M104.79,125.76a73.11,73.11,0,0,1-21.39-5.29"/>
    <line class="cls-1" x1="76.93" y1="99.38" x2="75.55" y2="92.69"/>
    <line class="cls-1" x1="75.3" y1="91.47" x2="70.37" y2="67.61"/>
    <line class="cls-1" x1="76.26" y1="99.45" x2="74.87" y2="92.76"/>
    <line class="cls-1" x1="74.68" y1="91.8" x2="69.7" y2="67.66"/>
    <path class="cls-1" d="M77.09,100.48a8.1,8.1,0,0,0-.16-1.1"/>
    <path class="cls-1" d="M76.42,100.55a10.41,10.41,0,0,0-.16-1.1"/>
    <line class="cls-1" x1="77.66" y1="106.78" x2="77.09" y2="100.48"/>
    <line class="cls-1" x1="76.99" y1="106.86" x2="76.42" y2="100.55"/>
    <path class="cls-1" d="M84.08,120.38a4.69,4.69,0,0,1-.8-.42,8.67,8.67,0,0,1-.82-.65c-.22-.22-.43-.44-.64-.68s-.42-.53-.62-.81a16.69,16.69,0,0,1-1.81-3.45,26.73,26.73,0,0,1-1.13-3.73,31.59,31.59,0,0,1-.6-3.86"/>
    <path class="cls-1" d="M83.4,120.47a4.11,4.11,0,0,1-.8-.43,5.63,5.63,0,0,1-.81-.65,6.75,6.75,0,0,1-.64-.67,9.77,9.77,0,0,1-.63-.81,17,17,0,0,1-1.8-3.46,24.29,24.29,0,0,1-1.13-3.73,28.15,28.15,0,0,1-.6-3.86"/>
    <line class="cls-1" x1="101.26" y1="124.69" x2="104.67" y2="124.22"/>
    <line class="cls-1" x1="112.16" y1="123.19" x2="273.68" y2="100.96"/>
    <line class="cls-1" x1="269.17" y1="100.57" x2="112.06" y2="122.01"/>
    <line class="cls-1" x1="101.26" y1="124.69" x2="97.44" y2="124.01"/>
    <line class="cls-1" x1="75.29" y1="92.49" x2="75.62" y2="92.46"/>
    <path class="cls-1" d="M75.33,91.46h0"/>
    <line class="cls-1" x1="100.67" y1="91.55" x2="75.33" y2="91.46"/>
    <line class="cls-1" x1="82.04" y1="90.77" x2="107.66" y2="90.82"/>
    <line class="cls-1" x1="112.25" y1="124.44" x2="109.93" y2="94.79"/>
    <line class="cls-1" x1="105.28" y1="125.41" x2="102.93" y2="95.55"/>
    <line class="cls-1" x1="102.41" y1="95.55" x2="105.42" y2="133.71"/>
    <line class="cls-1" x1="75.41" y1="92.46" x2="100.75" y2="92.61"/>
    <line class="cls-1" x1="74.68" y1="91.8" x2="74.87" y2="92.76"/>
    <line class="cls-1" x1="75.28" y1="91.47" x2="82" y2="90.78"/>
    <line class="cls-1" x1="242.72" y1="89.17" x2="242.78" y2="89.86"/>
    <line class="cls-1" x1="240.31" y1="75.5" x2="240.71" y2="75.32"/>
    <line class="cls-1" x1="240.5" y1="74.51" x2="240.11" y2="74.69"/>
    <line class="cls-1" x1="271.02" y1="73.58" x2="240.79" y2="74.44"/>
    <line class="cls-1" x1="273.55" y1="76.85" x2="275.3" y2="101.79"/>
    <line class="cls-1" x1="274.69" y1="101.88" x2="272.94" y2="76.87"/>
    <line class="cls-1" x1="240.85" y1="75.28" x2="271.09" y2="74.47"/>
    <line class="cls-1" x1="240.74" y1="74.44" x2="245.52" y2="73.95"/>
    <line class="cls-1" x1="96.93" y1="123.9" x2="99.09" y2="123.6"/>
    <line class="cls-1" x1="99.47" y1="123.73" x2="97.44" y2="124.01"/>
  </g>
  <line class="cls-2" x1="80.08" y1="125.54" x2="38.26" y2="130.92"/>
  <line class="cls-2" x1="57.83" y1="203.1" x2="317.71" y2="149.71"/>
  <line class="cls-2" x1="57.83" y1="203.1" x2="317.71" y2="149.71"/>
  <line class="cls-2" x1="59.97" y1="147.81" x2="317.75" y2="108.27"/>
  <line class="cls-2" x1="80.08" y1="125.54" x2="38.26" y2="130.92"/>
  <line class="cls-2" x1="273.84" y1="96.6" x2="258.71" y2="98.92"/>
  <line class="cls-1" x1="239.45" y1="21.8" x2="282.04" y2="25.33"/>
  <line class="cls-1" x1="36.85" y1="115.45" x2="36.85" y2="57.76"/>
  <line class="cls-1" x1="63.89" y1="63.11" x2="32.45" y2="56.73"/>
  <line class="cls-1" x1="79.97" y1="128.52" x2="32.57" y2="114.2"/>
  <line class="cls-1" x1="66.19" y1="30.25" x2="236.49" y2="21.99"/>
  <line class="cls-1" x1="66.09" y1="62.39" x2="66.09" y2="26.07"/>
  <line class="cls-1" x1="239.03" y1="47.08" x2="239.03" y2="17.65"/>
  <polyline class="cls-3" points="239 21.78 233.38 20.66 233.51 23.43 239 21.78"/>
  <polyline class="cls-3" points="239 21.73 244.65 20.77 244.43 23.55 239 21.73"/>
  <polyline class="cls-3" points="282.21 25.35 276.56 26.31 276.78 23.54 282.21 25.35"/>
  <polyline class="cls-3" points="66.1 30.32 71.73 31.41 71.58 28.64 66.1 30.32"/>
  <polyline class="cls-3" points="36.9 57.68 35.49 63.24 38.27 63.25 36.9 57.68"/>
  <polyline class="cls-3" points="36.86 115.47 38.27 109.92 35.49 109.91 36.86 115.47"/>
  <g>
    <g>
      <path class="cls-4" d="M256.6,16a2.2,2.2,0,0,1,1.55.73,2.19,2.19,0,0,1-.27,3.08,2.32,2.32,0,0,1-1.69.47,2.11,2.11,0,0,1-1.63-.92,3.21,3.21,0,0,1-.48-2.15,4,4,0,0,1,1-2.56,2.86,2.86,0,0,1,3.86,0l-.47.6a2,2,0,0,0-2.84-.05,2.51,2.51,0,0,0-.76,1.65,1.58,1.58,0,0,1,.71-.64A2,2,0,0,1,256.6,16Zm-1.35,3.05a1.38,1.38,0,0,0,1,.49,1.35,1.35,0,0,0,1.06-.32,1.43,1.43,0,0,0,.5-1,1.31,1.31,0,0,0-.33-1,1.39,1.39,0,0,0-1-.48,1.41,1.41,0,0,0-1.07.31,1.32,1.32,0,0,0-.49,1A1.35,1.35,0,0,0,255.25,19.07Z"/>
      <path class="cls-4" d="M259.68,20.51a11.57,11.57,0,0,1,3.25-5.33l-3.53-.29.06-.73,4.38.36-.06.73q-2.88,3.13-3.26,5.33Z"/>
      <path class="cls-4" d="M263.57,20.83l.05-.71,2.53-1.85a2.46,2.46,0,0,0,1.2-1.64,1.13,1.13,0,0,0-.26-.87,1.38,1.38,0,0,0-1.89,0,1.45,1.45,0,0,0-.38,1.1l-.78-.11a2,2,0,0,1,.64-1.57,2,2,0,0,1,1.62-.49,2.12,2.12,0,0,1,1.44.63,1.77,1.77,0,0,1,.45,1.42,2.18,2.18,0,0,1-.42,1.1,5.13,5.13,0,0,1-1.16,1.07l-1.83,1.32,3.11.25-.06.74Z"/>
    </g>
    <g>
      <path class="cls-4" d="M249.87,31.87l0-.71,2.53-1.85a2.42,2.42,0,0,0,1.19-1.64,1.13,1.13,0,0,0-.26-.87,1.41,1.41,0,0,0-1.89,0,1.48,1.48,0,0,0-.37,1.11l-.79-.12a2.06,2.06,0,0,1,.64-1.57,2,2,0,0,1,1.62-.49,2.11,2.11,0,0,1,1.45.64,1.77,1.77,0,0,1,.45,1.41,2.07,2.07,0,0,1-.43,1.1,4.65,4.65,0,0,1-1.15,1.07l-1.83,1.32,3.1.25-.06.74Z"/>
      <path class="cls-4" d="M257.57,28.26a2.15,2.15,0,0,1,1.54.73,2,2,0,0,1,.5,1.59,2,2,0,0,1-.76,1.49,2.32,2.32,0,0,1-1.69.47,2.09,2.09,0,0,1-1.63-.92,3.21,3.21,0,0,1-.48-2.15,4,4,0,0,1,1-2.56,2.86,2.86,0,0,1,3.86,0l-.47.6a2,2,0,0,0-2.84,0,2.51,2.51,0,0,0-.76,1.65,1.58,1.58,0,0,1,.71-.64A2,2,0,0,1,257.57,28.26Zm-1.35,3.06a1.39,1.39,0,0,0,1,.48,1.37,1.37,0,0,0,1.06-.32,1.43,1.43,0,0,0,.5-1,1.35,1.35,0,0,0-.33-1.05,1.44,1.44,0,0,0-1-.49,1.46,1.46,0,0,0-1.07.32,1.34,1.34,0,0,0-.49,1A1.39,1.39,0,0,0,256.22,31.32Z"/>
      <path class="cls-4" d="M260.47,31.8l.88.07-.08.93-.88-.07Z"/>
      <path class="cls-4" d="M264.28,33.12a2.5,2.5,0,0,1-1.49-.59,1.94,1.94,0,0,1-.64-1.33l.78-.07a1.29,1.29,0,0,0,.42.87,1.6,1.6,0,0,0,1,.38,1.29,1.29,0,0,0,1-.31,1.41,1.41,0,0,0,.46-1A1.36,1.36,0,0,0,265.5,30a1.5,1.5,0,0,0-1-.47,1.59,1.59,0,0,0-1.45.65l-.59-.18.78-3.38,3.35.27-.06.73-2.75-.23-.42,1.87a1.93,1.93,0,0,1,.62-.33,2,2,0,0,1,.71-.09,2.17,2.17,0,0,1,1.53.71,2,2,0,0,1,.48,1.58,2.13,2.13,0,0,1-.73,1.52A2.17,2.17,0,0,1,264.28,33.12Z"/>
      <path class="cls-4" d="M268.82,27l-.63,1.74-1-.08,1.1-1.7Zm1.33.11-.63,1.74-1-.08,1.1-1.7Z"/>
    </g>
  </g>
  <g>
    <g>
      <path class="cls-4" d="M33.78,90.9a2.41,2.41,0,0,1-.47,1.53,1.89,1.89,0,0,1-1.27.74l-.13-.76a1.32,1.32,0,0,0,.83-.49,1.63,1.63,0,0,0,.3-1,1.34,1.34,0,0,0-.39-1,1.42,1.42,0,0,0-1-.37,1.38,1.38,0,0,0-1,.39A1.5,1.5,0,0,0,30.2,91a1.6,1.6,0,0,0,.76,1.4l-.13.59-3.43-.49V89.14h.73V91.9l1.89.27a2,2,0,0,1-.38-.6,1.94,1.94,0,0,1-.14-.7,2.17,2.17,0,0,1,.58-1.58,2,2,0,0,1,1.54-.6,2.09,2.09,0,0,1,1.57.6A2.17,2.17,0,0,1,33.78,90.9Z"/>
      <path class="cls-4" d="M33.71,86.93H28.43a2.91,2.91,0,0,1,.7,1.5H28.4a2.84,2.84,0,0,0-1-1.63v-.64h6.31Z"/>
      <path class="cls-4" d="M33.78,82.92a2.43,2.43,0,0,1-.47,1.53,1.89,1.89,0,0,1-1.27.74l-.13-.77a1.28,1.28,0,0,0,.83-.49,1.6,1.6,0,0,0,.3-1,1.33,1.33,0,0,0-.39-1,1.42,1.42,0,0,0-1-.37,1.38,1.38,0,0,0-1,.39A1.5,1.5,0,0,0,30.2,83,1.58,1.58,0,0,0,31,84.42l-.13.6-3.43-.5V81.16h.73v2.76l1.89.27a2,2,0,0,1-.52-1.3,2.17,2.17,0,0,1,.58-1.58,2,2,0,0,1,1.54-.6,2.09,2.09,0,0,1,1.57.6A2.16,2.16,0,0,1,33.78,82.92Z"/>
    </g>
    <g>
      <path class="cls-4" d="M45.83,97.35h-.71l-2-2.37a2.46,2.46,0,0,0-1.73-1.06,1.13,1.13,0,0,0-.85.33,1.23,1.23,0,0,0-.31.88,1.21,1.21,0,0,0,.43,1,1.44,1.44,0,0,0,1.13.28l-.06.8a2.08,2.08,0,0,1-1.61-.51,2,2,0,0,1-.62-1.58A2.1,2.1,0,0,1,40,93.65a1.74,1.74,0,0,1,1.37-.56,2.17,2.17,0,0,1,1.13.33,5,5,0,0,1,1.16,1.06l1.46,1.72V93.09h.74Z"/>
      <path class="cls-4" d="M45.91,89.78a2.09,2.09,0,0,1-.87,1.8,4,4,0,0,1-2.36.62,4,4,0,0,1-2.36-.62,2.09,2.09,0,0,1-.87-1.8A2.06,2.06,0,0,1,40.32,88,4.72,4.72,0,0,1,45,88,2.07,2.07,0,0,1,45.91,89.78Zm-.74,0a1.29,1.29,0,0,0-.67-1.15,3.41,3.41,0,0,0-1.82-.42,3.44,3.44,0,0,0-1.83.42,1.28,1.28,0,0,0-.67,1.15A1.29,1.29,0,0,0,40.85,91a4.36,4.36,0,0,0,3.65,0A1.31,1.31,0,0,0,45.17,89.78Z"/>
      <path class="cls-4" d="M44.9,86.38V85.5h.93v.88Z"/>
      <path class="cls-4" d="M45.91,82.4a2.37,2.37,0,0,1-.5,1.54,1.86,1.86,0,0,1-1.33.71L44,83.88a1.3,1.3,0,0,0,.87-.47,1.55,1.55,0,0,0,.33-1,1.49,1.49,0,0,0-.36-1.05,1.22,1.22,0,0,0-1-.4,1.27,1.27,0,0,0-1,.37,1.46,1.46,0,0,0-.34,1,1.32,1.32,0,0,0,.2.7l-.52.35-2-2v3.07h-.73v-4h.71L42,82.23a2,2,0,0,1,.43-1.53,1.84,1.84,0,0,1,1.46-.59,1.89,1.89,0,0,1,1.48.62A2.44,2.44,0,0,1,45.91,82.4Z"/>
      <path class="cls-4" d="M39.45,76.6l1.78.48v1l-1.78-1Zm0,1.33,1.78.49v1l-1.78-1Z"/>
    </g>
  </g>
  <line class="cls-5" x1="282.15" y1="21.05" x2="282.15" y2="100.46"/>
  <g>
    <g>
      <path class="cls-4" d="M147.83,23.69l-.25-5.27a2.86,2.86,0,0,1-1.46.77l0-.72a2.78,2.78,0,0,0,1.57-1.08l.65,0,.31,6.29Z"/>
      <path class="cls-4" d="M151.86,23.56a2.44,2.44,0,0,1-1.65-.43,1.64,1.64,0,0,1-.69-1.33,1.59,1.59,0,0,1,.27-1,1.64,1.64,0,0,1,.84-.64,1.71,1.71,0,0,1-.71-.52,1.38,1.38,0,0,1-.29-.76,1.49,1.49,0,0,1,.49-1.22,2.15,2.15,0,0,1,1.43-.53,2.09,2.09,0,0,1,1.44.39,1.49,1.49,0,0,1,.39,2,1.56,1.56,0,0,1-.65.57,1.7,1.7,0,0,1,.89.56,1.62,1.62,0,0,1,.37,1,1.67,1.67,0,0,1-.55,1.39A2.42,2.42,0,0,1,151.86,23.56Zm0-.71a1.48,1.48,0,0,0,1-.37,1.15,1.15,0,0,0-.08-1.71,1.54,1.54,0,0,0-1-.27,1.51,1.51,0,0,0-1,.37,1.13,1.13,0,0,0,.08,1.71A1.53,1.53,0,0,0,151.82,22.85Zm-.14-3.05a1.24,1.24,0,0,0,.82-.31.94.94,0,0,0,.29-.74.87.87,0,0,0-.34-.7,1.28,1.28,0,0,0-.87-.23,1.36,1.36,0,0,0-.87.31.89.89,0,0,0-.27.74.91.91,0,0,0,.36.7A1.37,1.37,0,0,0,151.68,19.8Z"/>
      <path class="cls-4" d="M157.2,23.3a2,2,0,0,1-1.82-.78,3.93,3.93,0,0,1-.74-2.32,3.92,3.92,0,0,1,.51-2.38,2,2,0,0,1,1.74-.95,2.06,2.06,0,0,1,1.82.78,3.93,3.93,0,0,1,.75,2.32,4,4,0,0,1-.52,2.37A2.06,2.06,0,0,1,157.2,23.3Zm0-.73a1.29,1.29,0,0,0,1.12-.73,3.42,3.42,0,0,0,.32-1.83,3.44,3.44,0,0,0-.5-1.8,1.34,1.34,0,0,0-2.32.11,3.54,3.54,0,0,0-.32,1.84A3.44,3.44,0,0,0,156,22,1.3,1.3,0,0,0,157.17,22.57Z"/>
      <path class="cls-4" d="M162.75,23a2.07,2.07,0,0,1-1.83-.78,4,4,0,0,1-.74-2.32,3.92,3.92,0,0,1,.51-2.38,2.08,2.08,0,0,1,1.74-1,2.11,2.11,0,0,1,1.83.79,4,4,0,0,1,.74,2.31,3.92,3.92,0,0,1-.51,2.38A2.08,2.08,0,0,1,162.75,23Zm0-.74a1.29,1.29,0,0,0,1.13-.72,3.54,3.54,0,0,0,.32-1.83,3.53,3.53,0,0,0-.5-1.8,1.29,1.29,0,0,0-1.19-.62,1.31,1.31,0,0,0-1.14.73,3.55,3.55,0,0,0-.31,1.84,3.53,3.53,0,0,0,.49,1.8A1.27,1.27,0,0,0,162.71,22.29Z"/>
    </g>
    <g>
      <path class="cls-4" d="M147.2,35.66a11.61,11.61,0,0,1,2.52-5.7l-3.53.17,0-.73,4.37-.21,0,.73q-2.44,3.48-2.53,5.7Z"/>
      <path class="cls-4" d="M153.64,35.42a2.12,2.12,0,0,1-1.83-.78,4,4,0,0,1-.74-2.33,3.94,3.94,0,0,1,.51-2.38,2.1,2.1,0,0,1,1.75-.95,2.07,2.07,0,0,1,1.82.78,4.05,4.05,0,0,1,.74,2.32,3.94,3.94,0,0,1-.51,2.38A2.08,2.08,0,0,1,153.64,35.42Zm0-.74a1.33,1.33,0,0,0,1.13-.72,4.25,4.25,0,0,0-.18-3.64,1.35,1.35,0,0,0-2.33.11,3.57,3.57,0,0,0-.31,1.84,3.53,3.53,0,0,0,.49,1.8A1.3,1.3,0,0,0,153.6,34.68Z"/>
      <path class="cls-4" d="M157,34.24l.88,0,0,.93-.89,0Z"/>
      <path class="cls-4" d="M161,32.9a2.21,2.21,0,0,1-1.62-.52,2.2,2.2,0,0,1-.13-3.09,2.28,2.28,0,0,1,1.61-.68,2.09,2.09,0,0,1,1.73.7,3.23,3.23,0,0,1,.74,2.06,3.92,3.92,0,0,1-.67,2.67,2.67,2.67,0,0,1-2.06,1,2.71,2.71,0,0,1-1.75-.5l.38-.65a2.05,2.05,0,0,0,1.34.41,2,2,0,0,0,1.48-.74,2.52,2.52,0,0,0,.54-1.72,1.72,1.72,0,0,1-.62.72A2,2,0,0,1,161,32.9Zm.94-3.2a1.4,1.4,0,0,0-1.06-.36,1.37,1.37,0,0,0-1,.46,1.4,1.4,0,0,0-.36,1.06,1.37,1.37,0,0,0,.46,1,1.54,1.54,0,0,0,2.07-.1,1.37,1.37,0,0,0,.36-1A1.4,1.4,0,0,0,162,29.7Z"/>
      <path class="cls-4" d="M165.38,28.39l-.4,1.8-1,0,.87-1.83Zm1.33-.07-.4,1.81-1,.05.87-1.83Z"/>
    </g>
  </g>
  <line class="cls-2" x1="289.93" y1="94.01" x2="283.14" y2="95.12"/>
  <line class="cls-2" x1="280.97" y1="95.49" x2="279.72" y2="95.67"/>
</svg>
