<svg id="Vrstva_1" data-name="Vrstva 1" xmlns="http://www.w3.org/2000/svg" viewBox="0 0 226.77 226.77">
  <defs>
    <style>
      .cls-1 {
        fill: none;
        stroke: #eaf2ff;
        stroke-linecap: round;
        stroke-linejoin: round;
      }

      .cls-1, .cls-2 {
        stroke-width: 0.25px;
      }

      .cls-2 {
        fill: #010202;
        stroke: #010202;
        stroke-miterlimit: 10;
      }

      .cls-3 {
        isolation: isolate;
      }

      .cls-4 {
        fill: #1d1d1b;
      }
    </style>
  </defs>
  <g>
    <path class="cls-1" d="M137,169.47a5.44,5.44,0,0,1-1.81-.51"/>
    <line class="cls-1" x1="55.99" y1="32.1" x2="18.77" y2="14.23"/>
    <line class="cls-1" x1="22.49" y1="116.19" x2="22.49" y2="16.17"/>
    <line class="cls-1" x1="67.31" y1="137.69" x2="18.31" y2="114.18"/>
    <line class="cls-1" x1="160.25" y1="197.21" x2="218.7" y2="174.45"/>
    <line class="cls-1" x1="56.66" y1="137.73" x2="8.92" y2="153.69"/>
    <line class="cls-1" x1="146.61" y1="180.5" x2="99.23" y2="199.2"/>
    <line class="cls-1" x1="146.47" y1="167.69" x2="139.24" y2="170.51"/>
    <line class="cls-1" x1="57.71" y1="35.53" x2="57.79" y2="34.05"/>
    <path class="cls-1" d="M70.27,131.78q-4.39-47.22-8.8-94.44"/>
    <path class="cls-1" d="M78,129.92a13.12,13.12,0,0,0,1.4,4.78,8.09,8.09,0,0,0,3.36,3.59"/>
    <path class="cls-1" d="M146.86,167.52a5,5,0,0,0,2.06-2.07,8.17,8.17,0,0,0,.92-2.8"/>
    <path class="cls-1" d="M146.86,167.52l-.39.17"/>
    <line class="cls-1" x1="77.95" y1="129.92" x2="70.21" y2="43.52"/>
    <path class="cls-1" d="M149.84,162.65q6-41.13,12-82.27"/>
    <path class="cls-1" d="M166.94,79.1l.13,0"/>
    <line class="cls-1" x1="167.45" y1="77.2" x2="167.19" y2="78.92"/>
    <path class="cls-1" d="M167.15,76.92,67.75,32.73"/>
    <path class="cls-1" d="M66.69,32.62,58.1,33.89"/>
    <line class="cls-1" x1="75.75" y1="141.55" x2="135.17" y2="170.19"/>
    <path class="cls-1" d="M167.45,77.2c0-.07-.06-.14-.11-.17a.72.72,0,0,0-.19-.11"/>
    <line class="cls-1" x1="141.44" y1="165.72" x2="82.71" y2="138.29"/>
    <path class="cls-1" d="M57.85,35.67s-.15-.07-.14-.14"/>
    <path class="cls-1" d="M75.75,141.55a9.48,9.48,0,0,1-3.86-4.22,15.64,15.64,0,0,1-1.62-5.55"/>
    <path class="cls-1" d="M57.85,35.67l98.8,45.54"/>
    <line class="cls-1" x1="153.1" y1="82.04" x2="62.72" y2="40.03"/>
    <path class="cls-1" d="M58.1,33.89a.67.67,0,0,0-.19,0,.19.19,0,0,0-.09.05s0,.06,0,.09"/>
    <path class="cls-1" d="M135.17,170.19a4.8,4.8,0,0,0,5-.19,6.66,6.66,0,0,0,2.38-4.56"/>
    <path class="cls-1" d="M167.19,78.92c0,.06-.07.1-.12.13"/>
    <path class="cls-1" d="M67.75,32.73a2.39,2.39,0,0,0-1.06-.11"/>
    <path class="cls-1" d="M162.44,75.09s.06,0,0-.08"/>
    <path class="cls-1" d="M61.72,34.55l93,42.25"/>
    <path class="cls-1" d="M167.19,78.92c0,.06-.07.1-.12.13"/>
    <path class="cls-1" d="M167.2,77.38l-9,2.24"/>
    <path class="cls-1" d="M158,81.36l9-2.26"/>
    <path class="cls-1" d="M162.38,75.11l-7.18,1.75"/>
    <path class="cls-1" d="M155.11,77.55l7.17-1.75"/>
    <path class="cls-1" d="M141.61,164.83a7.3,7.3,0,0,1-.77,2.45,4.28,4.28,0,0,1-1.79,1.81"/>
    <polyline class="cls-1" points="153.42 79.73 153.35 80.24 141.61 164.83"/>
    <path class="cls-1" d="M142.57,165.44l11.91-85.23"/>
    <path class="cls-1" d="M135.17,170.19a4.8,4.8,0,0,0,5-.19,6.66,6.66,0,0,0,2.38-4.56"/>
    <path class="cls-1" d="M58.1,33.89a.67.67,0,0,0-.19,0,.19.19,0,0,0-.09.05s0,.06,0,.09"/>
    <line class="cls-1" x1="153.1" y1="82.04" x2="62.72" y2="40.03"/>
    <path class="cls-1" d="M156.9,79.47l-99-45.28"/>
    <path class="cls-1" d="M57.85,35.67l98.8,45.54"/>
    <line class="cls-1" x1="61.63" y1="35.09" x2="61.66" y2="34.49"/>
    <path class="cls-1" d="M61.72,34.55s-.09,0,0-.08a.36.36,0,0,1,.11,0"/>
    <polyline class="cls-1" points="62.22 37.69 62.27 38.16 70.98 131.98"/>
    <line class="cls-1" x1="75.74" y1="140.45" x2="135.2" y2="168.96"/>
    <path class="cls-1" d="M130.87,164.16c0,.13.16.23.26.27a1.51,1.51,0,0,0,.38.1,1.69,1.69,0,0,0,.77-.07"/>
    <path class="cls-1" d="M84.17,142.06c0,.11.16.18.24.21a1.65,1.65,0,0,0,.32.06,1.83,1.83,0,0,0,.66-.05"/>
    <path class="cls-1" d="M137,169.47a3.84,3.84,0,0,0,1.71-.23"/>
    <path class="cls-1" d="M162.38,75.73s-.07.06-.1.07"/>
    <line class="cls-1" x1="62.52" y1="34.91" x2="62.52" y2="34.91"/>
    <path class="cls-1" d="M153.42,79.73h0"/>
    <path class="cls-1" d="M162.44,75.09l-.06,0"/>
    <path class="cls-1" d="M138.72,169.24l.33-.15"/>
    <path class="cls-1" d="M68.67,33.4l-6.88,1"/>
    <path class="cls-1" d="M69.1,33.45a1,1,0,0,0-.43-.05"/>
    <path class="cls-1" d="M162.37,74.93,69.1,33.45"/>
    <path class="cls-1" d="M75.75,141.55a9.48,9.48,0,0,1-3.86-4.22,15.64,15.64,0,0,1-1.62-5.55"/>
    <path class="cls-1" d="M71,132a13.49,13.49,0,0,0,1.41,4.81,8.23,8.23,0,0,0,3.35,3.66"/>
    <path class="cls-1" d="M57.85,35.67s-.15-.07-.14-.14"/>
    <line class="cls-1" x1="150.38" y1="169.17" x2="191.19" y2="188.22"/>
    <path class="cls-1" d="M61.69,35.15s-.06,0-.06-.06"/>
    <path class="cls-1" d="M61.69,35.15,154.58,77.5"/>
    <line class="cls-1" x1="141.44" y1="165.72" x2="82.71" y2="138.29"/>
    <line class="cls-1" x1="180.27" y1="193.01" x2="140.25" y2="173.75"/>
    <path class="cls-1" d="M167.45,77.2c0-.07-.06-.14-.11-.17a.72.72,0,0,0-.19-.11"/>
    <line class="cls-1" x1="75.75" y1="141.55" x2="135.17" y2="170.19"/>
    <path class="cls-1" d="M66.69,32.62,58.1,33.89"/>
    <path class="cls-1" d="M67.75,32.73a2.39,2.39,0,0,0-1.06-.11"/>
    <line class="cls-1" x1="104.16" y1="197.26" x2="13.01" y2="152.32"/>
    <path class="cls-1" d="M167.15,76.92,67.75,32.73"/>
    <path class="cls-1" d="M167.2,77.38l.13,0"/>
    <path class="cls-1" d="M155.2,76.86a.85.85,0,0,1-.52-.06"/>
    <path class="cls-1" d="M154.58,77.5a1,1,0,0,0,.53,0"/>
    <path class="cls-1" d="M62.39,39.51a.62.62,0,0,0,.33.52"/>
    <path class="cls-1" d="M167.45,77.2c0,.06-.07.1-.12.13"/>
    <line class="cls-1" x1="167.45" y1="77.2" x2="167.19" y2="78.92"/>
    <path class="cls-1" d="M166.94,79.1l.13,0"/>
    <path class="cls-1" d="M149.84,162.65q6-41.13,12-82.27"/>
    <line class="cls-1" x1="77.95" y1="129.92" x2="70.21" y2="43.52"/>
    <path class="cls-1" d="M57.93,34.19a.28.28,0,0,1-.13-.11"/>
    <path class="cls-1" d="M131.05,164l.08,0"/>
    <path class="cls-1" d="M84.17,142.06a.19.19,0,0,1,.11-.15.53.53,0,0,1,.17-.08"/>
    <path class="cls-1" d="M131.05,164c-.08,0-.18.11-.18.21"/>
    <path class="cls-1" d="M146.86,167.52l-.39.17"/>
    <path class="cls-1" d="M146.86,167.52a5,5,0,0,0,2.06-2.07,8.17,8.17,0,0,0,.92-2.8"/>
    <path class="cls-1" d="M132.35,164.43c.08,0,.18-.11.18-.21"/>
    <path class="cls-1" d="M132.35,164.43l-.07,0"/>
    <path class="cls-1" d="M84.45,141.83a1.83,1.83,0,0,1,.66-.06,1.14,1.14,0,0,1,.32.07c.08,0,.24.1.24.21"/>
    <path class="cls-1" d="M131.13,163.92a1.68,1.68,0,0,1,.77-.07,1.78,1.78,0,0,1,.38.1c.09,0,.26.14.25.27"/>
    <path class="cls-1" d="M78,129.92a13.12,13.12,0,0,0,1.4,4.78,8.09,8.09,0,0,0,3.36,3.59"/>
    <path class="cls-1" d="M158.22,79.62a2.38,2.38,0,0,1-1.32-.15"/>
    <path class="cls-1" d="M156.65,81.21a2.3,2.3,0,0,0,1.32.15"/>
    <path class="cls-1" d="M70.27,131.78q-4.39-47.22-8.8-94.44"/>
    <line class="cls-1" x1="57.71" y1="35.53" x2="57.79" y2="34.05"/>
    <line class="cls-1" x1="146.47" y1="167.69" x2="139.24" y2="170.51"/>
    <line class="cls-1" x1="162.48" y1="75.04" x2="162.38" y2="75.73"/>
    <path class="cls-1" d="M162.37,74.93a.21.21,0,0,1,.11.08"/>
    <path class="cls-1" d="M85.39,142.28c.09,0,.28-.1.28-.23"/>
    <polyline class="cls-2" points="22.54 16.01 23.88 21.57 21.1 21.55 22.54 16.01"/>
    <polyline class="cls-2" points="22.47 116.12 21.13 110.56 23.91 110.58 22.47 116.12"/>
    <polyline class="cls-2" points="13.06 152.34 18.65 153.54 17.43 156.03 13.06 152.34"/>
    <polyline class="cls-2" points="104.18 197.25 98.59 196.06 99.81 193.57 104.18 197.25"/>
    <polyline class="cls-2" points="176.15 191.07 170.47 191.74 171.46 194.33 176.15 191.07"/>
    <polyline class="cls-2" points="187.67 186.53 193.35 185.86 192.36 183.27 187.67 186.53"/>
    <g>
      <g class="cls-3">
        <path class="cls-4" d="M203.74,190.42a2.4,2.4,0,0,1-1.62.09,1.88,1.88,0,0,1-1.13-1l.68-.39a1.26,1.26,0,0,0,.75.65,1.63,1.63,0,0,0,1.06-.06,1.53,1.53,0,0,0,.85-.71,1.29,1.29,0,0,0,0-1,1.2,1.2,0,0,0-.69-.75,1.45,1.45,0,0,0-1.08,0,1.37,1.37,0,0,0-.57.44l-.52-.36,1.15-2.56-2.85,1.1-.26-.68,3.75-1.44.26.66-1,2.27a1.94,1.94,0,0,1,1.58-.14,1.8,1.8,0,0,1,1.08,1.14,1.86,1.86,0,0,1-.06,1.6A2.37,2.37,0,0,1,203.74,190.42Z"/>
        <path class="cls-4" d="M206.45,188.3l.82-.32.34.88-.83.31Z"/>
        <path class="cls-4" d="M208.93,188.35,207,183.43a3,3,0,0,1-1.15,1.19l-.26-.68a2.85,2.85,0,0,0,1.16-1.52l.6-.23,2.26,5.88Z"/>
        <path class="cls-4" d="M212.69,187a2.46,2.46,0,0,1-1.59.11,2,2,0,0,1-1.15-.92l.67-.4a1.31,1.31,0,0,0,.75.6,1.64,1.64,0,0,0,1-.07,1.32,1.32,0,0,0,.8-.73,1.43,1.43,0,0,0,0-1.09,1.35,1.35,0,0,0-.73-.83,1.51,1.51,0,0,0-1.14,0,1.59,1.59,0,0,0-1,1.21l-.6.09-.77-3.37L212,180.4l.27.68-2.57,1,.42,1.86a2.2,2.2,0,0,1,.42-.57,2,2,0,0,1,.6-.38,2.2,2.2,0,0,1,1.69,0,2,2,0,0,1,1.1,1.21,2.09,2.09,0,0,1,0,1.68A2.18,2.18,0,0,1,212.69,187Z"/>
        <path class="cls-4" d="M214.13,179.52l.19,1.84-.92.35.26-2Zm1.25-.47.18,1.83-.92.36.25-2Z"/>
      </g>
      <g class="cls-3">
        <path class="cls-4" d="M202.7,177.94a2.5,2.5,0,0,1-1.71.11,1.67,1.67,0,0,1-1.07-1.05,1.62,1.62,0,0,1,0-1,1.7,1.7,0,0,1,.59-.87,1.67,1.67,0,0,1-.83-.27,1.31,1.31,0,0,1-.51-.63,1.47,1.47,0,0,1,.08-1.31,2.5,2.5,0,0,1,2.68-1,1.52,1.52,0,0,1,.94.93,1.34,1.34,0,0,1,0,.82,1.53,1.53,0,0,1-.44.75,1.67,1.67,0,0,1,1,.25,1.61,1.61,0,0,1,.65.8,1.69,1.69,0,0,1-.09,1.49A2.33,2.33,0,0,1,202.7,177.94Zm-.26-.66a1.56,1.56,0,0,0,.84-.67,1.11,1.11,0,0,0,.05-.93,1.07,1.07,0,0,0-.67-.66,1.54,1.54,0,0,0-1.07.06,1.64,1.64,0,0,0-.85.67,1.07,1.07,0,0,0-.05.94,1,1,0,0,0,.67.66A1.52,1.52,0,0,0,202.44,177.28Zm-1.09-2.86a1.23,1.23,0,0,0,.68-.55.91.91,0,0,0,.05-.79.88.88,0,0,0-.55-.56,1.32,1.32,0,0,0-.89,0,1.4,1.4,0,0,0-.73.57.88.88,0,0,0,0,.79.91.91,0,0,0,.57.55A1.3,1.3,0,0,0,201.35,174.42Z"/>
        <path class="cls-4" d="M207.69,176a2.1,2.1,0,0,1-2-.17,4,4,0,0,1-1.42-2,3.93,3.93,0,0,1-.27-2.42,2.1,2.1,0,0,1,1.36-1.45,2,2,0,0,1,2,.18,4.66,4.66,0,0,1,1.68,4.38A2.06,2.06,0,0,1,207.69,176Zm-.26-.69a1.31,1.31,0,0,0,.84-1,3.55,3.55,0,0,0-.27-1.84,3.49,3.49,0,0,0-1-1.56,1.34,1.34,0,0,0-2.17.83,3.51,3.51,0,0,0,.28,1.85,3.31,3.31,0,0,0,1,1.55A1.29,1.29,0,0,0,207.43,175.34Z"/>
      </g>
    </g>
    <g>
      <g class="cls-3">
        <path class="cls-4" d="M31.79,76.64h-.72l-2-2.37a2.48,2.48,0,0,0-1.73-1.06,1.11,1.11,0,0,0-.84.33,1.18,1.18,0,0,0-.32.88,1.23,1.23,0,0,0,.42,1,1.49,1.49,0,0,0,1.13.29l-.05.79A2.05,2.05,0,0,1,26,76a2,2,0,0,1-.62-1.57,2.16,2.16,0,0,1,.52-1.49,1.76,1.76,0,0,1,1.38-.55,2.16,2.16,0,0,1,1.12.33,5.26,5.26,0,0,1,1.16,1.07l1.45,1.71v-3.1h.74Z"/>
        <path class="cls-4" d="M31.8,71.39a11.53,11.53,0,0,1-5.56-2.82v3.54H25.5V67.73h.73q3.36,2.61,5.56,2.82Z"/>
        <path class="cls-4" d="M30.87,68.09v-.88h.94v.88Z"/>
        <path class="cls-4" d="M31.89,64a2.43,2.43,0,0,1-.52,1.63,1.76,1.76,0,0,1-2.35.3,1.8,1.8,0,0,1-.6-.87,1.6,1.6,0,0,1-.55.68,1.38,1.38,0,0,1-.77.25,1.52,1.52,0,0,1-1.2-.55A2.23,2.23,0,0,1,25.45,64a2.11,2.11,0,0,1,.46-1.42,1.47,1.47,0,0,1,1.2-.53,1.36,1.36,0,0,1,.78.25,1.52,1.52,0,0,1,.54.68,1.74,1.74,0,0,1,.6-.87,1.65,1.65,0,0,1,1-.32,1.7,1.7,0,0,1,1.36.62A2.45,2.45,0,0,1,31.89,64Zm-3.77,0a1.25,1.25,0,0,0-.27-.84.9.9,0,0,0-.72-.32.84.84,0,0,0-.72.31,1.26,1.26,0,0,0-.27.85,1.34,1.34,0,0,0,.27.88.87.87,0,0,0,.72.31.88.88,0,0,0,.72-.33A1.28,1.28,0,0,0,28.12,64Zm3.06,0a1.54,1.54,0,0,0-.32-1,1.06,1.06,0,0,0-.85-.39,1.09,1.09,0,0,0-.86.38,1.53,1.53,0,0,0-.33,1,1.61,1.61,0,0,0,.32,1,1.06,1.06,0,0,0,.86.39,1,1,0,0,0,.85-.39A1.53,1.53,0,0,0,31.18,64Z"/>
        <path class="cls-4" d="M25.46,59.6l1.78.49v1l-1.78-1Zm0-1.33,1.78.49v1l-1.78-1Z"/>
      </g>
      <g class="cls-3">
        <path class="cls-4" d="M19.78,74.07a11.58,11.58,0,0,1-5.56-2.82v3.54h-.73V70.4h.73q3.36,2.61,5.56,2.82Z"/>
        <path class="cls-4" d="M19.87,67.62A2.1,2.1,0,0,1,19,69.41a3.92,3.92,0,0,1-2.35.61,3.92,3.92,0,0,1-2.35-.63,2.06,2.06,0,0,1-.87-1.79,2.11,2.11,0,0,1,.88-1.78,4,4,0,0,1,2.35-.62,3.92,3.92,0,0,1,2.35.64A2.06,2.06,0,0,1,19.87,67.62Zm-.74,0a1.3,1.3,0,0,0-.66-1.16,3.5,3.5,0,0,0-1.82-.41,3.48,3.48,0,0,0-1.82.4,1.34,1.34,0,0,0,0,2.33,3.48,3.48,0,0,0,1.82.41,3.48,3.48,0,0,0,1.82-.4A1.28,1.28,0,0,0,19.13,67.62Z"/>
        <path class="cls-4" d="M15.59,62.07a2.19,2.19,0,0,1,.61-1.6,2.06,2.06,0,0,1,1.54-.62,2,2,0,0,1,1.54.65,2.32,2.32,0,0,1,.6,1.64,2.08,2.08,0,0,1-.79,1.7,3.2,3.2,0,0,1-2.09.63,3.89,3.89,0,0,1-2.63-.81,2.66,2.66,0,0,1-.93-2.11A2.73,2.73,0,0,1,14,59.83l.64.42a1.91,1.91,0,0,0-.49,1.31,2,2,0,0,0,.66,1.52,2.59,2.59,0,0,0,1.7.63,1.65,1.65,0,0,1-.69-.67A1.9,1.9,0,0,1,15.59,62.07Zm3.15,1.1a1.41,1.41,0,0,0,.4-1,1.37,1.37,0,0,0-.4-1,1.39,1.39,0,0,0-1-.41,1.35,1.35,0,0,0-1,.4,1.43,1.43,0,0,0-.41,1,1.41,1.41,0,0,0,.4,1,1.4,1.4,0,0,0,1,.42A1.42,1.42,0,0,0,18.74,63.17Z"/>
      </g>
    </g>
    <g>
      <g class="cls-3">
        <path class="cls-4" d="M45.85,179.12A2.4,2.4,0,0,1,44.7,178a1.9,1.9,0,0,1,0-1.5l.75.25a1.23,1.23,0,0,0,0,1,1.56,1.56,0,0,0,.75.75,1.47,1.47,0,0,0,1.1.15,1.24,1.24,0,0,0,.78-.68,1.18,1.18,0,0,0,.1-1,1.46,1.46,0,0,0-.76-.77,1.35,1.35,0,0,0-.71-.14l-.08-.62,2.67-.86-2.73-1.38.32-.65,3.6,1.81-.32.63-2.39.75a1.94,1.94,0,0,1,1.17,1.08,1.81,1.81,0,0,1-.12,1.56,1.9,1.9,0,0,1-1.22,1A2.45,2.45,0,0,1,45.85,179.12Z"/>
        <path class="cls-4" d="M50.53,181.48a2.48,2.48,0,0,1-1.15-1.11,1.88,1.88,0,0,1-.09-1.47l.74.23a1.32,1.32,0,0,0,.06,1,1.62,1.62,0,0,0,.76.72,1.31,1.31,0,0,0,1.07.1,1.41,1.41,0,0,0,.79-.75,1.36,1.36,0,0,0,.12-1.1,1.46,1.46,0,0,0-.79-.82,1.57,1.57,0,0,0-1.58,0L50,177.9l2-2.83,3,1.51-.33.65L52.18,176l-1.09,1.56a2,2,0,0,1,.7-.06,1.9,1.9,0,0,1,.69.18,2.25,2.25,0,0,1,1.15,1.23,2,2,0,0,1-.16,1.64,2.07,2.07,0,0,1-1.24,1.13A2.2,2.2,0,0,1,50.53,181.48Z"/>
        <path class="cls-4" d="M53.84,182l.78.4-.42.84-.79-.4Z"/>
        <path class="cls-4" d="M57.57,185l.69-1.38-3-1.49.33-.66,4.66-2.16.85.43-1.81,3.59.81.41-.34.66-.81-.41-.69,1.38Zm-1.15-3.14,2.17,1.1L60,180.16Z"/>
        <path class="cls-4" d="M63.82,181l-1.24,1.38-.87-.45,1.65-1.16Zm1.19.6-1.24,1.38-.88-.45,1.65-1.16Z"/>
      </g>
      <g class="cls-3">
        <path class="cls-4" d="M54.41,167.56a2.21,2.21,0,0,1-1.16-1.25,2,2,0,0,1,.14-1.66,2,2,0,0,1,1.27-1.09,2.29,2.29,0,0,1,1.74.2,2.09,2.09,0,0,1,1.15,1.47,3.2,3.2,0,0,1-.36,2.16,4,4,0,0,1-1.91,2A2.87,2.87,0,0,1,51.7,168l.66-.39A2.06,2.06,0,0,0,55,168.69a2.54,2.54,0,0,0,1.32-1.23,1.63,1.63,0,0,1-.9.32A2,2,0,0,1,54.41,167.56Zm2.39-2.32a1.4,1.4,0,0,0-.74-.83,1.36,1.36,0,0,0-1.11-.1,1.48,1.48,0,0,0-.84.74,1.35,1.35,0,0,0-.09,1.09,1.54,1.54,0,0,0,1.85.94,1.35,1.35,0,0,0,.83-.73A1.4,1.4,0,0,0,56.8,165.24Z"/>
        <path class="cls-4" d="M58.4,172a2.06,2.06,0,0,1-1.21-1.58,4.73,4.73,0,0,1,2.12-4.21,2.07,2.07,0,0,1,2,0,2.12,2.12,0,0,1,1.2,1.58,4,4,0,0,1-.5,2.39A3.93,3.93,0,0,1,60.38,172,2.08,2.08,0,0,1,58.4,172Zm.33-.66a1.28,1.28,0,0,0,1.33-.08,3.39,3.39,0,0,0,1.18-1.44A3.44,3.44,0,0,0,61.7,168,1.35,1.35,0,0,0,59.62,167a3.57,3.57,0,0,0-1.18,1.45,3.49,3.49,0,0,0-.46,1.81A1.29,1.29,0,0,0,58.73,171.33Z"/>
        <path class="cls-4" d="M63.35,174.49a2.07,2.07,0,0,1-1.2-1.58,4,4,0,0,1,.5-2.39,4,4,0,0,1,1.62-1.82,2.25,2.25,0,0,1,3.18,1.62A3.91,3.91,0,0,1,67,172.7a4,4,0,0,1-1.62,1.81A2.1,2.1,0,0,1,63.35,174.49Zm.34-.66a1.28,1.28,0,0,0,1.33-.08,3.42,3.42,0,0,0,1.18-1.43,3.5,3.5,0,0,0,.46-1.82,1.35,1.35,0,0,0-2.08-1.05,3.57,3.57,0,0,0-1.18,1.45,3.49,3.49,0,0,0-.46,1.81A1.29,1.29,0,0,0,63.69,173.83Z"/>
      </g>
    </g>
  </g>
</svg>
