<svg vector-effect="non-scaling-stroke" id="Vrstva_1" data-name="Vrstva 1" xmlns="http://www.w3.org/2000/svg" viewBox="0 0 226.77 226.77">
  <defs>
    <style>
      .cls-1 {
        fill: none;
        stroke: #cfe0fa;
        stroke-linecap: round;
        stroke-linejoin: round;
      }

      .cls-1, .cls-2 {
        stroke-width: 0.25px;
      }

      .cls-2 {
        fill: #010202;
        stroke: #010202;
        stroke-miterlimit: 10;
      }

      .cls-3 {
        isolation: isolate;
      }

      .cls-4 {
        fill: #1d1d1b;
      }
    </style>
  </defs>
  <line class="cls-1" x1="49.75" y1="134.19" x2="0.62" y2="150.6"/>
  <line class="cls-1" x1="135.6" y1="176.23" x2="89.33" y2="194.43"/>
  <line class="cls-1" x1="159.95" y1="199.32" x2="221.2" y2="175.42"/>
  <line class="cls-1" x1="50.67" y1="131.82" x2="11.96" y2="113.25"/>
  <line class="cls-1" x1="55.75" y1="34.8" x2="12.3" y2="13.95"/>
  <line class="cls-1" x1="16.14" y1="115.26" x2="16.14" y2="15.81"/>
  <path class="cls-1" d="M132.57,153.86h0"/>
  <path class="cls-1" d="M149.15,74.61c.08,0,.24-.07.25-.17"/>
  <line class="cls-1" x1="149.65" y1="72.74" x2="149.4" y2="74.44"/>
  <path class="cls-1" d="M149.34,161.93q-2.29-43.12-4.6-86.24"/>
  <path class="cls-1" d="M149.37,72.47c.08,0,.22.11.26.2"/>
  <line class="cls-1" x1="149.37" y1="72.47" x2="66.71" y2="35.49"/>
  <path class="cls-1" d="M66.71,35.49a2.17,2.17,0,0,0-1.07-.12"/>
  <line class="cls-1" x1="65.64" y1="35.37" x2="57.01" y2="36.72"/>
  <path class="cls-1" d="M54.88,124.62Q57.6,82.4,60.3,40.18"/>
  <path class="cls-1" d="M56.5,132.11a15.05,15.05,0,0,1-1.62-7.49"/>
  <path class="cls-1" d="M56.5,132.11a9.23,9.23,0,0,0,3.76,4.14"/>
  <line class="cls-1" x1="145.83" y1="169.34" x2="138.59" y2="172.25"/>
  <path class="cls-1" d="M149.34,161.93a10.14,10.14,0,0,1-.62,4.29,5.35,5.35,0,0,1-2.89,3.12"/>
  <line class="cls-1" x1="67.17" y1="133.07" x2="140.78" y2="167.46"/>
  <line class="cls-1" x1="134.27" y1="171.92" x2="60.26" y2="136.25"/>
  <path class="cls-1" d="M56.76,38.53a.26.26,0,0,1-.14-.11"/>
  <path class="cls-1" d="M56.61,38.38s0,0,0,0"/>
  <line class="cls-1" x1="56.61" y1="38.38" x2="56.7" y2="36.88"/>
  <line class="cls-1" x1="56.61" y1="38.38" x2="56.61" y2="38.38"/>
  <line class="cls-1" x1="67.99" y1="45.84" x2="62.51" y2="123.1"/>
  <path class="cls-1" d="M57,36.72a.59.59,0,0,0-.28.1.09.09,0,0,0,0,.13.32.32,0,0,0,.12.08"/>
  <path class="cls-1" d="M134.27,171.92a5.49,5.49,0,0,0,4,.45,5,5,0,0,0,2.94-2.67"/>
  <line class="cls-1" x1="136.07" y1="77.68" x2="61.19" y2="42.66"/>
  <line class="cls-1" x1="149.15" y1="74.61" x2="140.21" y2="76.8"/>
  <line class="cls-1" x1="94.2" y1="192.46" x2="4.6" y2="149.28"/>
  <line class="cls-1" x1="150.18" y1="171.22" x2="190.9" y2="190.27"/>
  <line class="cls-1" x1="179.71" y1="194.88" x2="140.05" y2="175.8"/>
  <path class="cls-1" d="M138.35,170.82a4.5,4.5,0,0,1-4-.14"/>
  <path class="cls-1" d="M149.15,74.61c.08,0,.24-.07.25-.17"/>
  <line class="cls-1" x1="149.65" y1="72.74" x2="149.4" y2="74.44"/>
  <path class="cls-1" d="M149.34,161.93q-2.29-43.12-4.6-86.24"/>
  <path class="cls-1" d="M149.37,72.47c.08,0,.22.11.26.2"/>
  <path class="cls-1" d="M137,72.32a.92.92,0,0,0,.52.05"/>
  <line class="cls-1" x1="144.66" y1="70.51" x2="68.09" y2="36.22"/>
  <path class="cls-1" d="M68.09,36.22a1,1,0,0,0-.44,0"/>
  <line class="cls-1" x1="67.65" y1="36.18" x2="60.74" y2="37.27"/>
  <path class="cls-1" d="M60.74,37.27l-.08,0s0,0,0,.05"/>
  <path class="cls-1" d="M60.64,38s-.07,0-.07-.06"/>
  <path class="cls-1" d="M137.42,73.06a1,1,0,0,1-.52-.06"/>
  <line class="cls-1" x1="149.37" y1="72.47" x2="66.71" y2="35.49"/>
  <path class="cls-1" d="M66.71,35.49a2.17,2.17,0,0,0-1.07-.12"/>
  <line class="cls-1" x1="65.64" y1="35.37" x2="57.01" y2="36.72"/>
  <path class="cls-1" d="M149.53,72.87l-.14,0"/>
  <path class="cls-1" d="M54.88,124.62Q57.6,82.4,60.3,40.18"/>
  <line class="cls-1" x1="75.28" y1="139.58" x2="75.28" y2="140.03"/>
  <path class="cls-1" d="M60.67,37.4s-.06,0-.06-.06"/>
  <path class="cls-1" d="M144.58,71.36l0,0"/>
  <line class="cls-1" x1="144.77" y1="70.61" x2="144.68" y2="71.29"/>
  <path class="cls-1" d="M140.44,75.08a2.4,2.4,0,0,1-1.3-.14"/>
  <path class="cls-1" d="M57,131.57a8,8,0,0,0,3.26,3.59"/>
  <path class="cls-1" d="M61,42.48a.56.56,0,0,1-.06-.31"/>
  <path class="cls-1" d="M144.68,71.29a.06.06,0,0,1-.05,0"/>
  <path class="cls-1" d="M56.5,132.11a15.05,15.05,0,0,1-1.62-7.49"/>
  <path class="cls-1" d="M56.5,132.11a9.23,9.23,0,0,0,3.76,4.14"/>
  <path class="cls-1" d="M57,131.57a13.07,13.07,0,0,1-1.41-6.5"/>
  <path class="cls-1" d="M61,42.48a.35.35,0,0,0,.18.18"/>
  <path class="cls-1" d="M144.73,70.66l-.06,0"/>
  <line class="cls-1" x1="145.83" y1="169.34" x2="138.59" y2="172.25"/>
  <path class="cls-1" d="M149.34,161.93a10.14,10.14,0,0,1-.62,4.29,5.35,5.35,0,0,1-2.89,3.12"/>
  <line class="cls-1" x1="67.17" y1="133.07" x2="140.78" y2="167.46"/>
  <line class="cls-1" x1="134.27" y1="171.92" x2="60.26" y2="136.25"/>
  <path class="cls-1" d="M140.21,76.8a2.31,2.31,0,0,1-1.3-.15"/>
  <path class="cls-1" d="M56.76,38.53a.26.26,0,0,1-.14-.11"/>
  <line class="cls-1" x1="60.64" y1="38" x2="136.9" y2="73"/>
  <path class="cls-1" d="M56.61,38.38s0,0,0,0"/>
  <line class="cls-1" x1="56.61" y1="38.38" x2="56.7" y2="36.88"/>
  <path class="cls-1" d="M121.82,161.61l-.08,0"/>
  <line class="cls-1" x1="121.81" y1="162.11" x2="121.82" y2="161.61"/>
  <path class="cls-1" d="M123,162.15c.09,0,.25-.11.25-.24"/>
  <path class="cls-1" d="M123.2,161.83a.11.11,0,0,1,0,.08"/>
  <path class="cls-1" d="M123.2,161.83c-.09-.2-.48-.27-.65-.29a1.51,1.51,0,0,0-.73.07"/>
  <path class="cls-1" d="M121.57,161.85c0-.1.1-.17.17-.21"/>
  <line class="cls-1" x1="56.61" y1="38.38" x2="56.61" y2="38.38"/>
  <line class="cls-1" x1="141.48" y1="169.04" x2="141.48" y2="169.04"/>
  <line class="cls-1" x1="141.2" y1="169.7" x2="141.19" y2="169.7"/>
  <line class="cls-1" x1="137.42" y1="73.06" x2="144.58" y2="71.36"/>
  <path class="cls-1" d="M63.88,129.49a12.64,12.64,0,0,1-1.37-6.39"/>
  <path class="cls-1" d="M141.19,169.7a9.83,9.83,0,0,0,.86-4.92"/>
  <path class="cls-1" d="M63.88,129.49a7.86,7.86,0,0,0,3.29,3.58"/>
  <line class="cls-1" x1="67.99" y1="45.84" x2="62.51" y2="123.1"/>
  <path class="cls-1" d="M144.73,70.66c.1,0,0-.12-.07-.15"/>
  <path class="cls-1" d="M57,36.72a.59.59,0,0,0-.28.1.09.09,0,0,0,0,.13.32.32,0,0,0,.12.08"/>
  <line class="cls-1" x1="140.44" y1="75.08" x2="149.39" y2="72.91"/>
  <path class="cls-1" d="M149.53,72.87c.08,0,.15-.11.1-.2"/>
  <path class="cls-1" d="M134.27,171.92a5.49,5.49,0,0,0,4,.45,5,5,0,0,0,2.94-2.67"/>
  <path class="cls-1" d="M142.05,164.78q-2.52-44.5-5.06-89"/>
  <polyline class="cls-1" points="135.93 75.27 135.96 75.82 141.05 164.48"/>
  <polyline class="cls-1" points="55.57 125.08 61.03 40.97 61.06 40.53"/>
  <line class="cls-1" x1="136.07" y1="77.68" x2="61.19" y2="42.66"/>
  <line class="cls-1" x1="139.14" y1="74.94" x2="56.85" y2="37.03"/>
  <path class="cls-1" d="M75,139.86c.08.16.44.21.57.22a1.67,1.67,0,0,0,.63-.06"/>
  <line class="cls-1" x1="60.57" y1="37.94" x2="60.61" y2="37.34"/>
  <line class="cls-1" x1="144.67" y1="70.68" x2="137.51" y2="72.37"/>
  <line class="cls-1" x1="136.99" y1="72.32" x2="60.67" y2="37.4"/>
  <line class="cls-1" x1="149.15" y1="74.61" x2="140.21" y2="76.8"/>
  <line class="cls-1" x1="138.91" y1="76.65" x2="56.76" y2="38.53"/>
  <path class="cls-1" d="M121.57,161.85c0,.13.16.22.25.26a1.26,1.26,0,0,0,.38.1,1.82,1.82,0,0,0,.77-.06"/>
  <path class="cls-1" d="M138.35,170.82a4.79,4.79,0,0,0,2.24-2.76,9.07,9.07,0,0,0,.46-3.58"/>
  <line class="cls-1" x1="60.24" y1="135.16" x2="134.32" y2="170.68"/>
  <path class="cls-1" d="M75,139.86c0-.08,0-.14.07-.19a.72.72,0,0,1,.2-.09"/>
  <path class="cls-1" d="M75.28,139.58a1.84,1.84,0,0,1,.84,0c.1,0,.31.08.36.2s0,.14-.07.18a.52.52,0,0,1-.2.09"/>
  <polyline class="cls-2" points="16.16 15.81 17.5 21.37 14.73 21.34 16.16 15.81"/>
  <polyline class="cls-2" points="16.16 115.19 14.73 109.65 17.51 109.63 16.16 115.19"/>
  <polyline class="cls-2" points="4.62 149.28 10.22 150.43 9.03 152.93 4.62 149.28"/>
  <polyline class="cls-2" points="94.3 192.47 88.7 191.32 89.89 188.82 94.3 192.47"/>
  <polyline class="cls-2" points="175.92 193.11 171.25 196.4 170.25 193.81 175.92 193.11"/>
  <polyline class="cls-2" points="187.48 188.59 192.15 185.3 193.15 187.89 187.48 188.59"/>
  <g>
    <g class="cls-3">
      <path class="cls-4" d="M204.54,192.08a2.37,2.37,0,0,1-1.61.09,1.9,1.9,0,0,1-1.14-1l.68-.39a1.26,1.26,0,0,0,.75.65,1.63,1.63,0,0,0,1.06-.06,1.53,1.53,0,0,0,.85-.71,1.23,1.23,0,0,0,0-1,1.21,1.21,0,0,0-.68-.76,1.41,1.41,0,0,0-1.08.05,1.25,1.25,0,0,0-.58.43l-.51-.36,1.15-2.55-2.86,1.09-.26-.68,3.75-1.44.26.66-1.05,2.28a2,2,0,0,1,1.59-.15,1.82,1.82,0,0,1,1.07,1.14,1.86,1.86,0,0,1-.06,1.6A2.37,2.37,0,0,1,204.54,192.08Z"/>
      <path class="cls-4" d="M207.25,190l.82-.32.34.88-.82.31Z"/>
      <path class="cls-4" d="M209.73,190l-1.89-4.92a3,3,0,0,1-1.15,1.19l-.26-.68a2.81,2.81,0,0,0,1.16-1.52l.6-.23,2.26,5.88Z"/>
      <path class="cls-4" d="M213.49,188.64a2.45,2.45,0,0,1-1.59.11,1.91,1.91,0,0,1-1.15-.92l.67-.4a1.23,1.23,0,0,0,.75.6,1.57,1.57,0,0,0,1-.07,1.32,1.32,0,0,0,.8-.73,1.42,1.42,0,0,0,0-1.09,1.4,1.4,0,0,0-.74-.83,1.47,1.47,0,0,0-1.14,0,1.56,1.56,0,0,0-1,1.2l-.6.1-.77-3.38,3.14-1.21.26.69-2.57,1,.42,1.86a1.87,1.87,0,0,1,.43-.56,1.68,1.68,0,0,1,.59-.39,2.2,2.2,0,0,1,1.69,0,2,2,0,0,1,1.11,1.22,2.13,2.13,0,0,1,0,1.68A2.17,2.17,0,0,1,213.49,188.64Z"/>
      <path class="cls-4" d="M214.94,181.18l.18,1.84-.91.35.25-2Zm1.24-.47.19,1.84-.93.35.25-2Z"/>
    </g>
    <g class="cls-3">
      <path class="cls-4" d="M203.5,179.6a2.5,2.5,0,0,1-1.71.11,1.67,1.67,0,0,1-1.07-1.05,1.59,1.59,0,0,1-.05-1,1.75,1.75,0,0,1,.59-.88,1.52,1.52,0,0,1-.83-.27,1.31,1.31,0,0,1-.51-.63,1.47,1.47,0,0,1,.08-1.31,2.19,2.19,0,0,1,1.19-.95,2.13,2.13,0,0,1,1.5-.08,1.49,1.49,0,0,1,.93.92,1.34,1.34,0,0,1,0,.82,1.54,1.54,0,0,1-.43.75,1.71,1.71,0,0,1,1,.25,1.61,1.61,0,0,1,.65.8,1.68,1.68,0,0,1-.08,1.5A2.41,2.41,0,0,1,203.5,179.6Zm-.26-.66a1.49,1.49,0,0,0,.84-.67,1.14,1.14,0,0,0-.62-1.59,1.54,1.54,0,0,0-1.07.06,1.6,1.6,0,0,0-.85.68,1,1,0,0,0,0,.93,1.07,1.07,0,0,0,.67.66A1.52,1.52,0,0,0,203.24,178.94Zm-1.09-2.86a1.26,1.26,0,0,0,.69-.55.94.94,0,0,0,0-.79.88.88,0,0,0-.55-.56,1.32,1.32,0,0,0-.89,0,1.4,1.4,0,0,0-.73.57.91.91,0,0,0,0,.79.89.89,0,0,0,.57.55A1.3,1.3,0,0,0,202.15,176.08Z"/>
      <path class="cls-4" d="M208.49,177.69a2.1,2.1,0,0,1-2-.17,4.78,4.78,0,0,1-1.68-4.4,2.06,2.06,0,0,1,1.35-1.45,2.1,2.1,0,0,1,2,.18,3.91,3.91,0,0,1,1.43,2,3.87,3.87,0,0,1,.25,2.41A2.06,2.06,0,0,1,208.49,177.69Zm-.26-.69a1.31,1.31,0,0,0,.84-1,3.37,3.37,0,0,0-.27-1.84,3.48,3.48,0,0,0-1-1.56,1.35,1.35,0,0,0-2.18.83,4.35,4.35,0,0,0,1.31,3.41A1.31,1.31,0,0,0,208.23,177Z"/>
    </g>
  </g>
  <g>
    <path class="cls-4" d="M25.35,74.6h-.71l-2-2.38a2.44,2.44,0,0,0-1.72-1,1.11,1.11,0,0,0-.85.32,1.39,1.39,0,0,0,.11,1.89,1.48,1.48,0,0,0,1.13.28l-.06.79A2,2,0,0,1,19.6,74,2.06,2.06,0,0,1,19,72.38a2.13,2.13,0,0,1,.53-1.49,1.78,1.78,0,0,1,1.37-.56,2.06,2.06,0,0,1,1.12.34,4.59,4.59,0,0,1,1.16,1.06l1.46,1.72V70.34h.74Z"/>
    <path class="cls-4" d="M25.36,69.35a11.63,11.63,0,0,1-5.56-2.81v3.54h-.73V65.69h.73q3.36,2.63,5.57,2.83Z"/>
    <path class="cls-4" d="M24.44,66.06v-.88h.94v.88Z"/>
    <path class="cls-4" d="M25.38,63.76H20.11a2.83,2.83,0,0,1,.69,1.5h-.72a2.81,2.81,0,0,0-1-1.62V63l6.3,0Z"/>
    <path class="cls-4" d="M19,60.51,20.8,61v1L19,61Zm0-1.33,1.78.49v1L19,59.7Z"/>
    <path class="cls-4" d="M9.13,71.78a2.18,2.18,0,0,1,.6-1.59,2.07,2.07,0,0,1,1.55-.63,2,2,0,0,1,1.54.65,2.33,2.33,0,0,1,.6,1.65,2.09,2.09,0,0,1-.79,1.69,3.23,3.23,0,0,1-2.1.64,4,4,0,0,1-2.62-.81A2.68,2.68,0,0,1,7,71.26a2.62,2.62,0,0,1,.58-1.71L8.2,70a1.92,1.92,0,0,0-.49,1.31,2,2,0,0,0,.66,1.52,2.47,2.47,0,0,0,1.7.63,1.57,1.57,0,0,1-.69-.66A1.93,1.93,0,0,1,9.13,71.78Zm3.15,1.1a1.39,1.39,0,0,0,.4-1,1.41,1.41,0,0,0-.4-1,1.44,1.44,0,0,0-1-.42,1.39,1.39,0,0,0-1,.41,1.45,1.45,0,0,0-.4,1,1.43,1.43,0,0,0,.4,1,1.36,1.36,0,0,0,1,.41A1.39,1.39,0,0,0,12.28,72.88Z"/>
    <path class="cls-4" d="M13.43,66.58a2.48,2.48,0,0,1-.51,1.63,1.69,1.69,0,0,1-1.37.63,1.57,1.57,0,0,1-1-.33,1.68,1.68,0,0,1-.6-.87,1.61,1.61,0,0,1-.55.68,1.39,1.39,0,0,1-.78.25A1.49,1.49,0,0,1,7.45,68a2.48,2.48,0,0,1,0-2.88,1.5,1.5,0,0,1,1.2-.53,1.32,1.32,0,0,1,.78.25,1.58,1.58,0,0,1,.54.68,1.69,1.69,0,0,1,.61-.86,1.57,1.57,0,0,1,1-.33,1.69,1.69,0,0,1,1.36.62A2.36,2.36,0,0,1,13.43,66.58Zm-3.77,0a1.24,1.24,0,0,0-.26-.84.94.94,0,0,0-.72-.32.87.87,0,0,0-.72.31,1.26,1.26,0,0,0-.28.85,1.34,1.34,0,0,0,.27.88.88.88,0,0,0,.72.32.92.92,0,0,0,.72-.34A1.28,1.28,0,0,0,9.66,66.57Zm3.06,0a1.44,1.44,0,0,0-.32-1,1,1,0,0,0-.85-.39,1.09,1.09,0,0,0-.86.38,1.58,1.58,0,0,0-.32,1,1.49,1.49,0,0,0,.32,1,1,1,0,0,0,.85.39,1.06,1.06,0,0,0,.86-.39A1.57,1.57,0,0,0,12.72,66.59Z"/>
    <path class="cls-4" d="M13.37,63.27a11.59,11.59,0,0,1-5.56-2.81V64H7.07V59.61h.73q3.36,2.63,5.56,2.82Z"/>
  </g>
  <g>
    <g class="cls-3">
      <path class="cls-4" d="M37.34,175.54a2.39,2.39,0,0,1-1.18-1.12,1.9,1.9,0,0,1-.06-1.5l.75.24a1.23,1.23,0,0,0,0,1,1.53,1.53,0,0,0,.77.73,1.5,1.5,0,0,0,1.1.14,1.3,1.3,0,0,0,.77-.69,1.28,1.28,0,0,0,.08-1,1.45,1.45,0,0,0-.78-.76,1.25,1.25,0,0,0-.71-.12L38,171.8l2.65-.91-2.76-1.33.32-.66,3.62,1.75-.31.64-2.37.79a1.92,1.92,0,0,1,1.19,1.06,1.8,1.8,0,0,1-.09,1.56,1.93,1.93,0,0,1-1.2,1.06A2.42,2.42,0,0,1,37.34,175.54Z"/>
      <path class="cls-4" d="M39.93,176.71l.3-.65,3-.81a2.46,2.46,0,0,0,1.7-1.1,1.11,1.11,0,0,0,.07-.9,1.18,1.18,0,0,0-.65-.67,1.23,1.23,0,0,0-1.1-.05,1.49,1.49,0,0,0-.74.9l-.69-.4a2.17,2.17,0,0,1,4,0,1.76,1.76,0,0,1-.09,1.48,2.18,2.18,0,0,1-.79.87,4.81,4.81,0,0,1-1.46.58l-2.17.57,2.8,1.35-.32.67Z"/>
      <path class="cls-4" d="M45.19,178.21l.8.38-.41.84-.79-.38Z"/>
      <path class="cls-4" d="M48.45,180.89a2.45,2.45,0,0,1-1.24-1.17,1.65,1.65,0,0,1,0-1.5,1.5,1.5,0,0,1,.71-.74,1.69,1.69,0,0,1,1-.17,1.64,1.64,0,0,1-.37-.79,1.39,1.39,0,0,1,.11-.81,1.51,1.51,0,0,1,1-.84,2.19,2.19,0,0,1,1.51.22,2.1,2.1,0,0,1,1.08,1,1.51,1.51,0,0,1,0,1.31,1.37,1.37,0,0,1-.57.6,1.49,1.49,0,0,1-.84.19,1.68,1.68,0,0,1,.52.92,1.61,1.61,0,0,1-.14,1,1.71,1.71,0,0,1-1.14,1A2.44,2.44,0,0,1,48.45,180.89Zm.3-.64a1.47,1.47,0,0,0,1.06.15,1,1,0,0,0,.72-.6,1.07,1.07,0,0,0,0-.94,1.55,1.55,0,0,0-.78-.73A1.58,1.58,0,0,0,48.7,178a1.15,1.15,0,0,0-.74,1.54A1.59,1.59,0,0,0,48.75,180.25Zm1.34-2.75a1.25,1.25,0,0,0,.87.12.93.93,0,0,0,.61-.51.89.89,0,0,0,0-.78,1.27,1.27,0,0,0-.65-.62,1.4,1.4,0,0,0-.91-.14.89.89,0,0,0-.6.52.91.91,0,0,0,0,.79A1.34,1.34,0,0,0,50.09,177.5Z"/>
      <path class="cls-4" d="M55.19,177,54,178.38,53.1,178l1.63-1.19Zm1.2.58L55.18,179l-.89-.43,1.63-1.19Z"/>
    </g>
    <g class="cls-3">
      <path class="cls-4" d="M45,165.89a2.48,2.48,0,0,1-1.25-1.17,1.68,1.68,0,0,1,0-1.51,1.61,1.61,0,0,1,.72-.74,1.69,1.69,0,0,1,1-.17,1.6,1.6,0,0,1-.37-.79,1.28,1.28,0,0,1,.11-.8,1.48,1.48,0,0,1,1-.85,2.25,2.25,0,0,1,1.51.22,2.13,2.13,0,0,1,1.08,1,1.53,1.53,0,0,1,0,1.32,1.4,1.4,0,0,1-.57.59,1.53,1.53,0,0,1-.84.19,1.73,1.73,0,0,1,.51.92,1.59,1.59,0,0,1-.13,1,1.68,1.68,0,0,1-1.15,1A2.46,2.46,0,0,1,45,165.89Zm.3-.65a1.47,1.47,0,0,0,1.06.15,1.13,1.13,0,0,0,.74-1.54,1.48,1.48,0,0,0-.78-.73,1.55,1.55,0,0,0-1.07-.16,1.13,1.13,0,0,0-.74,1.54A1.51,1.51,0,0,0,45.29,165.24Zm1.34-2.75a1.25,1.25,0,0,0,.87.12.9.9,0,0,0,.6-.51.86.86,0,0,0,0-.78,1.26,1.26,0,0,0-.65-.61,1.3,1.3,0,0,0-.92-.14.86.86,0,0,0-.59.51.88.88,0,0,0,0,.79A1.26,1.26,0,0,0,46.63,162.49Z"/>
      <path class="cls-4" d="M49.45,168a2.39,2.39,0,0,1-1.18-1.12,1.94,1.94,0,0,1-.06-1.5l.75.23a1.26,1.26,0,0,0,0,1,1.57,1.57,0,0,0,.77.73,1.5,1.5,0,0,0,1.1.13,1.22,1.22,0,0,0,.77-.69,1.23,1.23,0,0,0,.08-1,1.43,1.43,0,0,0-.78-.75,1.24,1.24,0,0,0-.71-.12l-.09-.63,2.65-.91L50,162.05l.32-.65L54,163.14l-.3.64-2.38.8a2,2,0,0,1,1.2,1,2.06,2.06,0,0,1-1.3,2.62A2.37,2.37,0,0,1,49.45,168Z"/>
      <path class="cls-4" d="M54.08,170.27a2.39,2.39,0,0,1-1.18-1.12,1.94,1.94,0,0,1-.06-1.5l.75.23a1.26,1.26,0,0,0,0,1,1.57,1.57,0,0,0,.77.73,1.45,1.45,0,0,0,1.1.13,1.22,1.22,0,0,0,.77-.69,1.27,1.27,0,0,0,.08-1,1.43,1.43,0,0,0-.78-.75,1.24,1.24,0,0,0-.71-.12l-.09-.63,2.65-.91-2.76-1.33.32-.65,3.62,1.74-.3.64-2.38.8a2,2,0,0,1,1.2,1.05,2.06,2.06,0,0,1-1.3,2.62A2.37,2.37,0,0,1,54.08,170.27Z"/>
    </g>
  </g>
</svg>
