<svg id="Vrstva_1" data-name="Vrstva 1" xmlns="http://www.w3.org/2000/svg" viewBox="0 0 240.94 226.77">
  <defs>
    <style>
      .cls-1, .cls-2, .cls-3, .cls-4, .cls-5, .cls-8 {
        fill: none;
        stroke-linecap: round;
        stroke-linejoin: round;
      }

      .cls-1, .cls-2, .cls-3, .cls-4 {
        stroke: #ffffff;
      }

      .cls-1, .cls-5, .cls-6, .cls-8 {
        stroke-width: .7px;
      }

      .cls-2 {
        stroke-width: .7px;
      }

      .cls-3 {
        stroke-width: .7px;
      }

      .cls-4 {
        stroke-width: .7px;
      }

      .cls-5 {
        stroke: #ffffff;
      }

      .cls-6 {
        fill: #ffffff;
        stroke: #ffffff;
        stroke-miterlimit: 10;
      }

      .cls-7 {
        fill: #24466f;
      }

      .cls-8 {
        stroke: #ffffff;
      }

      .cls-9 {
        fill: #24466f;
      }
    </style>
  </defs>
  <g>
    <path class="cls-1" d="M178,32.65l-.1.14a4,4,0,0,0-.61,1.63,4.14,4.14,0,0,0,.1,1.82l.1.3"/>
    <g>
      <ellipse class="cls-2" cx="178.34" cy="34.65" rx="1.12" ry="0.38" transform="translate(124.59 208.2) rotate(-83.79)"/>
      <ellipse class="cls-3" cx="178.35" cy="34.66" rx="1.98" ry="0.71" transform="translate(121.28 207.15) rotate(-82.69)"/>
    </g>
    <path class="cls-1" d="M178,34.37h.35l.1.83H178"/>
    <line class="cls-1" x1="178.68" y1="34.29" x2="178.36" y2="34.35"/>
    <line class="cls-1" x1="178.03" y1="34.19" x2="178.61" y2="34.24"/>
    <path class="cls-1" d="M178.59,32.67l-1.64-.1h-.14a.31.31,0,0,0-.11.09,3.35,3.35,0,0,0-.27.45,3.69,3.69,0,0,0-.32,1.18,4,4,0,0,0,0,1.47,4.78,4.78,0,0,0,.19.48l.06.1.11.09,1.54.16"/>
    <ellipse class="cls-4" cx="177.76" cy="34.87" rx="0.25" ry="0.12" transform="translate(129.17 209.38) rotate(-85.54)"/>
    <ellipse class="cls-1" cx="178.91" cy="34.43" rx="0.12" ry="0.25"/>
  </g>
  <path class="cls-5" d="M138.16,161.09,19.61,133.62"/>
  <polyline class="cls-6" points="19.43 133.56 25.14 133.38 24.55 136.19 19.43 133.56"/>
  <polyline class="cls-6" points="138.38 161.15 132.66 161.26 133.28 158.46 138.38 161.15"/>
  <path class="cls-5" d="M181.38,131.9,214,139.38"/>
  <polyline class="cls-6" points="193.45 151.42 189.98 155.96 188.25 153.79 193.45 151.42"/>
  <polyline class="cls-6" points="209.65 138.3 213.11 133.74 214.85 135.9 209.65 138.3"/>
  <g>
    <g>
      <path class="cls-7" d="M226.61,136.6l-3.32-4.09a3,3,0,0,1-.68,1.46l-.46-.57a2.75,2.75,0,0,0,.63-1.8l.5-.41,4,4.9Z"/>
      <path class="cls-7" d="M229.71,134.2a2.45,2.45,0,0,1-1.51.59,1.85,1.85,0,0,1-1.38-.58l.53-.58a1.34,1.34,0,0,0,.91.38,1.59,1.59,0,0,0,1-.38,1.45,1.45,0,0,0,.58-.94,1.38,1.38,0,0,0-1.18-1.5,1.42,1.42,0,0,0-1,.38,1.31,1.31,0,0,0-.42.59l-.63-.19.31-2.79-2.38,1.93-.46-.56L227.2,128l.45.55-.29,2.49a1.93,1.93,0,0,1,1.46-.63,1.74,1.74,0,0,1,1.37.75,1.88,1.88,0,0,1,.45,1.54A2.39,2.39,0,0,1,229.71,134.2Z"/>
      <path class="cls-7" d="M231.61,131.35l.68-.56.59.73-.68.55Z"/>
      <path class="cls-7" d="M234,130.63l-3.32-4.1A3.11,3.11,0,0,1,230,128l-.46-.57a2.78,2.78,0,0,0,.63-1.79l.5-.41,4,4.89Z"/>
      <path class="cls-7" d="M232.5,123.64l.75,1.69-.77.62-.38-2Zm1-.84.74,1.69-.77.62-.38-2Z"/>
    </g>
    <g>
      <path class="cls-7" d="M220.11,126.52a2.45,2.45,0,0,1-1.51.59,1.94,1.94,0,0,1-1.38-.59l.53-.57a1.34,1.34,0,0,0,.91.38,1.72,1.72,0,0,0,1.58-1.32,1.25,1.25,0,0,0-.3-1,1.18,1.18,0,0,0-.89-.51,1.38,1.38,0,0,0-1,.38,1.29,1.29,0,0,0-.41.59l-.61-.18.31-2.79L215,123.43l-.46-.57,3.11-2.52.44.55-.29,2.49a2,2,0,0,1,1.46-.63,1.81,1.81,0,0,1,1.38.75A1.87,1.87,0,0,1,221,125,2.44,2.44,0,0,1,220.11,126.52Z"/>
      <path class="cls-7" d="M224.1,123.28a2.34,2.34,0,0,1-1.51.59,1.93,1.93,0,0,1-1.38-.58l.53-.58a1.3,1.3,0,0,0,.91.38,1.59,1.59,0,0,0,1-.38,1.5,1.5,0,0,0,.59-.94,1.4,1.4,0,0,0-1.19-1.5,1.42,1.42,0,0,0-1,.38,1.29,1.29,0,0,0-.41.59l-.6-.18.3-2.78L219,120.2l-.46-.56,3.11-2.54.45.55-.3,2.49a2,2,0,0,1,1.46-.63,1.81,1.81,0,0,1,1.38.75,1.88,1.88,0,0,1,.44,1.54A2.39,2.39,0,0,1,224.1,123.28Z"/>
      <path class="cls-7" d="M226.27,121.44l-.46-.55.56-3.08a2.43,2.43,0,0,0-.28-2,1,1,0,0,0-.78-.45,1.15,1.15,0,0,0-.88.3,1.24,1.24,0,0,0-.52,1,1.49,1.49,0,0,0,.5,1l-.65.46a2,2,0,0,1,0-2.83h0l.2-.17a2.18,2.18,0,0,1,1.48-.54,1.72,1.72,0,0,1,1.3.71,2.16,2.16,0,0,1,.45,1.09,4.72,4.72,0,0,1-.08,1.59l-.41,2.21,2.41-2,.46.57Z"/>
    </g>
  </g>
  <path class="cls-8" d="M165,144.91l33.12,7.58"/>
  <line class="cls-5" x1="183.45" y1="159.44" x2="237.4" y2="115.86"/>
  <path class="cls-5" d="M158.76,146l-23.93,17.77"/>
  <path class="cls-5" d="M39.46,118.78l-22.9,16.88"/>
  <line class="cls-1" x1="165.46" y1="50.54" x2="163.12" y2="142.31"/>
  <line class="cls-1" x1="161.02" y1="142.51" x2="163.12" y2="50.63"/>
  <line class="cls-1" x1="73.85" y1="48.87" x2="74.64" y2="50.3"/>
  <line class="cls-1" x1="73.78" y1="48.89" x2="73.85" y2="48.87"/>
  <line class="cls-1" x1="74.57" y1="50.32" x2="73.78" y2="48.89"/>
  <line class="cls-1" x1="74.64" y1="50.3" x2="74.57" y2="50.32"/>
  <line class="cls-1" x1="73.79" y1="46.8" x2="73.85" y2="48.87"/>
  <line class="cls-1" x1="73.72" y1="46.82" x2="73.79" y2="46.8"/>
  <line class="cls-1" x1="73.78" y1="48.89" x2="73.72" y2="46.82"/>
  <line class="cls-1" x1="72.93" y1="46.7" x2="73.79" y2="46.8"/>
  <line class="cls-1" x1="72.86" y1="46.72" x2="72.93" y2="46.7"/>
  <line class="cls-1" x1="72.86" y1="46.72" x2="72.93" y2="48.79"/>
  <line class="cls-1" x1="72.93" y1="48.79" x2="72.22" y2="50.04"/>
  <line class="cls-1" x1="72.22" y1="50.04" x2="72.36" y2="54.6"/>
  <line class="cls-1" x1="74.7" y1="54.9" x2="74.77" y2="54.88"/>
  <line class="cls-1" x1="72.36" y1="54.6" x2="74.7" y2="54.9"/>
  <line class="cls-1" x1="74.76" y1="54.59" x2="74.77" y2="54.88"/>
  <line class="cls-1" x1="74.7" y1="54.61" x2="74.76" y2="54.59"/>
  <line class="cls-1" x1="72.66" y1="54.33" x2="74.76" y2="54.59"/>
  <line class="cls-1" x1="72.59" y1="54.35" x2="72.66" y2="54.33"/>
  <line class="cls-1" x1="74.7" y1="54.61" x2="72.59" y2="54.35"/>
  <line class="cls-1" x1="72.53" y1="50.14" x2="72.66" y2="54.33"/>
  <line class="cls-1" x1="72.46" y1="50.16" x2="72.53" y2="50.14"/>
  <line class="cls-1" x1="72.59" y1="54.35" x2="72.46" y2="50.16"/>
  <line class="cls-1" x1="73.23" y1="48.88" x2="72.53" y2="50.14"/>
  <line class="cls-1" x1="73.17" y1="48.9" x2="73.23" y2="48.88"/>
  <line class="cls-1" x1="72.46" y1="50.16" x2="73.17" y2="48.9"/>
  <line class="cls-1" x1="73.17" y1="48.9" x2="73.11" y2="47.04"/>
  <line class="cls-1" x1="73.5" y1="47.08" x2="73.55" y2="48.95"/>
  <line class="cls-1" x1="73.55" y1="48.95" x2="74.34" y2="50.38"/>
  <line class="cls-1" x1="74.34" y1="50.38" x2="74.45" y2="54.3"/>
  <line class="cls-1" x1="74.69" y1="54.33" x2="74.76" y2="54.31"/>
  <line class="cls-1" x1="74.45" y1="54.3" x2="74.69" y2="54.33"/>
  <line class="cls-1" x1="74.64" y1="50.3" x2="74.76" y2="54.31"/>
  <line class="cls-1" x1="73.18" y1="47.04" x2="73.23" y2="48.88"/>
  <line class="cls-1" x1="73.72" y1="46.82" x2="72.86" y2="46.72"/>
  <line class="cls-1" x1="74.7" y1="54.9" x2="74.7" y2="54.61"/>
  <line class="cls-1" x1="74.69" y1="54.33" x2="74.57" y2="50.32"/>
  <line class="cls-1" x1="48.9" y1="48.7" x2="48.68" y2="48.67"/>
  <line class="cls-1" x1="47.78" y1="47.73" x2="47.79" y2="48.01"/>
  <line class="cls-1" x1="47.79" y1="48.01" x2="48.3" y2="48.07"/>
  <line class="cls-1" x1="48.45" y1="48.65" x2="46.9" y2="48.46"/>
  <line class="cls-1" x1="47.57" y1="47.7" x2="47.57" y2="47.7"/>
  <line class="cls-1" x1="47.57" y1="47.7" x2="47.53" y2="46.93"/>
  <line class="cls-1" x1="46.48" y1="48.41" x2="46.5" y2="48.68"/>
  <line class="cls-1" x1="46.5" y1="48.68" x2="46.69" y2="48.71"/>
  <line class="cls-1" x1="47.25" y1="51.48" x2="48.37" y2="51.62"/>
  <line class="cls-1" x1="48.18" y1="51.32" x2="47.42" y2="51.22"/>
  <line class="cls-1" x1="48.97" y1="48.68" x2="48.75" y2="48.65"/>
  <line class="cls-1" x1="48.98" y1="48.96" x2="48.97" y2="48.68"/>
  <line class="cls-1" x1="47.64" y1="47.69" x2="47.6" y2="46.91"/>
  <line class="cls-1" x1="47.64" y1="47.69" x2="47.64" y2="47.69"/>
  <line class="cls-1" x1="47.65" y1="47.96" x2="47.64" y2="47.69"/>
  <line class="cls-1" x1="48.53" y1="47.79" x2="47.85" y2="47.71"/>
  <line class="cls-1" x1="48.68" y1="48.67" x2="48.75" y2="48.65"/>
  <line class="cls-1" x1="48.97" y1="48.68" x2="48.9" y2="48.7"/>
  <line class="cls-1" x1="48.75" y1="48.65" x2="48.53" y2="47.79"/>
  <line class="cls-1" x1="48.46" y1="47.81" x2="48.53" y2="47.79"/>
  <line class="cls-1" x1="48.68" y1="48.67" x2="48.46" y2="47.81"/>
  <line class="cls-1" x1="47.78" y1="47.73" x2="47.85" y2="47.71"/>
  <line class="cls-1" x1="46.9" y1="48.46" x2="46.98" y2="48.44"/>
  <line class="cls-1" x1="46.98" y1="48.44" x2="47.05" y2="47.92"/>
  <line class="cls-1" x1="46.9" y1="48.46" x2="46.98" y2="47.91"/>
  <line class="cls-1" x1="47.58" y1="47.98" x2="47.65" y2="47.96"/>
  <line class="cls-1" x1="47.57" y1="47.7" x2="47.64" y2="47.69"/>
  <line class="cls-1" x1="47.57" y1="47.7" x2="47.64" y2="47.69"/>
  <line class="cls-1" x1="47.53" y1="46.93" x2="47.6" y2="46.91"/>
  <line class="cls-1" x1="47.6" y1="46.91" x2="48.09" y2="46.46"/>
  <line class="cls-1" x1="48.02" y1="46.47" x2="48.09" y2="46.46"/>
  <line class="cls-1" x1="47.53" y1="46.93" x2="48.02" y2="46.47"/>
  <line class="cls-1" x1="48.09" y1="46.46" x2="47.94" y2="46.22"/>
  <line class="cls-1" x1="47.87" y1="46.24" x2="47.94" y2="46.22"/>
  <line class="cls-1" x1="47.87" y1="46.24" x2="47.3" y2="46.77"/>
  <line class="cls-1" x1="46.8" y1="47.61" x2="46.87" y2="47.59"/>
  <line class="cls-1" x1="46.48" y1="48.41" x2="46.56" y2="48.39"/>
  <line class="cls-1" x1="46.69" y1="48.71" x2="47.25" y2="51.48"/>
  <line class="cls-1" x1="48.37" y1="51.62" x2="48.44" y2="51.6"/>
  <line class="cls-1" x1="48.44" y1="51.6" x2="48.77" y2="48.96"/>
  <line class="cls-1" x1="48.91" y1="48.97" x2="48.98" y2="48.96"/>
  <line class="cls-1" x1="47.49" y1="51.21" x2="46.99" y2="48.74"/>
  <line class="cls-1" x1="47.42" y1="51.22" x2="46.91" y2="48.73"/>
  <line class="cls-1" x1="47.42" y1="51.22" x2="47.49" y2="51.21"/>
  <line class="cls-1" x1="48.45" y1="48.62" x2="46.98" y2="48.44"/>
  <line class="cls-1" x1="48.46" y1="47.81" x2="47.78" y2="47.73"/>
  <line class="cls-1" x1="47.58" y1="47.98" x2="47.57" y2="47.7"/>
  <line class="cls-1" x1="47.35" y1="47.68" x2="46.8" y2="47.61"/>
  <line class="cls-1" x1="46.68" y1="48.43" x2="46.48" y2="48.41"/>
  <line class="cls-1" x1="48.91" y1="48.97" x2="48.9" y2="48.7"/>
  <line class="cls-1" x1="48.02" y1="46.47" x2="47.87" y2="46.24"/>
  <line class="cls-1" x1="48.37" y1="51.62" x2="48.7" y2="48.95"/>
  <line class="cls-1" x1="103.47" y1="52.74" x2="105.07" y2="52.93"/>
  <line class="cls-1" x1="103.41" y1="52.77" x2="103.47" y2="52.74"/>
  <line class="cls-1" x1="105.07" y1="52.93" x2="105" y2="52.95"/>
  <line class="cls-1" x1="103.41" y1="52.77" x2="103.41" y2="53.06"/>
  <line class="cls-1" x1="105.01" y1="53.25" x2="105.07" y2="53.23"/>
  <line class="cls-1" x1="103.41" y1="53.06" x2="105.01" y2="53.25"/>
  <line class="cls-1" x1="105.07" y1="52.93" x2="105.07" y2="53.23"/>
  <line class="cls-1" x1="105" y1="52.95" x2="103.41" y2="52.77"/>
  <line class="cls-1" x1="105.01" y1="53.25" x2="105" y2="52.95"/>
  <line class="cls-1" x1="45.29" y1="44.46" x2="45.29" y2="44.44"/>
  <line class="cls-1" x1="45.29" y1="44.44" x2="45.29" y2="44.44"/>
  <line class="cls-1" x1="45.28" y1="44.44" x2="44.6" y2="44.36"/>
  <line class="cls-1" x1="44.6" y1="44.36" x2="44.57" y2="43.77"/>
  <line class="cls-1" x1="45.05" y1="43.83" x2="45.06" y2="44.14"/>
  <line class="cls-1" x1="45.06" y1="44.14" x2="45.28" y2="44.17"/>
  <line class="cls-1" x1="44.34" y1="43.47" x2="44.38" y2="44.36"/>
  <line class="cls-1" x1="43.78" y1="46.68" x2="43.94" y2="49.97"/>
  <line class="cls-1" x1="44.25" y1="51.1" x2="46.07" y2="51.33"/>
  <line class="cls-1" x1="46.27" y1="50.25" x2="46.12" y2="46.96"/>
  <line class="cls-1" x1="45.9" y1="46.98" x2="46.05" y2="50.19"/>
  <line class="cls-1" x1="45.9" y1="51.03" x2="45.59" y2="51"/>
  <line class="cls-1" x1="45.59" y1="51" x2="45.56" y2="50.4"/>
  <line class="cls-1" x1="45.37" y1="50.97" x2="44.91" y2="50.91"/>
  <line class="cls-1" x1="44.91" y1="50.91" x2="44.88" y2="50.31"/>
  <line class="cls-1" x1="44.69" y1="50.88" x2="44.4" y2="50.85"/>
  <line class="cls-1" x1="44.15" y1="49.96" x2="44" y2="46.76"/>
  <line class="cls-1" x1="46.34" y1="50.23" x2="46.19" y2="46.94"/>
  <line class="cls-1" x1="45.33" y1="43.56" x2="44.42" y2="43.46"/>
  <line class="cls-1" x1="45.35" y1="44.15" x2="45.33" y2="43.56"/>
  <line class="cls-1" x1="44.67" y1="44.34" x2="44.65" y2="43.78"/>
  <line class="cls-1" x1="45.35" y1="44.42" x2="44.67" y2="44.34"/>
  <line class="cls-1" x1="45.37" y1="44.42" x2="45.36" y2="44.42"/>
  <line class="cls-1" x1="45.37" y1="44.44" x2="45.37" y2="44.42"/>
  <line class="cls-1" x1="44.23" y1="49.94" x2="44.08" y2="46.74"/>
  <line class="cls-1" x1="44.95" y1="50.29" x2="44.73" y2="50.26"/>
  <line class="cls-1" x1="44.98" y1="50.89" x2="44.95" y2="50.29"/>
  <line class="cls-1" x1="45.63" y1="50.39" x2="45.41" y2="50.36"/>
  <line class="cls-1" x1="45.66" y1="50.98" x2="45.63" y2="50.39"/>
  <line class="cls-1" x1="46.19" y1="46.94" x2="45.37" y2="44.44"/>
  <line class="cls-1" x1="45.29" y1="44.46" x2="45.37" y2="44.44"/>
  <line class="cls-1" x1="46.12" y1="46.96" x2="45.29" y2="44.46"/>
  <line class="cls-1" x1="46.19" y1="46.94" x2="46.12" y2="46.96"/>
  <line class="cls-1" x1="45.29" y1="44.44" x2="45.37" y2="44.42"/>
  <line class="cls-1" x1="45.36" y1="44.42" x2="45.36" y2="44.42"/>
  <line class="cls-1" x1="45.36" y1="44.42" x2="45.35" y2="44.42"/>
  <line class="cls-1" x1="45.29" y1="44.43" x2="45.28" y2="44.44"/>
  <line class="cls-1" x1="44.6" y1="44.36" x2="44.67" y2="44.34"/>
  <line class="cls-1" x1="45.28" y1="44.17" x2="45.35" y2="44.15"/>
  <line class="cls-1" x1="45.25" y1="43.58" x2="45.33" y2="43.56"/>
  <line class="cls-1" x1="44.34" y1="43.47" x2="44.42" y2="43.46"/>
  <line class="cls-1" x1="44.38" y1="44.36" x2="43.78" y2="46.68"/>
  <line class="cls-1" x1="43.94" y1="49.97" x2="44.25" y2="51.1"/>
  <line class="cls-1" x1="46.07" y1="51.33" x2="46.15" y2="51.31"/>
  <line class="cls-1" x1="46.15" y1="51.31" x2="46.34" y2="50.23"/>
  <line class="cls-1" x1="46.27" y1="50.25" x2="46.34" y2="50.23"/>
  <line class="cls-1" x1="45.15" y1="44.7" x2="45.9" y2="46.98"/>
  <line class="cls-1" x1="44.08" y1="46.74" x2="44.62" y2="44.64"/>
  <line class="cls-1" x1="44" y1="46.76" x2="44.55" y2="44.63"/>
  <line class="cls-1" x1="44" y1="46.76" x2="44.08" y2="46.74"/>
  <line class="cls-1" x1="44.15" y1="49.96" x2="44.23" y2="49.94"/>
  <line class="cls-1" x1="44.47" y1="50.83" x2="44.23" y2="49.94"/>
  <line class="cls-1" x1="44.4" y1="50.85" x2="44.15" y2="49.96"/>
  <line class="cls-1" x1="44.4" y1="50.85" x2="44.47" y2="50.83"/>
  <line class="cls-1" x1="44.66" y1="50.28" x2="44.73" y2="50.26"/>
  <line class="cls-1" x1="44.88" y1="50.31" x2="44.95" y2="50.29"/>
  <line class="cls-1" x1="44.91" y1="50.91" x2="44.98" y2="50.89"/>
  <line class="cls-1" x1="45.34" y1="50.38" x2="45.41" y2="50.36"/>
  <line class="cls-1" x1="45.56" y1="50.4" x2="45.63" y2="50.39"/>
  <line class="cls-1" x1="45.59" y1="51" x2="45.66" y2="50.98"/>
  <line class="cls-1" x1="44.69" y1="50.86" x2="44.47" y2="50.83"/>
  <line class="cls-1" x1="45.29" y1="44.44" x2="45.35" y2="44.42"/>
  <line class="cls-1" x1="45.28" y1="44.17" x2="45.25" y2="43.58"/>
  <line class="cls-1" x1="45.25" y1="43.58" x2="44.34" y2="43.47"/>
  <line class="cls-1" x1="45.56" y1="50.4" x2="45.34" y2="50.38"/>
  <line class="cls-1" x1="44.88" y1="50.31" x2="44.66" y2="50.28"/>
  <line class="cls-1" x1="46.07" y1="51.33" x2="46.27" y2="50.25"/>
  <line class="cls-1" x1="103.4" y1="50.2" x2="103.41" y2="51.44"/>
  <line class="cls-1" x1="103.41" y1="51.44" x2="103.67" y2="51.47"/>
  <line class="cls-1" x1="106.45" y1="57.02" x2="106.4" y2="52.1"/>
  <line class="cls-1" x1="102.35" y1="51.63" x2="102.41" y2="56.56"/>
  <line class="cls-1" x1="103.97" y1="58.55" x2="106.47" y2="58.86"/>
  <line class="cls-1" x1="106.47" y1="58.56" x2="104.14" y2="58.27"/>
  <line class="cls-1" x1="104.14" y1="58.27" x2="104.12" y2="56.56"/>
  <line class="cls-1" x1="104.12" y1="56.56" x2="102.67" y2="56.38"/>
  <line class="cls-1" x1="102.67" y1="56.38" x2="102.61" y2="51.95"/>
  <line class="cls-1" x1="106.14" y1="52.36" x2="106.2" y2="58.23"/>
  <line class="cls-1" x1="106.2" y1="58.23" x2="106.46" y2="58.26"/>
  <line class="cls-1" x1="107.59" y1="57.43" x2="107.52" y2="50.64"/>
  <line class="cls-1" x1="106.53" y1="58.23" x2="106.52" y2="57.32"/>
  <line class="cls-1" x1="104.19" y1="56.54" x2="102.73" y2="56.36"/>
  <line class="cls-1" x1="104.21" y1="58.25" x2="104.19" y2="56.54"/>
  <line class="cls-1" x1="106.53" y1="58.54" x2="104.21" y2="58.25"/>
  <line class="cls-1" x1="106.53" y1="58.84" x2="106.53" y2="58.54"/>
  <line class="cls-1" x1="106.46" y1="52.07" x2="102.42" y2="51.6"/>
  <line class="cls-1" x1="106.51" y1="57" x2="106.46" y2="52.07"/>
  <line class="cls-1" x1="103.73" y1="51.45" x2="103.72" y2="50.54"/>
  <line class="cls-1" x1="103.4" y1="50.2" x2="103.46" y2="50.18"/>
  <line class="cls-1" x1="107.52" y1="50.64" x2="107.46" y2="50.66"/>
  <line class="cls-1" x1="103.67" y1="51.47" x2="103.73" y2="51.45"/>
  <line class="cls-1" x1="106.45" y1="57.02" x2="106.51" y2="57"/>
  <line class="cls-1" x1="106.4" y1="52.1" x2="106.46" y2="52.07"/>
  <line class="cls-1" x1="102.35" y1="51.63" x2="102.42" y2="51.6"/>
  <line class="cls-1" x1="102.41" y1="56.56" x2="103.97" y2="58.55"/>
  <line class="cls-1" x1="106.47" y1="58.86" x2="106.53" y2="58.84"/>
  <line class="cls-1" x1="106.47" y1="58.56" x2="106.53" y2="58.54"/>
  <line class="cls-1" x1="104.14" y1="58.27" x2="104.21" y2="58.25"/>
  <line class="cls-1" x1="104.12" y1="56.56" x2="104.19" y2="56.54"/>
  <line class="cls-1" x1="102.67" y1="56.38" x2="102.73" y2="56.36"/>
  <line class="cls-1" x1="106.46" y1="58.26" x2="106.53" y2="58.23"/>
  <line class="cls-1" x1="107.53" y1="57.45" x2="107.59" y2="57.43"/>
  <line class="cls-1" x1="103.89" y1="58.03" x2="102.85" y2="56.7"/>
  <line class="cls-1" x1="103.88" y1="57.92" x2="102.94" y2="56.71"/>
  <line class="cls-1" x1="103.67" y1="51.47" x2="103.66" y2="50.53"/>
  <line class="cls-1" x1="106.4" y1="52.1" x2="102.35" y2="51.63"/>
  <line class="cls-1" x1="106.47" y1="58.86" x2="106.47" y2="58.56"/>
  <line class="cls-1" x1="106.46" y1="58.26" x2="106.45" y2="57.32"/>
  <line class="cls-1" x1="107.53" y1="57.45" x2="107.46" y2="50.66"/>
  <line class="cls-1" x1="107.66" y1="24.48" x2="115.17" y2="25.29"/>
  <line class="cls-1" x1="107.8" y1="39.72" x2="107.41" y2="39.68"/>
  <line class="cls-1" x1="108.2" y1="24.53" x2="107.66" y2="24.48"/>
  <line class="cls-1" x1="106.75" y1="23.94" x2="108.24" y2="24.06"/>
  <line class="cls-1" x1="108.2" y1="24.53" x2="115.9" y2="25.36"/>
  <line class="cls-1" x1="115.9" y1="25.36" x2="115.17" y2="25.3"/>
  <line class="cls-1" x1="45.37" y1="50.94" x2="44.98" y2="50.89"/>
  <line class="cls-1" x1="107.26" y1="24.45" x2="106.72" y2="24.41"/>
  <line class="cls-1" x1="107.26" y1="24.47" x2="106.72" y2="24.41"/>
  <line class="cls-1" x1="46.68" y1="48.4" x2="46.56" y2="48.39"/>
  <line class="cls-1" x1="47.34" y1="47.65" x2="46.87" y2="47.59"/>
  <line class="cls-1" x1="48.18" y1="51.29" x2="47.49" y2="51.21"/>
  <line class="cls-1" x1="107.66" y1="24.48" x2="107.26" y2="24.45"/>
  <line class="cls-1" x1="76.61" y1="51.24" x2="76.65" y2="52.68"/>
  <line class="cls-1" x1="76.68" y1="51.22" x2="76.61" y2="51.24"/>
  <line class="cls-1" x1="75.4" y1="52.49" x2="76.06" y2="53.27"/>
  <line class="cls-1" x1="75.33" y1="52.51" x2="75.4" y2="52.49"/>
  <line class="cls-1" x1="76.02" y1="53.32" x2="75.33" y2="52.51"/>
  <line class="cls-1" x1="75.33" y1="52.51" x2="75.3" y2="51.37"/>
  <line class="cls-1" x1="76.38" y1="51.5" x2="76.45" y2="51.48"/>
  <line class="cls-1" x1="76.44" y1="51.2" x2="76.45" y2="51.48"/>
  <line class="cls-1" x1="76.37" y1="51.22" x2="76.44" y2="51.2"/>
  <line class="cls-1" x1="75.12" y1="51.04" x2="76.44" y2="51.2"/>
  <line class="cls-1" x1="75.06" y1="51.06" x2="75.12" y2="51.04"/>
  <line class="cls-1" x1="75.06" y1="51.06" x2="75.1" y2="52.6"/>
  <line class="cls-1" x1="75.1" y1="52.6" x2="75.9" y2="53.55"/>
  <line class="cls-1" x1="75.16" y1="54.67" x2="75.23" y2="54.65"/>
  <line class="cls-1" x1="75.16" y1="54.67" x2="75.17" y2="54.95"/>
  <line class="cls-1" x1="76.96" y1="55.18" x2="77.03" y2="55.16"/>
  <line class="cls-1" x1="75.17" y1="54.95" x2="76.96" y2="55.18"/>
  <line class="cls-1" x1="77.02" y1="54.87" x2="77.03" y2="55.16"/>
  <line class="cls-1" x1="76.95" y1="54.89" x2="77.02" y2="54.87"/>
  <line class="cls-1" x1="76.24" y1="54.77" x2="77.02" y2="54.87"/>
  <line class="cls-1" x1="76.17" y1="54.8" x2="76.24" y2="54.77"/>
  <line class="cls-1" x1="76.95" y1="54.89" x2="76.17" y2="54.8"/>
  <line class="cls-1" x1="76.21" y1="53.58" x2="76.24" y2="54.77"/>
  <line class="cls-1" x1="76.14" y1="53.6" x2="76.21" y2="53.58"/>
  <line class="cls-1" x1="76.17" y1="54.8" x2="76.14" y2="53.6"/>
  <line class="cls-1" x1="76.96" y1="52.82" x2="76.21" y2="53.58"/>
  <line class="cls-1" x1="76.89" y1="52.84" x2="76.96" y2="52.82"/>
  <line class="cls-1" x1="76.14" y1="53.6" x2="76.89" y2="52.84"/>
  <line class="cls-1" x1="76.92" y1="51.25" x2="76.96" y2="52.82"/>
  <line class="cls-1" x1="76.85" y1="51.27" x2="76.92" y2="51.25"/>
  <line class="cls-1" x1="76.89" y1="52.84" x2="76.85" y2="51.27"/>
  <line class="cls-1" x1="76.68" y1="51.22" x2="76.92" y2="51.25"/>
  <line class="cls-1" x1="75.37" y1="51.38" x2="75.4" y2="52.49"/>
  <line class="cls-1" x1="76.38" y1="51.5" x2="76.37" y2="51.22"/>
  <line class="cls-1" x1="76.37" y1="51.22" x2="75.06" y2="51.06"/>
  <line class="cls-1" x1="75.94" y1="54.77" x2="75.16" y2="54.67"/>
  <line class="cls-1" x1="76.96" y1="55.18" x2="76.95" y2="54.89"/>
  <line class="cls-1" x1="76.85" y1="51.27" x2="76.61" y2="51.24"/>
  <line class="cls-1" x1="75.23" y1="54.65" x2="75.93" y2="54.74"/>
  <line class="cls-1" x1="45.9" y1="51.01" x2="45.66" y2="50.98"/>
  <path class="cls-1" d="M95.78,22.61h-.85"/>
  <path class="cls-1" d="M115.49,24.8h.2"/>
  <line class="cls-1" x1="61.47" y1="20.52" x2="106.74" y2="24.1"/>
  <line class="cls-1" x1="38.11" y1="18.12" x2="51.03" y2="19.47"/>
  <line class="cls-1" x1="94.93" y1="22.54" x2="38.36" y2="18.1"/>
  <path class="cls-1" d="M95.81,22.12H95"/>
  <line class="cls-1" x1="94.97" y1="22.05" x2="38.39" y2="17.65"/>
  <path class="cls-1" d="M38.39,17.65h-.8"/>
  <line class="cls-1" x1="37.56" y1="18.05" x2="37.59" y2="17.6"/>
  <path class="cls-1" d="M37.56,18.05h.55"/>
  <path class="cls-1" d="M37.59,17.6h.55"/>
  <line class="cls-1" x1="115.69" y1="24.8" x2="95.78" y2="22.61"/>
  <path class="cls-1" d="M160.49,143.06h.84a6,6,0,0,0,.85,0h.64l.2-.05h.4l.11-.06h.1l.08,0,.08-.06"/>
  <path class="cls-1" d="M160.5,142.6h.2a.81.81,0,0,0,.22,0,.67.67,0,0,0,.2,0h.22a6,6,0,0,0,.85,0h1.24l.11,0h.1l.09-.05.07-.06"/>
  <path class="cls-1" d="M163.79,142.69l14.12-11.79"/>
  <path class="cls-1" d="M163.8,142.23l14.12-11.77"/>
  <path class="cls-1" d="M177.91,130.9a.53.53,0,0,0,.12-.14.28.28,0,0,0,.06-.18"/>
  <path class="cls-1" d="M42.79,115.89l-.17.08-.15.11-.13.13h0v.09"/>
  <path class="cls-1" d="M43.07,117.28l117.42,25.78"/>
  <path class="cls-1" d="M43.05,116.88,160.5,142.6"/>
  <line class="cls-1" x1="178.1" y1="130.15" x2="178.09" y2="130.58"/>
  <path class="cls-1" d="M178.1,130.15V130a0,0,0,0,0,0-.05v-.06l-.17-.17a1.37,1.37,0,0,0-.2-.13l-.22-.11"/>
  <path class="cls-1" d="M178.09,130.58a.21.21,0,0,0,0-.11v-.11"/>
  <line class="cls-1" x1="42.3" y1="116.79" x2="42.28" y2="116.39"/>
  <path class="cls-1" d="M42.3,116.79v.11h0a1.37,1.37,0,0,0,.2.13l.23.09.23.06"/>
  <path class="cls-1" d="M42.28,116.39v.06h0a1.37,1.37,0,0,0,.2.13l.23.09.23.06"/>
  <path class="cls-1" d="M92.74,48.63a.45.45,0,0,0-.33.15.54.54,0,0,0-.1.16.54.54,0,0,0,0,.18"/>
  <path class="cls-1" d="M92.83,48.72h-.18l-.15.11a.86.86,0,0,0-.1.16.54.54,0,0,0,0,.18"/>
  <line class="cls-1" x1="92.28" y1="49.12" x2="92.28" y2="49.21"/>
  <line class="cls-1" x1="93.28" y1="72.93" x2="97.36" y2="72.67"/>
  <line class="cls-1" x1="92.9" y1="72.78" x2="92.81" y2="72.67"/>
  <path class="cls-1" d="M92.9,72.78a.66.66,0,0,0,.17.12.38.38,0,0,0,.21,0"/>
  <path class="cls-1" d="M63.15,45.27a.54.54,0,0,0-.18,0l-.14.11a.31.31,0,0,0-.1.15.54.54,0,0,0,0,.18"/>
  <path class="cls-1" d="M63.21,45.35H63l-.14.11a.31.31,0,0,0-.1.15.54.54,0,0,0,0,.18"/>
  <line class="cls-1" x1="62.7" y1="45.75" x2="62.7" y2="45.83"/>
  <line class="cls-1" x1="64.04" y1="68.67" x2="67.98" y2="68.43"/>
  <line class="cls-1" x1="63.62" y1="68.46" x2="63.56" y2="68.35"/>
  <path class="cls-1" d="M63.62,68.46l.08.09.1.07H64"/>
  <line class="cls-1" x1="140.57" y1="59.62" x2="140.08" y2="61.14"/>
  <line class="cls-1" x1="139" y1="62.59" x2="139.06" y2="62.57"/>
  <line class="cls-1" x1="139.49" y1="61.07" x2="139.55" y2="61.05"/>
  <line class="cls-1" x1="141.02" y1="59.33" x2="140.43" y2="61.16"/>
  <line class="cls-1" x1="140.96" y1="59.35" x2="141.02" y2="59.33"/>
  <line class="cls-1" x1="140.38" y1="61.18" x2="140.96" y2="59.35"/>
  <line class="cls-1" x1="140.43" y1="61.16" x2="140.38" y2="61.18"/>
  <line class="cls-1" x1="140.05" y1="59.21" x2="141.02" y2="59.33"/>
  <line class="cls-1" x1="139.99" y1="59.24" x2="140.05" y2="59.21"/>
  <line class="cls-1" x1="140.96" y1="59.35" x2="139.99" y2="59.24"/>
  <line class="cls-1" x1="140.57" y1="58.18" x2="140.05" y2="59.21"/>
  <line class="cls-1" x1="140.51" y1="58.2" x2="140.57" y2="58.18"/>
  <line class="cls-1" x1="139.99" y1="59.24" x2="140.51" y2="58.2"/>
  <line class="cls-1" x1="140.32" y1="58.01" x2="140.57" y2="58.18"/>
  <line class="cls-1" x1="140.26" y1="58.03" x2="140.32" y2="58.01"/>
  <line class="cls-1" x1="138.65" y1="59.08" x2="138.7" y2="59.05"/>
  <line class="cls-1" x1="138.65" y1="59.08" x2="139.2" y2="61.04"/>
  <line class="cls-1" x1="139.2" y1="61.04" x2="138.61" y2="62.85"/>
  <line class="cls-1" x1="140.93" y1="63.14" x2="140.98" y2="63.12"/>
  <line class="cls-1" x1="140.43" y1="61.16" x2="140.98" y2="63.12"/>
  <line class="cls-1" x1="140.51" y1="58.2" x2="140.26" y2="58.03"/>
  <line class="cls-1" x1="140.93" y1="63.14" x2="140.38" y2="61.18"/>
  <path class="cls-1" d="M139.79,61.26h.06"/>
  <path class="cls-1" d="M140,61.1h0"/>
  <path class="cls-1" d="M139.93,61.13v-.06a.06.06,0,0,0,0-.06h-.06"/>
  <path class="cls-1" d="M139.85,60.93h.06V61"/>
  <path class="cls-1" d="M139.65,61.09v.11h.06"/>
  <line class="cls-1" x1="139.91" y1="61.23" x2="139.85" y2="61.26"/>
  <line class="cls-1" x1="139.73" y1="60.96" x2="139.79" y2="60.94"/>
  <path class="cls-1" d="M139.73,61h0"/>
  <path class="cls-1" d="M139.79,60.94h.06"/>
  <path class="cls-1" d="M139.79,61h-.06"/>
  <path class="cls-1" d="M139.85,61.26h0"/>
  <path class="cls-1" d="M124.87,52.27a.61.61,0,0,0-.19,0,.44.44,0,0,0-.15.12.36.36,0,0,0-.11.16.61.61,0,0,0,0,.19"/>
  <path class="cls-1" d="M125,52.37a.37.37,0,0,0-.18.05.36.36,0,0,0-.16.11.59.59,0,0,0-.1.17.61.61,0,0,0,0,.19"/>
  <line class="cls-1" x1="124.39" y1="52.79" x2="124.39" y2="52.89"/>
  <line class="cls-1" x1="124.99" y1="77.56" x2="129.23" y2="77.26"/>
  <line class="cls-1" x1="124.66" y1="77.44" x2="124.52" y2="77.32"/>
  <path class="cls-1" d="M124.66,77.44a.38.38,0,0,0,.15.09.54.54,0,0,0,.18,0"/>
  <path class="cls-1" d="M124.52,77.32l.08.05"/>
  <path class="cls-1" d="M179.27,43.77h0"/>
  <path class="cls-1" d="M60.91,32.34h-.6"/>
  <line class="cls-1" x1="60.73" y1="20.46" x2="106.74" y2="24.11"/>
  <line class="cls-1" x1="60.47" y1="20.51" x2="106.73" y2="24.18"/>
  <line class="cls-1" x1="51.65" y1="34.13" x2="51.98" y2="34.16"/>
  <line class="cls-1" x1="51.37" y1="19.49" x2="51.03" y2="19.47"/>
  <line class="cls-1" x1="51.98" y1="34.16" x2="60.31" y2="32.36"/>
  <line class="cls-1" x1="172.7" y1="46.18" x2="173.16" y2="46.23"/>
  <line class="cls-1" x1="173.65" y1="29.15" x2="173.18" y2="29.11"/>
  <line class="cls-1" x1="173.65" y1="29.15" x2="179.71" y2="29.88"/>
  <path class="cls-1" d="M179.79,29.89h-.08"/>
  <path class="cls-1" d="M60,20.43l.22.05h.22"/>
  <path class="cls-1" d="M59.89,20.39h.84"/>
  <line class="cls-1" x1="103.49" y1="54.12" x2="104.34" y2="54.22"/>
  <line class="cls-1" x1="103.42" y1="54.14" x2="103.49" y2="54.12"/>
  <line class="cls-1" x1="104.34" y1="54.22" x2="104.28" y2="54.24"/>
  <line class="cls-1" x1="103.42" y1="54.14" x2="103.43" y2="54.44"/>
  <line class="cls-1" x1="104.28" y1="54.54" x2="104.35" y2="54.52"/>
  <line class="cls-1" x1="103.43" y1="54.44" x2="104.28" y2="54.54"/>
  <line class="cls-1" x1="104.34" y1="54.22" x2="104.35" y2="54.52"/>
  <line class="cls-1" x1="104.28" y1="54.24" x2="103.42" y2="54.14"/>
  <line class="cls-1" x1="104.28" y1="54.54" x2="104.28" y2="54.24"/>
  <line class="cls-1" x1="105.43" y1="53.99" x2="105.5" y2="53.97"/>
  <line class="cls-1" x1="103.42" y1="53.75" x2="105.43" y2="53.99"/>
  <line class="cls-1" x1="105.49" y1="53.67" x2="105.5" y2="53.97"/>
  <line class="cls-1" x1="105.43" y1="53.69" x2="105.49" y2="53.67"/>
  <line class="cls-1" x1="103.48" y1="53.43" x2="105.49" y2="53.67"/>
  <line class="cls-1" x1="103.42" y1="53.45" x2="103.48" y2="53.43"/>
  <line class="cls-1" x1="103.42" y1="53.45" x2="103.42" y2="53.75"/>
  <line class="cls-1" x1="105.43" y1="53.99" x2="105.43" y2="53.69"/>
  <line class="cls-1" x1="105.43" y1="53.69" x2="103.42" y2="53.45"/>
  <path class="cls-1" d="M59.75,20.37l.86.07.86.08"/>
  <line class="cls-1" x1="38.11" y1="18.08" x2="38.11" y2="18.12"/>
  <line class="cls-1" x1="60.91" y1="32.34" x2="107.38" y2="36.79"/>
  <line class="cls-1" x1="107.38" y1="36.43" x2="107.38" y2="36.43"/>
  <path class="cls-1" d="M179.59,43.43h.31"/>
  <line class="cls-1" x1="113.62" y1="24.65" x2="115.49" y2="24.8"/>
  <line class="cls-1" x1="113.79" y1="24.67" x2="173.18" y2="29.37"/>
  <line class="cls-1" x1="115.94" y1="24.91" x2="173.17" y2="29.45"/>
  <line class="cls-1" x1="108.2" y1="24.53" x2="108.24" y2="24.06"/>
  <line class="cls-1" x1="51.98" y1="34.16" x2="51.37" y2="19.49"/>
  <path class="cls-1" d="M35.8,42.17a.49.49,0,0,0-.17,0,.33.33,0,0,0-.14.1.42.42,0,0,0-.09.14.49.49,0,0,0,0,.17"/>
  <line class="cls-1" x1="35.37" y1="42.62" x2="35.4" y2="42.7"/>
  <path class="cls-1" d="M35.83,42.24a.49.49,0,0,0-.17,0,.71.71,0,0,0-.14.1.38.38,0,0,0-.09.15.49.49,0,0,0,0,.17"/>
  <line class="cls-1" x1="35.37" y1="42.62" x2="35.38" y2="42.7"/>
  <path class="cls-1" d="M36.55,64.44a.27.27,0,0,0,.06.12.52.52,0,0,0,.11.1l.13.06H37"/>
  <path class="cls-1" d="M96.18,22.64h-.1"/>
  <path class="cls-1" d="M116.84,24.9h-.77"/>
  <line class="cls-1" x1="179.88" y1="29.9" x2="179.79" y2="29.89"/>
  <path class="cls-1" d="M181.24,30h.18"/>
  <path class="cls-1" d="M163.23,27.89,165,28l.87.08h.88"/>
  <line class="cls-1" x1="96.4" y1="22.16" x2="163.28" y2="27.36"/>
  <path class="cls-1" d="M163.28,27.36l1.75.15.87.08h.88"/>
  <line class="cls-1" x1="166.78" y1="27.68" x2="181.29" y2="29.48"/>
  <path class="cls-1" d="M181.29,29.48h.18"/>
  <path class="cls-1" d="M96.12,22.14h.28"/>
  <line class="cls-1" x1="181.47" y1="29.51" x2="181.42" y2="30"/>
  <path class="cls-1" d="M181.42,30h-.8l-.77-.06"/>
  <line class="cls-1" x1="166.73" y1="28.21" x2="181.24" y2="29.97"/>
  <path class="cls-1" d="M96.08,22.63h.28"/>
  <line class="cls-1" x1="137.32" y1="55.17" x2="136.83" y2="54.31"/>
  <line class="cls-1" x1="135.82" y1="62.2" x2="135.88" y2="62.17"/>
  <line class="cls-1" x1="138.46" y1="62.49" x2="138.4" y2="62.52"/>
  <line class="cls-1" x1="135.4" y1="61.55" x2="135.46" y2="61.52"/>
  <line class="cls-1" x1="135.4" y1="61.55" x2="135.66" y2="57.58"/>
  <line class="cls-1" x1="136.74" y1="57.12" x2="136.8" y2="57.09"/>
  <line class="cls-1" x1="137.71" y1="56.67" x2="137.7" y2="57.37"/>
  <line class="cls-1" x1="137.98" y1="57.4" x2="138.04" y2="57.38"/>
  <line class="cls-1" x1="137.7" y1="57.37" x2="137.98" y2="57.4"/>
  <line class="cls-1" x1="138.04" y1="56.58" x2="138.04" y2="57.38"/>
  <line class="cls-1" x1="137.99" y1="56.61" x2="138.04" y2="56.58"/>
  <line class="cls-1" x1="137.99" y1="56.61" x2="137.48" y2="55.73"/>
  <line class="cls-1" x1="137.98" y1="55.79" x2="139.1" y2="57.99"/>
  <line class="cls-1" x1="139.1" y1="57.99" x2="139.15" y2="58.84"/>
  <line class="cls-1" x1="139.43" y1="58.85" x2="139.49" y2="58.83"/>
  <line class="cls-1" x1="139.43" y1="57.9" x2="139.49" y2="58.83"/>
  <line class="cls-1" x1="139.37" y1="57.92" x2="139.43" y2="57.9"/>
  <line class="cls-1" x1="138.14" y1="55.5" x2="138.2" y2="55.48"/>
  <line class="cls-1" x1="137.58" y1="55.4" x2="138.2" y2="55.48"/>
  <line class="cls-1" x1="137.52" y1="55.43" x2="137.58" y2="55.4"/>
  <line class="cls-1" x1="138.14" y1="55.5" x2="137.52" y2="55.43"/>
  <line class="cls-1" x1="138.41" y1="54.15" x2="137.58" y2="55.4"/>
  <line class="cls-1" x1="138.35" y1="54.18" x2="138.41" y2="54.15"/>
  <line class="cls-1" x1="137.52" y1="55.43" x2="138.35" y2="54.18"/>
  <line class="cls-1" x1="136.3" y1="53.94" x2="136.36" y2="53.92"/>
  <line class="cls-1" x1="136.69" y1="55.3" x2="137.11" y2="55.35"/>
  <line class="cls-1" x1="136.63" y1="55.32" x2="136.69" y2="55.3"/>
  <line class="cls-1" x1="135.39" y1="57.45" x2="135.11" y2="61.61"/>
  <line class="cls-1" x1="135.11" y1="61.61" x2="135.68" y2="62.49"/>
  <line class="cls-1" x1="138.39" y1="62.83" x2="138.45" y2="62.8"/>
  <line class="cls-1" x1="138.46" y1="62.49" x2="138.45" y2="62.8"/>
  <line class="cls-1" x1="136.91" y1="54.32" x2="137.36" y2="55.11"/>
  <line class="cls-1" x1="137.36" y1="56.06" x2="136.8" y2="57.09"/>
  <line class="cls-1" x1="137.56" y1="55.74" x2="138.04" y2="56.58"/>
  <line class="cls-1" x1="136.74" y1="57.12" x2="137.33" y2="56.02"/>
  <line class="cls-1" x1="137.98" y1="57.4" x2="137.99" y2="56.61"/>
  <line class="cls-1" x1="139.43" y1="58.85" x2="139.37" y2="57.92"/>
  <line class="cls-1" x1="137.13" y1="55.38" x2="136.63" y2="55.32"/>
  <line class="cls-1" x1="138.39" y1="62.83" x2="138.4" y2="62.52"/>
  <line class="cls-1" x1="135.82" y1="62.2" x2="135.4" y2="61.55"/>
  <line class="cls-1" x1="135.66" y1="57.58" x2="135.72" y2="57.56"/>
  <line class="cls-1" x1="39.69" y1="42.07" x2="35.83" y2="42.24"/>
  <line class="cls-1" x1="135.46" y1="61.52" x2="135.88" y2="62.17"/>
  <line class="cls-1" x1="135.72" y1="57.56" x2="135.46" y2="61.52"/>
  <line class="cls-1" x1="115.69" y1="24.79" x2="115.69" y2="24.8"/>
  <line class="cls-1" x1="96.12" y1="22.16" x2="95.81" y2="22.12"/>
  <path class="cls-1" d="M92.74,72.53a.37.37,0,0,0,.07.14"/>
  <line class="cls-1" x1="96.97" y1="48.41" x2="92.74" y2="48.63"/>
  <path class="cls-1" d="M92.81,72.53a.29.29,0,0,0,0,.13l.06.12"/>
  <line class="cls-1" x1="96.98" y1="48.5" x2="92.83" y2="48.72"/>
  <path class="cls-1" d="M63.53,68.28v.07"/>
  <line class="cls-1" x1="67.2" y1="45.07" x2="63.15" y2="45.27"/>
  <path class="cls-1" d="M63.57,68.28a.54.54,0,0,0,0,.18"/>
  <line class="cls-1" x1="67.2" y1="45.16" x2="63.21" y2="45.35"/>
  <path class="cls-1" d="M124.41,77.14a.42.42,0,0,0,.11.18"/>
  <line class="cls-1" x1="129.3" y1="52.03" x2="124.87" y2="52.27"/>
  <line class="cls-1" x1="129.3" y1="52.13" x2="125" y2="52.37"/>
  <path class="cls-1" d="M43.18,115.71l-.39.18"/>
  <line class="cls-1" x1="107.23" y1="57.09" x2="107.17" y2="50.93"/>
  <path class="cls-1" d="M36.53,64.35v.09"/>
  <line class="cls-1" x1="173.18" y1="29.37" x2="116.84" y2="24.9"/>
  <line class="cls-1" x1="73.11" y1="47.04" x2="73.5" y2="47.08"/>
  <line class="cls-1" x1="46.98" y1="47.91" x2="47.58" y2="47.98"/>
  <line class="cls-1" x1="47.3" y1="46.77" x2="47.35" y2="47.68"/>
  <line class="cls-1" x1="48.7" y1="48.95" x2="48.91" y2="48.97"/>
  <line class="cls-1" x1="46.91" y1="48.73" x2="48.48" y2="48.92"/>
  <line class="cls-1" x1="48.3" y1="48.07" x2="48.45" y2="48.65"/>
  <line class="cls-1" x1="46.8" y1="47.61" x2="46.68" y2="48.43"/>
  <line class="cls-1" x1="48.48" y1="48.92" x2="48.18" y2="51.32"/>
  <line class="cls-1" x1="44.57" y1="43.77" x2="45.05" y2="43.83"/>
  <line class="cls-1" x1="45.34" y1="50.38" x2="45.37" y2="50.97"/>
  <line class="cls-1" x1="44.66" y1="50.28" x2="44.69" y2="50.88"/>
  <line class="cls-1" x1="44.55" y1="44.63" x2="45.15" y2="44.7"/>
  <line class="cls-1" x1="45.29" y1="44.44" x2="45.29" y2="44.43"/>
  <line class="cls-1" x1="46.05" y1="50.19" x2="45.9" y2="51.03"/>
  <line class="cls-1" x1="107.46" y1="50.66" x2="103.4" y2="50.2"/>
  <line class="cls-1" x1="103.66" y1="50.53" x2="107.2" y2="50.93"/>
  <line class="cls-1" x1="107.2" y1="50.93" x2="107.27" y2="57.12"/>
  <line class="cls-1" x1="107.27" y1="57.12" x2="106.45" y2="57.02"/>
  <line class="cls-1" x1="102.61" y1="51.95" x2="106.14" y2="52.36"/>
  <line class="cls-1" x1="106.45" y1="57.32" x2="107.53" y2="57.45"/>
  <line class="cls-1" x1="102.85" y1="56.7" x2="103.87" y2="56.83"/>
  <line class="cls-1" x1="103.87" y1="56.83" x2="103.89" y2="58.03"/>
  <line class="cls-1" x1="107.52" y1="50.64" x2="103.46" y2="50.18"/>
  <line class="cls-1" x1="102.73" y1="56.36" x2="102.68" y2="51.96"/>
  <line class="cls-1" x1="107.26" y1="57.09" x2="106.51" y2="57"/>
  <line class="cls-1" x1="115.17" y1="25.29" x2="115.24" y2="37.63"/>
  <line class="cls-1" x1="107.41" y1="39.68" x2="107.26" y2="24.45"/>
  <line class="cls-1" x1="107.8" y1="39.72" x2="107.66" y2="24.48"/>
  <line class="cls-1" x1="107.8" y1="39.72" x2="115.24" y2="37.63"/>
  <line class="cls-1" x1="106.75" y1="23.94" x2="106.72" y2="24.41"/>
  <line class="cls-1" x1="115.94" y1="24.9" x2="108.24" y2="24.06"/>
  <line class="cls-1" x1="115.94" y1="24.9" x2="115.9" y2="25.36"/>
  <line class="cls-1" x1="76.65" y1="52.68" x2="76.02" y2="53.32"/>
  <line class="cls-1" x1="75.3" y1="51.37" x2="76.38" y2="51.5"/>
  <line class="cls-1" x1="75.9" y1="53.55" x2="75.94" y2="54.77"/>
  <path class="cls-1" d="M38.36,18.1h-.8"/>
  <path class="cls-1" d="M177.92,130.46l.13-.13a.54.54,0,0,0,0-.18"/>
  <line class="cls-1" x1="139.03" y1="59.43" x2="140.57" y2="59.62"/>
  <line class="cls-1" x1="140.08" y1="61.14" x2="140.54" y2="62.79"/>
  <line class="cls-1" x1="139.06" y1="62.57" x2="140.53" y2="62.75"/>
  <line class="cls-1" x1="140.54" y1="62.79" x2="139" y2="62.59"/>
  <line class="cls-1" x1="139.55" y1="61.05" x2="139.06" y2="62.57"/>
  <line class="cls-1" x1="139" y1="62.59" x2="139.49" y2="61.07"/>
  <line class="cls-1" x1="140.26" y1="58.03" x2="139.67" y2="59.2"/>
  <line class="cls-1" x1="138.7" y1="59.05" x2="139.69" y2="59.17"/>
  <line class="cls-1" x1="139.67" y1="59.2" x2="138.65" y2="59.08"/>
  <line class="cls-1" x1="138.61" y1="62.85" x2="140.93" y2="63.14"/>
  <line class="cls-1" x1="139.1" y1="59.44" x2="139.55" y2="61.05"/>
  <line class="cls-1" x1="139.49" y1="61.07" x2="139.03" y2="59.43"/>
  <path class="cls-1" d="M124.52,77.14a.22.22,0,0,0,0,.16.28.28,0,0,0,.1.14"/>
  <path class="cls-1" d="M59.87,20.38H60"/>
  <line class="cls-1" x1="115.24" y1="37.54" x2="172.79" y2="43.06"/>
  <line class="cls-1" x1="51.65" y1="34.13" x2="51.03" y2="19.47"/>
  <line class="cls-1" x1="51.37" y1="19.49" x2="59.87" y2="20.38"/>
  <line class="cls-1" x1="172.7" y1="46.18" x2="173.18" y2="29.11"/>
  <line class="cls-1" x1="173.16" y1="46.23" x2="173.65" y2="29.15"/>
  <line class="cls-1" x1="173.16" y1="46.23" x2="179.27" y2="43.77"/>
  <line class="cls-1" x1="179.79" y1="29.89" x2="179.34" y2="43.71"/>
  <line class="cls-1" x1="136.83" y1="54.31" x2="137.82" y2="54.43"/>
  <line class="cls-1" x1="135.68" y1="62.49" x2="138.39" y2="62.83"/>
  <line class="cls-1" x1="136.63" y1="55.32" x2="135.39" y2="57.45"/>
  <line class="cls-1" x1="136.3" y1="53.94" x2="137.13" y2="55.38"/>
  <line class="cls-1" x1="138.35" y1="54.18" x2="136.3" y2="53.94"/>
  <line class="cls-1" x1="136.36" y1="53.92" x2="138.41" y2="54.15"/>
  <line class="cls-1" x1="139.37" y1="57.92" x2="138.14" y2="55.5"/>
  <line class="cls-1" x1="138.2" y1="55.48" x2="139.43" y2="57.9"/>
  <line class="cls-1" x1="139.15" y1="58.84" x2="139.43" y2="58.85"/>
  <line class="cls-1" x1="137.48" y1="55.73" x2="137.98" y2="55.79"/>
  <line class="cls-1" x1="137.33" y1="56.02" x2="137.71" y2="56.67"/>
  <line class="cls-1" x1="136.5" y1="56.94" x2="136.74" y2="57.12"/>
  <line class="cls-1" x1="137.17" y1="55.69" x2="136.5" y2="56.94"/>
  <line class="cls-1" x1="136.79" y1="55.65" x2="137.17" y2="55.69"/>
  <line class="cls-1" x1="135.66" y1="57.58" x2="136.79" y2="55.65"/>
  <line class="cls-1" x1="36.99" y1="64.73" x2="40.8" y2="64.5"/>
  <line class="cls-1" x1="39.69" y1="41.99" x2="35.8" y2="42.17"/>
  <line class="cls-1" x1="136.83" y1="55.66" x2="135.72" y2="57.56"/>
  <line class="cls-1" x1="36.55" y1="64.44" x2="36.51" y2="64.34"/>
  <line class="cls-1" x1="138.4" y1="62.52" x2="135.82" y2="62.2"/>
  <line class="cls-1" x1="116.07" y1="24.84" x2="96.18" y2="22.64"/>
  <line class="cls-1" x1="96.36" y1="22.65" x2="163.23" y2="27.89"/>
  <line class="cls-1" x1="96.08" y1="22.63" x2="96.12" y2="22.14"/>
  <line class="cls-1" x1="137.82" y1="54.43" x2="137.32" y2="55.17"/>
  <line class="cls-1" x1="135.88" y1="62.17" x2="138.46" y2="62.49"/>
  <line class="cls-1" x1="36.55" y1="64.44" x2="36.51" y2="64.34"/>
  <line class="cls-1" x1="36.99" y1="64.73" x2="40.8" y2="64.5"/>
  <line class="cls-1" x1="179.79" y1="29.89" x2="179.34" y2="43.71"/>
  <line class="cls-1" x1="173.18" y1="29.37" x2="116.84" y2="24.9"/>
  <path class="cls-1" d="M43.18,115.71l-.39.18"/>
  <line class="cls-1" x1="96.12" y1="22.16" x2="95.81" y2="22.12"/>
  <line class="cls-1" x1="115.69" y1="24.79" x2="115.69" y2="24.8"/>
  <path class="cls-1" d="M181.42,30h-.8l-.77-.06"/>
  <line class="cls-1" x1="181.47" y1="29.51" x2="181.42" y2="30"/>
  <path class="cls-1" d="M96.12,22.14h.28"/>
  <path class="cls-1" d="M181.29,29.48h.18"/>
  <line class="cls-1" x1="166.78" y1="27.68" x2="181.29" y2="29.48"/>
  <path class="cls-1" d="M163.28,27.36l1.75.15.87.08h.88"/>
  <line class="cls-1" x1="96.4" y1="22.16" x2="163.28" y2="27.36"/>
  <line class="cls-1" x1="179.88" y1="29.9" x2="179.79" y2="29.89"/>
  <path class="cls-1" d="M116.84,24.9h-.77"/>
  <path class="cls-1" d="M36.55,64.44a.27.27,0,0,0,.06.12.52.52,0,0,0,.11.1l.13.06H37"/>
  <line class="cls-1" x1="35.37" y1="42.62" x2="35.38" y2="42.7"/>
  <path class="cls-1" d="M35.8,42.17a.49.49,0,0,0-.17,0,.33.33,0,0,0-.14.1.42.42,0,0,0-.09.14.49.49,0,0,0,0,.17"/>
  <line class="cls-1" x1="113.79" y1="24.67" x2="173.18" y2="29.37"/>
  <line class="cls-1" x1="113.62" y1="24.65" x2="115.49" y2="24.8"/>
  <path class="cls-1" d="M179.59,43.43h.31"/>
  <line class="cls-1" x1="38.11" y1="18.08" x2="38.11" y2="18.12"/>
  <path class="cls-1" d="M59.75,20.37l.86.07.86.08"/>
  <line class="cls-1" x1="116.07" y1="24.84" x2="96.18" y2="22.64"/>
  <path class="cls-1" d="M115.49,24.8h.2"/>
  <line class="cls-1" x1="61.47" y1="20.52" x2="106.74" y2="24.1"/>
  <line class="cls-1" x1="38.11" y1="18.12" x2="51.03" y2="19.47"/>
  <path class="cls-1" d="M95.81,22.12H95"/>
  <line class="cls-1" x1="94.97" y1="22.05" x2="38.39" y2="17.65"/>
  <path class="cls-1" d="M38.39,17.65h-.8"/>
  <line class="cls-1" x1="37.56" y1="18.05" x2="37.59" y2="17.6"/>
  <path class="cls-1" d="M37.56,18.05h.55"/>
  <path class="cls-1" d="M37.59,17.6h.55"/>
  <path class="cls-1" d="M160.49,143.06h.84a6,6,0,0,0,.85,0h.64l.2-.05h.4l.11-.06h.1l.08,0,.08-.06"/>
  <path class="cls-1" d="M59.89,20.39h.84"/>
  <line class="cls-1" x1="60.73" y1="20.46" x2="106.74" y2="24.11"/>
  <path class="cls-1" d="M42.3,116.79v.11h0a1.37,1.37,0,0,0,.2.13l.23.09.23.06"/>
  <line class="cls-1" x1="42.3" y1="116.79" x2="42.28" y2="116.39"/>
  <path class="cls-1" d="M178.09,130.58a.21.21,0,0,0,0-.11v-.11"/>
  <path class="cls-1" d="M178.1,130.15V130a0,0,0,0,0,0-.05v-.06l-.17-.17a1.37,1.37,0,0,0-.2-.13l-.22-.11"/>
  <line class="cls-1" x1="178.1" y1="130.15" x2="178.09" y2="130.58"/>
  <path class="cls-1" d="M43.07,117.28l117.42,25.78"/>
  <path class="cls-1" d="M42.79,115.89l-.17.08-.15.11-.13.13h0v.09"/>
  <path class="cls-1" d="M177.91,130.9a.53.53,0,0,0,.12-.14.28.28,0,0,0,.06-.18"/>
  <path class="cls-1" d="M163.79,142.69l14.12-11.79"/>
  <line class="cls-1" x1="129.05" y1="135.33" x2="129.32" y2="47.05"/>
  <line class="cls-1" x1="98.25" y1="128.62" x2="96.9" y2="43.61"/>
  <line class="cls-1" x1="69.78" y1="122.42" x2="67.05" y2="40.44"/>
  <line class="cls-1" x1="43.37" y1="116.66" x2="39.47" y2="37.51"/>
  <line class="cls-1" x1="129.05" y1="134.86" x2="127.78" y2="135"/>
  <path class="cls-1" d="M43.35,116.14h-.1"/>
  <line class="cls-1" x1="69.76" y1="122" x2="68.72" y2="122.09"/>
  <line class="cls-1" x1="98.24" y1="128.18" x2="97.09" y2="128.29"/>
  <path class="cls-1" d="M97.09,128.29a4.21,4.21,0,0,1-.71,0H96l-.35-.06"/>
  <path class="cls-1" d="M70.11,122.63h-.2l-.08-.06h0"/>
  <line class="cls-1" x1="95.68" y1="128.23" x2="70.11" y2="122.63"/>
  <path class="cls-1" d="M127.78,135h-1.12l-.37-.07"/>
  <line class="cls-1" x1="126.29" y1="134.92" x2="98.64" y2="128.88"/>
  <line class="cls-1" x1="39.54" y1="42" x2="39.32" y2="37.5"/>
  <line class="cls-1" x1="43.19" y1="116" x2="40.65" y2="64.51"/>
  <line class="cls-1" x1="180.22" y1="44.97" x2="177.41" y2="130.44"/>
  <path class="cls-1" d="M177.41,130.44v.12"/>
  <path class="cls-1" d="M163.4,142.14l-.06.05h-.07l-.08.05h-1.11a4.09,4.09,0,0,1-.7,0h-.7"/>
  <path class="cls-1" d="M129.51,135.63h-.14l-.14,0h0"/>
  <line class="cls-1" x1="177.34" y1="130.56" x2="163.4" y2="142.14"/>
  <line class="cls-1" x1="160.68" y1="142.45" x2="129.51" y2="135.63"/>
  <path class="cls-1" d="M68.72,122.09a3.86,3.86,0,0,1-.68,0H67.7a1.91,1.91,0,0,1-.33-.06"/>
  <path class="cls-1" d="M43.66,116.85h-.17l-.08,0h0"/>
  <line class="cls-1" x1="67.37" y1="122.03" x2="43.66" y2="116.85"/>
  <line class="cls-1" x1="35.16" y1="42.67" x2="35.16" y2="42.67"/>
  <path class="cls-1" d="M38.22,42.59a.36.36,0,0,1,.25.06.31.31,0,0,1,.11.09.41.41,0,0,1,.07.11"/>
  <polyline class="cls-1" points="124.52 52.89 124.52 52.89 127.52 52.72"/>
  <path class="cls-1" d="M35.16,42.67h.21"/>
  <path class="cls-1" d="M62.41,45.8h.36"/>
  <line class="cls-1" x1="92.28" y1="49.12" x2="92.26" y2="49.11"/>
  <line class="cls-1" x1="92.43" y1="72.47" x2="92.43" y2="72.47"/>
  <line class="cls-1" x1="91.99" y1="49.18" x2="91.99" y2="49.18"/>
  <line class="cls-1" x1="95.72" y1="72.34" x2="92.82" y2="72.53"/>
  <line class="cls-1" x1="95.8" y1="49.53" x2="96.18" y2="71.85"/>
  <line class="cls-1" x1="92.39" y1="49.23" x2="95.33" y2="49.08"/>
  <line class="cls-1" x1="92.28" y1="49.12" x2="92.28" y2="49.21"/>
  <path class="cls-1" d="M92.09,49.18h0"/>
  <path class="cls-1" d="M92.43,72.47h0"/>
  <path class="cls-1" d="M92.26,49.11H92"/>
  <path class="cls-1" d="M96.18,71.85a.54.54,0,0,1,0,.18.31.31,0,0,1-.1.15l-.14.11h-.18"/>
  <path class="cls-1" d="M95.31,49.06a.49.49,0,0,1,.17,0,.51.51,0,0,1,.16.09"/>
  <line class="cls-1" x1="92.43" y1="72.46" x2="91.99" y2="49.17"/>
  <path class="cls-1" d="M92,49.17h0"/>
  <line class="cls-1" x1="95.64" y1="49.18" x2="95.66" y2="49.2"/>
  <path class="cls-1" d="M95.66,49.2a.4.4,0,0,1,.1.15.28.28,0,0,1,0,.18"/>
  <line class="cls-1" x1="92.09" y1="49.18" x2="92.09" y2="49.18"/>
  <line class="cls-1" x1="92.08" y1="49.18" x2="92.08" y2="49.17"/>
  <path class="cls-1" d="M95.33,49.08a.25.25,0,0,1,.17,0,.54.54,0,0,1,.16.1"/>
  <path class="cls-1" d="M92.08,49.17h.2"/>
  <polyline class="cls-1" points="62.76 45.83 62.76 45.83 65.63 45.69"/>
  <line class="cls-1" x1="62.7" y1="45.75" x2="62.69" y2="45.73"/>
  <line class="cls-1" x1="63.22" y1="68.23" x2="63.22" y2="68.23"/>
  <line class="cls-1" x1="62.41" y1="45.8" x2="62.41" y2="45.8"/>
  <path class="cls-1" d="M63.58,68.28h-.36"/>
  <line class="cls-1" x1="62.5" y1="45.8" x2="62.5" y2="45.79"/>
  <line class="cls-1" x1="66.41" y1="68.1" x2="63.58" y2="68.28"/>
  <path class="cls-1" d="M62.76,45.83H62.5"/>
  <line class="cls-1" x1="66.12" y1="46.14" x2="66.85" y2="67.63"/>
  <line class="cls-1" x1="62.77" y1="45.84" x2="65.64" y2="45.7"/>
  <line class="cls-1" x1="66.11" y1="46.12" x2="66.12" y2="46.14"/>
  <line class="cls-1" x1="62.7" y1="45.75" x2="62.7" y2="45.83"/>
  <path class="cls-1" d="M62.5,45.8h0"/>
  <line class="cls-1" x1="62.5" y1="45.8" x2="62.41" y2="45.8"/>
  <path class="cls-1" d="M63.22,68.23h0"/>
  <path class="cls-1" d="M62.69,45.73H62.4"/>
  <path class="cls-1" d="M66.85,67.63a.54.54,0,0,1,0,.18.6.6,0,0,1-.09.15l-.15.1h-.17"/>
  <path class="cls-1" d="M65.63,45.69a.37.37,0,0,1,.21,0,.37.37,0,0,1,.17.13"/>
  <line class="cls-1" x1="63.22" y1="68.22" x2="62.4" y2="45.79"/>
  <path class="cls-1" d="M62.4,45.79h0"/>
  <line class="cls-1" x1="66.01" y1="45.86" x2="66.03" y2="45.88"/>
  <path class="cls-1" d="M66,45.88a.43.43,0,0,1,.09.26"/>
  <line class="cls-1" x1="62.5" y1="45.8" x2="62.5" y2="45.8"/>
  <path class="cls-1" d="M65.64,45.7a.41.41,0,0,1,.22,0l.17.14"/>
  <path class="cls-1" d="M62.5,45.79h.2"/>
  <path class="cls-1" d="M127.55,52.74a.54.54,0,0,1,.18,0,.34.34,0,0,1,.16.1.31.31,0,0,1,.1.15.54.54,0,0,1,0,.18"/>
  <line class="cls-1" x1="124.39" y1="52.79" x2="124.36" y2="52.77"/>
  <line class="cls-1" x1="124.12" y1="77.08" x2="124.12" y2="77.07"/>
  <line class="cls-1" x1="124.12" y1="52.86" x2="124.12" y2="52.86"/>
  <line class="cls-1" x1="127.5" y1="76.93" x2="124.54" y2="77.14"/>
  <line class="cls-1" x1="128.03" y1="53.2" x2="127.98" y2="76.42"/>
  <line class="cls-1" x1="124.55" y1="52.91" x2="127.55" y2="52.74"/>
  <line class="cls-1" x1="124.39" y1="52.79" x2="124.39" y2="52.89"/>
  <path class="cls-1" d="M124.21,52.85h0"/>
  <line class="cls-1" x1="124.12" y1="77.07" x2="124.12" y2="52.86"/>
  <path class="cls-1" d="M124.36,52.77h-.22"/>
  <line class="cls-1" x1="127.55" y1="52.74" x2="127.52" y2="52.72"/>
  <path class="cls-1" d="M128,76.42a.61.61,0,0,1,0,.19.54.54,0,0,1-.1.16.91.91,0,0,1-.16.11.37.37,0,0,1-.18.05"/>
  <path class="cls-1" d="M124.12,52.86h.43"/>
  <path class="cls-1" d="M124.2,52.84h.19"/>
  <line class="cls-1" x1="124.21" y1="52.85" x2="124.21" y2="52.85"/>
  <line class="cls-1" x1="124.2" y1="52.85" x2="124.2" y2="52.84"/>
  <path class="cls-1" d="M127.52,52.72h.16a.61.61,0,0,1,.14.07"/>
  <line class="cls-1" x1="62.41" y1="45.8" x2="62.5" y2="45.8"/>
  <path class="cls-1" d="M38.65,42.85a.38.38,0,0,1,0,.15"/>
  <line class="cls-1" x1="38.64" y1="42.83" x2="38.65" y2="42.85"/>
  <path class="cls-1" d="M35.07,42.67h0"/>
  <line class="cls-1" x1="36.2" y1="64.29" x2="35.07" y2="42.67"/>
  <line class="cls-1" x1="124.12" y1="52.86" x2="124.21" y2="52.85"/>
  <path class="cls-1" d="M38.21,42.57a.48.48,0,0,1,.26.07l.1.08a.41.41,0,0,1,.07.11"/>
  <path class="cls-1" d="M39.72,63.73a.25.25,0,0,1,0,.17.42.42,0,0,1-.09.14.33.33,0,0,1-.14.1.49.49,0,0,1-.17,0"/>
  <path class="cls-1" d="M35.36,42.61h-.29"/>
  <line class="cls-1" x1="124.21" y1="52.85" x2="124.12" y2="52.86"/>
  <path class="cls-1" d="M36.2,64.3h0"/>
  <path class="cls-1" d="M124.52,52.89h-.31"/>
  <path class="cls-1" d="M35.16,42.67h0"/>
  <line class="cls-1" x1="35.37" y1="42.62" x2="35.37" y2="42.7"/>
  <line class="cls-1" x1="38.68" y1="42.99" x2="38.69" y2="43"/>
  <line class="cls-1" x1="35.41" y1="42.72" x2="38.22" y2="42.59"/>
  <line class="cls-1" x1="38.69" y1="43" x2="39.72" y2="63.73"/>
  <line class="cls-1" x1="39.3" y1="64.18" x2="36.53" y2="64.35"/>
  <line class="cls-1" x1="35.07" y1="42.68" x2="35.16" y2="42.67"/>
  <line class="cls-1" x1="35.16" y1="42.67" x2="35.07" y2="42.68"/>
  <path class="cls-1" d="M35.4,42.7h-.24"/>
  <path class="cls-1" d="M36.53,64.35H36.2"/>
  <path class="cls-1" d="M35.07,42.68h.34"/>
  <polyline class="cls-1" points="35.4 42.7 35.4 42.7 38.21 42.57"/>
  <line class="cls-1" x1="35.16" y1="42.67" x2="35.16" y2="42.67"/>
  <line class="cls-1" x1="35.07" y1="42.68" x2="35.07" y2="42.68"/>
  <line class="cls-1" x1="91.99" y1="49.18" x2="92.09" y2="49.18"/>
  <line class="cls-1" x1="92.09" y1="49.18" x2="91.99" y2="49.18"/>
  <path class="cls-1" d="M92.37,49.21h-.28"/>
  <path class="cls-1" d="M92.82,72.53h-.39"/>
  <path class="cls-1" d="M92,49.18h.4"/>
  <polyline class="cls-1" points="92.37 49.21 92.37 49.21 95.31 49.06"/>
  <line class="cls-1" x1="36.2" y1="64.3" x2="36.2" y2="64.3"/>
  <path class="cls-1" d="M124.54,77.14h-.42"/>
  <line class="cls-1" x1="35.37" y1="42.62" x2="35.36" y2="42.61"/>
  <line class="cls-1" x1="36.2" y1="64.29" x2="35.07" y2="42.67"/>
  <path class="cls-1" d="M35.36,42.61h-.29"/>
  <path class="cls-1" d="M36.2,64.3h0"/>
  <line class="cls-1" x1="36.2" y1="64.3" x2="36.2" y2="64.3"/>
  <line class="cls-1" x1="35.37" y1="42.62" x2="35.36" y2="42.61"/>
  <line class="cls-1" x1="180.22" y1="44.97" x2="177.41" y2="130.44"/>
  <line class="cls-1" x1="39.54" y1="42" x2="39.32" y2="37.5"/>
  <path class="cls-1" d="M180.72,44.73a.56.56,0,0,0,.2-.11"/>
  <path class="cls-1" d="M180,43.51l.51.09.26.07a.35.35,0,0,1,.24.17"/>
  <path class="cls-1" d="M181,44.53a.11.11,0,0,1-.05.09"/>
  <line class="cls-1" x1="180.97" y1="43.87" x2="180.97" y2="44.53"/>
  <path class="cls-1" d="M180.92,44h0a.11.11,0,0,0,0-.08"/>
  <path class="cls-1" d="M180.92,44a.72.72,0,0,1-.19.11"/>
  <line class="cls-1" x1="180.97" y1="43.87" x2="180.97" y2="44.53"/>
  <path class="cls-1" d="M165.86,50.27l14.82-5.54"/>
  <path class="cls-1" d="M180.73,44.07l-14.82,5.49"/>
  <path class="cls-1" d="M39.37,37.34,163,50.42"/>
  <path class="cls-1" d="M163,49.71l-123.56-13"/>
  <path class="cls-1" d="M181,44.53a.11.11,0,0,1-.05.09"/>
  <path class="cls-1" d="M165.86,50.27a5.49,5.49,0,0,1-1.45.23,8.8,8.8,0,0,1-1.45-.06"/>
  <path class="cls-1" d="M180,43.51l.51.09.26.07a.35.35,0,0,1,.24.17"/>
  <path class="cls-1" d="M180.72,44.73a.56.56,0,0,0,.2-.11"/>
  <path class="cls-1" d="M165.86,49.56a5.48,5.48,0,0,1-1.45.22,7.82,7.82,0,0,1-1.45-.05"/>
  <line class="cls-1" x1="38.37" y1="37.06" x2="38.36" y2="36.47"/>
  <path class="cls-1" d="M51.43,33.63,38.78,36.3"/>
  <path class="cls-1" d="M38.37,37.06h.07l.13,0,.29.07.55.07"/>
  <path class="cls-1" d="M39.42,36.76a4.55,4.55,0,0,1-.81-.13.7.7,0,0,1-.2-.08c-.09-.06-.06-.12,0-.17a3,3,0,0,1,.39-.13"/>
  <path class="cls-1" d="M38.37,37.06h.07l.13,0,.29.07.55.07"/>
  <path class="cls-1" d="M51.43,33.63,38.78,36.3"/>
  <line class="cls-1" x1="38.37" y1="37.06" x2="38.36" y2="36.47"/>
  <g>
    <path class="cls-1" d="M171.58,46.06a1,1,0,0,0,.49-.71"/>
    <path class="cls-1" d="M170.91,44.91a2.71,2.71,0,0,1,1.05.78"/>
    <g>
      <path class="cls-1" d="M137.51,44.89a.62.62,0,0,1,.11-.57A1.66,1.66,0,0,1,138,44"/>
      <g>
        <path class="cls-1" d="M138.69,44.3a2.58,2.58,0,0,0-1.09.75"/>
        <line class="cls-1" x1="139.34" y1="45.37" x2="139.34" y2="44.72"/>
        <g>
          <path class="cls-1" d="M163.75,42.61A93.37,93.37,0,0,0,150.8,42c-2.11.06-4.37.19-6.47.42-1.08.12-2.15.27-3.22.49a17,17,0,0,0-1.86.49,7.66,7.66,0,0,0-.72.27A4.72,4.72,0,0,0,138,44"/>
          <path class="cls-1" d="M137.51,44.89c.21.61,1.44,1.07,1.78,1.19a19.87,19.87,0,0,0,2,.58c1.32.31,2.66.52,4,.7"/>
          <path class="cls-1" d="M146,47.18a84.31,84.31,0,0,0,12.2.62,23.17,23.17,0,0,0,3-.13c1-.13,2-.14,3.05-.24a28.87,28.87,0,0,0,3-.46c.39-.09.79-.17,1.17-.28a9,9,0,0,0,.92-.31,3.45,3.45,0,0,0,.61-.3l.17-.12.07-.07"/>
          <path class="cls-1" d="M163.19,42.77a37.32,37.32,0,0,1,4.45.78,14,14,0,0,1,2.19.71,3.71,3.71,0,0,1,1,.62,1.61,1.61,0,0,1,.39.47,1.66,1.66,0,0,1,.21.78"/>
          <path class="cls-1" d="M163.75,42.61c1.44.19,2.85.4,4.27.72a16.9,16.9,0,0,1,2.11.59c.36.13,1.7.6,1.91,1.24"/>
          <path class="cls-1" d="M171.57,46.06a4.4,4.4,0,0,1-.56.31l-.73.28a15.89,15.89,0,0,1-1.92.49c-1.09.22-2.18.37-3.28.49-2.15.25-4.45.36-6.61.41a91.21,91.21,0,0,1-13.22-.68"/>
          <path class="cls-1" d="M162.83,42.85c1.28.17,2.57.36,3.85.66a15.44,15.44,0,0,1,1.91.54,5.85,5.85,0,0,1,.92.41,2.18,2.18,0,0,1,.54.42.64.64,0,0,1,.18.41"/>
          <path class="cls-1" d="M170.23,45.29a.64.64,0,0,1-.2.43,1.79,1.79,0,0,1-.56.38,5.24,5.24,0,0,1-.85.35c-.38.12-.75.23-1.13.31a27.66,27.66,0,0,1-3,.52c-2,.23-4.08.35-6.05.4a83.05,83.05,0,0,1-12.11-.59"/>
          <path class="cls-1" d="M139.37,44.88c-.16-.44.35-.76.56-.89a5.38,5.38,0,0,1,.85-.38c.38-.13.76-.24,1.13-.33a27.69,27.69,0,0,1,3-.53c1.94-.24,4-.37,6-.43a84.37,84.37,0,0,1,12,.53"/>
          <path class="cls-1" d="M169.67,45.92a.9.9,0,0,0,.46-.63"/>
          <path class="cls-1" d="M139.37,44.88c.19.55,1.29.95,1.6,1.07a13.15,13.15,0,0,0,1.76.51c1.2.28,2.39.47,3.59.63"/>
          <path class="cls-1" d="M162.78,42.87a38,38,0,0,1,3.82.64,13.78,13.78,0,0,1,1.9.55,4.93,4.93,0,0,1,.91.4,2,2,0,0,1,.54.42.64.64,0,0,1,.18.41"/>
          <path class="cls-1" d="M169.67,45.92a3.72,3.72,0,0,1-.48.27c-.22.09-.43.18-.65.25a12.58,12.58,0,0,1-1.71.43c-1,.2-1.93.33-2.91.44-2,.22-3.89.32-5.84.36a81.68,81.68,0,0,1-11.7-.59"/>
          <path class="cls-1" d="M139.89,44.08a4.82,4.82,0,0,1,.5-.27,3.91,3.91,0,0,1,.65-.24,11.64,11.64,0,0,1,1.64-.43c1-.19,1.9-.33,2.86-.44,1.91-.21,3.83-.32,5.74-.36a80.38,80.38,0,0,1,11.5.53"/>
          <path class="cls-1" d="M145.75,47.43a.5.5,0,0,1,.16-.22"/>
          <path class="cls-1" d="M163,42.89a.22.22,0,0,1,.18-.12"/>
          <path class="cls-1" d="M138.11,45.51a1.57,1.57,0,0,1,.33-.93,2.17,2.17,0,0,1,.58-.51,5.06,5.06,0,0,1,.73-.38c.32-.11.63-.22,1-.32s1-.24,1.45-.34,1.16-.2,1.74-.29a59.92,59.92,0,0,1,6.42-.5,85.12,85.12,0,0,1,12.87.53"/>
          <path class="cls-1" d="M139.27,45.31h0l.16.13a3.91,3.91,0,0,0,.57.31c.28.13.56.22.84.32.56.18,1.12.33,1.69.46,1.14.24,2.28.44,3.43.59"/>
          <path class="cls-1" d="M139.89,44.08c-.14.11-.45.33-.45.64"/>
          <line class="cls-1" x1="139.44" y1="45.02" x2="139.44" y2="44.72"/>
          <path class="cls-1" d="M145.91,47.21H146"/>
          <path class="cls-1" d="M146.38,47.08c-1.2-.16-2.38-.35-3.57-.63a13.46,13.46,0,0,1-1.75-.51c-.31-.12-1.41-.51-1.59-1.07"/>
          <line class="cls-1" x1="146.32" y1="47.09" x2="146.32" y2="47.22"/>
          <line class="cls-1" x1="170.13" y1="45.29" x2="170.12" y2="45.6"/>
          <line class="cls-1" x1="162.78" y1="47.45" x2="162.78" y2="47.43"/>
          <line class="cls-1" x1="170.23" y1="45.29" x2="170.22" y2="45.95"/>
          <line class="cls-1" x1="146.38" y1="47.08" x2="146.38" y2="47.11"/>
          <path class="cls-1" d="M139.44,44.72a.43.43,0,0,0,0,.16"/>
          <line class="cls-1" x1="163.75" y1="42.61" x2="163.75" y2="42.85"/>
        </g>
      </g>
    </g>
  </g>
  <g>
    <path class="cls-1" d="M137.86,42.34c.15-.1.47-.35.47-.66"/>
    <path class="cls-1" d="M137.21,41.3a2.4,2.4,0,0,1,1,.69"/>
    <g>
      <path class="cls-1" d="M105.31,41.81a.52.52,0,0,1,.1-.51,1.78,1.78,0,0,1,.35-.32"/>
      <g>
        <path class="cls-1" d="M106.43,41.27a2.57,2.57,0,0,0-1,.69"/>
        <line class="cls-1" x1="107.06" y1="42.24" x2="107.06" y2="41.63"/>
        <g>
          <path class="cls-1" d="M130.36,39.31A92.76,92.76,0,0,0,118,38.94c-2,.07-4.17.22-6.19.48-1,.13-2,.27-3.06.5a13.15,13.15,0,0,0-1.76.51,4.12,4.12,0,0,0-.69.27,3.84,3.84,0,0,0-.53.28"/>
          <path class="cls-1" d="M105.31,41.81c.21.56,1.38,1,1.71,1.07a17.52,17.52,0,0,0,1.89.5c1.27.25,2.54.43,3.82.57"/>
          <path class="cls-1" d="M113.46,43.77a82.39,82.39,0,0,0,11.65.37A25.31,25.31,0,0,0,128,44c1-.07,1.94-.16,2.91-.27s1.93-.27,2.89-.47c.37-.09.75-.17,1.12-.28a6.38,6.38,0,0,0,.87-.3,3.06,3.06,0,0,0,.58-.27l.16-.12.06-.06"/>
          <path class="cls-1" d="M129.81,39.47a40.91,40.91,0,0,1,4.26.64,12.81,12.81,0,0,1,2.09.61,3.49,3.49,0,0,1,1,.55,1.57,1.57,0,0,1,.38.43,1.36,1.36,0,0,1,.2.71"/>
          <path class="cls-1" d="M130.36,39.31c1.36.14,2.72.32,4.08.59a17.24,17.24,0,0,1,2,.51c.34.1,1.62.52,1.83,1.06"/>
          <path class="cls-1" d="M137.85,42.34a5.45,5.45,0,0,1-.53.29l-.69.27a18.92,18.92,0,0,1-1.83.48c-1,.22-2.09.38-3.14.51-2,.24-4.24.39-6.3.47A91.85,91.85,0,0,1,112.73,44"/>
          <path class="cls-1" d="M129.47,39.55a35.25,35.25,0,0,1,3.69.53,14.3,14.3,0,0,1,1.82.47,5.38,5.38,0,0,1,.89.37,1.86,1.86,0,0,1,.52.36.52.52,0,0,1,.17.38"/>
          <path class="cls-1" d="M136.56,41.66a.57.57,0,0,1-.18.39,1.77,1.77,0,0,1-.53.36,5.9,5.9,0,0,1-.82.34c-.35.12-.71.21-1.07.3a27.61,27.61,0,0,1-2.86.51c-1.87.25-3.9.4-5.78.48a84.31,84.31,0,0,1-11.57-.34"/>
          <path class="cls-1" d="M107.08,41.78c-.15-.4.33-.7.53-.82a4.92,4.92,0,0,1,.81-.37c.36-.13.72-.22,1.08-.32a24.71,24.71,0,0,1,2.83-.52c1.85-.26,3.86-.41,5.71-.49a80.79,80.79,0,0,1,11.43.29"/>
          <path class="cls-1" d="M136,42.24c.14-.09.43-.3.43-.59"/>
          <path class="cls-1" d="M107.08,41.78c.19.49,1.24.85,1.54.95a14,14,0,0,0,1.69.44c1.14.24,2.28.4,3.44.53"/>
          <path class="cls-1" d="M129.42,39.56a34.87,34.87,0,0,1,3.67.53,14.15,14.15,0,0,1,1.81.47,4.52,4.52,0,0,1,.88.36,1.82,1.82,0,0,1,.51.36.53.53,0,0,1,.18.37"/>
          <path class="cls-1" d="M136,42.24a3,3,0,0,1-.47.25c-.2.1-.41.17-.61.25a14.81,14.81,0,0,1-1.62.42c-.92.2-1.85.33-2.78.45-1.86.22-3.72.35-5.58.42a80.25,80.25,0,0,1-11.18-.36"/>
          <path class="cls-1" d="M107.58,41.07a4.31,4.31,0,0,1,.47-.26c.2-.09.41-.16.61-.23a14.55,14.55,0,0,1,1.57-.42c.9-.19,1.81-.33,2.73-.44,1.83-.24,3.66-.35,5.49-.43a80.81,80.81,0,0,1,11,.3"/>
          <path class="cls-1" d="M113.21,44a.43.43,0,0,1,.15-.2"/>
          <path class="cls-1" d="M129.64,39.58a.2.2,0,0,1,.17-.11"/>
          <path class="cls-1" d="M105.88,42.38a1.51,1.51,0,0,1,.31-.87,2,2,0,0,1,.54-.46,3.9,3.9,0,0,1,.71-.35,5.63,5.63,0,0,1,.9-.31,12.63,12.63,0,0,1,1.38-.34c.46-.1,1.11-.22,1.66-.3,2-.3,4.16-.47,6.14-.57a85.45,85.45,0,0,1,12.29.29"/>
          <path class="cls-1" d="M107,42.13h0l.15.12a3.45,3.45,0,0,0,.54.28c.27.1.53.19.8.27.54.16,1.08.29,1.63.4,1.08.21,2.18.36,3.28.47"/>
          <path class="cls-1" d="M107.58,41.07c-.14.09-.43.31-.43.59"/>
          <line class="cls-1" x1="107.15" y1="41.91" x2="107.15" y2="41.63"/>
          <path class="cls-1" d="M113.36,43.8h.1"/>
          <path class="cls-1" d="M113.8,43.67a33,33,0,0,1-3.41-.51,14,14,0,0,1-1.69-.44c-.29-.1-1.34-.45-1.52-.94"/>
          <line class="cls-1" x1="113.75" y1="43.7" x2="113.75" y2="43.8"/>
          <line class="cls-1" x1="136.47" y1="41.65" x2="136.47" y2="41.94"/>
          <line class="cls-1" x1="129.47" y1="43.75" x2="129.47" y2="43.73"/>
          <line class="cls-1" x1="136.56" y1="41.66" x2="136.56" y2="42.26"/>
          <line class="cls-1" x1="113.8" y1="43.67" x2="113.8" y2="43.7"/>
          <path class="cls-1" d="M107.15,41.63a.38.38,0,0,0,0,.15"/>
          <line class="cls-1" x1="130.36" y1="39.31" x2="130.36" y2="39.52"/>
        </g>
      </g>
    </g>
  </g>
  <g>
    <path class="cls-1" d="M107,39c.15-.1.46-.32.46-.61"/>
    <path class="cls-1" d="M106.35,38a2.27,2.27,0,0,1,1,.64"/>
    <g>
      <path class="cls-1" d="M75.57,38.68a.47.47,0,0,1,.09-.47,1.05,1.05,0,0,1,.34-.29"/>
      <g>
        <path class="cls-1" d="M76.64,38.17a2.55,2.55,0,0,0-1,.65"/>
        <line class="cls-1" x1="77.27" y1="39.06" x2="77.26" y2="38.5"/>
        <g>
          <path class="cls-1" d="M99.73,36.24A95,95,0,0,0,87.8,36c-2,.09-4,.23-6,.48-1,.12-2,.27-3,.47a12.38,12.38,0,0,0-1.69.45l-.67.24a4.16,4.16,0,0,0-.51.28"/>
          <path class="cls-1" d="M75.57,38.68c.2.52,1.34.88,1.66,1a14.22,14.22,0,0,0,1.82.45c1.23.24,2.46.39,3.7.52"/>
          <path class="cls-1" d="M83.4,40.45a84.5,84.5,0,0,0,11.25.27c.94,0,1.87-.08,2.81-.16s1.87-.16,2.8-.27,1.87-.26,2.79-.45c.36-.07.72-.16,1.07-.25a8.45,8.45,0,0,0,.85-.28,4,4,0,0,0,.56-.26l.15-.12h.06"/>
          <path class="cls-1" d="M99.19,36.39a41,41,0,0,1,4.13.57,12.6,12.6,0,0,1,2,.55,4.07,4.07,0,0,1,1,.5,1.9,1.9,0,0,1,.36.39,1.22,1.22,0,0,1,.2.66"/>
          <path class="cls-1" d="M99.73,36.24c1.32.13,2.63.29,3.94.52.65.13,1.31.27,2,.46.34.1,1.57.47,1.79,1"/>
          <path class="cls-1" d="M107,39a3.06,3.06,0,0,1-.51.26l-.66.26A18.92,18.92,0,0,1,104,40c-1,.21-2,.36-3,.48-2,.24-4.1.39-6.08.47a91.72,91.72,0,0,1-12.18-.3"/>
          <path class="cls-1" d="M98.87,36.47c1.2.11,2.38.25,3.57.47a11.89,11.89,0,0,1,1.76.43,5.22,5.22,0,0,1,.86.32,2.1,2.1,0,0,1,.5.34.51.51,0,0,1,.17.34"/>
          <path class="cls-1" d="M105.73,38.37a.54.54,0,0,1-.18.36,2.1,2.1,0,0,1-.5.34,6.07,6.07,0,0,1-.8.32c-.34.1-.67.2-1,.28-.91.22-1.84.36-2.77.49-1.8.23-3.76.38-5.57.47a83.45,83.45,0,0,1-11.18-.26"/>
          <path class="cls-1" d="M77.29,38.64c-.15-.36.31-.65.5-.76a3.8,3.8,0,0,1,.78-.33,7.21,7.21,0,0,1,1-.31c.9-.22,1.81-.37,2.73-.5,1.77-.24,3.71-.39,5.5-.47a82.42,82.42,0,0,1,11,.2"/>
          <path class="cls-1" d="M105.23,38.91c.13-.08.41-.27.41-.54"/>
          <path class="cls-1" d="M77.29,38.64c.18.45,1.19.78,1.48.86a15.72,15.72,0,0,0,1.64.41c1.09.21,2.2.35,3.3.46"/>
          <path class="cls-1" d="M98.82,36.48c1.19.11,2.37.25,3.55.47a13.11,13.11,0,0,1,1.75.42,8.89,8.89,0,0,1,.86.32,2.29,2.29,0,0,1,.51.32.51.51,0,0,1,.17.34"/>
          <path class="cls-1" d="M105.23,38.91l-.45.25-.6.22a14.11,14.11,0,0,1-1.55.4c-.9.18-1.79.32-2.68.42-1.8.23-3.59.35-5.39.42a81.12,81.12,0,0,1-10.8-.27"/>
          <path class="cls-1" d="M77.76,38a3.21,3.21,0,0,1,.45-.24,4.19,4.19,0,0,1,.59-.22c.5-.16,1-.29,1.51-.4.87-.18,1.75-.31,2.63-.42,1.76-.22,3.52-.35,5.29-.42a83.17,83.17,0,0,1,10.59.22"/>
          <path class="cls-1" d="M83.2,40.66a.42.42,0,0,1,.14-.18"/>
          <path class="cls-1" d="M99,36.5a.19.19,0,0,1,.16-.11"/>
          <path class="cls-1" d="M76.12,39.2a1.37,1.37,0,0,1,.29-.8A2,2,0,0,1,77,38a4.12,4.12,0,0,1,.67-.32c.29-.12.58-.21.87-.3s.89-.22,1.34-.31,1.06-.2,1.59-.28c1.9-.28,4-.46,5.92-.56a88.43,88.43,0,0,1,11.85.2"/>
          <path class="cls-1" d="M77.21,39h0l.15.09a3.71,3.71,0,0,0,.53.26c.25.09.51.18.76.25a14.38,14.38,0,0,0,1.58.35c1,.19,2.11.33,3.16.43"/>
          <path class="cls-1" d="M77.76,38c-.14.09-.42.29-.41.54"/>
          <line class="cls-1" x1="77.35" y1="38.76" x2="77.35" y2="38.5"/>
          <path class="cls-1" d="M83.34,40.48h.1"/>
          <path class="cls-1" d="M83.76,40.35c-1.09-.1-2.19-.24-3.28-.45-.55-.11-1.09-.24-1.63-.4-.29-.09-1.29-.41-1.47-.86"/>
          <line class="cls-1" x1="83.71" y1="40.37" x2="83.71" y2="40.48"/>
          <line class="cls-1" x1="105.64" y1="38.37" x2="105.64" y2="38.64"/>
          <line class="cls-1" x1="98.89" y1="40.34" x2="98.89" y2="40.32"/>
          <line class="cls-1" x1="105.73" y1="38.37" x2="105.73" y2="38.93"/>
          <line class="cls-1" x1="83.76" y1="40.35" x2="83.76" y2="40.37"/>
          <path class="cls-1" d="M77.38,38.5a.33.33,0,0,0,0,.14"/>
          <line class="cls-1" x1="99.73" y1="36.24" x2="99.73" y2="36.44"/>
        </g>
      </g>
    </g>
  </g>
  <g>
    <path class="cls-1" d="M78.46,36c.15-.1.44-.32.44-.6"/>
    <path class="cls-1" d="M77.84,35a2.21,2.21,0,0,1,1,.61"/>
    <g>
      <path class="cls-1" d="M48,36a.44.44,0,0,1,.08-.45,1,1,0,0,1,.33-.29"/>
      <g>
        <path class="cls-1" d="M49.05,35.5a2.53,2.53,0,0,0-1,.64"/>
        <line class="cls-1" x1="49.67" y1="36.36" x2="49.65" y2="35.81"/>
        <g>
          <path class="cls-1" d="M71.4,33.37a89.19,89.19,0,0,0-11.56-.11c-1.89.1-3.89.27-5.77.53a28,28,0,0,0-2.87.5,11.71,11.71,0,0,0-1.64.45c-.21.07-.43.15-.64.24a3.43,3.43,0,0,0-.49.28"/>
          <path class="cls-1" d="M48,36c.2.51,1.3.85,1.61.94a15.31,15.31,0,0,0,1.78.41c1.19.22,2.39.36,3.59.47"/>
          <path class="cls-1" d="M55.63,37.64a79.32,79.32,0,0,0,10.9.15c.91,0,1.81-.1,2.72-.18s1.82-.18,2.71-.3,1.81-.27,2.7-.47a8.55,8.55,0,0,0,1-.26,7.69,7.69,0,0,0,.81-.27A2.73,2.73,0,0,0,77,36l.15-.11h.06"/>
          <path class="cls-1" d="M70.89,33.52a38.36,38.36,0,0,1,4,.51,12.51,12.51,0,0,1,2,.52,3.28,3.28,0,0,1,1,.47,2.6,2.6,0,0,1,.36.38,1.3,1.3,0,0,1,.2.64"/>
          <path class="cls-1" d="M71.4,33.37c1.29.11,2.55.25,3.83.46.63.12,1.27.25,1.89.43.33.09,1.53.44,1.75,1"/>
          <path class="cls-1" d="M78.46,36a4.74,4.74,0,0,1-.5.26c-.21.09-.42.18-.64.25a17.15,17.15,0,0,1-1.7.47c-1,.21-2,.37-2.92.49-1.94.26-4,.43-5.89.53A86.2,86.2,0,0,1,55,37.82"/>
          <path class="cls-1" d="M70.58,33.59c1.15.11,2.3.23,3.46.43a11.17,11.17,0,0,1,1.71.4,3.94,3.94,0,0,1,.83.31,1.43,1.43,0,0,1,.49.32.47.47,0,0,1,.17.33"/>
          <path class="cls-1" d="M77.24,35.38a.53.53,0,0,1-.17.35,1.61,1.61,0,0,1-.48.34,7.35,7.35,0,0,1-.77.32l-1,.29c-.88.21-1.77.37-2.68.5-1.74.25-3.63.41-5.39.52A82.07,82.07,0,0,1,56,37.57"/>
          <path class="cls-1" d="M49.68,35.94c-.15-.35.3-.63.48-.73a3,3,0,0,1,.75-.34,7.21,7.21,0,0,1,1-.31A26,26,0,0,1,54.53,34c1.71-.25,3.59-.42,5.32-.52a81.43,81.43,0,0,1,10.71.07"/>
          <path class="cls-1" d="M76.76,35.91c.13-.08.4-.27.39-.53"/>
          <path class="cls-1" d="M49.68,35.94c.18.45,1.17.76,1.45.83a12.26,12.26,0,0,0,1.59.38c1.06.19,2.14.32,3.21.42"/>
          <path class="cls-1" d="M70.53,33.61c1.15.1,2.3.22,3.44.42a12.66,12.66,0,0,1,1.7.39,6.39,6.39,0,0,1,.83.31,1.71,1.71,0,0,1,.5.3.47.47,0,0,1,.17.33"/>
          <path class="cls-1" d="M76.76,35.91a3.62,3.62,0,0,1-.43.24,5.83,5.83,0,0,1-.58.23,15.07,15.07,0,0,1-1.5.41c-.86.18-1.73.33-2.59.44-1.74.23-3.47.38-5.22.46A79.07,79.07,0,0,1,56,37.55"/>
          <path class="cls-1" d="M50.13,35.33a3.75,3.75,0,0,1,.44-.24,4,4,0,0,1,.57-.23,12.43,12.43,0,0,1,1.45-.39c.85-.19,1.69-.33,2.55-.45,1.7-.23,3.41-.37,5.12-.47a81.86,81.86,0,0,1,10.27.11"/>
          <path class="cls-1" d="M55.43,37.85a.39.39,0,0,1,.14-.17"/>
          <path class="cls-1" d="M70.73,33.62a.18.18,0,0,1,.16-.1"/>
          <path class="cls-1" d="M48.56,36.5a1.26,1.26,0,0,1,.27-.77,2,2,0,0,1,.51-.44A3.23,3.23,0,0,1,50,35c.28-.12.56-.21.84-.3s.86-.23,1.3-.32,1-.21,1.54-.29c1.83-.3,3.89-.5,5.72-.61a83.28,83.28,0,0,1,11.5.07"/>
          <path class="cls-1" d="M49.61,36.31h0l.14.09a4.9,4.9,0,0,0,.52.24l.75.24a11.23,11.23,0,0,0,1.53.32c1,.18,2,.3,3.07.39"/>
          <path class="cls-1" d="M50.13,35.33c-.13.08-.4.28-.39.53"/>
          <line class="cls-1" x1="49.74" y1="36.07" x2="49.74" y2="35.81"/>
          <path class="cls-1" d="M55.57,37.68h.1"/>
          <path class="cls-1" d="M56,37.55c-1.07-.09-2.13-.22-3.19-.41-.54-.1-1.06-.22-1.58-.37-.28-.09-1.26-.38-1.44-.83"/>
          <line class="cls-1" x1="55.93" y1="37.57" x2="55.93" y2="37.67"/>
          <line class="cls-1" x1="77.15" y1="35.38" x2="77.16" y2="35.64"/>
          <line class="cls-1" x1="70.64" y1="37.37" x2="70.64" y2="37.35"/>
          <line class="cls-1" x1="77.24" y1="35.38" x2="77.25" y2="35.93"/>
          <line class="cls-1" x1="55.98" y1="37.55" x2="55.98" y2="37.57"/>
          <path class="cls-1" d="M49.77,35.81a.29.29,0,0,0,0,.13"/>
          <line class="cls-1" x1="71.4" y1="33.37" x2="71.4" y2="33.56"/>
        </g>
      </g>
    </g>
  </g>
  <g>
    <g>
      <path class="cls-9" d="M68.22,154.29l.36-1.5L65.34,152l.17-.72,4-3.18.92.22-.93,3.91.89.21-.17.72-.89-.21-.35,1.5Zm-1.85-2.78,2.38.56.71-3Z"/>
      <path class="cls-9" d="M72.89,153.26a2.18,2.18,0,0,1-.68-4,2.3,2.3,0,0,1,1.74-.2,2,2,0,0,1,1.46,1.15,3.18,3.18,0,0,1,.15,2.19,3.9,3.9,0,0,1-1.39,2.37,2.66,2.66,0,0,1-2.27.42,2.72,2.72,0,0,1-1.54-.95l.55-.53a2.05,2.05,0,0,0,2.8.47,2.47,2.47,0,0,0,1-1.5,1.65,1.65,0,0,1-.81.51A1.92,1.92,0,0,1,72.89,153.26Zm1.8-2.82a1.45,1.45,0,0,0-2-.5,1.46,1.46,0,0,0-.67.94,1.31,1.31,0,0,0,.16,1.09,1.43,1.43,0,0,0,.92.63,1.51,1.51,0,0,0,1.1-.15,1.33,1.33,0,0,0,.63-.9,1.4,1.4,0,0,0-.15-1.11Z"/>
      <path class="cls-9" d="M75.55,155.06l.86.2-.22.92-.86-.21Z"/>
      <path class="cls-9" d="M79.11,156.94a2.45,2.45,0,0,1-1.38-.81,1.92,1.92,0,0,1-.43-1.4h.78a1.28,1.28,0,0,0,.28.92,1.6,1.6,0,0,0,.9.53,1.38,1.38,0,0,0,1.07-.15,1.47,1.47,0,0,0,.6-.92,1.41,1.41,0,0,0-.14-1.1,1.52,1.52,0,0,0-1-.61,1.57,1.57,0,0,0-1.53.41l-.55-.26L79,150.37l3.26.77-.16.71-2.68-.63-.7,1.78a1.45,1.45,0,0,1,.67-.23,1.7,1.7,0,0,1,.71,0,2.2,2.2,0,0,1,1.4.92,2,2,0,0,1,.23,1.64,2.12,2.12,0,0,1-.94,1.39A2.15,2.15,0,0,1,79.11,156.94Z"/>
      <path class="cls-9" d="M84.51,151.6l-.89,1.62-1-.23L84,151.48Zm1.29.3-.88,1.63-1-.23,1.34-1.52Z"/>
    </g>
    <g>
      <path class="cls-9" d="M70.15,142.4l1.21-5.13a2.9,2.9,0,0,1-1.61.34l.16-.71a2.9,2.9,0,0,0,1.81-.6l.63.15-1.45,6.13Z"/>
      <path class="cls-9" d="M71.8,142.79l.16-.69,2.77-1.44c.82-.43,1.3-.91,1.42-1.44a1.14,1.14,0,0,0-.12-.9,1.19,1.19,0,0,0-.78-.51,1.25,1.25,0,0,0-1.08.18,1.5,1.5,0,0,0-.53,1l-.76-.24a2,2,0,0,1,.86-1.45,2.09,2.09,0,0,1,1.67-.24,2,2,0,0,1,1.33.85,1.76,1.76,0,0,1,.24,1.46,2.17,2.17,0,0,1-.59,1,4.81,4.81,0,0,1-1.3.88l-2,1,3,.72-.17.71Z"/>
      <path class="cls-9" d="M78.84,144.53a2.39,2.39,0,0,1-1.37-.81,1.91,1.91,0,0,1-.43-1.4l.77.05a1.25,1.25,0,0,0,.29.91,1.6,1.6,0,0,0,.9.53,1.28,1.28,0,0,0,1.06-.15,1.58,1.58,0,0,0,.46-2,1.47,1.47,0,0,0-1-.62,1.56,1.56,0,0,0-1.53.42l-.55-.26,1.31-3.2,3.27.78-.17.71-2.68-.64-.7,1.78a2,2,0,0,1,.67-.23,1.7,1.7,0,0,1,.71,0,2.18,2.18,0,0,1,1.41.93,2.3,2.3,0,0,1-.72,3A2.15,2.15,0,0,1,78.84,144.53Z"/>
      <path class="cls-9" d="M85,141.59a2.19,2.19,0,0,1,1.42.95,2.19,2.19,0,0,1-.75,3,2.34,2.34,0,0,1-1.74.21,2.09,2.09,0,0,1-1.47-1.16,3.21,3.21,0,0,1-.14-2.18A3.86,3.86,0,0,1,83.76,140a2.63,2.63,0,0,1,2.27-.43,2.71,2.71,0,0,1,1.54,1l-.55.53a1.9,1.9,0,0,0-1.17-.78,2,2,0,0,0-1.63.3,2.61,2.61,0,0,0-1,1.51,1.64,1.64,0,0,1,.8-.52A1.92,1.92,0,0,1,85,141.59Zm-1.79,2.81a1.52,1.52,0,0,0,2,.48,1.4,1.4,0,0,0,.64-.91,1.31,1.31,0,0,0-.16-1.09,1.43,1.43,0,0,0-.92-.63,1.39,1.39,0,0,0-1.72,1s0,.06,0,.09a1.42,1.42,0,0,0,.21,1.1Z"/>
    </g>
  </g>
  <line class="cls-5" x1="33.44" y1="17.1" x2="8.39" y2="14.29"/>
  <line class="cls-5" x1="38.96" y1="116.36" x2="11.8" y2="110.26"/>
  <polyline class="cls-6" points="12.61 14.81 14.15 20.31 11.38 20.4 12.61 14.81"/>
  <polyline class="cls-6" points="16.13 111.23 14.53 105.74 17.3 105.63 16.13 111.23"/>
  <path class="cls-5" d="M12.6,14.94l3.52,96.19"/>
  <g>
    <g>
      <path class="cls-9" d="M24.07,70.62a2.35,2.35,0,0,1-.45,1.56,1.88,1.88,0,0,1-1.3.75l-.14-.77a1.26,1.26,0,0,0,.86-.5,1.56,1.56,0,0,0,.3-1,1.6,1.6,0,0,0-.39-1,1.21,1.21,0,0,0-1-.37,1.27,1.27,0,0,0-.94.4,1.39,1.39,0,0,0-.31,1,1.27,1.27,0,0,0,.21.68l-.51.37-2-1.93.09,3.06h-.73l-.11-4h.71l1.8,1.74A2,2,0,0,1,20.54,69a2.09,2.09,0,0,1,2.93,0A2.41,2.41,0,0,1,24.07,70.62Z"/>
      <path class="cls-9" d="M23.9,67.16a11.52,11.52,0,0,1-5.65-2.63l.1,3.53h-.72L17.5,63.7h.73c2.29,1.67,4.17,2.56,5.65,2.65Z"/>
      <path class="cls-9" d="M22.87,63.9V63h.93v.88Z"/>
      <path class="cls-9" d="M19.46,59.72A2.28,2.28,0,0,1,20,58.1a2.2,2.2,0,0,1,3.11-.1h0a2.35,2.35,0,0,1,.65,1.63A2.11,2.11,0,0,1,23,61.38a3.24,3.24,0,0,1-2.07.7,3.87,3.87,0,0,1-2.65-.73,2.63,2.63,0,0,1-1-2.08,2.72,2.72,0,0,1,.53-1.74l.65.4A1.9,1.9,0,0,0,18,59.26a2,2,0,0,0,.71,1.49,2.5,2.5,0,0,0,1.72.58,1.63,1.63,0,0,1-.71-.64A1.93,1.93,0,0,1,19.46,59.72Zm3.18,1a1.42,1.42,0,0,0,.38-1,1.36,1.36,0,0,0-.44-1,1.39,1.39,0,0,0-1-.39,1.36,1.36,0,0,0-1,.44,1.41,1.41,0,0,0-.37,1,1.39,1.39,0,0,0,1.37,1.41h.09A1.4,1.4,0,0,0,22.64,60.72Z"/>
      <path class="cls-9" d="M17.19,55.36,19,55.8v1l-1.81-.9Zm0-1.33,1.79.44v1l-1.81-.91Z"/>
    </g>
    <g>
      <path class="cls-9" d="M9.86,69.12a2.21,2.21,0,0,1-.56,1.61,2,2,0,0,1-1.52.67,2,2,0,0,1-1.56-.6,2.28,2.28,0,0,1-.65-1.62,2.08,2.08,0,0,1,.73-1.72,3.28,3.28,0,0,1,2.08-.71,4,4,0,0,1,2.65.73,2.87,2.87,0,0,1,.47,3.82l-.65-.39a2.06,2.06,0,0,0-.27-2.83,2.48,2.48,0,0,0-1.71-.57,1.55,1.55,0,0,1,.7.64A2,2,0,0,1,9.86,69.12Zm-3.19-1a1.47,1.47,0,0,0-.38,1,1.44,1.44,0,0,0,.44,1,1.48,1.48,0,0,0,1.06.38,1.35,1.35,0,0,0,1-.44,1.41,1.41,0,0,0,.37-1,1.38,1.38,0,0,0-1.43-1.38,1.45,1.45,0,0,0-1.06.43Z"/>
      <path class="cls-9" d="M11.86,63.8a2.47,2.47,0,0,1-.43,1.54,1.94,1.94,0,0,1-1.24.78L10,65.36a1.27,1.27,0,0,0,.81-.52,1.6,1.6,0,0,0,.28-1,1.31,1.31,0,0,0-.42-1,1.46,1.46,0,0,0-1-.35,1.39,1.39,0,0,0-1,.43A1.43,1.43,0,0,0,8.29,64a1.56,1.56,0,0,0,.8,1.37L9,66l-3.44-.39-.1-3.36h.73L6.25,65l1.89.22a1.79,1.79,0,0,1-.39-.59,1.84,1.84,0,0,1-.17-.69,2.15,2.15,0,0,1,.54-1.6,2,2,0,0,1,1.52-.64,2.06,2.06,0,0,1,1.58.55A2.2,2.2,0,0,1,11.86,63.8Z"/>
      <path class="cls-9" d="M7.41,58.58A2.21,2.21,0,0,1,8,57a2,2,0,0,1,1.52-.67,2.09,2.09,0,0,1,1.57.59,2.35,2.35,0,0,1,.65,1.63A2.1,2.1,0,0,1,11,60.24a3.21,3.21,0,0,1-2.08.7,4,4,0,0,1-2.65-.73,2.6,2.6,0,0,1-1-2.08,2.71,2.71,0,0,1,.52-1.74l.65.4A2,2,0,0,0,6,58.12a1.91,1.91,0,0,0,.71,1.49,2.49,2.49,0,0,0,1.71.58,1.66,1.66,0,0,1-.7-.64A1.86,1.86,0,0,1,7.41,58.58Zm3.18,1a1.38,1.38,0,0,0,.38-1,1.36,1.36,0,0,0-.44-1,1.42,1.42,0,0,0-1-.38,1.35,1.35,0,0,0-1,.43,1.55,1.55,0,0,0,.06,2.08,1.34,1.34,0,0,0,1,.38A1.4,1.4,0,0,0,10.59,59.58Z"/>
    </g>
  </g>
</svg>
