<svg id="Vrstva_1" data-name="Vrstva 1" xmlns="http://www.w3.org/2000/svg" viewBox="0 0 226.77 226.77"><defs><style>.cls-1{fill:none;stroke:#010101;stroke-linecap:round;stroke-linejoin:round;}.cls-1,.cls-2,.cls-3{stroke-width:.7px;}.cls-2{fill:#020303;stroke:#020303;}.cls-2,.cls-3{stroke-miterlimit:10;}.cls-3{fill:#010202;stroke:#010202;}.cls-4{fill:#1d1d1b;}
.cls-1{stroke:#ffffff}
.cls-2{stroke:#ffffff;fill:#ffffff}
.cls-3{stroke:#ffffff;fill:#ffffff}
.cls-4{fill:#ffffff}
</style></defs><line class="cls-1" x1="30.55" y1="129.78" x2="77.11" y2="139.37"/><path class="cls-1" d="M28.21,14.45l41.07,3.38"/><path class="cls-1" d="M32.7,14.92Q33.85,72.8,35,130.68"/><polyline class="cls-2" points="35.03 130.68 33.52 125.16 36.3 125.1 35.03 130.68"/><polyline class="cls-2" points="32.71 14.89 34.21 20.41 31.43 20.47 32.71 14.89"/><line class="cls-1" x1="66.6" y1="141.76" x2="36.68" y2="162.34"/><path class="cls-1" d="M40.33,159.81l69.9,15.43"/><line class="cls-1" x1="132.72" y1="155.73" x2="106.55" y2="178.45"/><polyline class="cls-3" points="110.15 175.23 104.44 175.37 105.04 172.66 110.15 175.23"/><polyline class="cls-3" points="40.41 159.8 46.13 159.66 45.52 162.37 40.41 159.8"/><path class="cls-1" d="M152.51,138.75l34.85,7"/><path class="cls-1" d="M136.71,154.77l34.52,7.61"/><line class="cls-1" x1="208.44" y1="119.11" x2="157.12" y2="170.74"/><polyline class="cls-2" points="166.51 161.3 163.55 166.2 161.59 164.23 166.51 161.3"/><polyline class="cls-2" points="182.81 144.88 185.76 139.97 187.72 141.94 182.81 144.88"/><path class="cls-1" d="M82,133.54a4,4,0,0,1-.67-.21,1.18,1.18,0,0,1-.55-.44"/><line class="cls-1" x1="78.38" y1="128.16" x2="80.74" y2="132.89"/><path class="cls-1" d="M84.27,133.86v0l0,0-.06,0-.12,0a.7.7,0,0,1-.25,0"/><path class="cls-1" d="M77.67,126.74a.29.29,0,0,1,0-.16"/><line class="cls-1" x1="77.67" y1="126.74" x2="78.03" y2="127.46"/><line class="cls-1" x1="77.63" y1="126.58" x2="75.78" y2="19.15"/><path class="cls-1" d="M78.37,127.54h-.18l-.09,0s-.06,0-.07-.05"/><path class="cls-1" d="M136.69,138.7a3,3,0,0,1-.89.35,7.36,7.36,0,0,1-.94.15"/><line class="cls-1" x1="120.81" y1="140.48" x2="134.86" y2="139.2"/><path class="cls-1" d="M137.86,137.94a.07.07,0,0,1,0,.05"/><path class="cls-1" d="M116.42,140.87a7.47,7.47,0,0,1-2.31-.13"/><line class="cls-1" x1="116.42" y1="140.87" x2="118.68" y2="140.67"/><path class="cls-1" d="M118.91,140.56a.07.07,0,0,1,0,.05l-.06,0a.31.31,0,0,1-.13,0"/><path class="cls-1" d="M146.08,132.52a.67.67,0,0,1-.37.48"/><line class="cls-1" x1="137.87" y1="137.15" x2="138.82" y2="137.36"/><line class="cls-1" x1="140.12" y1="24.53" x2="138.82" y2="137.36"/><line class="cls-1" x1="147.72" y1="22.29" x2="146.08" y2="132.52"/><line class="cls-1" x1="76.56" y1="19.88" x2="78.38" y2="128.16"/><line class="cls-1" x1="81.96" y1="133.54" x2="83.81" y2="133.95"/><line class="cls-1" x1="82.7" y1="22.55" x2="84.27" y2="133.86"/><line class="cls-1" x1="121.16" y1="25.96" x2="120.81" y2="140.48"/><line class="cls-1" x1="120.39" y1="25.89" x2="120.08" y2="139.39"/><line class="cls-1" x1="120.08" y1="139.39" x2="120.81" y2="140.48"/><line class="cls-1" x1="136.69" y1="138.7" x2="137.82" y2="137.99"/><line class="cls-1" x1="139.11" y1="24.81" x2="137.86" y2="137.94"/><line class="cls-1" x1="101.87" y1="138" x2="114.11" y2="140.74"/><line class="cls-1" x1="101.21" y1="24.66" x2="101.87" y2="138"/><line class="cls-1" x1="119.16" y1="26" x2="118.91" y2="140.56"/><line class="cls-1" x1="84.06" y1="22.79" x2="85.56" y2="134.35"/><line class="cls-1" x1="99.88" y1="24.51" x2="100.61" y2="137.72"/><line class="cls-1" x1="101.87" y1="137.01" x2="100.61" y2="137.72"/><line class="cls-1" x1="100.61" y1="137.72" x2="85.56" y2="134.35"/><line class="cls-1" x1="138.82" y1="137.36" x2="145.71" y2="133"/><line class="cls-1" x1="118.91" y1="139.5" x2="120.08" y2="139.39"/><line class="cls-1" x1="120.12" y1="125.28" x2="120.12" y2="125.28"/><line class="cls-1" x1="84.27" y1="133.2" x2="85.55" y2="133.48"/><line class="cls-1" x1="85.55" y1="133.07" x2="84.26" y2="132.78"/><line class="cls-1" x1="101.72" y1="137.09" x2="101.87" y2="137.12"/><line class="cls-1" x1="140.3" y1="136.42" x2="140.25" y2="140.08"/><path class="cls-1" d="M140.25,140.08a3.47,3.47,0,0,1-.88,2.15,7.73,7.73,0,0,1-1.79,1.54"/><line class="cls-1" x1="137.58" y1="143.77" x2="137.56" y2="143.77"/><line class="cls-1" x1="118.91" y1="139.93" x2="120.35" y2="139.8"/><line class="cls-1" x1="83.03" y1="136.71" x2="82.99" y2="133.77"/><line class="cls-1" x1="108.57" y1="146.47" x2="92.01" y2="142.64"/><path class="cls-1" d="M137.56,143.78a13.36,13.36,0,0,1-1.48.83c-.6.29-1.22.55-1.85.78s-1.11.39-1.68.56-1.25.35-1.88.49a46.55,46.55,0,0,1-7.34,1.07,55.67,55.67,0,0,1-7.42,0,46.83,46.83,0,0,1-7.34-1"/><path class="cls-1" d="M92,142.64a24,24,0,0,1-5.38-1.85,10.07,10.07,0,0,1-2.35-1.6A3.6,3.6,0,0,1,83,136.71"/><line class="cls-1" x1="137.02" y1="25.28" x2="135.82" y2="139.04"/><line class="cls-1" x1="115.26" y1="26.06" x2="115.14" y2="140.86"/><line class="cls-1" x1="79.45" y1="22.18" x2="81.13" y2="133.23"/><line class="cls-1" x1="141.68" y1="18.13" x2="108.71" y2="14.87"/><line class="cls-1" x1="114.08" y1="16.28" x2="130.9" y2="17.95"/><line class="cls-1" x1="148.26" y1="21.48" x2="142.74" y2="18.35"/><path class="cls-1" d="M142.74,18.35a2.38,2.38,0,0,0-.52-.15l-.54-.07"/><path class="cls-1" d="M108.71,14.87a12.68,12.68,0,0,0-1.63,0"/><path class="cls-1" d="M75.85,18.09l-.24.06-.11.06a.11.11,0,0,0-.07.09"/><path class="cls-1" d="M78.75,21.51a1.26,1.26,0,0,0,.46.16,4.17,4.17,0,0,0,.49.08"/><path class="cls-1" d="M114.38,26a12.43,12.43,0,0,0,1.83.05"/><path class="cls-1" d="M136.61,25.3l.73-.05a6,6,0,0,0,.72-.13"/><path class="cls-1" d="M148.07,22.23l.16-.06s.12-.06.12-.12"/><line class="cls-1" x1="107.08" y1="14.83" x2="88.45" y2="15.42"/><path class="cls-1" d="M88.45,15.42a7.4,7.4,0,0,0-1.4.15"/><polyline class="cls-1" points="87.05 15.56 78.57 17.47 75.85 18.09"/><line class="cls-1" x1="75.43" y1="18.75" x2="75.43" y2="18.3"/><path class="cls-1" d="M75.43,18.75l0,.05"/><path class="cls-1" d="M75.43,18.3a.05.05,0,0,0,0,.05"/><line class="cls-1" x1="148.36" y1="21.59" x2="148.35" y2="22.05"/><path class="cls-1" d="M148.36,21.59c0-.05-.06-.09-.1-.11"/><path class="cls-1" d="M148.07,21.77l.17-.06s.12-.06.12-.12"/><line class="cls-1" x1="84.23" y1="20.09" x2="84.23" y2="19.74"/><line class="cls-1" x1="84.12" y1="20.43" x2="84.11" y2="19.74"/><line class="cls-1" x1="138.92" y1="21.98" x2="138.92" y2="22.4"/><path class="cls-1" d="M88.15,21.58A18.43,18.43,0,0,1,86,21a6.3,6.3,0,0,1-1-.45,2.26,2.26,0,0,1-.26-.16,1.56,1.56,0,0,1-.2-.16,1.18,1.18,0,0,1-.19-.25.48.48,0,0,1-.06-.24"/><path class="cls-1" d="M129.51,18.84c1.62.16,3.4.39,5,.71a20.47,20.47,0,0,1,2.45.63c.22.07.43.15.64.24l.52.25a2.21,2.21,0,0,1,.36.23,1.31,1.31,0,0,1,.25.22,1.14,1.14,0,0,1,.15.23.59.59,0,0,1,.05.22"/><path class="cls-1" d="M134.52,23.57A19.8,19.8,0,0,0,137,23a6.44,6.44,0,0,0,1.19-.48,1.49,1.49,0,0,0,.3-.18,1.37,1.37,0,0,0,.24-.18,1.13,1.13,0,0,0,.22-.27.56.56,0,0,0,.08-.27"/><path class="cls-1" d="M138.93,21.57a.75.75,0,0,1-.09.3,1,1,0,0,1-.28.3,2.48,2.48,0,0,1-.26.19l-.35.19a9.53,9.53,0,0,1-1.35.5,24.73,24.73,0,0,1-2.81.62"/><line class="cls-1" x1="79.7" y1="21.75" x2="114.38" y2="25.52"/><line class="cls-1" x1="108.46" y1="23.82" x2="90.94" y2="21.93"/><line class="cls-1" x1="138.06" y1="25.12" x2="148.07" y2="22.23"/><line class="cls-1" x1="79.71" y1="22.21" x2="114.38" y2="26"/><line class="cls-1" x1="114.08" y1="16.71" x2="130.9" y2="18.39"/><line class="cls-1" x1="75.46" y1="18.8" x2="78.76" y2="21.97"/><line class="cls-1" x1="75.46" y1="18.35" x2="78.75" y2="21.51"/><path class="cls-1" d="M78.76,22a1.28,1.28,0,0,0,.46.17l.49.07"/><path class="cls-1" d="M114.38,25.52a14,14,0,0,0,1.83.06"/><line class="cls-1" x1="116.21" y1="26.05" x2="136.61" y2="25.3"/><line class="cls-1" x1="116.21" y1="25.58" x2="136.61" y2="24.82"/><path class="cls-1" d="M136.61,24.82c.25,0,.49,0,.73-.05a3.39,3.39,0,0,0,.72-.13"/><path class="cls-1" d="M130.9,18.39c1.8.19,3.76.44,5.54.79a23,23,0,0,1,2.72.68c.24.07.48.16.72.25s.39.16.59.26a3.84,3.84,0,0,1,.39.22l.31.22a1.45,1.45,0,0,1,.21.22.71.71,0,0,1,.13.22"/><path class="cls-1" d="M130.9,18a56.69,56.69,0,0,1,5.66.81,22,22,0,0,1,2.77.7c.25.08.49.17.73.27a4.53,4.53,0,0,1,.59.28,2.7,2.7,0,0,1,.4.25,1.45,1.45,0,0,1,.29.26.85.85,0,0,1,.17.25.75.75,0,0,1,.05.26"/><path class="cls-1" d="M90.94,21.93c-1.61-.17-3.37-.41-5-.74a20.54,20.54,0,0,1-2.42-.64c-.21-.07-.42-.16-.63-.25a3,3,0,0,1-.51-.25,3,3,0,0,1-.35-.22,2.73,2.73,0,0,1-.25-.23.68.68,0,0,1-.14-.23.54.54,0,0,1-.05-.22"/><polyline class="cls-1" points="138.06 24.64 140.5 23.95 148.07 21.77"/><path class="cls-1" d="M141.56,21a.69.69,0,0,1-.05.24.81.81,0,0,1-.17.24,1.27,1.27,0,0,1-.27.25,3.73,3.73,0,0,1-.39.25l-.5.24-.62.23c-.24.09-.49.16-.74.23s-.55.16-.83.22c-.64.16-1.29.29-1.93.4s-1.49.24-2.24.34c-2.73.36-5.7.56-8.44.66s-5.68.12-8.47,0-5.7-.25-8.45-.55"/><path class="cls-1" d="M81.68,19.37a1,1,0,0,1,.13-.22,2.39,2.39,0,0,1,.23-.22,3.62,3.62,0,0,1,.32-.22c.13-.08.27-.15.41-.22l.51-.21.6-.21c.47-.15,1-.28,1.45-.39s1.26-.27,1.89-.38,1.44-.24,2.17-.33c2.66-.35,5.54-.56,8.22-.67s5.52-.13,8.24-.07,5.54.21,8.23.48"/><path class="cls-1" d="M81.63,19.15a.42.42,0,0,1,.05-.24.75.75,0,0,1,.15-.24,2,2,0,0,1,.27-.24l.39-.24A4.59,4.59,0,0,1,83,18l.61-.23c.23-.08.47-.16.71-.22l.82-.22c.62-.15,1.26-.28,1.89-.39s1.46-.24,2.2-.34c2.67-.35,5.58-.57,8.27-.68s5.56-.13,8.3-.07,5.58.21,8.29.48"/><line class="cls-1" x1="113.04" y1="17.18" x2="129.51" y2="18.84"/><line class="cls-1" x1="129.57" y1="18.82" x2="113.1" y2="17.16"/><path class="cls-1" d="M113.1,17.16c-2.42-.24-5-.37-7.41-.43s-5,0-7.41.07-5,.29-7.4.61c-.65.09-1.31.19-2,.3s-1.13.22-1.69.36l-.73.19-.64.2-.54.21a3.55,3.55,0,0,0-.44.21,1.82,1.82,0,0,0-.59.43.74.74,0,0,0-.14.22.39.39,0,0,0,0,.21"/><path class="cls-1" d="M84.23,19.74a.52.52,0,0,1,0-.21,1,1,0,0,1,.14-.22,1.57,1.57,0,0,1,.24-.21l.34-.22.44-.21.54-.2c.21-.08.42-.14.64-.2s.48-.14.72-.19c.56-.14,1.12-.25,1.68-.36s1.3-.21,1.95-.3c2.37-.32,5-.5,7.35-.6s4.94-.13,7.37-.07,5,.19,7.36.43"/><line class="cls-1" x1="84.15" y1="22.79" x2="84.15" y2="22.69"/><path class="cls-1" d="M84.11,19.74a.54.54,0,0,0,0,.22.73.73,0,0,0,.16.23l.17.15.22.16a5.94,5.94,0,0,0,.92.43,15.78,15.78,0,0,0,1.93.55"/><line class="cls-1" x1="139.05" y1="21.58" x2="139.04" y2="22.34"/><path class="cls-1" d="M139.05,21.58a.59.59,0,0,0-.05-.23,1.14,1.14,0,0,0-.15-.23,1.84,1.84,0,0,0-.25-.23,2.16,2.16,0,0,0-.36-.22,3.54,3.54,0,0,0-.52-.25l-.65-.25a21.13,21.13,0,0,0-2.46-.63c-1.62-.32-3.41-.55-5-.72"/><line class="cls-1" x1="113.56" y1="17.06" x2="130.02" y2="18.72"/><path class="cls-1" d="M84.1,20.41h0l0,0,.09.08.12.09.27.15a5.79,5.79,0,0,0,.57.25"/><path class="cls-1" d="M82.64,20.17a1.49,1.49,0,0,1,.44-.73,2.16,2.16,0,0,1,.33-.27,3,3,0,0,1,.38-.23,6.29,6.29,0,0,1,.92-.41,9.91,9.91,0,0,1,1.17-.37q.42-.12.84-.21l.94-.2c.7-.14,1.41-.25,2.11-.36,2.55-.36,5.35-.58,7.92-.69.65,0,1.31-.06,2-.07s1.33,0,2,0c1.32,0,2.65,0,4,0,2.6.05,5.34.19,7.93.45"/><path class="cls-1" d="M130,18.72c.95.09,1.89.2,2.84.34l1.41.22q.71.12,1.41.27c.47.1.93.21,1.39.33l.72.21.64.23a2.39,2.39,0,0,1,.37.15l.33.15a4.19,4.19,0,0,1,.58.34,2.57,2.57,0,0,1,.52.47,1.53,1.53,0,0,1,.32.65"/><path class="cls-1" d="M137.52,23a7.94,7.94,0,0,0,.81-.31,3.6,3.6,0,0,0,.39-.2l.18-.12.12-.11,0,0h0"/><line class="cls-1" x1="137.28" y1="25.25" x2="137.29" y2="24.78"/><line class="cls-1" x1="79.15" y1="22.12" x2="79.14" y2="21.66"/><line class="cls-1" x1="115.26" y1="26.06" x2="115.26" y2="25.58"/><path class="cls-4" d="M31,78.58a2.47,2.47,0,0,1-.49,1.64,1.67,1.67,0,0,1-1.35.65,1.64,1.64,0,0,1-1-.31,1.68,1.68,0,0,1-.62-.85,1.58,1.58,0,0,1-.54.68,1.28,1.28,0,0,1-.76.27A1.5,1.5,0,0,1,25,80.14a2.2,2.2,0,0,1-.49-1.45A2.13,2.13,0,0,1,25,77.26a1.5,1.5,0,0,1,1.18-.56,1.36,1.36,0,0,1,.79.24,1.49,1.49,0,0,1,.55.66,1.72,1.72,0,0,1,.59-.87,1.58,1.58,0,0,1,1-.34,1.67,1.67,0,0,1,1.37.59A2.47,2.47,0,0,1,31,78.58Zm-3.77.06a1.3,1.3,0,0,0-.29-.83,1,1,0,0,0-1.44,0,1.24,1.24,0,0,0-.25.86,1.34,1.34,0,0,0,.28.88,1,1,0,0,0,1.44,0A1.33,1.33,0,0,0,27.23,78.64Zm3.06,0a1.55,1.55,0,0,0-.35-1,1.08,1.08,0,0,0-.86-.37,1.1,1.1,0,0,0-.85.4,1.52,1.52,0,0,0-.3,1,1.57,1.57,0,0,0,.34,1,1.14,1.14,0,0,0,1.71,0A1.61,1.61,0,0,0,30.29,78.6Z"/><path class="cls-4" d="M30.88,75.92l-.71,0-2.09-2.33a2.46,2.46,0,0,0-1.75-1,1.12,1.12,0,0,0-.84.35,1.41,1.41,0,0,0,.15,1.88,1.51,1.51,0,0,0,1.14.26l0,.79a2,2,0,0,1-2.27-2,2.06,2.06,0,0,1,.49-1.5,1.77,1.77,0,0,1,1.36-.58,2.08,2.08,0,0,1,1.13.31,5.07,5.07,0,0,1,1.18,1l1.49,1.68-.06-3.1h.74Z"/><path class="cls-4" d="M30.78,70.68A11.65,11.65,0,0,1,25.16,68l.07,3.53-.73,0-.08-4.38.73,0c2.27,1.7,4.15,2.6,5.62,2.71Z"/><path class="cls-4" d="M43.11,81.89a2.42,2.42,0,0,1-.47,1.55,1.87,1.87,0,0,1-1.31.73l-.13-.77a1.22,1.22,0,0,0,.86-.49,1.49,1.49,0,0,0,.31-1,1.46,1.46,0,0,0-.38-1,1.24,1.24,0,0,0-1-.38,1.26,1.26,0,0,0-1,.39,1.45,1.45,0,0,0-.32,1,1.22,1.22,0,0,0,.21.69l-.52.36-2-2,0,3.06h-.72l-.08-4,.71,0,1.78,1.76a1.89,1.89,0,0,1,.41-1.53A1.79,1.79,0,0,1,41,79.64a1.88,1.88,0,0,1,1.49.59A2.41,2.41,0,0,1,43.11,81.89Z"/><path class="cls-4" d="M43,79l-.72,0-2.08-2.34a2.46,2.46,0,0,0-1.75-1,1.12,1.12,0,0,0-.84.35,1.25,1.25,0,0,0-.3.88,1.23,1.23,0,0,0,.45,1,1.45,1.45,0,0,0,1.13.26l0,.79a2.05,2.05,0,0,1-1.62-.48A2.08,2.08,0,0,1,36.57,77a2.15,2.15,0,0,1,.5-1.5,1.76,1.76,0,0,1,1.36-.58,2.08,2.08,0,0,1,1.13.31,5.07,5.07,0,0,1,1.18,1l1.49,1.68-.06-3.1h.74Z"/><path class="cls-4" d="M42,73.67v-.88l.93,0,0,.88Z"/><path class="cls-4" d="M38.59,69.45a2.22,2.22,0,0,1,.57-1.6,2.18,2.18,0,0,1,3.09,0,2.28,2.28,0,0,1,.63,1.63,2.05,2.05,0,0,1-.75,1.71,3.17,3.17,0,0,1-2.08.68,3.91,3.91,0,0,1-2.65-.76A2.84,2.84,0,0,1,37,67.25l.64.4A2,2,0,0,0,37.16,69a2,2,0,0,0,.7,1.5,2.48,2.48,0,0,0,1.71.6,1.7,1.7,0,0,1-.71-.65A2.06,2.06,0,0,1,38.59,69.45Zm3.17,1a1.44,1.44,0,0,0,.39-1,1.39,1.39,0,0,0-.43-1,1.41,1.41,0,0,0-1-.4,1.36,1.36,0,0,0-1,.43,1.54,1.54,0,0,0,0,2.08,1.37,1.37,0,0,0,1,.39A1.41,1.41,0,0,0,41.76,70.49Z"/><path class="cls-4" d="M36.34,63.74l1.79.46,0,1-1.8-.92Zm0,1.34,1.79.45,0,1-1.8-.92Z"/><path class="cls-4" d="M70.81,163.54l.34-1.5-3.25-.72.16-.72,4-3.24.92.2-.87,3.93.89.2-.16.72-.88-.2-.34,1.5Zm-1.89-2.75,2.38.53.67-3Z"/><path class="cls-4" d="M73.37,164.1a11.62,11.62,0,0,1,3.93-4.84l-3.45-.76.16-.71,4.28.94-.16.71q-3.27,2.73-3.94,4.84Z"/><path class="cls-4" d="M78.21,165.17a11.5,11.5,0,0,1,3.93-4.84l-3.46-.76.16-.72,4.28,1-.16.71c-2.18,1.81-3.49,3.43-3.94,4.84Z"/><path class="cls-4" d="M64.61,174.51l1.14-5.15a2.93,2.93,0,0,1-1.61.37l.16-.71a2.81,2.81,0,0,0,1.79-.63l.64.14-1.36,6.15Z"/><path class="cls-4" d="M68.54,175.45a2.51,2.51,0,0,1-1.49-.85,1.67,1.67,0,0,1-.31-1.47,1.53,1.53,0,0,1,.52-.89,1.65,1.65,0,0,1,1-.4,1.63,1.63,0,0,1-.54-.69,1.34,1.34,0,0,1-.09-.81,1.5,1.5,0,0,1,.79-1.05,2.19,2.19,0,0,1,1.52-.13,2,2,0,0,1,1.29.75,1.48,1.48,0,0,1,.27,1.29,1.3,1.3,0,0,1-.41.7,1.6,1.6,0,0,1-.78.39,1.67,1.67,0,0,1,.72.77,1.58,1.58,0,0,1,.1,1,1.7,1.7,0,0,1-.89,1.2A2.42,2.42,0,0,1,68.54,175.45Zm.14-.7a1.52,1.52,0,0,0,1.07-.09,1.11,1.11,0,0,0,.56-.76,1.08,1.08,0,0,0-.19-.91,1.55,1.55,0,0,0-.93-.54,1.61,1.61,0,0,0-1.08.09,1.05,1.05,0,0,0-.56.76,1,1,0,0,0,.19.91A1.55,1.55,0,0,0,68.68,174.75Zm.67-3a1.25,1.25,0,0,0,.87-.09.9.9,0,0,0,.47-.63.87.87,0,0,0-.14-.77,1.31,1.31,0,0,0-.78-.45,1.33,1.33,0,0,0-.92.08.86.86,0,0,0-.46.63.92.92,0,0,0,.17.78A1.34,1.34,0,0,0,69.35,171.77Z"/><path class="cls-4" d="M71.87,175.15l.86.19-.2.91-.87-.19Z"/><path class="cls-4" d="M75.66,177a2.52,2.52,0,0,1-1.49-.86,1.66,1.66,0,0,1-.31-1.47,1.54,1.54,0,0,1,.52-.88,1.73,1.73,0,0,1,1-.41,1.55,1.55,0,0,1-.54-.68,1.34,1.34,0,0,1-.09-.81,1.5,1.5,0,0,1,.79-1,2.2,2.2,0,0,1,1.52-.14,2.09,2.09,0,0,1,1.29.76,1.45,1.45,0,0,1,.27,1.28,1.32,1.32,0,0,1-.41.71,1.6,1.6,0,0,1-.78.39,1.63,1.63,0,0,1,.72.77,1.58,1.58,0,0,1,.1,1,1.7,1.7,0,0,1-.89,1.2A2.42,2.42,0,0,1,75.66,177Zm.14-.7a1.52,1.52,0,0,0,1.07-.1,1.07,1.07,0,0,0,.56-.75,1.11,1.11,0,0,0-.19-.92,1.59,1.59,0,0,0-.93-.53,1.55,1.55,0,0,0-1.08.09,1.05,1.05,0,0,0-.56.75,1,1,0,0,0,.19.92A1.55,1.55,0,0,0,75.8,176.32Zm.67-3a1.2,1.2,0,0,0,.87-.08.9.9,0,0,0,.47-.63.89.89,0,0,0-.14-.77,1.31,1.31,0,0,0-.78-.45,1.4,1.4,0,0,0-.92.07.88.88,0,0,0-.46.64.91.91,0,0,0,.17.77A1.25,1.25,0,0,0,76.47,173.33Z"/><path class="cls-4" d="M81.31,171.66l-.85,1.64-1-.21,1.31-1.54Zm1.3.29-.85,1.64-1-.22,1.32-1.53Z"/><path class="cls-4" d="M191.66,131.82a2.4,2.4,0,0,1-1.43.74,1.87,1.87,0,0,1-1.44-.43l.46-.63a1.25,1.25,0,0,0,.95.28,1.58,1.58,0,0,0,.94-.48,1.49,1.49,0,0,0,.48-1,1.38,1.38,0,0,0-1.34-1.36,1.4,1.4,0,0,0-1,.49,1.32,1.32,0,0,0-.35.63l-.62-.12v-2.8l-2.16,2.17-.52-.51,2.84-2.86.5.5,0,2.5a2,2,0,0,1,1.38-.78,1.84,1.84,0,0,1,1.45.6,1.9,1.9,0,0,1,.61,1.48A2.41,2.41,0,0,1,191.66,131.82Z"/><path class="cls-4" d="M196,127.38l-1.09-1.08-2.34,2.36-.52-.52L191.4,123l.67-.67,2.85,2.84.64-.65.53.52-.64.65,1.09,1.08Zm-3.33.13,1.71-1.73-2.19-2.17Z"/><path class="cls-4" d="M196.32,121a2.26,2.26,0,0,1,1.56-.71,2.2,2.2,0,0,1,2.18,2.19,2.31,2.31,0,0,1-.73,1.59,2.08,2.08,0,0,1-1.76.65,3.12,3.12,0,0,1-1.93-1,3.83,3.83,0,0,1-1.3-2.42,2.84,2.84,0,0,1,2.44-3l.16.74a2,2,0,0,0-1.86,2.14,2.48,2.48,0,0,0,.76,1.64,1.61,1.61,0,0,1,0-.95A1.89,1.89,0,0,1,196.32,121Zm1.47,3a1.46,1.46,0,0,0,1-.46,1.36,1.36,0,0,0,.44-1,1.44,1.44,0,0,0-.44-1,1.4,1.4,0,0,0-1-.43,1.42,1.42,0,0,0-1,.46,1.41,1.41,0,0,0-.45,1,1.36,1.36,0,0,0,.44,1A1.44,1.44,0,0,0,197.79,124Z"/><path class="cls-4" d="M198.5,141.93l-3.74-3.71a2.87,2.87,0,0,1-.55,1.55l-.52-.51a2.81,2.81,0,0,0,.43-1.86l.46-.46,4.47,4.44Z"/><path class="cls-4" d="M201.31,139.21a2.41,2.41,0,0,1-1.44.75,1.9,1.9,0,0,1-1.44-.43l.46-.64a1.26,1.26,0,0,0,1,.29,1.57,1.57,0,0,0,.94-.49,1.47,1.47,0,0,0,.48-1,1.22,1.22,0,0,0-.4-.95,1.24,1.24,0,0,0-.94-.41,1.49,1.49,0,0,0-1,.49,1.32,1.32,0,0,0-.35.63l-.62-.12v-2.8l-2.16,2.17-.52-.51,2.84-2.85.5.5,0,2.5a2,2,0,0,1,1.38-.79,1.87,1.87,0,0,1,1.45.6,1.91,1.91,0,0,1,.61,1.49A2.44,2.44,0,0,1,201.31,139.21Z"/><path class="cls-4" d="M202.9,136.17l.62-.63.67.66-.62.63Z"/><path class="cls-4" d="M203.58,130.82a2.21,2.21,0,0,1,1.55-.71,2.08,2.08,0,0,1,1.54.64,2,2,0,0,1,.64,1.55,2.3,2.3,0,0,1-.73,1.59,2.11,2.11,0,0,1-1.75.65,3.27,3.27,0,0,1-1.94-1,4,4,0,0,1-1.3-2.42,2.68,2.68,0,0,1,.82-2.16,2.75,2.75,0,0,1,1.62-.82l.17.75a2,2,0,0,0-1.87,2.14,2.54,2.54,0,0,0,.77,1.64,1.65,1.65,0,0,1,0-1A1.83,1.83,0,0,1,203.58,130.82Zm1.47,3a1.41,1.41,0,0,0,1-.45,1.4,1.4,0,0,0,0-2,1.38,1.38,0,0,0-1-.43,1.42,1.42,0,0,0-1,.46,1.4,1.4,0,0,0-.44,1,1.33,1.33,0,0,0,.43,1A1.36,1.36,0,0,0,205.05,133.81Z"/><path class="cls-4" d="M205.16,126.17l.93,1.6-.69.69-.6-1.93Zm.94-1,.93,1.6-.7.7-.59-1.93Z"/></svg>