<?xml version="1.0" encoding="UTF-8"?>
<svg id="Vrstva_1" data-name="Vrstva 1" xmlns="http://www.w3.org/2000/svg" viewBox="0 0 226.77 226.77">
  <defs>
    <style>
      .cls-1 {
        fill: #d7e6fb;
        stroke: #ffffff;
        stroke-miterlimit: 10;
      }

      .cls-1, .cls-2 {
        stroke-width: .25px;
      }

      .cls-3 {
        fill: #010101;
      }

      .cls-3, .cls-4 {
        stroke-width: 0px;
      }

      .cls-4 {
        fill: #1d1d1b;
      }

      .cls-2 {
        fill: none;
        stroke: #eaf2ff;
        stroke-linecap: round;
        stroke-linejoin: round;
      }
    </style>
  </defs>
  <line class="cls-2" x1="50.56" y1="69.44" x2="50.94" y2="69.12"/>
  <line class="cls-2" x1="99.11" y1="95.77" x2="99.64" y2="96.34"/>
  <line class="cls-2" x1="169.52" y1="75.33" x2="170.06" y2="75.9"/>
  <path class="cls-2" d="m176.71,76.29c9.82,5.41,19.65,10.81,29.47,16.22"/>
  <line class="cls-2" x1="126.63" y1="112.5" x2="202.48" y2="90.46"/>
  <line class="cls-2" x1="13.84" y1="80.18" x2="63" y2="107.23"/>
  <line class="cls-2" x1="207.24" y1="65.21" x2="207.24" y2="32.22"/>
  <line class="cls-2" x1="9.54" y1="81.42" x2="47.05" y2="70.54"/>
  <line class="cls-2" x1="57.89" y1="108.72" x2="94.6" y2="98.05"/>
  <line class="cls-2" x1="102.14" y1="99.02" x2="131.17" y2="115.03"/>
  <path class="cls-2" d="m177.09,73.97c11.48-3.33,22.95-6.67,34.43-10"/>
  <line class="cls-2" x1="177.09" y1="40.98" x2="211.4" y2="30.99"/>
  <line class="cls-2" x1="55.05" y1="67.93" x2="50.94" y2="69.12"/>
  <line class="cls-2" x1="99.64" y1="96.34" x2="103.75" y2="95.15"/>
  <line class="cls-2" x1="170.06" y1="75.9" x2="174.17" y2="74.7"/>
  <path class="cls-2" d="m152.15,44.08s-.04-.06-.07-.09"/>
  <path class="cls-2" d="m163.54,71.57c-.07.02-.13.04-.2.07"/>
  <line class="cls-2" x1="174.55" y1="43.71" x2="174.55" y2="73.24"/>
  <path class="cls-2" d="m168.74,76.15c.24.13.53.21.81.13"/>
  <path class="cls-2" d="m174.55,73.24c0,.36-.05.74-.17,1.08-.06.17-.15.33-.27.47-.12.14-.27.25-.45.3"/>
  <path class="cls-2" d="m162.95,71.24c0-.14.13-.25.23-.31.11-.07.25-.12.37-.16"/>
  <line class="cls-2" x1="173.66" y1="75.09" x2="169.55" y2="76.28"/>
  <path class="cls-2" d="m169.31,75.44c-.2.06-.4,0-.57-.09"/>
  <path class="cls-2" d="m165.45,71.64c-.29-.12-.64-.17-.95-.18-.31,0-.66.02-.96.11"/>
  <line class="cls-2" x1="170.44" y1="74.43" x2="170.44" y2="50.09"/>
  <path class="cls-2" d="m169.55,76.28c.18-.05.33-.16.45-.3.12-.14.21-.3.27-.47.13-.34.17-.72.17-1.08"/>
  <line class="cls-2" x1="80.4" y1="52.57" x2="80.4" y2="54.57"/>
  <line class="cls-2" x1="80.4" y1="54.57" x2="77.58" y2="53.02"/>
  <line class="cls-2" x1="154.94" y1="30.92" x2="152.12" y2="29.37"/>
  <line class="cls-2" x1="170.44" y1="50.09" x2="170.44" y2="45.7"/>
  <line class="cls-2" x1="50.63" y1="38.19" x2="50.63" y2="38.99"/>
  <line class="cls-2" x1="54.04" y1="40.86" x2="54.04" y2="42.65"/>
  <line class="cls-2" x1="77.58" y1="53.02" x2="76.48" y2="52.41"/>
  <line class="cls-2" x1="154.94" y1="30.92" x2="80.4" y2="52.57"/>
  <line class="cls-2" x1="72.55" y1="48.26" x2="72.55" y2="50.25"/>
  <line class="cls-2" x1="72.55" y1="50.25" x2="69.74" y2="48.7"/>
  <line class="cls-2" x1="147.09" y1="26.61" x2="144.28" y2="25.06"/>
  <line class="cls-2" x1="50.12" y1="35.91" x2="124.66" y2="14.26"/>
  <line class="cls-2" x1="50.12" y1="37.91" x2="50.12" y2="35.91"/>
  <line class="cls-2" x1="127.48" y1="15.81" x2="124.66" y2="14.26"/>
  <line class="cls-2" x1="69.74" y1="48.7" x2="68.63" y2="48.09"/>
  <line class="cls-2" x1="147.09" y1="26.61" x2="72.55" y2="48.26"/>
  <line class="cls-2" x1="165.49" y1="74.67" x2="160.37" y2="71.85"/>
  <line class="cls-2" x1="95.06" y1="95.12" x2="89.94" y2="92.31"/>
  <line class="cls-2" x1="89.94" y1="92.31" x2="89.94" y2="92"/>
  <line class="cls-2" x1="165.85" y1="74.56" x2="165.49" y2="74.67"/>
  <line class="cls-2" x1="165.49" y1="74.36" x2="165.49" y2="74.67"/>
  <line class="cls-2" x1="160.37" y1="71.55" x2="160.37" y2="71.85"/>
  <path class="cls-2" d="m163.99,71.79c.24-.06.56-.06.81,0"/>
  <line class="cls-2" x1="168.74" y1="75.35" x2="139.28" y2="59.14"/>
  <path class="cls-2" d="m163.54,70.77c.39-.11.86-.13,1.26-.09.2.02.42.07.61.14.1.04.19.09.28.15.04.04.09.08.11.13.03.04.04.09.04.14"/>
  <line class="cls-2" x1="80.4" y1="54.57" x2="81.51" y2="54.25"/>
  <line class="cls-2" x1="72.55" y1="50.25" x2="73.66" y2="49.93"/>
  <line class="cls-2" x1="52.94" y1="39.46" x2="54.05" y2="39.14"/>
  <line class="cls-2" x1="52.94" y1="39.46" x2="50.63" y2="38.19"/>
  <line class="cls-2" x1="88.25" y1="58.89" x2="89.35" y2="58.56"/>
  <line class="cls-2" x1="88.25" y1="56.89" x2="88.25" y2="58.89"/>
  <line class="cls-2" x1="88.25" y1="58.89" x2="85.43" y2="57.34"/>
  <line class="cls-2" x1="162.78" y1="35.24" x2="159.97" y2="33.69"/>
  <line class="cls-2" x1="64.71" y1="45.93" x2="65.81" y2="45.61"/>
  <line class="cls-2" x1="64.71" y1="43.94" x2="64.71" y2="45.93"/>
  <line class="cls-2" x1="64.71" y1="45.93" x2="61.89" y2="44.39"/>
  <line class="cls-2" x1="139.25" y1="22.29" x2="136.43" y2="20.74"/>
  <line class="cls-2" x1="60.78" y1="41.78" x2="60.78" y2="43.78"/>
  <line class="cls-2" x1="60.78" y1="43.78" x2="57.97" y2="42.23"/>
  <line class="cls-2" x1="135.32" y1="20.13" x2="132.51" y2="18.58"/>
  <line class="cls-2" x1="84.32" y1="54.73" x2="84.32" y2="56.73"/>
  <line class="cls-2" x1="84.32" y1="56.73" x2="81.51" y2="55.18"/>
  <line class="cls-2" x1="158.86" y1="33.08" x2="156.05" y2="31.53"/>
  <line class="cls-2" x1="135.32" y1="21.06" x2="135.32" y2="20.13"/>
  <line class="cls-2" x1="158.86" y1="34.01" x2="158.86" y2="33.08"/>
  <line class="cls-2" x1="85.43" y1="55.34" x2="88.25" y2="56.89"/>
  <line class="cls-2" x1="61.89" y1="42.39" x2="64.71" y2="43.94"/>
  <line class="cls-2" x1="68.63" y1="48.09" x2="69.74" y2="47.77"/>
  <line class="cls-2" x1="68.63" y1="46.1" x2="68.63" y2="48.09"/>
  <line class="cls-2" x1="68.63" y1="48.09" x2="65.81" y2="46.54"/>
  <line class="cls-2" x1="143.17" y1="24.45" x2="140.35" y2="22.9"/>
  <line class="cls-2" x1="56.86" y1="41.62" x2="57.97" y2="41.29"/>
  <line class="cls-2" x1="56.86" y1="39.62" x2="56.86" y2="41.62"/>
  <line class="cls-2" x1="131.4" y1="17.97" x2="128.58" y2="16.42"/>
  <line class="cls-2" x1="153.42" y1="49.85" x2="153.42" y2="50.65"/>
  <line class="cls-2" x1="153.42" y1="50.65" x2="170.44" y2="45.7"/>
  <line class="cls-2" x1="170.44" y1="45.7" x2="170.44" y2="44.91"/>
  <line class="cls-2" x1="153.42" y1="50.65" x2="152.48" y2="50.13"/>
  <line class="cls-2" x1="104.12" y1="64.17" x2="104.12" y2="64.97"/>
  <line class="cls-2" x1="104.12" y1="64.97" x2="121.14" y2="60.02"/>
  <line class="cls-2" x1="121.14" y1="60.02" x2="121.14" y2="59.23"/>
  <line class="cls-2" x1="139.25" y1="23.22" x2="139.25" y2="22.29"/>
  <line class="cls-2" x1="131.4" y1="18.9" x2="131.4" y2="17.97"/>
  <line class="cls-2" x1="57.97" y1="40.23" x2="60.78" y2="41.78"/>
  <line class="cls-2" x1="65.81" y1="44.55" x2="68.63" y2="46.1"/>
  <line class="cls-2" x1="174.55" y1="43.71" x2="174.55" y2="41.72"/>
  <line class="cls-2" x1="174.55" y1="41.72" x2="171.74" y2="40.17"/>
  <line class="cls-2" x1="61.37" y1="76.59" x2="56.25" y2="73.77"/>
  <line class="cls-2" x1="56.25" y1="73.77" x2="56.25" y2="73.47"/>
  <line class="cls-2" x1="76.48" y1="52.41" x2="77.58" y2="52.09"/>
  <line class="cls-2" x1="76.48" y1="50.41" x2="76.48" y2="52.41"/>
  <line class="cls-2" x1="76.48" y1="52.41" x2="73.66" y2="50.86"/>
  <line class="cls-2" x1="151.01" y1="28.76" x2="148.2" y2="27.22"/>
  <line class="cls-2" x1="92.17" y1="59.05" x2="92.17" y2="61.04"/>
  <line class="cls-2" x1="92.17" y1="61.04" x2="89.35" y2="59.5"/>
  <line class="cls-2" x1="166.71" y1="37.4" x2="163.89" y2="35.85"/>
  <line class="cls-2" x1="162.78" y1="36.17" x2="162.78" y2="35.24"/>
  <line class="cls-2" x1="60.78" y1="43.78" x2="61.89" y2="43.45"/>
  <line class="cls-2" x1="84.32" y1="56.73" x2="85.43" y2="56.41"/>
  <line class="cls-2" x1="89.35" y1="57.5" x2="92.17" y2="59.05"/>
  <path class="cls-2" d="m93.11,92.02c-.07.02-.14.04-.2.07"/>
  <path class="cls-2" d="m59.43,73.49c-.07.02-.14.04-.2.07"/>
  <line class="cls-2" x1="50.12" y1="67.43" x2="50.12" y2="37.91"/>
  <line class="cls-2" x1="50.63" y1="38.19" x2="50.12" y2="37.91"/>
  <line class="cls-2" x1="55.94" y1="69.04" x2="99.5" y2="93.01"/>
  <path class="cls-2" d="m50.12,67.43c0,.68.16,1.39.43,2.01.14.31.31.62.51.89.2.27.46.53.76.69"/>
  <path class="cls-2" d="m51.83,70.23c-.21-.11-.39-.3-.53-.49-.14-.19-.27-.41-.36-.63-.19-.43-.3-.93-.3-1.41"/>
  <path class="cls-2" d="m54.74,66.52c0,.47.11.97.3,1.41.1.22.22.44.36.63.14.19.32.37.53.49"/>
  <line class="cls-2" x1="100.01" y1="65.36" x2="99.5" y2="65.08"/>
  <path class="cls-2" d="m104.12,93.69c0,.36-.05.74-.17,1.08-.06.17-.15.34-.27.47-.12.14-.27.25-.45.3"/>
  <path class="cls-2" d="m98.31,96.61c.24.13.53.21.81.13"/>
  <path class="cls-2" d="m92.52,91.69c0-.14.13-.25.23-.31.11-.07.25-.12.37-.16"/>
  <path class="cls-2" d="m58.83,73.16c0-.14.13-.25.23-.31.11-.07.25-.12.37-.16"/>
  <line class="cls-2" x1="103.23" y1="95.54" x2="99.12" y2="96.74"/>
  <path class="cls-2" d="m98.87,95.9c-.2.06-.4,0-.57-.09"/>
  <path class="cls-2" d="m61.33,73.56c-.29-.12-.64-.17-.95-.18-.31,0-.66.02-.96.11"/>
  <path class="cls-2" d="m95.02,92.09c-.29-.12-.64-.17-.95-.18-.31,0-.66.02-.96.11"/>
  <path class="cls-2" d="m99.12,96.74c.18-.05.33-.16.45-.3.12-.14.21-.3.27-.47.13-.34.18-.72.18-1.08"/>
  <line class="cls-2" x1="99.5" y1="65.08" x2="97.2" y2="63.81"/>
  <line class="cls-2" x1="61.73" y1="76.48" x2="61.37" y2="76.59"/>
  <line class="cls-2" x1="61.37" y1="76.28" x2="61.37" y2="76.59"/>
  <path class="cls-2" d="m59.88,73.71c.24-.06.56-.06.81,0"/>
  <path class="cls-2" d="m59.43,72.69c.39-.11.86-.13,1.26-.09.2.02.42.07.61.14.1.04.19.09.28.15.04.04.09.08.12.13.03.04.04.09.04.14"/>
  <line class="cls-2" x1="154.94" y1="31.86" x2="154.94" y2="30.92"/>
  <line class="cls-2" x1="81.51" y1="55.18" x2="80.4" y2="54.57"/>
  <line class="cls-2" x1="85.43" y1="57.34" x2="84.32" y2="56.73"/>
  <line class="cls-2" x1="89.35" y1="59.5" x2="88.25" y2="58.89"/>
  <line class="cls-2" x1="97.2" y1="63.81" x2="96.09" y2="63.2"/>
  <line class="cls-2" x1="73.66" y1="50.86" x2="72.55" y2="50.25"/>
  <line class="cls-2" x1="147.09" y1="27.54" x2="147.09" y2="26.61"/>
  <line class="cls-2" x1="127.48" y1="16.74" x2="127.48" y2="15.81"/>
  <line class="cls-2" x1="54.05" y1="40.07" x2="52.94" y2="39.46"/>
  <line class="cls-2" x1="57.97" y1="42.23" x2="56.86" y2="41.62"/>
  <line class="cls-2" x1="61.89" y1="44.39" x2="60.78" y2="43.78"/>
  <line class="cls-2" x1="65.81" y1="46.54" x2="64.71" y2="45.93"/>
  <line class="cls-2" x1="95.42" y1="95.02" x2="95.06" y2="95.12"/>
  <line class="cls-2" x1="95.06" y1="94.82" x2="95.06" y2="95.12"/>
  <path class="cls-2" d="m93.56,92.25c.24-.07.56-.07.81,0"/>
  <line class="cls-2" x1="169.93" y1="72.56" x2="143.39" y2="57.95"/>
  <line class="cls-2" x1="121.14" y1="60.02" x2="153.42" y2="50.65"/>
  <line class="cls-2" x1="143.17" y1="25.38" x2="143.17" y2="24.45"/>
  <line class="cls-2" x1="151.01" y1="29.7" x2="151.01" y2="28.76"/>
  <line class="cls-2" x1="50.63" y1="38.99" x2="50.63" y2="67.72"/>
  <line class="cls-2" x1="54.74" y1="43.04" x2="54.74" y2="66.52"/>
  <line class="cls-2" x1="77.58" y1="51.03" x2="80.4" y2="52.57"/>
  <line class="cls-2" x1="69.74" y1="46.71" x2="72.55" y2="48.26"/>
  <line class="cls-2" x1="127.48" y1="15.81" x2="52.94" y2="37.46"/>
  <line class="cls-2" x1="52.94" y1="37.46" x2="52.94" y2="39.46"/>
  <line class="cls-2" x1="50.12" y1="35.91" x2="52.94" y2="37.46"/>
  <line class="cls-2" x1="162.78" y1="35.24" x2="88.25" y2="56.89"/>
  <line class="cls-2" x1="139.25" y1="22.29" x2="64.71" y2="43.94"/>
  <line class="cls-2" x1="135.32" y1="20.13" x2="60.78" y2="41.78"/>
  <line class="cls-2" x1="158.86" y1="33.08" x2="84.32" y2="54.73"/>
  <line class="cls-2" x1="81.51" y1="53.18" x2="84.32" y2="54.73"/>
  <line class="cls-2" x1="143.17" y1="24.45" x2="68.63" y2="46.1"/>
  <line class="cls-2" x1="131.4" y1="17.97" x2="56.86" y2="39.62"/>
  <line class="cls-2" x1="56.86" y1="41.62" x2="54.05" y2="40.07"/>
  <line class="cls-2" x1="54.05" y1="38.07" x2="56.86" y2="39.62"/>
  <line class="cls-2" x1="174.55" y1="41.72" x2="100.01" y2="63.37"/>
  <line class="cls-2" x1="100.01" y1="63.37" x2="100.01" y2="65.36"/>
  <line class="cls-2" x1="151.01" y1="28.76" x2="76.48" y2="50.41"/>
  <line class="cls-2" x1="73.66" y1="48.87" x2="76.48" y2="50.41"/>
  <line class="cls-2" x1="92.17" y1="61.04" x2="93.28" y2="60.72"/>
  <line class="cls-2" x1="166.71" y1="37.4" x2="92.17" y2="59.05"/>
  <line class="cls-2" x1="51.83" y1="70.23" x2="98.31" y2="95.81"/>
  <line class="cls-2" x1="100.01" y1="94.89" x2="100.01" y2="65.36"/>
  <line class="cls-2" x1="104.12" y1="64.17" x2="100.01" y2="65.36"/>
  <line class="cls-2" x1="96.09" y1="63.2" x2="97.2" y2="62.88"/>
  <line class="cls-2" x1="96.09" y1="61.21" x2="96.09" y2="63.2"/>
  <line class="cls-2" x1="96.09" y1="63.2" x2="93.28" y2="61.66"/>
  <line class="cls-2" x1="170.63" y1="39.56" x2="167.82" y2="38.01"/>
  <path class="cls-2" d="m154.34,42.45c.51-.15,1.02-.3,1.54-.45"/>
  <path class="cls-2" d="m155.88,42c.09.05.18.1.27.15"/>
  <path class="cls-2" d="m156.02,43.05c.39-.11.77-.22,1.16-.34"/>
  <path class="cls-2" d="m157.18,42.72c.09.05.18.1.27.15"/>
  <path class="cls-2" d="m154.97,42.79c.45-.13.89-.26,1.34-.39"/>
  <path class="cls-2" d="m147.66,44.39c.51-.15,1.02-.3,1.54-.45"/>
  <path class="cls-2" d="m149.2,43.94l.27.15"/>
  <path class="cls-2" d="m148.67,44.63c.32-.09.64-.19.96-.28"/>
  <path class="cls-2" d="m149.34,44.99c.39-.11.77-.23,1.16-.34"/>
  <path class="cls-2" d="m150.5,44.66c.09.05.18.1.27.15"/>
  <path class="cls-2" d="m152.08,43.86c-.29.09-.59.17-.88.25"/>
  <path class="cls-2" d="m150.94,43.97c.42-.12.83-.24,1.25-.36"/>
  <line class="cls-2" x1="152.08" y1="43.99" x2="152.08" y2="43.86"/>
  <path class="cls-2" d="m151.46,43.65c-.26-.03-.54-.01-.78.05-.26.08-.39.19-.39.3"/>
  <path class="cls-2" d="m152.19,43.74c.07.03.1.05.16.08.15.08.24.17.26.27"/>
  <path class="cls-2" d="m152.97,43.76c-.13-.03-.27-.08-.38-.14"/>
  <line class="cls-2" x1="149.2" y1="44.07" x2="149.2" y2="43.94"/>
  <path class="cls-2" d="m149.2,44.07s.07.04.11.06"/>
  <line class="cls-2" x1="148.31" y1="44.56" x2="148.31" y2="44.42"/>
  <path class="cls-2" d="m148.67,44.76c.32-.09.64-.19.96-.28"/>
  <path class="cls-2" d="m149.63,44.48s.07.04.1.06"/>
  <line class="cls-2" x1="148.93" y1="44.9" x2="148.93" y2="44.77"/>
  <path class="cls-2" d="m148.93,44.9c.14.08.27.15.41.22"/>
  <line class="cls-2" x1="149.34" y1="45.13" x2="149.34" y2="44.99"/>
  <path class="cls-2" d="m149.34,45.13c.39-.11.77-.22,1.16-.34"/>
  <line class="cls-2" x1="150.5" y1="44.79" x2="150.5" y2="44.66"/>
  <path class="cls-2" d="m150.5,44.79s.07.04.11.06"/>
  <line class="cls-2" x1="156.02" y1="43.05" x2="156.02" y2="43.19"/>
  <path class="cls-2" d="m156.02,43.19c.39-.11.77-.22,1.16-.34"/>
  <line class="cls-2" x1="157.18" y1="42.85" x2="157.18" y2="42.72"/>
  <path class="cls-2" d="m157.18,42.85s.07.04.11.06"/>
  <path class="cls-2" d="m156.31,42.54s.07.04.1.06"/>
  <line class="cls-2" x1="155.61" y1="42.96" x2="155.61" y2="42.83"/>
  <path class="cls-2" d="m155.61,42.96c.14.08.27.15.41.22"/>
  <line class="cls-2" x1="155.88" y1="42.13" x2="155.88" y2="42"/>
  <path class="cls-2" d="m155.88,42.13s.07.04.11.06"/>
  <line class="cls-2" x1="150.3" y1="44.14" x2="150.3" y2="44.01"/>
  <line class="cls-2" x1="152.16" y1="44.02" x2="152.16" y2="44.15"/>
  <path class="cls-2" d="m152.16,44.02c0-.05-.03-.11-.08-.16"/>
  <path class="cls-2" d="m149.84,44.01c0-.17.2-.34.58-.45.44-.13,1.02-.14,1.48-.04"/>
  <path class="cls-2" d="m152.33,43.29c0-.17.2-.35.57-.45"/>
  <line class="cls-2" x1="154.66" y1="43.29" x2="154.66" y2="43.42"/>
  <path class="cls-2" d="m154.66,43.42c0,.12-.14.23-.39.31"/>
  <line class="cls-2" x1="152.78" y1="43.42" x2="152.78" y2="43.29"/>
  <path class="cls-2" d="m152.78,43.29c0-.12.13-.23.38-.3"/>
  <path class="cls-2" d="m150.31,44.07s-.01.04-.01.07"/>
  <path class="cls-2" d="m151.09,44.05c.36-.11.73-.21,1.09-.32"/>
  <path class="cls-2" d="m147.82,44.47l1.38-.4"/>
  <path class="cls-2" d="m155.13,42.88c.39-.11.79-.23,1.18-.34"/>
  <path class="cls-2" d="m154.5,42.53l1.38-.4"/>
  <path class="cls-2" d="m149.85,44.08c.05-.15.24-.29.57-.39.35-.1.79-.13,1.19-.08"/>
  <path class="cls-2" d="m152.34,43.36c.04-.15.24-.29.56-.39"/>
  <path class="cls-2" d="m155.61,42.83c.14.08.27.15.41.22"/>
  <path class="cls-2" d="m148.31,44.42c.12.07.24.13.36.2"/>
  <path class="cls-2" d="m148.93,44.77c.14.07.27.15.41.22"/>
  <line class="cls-2" x1="166.71" y1="38.33" x2="166.71" y2="37.4"/>
  <line class="cls-2" x1="93.28" y1="61.66" x2="92.17" y2="61.04"/>
  <line class="cls-2" x1="170.63" y1="40.49" x2="170.63" y2="39.56"/>
  <path class="cls-2" d="m165.25,71.71c-.39.11-.86.13-1.25.09-.2-.02-.42-.07-.61-.14-.1-.04-.19-.09-.28-.15-.04-.03-.09-.08-.11-.12-.03-.04-.04-.09-.04-.14"/>
  <line class="cls-2" x1="138.33" y1="59.42" x2="168.74" y2="76.15"/>
  <line class="cls-2" x1="169.93" y1="50.24" x2="169.93" y2="74.15"/>
  <path class="cls-2" d="m169.93,74.15c0,.25-.03.52-.12.75-.05.12-.11.23-.19.33-.08.1-.19.17-.31.21"/>
  <path class="cls-2" d="m165.85,71.24c0,.14-.13.25-.23.31-.11.07-.25.12-.37.16"/>
  <line class="cls-2" x1="77.58" y1="51.03" x2="152.12" y2="29.37"/>
  <line class="cls-2" x1="77.58" y1="53.02" x2="77.58" y2="51.03"/>
  <line class="cls-2" x1="170.44" y1="50.09" x2="104.12" y2="69.36"/>
  <line class="cls-2" x1="54.04" y1="42.65" x2="99.5" y2="67.67"/>
  <line class="cls-2" x1="50.63" y1="38.99" x2="99.5" y2="65.88"/>
  <line class="cls-2" x1="69.74" y1="46.71" x2="144.28" y2="25.06"/>
  <line class="cls-2" x1="69.74" y1="48.7" x2="69.74" y2="46.71"/>
  <line class="cls-2" x1="85.43" y1="55.34" x2="159.97" y2="33.69"/>
  <line class="cls-2" x1="85.43" y1="57.34" x2="85.43" y2="55.34"/>
  <line class="cls-2" x1="61.89" y1="42.39" x2="136.43" y2="20.74"/>
  <line class="cls-2" x1="61.89" y1="44.39" x2="61.89" y2="42.39"/>
  <line class="cls-2" x1="57.97" y1="40.23" x2="132.51" y2="18.58"/>
  <line class="cls-2" x1="57.97" y1="42.23" x2="57.97" y2="40.23"/>
  <line class="cls-2" x1="81.51" y1="53.18" x2="156.05" y2="31.53"/>
  <line class="cls-2" x1="81.51" y1="55.18" x2="81.51" y2="53.18"/>
  <line class="cls-2" x1="65.81" y1="44.55" x2="140.35" y2="22.9"/>
  <line class="cls-2" x1="65.81" y1="46.54" x2="65.81" y2="44.55"/>
  <line class="cls-2" x1="54.05" y1="38.07" x2="128.58" y2="16.42"/>
  <line class="cls-2" x1="54.05" y1="40.07" x2="54.05" y2="38.07"/>
  <line class="cls-2" x1="104.12" y1="64.17" x2="174.55" y2="43.71"/>
  <line class="cls-2" x1="97.2" y1="61.82" x2="171.74" y2="40.17"/>
  <line class="cls-2" x1="97.2" y1="63.81" x2="97.2" y2="61.82"/>
  <line class="cls-2" x1="97.2" y1="61.82" x2="100.01" y2="63.37"/>
  <line class="cls-2" x1="73.66" y1="48.87" x2="148.2" y2="27.22"/>
  <line class="cls-2" x1="73.66" y1="50.86" x2="73.66" y2="48.87"/>
  <line class="cls-2" x1="89.35" y1="57.5" x2="163.89" y2="35.85"/>
  <line class="cls-2" x1="89.35" y1="59.5" x2="89.35" y2="57.5"/>
  <path class="cls-2" d="m94.82,92.16c-.39.11-.86.13-1.26.09-.2-.02-.42-.07-.61-.14-.1-.04-.19-.09-.28-.15-.04-.03-.09-.08-.11-.12-.03-.04-.04-.09-.04-.14"/>
  <path class="cls-2" d="m61.13,73.63c-.39.11-.86.13-1.26.09-.2-.02-.42-.07-.61-.14-.1-.04-.19-.09-.28-.15-.04-.03-.09-.08-.12-.12-.03-.04-.04-.09-.04-.14"/>
  <line class="cls-2" x1="98.31" y1="96.61" x2="51.83" y2="71.03"/>
  <line class="cls-2" x1="104.12" y1="64.97" x2="104.12" y2="93.69"/>
  <line class="cls-2" x1="99.5" y1="65.08" x2="99.5" y2="94.61"/>
  <path class="cls-2" d="m99.5,94.61c0,.25-.03.52-.12.75-.05.12-.11.23-.19.33s-.19.17-.31.21"/>
  <path class="cls-2" d="m93.11,91.23c.5-.14,1.15-.15,1.65-.01.07.02.15.04.22.07.06.02.12.05.17.08.06.04.13.08.18.14.04.05.07.1.08.16,0,.06-.01.12-.05.17-.04.07-.11.12-.17.16-.11.07-.25.13-.38.16"/>
  <path class="cls-2" d="m61.73,73.16c0,.14-.13.25-.23.31-.11.07-.25.12-.37.16"/>
  <line class="cls-2" x1="170.63" y1="39.56" x2="96.09" y2="61.21"/>
  <line class="cls-2" x1="93.28" y1="59.66" x2="167.82" y2="38.01"/>
  <line class="cls-2" x1="93.28" y1="61.66" x2="93.28" y2="59.66"/>
  <line class="cls-2" x1="93.28" y1="59.66" x2="96.09" y2="61.21"/>
  <path class="cls-2" d="m156.15,42.15c-.51.15-1.02.3-1.54.45"/>
  <path class="cls-2" d="m154.61,42.59c-.09-.05-.18-.1-.27-.15"/>
  <path class="cls-2" d="m157.45,42.86c-.51.15-1.02.3-1.54.45"/>
  <path class="cls-2" d="m155.91,43.31c-.31-.17-.62-.34-.94-.51"/>
  <path class="cls-2" d="m156.31,42.41c.09.05.18.1.26.14"/>
  <path class="cls-2" d="m156.57,42.55c-.32.09-.64.19-.96.28"/>
  <path class="cls-2" d="m149.23,45.25c-.52-.29-1.04-.57-1.57-.86"/>
  <path class="cls-2" d="m149.47,44.09c-.39.11-.77.22-1.16.34"/>
  <path class="cls-2" d="m149.63,44.35c.09.05.18.1.26.14"/>
  <path class="cls-2" d="m149.89,44.49c-.32.09-.64.19-.96.28"/>
  <path class="cls-2" d="m150.77,44.8c-.51.15-1.03.3-1.54.45"/>
  <path class="cls-2" d="m151.9,43.52l-.44.13"/>
  <path class="cls-2" d="m151.2,44.11c-.09-.05-.18-.1-.26-.14"/>
  <line class="cls-2" x1="152.19" y1="43.74" x2="152.19" y2="43.6"/>
  <path class="cls-2" d="m152.19,43.6c.07.03.1.05.16.08.19.1.27.22.27.33"/>
  <path class="cls-2" d="m152.37,43.43s-.04-.09-.04-.14"/>
  <path class="cls-2" d="m152.9,42.84c.63-.18,1.51-.13,1.95.12.18.1.27.22.27.33"/>
  <path class="cls-2" d="m152.9,42.97c.63-.18,1.51-.13,1.95.12.15.08.23.17.26.26"/>
  <path class="cls-2" d="m152.59,43.61c-.08-.04-.17-.11-.22-.19"/>
  <path class="cls-2" d="m153.17,42.98c.42-.12,1.01-.09,1.31.08.12.07.18.15.18.23"/>
  <path class="cls-2" d="m154.28,43.73c-.41.12-1.01.08-1.31-.09-.12-.07-.18-.14-.18-.22"/>
  <path class="cls-2" d="m154.28,43.59c-.41.12-1.01.08-1.31-.09-.12-.06-.18-.14-.18-.22"/>
  <path class="cls-2" d="m148.31,44.56c.12.07.24.13.36.2"/>
  <line class="cls-2" x1="148.67" y1="44.76" x2="148.67" y2="44.63"/>
  <line class="cls-2" x1="149.63" y1="44.48" x2="149.63" y2="44.35"/>
  <line class="cls-2" x1="156.31" y1="42.54" x2="156.31" y2="42.41"/>
  <path class="cls-2" d="m150.3,44.14c0,.08.06.15.18.22.31.17.89.21,1.32.09.24-.07.37-.18.37-.3"/>
  <path class="cls-2" d="m150.3,44.01c0,.08.06.15.18.22.31.17.89.21,1.32.09.24-.07.37-.18.37-.3"/>
  <path class="cls-2" d="m152.62,44.02c0,.17-.19.34-.56.44-.64.18-1.5.13-1.96-.13-.18-.1-.26-.21-.26-.33"/>
  <path class="cls-2" d="m155.12,43.29c0,.17-.2.34-.58.45-.47.14-1.1.14-1.57.02"/>
  <path class="cls-2" d="m154.66,43.29c0,.12-.14.23-.39.31"/>
  <polyline class="cls-1" points="13.83 80.23 18.94 81.52 17.74 83.72 13.83 80.23"/>
  <polyline class="cls-1" points="63.03 107.17 57.93 105.88 59.12 103.68 63.03 107.17"/>
  <polyline class="cls-1" points="126.62 112.47 131.88 112.24 131.16 109.85 126.62 112.47"/>
  <polyline class="cls-1" points="202.44 90.46 197.19 90.68 197.91 93.07 202.44 90.46"/>
  <polyline class="cls-1" points="207.23 32.32 205.98 37.43 208.48 37.41 207.23 32.32"/>
  <polyline class="cls-1" points="207.23 65.25 208.48 60.14 205.98 60.16 207.23 65.25"/>
  <g>
    <g>
      <path class="cls-3" d="m158.34,95.82c.62-.18,1.19-.14,1.7.13s.86.7,1.04,1.3.12,1.16-.18,1.67c-.3.51-.77.86-1.4,1.04-.67.2-1.29.11-1.85-.28-.56-.38-.96-.99-1.21-1.82-.32-1.08-.31-2,.03-2.75.34-.75.92-1.25,1.76-1.5.63-.19,1.24-.16,1.81.07l-.22.73c-.45-.2-.92-.23-1.4-.09-.58.17-1,.53-1.27,1.07-.26.54-.3,1.15-.12,1.8.06-.32.2-.6.44-.85.24-.25.52-.42.86-.52h0Zm-.16,3.33c.34.18.71.21,1.11.09s.7-.35.88-.68c.18-.34.22-.7.1-1.11-.12-.4-.34-.68-.68-.86-.34-.18-.71-.21-1.11-.09s-.7.35-.88.68c-.19.33-.22.7-.1,1.1s.35.7.69.88Z"/>
      <path class="cls-3" d="m164.37,98.51c-.59.17-1.13.16-1.62-.04s-.84-.56-1.05-1.07l.71-.33c.14.34.38.57.7.7.32.13.67.14,1.06.03.42-.12.72-.34.9-.64.18-.3.22-.65.11-1.03s-.32-.66-.62-.81c-.3-.15-.66-.16-1.08-.04-.24.07-.44.2-.61.39l-.49-.4,1.35-2.45-2.93.87-.21-.7,3.86-1.14.2.68-1.22,2.18c.58-.24,1.11-.24,1.59-.02.48.22.81.63.98,1.22s.11,1.12-.18,1.59-.77.81-1.43,1.01h0Z"/>
      <path class="cls-3" d="m169.39,97.03c-.58.17-1.11.16-1.6-.02-.48-.19-.84-.52-1.07-1l.7-.35c.16.32.39.54.7.66s.66.12,1.04.01c.4-.12.69-.34.85-.66s.19-.68.07-1.09-.35-.71-.67-.88c-.32-.17-.7-.19-1.14-.06-.58.17-.95.54-1.12,1.12l-.61.05-.5-3.43,3.22-.95.21.7-2.64.78.28,1.89c.11-.2.27-.37.47-.53.2-.16.41-.27.63-.34.63-.19,1.19-.15,1.68.11.49.26.83.69,1.01,1.3s.14,1.19-.13,1.68c-.27.49-.73.83-1.37,1.02h0Z"/>
    </g>
    <g>
      <path class="cls-3" d="m161.68,112.06l-.21-.68,1.69-2.63c.5-.78.68-1.43.52-1.96-.1-.34-.28-.58-.55-.72s-.58-.16-.93-.05c-.42.12-.7.36-.85.7-.14.34-.13.73.05,1.16l-.77.17c-.23-.62-.22-1.18.03-1.69s.7-.85,1.33-1.04c.59-.18,1.12-.15,1.58.07s.77.61.93,1.16c.11.37.11.76,0,1.17-.11.41-.34.89-.69,1.41l-1.23,1.88,2.98-.88.21.71-4.08,1.21h0Z"/>
      <path class="cls-3" d="m168.66,110.07c-.58.17-1.11.16-1.6-.02-.48-.19-.84-.52-1.07-1l.7-.35c.16.32.39.54.7.66s.66.12,1.04.01c.4-.12.69-.34.85-.66s.19-.68.07-1.09-.35-.71-.67-.88c-.32-.17-.7-.19-1.14-.06-.58.17-.95.54-1.12,1.12l-.61.05-.5-3.43,3.22-.95.21.7-2.64.78.28,1.89c.11-.2.27-.37.47-.53.2-.16.41-.27.63-.34.63-.19,1.19-.15,1.68.11.49.26.83.69,1.01,1.3s.14,1.19-.13,1.68c-.27.49-.73.83-1.37,1.02h0Z"/>
      <path class="cls-3" d="m171.14,102.62l.04,1.85-.94.28.41-1.98.49-.15h0Zm1.28-.38l.04,1.85-.95.28.41-1.98.5-.15h0Z"/>
    </g>
  </g>
  <g>
    <g>
      <path class="cls-3" d="m36.06,89.1c-.53-.29-.9-.68-1.11-1.15-.21-.47-.22-.96-.04-1.47l.74.25c-.11.33-.1.65.03.96s.38.56.72.75c.37.2.72.25,1.07.14s.62-.35.82-.72.26-.75.15-1.1c-.11-.35-.36-.63-.76-.85-.53-.29-1.05-.29-1.59,0l-.46-.4,2.08-2.77,2.94,1.62-.35.64-2.41-1.33-1.15,1.53c.22-.06.45-.07.71-.04.25.03.48.1.68.21.57.31.94.74,1.11,1.27.16.53.09,1.08-.21,1.63s-.74.94-1.28,1.09c-.54.15-1.1.07-1.69-.26h0Z"/>
      <path class="cls-3" d="m40.59,91.59c-.59-.32-.98-.74-1.18-1.24-.2-.5-.16-1,.11-1.5.18-.32.43-.56.76-.7s.68-.19,1.05-.11c-.19-.25-.3-.52-.33-.81-.03-.29.02-.56.15-.8.24-.43.59-.69,1.05-.79s.96,0,1.49.3.86.65,1.03,1.09c.17.44.13.88-.1,1.31-.13.24-.33.43-.6.56s-.55.18-.85.15c.26.27.42.59.47.94s-.01.7-.19,1.02c-.27.49-.67.79-1.2.9-.53.11-1.08,0-1.66-.32h0Zm.33-.63c.37.21.72.27,1.05.21s.58-.25.75-.57.2-.62.08-.93-.37-.57-.74-.78-.73-.28-1.06-.21-.58.25-.75.56-.19.62-.07.94.37.57.75.78Zm1.48-2.68c.31.17.59.22.86.17.27-.06.48-.22.63-.48.15-.26.17-.52.07-.78-.1-.26-.3-.48-.62-.65s-.63-.24-.9-.19c-.28.05-.48.21-.62.48-.14.27-.16.53-.06.79.1.26.31.48.63.65h0Z"/>
      <path class="cls-3" d="m45.1,94.07c-.53-.29-.9-.68-1.11-1.15-.21-.47-.22-.96-.04-1.47l.74.25c-.11.33-.1.65.03.96s.38.56.72.75c.37.2.72.25,1.07.14s.62-.35.82-.72.26-.75.15-1.1c-.11-.35-.36-.63-.76-.85-.53-.29-1.05-.29-1.59,0l-.46-.4,2.08-2.77,2.94,1.62-.35.64-2.41-1.33-1.15,1.53c.22-.06.45-.07.71-.04.25.03.48.1.68.21.57.31.94.74,1.11,1.27.16.53.09,1.08-.21,1.63s-.74.94-1.28,1.09c-.54.15-1.1.07-1.69-.26h0Z"/>
    </g>
    <g>
      <path class="cls-3" d="m28.68,99l.33-.63,3.06-.65c.91-.19,1.49-.53,1.76-1.01.17-.31.21-.61.12-.9s-.3-.52-.62-.7c-.38-.21-.75-.25-1.09-.11-.34.14-.61.42-.79.86l-.67-.43c.27-.6.68-.99,1.22-1.17s1.1-.11,1.68.21c.54.3.89.69,1.06,1.17s.11.97-.17,1.47c-.19.34-.46.61-.83.83-.37.21-.87.38-1.49.51l-2.2.46,2.72,1.49-.36.65-3.73-2.05h0Z"/>
      <path class="cls-3" d="m34.89,102.49c-.54-.3-.91-.69-1.11-1.18s-.2-.99.02-1.5l.73.27c-.14.34-.14.67,0,.99.13.32.38.58.73.77.38.21.75.27,1.09.19.34-.08.61-.3.8-.65s.24-.7.14-1.01c-.11-.32-.35-.58-.73-.79-.22-.12-.45-.17-.7-.16l-.06-.63,2.69-.77-2.68-1.47.35-.64,3.53,1.94-.34.62-2.41.67c.58.25.95.62,1.13,1.12.18.5.12,1.01-.18,1.56s-.71.87-1.26.99-1.12.02-1.73-.31h0Z"/>
      <path class="cls-3" d="m41.96,99.03l-1.28,1.33-.86-.47,1.69-1.1.45.25h0Zm1.17.64l-1.28,1.33-.87-.48,1.69-1.1s.46.25.46.25Z"/>
    </g>
  </g>
  <g>
    <g>
      <path class="cls-4" d="m204.1,55.88h-.71s-2.04-2.36-2.04-2.36c-.61-.7-1.18-1.05-1.73-1.05-.35,0-.64.11-.85.33-.21.22-.31.51-.31.88,0,.44.14.77.43,1.01.28.23.66.33,1.13.28l-.05.79c-.66.05-1.2-.12-1.61-.51-.41-.39-.62-.91-.62-1.57,0-.62.17-1.11.52-1.49.35-.38.8-.56,1.37-.56.38,0,.76.11,1.12.33.37.22.75.58,1.16,1.06l1.46,1.71v-3.1h.74v4.26Z"/>
      <path class="cls-4" d="m199.88,48.52c0-.65.2-1.18.6-1.6.4-.42.92-.63,1.54-.63s1.15.21,1.55.64c.4.43.6.98.6,1.64,0,.7-.26,1.27-.79,1.7-.52.43-1.22.64-2.09.64-1.13,0-2-.27-2.63-.81-.62-.54-.94-1.24-.94-2.11,0-.66.19-1.23.58-1.72l.64.41c-.32.38-.49.82-.49,1.31,0,.61.22,1.11.67,1.52.45.4,1.01.61,1.7.63-.29-.14-.52-.36-.69-.66-.17-.3-.26-.62-.26-.98Zm3.15,1.09c.27-.27.4-.62.4-1.04s-.13-.77-.4-1.04-.62-.41-1.04-.41c-.41,0-.75.14-1.02.41s-.4.62-.4,1.04.13.77.4,1.04c.27.27.61.41,1.02.41s.77-.14,1.04-.41Z"/>
      <path class="cls-4" d="m204.18,43.35c0,.61-.16,1.11-.47,1.53-.31.41-.74.66-1.26.74l-.13-.76c.35-.06.62-.22.83-.49.2-.27.31-.6.31-.99,0-.42-.13-.75-.39-1-.26-.25-.6-.37-1.03-.37s-.78.13-1.04.39-.38.62-.38,1.08c0,.6.25,1.06.76,1.4l-.13.59-3.43-.5v-3.36h.73v2.75l1.89.27c-.16-.16-.28-.36-.38-.6-.1-.24-.14-.47-.14-.7,0-.65.19-1.18.58-1.58.39-.4.9-.6,1.53-.6s1.18.2,1.57.6c.39.4.59.93.59,1.61Z"/>
    </g>
    <g>
      <path class="cls-4" d="m216.41,56.63h-5.27c.36.39.59.89.7,1.49h-.73c-.14-.65-.47-1.19-1-1.62v-.65h6.3v.77Z"/>
      <path class="cls-4" d="m216.48,52.41c0,.77-.29,1.37-.87,1.79s-1.36.63-2.35.63-1.77-.21-2.35-.63-.87-1.01-.87-1.79.29-1.36.87-1.78,1.37-.63,2.35-.63,1.77.21,2.35.63.87,1.01.87,1.78Zm-.74,0c0-.5-.22-.88-.67-1.16-.44-.27-1.05-.41-1.82-.41s-1.38.14-1.82.41c-.45.27-.67.66-.67,1.16s.22.9.67,1.17c.44.27,1.05.4,1.83.4s1.37-.13,1.82-.4c.44-.27.67-.66.67-1.17Z"/>
      <path class="cls-4" d="m215.47,49.02v-.88h.94v.88h-.94Z"/>
      <path class="cls-4" d="m216.41,44.37h-1.54v3.32h-.74l-4.02-3.19v-.95h4.02v-.91h.74v.91h1.54v.82Zm-2.28,2.44v-2.44h-3.09l3.09,2.44Z"/>
      <path class="cls-4" d="m210.04,39.25l1.78.49v.99l-1.78-.95v-.52Zm0,1.33l1.78.49v.98l-1.78-.95v-.51Z"/>
    </g>
  </g>
</svg>