<svg width="942" height="1584" viewBox="0 0 942 1584" fill="none" xmlns="http://www.w3.org/2000/svg">
<path d="M0.933333 0.933251C0.4 1.33325 0 357.733 0 792.933V1584H470.667H941.333V792V-8.2612e-05H471.6C213.2 -8.2612e-05 1.33333 0.399917 0.933333 0.933251ZM913.333 196.667V364.133L907.067 360.533C893.733 353.067 894.667 354.267 895.6 344.933C896.267 337.2 896 336.267 892.8 332.267C888.667 327.467 880.8 324.8 874.133 326C866.4 327.467 864 325.2 864 316.267C864 300.933 856.133 294.133 842.133 297.2C834.4 298.933 832 297.6 832 291.733C832 287.2 828.8 279.067 825.6 275.6C821.867 271.333 813.733 268 807.467 268C802.533 268 799.867 269.067 791.733 274.667L782 281.2L776.533 275.867C769.867 269.333 762.8 267.867 753.333 271.2C750.133 272.267 747.333 273.067 747.067 272.933C746.933 272.667 748.533 269.067 750.667 264.8C755.333 255.6 755.733 248.667 752.133 241.6C747.467 232.533 739.467 228 727.867 228H720.933L723.467 225.2C726.8 221.467 732.4 218.667 736.4 218.667C738.133 218.667 745.733 220.8 753.2 223.467C767.733 228.533 773.467 228.667 776 224C777.6 221.067 776.667 218.133 772.4 212.4C770.8 210.133 769.867 207.867 770.533 207.333C771.2 206.933 776.533 207.2 782.4 207.867C809.067 210.8 823.467 200.4 808 189.333C805.733 187.733 804.267 186 804.533 185.467C804.933 184.933 809.2 183.333 814 182C823.733 179.467 829.333 175.733 829.333 172C829.333 170.667 827.867 167.733 826 165.6C824.133 163.333 822.667 161.067 822.667 160.4C822.667 159.733 824.133 157.2 826 154.667C830.133 148.933 830.267 143.467 826.4 140.8C822.667 138.133 819.2 138.133 812.133 140.667L806.667 142.533L804 137.333C799.6 128.667 793.333 130.667 784.533 143.467C781.867 147.467 779.067 150.667 778.4 150.667C777.867 150.667 776.4 148.4 775.2 145.467C774 142.533 771.733 139.733 769.733 138.8C762.267 135.333 754.4 144.8 749.867 162.667C748.667 167.467 747.067 172.533 746.4 173.867C745.067 176.267 744.667 176 740.4 170.933C735.067 164.533 730.4 163.6 727.733 168.267C726.8 170.133 725.733 178.267 725.333 188C724.8 199.6 723.867 205.867 722.4 208.667C720 212.933 709.867 224 708.267 224C707.733 224 707.067 221.733 706.933 218.933C706.667 216 705.067 211.733 702.533 208.267C698.8 202.933 698.667 202 700.133 197.733C702.133 191.6 700.933 182 697.733 177.6C692.8 170.933 688.4 168.8 678.8 168.267C670.933 167.733 668.8 168.267 661.867 171.733C653.2 176 652.133 176 645.333 170.667C642.8 168.667 638.667 166 636.267 164.8L631.867 162.533L638.267 154.933C641.733 150.8 645.2 146.933 646 146.4C646.667 145.867 653.067 145.6 660 145.733C679.2 146 685.333 141.2 685.333 126C685.333 121.333 686.133 119.067 688.667 116.667C690.4 114.8 692.533 113.333 693.467 113.333C696.267 113.333 703.867 106.667 706.133 102.4C708.8 97.1999 707.867 90.5333 703.6 84.9333C697.6 76.9333 696.4 73.1999 696.933 63.9999C697.467 56.1333 697.333 55.0666 694.267 52.2666C692.267 50.2666 688.667 48.9333 685.067 48.5333C673.867 47.1999 673.467 47.0666 672.667 41.5999C672.267 38.9333 671.6 35.0666 671.333 32.9333L670.8 29.3333H792H913.333V196.667ZM608.667 63.1999L612.133 67.7333L620 64.9333C632.4 60.3999 636.133 64.3999 630.533 76.2666L627.467 82.9333L631.867 86.5333C635.6 89.5999 636.267 90.9333 635.467 93.7333C634.667 96.9333 630.267 99.7333 617.067 105.067C612.667 106.933 613.2 109.067 619.067 112.667C622.267 114.667 623.333 116.4 623.333 119.2C623.333 126.533 613.867 130.533 596.4 130.667C586.8 130.667 582.667 131.467 582.667 133.333C582.667 133.867 584.533 136.533 586.667 139.333C591.333 145.2 591.467 145.733 588.533 148.533C585.733 151.333 579.867 151.2 568.667 148C563.6 146.533 556.533 145.333 553.067 145.333C547.6 145.333 545.733 146.133 537.867 152.133L528.933 159.067L534.8 148.533L540.667 138L540.133 126C539.067 102.133 539.2 101.2 542 99.1999C545.467 96.5333 546 96.7999 551.867 102C558.4 107.867 559.467 106.8 561.467 92.5333C562.133 86.7999 564 79.4666 565.6 76.2666C570.267 66.2666 577.467 65.1999 582 73.8666C583.467 76.6666 585.2 79.0666 586 79.1999C586.667 79.1999 589.733 75.1999 592.8 70.2666C600.667 57.0666 603.2 55.9999 608.667 63.1999ZM493.067 61.5999C493.867 62.5333 495.2 66.6666 496.267 70.6666C498 77.7333 498.133 77.9999 503.2 78.7999C512.933 80.3999 513.467 84.7999 505.333 99.0666C500.667 107.467 500.667 107.6 510.667 108.267C516.667 108.667 516.667 108.667 517.067 114.133C517.467 120.4 513.333 126.533 502.933 135.067C496.267 140.533 492 144.933 492 146.667C492 147.2 494.267 148.133 496.933 148.667C504 150 506.667 151.6 506.667 154.8C506.667 158.8 501.2 163.067 490.933 167.2C479.067 171.733 472 178 465.467 189.2C456.533 204.4 452.933 204.667 458.667 189.6C463.467 177.067 462.8 174.933 448.4 159.733C435.2 145.467 435.2 139.067 448.533 139.733C453.2 140 456 139.6 456 138.667C456 137.867 453.333 131.867 450 125.333C442.933 111.2 441.333 104.133 444.533 99.3333C447.067 95.4666 450.133 95.1999 456.667 98.2666C459.2 99.4666 461.733 100.133 462.133 99.5999C462.667 99.0666 462.267 94.2666 461.467 88.9333C459.467 76.5333 460.8 71.9999 466.533 71.9999C468.667 71.9999 470.933 72.5333 471.333 73.3333C473.333 76.5333 477.067 74.3999 480.533 68.1333C482.4 64.5333 484.8 61.1999 485.733 60.9333C488.667 59.5999 491.6 59.9999 493.067 61.5999ZM108.533 93.4666C110.4 95.7333 112 98.1333 112 98.7999C112 100.933 117.6 112 118.667 112C119.2 112 120.933 109.867 122.4 107.333C128.133 97.7333 137.2 100.933 139.867 113.6C140.667 117.2 141.333 124.133 141.333 129.2C141.333 134.4 142 139.2 143.067 140.533C144.667 142.667 145.067 142.533 149.867 138.8C152.667 136.533 155.733 134.667 156.533 134.667C161.6 134.667 162.667 142.933 159.333 156.667C156.4 168.933 156.8 175.867 161.333 186.4C167.333 200.667 166.4 204.933 159.6 194C157.467 190.8 153.867 186.533 151.6 184.533L147.467 181.067L129.867 182C105.6 183.2 101.6 180.667 111.467 170.533C115.867 166 116.133 165.467 113.867 164.267C112.4 163.6 106.533 162.267 100.667 161.333C94.8 160.533 87.4667 158.667 84.4 157.333C74.5333 153.067 73.2 145.333 81.7333 140.933C84.4 139.6 86.6667 137.733 86.6667 136.8C86.6667 136 82.8 132.933 78 130.267C72.9333 127.333 68.5333 123.733 67.6 121.733C66.2667 118.667 66.5333 118 71.0667 114.133L76 110L73.7333 102.933C72 97.7333 71.8667 95.1999 72.8 93.5999C75.0667 89.9999 80.8 90.1333 87.3333 93.9999L93.2 97.3333L96.8 93.3333C101.333 88.2666 104.267 88.2666 108.533 93.4666ZM258.933 94.2666L262.667 97.8666L268.667 94.9333C279.733 89.5999 285.333 92.5333 282.4 102C279.333 111.467 279.467 112.933 283.867 115.2C291.867 119.333 288.667 125.867 275.067 133.333C268 137.067 266.667 139.333 270.533 140.667C274.8 142 280 146.667 280 149.2C280 152 273.867 158 269.2 159.733C267.333 160.533 261.067 161.733 255.2 162.667C237.867 165.2 237.2 165.733 244 172C248.8 176.533 249.333 182 245.2 183.333C243.6 183.867 234.667 183.867 225.2 183.333C204.933 182.133 204.4 182.4 196.667 194.533C193.733 199.067 190.933 202.667 190.4 202.667C188.133 202.667 189.467 195.6 193.333 188C198.133 178.667 198.4 171.733 195.067 155.2C191.333 137.467 195.333 131.733 205.467 140C208.4 142.267 211.333 143.733 212 143.333C212.8 142.933 213.333 138.533 213.333 133.6C213.333 117.067 219.067 102.667 225.467 102.667C226.8 102.667 229.733 105.067 232.133 108C237.2 114.267 238.533 113.733 242 104.267C247.2 90.5333 252 87.5999 258.933 94.2666ZM369.333 253.733C369.333 267.867 378 275.733 391.467 274C400.533 272.933 400.667 274 393.067 285.467C386.267 295.6 370.933 311.2 352.667 326.4C329.2 346 328.667 345.867 328.667 321.067C328.667 294.933 329.467 291.733 338.133 282.667C345.6 274.8 349.333 267.867 349.333 261.733C349.333 259.733 350.4 255.867 351.733 253.333C353.467 249.6 355.333 248.267 360.667 246.533C368.533 244 369.333 244.667 369.333 253.733ZM160 259.333C164.4 264.667 157.067 288.133 139.867 323.467C132.267 339.067 115.333 366.667 113.333 366.667C109.867 366.667 102.533 350.133 99.4667 335.333C97.8667 327.6 97.8667 327.067 101.6 319.333C103.6 314.933 105.333 309.2 105.333 306.667C105.333 300 108.533 296 113.733 296C120 295.867 128.533 291.6 132.533 286.4C136 281.733 137.467 278.4 140 268.4C141.733 261.333 144.133 260 157.467 257.467C158 257.467 159.067 258.267 160 259.333ZM421.333 279.333C426.8 283.333 433.867 283.733 443.2 280.4C449.6 278 449.6 278 452.133 281.2C456.667 286.8 455.467 290 443.6 303.067C430.267 317.867 424 326.667 408 352.667C401.333 363.6 392.533 376.933 388.533 382.267C372.267 403.6 337.733 431.6 321.733 436.533C317.467 437.867 317.6 436.533 324.667 408.533C328.8 392.267 332.4 381.067 336.133 373.333C341.333 362.667 343.333 360.4 369.333 334.667C396.133 308.267 402 301.067 412.533 282.267C414.533 278.8 416.267 276 416.4 276C416.667 276 418.8 277.467 421.333 279.333ZM213.067 290.933C214 291.867 214.667 294.667 214.667 297.2C214.667 309.467 220.8 319.067 229.733 320.667C233.6 321.467 236.4 320.8 243.467 317.467C248.267 315.2 253.6 313.333 255.2 313.333C256.667 313.333 260.667 315.2 263.867 317.333C270.4 321.867 272.8 322.133 279.2 319.467C284.533 317.2 289.333 311.333 293.733 301.067C298 291.6 301.6 289.333 306.533 293.067C309.2 295.067 310 296.8 309.867 300.133C306.933 373.067 305.6 386 298.133 405.6C292.8 420 290.8 417.467 289.333 394.4C288 371.733 283.333 366.4 274.533 377.333C272 380.4 269.733 382.267 269.067 381.6C268.4 380.933 266.933 376.667 266 372.267C260.8 350 250.667 341.733 242.933 353.333C241.2 355.867 239.333 358.133 238.8 358.4C238.267 358.533 235.6 355.467 232.933 351.6C228.533 345.2 223.6 341.333 220 341.333C219.2 341.333 217.2 343.733 215.333 346.533C212.267 351.6 211.867 351.733 207.733 350.533C193.6 346.533 188 352.133 195.333 362.933C197.2 365.6 198.667 368.267 198.667 368.8C198.667 369.2 197.2 371.333 195.333 373.6C193.467 375.733 192 378.4 192 379.333C192 381.867 197.867 386.267 203.733 388C206.4 388.8 210.4 390.133 212.4 390.933L216.133 392.4L212 396.667C206.267 402.533 206.8 407.733 213.333 411.067C217.333 413.2 220.133 413.467 232.267 412.8C240.133 412.533 246.933 412.667 247.2 413.2C247.6 413.733 246.667 415.867 245.2 418.133C243.867 420.267 242.667 423.2 242.667 424.667C242.667 431.867 250.133 432.4 264.933 426.533C275.867 422.267 282.533 422 286.4 425.867C288 427.467 287.733 428.8 284.133 436C273.733 456.533 262.4 468.8 234.8 489.733C200.533 515.867 188.533 526.4 164.667 551.2C151.6 564.933 139.6 576.8 138.267 577.6C136.267 578.667 135.067 578.4 132.933 576.267C125.2 568.533 128.667 492.8 138.8 445.467C140.4 438.533 144 425.733 146.933 416.933C152.8 399.2 192.4 299.6 195.333 295.2C198.133 290.8 210.133 288 213.067 290.933ZM494.667 302.667C496.4 303.6 497.733 306.667 498.8 312.267C502.267 329.867 518 337.867 533.333 330C535.333 328.933 539.467 326 542.533 323.467C545.733 320.8 549.333 318.667 550.8 318.667C552.133 318.667 556.267 320.8 560 323.467C567.2 328.667 567.333 330.533 560.8 335.6C559.067 336.933 549.867 344.667 540.533 352.8C501.333 386.667 489.2 394.667 463.733 403.2C442.133 410.4 402.4 419.733 398.667 418.4C398 418.133 401.733 411.333 407.067 403.067C412.4 394.8 422.4 378.133 429.333 366C442.933 342.4 454.267 325.6 465.067 313.333C470.933 306.667 472.933 305.333 479.6 303.6C489.2 301.067 491.467 300.933 494.667 302.667ZM598.667 344.933C598.667 355.733 601.733 361.867 608.667 364.8C617.733 368.533 626 366.133 636 356.8C644.267 349.067 649.2 346.667 657.067 346.667C664.133 346.667 668.8 349.867 667.333 353.6C666.8 354.8 662.667 359.067 658.133 363.067C653.467 367.2 649.2 372.133 648.8 374C647.467 379.2 651.467 386.133 658.133 390.267C661.333 392.4 663.867 394.4 664 394.933C664 396.267 651.733 398.533 639.6 399.467C633.6 400 622.933 399.6 616 398.8C602.4 397.067 548.133 384.667 546.133 382.667C543.6 380.133 547.2 374.267 558.4 363.2C574 347.733 589.733 336 594.8 336H598.667V344.933ZM74 341.867C76.9333 348.667 82.4 377.467 83.8667 393.467C84.8 402.667 84.8 411.867 83.8667 420C82.5333 433.6 76.6667 461.2 74.9333 462.933C71.2 466.667 49.8667 430.933 42.2667 408C40.4 402.4 37.6 389.733 35.4667 377.2L34.6667 372.4L42 371.733C54.9333 370.667 61.6 363.467 62.4 349.6C63.0667 339.6 64.2667 337.333 68.9333 337.333C71.3333 337.333 72.6667 338.533 74 341.867ZM913.333 522C913.333 596.4 912.8 657.333 912.267 657.333C911.733 657.333 905.2 651.333 897.733 644C885.6 631.867 876.933 620 878.8 618C879.2 617.6 882.533 618 886.133 618.8C892.667 620.267 900 618.933 900 616.267C900 615.6 898 612.8 895.6 609.867C880.4 592 866.667 561.733 860 531.867C858.533 525.6 857.067 519.467 856.533 518.267C854.933 513.867 852.133 516 850.133 522.933C849.067 526.8 846.267 536.8 844 545.067C837.067 570.133 828 589.2 814.667 607.467C808.267 616 808 616.667 810.267 618.4C812.533 620.133 818.933 620 826.4 617.867C834.267 615.6 825.067 629.6 806.667 647.467C799.333 654.667 793.333 661.333 793.333 662.267C793.333 665.467 803.333 667.2 812.267 665.6C816.8 664.8 820.8 664.4 821.2 664.667C822.4 666 811.467 680.267 804.8 686.133C801.067 689.467 794.533 694.4 790.133 697.067C785.867 699.733 780.8 703.333 778.8 704.933L775.333 708L778.667 710.533C782.533 713.6 790.133 715.733 801.333 716.933C806.267 717.333 809.333 718.4 809.333 719.333C809.333 724.667 793.333 741.067 778.8 750.533C772.933 754.4 768 758.4 768 759.333C768 762.133 778.8 765.6 788.667 766C793.867 766.133 798.133 766.4 798.4 766.533C798.533 766.533 797.867 768.267 796.8 770.267C794 775.867 770.4 798.133 756.4 808.533C737.467 822.667 739.6 826 767.333 826C781.467 826 786.533 825.333 795.2 822.8C809.6 818.533 810.533 820.267 800.133 831.2C782.8 849.2 756.933 864.4 731.467 871.467C724.267 873.6 718 876 717.6 877.067C715.6 882.267 730.8 889.6 747.067 891.333C752 891.867 756 892.8 756 893.467C756 894 753.067 897.067 749.333 900.267C745.733 903.467 742.667 906.667 742.667 907.6C742.667 913.067 761.867 913.6 779.067 908.533C785.6 906.667 791.2 905.333 791.467 905.733C792.8 907.067 788.267 914 782 920.4C774 928.4 757.733 939.2 740.533 947.733C724.533 955.733 722.533 957.6 726.933 960.533C731.6 963.6 740.8 965.2 753.067 965.333C759.067 965.333 764 965.733 764 966.4C764 966.933 760.667 970 756.667 973.067C752.533 976.267 748.267 980.4 747.067 982.267C744.933 985.467 744.933 985.733 747.467 987.6C750.533 989.867 757.333 989.333 788.133 984.533C813.467 980.667 839.2 980.267 853.733 983.467C872.267 987.733 899.067 1001.87 909.733 1013.07C913.067 1016.53 913.467 1017.73 913.067 1024.8L912.667 1032.67L904.267 1024.93C894.4 1015.87 884.4 1009.2 871.467 1003.2C850.267 993.467 828.267 992.4 780.667 998.8C747.733 1003.07 722.133 1004.13 712 1001.47C708.667 1000.53 699.333 997.2 691.2 994C682.933 990.667 671.6 987.067 665.867 985.867C652.667 983.2 646.667 980.133 641.733 973.733C636.533 967.2 633.733 961.6 629.867 950.133C625.733 938 617.333 900.133 617.333 893.733C617.333 885.6 620 878.4 624.533 874C628.133 870.267 629.867 869.6 638.533 868.8C659.6 866.933 672.667 855.867 681.867 832.267C686.133 821.333 687.333 813.733 685.2 811.2C683.067 808.667 670 809.6 655.067 813.467C642.667 816.533 637.2 819.467 626.8 828.533C622 832.667 617.467 836 616.667 836C610.933 836 614.8 829.333 626.667 818.267C636.533 809.067 638.267 808.133 686.667 785.067C698.133 779.6 710.933 772.8 715.2 770.133C725.6 763.467 736.667 752.933 742.133 744.533C751.067 730.667 754.933 711.333 748.667 711.333C746.667 711.333 744.533 714.267 740 722.533C734 733.733 723.733 746.8 722 745.067C721.6 744.667 722.533 741.6 724.133 738.533C726.933 733.067 737.2 705.867 747.733 676.667C752.133 664.267 752.533 662.133 752.533 647.333C752.667 634.267 752.133 629.6 749.6 621.733C746.133 610.667 741.2 603.733 738.533 606.267C737.2 607.6 737.2 610.667 738.4 620.533C740.933 641.2 739.867 658.133 735.333 666.667L733.6 670L732.8 666.667C732.4 664.8 731.467 659.733 730.533 655.333C726.933 636.533 717.867 617.2 703.733 598.533C696.4 588.8 684.267 577.333 681.2 577.333C677.867 577.333 680.933 584.8 690.667 600C706.267 624.667 714.267 644.133 713.067 654.133C712.667 657.333 712.267 657.2 700.8 648C687.733 637.467 681.333 633.867 678 635.067C674.8 636.4 677.2 640 691.6 655.2C707.867 672.533 711.067 679.067 711.733 696C712.533 716.4 706.133 734.933 691.867 752.8C685.733 760.533 676.4 768.933 675.333 767.733C675.067 767.467 676.267 763.2 678.133 758.133C684.133 741.733 683.733 721.867 677.2 708.933C674.533 703.867 670.667 702.267 670.533 706.267C670.533 707.6 670.533 714.4 670.667 721.333C670.933 742.4 666.267 755.733 654.133 768.933C647.733 776 635.2 785.733 627.333 789.733L623.333 791.733V772.8C623.333 757.067 622.8 752.4 620.4 744.533C617.333 734.8 612.133 725.733 610 726.4C608.533 726.8 608.533 737.067 609.867 757.333C611.6 780.8 605.333 800.933 592.133 814.4C587.067 819.733 584.533 821.333 578.667 822.533C558.667 826.8 545.333 815.2 537.867 786.667C534.4 773.867 534.667 754.267 538.4 738.8C540.133 732 541.2 725.467 540.8 724.4C539.333 720.667 534.533 725.467 529.867 735.2C523.733 748.133 521.067 761.733 521.6 777.067C521.867 785.333 521.467 789.333 520.533 789.333C517.333 789.333 500.4 773.467 496.267 766.667C487.867 752.667 486.133 746.267 485.867 728.667C485.467 708.267 485.733 709.333 483.2 709.333C482.133 709.333 480 712 478.267 715.6C474.933 723.067 473.467 747.2 475.867 757.333C476.533 760.533 476.933 763.467 476.667 763.733C475.733 764.8 465.2 752.667 460.8 745.333C451.333 730 446.4 707.733 449.2 692.267C451.6 678.8 456.533 671.333 472 658C483.867 647.733 488.533 641.467 486.267 639.2C484.667 637.6 477.333 641.067 463.867 650.133L449.333 659.733V655.733C449.333 643.067 458.533 622.133 475.067 597.067C480.667 588.4 485.333 580.533 485.333 579.333C485.333 572.8 471.467 583.6 459.467 599.6C448.8 613.733 440.267 630 435.333 645.333C433.467 651.6 431.467 657.6 431.2 658.667C429.333 664.4 424 645.067 424 632.267C424 627.6 425.333 617.733 426.933 610.267C430.4 593.333 430.533 591.467 427.733 590.933C424.8 590.4 419.333 599.733 414.933 613.067C412 621.733 411.467 625.733 411.467 639.333C411.467 652.933 412 656.933 415.067 666.667C417.067 672.933 421.333 688.4 424.667 701.067C428 713.733 432.267 728.133 434 733.067C435.733 737.867 436.933 742.267 436.533 742.667C435.067 744 423.867 730.267 420.133 722.8C418 718.667 415.067 711.467 413.333 706.667C409.867 696.533 406 691.467 404 694.667C400.267 700.4 403.867 719.067 411.6 734.667C421.467 754.4 437.467 767.2 492 798.533C509.6 808.667 521.067 818.4 525.467 827.067C528 831.867 527.867 834.667 525.333 834.667C524.667 834.667 520 830.933 515.067 826.4C510 822 502.4 816.533 498 814.533C487.2 809.467 466.533 803.733 461.067 804.267C456.933 804.667 456.667 804.933 456.267 810.667C455.467 822.133 462.533 840.267 472.133 851.067C478.667 858.667 490.8 864.8 502.667 866.667C518.533 869.067 521.333 873.333 523.067 898C524.933 924.8 524.8 933.467 522.133 959.333C517.867 999.6 520.4 1034.93 529.067 1056.67C530.533 1060.27 534.8 1069.87 538.667 1077.73C545.867 1092.8 546.4 1094.8 549.333 1124.53C550.133 1132.53 552.267 1143.6 554.133 1149.33C557.2 1159.33 566.4 1175.47 576.267 1188.27C582.133 1195.87 583.333 1199.47 585.867 1216.67C586.933 1224 590.667 1242.27 594.133 1257.33C600 1283.47 600.4 1286 601.467 1314C604.133 1378.67 604.267 1389.87 602.667 1409.07C600.4 1438.8 598.133 1449.73 591.867 1462.4C586.933 1472.4 586.267 1473.33 582.667 1473.33C579.2 1473.33 578.667 1472.8 578.667 1469.6C578.667 1464.53 583.333 1445.87 586.533 1437.6C589.867 1429.33 589.867 1429.33 587.467 1429.33C585.6 1429.33 577.2 1437.87 573.067 1444L570.8 1447.33V1441.33C570.667 1427.73 576.933 1396.53 584.8 1371.47C586.533 1365.73 587.733 1360.67 587.333 1360.27C585.733 1358.67 578.4 1367.6 573.467 1377.2C569.067 1385.73 561.867 1405.87 559.733 1415.33C558.8 1419.47 557.867 1415.73 556 1400C552.933 1372.53 542.4 1340.53 530.133 1320.67C524 1310.93 520.533 1307.07 519.2 1308.4C518.8 1308.8 520.933 1316.8 523.867 1326.27C531.2 1349.47 535.467 1367.87 538.667 1389.73C542.533 1416.67 542.267 1419.2 536.667 1404.93C534.133 1398.53 529.467 1388.93 526.4 1383.6C518.267 1369.73 494.267 1345.73 498.4 1355.73C498.933 1356.93 502.667 1364.53 506.8 1372.67C514.667 1388.13 519.333 1399.87 524 1415.33C527.467 1427.07 530.667 1444.13 529.333 1443.33C528.667 1442.93 526.4 1439.2 524 1435.07C518.667 1425.73 508.4 1414.8 499.867 1409.2C489.2 1402.4 488.4 1404.53 496.933 1416.67C506.267 1430.13 514 1446.27 517.333 1459.47C518.8 1465.2 520 1470.53 520 1471.33C520 1473.2 516.267 1474 502.533 1475.33L493.867 1476.27L490.667 1466.4C488.933 1461.07 485.333 1449.73 482.533 1441.33C475.867 1420.93 472.267 1403.33 470.667 1383.33C469.733 1372.53 467.867 1362.13 465.333 1352.93C460.8 1337.47 459.333 1326.8 457.867 1303.2L456.933 1287.07L461.733 1276.53C464.4 1270.67 467.333 1262.53 468.133 1258.53C470 1250.13 468.933 1222 466 1196.93C460.667 1153.2 460.667 1153.73 463.067 1146.13C464.4 1142.13 465.867 1133.33 466.533 1126.27C468.133 1110.4 470.267 1106 478.4 1102.53C493.467 1096 500.267 1085.33 503.067 1064.13C505.733 1043.07 502.533 1040.4 484.4 1049.2C471.067 1055.73 463.6 1062.27 458.667 1072C453.2 1082.8 452.267 1083.33 444.133 1080C434.533 1076.27 422.933 1076.53 412.933 1080.53C404 1084.27 404.267 1084.4 396.533 1073.07C391.067 1065.2 382.4 1059.33 369.2 1054.53C350.8 1047.87 348 1049.33 350.4 1064.53C353.867 1086.67 362.667 1099.6 378 1105.2C382.4 1106.93 387.067 1109.07 388.267 1110.27C390.4 1112.27 392.8 1121.33 395.867 1139.73C396.667 1145.07 398.667 1150.67 401.333 1154.53C404.667 1159.87 405.333 1162.27 405.333 1169.2C405.333 1176.27 404.8 1178 401.867 1180.93C398.533 1184.27 398 1184.27 386.267 1183.6C378.667 1183.2 369.733 1181.6 362.667 1179.47C333.867 1170.53 326.4 1169.07 312 1168.93C293.067 1168.8 281.2 1172.67 262.4 1185.2C248.267 1194.53 239.333 1202.93 235.2 1210.8C229.6 1221.87 228 1235.73 230.8 1251.6C232.533 1261.73 234.267 1262.27 241.467 1254.53C247.333 1248.13 246.667 1247.47 250.8 1265.2C256.667 1290.8 252.933 1307.33 237.333 1324.4C233.2 1328.93 229.067 1334 228.267 1335.47C227.2 1337.47 226.533 1352.8 226.133 1380.8C225.6 1420 223.6 1454.53 221.467 1460.4C220.667 1462.67 220.267 1462.53 216 1459.6L211.333 1456.53L211.467 1439.87C211.6 1424.8 214.267 1408.27 218 1398.4C218.533 1396.93 218.4 1396 217.467 1396C214.533 1396 208 1404.53 202.933 1414.53C200.267 1419.87 197.867 1423.6 197.6 1422.8C197.333 1421.87 197.733 1413.33 198.533 1403.6C200.133 1385.07 203.067 1369.73 208.8 1350.27C210.667 1343.73 211.867 1338.13 211.467 1337.73C210 1336.27 202.4 1346.4 197.467 1356.67C194.667 1362.53 190.8 1372.13 188.8 1378C186.933 1383.87 184.8 1390.4 184 1392.67C181.867 1399.07 183.467 1347.2 186 1330.67C187.2 1322.93 189.867 1308.93 192.133 1299.47C198.133 1272.8 196.933 1270.67 187.333 1291.2C176.667 1313.6 169.067 1341.47 167.067 1364.53C166.667 1370.13 165.867 1374.67 165.333 1374.67C164.4 1374.67 160 1354.4 156.8 1335.33C152.4 1308.53 147.067 1242 145.333 1190.67C144.533 1168.27 142.4 1124.53 140.533 1093.33C133.6 975.867 133.333 972.133 134.667 958.533C136.933 934.667 144.667 910.4 159.867 879.333C170.533 857.867 180.933 842.933 197.2 826.267C210.533 812.533 220 805.867 230.933 802.4C240.667 799.467 246.933 799.333 252.667 802.133C259.067 805.067 261.067 808.933 262.533 821.2C264.133 833.333 266.667 839.333 270.667 840.667C274.4 841.867 279.2 838.533 281.333 833.467C282.267 831.2 283.733 829.333 284.667 829.333C285.6 829.333 288.667 835.067 291.333 842C296.8 856 300.533 861.467 306.667 864C312.8 866.533 316.8 864.267 318.8 857.067C319.733 853.867 320.667 851.067 320.933 850.8C321.2 850.4 325.2 853.867 329.733 858.267C334.267 862.8 338.933 866.533 340 866.667C345.2 867.333 346.8 866.4 348.8 861.333L350.933 856L359.467 856.8C369.467 857.867 372 856.4 372 850.133C372 847.067 370.533 844.133 367.2 840.267L362.533 834.667L365.2 830.8C371.067 822.667 366.933 817.333 352.667 814.667C347.867 813.733 343.6 812.4 343.2 811.733C342.8 811.067 344 808.8 345.867 806.8C347.733 804.8 349.333 801.867 349.333 800.267C349.333 796.667 345.2 792.4 340.533 791.2C337.2 790.4 320.533 791.2 310.4 792.8C306 793.467 305.333 793.333 305.333 791.067C305.333 789.733 305.867 788 306.533 787.2C309.333 784.267 309.467 780.133 306.8 777.467C302.533 773.2 298.4 774 282.533 782.267L267.733 790L255.2 789.867C248.267 789.733 242.133 789.333 241.733 788.8C241.333 788.4 246.4 782.4 252.933 775.467C265.467 762.4 273.467 752.533 282 739.6C288.133 730.4 292.667 727.733 308.667 724C321.867 720.933 324.667 719.6 326.667 715.867C328.933 711.733 327.067 708.533 320.667 705.467C317.333 703.867 314.667 702.133 314.667 701.467C314.667 700.8 319.467 697.733 325.333 694.8C336.8 688.8 344.533 681.867 346 676.4C347.2 671.333 343.733 667.067 337.333 666C334.4 665.467 332 664.667 332 664.133C332 663.6 335.067 659.6 338.8 655.333C344.267 649.067 345.467 646.933 345.067 643.467C344.8 640.267 343.867 639.2 340.667 638.267C333.2 636 332.933 635.6 332.8 627.6C332.667 619.2 331.2 616.933 325.867 616.933C323.333 616.933 320.533 618.8 316.4 623.2L310.533 629.333L305.333 626.267L300.133 623.333L297.067 626.4C294.667 628.667 293.733 631.867 292.667 640.8L291.333 652.267L288 649.6C282.133 645.067 279.067 644.8 275.333 648.533C270.933 653.067 270.8 662.4 275.333 677.333C277.2 683.467 278.4 688.667 278 689.067C277.733 689.333 275.067 688.667 272 687.467C265.333 684.8 264.667 684.8 262.133 687.467C258.667 690.8 259.6 694.8 266.667 708.667C275.2 725.333 275.333 729.333 268 740.667C259.6 753.6 240.533 770.933 224.133 780.667C222.667 781.467 222.533 780.533 223.2 775.2C224.8 764.4 229.867 755.467 239.6 746.933C248.8 738.933 252 734.133 252 728.933C252 725.067 249.867 724 242.533 724C239.467 724 237.333 723.333 237.333 722.4C237.333 721.6 239.6 716.933 242.533 712.133C249.067 700.933 251.2 694.4 250.133 688.533C248.933 682.4 245.467 680.667 239.2 683.333C236.4 684.4 234 685.067 233.6 684.667C233.2 684.267 233.6 680 234.533 675.2C235.733 668.267 235.733 665.867 234.267 662.933C232.533 659.2 230.4 658.8 223.733 660.667C220.533 661.467 220 661.067 218.133 656.933C214.4 647.867 204.933 645.467 203.2 653.067C200.133 666.933 200.267 666.667 194.933 666.667C185.6 666.667 184.4 671.6 190.667 684C192.933 688.4 194.667 692.267 194.667 692.667C194.667 693.067 192 693.333 188.8 693.333C173.867 693.333 175.2 705.6 191.6 720.8C200.4 728.933 201.467 732 195.6 732C191.2 732 186.667 735.733 186.667 739.2C186.667 742.8 189.733 745.733 202.133 753.6C213.6 760.933 215.733 764.933 213.467 774.133C210.933 784.133 205.867 792.8 199.067 798.533C195.467 801.467 187.2 808.267 180.667 813.733C168.133 824.133 154.267 838.667 140.533 856L132.667 866L131.6 856C129.333 834.133 133.067 763.333 138.133 734C148.8 670.4 182.4 609.867 241.467 547.467C257.2 530.8 274.667 516.533 299.067 500.4C342 472.133 360.133 463.067 397.333 451.867C409.467 448.133 429.867 441.733 442.667 437.6C468.533 429.333 476.533 428.4 487.067 432.533C497.733 436.533 499.333 442 495.2 461.733C493.467 470.667 493.467 472.267 495.2 476.533C497.733 482.667 501.733 482.933 507.733 477.333C510.133 475.067 512.667 473.333 513.333 473.333C514.533 473.333 515.333 478.133 516.533 493.2C518.267 512.267 531.2 521.2 538 508C539.2 505.733 540.667 504 541.333 504C542.133 504 544.667 507.867 546.933 512.667C553.2 525.867 558.8 528.667 564.267 521.333C567.733 516.667 569.2 516.4 574.933 520C580.267 523.2 585.733 523.467 588.533 520.533C591.333 517.733 591.2 513.867 588 506.8L585.2 500.933L590 497.067C592.533 494.933 594.667 492.267 594.667 491.333C594.667 488.133 588.933 482.8 581.333 478.933C573.067 474.667 571.333 471.467 576.533 470.133C581.333 468.933 584.4 463.867 582.8 459.733C580.533 453.6 571.867 450 555.333 448.133C542.267 446.667 541.067 445.467 546.533 439.333C551.467 433.733 551.6 432.933 548 429.333C544.8 426.133 538.667 426 527.333 428.667C514.933 431.733 508.667 431.2 498.4 426.533C493.467 424.133 489.333 421.867 489.333 421.333C489.333 420.8 495.867 417.333 503.733 413.6C527.6 402.267 536.133 401.867 582.667 410C593.333 411.867 610.4 414 620.667 414.8C640.667 416.4 650.267 418.933 658.933 424.933C668.533 431.467 668.933 433.467 665.867 461.6C665.2 467.6 665.467 470 667.2 472.667C670.133 477.067 673.6 476.933 679.333 471.867C682.133 469.333 684.667 468.133 685.333 468.8C685.867 469.467 687.067 475.867 687.867 483.067C689.333 497.867 692.267 505.067 697.867 507.733C700.933 509.333 702 509.2 704.667 507.467C706.533 506.267 708.933 503.467 710 501.333C711.2 499.067 712.667 497.6 713.467 498C714.133 498.533 716.8 502.933 719.333 508C726 521.333 729.6 522.8 736.667 515.067L741.067 510.267L746 513.067C752.533 516.933 758 516.933 760.667 512.8C762.533 510 762.533 509.067 760.667 503.867C759.467 500.667 758.133 497.067 757.867 495.867C757.333 494.4 758.533 492.667 761.2 490.8C768.8 485.333 766.267 480.267 752.267 472.667C748.133 470.4 744.667 468 744.4 467.333C744.133 466.533 745.733 465.2 748 464.4C750.133 463.6 752.667 461.333 753.6 459.467C754.933 456.4 754.667 455.333 752.533 452.267C748.4 446.8 741.467 444 727.733 442.533C720.933 441.733 714.8 440.667 714.133 440C713.467 439.333 714.8 437.067 717.2 434.667C727.333 424.533 717.2 418.4 698.667 423.333C688.533 426 679.6 425.867 673.6 422.8C668 419.733 660.4 413.867 661.333 413.067C663.333 411.733 701.2 400 703.733 400C707.067 400 712 404.267 712 407.2C712 410.8 718.667 417.2 723.2 418.133C726 418.533 730.533 418 735.2 416.533C744.4 413.6 746.667 414.533 748.8 422.267C752.4 434.8 758.4 441.067 768 442.267C772.133 442.8 774.667 442.133 780.533 438.8C784.667 436.533 789.2 434.667 790.667 434.667C792.267 434.667 795.333 436.667 797.733 439.2C811.067 453.467 821.333 452.4 830.533 436C836.133 426.267 834.667 426.8 852.667 428.8C860.133 429.6 861.067 429.333 864.933 426.133C867.2 424.133 870.133 419.733 871.467 416.267C872.8 412.533 876.667 407.067 881.067 402.533C887.333 395.867 889.333 394.8 895.867 393.467C900 392.667 905.2 390.8 907.333 389.467C909.6 388 911.733 386.8 912.4 386.8C912.933 386.667 913.333 447.6 913.333 522ZM38.5333 464.533C46.2667 483.467 51.3333 500.267 53.4667 513.867C56.2667 531.2 52.5333 563.067 46.5333 574.933C42.2667 583.333 39.3333 583.2 32.1333 574.133L27.8667 568.933L28 506.133C28.1333 454 28.5333 443.733 29.8667 445.733C30.9333 446.933 34.6667 455.467 38.5333 464.533ZM913.333 678.667V693.467L910.4 691.867C906 689.467 891.2 674.133 888.667 669.2L886.533 665.067L896.267 666C902 666.533 907.333 666.267 909.333 665.467C911.2 664.8 912.8 664.133 913.067 664.133C913.2 664 913.333 670.667 913.333 678.667ZM860.933 1228.67C871.067 1242.93 880.8 1255.2 894.8 1270.8C899.6 1276.27 905.6 1283.6 908.133 1287.33L912.667 1294L913.067 1378.8L913.333 1463.6L909.2 1464.53C906.933 1464.93 901.2 1465.33 896.533 1465.33H888L888.8 1461.6C891.067 1450.8 895.067 1439.87 899.2 1433.07C901.733 1428.93 903.467 1425.2 903.067 1424.8C901.733 1423.47 892.8 1429.07 887.733 1434.27C885.067 1437.07 881.333 1442 879.467 1445.33L876 1451.33V1445.07C876 1436.67 880.533 1410.67 884 1399.6C887.2 1389.33 886.533 1386.8 882.133 1392.4C872 1404.93 863.6 1425.73 858.933 1449.73C857.467 1456.93 856 1463.2 855.6 1463.6C854.667 1464.53 824.4 1462.13 823.333 1461.07C821.867 1459.6 825.733 1453.47 828.667 1452.8C832.533 1451.87 833.733 1448.67 839.2 1424.67C844.4 1401.87 854.267 1368.67 863.333 1343.33C866.8 1333.73 871.333 1320.93 873.6 1314.8C878.933 1300 878.4 1296.27 868.8 1282C859.867 1268.67 852.8 1254.27 850 1243.33C848 1235.33 847.2 1215.87 848.933 1214.13C850 1213.07 849.733 1212.67 860.933 1228.67ZM781.733 1240.53C792.267 1260.8 799.333 1271.6 811.867 1287.33C834.133 1315.2 836.133 1330.53 823.333 1374.67C811.867 1414 803.867 1434 793.2 1449.47L787.333 1458L786.933 1450C786.4 1439.87 788.4 1428.13 793.333 1412.8C795.467 1406.13 796.933 1400.4 796.533 1400C794.933 1398.53 783.067 1413.2 779.2 1421.47C776.933 1426.13 774.4 1431.47 773.467 1433.33C772.267 1436 772.133 1433.73 772.667 1421.33C773.467 1402.13 776.133 1385.87 781.067 1368.67C783.2 1361.33 784.8 1355.07 784.533 1354.8C783.2 1353.2 776.8 1361.6 771.467 1372C765.067 1384.27 759.867 1400.93 757.333 1417.07L755.733 1426.93L750.933 1417.33C744.667 1404.67 729.867 1388.4 727.067 1391.07C726.8 1391.47 728.933 1396.8 731.867 1402.93C737.333 1414.4 744 1435.07 744 1441.07C744 1444.27 743.733 1444.13 740.133 1439.2C735.467 1432.67 728.667 1426.8 723.067 1424.4C714 1420.67 714 1422 722.533 1433.73C728.933 1442.53 732.8 1451.33 733.6 1459.2C734 1463.07 733.867 1463.07 721.867 1466C715.067 1467.73 708.267 1469.73 706.667 1470.67C702.533 1472.93 701.867 1471.33 704.667 1466.13C707.067 1461.6 707.067 1461.07 704.8 1448.4C703.467 1441.2 701.6 1430.8 700.667 1425.33C699.6 1419.73 698.133 1405.6 697.467 1393.73C696.267 1375.87 696.267 1369.73 698 1357.2C699.2 1348.8 700.667 1332.67 701.333 1321.33C702.133 1308.67 704.4 1291.07 707.2 1276C709.6 1262.4 712.133 1247.73 712.533 1243.33C713.067 1238.93 713.733 1233.87 714.133 1232L714.8 1228.67L734.4 1228.4C745.467 1228.27 757.733 1227.33 762.667 1226.27C767.467 1225.2 771.733 1224.27 772.267 1224.13C772.667 1224.13 777.067 1231.47 781.733 1240.53ZM659.6 1228.53C660.533 1229.33 662.4 1236.4 663.6 1244C665.467 1255.33 665.867 1265.6 665.6 1298C665.333 1336.13 665.467 1338.67 668.533 1351.33C675.333 1379.47 677.733 1412.4 675.733 1446.67C674.133 1474.27 673.067 1477.47 666 1479.07C660.667 1480.27 624.4 1479.2 620.667 1477.87C617.067 1476.4 618.4 1470.8 623.467 1465.73L628.267 1460.93L627.333 1445.47C626.133 1424 628.667 1370.8 631.867 1351.33C633.333 1342.53 634.8 1328.4 635.333 1320C635.733 1311.6 636.667 1300.13 637.333 1294.67C638 1289.2 639.6 1272.93 640.667 1258.67C642.933 1231.33 643.467 1228 645.867 1226.27C647.867 1224.93 657.6 1226.53 659.6 1228.53ZM360.667 1306.67C366.4 1308.13 371.733 1310 372.667 1310.67C373.6 1311.47 374.8 1315.2 375.2 1319.07C375.733 1322.8 378 1334.13 380.133 1344C382.4 1353.87 384.8 1369.2 385.467 1378C386.133 1386.8 387.733 1398.8 388.933 1404.67C390.933 1415.07 390.8 1440 388.533 1468.93C387.867 1476.27 388.267 1480 389.867 1484.13C391.067 1487.07 391.733 1490.13 391.2 1490.93C390.267 1492.27 358.667 1491.07 352.133 1489.47C345.6 1487.73 336.933 1470.53 326.533 1438.67C314.4 1401.6 311.733 1390 311.6 1376C311.467 1362.67 312.8 1359.33 326.133 1341.6C330.8 1335.2 337.6 1324.13 341.067 1317.07C344.533 1310 348 1304.13 348.8 1304C349.6 1304 354.933 1305.2 360.667 1306.67ZM293.333 1322.53C291.867 1326.4 287.6 1334.27 284 1339.87C274.667 1354.4 274.8 1355.07 288.8 1394.8C295.067 1412.67 302.8 1437.2 305.867 1449.33C310.8 1468.67 312 1471.87 315.733 1475.6C319.467 1479.33 321.2 1482.67 319.333 1482.67C318.933 1482.67 310.667 1480.53 300.933 1478C290.133 1475.07 277.2 1472.8 267.333 1471.87C258.533 1471.07 249.867 1470.13 248.133 1469.87L245.067 1469.2L245.6 1432.27C246.267 1398.13 246.533 1394.4 249.6 1382.67C255.867 1359.33 259.6 1353.2 284.667 1324.27C290.533 1317.6 295.467 1312.93 295.733 1313.87C296 1314.8 294.933 1318.8 293.333 1322.53ZM429.733 1335.6C434.533 1348 439.733 1362.93 441.333 1369.07C442.8 1375.2 445.467 1383.2 447.2 1387.07C454 1402.67 462 1435.33 464.667 1458.27C465.333 1464.53 466.533 1467.87 469.467 1471.47C471.6 1474.13 473.333 1477.07 473.333 1478C473.333 1480.27 429.067 1489.33 417.733 1489.33C413.867 1489.33 413.467 1488.93 412 1482.93C411.2 1479.47 410.133 1462.8 409.733 1445.87C409.2 1421.07 409.467 1413.07 411.067 1404.53C414.8 1386 414.933 1382.4 412.8 1369.07C410.4 1354.27 410 1328.4 412 1321.07C413.333 1316.4 416.133 1313.47 419.467 1313.33C420.267 1313.33 424.8 1323.33 429.733 1335.6Z" fill="black"/>
</svg>
