<svg width="1724" height="478" viewBox="0 0 1724 478" fill="none" xmlns="http://www.w3.org/2000/svg">
<path d="M204.8 6.01838C229.2 48.9517 272.533 79.885 326 92.5517C357.6 100.152 363.2 100.552 546.667 107.885C615.067 110.685 710.4 114.552 724 115.218L738 115.885L723.333 111.885C648.667 91.3517 599.6 82.9517 402.667 56.5517C314 44.8184 269.6 33.3517 224.133 10.8184C212.8 5.08505 202.933 0.285047 202.267 0.0183805C201.6 -0.248286 202.667 2.41838 204.8 6.01838Z" fill="white"/>
<path d="M352.667 126.018C368.8 141.085 388.133 151.352 410.4 156.818C418.4 158.818 436 159.085 587.333 159.485C679.733 159.752 786.267 160.018 824.267 160.285C862.133 160.418 892.8 160.152 892.533 159.752C892.267 159.218 889.6 158.552 886.533 158.018C883.467 157.485 862.933 152.952 840.8 147.885C818.8 142.818 795.6 138.018 789.333 137.218C774.8 135.485 712.267 133.085 537.333 127.885C512 127.085 470.933 125.885 446 125.218C398.133 123.752 369.867 122.018 356.667 119.885C344.267 117.885 344.133 118.152 352.667 126.018Z" fill="white"/>
<path d="M838.667 176.552C838.667 177.085 844.534 184.285 851.734 192.685L864.667 207.885H924C958.667 207.885 986.934 208.419 991.867 209.352C1008.93 212.019 1022.67 222.285 1027.2 235.485C1028.4 238.952 1029.33 246.019 1029.33 251.219C1029.33 268.019 1020.4 281.352 1004 289.085L996.667 292.552L920.267 292.952C874 293.219 844 293.752 844.267 294.552C844.534 295.219 855.467 308.552 868.8 324.152C882.134 339.752 910.267 373.219 931.467 398.552C952.667 423.885 975.734 451.352 982.667 459.619L995.334 474.552H1024.53H1053.6L1045.2 464.952C1040.53 459.752 1017.2 433.752 993.467 407.352C969.734 380.819 944 352.019 936.134 343.219L922.134 327.219L962 326.419C1005.87 325.485 1010.8 324.819 1025.87 316.819C1036.27 311.485 1050.27 297.485 1055.73 287.085C1062.13 274.819 1064.4 263.219 1063.6 246.552C1063.2 235.752 1062.27 230.419 1059.47 223.219C1052 203.485 1035.6 187.352 1015.6 180.019L1006 176.552L922.4 176.152C876.267 175.885 838.667 176.152 838.667 176.552Z" fill="white"/>
<path d="M560.4 178.552C514.133 178.952 475.866 179.619 475.466 180.019C474 181.485 491.466 193.352 504.666 199.885C527.6 211.219 524.8 210.952 641.333 209.085C715.066 207.885 744.666 207.885 751.866 208.952C776.533 212.552 792.4 228.819 792.533 250.552C792.666 257.752 791.866 260.819 788.266 268.152C783.333 278.285 777.333 284.152 766.666 289.085L759.333 292.552L676.4 292.952C630.666 293.085 593.333 293.619 593.333 294.019C593.333 294.285 612.666 317.219 636.4 344.952C674.8 389.752 717.733 440.152 738.666 465.085L746.133 473.885L775.2 474.285L804.266 474.552L800.666 470.285C795.333 463.885 730.266 390.685 699.6 356.685L673.066 327.219L719.6 326.419C770.933 325.619 772.266 325.352 789.866 316.152C810 305.619 823.6 286.285 827.733 262.019C829.733 250.685 829.733 248.819 827.6 238.419C821.466 207.219 799.466 184.952 768.933 179.219C757.6 177.085 738.666 176.952 560.4 178.552Z" fill="white"/>
<path d="M345.333 280.819C282.267 287.085 242.667 313.085 230.667 356.019C227.333 368.019 227.067 388.552 230.133 401.219C236.133 427.085 254.8 448.552 282.8 461.885C321.467 480.285 396.8 482.552 444 466.952C478.933 455.352 503.467 431.485 511.2 401.619C514 391.085 514 367.085 511.333 356.552C498.933 307.885 445.467 279.219 368.933 280.152C358.533 280.152 347.867 280.552 345.333 280.819ZM394.667 307.885C442.667 312.152 472.667 329.752 481.467 358.952C483.733 366.285 484.267 370.685 483.733 382.419C483.333 395.752 482.933 397.352 478.267 406.819C463.333 437.085 421.2 452.552 359.733 450.152C314.533 448.419 284.8 437.352 269.067 416.552C261.333 406.419 258.4 397.352 257.6 382.285C256.267 353.885 268.4 334.552 296 320.685C319.333 309.085 354.933 304.419 394.667 307.885Z" fill="white"/>
<path d="M0 379.218V474.685L14.4 474.285L28.6667 473.885L29.0667 432.152L29.3333 390.552H102H174.667V377.885V365.218H102H29.3333V338.018V310.952L41.0667 310.018C47.4667 309.618 82.4 309.218 118.667 309.352H184.667L185.067 296.685L185.467 283.885H92.6667H0V379.218Z" fill="white"/>
<path d="M1123.33 380.952V473.885L1137.6 474.285L1152 474.685L1152.27 401.885L1152.67 329.085L1175.33 353.485C1201.33 381.352 1216.13 397.218 1240.13 422.285L1257.07 440.018L1297.47 396.952C1319.6 373.218 1343.07 348.418 1349.6 341.618L1361.33 329.352V401.885V474.552H1375.2H1389.2L1389.6 422.818C1389.87 394.418 1389.87 352.418 1389.6 329.485L1389.2 287.752L1376.8 288.152L1364.53 288.552L1311.47 344.552C1282.27 375.352 1258 400.685 1257.47 400.952C1256.13 401.352 1212.13 355.352 1163.33 302.418L1150 287.885H1136.67H1123.33V380.952Z" fill="white"/>
<path d="M1569.87 299.485C1565.73 306.019 1539.6 346.285 1512 389.219C1484.4 432.152 1460.8 468.819 1459.47 470.819L1457.07 474.552H1473.6H1490.27L1503.47 452.819L1516.8 431.219L1590.8 430.952L1664.67 430.552L1678.53 452.552L1692.27 474.552H1708.13C1716.93 474.552 1724 474.285 1724 473.885C1724 473.085 1708.13 448.285 1630.13 326.819L1604.93 287.885H1591.2H1577.47L1569.87 299.485ZM1617.33 355.885C1630 376.019 1641.87 395.085 1643.6 398.019L1646.67 403.619L1622 404.552C1593.47 405.752 1536 405.085 1536 403.619C1536 402.552 1546.93 384.552 1570.67 346.419C1592.93 310.819 1590.67 313.885 1592.67 316.685C1593.6 318.152 1604.67 335.752 1617.33 355.885Z" fill="white"/>
</svg>
