<svg id="Vrstva_1" data-name="Vrstva 1" xmlns="http://www.w3.org/2000/svg" viewBox="0 0 240.94 226.77">
  <defs>
    <style>
      .cls-1 {
        fill: none;
        stroke: #ffffff;
        stroke-linecap: round;
        stroke-linejoin: round;
      }

      .cls-1, .cls-2 {
        stroke-width: .7px;
      }

      .cls-2 {
        fill: #ffffff;
        stroke: #ffffff;
        stroke-miterlimit: 10;
      }

      .cls-3 {
        isolation: isolate;
      }

      .cls-4 {
        fill: #24466f;
      }
    </style>
  </defs>
  <line class="cls-1" x1="154.77" y1="163.01" x2="166" y2="154.52"/>
  <line class="cls-1" x1="52.63" y1="140.9" x2="13.89" y2="132.39"/>
  <line class="cls-1" x1="53.49" y1="143.49" x2="20.55" y2="163.08"/>
  <line class="cls-1" x1="151.98" y1="165.69" x2="126.05" y2="187.3"/>
  <line class="cls-1" x1="24.42" y1="160.79" x2="129.49" y2="184.42"/>
  <line class="cls-1" x1="12.17" y1="14.89" x2="18.34" y2="133.35"/>
  <line class="cls-1" x1="7.95" y1="14.52" x2="47.64" y2="17.78"/>
  <path class="cls-1" d="M154.28,162.9a.24.24,0,0,1-.15-.11.7.7,0,0,1-.09-.24,1.41,1.41,0,0,1,0-.46c0-.3,0-.6,0-.9,0-.61,0-1.21,0-1.82"/>
  <line class="cls-1" x1="132.19" y1="37.02" x2="118.47" y2="40.59"/>
  <path class="cls-1" d="M119.43,155.28a.43.43,0,0,1-.27-.33,1.65,1.65,0,0,1,0-.44v-.88l0-1.77"/>
  <path class="cls-1" d="M99,34.23h0"/>
  <line class="cls-1" x1="98.98" y1="34.23" x2="99.19" y2="34.25"/>
  <path class="cls-1" d="M56.61,138.42a9.19,9.19,0,0,1-1.76-2,13.19,13.19,0,0,1-1.4-2.75,18.41,18.41,0,0,1-.9-3.35c-.11-.6-.19-1.21-.25-1.82,0-.31-.06-.62-.08-.93s0-.79,0-1.19q-.27-6.59-.55-13.17-.54-13.16-1.09-26.33T49.44,60.56q-.15-3.64-.31-7.31l-.07-1.84,0-.92,0-.74c0-.79,0-1.58,0-2.37a30.26,30.26,0,0,1,1.07-6.75,25.21,25.21,0,0,1,2.4-5.84"/>
  <line class="cls-1" x1="68.09" y1="31.64" x2="52.59" y2="34.71"/>
  <path class="cls-1" d="M68.09,31.64s0,0,0,0"/>
  <path class="cls-1" d="M52.48,34.79a.13.13,0,0,1,.11-.08"/>
  <line class="cls-1" x1="57.48" y1="141.72" x2="57.09" y2="141.64"/>
  <path class="cls-1" d="M57.09,141.64a.49.49,0,0,1-.3-.28,1,1,0,0,1-.08-.41c0-.28,0-.56,0-.84l-.06-1.69"/>
  <line class="cls-1" x1="68.12" y1="31.64" x2="68.26" y2="31.65"/>
  <line class="cls-1" x1="51.94" y1="19.8" x2="52.51" y2="34.33"/>
  <path class="cls-1" d="M155.2,25.93a1.09,1.09,0,0,1,.26.05"/>
  <line class="cls-1" x1="87.12" y1="148.21" x2="57.48" y2="141.72"/>
  <path class="cls-1" d="M168.79,31.6a1.15,1.15,0,0,0-.74-1.18"/>
  <line class="cls-1" x1="52.73" y1="18.77" x2="155.2" y2="25.93"/>
  <path class="cls-1" d="M52.73,18.77a.69.69,0,0,0-.59.35,1.26,1.26,0,0,0-.2.68"/>
  <path class="cls-1" d="M68.62,23.56a.32.32,0,0,0-.25.19.87.87,0,0,0-.06.32"/>
  <line class="cls-1" x1="168.64" y1="39.65" x2="168.79" y2="31.6"/>
  <path class="cls-1" d="M52.51,34.33a.28.28,0,0,0,0,.15c0,.05.07.09.13.08"/>
  <path class="cls-1" d="M168.51,40c.05,0,.08-.09.1-.14a.86.86,0,0,0,0-.17"/>
  <line class="cls-1" x1="68.54" y1="31.29" x2="68.31" y2="24.07"/>
  <line class="cls-1" x1="53.09" y1="34.59" x2="68.4" y2="31.56"/>
  <path class="cls-1" d="M68.4,31.56a.17.17,0,0,0,.11-.11.45.45,0,0,0,0-.16"/>
  <line class="cls-1" x1="53.06" y1="34.59" x2="52.65" y2="34.56"/>
  <line class="cls-1" x1="87.53" y1="148.3" x2="87.12" y2="148.21"/>
  <path class="cls-1" d="M53.06,34.59h0"/>
  <line class="cls-1" x1="98.95" y1="34.23" x2="84.25" y2="37.53"/>
  <line class="cls-1" x1="68.62" y1="23.56" x2="155.67" y2="30.03"/>
  <line class="cls-1" x1="155.46" y1="25.98" x2="168.05" y2="30.42"/>
  <line class="cls-1" x1="168.58" y1="40.08" x2="168.23" y2="40.05"/>
  <line class="cls-1" x1="132.21" y1="37.02" x2="132.5" y2="37.04"/>
  <line class="cls-1" x1="119.88" y1="155.38" x2="119.43" y2="155.28"/>
  <line class="cls-1" x1="119.42" y1="155.27" x2="87.54" y2="148.3"/>
  <path class="cls-1" d="M132.19,37h0"/>
  <line class="cls-1" x1="154.27" y1="162.9" x2="119.88" y2="155.38"/>
  <path class="cls-1" d="M168.66,40.13a16.75,16.75,0,0,1,1.13,2.65,26.48,26.48,0,0,1,.85,3.26,39.64,39.64,0,0,1,.65,7.61c0,.47,0,.93,0,1.4l0,1.8c0,1.19,0,2.39-.08,3.58-.05,2.38-.1,4.75-.14,7.13q-.3,13.91-.58,27.82t-.58,27.81q-.07,3.81-.16,7.62c0,1.26-.05,2.52-.08,3.78,0,.43,0,.85,0,1.27s0,.82-.07,1.23a48.11,48.11,0,0,1-3,13.54"/>
  <path class="cls-1" d="M168.58,40.08a.07.07,0,0,1,.08.05"/>
  <line class="cls-1" x1="154.77" y1="163.01" x2="154.28" y2="162.9"/>
  <path class="cls-1" d="M98.83,34.26a.38.38,0,0,0-.24-.13"/>
  <line class="cls-1" x1="132.66" y1="37" x2="132.1" y2="37.15"/>
  <line class="cls-1" x1="68.54" y1="31.61" x2="98.59" y2="34.13"/>
  <path class="cls-1" d="M99.36,34.21h.09"/>
  <line class="cls-1" x1="99.45" y1="34.2" x2="131.81" y2="36.92"/>
  <line class="cls-1" x1="132.75" y1="37" x2="155.56" y2="38.91"/>
  <path class="cls-1" d="M68.43,31.61h.11"/>
  <path class="cls-1" d="M132.75,37h-.09"/>
  <path class="cls-1" d="M132.05,37.06a.37.37,0,0,0-.24-.14"/>
  <path class="cls-1" d="M118.37,39.89l.36,0,.17,0,.08,0s.06,0,.06.06"/>
  <path class="cls-1" d="M99.8,35.17a16.27,16.27,0,0,1,1.64,3.22"/>
  <line class="cls-1" x1="115.84" y1="58.69" x2="116.46" y2="140.09"/>
  <line class="cls-1" x1="81.55" y1="53.58" x2="81.55" y2="53.57"/>
  <line class="cls-1" x1="150.53" y1="146.98" x2="151.44" y2="61.16"/>
  <line class="cls-1" x1="118.45" y1="151.16" x2="118.47" y2="151.15"/>
  <line class="cls-1" x1="129.33" y1="37.14" x2="99.13" y2="34.6"/>
  <line class="cls-1" x1="131.73" y1="36.93" x2="131.17" y2="37.07"/>
  <path class="cls-1" d="M86.06,37.27a7.39,7.39,0,0,1,1.88-.07"/>
  <path class="cls-1" d="M118.45,151.16a.26.26,0,0,1-.23.05"/>
  <path class="cls-1" d="M131.81,36.92a.11.11,0,0,0-.08,0"/>
  <line class="cls-1" x1="99.45" y1="34.2" x2="131.81" y2="36.92"/>
  <path class="cls-1" d="M129.33,37.68l.26,0"/>
  <line class="cls-1" x1="82.56" y1="133.02" x2="80.53" y2="53.34"/>
  <line class="cls-1" x1="53.69" y1="34.59" x2="54.37" y2="34.46"/>
  <path class="cls-1" d="M84.07,37.3a.68.68,0,0,0-.41.37"/>
  <path class="cls-1" d="M56.71,138a12.78,12.78,0,0,1-2.78-5,22.5,22.5,0,0,1-.94-5.7"/>
  <line class="cls-1" x1="80.21" y1="53.43" x2="82.26" y2="133.17"/>
  <line class="cls-1" x1="52.99" y1="127.24" x2="49.88" y2="51.42"/>
  <path class="cls-1" d="M53.26,35a25.79,25.79,0,0,0-2.75,7.35,30.74,30.74,0,0,0-.68,7.83"/>
  <path class="cls-1" d="M56.71,138a.33.33,0,0,0,.19.11"/>
  <path class="cls-1" d="M84.39,36.88l.3,0,.15,0,.07,0S85,37,85,37"/>
  <path class="cls-1" d="M85.83,144.27a.32.32,0,0,1-.18-.12"/>
  <line class="cls-1" x1="84.97" y1="37.04" x2="84.97" y2="37.37"/>
  <path class="cls-1" d="M85,37s-.09.06-.11.07l-.14,0"/>
  <line class="cls-1" x1="84.72" y1="37.15" x2="84.07" y2="37.3"/>
  <path class="cls-1" d="M131.17,37.07a4.8,4.8,0,0,1-.92.1,7.07,7.07,0,0,1-.92,0"/>
  <path class="cls-1" d="M99.36,34.21h.09"/>
  <path class="cls-1" d="M86.91,144.42a.36.36,0,0,0,.18.12"/>
  <line class="cls-1" x1="83.54" y1="133.43" x2="81.58" y2="54.91"/>
  <line class="cls-1" x1="114.39" y1="57.14" x2="115.07" y2="139.81"/>
  <path class="cls-1" d="M85,37.79a.68.68,0,0,1,.41-.37"/>
  <line class="cls-1" x1="132.75" y1="37" x2="155.56" y2="38.91"/>
  <path class="cls-1" d="M132.75,37h-.09"/>
  <path class="cls-1" d="M68.43,31.61h.11"/>
  <path class="cls-1" d="M98.88,34.32h0"/>
  <path class="cls-1" d="M97.89,34.27a7.23,7.23,0,0,1-1.8.07"/>
  <path class="cls-1" d="M96.1,34.85h.05"/>
  <line class="cls-1" x1="68.54" y1="31.61" x2="98.59" y2="34.13"/>
  <path class="cls-1" d="M98.59,34.13h-.1"/>
  <path class="cls-1" d="M67.57,32.34s0,0,0,0l.07,0,.13,0,.26,0"/>
  <path class="cls-1" d="M68.92,32.54a16.41,16.41,0,0,1,1.78,3.13"/>
  <line class="cls-1" x1="98.49" y1="34.13" x2="97.89" y2="34.27"/>
  <line class="cls-1" x1="132.61" y1="37.42" x2="155.56" y2="39.36"/>
  <line class="cls-1" x1="155.38" y1="44.18" x2="155.25" y2="44.22"/>
  <line class="cls-1" x1="152.54" y1="156.87" x2="152.5" y2="156.87"/>
  <line class="cls-1" x1="153.45" y1="158.61" x2="153.39" y2="158.65"/>
  <line class="cls-1" x1="85.4" y1="37.42" x2="86.06" y2="37.27"/>
  <line class="cls-1" x1="115.35" y1="139.64" x2="114.68" y2="57.05"/>
  <path class="cls-1" d="M118.24,40.9c-.09,0-.16.12-.2.2"/>
  <line class="cls-1" x1="118.45" y1="151.13" x2="118.45" y2="151.16"/>
  <line class="cls-1" x1="118.24" y1="40.9" x2="118.27" y2="40.89"/>
  <path class="cls-1" d="M132.05,37.06a.37.37,0,0,0-.24-.14"/>
  <path class="cls-1" d="M132.11,37.88l-.18-.3"/>
  <path class="cls-1" d="M84,37.85a.4.4,0,0,0-.15.17"/>
  <line class="cls-1" x1="49.83" y1="50.13" x2="49.83" y2="50.13"/>
  <path class="cls-1" d="M134.52,41.32A16.92,16.92,0,0,0,133.06,38"/>
  <path class="cls-1" d="M98.83,34.26a.38.38,0,0,0-.24-.13"/>
  <line class="cls-1" x1="166.77" y1="40.5" x2="166.61" y2="40.49"/>
  <path class="cls-1" d="M153.22,158.11a14.4,14.4,0,0,1-2-5.47,32.61,32.61,0,0,1-.43-5.84"/>
  <line class="cls-1" x1="151.71" y1="61.06" x2="150.79" y2="146.8"/>
  <path class="cls-1" d="M151.71,61.06a47.36,47.36,0,0,1,.87-8.48,38,38,0,0,1,2.49-8.15"/>
  <line class="cls-1" x1="155.18" y1="43.15" x2="122.21" y2="40.23"/>
  <path class="cls-1" d="M153,158.6A14.67,14.67,0,0,1,151,153a32.58,32.58,0,0,1-.45-6"/>
  <path class="cls-1" d="M116.46,140.09a27.79,27.79,0,0,0,.62,5.89,13.79,13.79,0,0,0,2.34,5.42"/>
  <path class="cls-1" d="M115.83,57.3a41,41,0,0,1,.82-8.42,33.53,33.53,0,0,1,2.64-8"/>
  <path class="cls-1" d="M154.9,44.05a39.13,39.13,0,0,0-2.57,8.39,50.07,50.07,0,0,0-.89,8.72"/>
  <line class="cls-1" x1="153.18" y1="158.71" x2="119.59" y2="151.51"/>
  <path class="cls-1" d="M115.35,139.64a27.72,27.72,0,0,0,.62,5.74,13.42,13.42,0,0,0,2.28,5.26"/>
  <path class="cls-1" d="M118,41.1a32.89,32.89,0,0,0-2.57,7.78,40.05,40.05,0,0,0-.79,8.17"/>
  <line class="cls-1" x1="87.94" y1="37.2" x2="118.37" y2="39.89"/>
  <path class="cls-1" d="M86.91,144.42a13,13,0,0,1-2.58-5.2,24.62,24.62,0,0,1-.79-5.79"/>
  <path class="cls-1" d="M115.07,139.81a27.81,27.81,0,0,0,.64,5.89,13.45,13.45,0,0,0,2.35,5.4"/>
  <path class="cls-1" d="M114.39,57.14a40.82,40.82,0,0,1,.81-8.4,33.68,33.68,0,0,1,2.64-8"/>
  <path class="cls-1" d="M85,37.79a29.55,29.55,0,0,0-2.7,7.67,35.1,35.1,0,0,0-.74,8.11"/>
  <line class="cls-1" x1="118.22" y1="151.21" x2="87.09" y2="144.54"/>
  <line class="cls-1" x1="99.14" y1="35.11" x2="129.33" y2="37.68"/>
  <path class="cls-1" d="M99.13,34.6a3.21,3.21,0,0,1-.43-.07l-.1,0s-.08,0,0-.08a.44.44,0,0,1,.2-.08"/>
  <line class="cls-1" x1="98.55" y1="34.96" x2="98.54" y2="34.45"/>
  <path class="cls-1" d="M98.55,35s0,0,.06,0,0,0,.07,0a.4.4,0,0,0,.15,0l.31,0"/>
  <path class="cls-1" d="M82.56,133a23.86,23.86,0,0,0,.77,5.63,12.76,12.76,0,0,0,2.52,5.06"/>
  <path class="cls-1" d="M83.88,38a28.26,28.26,0,0,0-2.63,7.45,34.13,34.13,0,0,0-.72,7.87"/>
  <line class="cls-1" x1="56.21" y1="34.39" x2="84.39" y2="36.88"/>
  <path class="cls-1" d="M53.26,35a.68.68,0,0,1,.43-.36"/>
  <path class="cls-1" d="M82.26,133.17a24.62,24.62,0,0,0,.79,5.79,13,13,0,0,0,2.6,5.19"/>
  <path class="cls-1" d="M80.21,53.43a35.52,35.52,0,0,1,.74-8.1,29.51,29.51,0,0,1,2.71-7.66"/>
  <path class="cls-1" d="M86.07,144.22a.4.4,0,0,1-.24.05"/>
  <path class="cls-1" d="M54.37,34.46a7.57,7.57,0,0,1,1.84-.07"/>
  <line class="cls-1" x1="85.83" y1="144.27" x2="56.9" y2="138.06"/>
  <line class="cls-1" x1="155.55" y1="39.91" x2="132.61" y2="37.96"/>
  <line class="cls-1" x1="132.66" y1="37" x2="132.1" y2="37.15"/>
  <path class="cls-1" d="M132.1,37.15l-.1,0s-.07,0-.07.07"/>
  <path class="cls-1" d="M132.61,38l-.36-.05-.18,0a.11.11,0,0,1-.08,0s-.06,0-.06-.06"/>
  <line class="cls-1" x1="131.93" y1="37.78" x2="131.93" y2="37.25"/>
  <path class="cls-1" d="M131.93,37.25s0,0,.06.06l.08,0,.18,0,.36,0"/>
  <line class="cls-1" x1="68.07" y1="32.47" x2="96.1" y2="34.85"/>
  <line class="cls-1" x1="96.09" y1="34.34" x2="68.06" y2="31.97"/>
  <line class="cls-1" x1="67.8" y1="31.74" x2="68.43" y2="31.61"/>
  <path class="cls-1" d="M68.06,32a2.9,2.9,0,0,1-.41-.06.25.25,0,0,1-.09,0s0-.06,0-.08a.73.73,0,0,1,.2-.05"/>
  <line class="cls-1" x1="67.57" y1="32.34" x2="67.55" y2="31.84"/>
  <path class="cls-1" d="M118.22,151.21a.23.23,0,0,1-.16-.11"/>
  <path class="cls-1" d="M155.51,43.19l-.33,0"/>
  <line class="cls-1" x1="155.97" y1="43.77" x2="155.97" y2="43.78"/>
  <path class="cls-1" d="M118.23,40.34a.76.76,0,0,0-.39.4"/>
  <path class="cls-1" d="M154.9,44.05c.06-.14.18-.36.36-.41"/>
  <path class="cls-1" d="M119.59,151.51a.34.34,0,0,1-.17-.11"/>
  <path class="cls-1" d="M153.18,158.71a.23.23,0,0,0,.21-.06"/>
  <path class="cls-1" d="M122.21,40.23a7.89,7.89,0,0,0-1,0,5,5,0,0,0-.95.1"/>
  <path class="cls-1" d="M153,158.6a.27.27,0,0,0,.15.11"/>
  <line class="cls-1" x1="115.83" y1="57.3" x2="115.83" y2="57.3"/>
  <path class="cls-1" d="M119.68,40.47a.71.71,0,0,0-.39.39"/>
  <line class="cls-1" x1="118.84" y1="40.18" x2="118.23" y2="40.34"/>
  <line class="cls-1" x1="155.26" y1="43.64" x2="155.51" y2="43.56"/>
  <path class="cls-1" d="M119,40.07s-.06.07-.08.08l-.12,0"/>
  <line class="cls-1" x1="119.04" y1="40.07" x2="119.05" y2="40.44"/>
  <line class="cls-1" x1="120.29" y1="40.31" x2="119.68" y2="40.47"/>
  <path class="cls-1" d="M155.07,44.43a.37.37,0,0,1,.18-.21"/>
  <line class="cls-1" x1="98.76" y1="34.34" x2="99.36" y2="34.21"/>
  <path class="cls-1" d="M99,34.23h0"/>
  <path class="cls-1" d="M119.43,155.28a.43.43,0,0,1-.27-.33,1.65,1.65,0,0,1,0-.44v-.88l0-1.77"/>
  <line class="cls-1" x1="132.19" y1="37.02" x2="118.47" y2="40.59"/>
  <line class="cls-1" x1="131.93" y1="37.25" x2="118.95" y2="40.63"/>
  <path class="cls-1" d="M119.09,151.86a9.28,9.28,0,0,1-1.52-2.11,15.12,15.12,0,0,1-1.16-3,22.92,22.92,0,0,1-.69-3.66c-.07-.66-.13-1.32-.15-2,0-.84,0-1.69,0-2.53q-.06-7-.11-14.06-.12-14.06-.23-28.11T115,68.31l-.06-7.84c0-.65,0-1.31,0-2s0-1.16,0-1.73c0-.85,0-1.69.09-2.54A40.47,40.47,0,0,1,116.09,47a32,32,0,0,1,2.28-6.29"/>
  <path class="cls-1" d="M119.55,152a8.47,8.47,0,0,1-1.52-2.1,14.61,14.61,0,0,1-1.16-3,22.71,22.71,0,0,1-.69-3.66c-.07-.66-.12-1.32-.15-2,0-.84,0-1.69,0-2.53q0-7-.11-14.07l-.21-28.12q-.12-14.07-.22-28.13l-.06-7.84c0-.66,0-1.32,0-2s0-1.15,0-1.73c0-.85,0-1.69.09-2.54A40.49,40.49,0,0,1,116.58,47a32,32,0,0,1,2.27-6.3"/>
  <path class="cls-1" d="M154.28,162.9a.24.24,0,0,1-.15-.11.7.7,0,0,1-.09-.24,1.41,1.41,0,0,1,0-.46c0-.3,0-.6,0-.9,0-.61,0-1.21,0-1.82"/>
  <line class="cls-1" x1="155.98" y1="43.77" x2="155.55" y2="43.91"/>
  <line class="cls-1" x1="156.07" y1="43.95" x2="168.58" y2="40.08"/>
  <path class="cls-1" d="M154,159.37a8.55,8.55,0,0,1-1.36-2.16,17,17,0,0,1-1-3.1,27.6,27.6,0,0,1-.55-3.83c-.06-.7-.09-1.39-.1-2.09,0-.36,0-.71,0-1.07,0-.56,0-1.13,0-1.69l.15-14.56q.17-14.55.32-29.1t.32-29.11l.09-8.12c0-.68,0-1.36,0-2s0-1.18,0-1.76c0-.88.07-1.76.13-2.64a49.28,49.28,0,0,1,1.18-7.54A37,37,0,0,1,155.46,44"/>
  <path class="cls-1" d="M154.53,159.48a8.3,8.3,0,0,1-1.35-2.17,15.57,15.57,0,0,1-1-3.1,26.2,26.2,0,0,1-.56-3.83c-.05-.7-.08-1.39-.09-2.09,0-.36,0-.72,0-1.07,0-.57,0-1.13,0-1.7q.07-7.28.16-14.56.16-14.57.32-29.11l.33-29.12.09-8.13,0-2c0-.58,0-1.17,0-1.76,0-.88.06-1.76.13-2.64a48.06,48.06,0,0,1,1.17-7.54A38.24,38.24,0,0,1,156,44.05"/>
  <path class="cls-1" d="M87.19,147.62a1.09,1.09,0,0,0,.07.4.43.43,0,0,0,.28.28"/>
  <line class="cls-1" x1="87.42" y1="144.82" x2="118.82" y2="151.57"/>
  <line class="cls-1" x1="119.09" y1="151.85" x2="87.13" y2="144.98"/>
  <line class="cls-1" x1="153.8" y1="159.08" x2="119.82" y2="151.78"/>
  <line class="cls-1" x1="87.12" y1="148.21" x2="57.48" y2="141.72"/>
  <line class="cls-1" x1="86.41" y1="144.61" x2="57.3" y2="138.35"/>
  <line class="cls-1" x1="156.13" y1="43.78" x2="155.61" y2="43.74"/>
  <path class="cls-1" d="M52.51,34.33a.28.28,0,0,0,0,.15c0,.05.07.09.13.08"/>
  <path class="cls-1" d="M155.5,43.49a.68.68,0,0,0,0,.14s0,.1.09.11"/>
  <path class="cls-1" d="M156,43.53a.76.76,0,0,0,0,.15s0,.1.09.1"/>
  <line class="cls-1" x1="156.16" y1="43.78" x2="168.51" y2="39.96"/>
  <line class="cls-1" x1="155.71" y1="27.19" x2="155.5" y2="43.49"/>
  <line class="cls-1" x1="156.24" y1="27.22" x2="156.03" y2="43.53"/>
  <line class="cls-1" x1="87.53" y1="148.3" x2="87.12" y2="148.21"/>
  <line class="cls-1" x1="98.95" y1="34.23" x2="84.25" y2="37.53"/>
  <line class="cls-1" x1="98.54" y1="34.46" x2="84.7" y2="37.57"/>
  <path class="cls-1" d="M86.71,144.89a9.05,9.05,0,0,1-1.66-2A14.41,14.41,0,0,1,83.76,140a20.91,20.91,0,0,1-.81-3.5c-.09-.63-.16-1.26-.2-1.9,0-.32,0-.64,0-1s0-.89,0-1.34q-.18-6.81-.35-13.6l-.69-27.2-.69-27.19c-.06-2.52-.13-5.05-.19-7.57,0-.63,0-1.26,0-1.9,0-.32,0-.63,0-1s0-.5,0-.74c0-.82,0-1.64,0-2.45a35.31,35.31,0,0,1,1.1-7,28,28,0,0,1,2.35-6"/>
  <line class="cls-1" x1="86.71" y1="144.89" x2="87.13" y2="144.98"/>
  <path class="cls-1" d="M87.13,145a8.74,8.74,0,0,1-1.65-2,13.35,13.35,0,0,1-1.29-2.86,20.18,20.18,0,0,1-.81-3.5c-.09-.63-.16-1.27-.2-1.9,0-.33,0-.65-.06-1l0-1.35q-.18-6.81-.35-13.61-.33-13.59-.68-27.2l-.69-27.21c-.06-2.52-.12-5.05-.19-7.57,0-.63,0-1.27-.05-1.9,0-.32,0-.63,0-.95s0-.5,0-.75c0-.81,0-1.63,0-2.45a34.61,34.61,0,0,1,1.11-7,28,28,0,0,1,2.34-6"/>
  <line class="cls-1" x1="123.87" y1="152.42" x2="123.6" y2="152.59"/>
  <line class="cls-1" x1="61.94" y1="139.14" x2="61.65" y2="139.29"/>
  <line class="cls-1" x1="67.55" y1="31.86" x2="54.67" y2="34.41"/>
  <line class="cls-1" x1="53.58" y1="34.63" x2="53" y2="34.74"/>
  <line class="cls-1" x1="119.09" y1="151.86" x2="119.55" y2="151.95"/>
  <line class="cls-1" x1="168.58" y1="40.08" x2="168.23" y2="40.05"/>
  <path class="cls-1" d="M119.66,155.18a1.23,1.23,0,0,1-.09-.5"/>
  <path class="cls-1" d="M119.88,155.38a.35.35,0,0,1-.21-.2"/>
  <line class="cls-1" x1="119.42" y1="155.27" x2="87.54" y2="148.3"/>
  <line class="cls-1" x1="132.21" y1="37.02" x2="132.5" y2="37.04"/>
  <line class="cls-1" x1="119.88" y1="155.38" x2="119.43" y2="155.28"/>
  <path class="cls-1" d="M118.37,40.69s0-.09.1-.1"/>
  <path class="cls-1" d="M118.85,40.73a.19.19,0,0,1,.1-.1"/>
  <path class="cls-1" d="M132.19,37h0"/>
  <line class="cls-1" x1="154.04" y1="159.37" x2="154.53" y2="159.48"/>
  <line class="cls-1" x1="154.27" y1="162.9" x2="119.88" y2="155.38"/>
  <line class="cls-1" x1="154.77" y1="163.01" x2="154.28" y2="162.9"/>
  <path class="cls-1" d="M168.58,40.08a.07.07,0,0,1,.08.05"/>
  <path class="cls-1" d="M168.66,40.13a16.75,16.75,0,0,1,1.13,2.65,26.48,26.48,0,0,1,.85,3.26,39.64,39.64,0,0,1,.65,7.61c0,.47,0,.93,0,1.4l0,1.8c0,1.19,0,2.39-.08,3.58-.05,2.38-.1,4.75-.14,7.13q-.3,13.91-.58,27.82t-.58,27.81q-.07,3.81-.16,7.62c0,1.26-.05,2.52-.08,3.78,0,.43,0,.85,0,1.27s0,.82-.07,1.23a48.11,48.11,0,0,1-3,13.54"/>
  <path class="cls-1" d="M155.46,44s0-.09.09-.1"/>
  <path class="cls-1" d="M156,44.05a.28.28,0,0,1,.09-.1"/>
  <line class="cls-1" x1="119.55" y1="151.95" x2="154.04" y2="159.37"/>
  <line class="cls-1" x1="91.51" y1="145.7" x2="91.79" y2="145.54"/>
  <path class="cls-1" d="M87.13,145l.06,2.64"/>
  <path class="cls-1" d="M87.13,145l.29-.16"/>
  <path class="cls-1" d="M119.57,154.68c0-.91,0-1.82,0-2.73"/>
  <path class="cls-1" d="M119.82,151.78l-.27.17"/>
  <path class="cls-1" d="M87.12,148.21a.48.48,0,0,1-.29-.3,1.24,1.24,0,0,1-.06-.43l0-.86c0-.58,0-1.15,0-1.73"/>
  <path class="cls-1" d="M87.13,148.21a.34.34,0,0,0,.22,0"/>
  <line class="cls-1" x1="57" y1="138.5" x2="86.71" y2="144.89"/>
  <path class="cls-1" d="M57.48,141.72a.44.44,0,0,1-.29-.27.9.9,0,0,1-.09-.4"/>
  <path class="cls-1" d="M57.1,141.05c0-.85-.07-1.7-.1-2.55"/>
  <line class="cls-1" x1="86.71" y1="144.89" x2="86.71" y2="144.89"/>
  <path class="cls-1" d="M57.3,138.35l-.3.15"/>
  <path class="cls-1" d="M92.41,145.68l-.28.15"/>
  <line class="cls-1" x1="155.46" y1="25.98" x2="168.05" y2="30.42"/>
  <line class="cls-1" x1="68.62" y1="23.56" x2="155.67" y2="30.03"/>
  <path class="cls-1" d="M155.46,26a1.24,1.24,0,0,1,.78,1.24"/>
  <path class="cls-1" d="M52.92,34.37a.25.25,0,0,0,0,.14.12.12,0,0,0,.1.08"/>
  <line class="cls-1" x1="155.12" y1="26.51" x2="52.66" y2="19.29"/>
  <line class="cls-1" x1="52.35" y1="19.83" x2="52.92" y2="34.37"/>
  <path class="cls-1" d="M53.06,34.59h0"/>
  <line class="cls-1" x1="53.06" y1="34.59" x2="52.65" y2="34.56"/>
  <path class="cls-1" d="M156.13,43.78h0"/>
  <path class="cls-1" d="M155.26,26.55l-.14,0"/>
  <path class="cls-1" d="M68.4,31.56a.17.17,0,0,0,.11-.11.45.45,0,0,0,0-.16"/>
  <line class="cls-1" x1="53.09" y1="34.59" x2="68.4" y2="31.56"/>
  <line class="cls-1" x1="68.54" y1="31.29" x2="68.31" y2="24.07"/>
  <path class="cls-1" d="M168.51,40c.05,0,.08-.09.1-.14a.86.86,0,0,0,0-.17"/>
  <line class="cls-1" x1="168.64" y1="39.65" x2="168.79" y2="31.6"/>
  <path class="cls-1" d="M68.62,23.56a.32.32,0,0,0-.25.19.87.87,0,0,0-.06.32"/>
  <path class="cls-1" d="M52.35,19.83a.66.66,0,0,1,.06-.34.31.31,0,0,1,.25-.2"/>
  <path class="cls-1" d="M52.73,18.77a.69.69,0,0,0-.59.35,1.26,1.26,0,0,0-.2.68"/>
  <line class="cls-1" x1="52.73" y1="18.77" x2="155.2" y2="25.93"/>
  <path class="cls-1" d="M168.79,31.6a1.15,1.15,0,0,0-.74-1.18"/>
  <path class="cls-1" d="M155.2,25.93a1.09,1.09,0,0,1,.26.05"/>
  <path class="cls-1" d="M155.71,27.19a.66.66,0,0,0-.45-.64"/>
  <line class="cls-1" x1="51.94" y1="19.8" x2="52.51" y2="34.33"/>
  <line class="cls-1" x1="68.12" y1="31.64" x2="68.26" y2="31.65"/>
  <path class="cls-1" d="M57.09,141.64a.49.49,0,0,1-.3-.28,1,1,0,0,1-.08-.41c0-.28,0-.56,0-.84l-.06-1.69"/>
  <line class="cls-1" x1="57.48" y1="141.72" x2="57.09" y2="141.64"/>
  <path class="cls-1" d="M52.48,34.79a.13.13,0,0,1,.11-.08"/>
  <path class="cls-1" d="M52.89,34.83a.17.17,0,0,1,.11-.09"/>
  <path class="cls-1" d="M68.09,31.64s0,0,0,0"/>
  <line class="cls-1" x1="68.09" y1="31.64" x2="52.59" y2="34.71"/>
  <path class="cls-1" d="M56.61,138.42a9.19,9.19,0,0,1-1.76-2,13.19,13.19,0,0,1-1.4-2.75,18.41,18.41,0,0,1-.9-3.35c-.11-.6-.19-1.21-.25-1.82,0-.31-.06-.62-.08-.93s0-.79,0-1.19q-.27-6.59-.55-13.17-.54-13.16-1.09-26.33T49.44,60.56q-.15-3.64-.31-7.31l-.07-1.84,0-.92,0-.74c0-.79,0-1.58,0-2.37a30.26,30.26,0,0,1,1.07-6.75,25.21,25.21,0,0,1,2.4-5.84"/>
  <line class="cls-1" x1="56.61" y1="138.42" x2="57" y2="138.5"/>
  <path class="cls-1" d="M57,138.5a9.47,9.47,0,0,1-1.76-2,13.15,13.15,0,0,1-1.39-2.75,18.43,18.43,0,0,1-.91-3.35c-.11-.6-.19-1.21-.25-1.82,0-.31,0-.62-.07-.93l-.06-1.19L52,113.3,50.94,87q-.55-13.17-1.09-26.35l-.3-7.31-.08-1.84,0-.92,0-.75c0-.79,0-1.58,0-2.36a30.25,30.25,0,0,1,1.07-6.76,25.21,25.21,0,0,1,2.4-5.84"/>
  <line class="cls-1" x1="98.98" y1="34.23" x2="99.19" y2="34.25"/>
  <path class="cls-1" d="M84.15,37.63s0-.09.1-.1"/>
  <path class="cls-1" d="M84.59,37.67a.18.18,0,0,1,.11-.1"/>
  <path class="cls-1" d="M154.77,163a.24.24,0,0,1-.15-.11.58.58,0,0,1-.09-.25,1.37,1.37,0,0,1,0-.45c0-.3,0-.6,0-.91l0-1.81"/>
  <line class="cls-1" x1="49.82" y1="50.13" x2="49.87" y2="51.42"/>
  <line class="cls-1" x1="49.82" y1="50.13" x2="80.2" y2="53.43"/>
  <line class="cls-1" x1="49.87" y1="51.42" x2="80.24" y2="54.77"/>
  <line class="cls-1" x1="80.2" y1="53.43" x2="80.24" y2="54.77"/>
  <line class="cls-1" x1="81.54" y1="53.58" x2="81.57" y2="54.91"/>
  <line class="cls-1" x1="81.54" y1="53.58" x2="114.38" y2="57.14"/>
  <line class="cls-1" x1="81.57" y1="54.91" x2="114.39" y2="58.53"/>
  <line class="cls-1" x1="114.38" y1="57.14" x2="114.39" y2="58.53"/>
  <line class="cls-1" x1="54.23" y1="57.13" x2="54.95" y2="57.22"/>
  <line class="cls-1" x1="55.12" y1="63.83" x2="55.15" y2="64.52"/>
  <line class="cls-1" x1="54.27" y1="56.11" x2="54.83" y2="56.17"/>
  <line class="cls-1" x1="55.77" y1="64.6" x2="55.41" y2="64.55"/>
  <line class="cls-1" x1="53.56" y1="59.59" x2="54.23" y2="57.13"/>
  <line class="cls-1" x1="55.15" y1="64.52" x2="54.59" y2="64.45"/>
  <line class="cls-1" x1="54.29" y1="56.82" x2="54.27" y2="56.11"/>
  <line class="cls-1" x1="57.01" y1="61.91" x2="58.88" y2="62.14"/>
  <line class="cls-1" x1="57.1" y1="60.95" x2="57.81" y2="61.03"/>
  <line class="cls-1" x1="58.06" y1="60.74" x2="58.07" y2="61.06"/>
  <line class="cls-1" x1="56.88" y1="60.6" x2="56.74" y2="61.56"/>
  <line class="cls-1" x1="56.74" y1="61.56" x2="56.5" y2="61.53"/>
  <line class="cls-1" x1="57.54" y1="60.68" x2="56.88" y2="60.6"/>
  <line class="cls-1" x1="123.79" y1="69.59" x2="125.47" y2="69.79"/>
  <line class="cls-1" x1="124.31" y1="71.42" x2="123.79" y2="69.59"/>
  <line class="cls-1" x1="124.83" y1="69.37" x2="125.38" y2="68.21"/>
  <line class="cls-1" x1="86.28" y1="64.22" x2="87.21" y2="64.33"/>
  <line class="cls-1" x1="86.27" y1="63.89" x2="86.28" y2="64.22"/>
  <line class="cls-1" x1="122.41" y1="63.98" x2="121.87" y2="64.82"/>
  <line class="cls-1" x1="121.13" y1="64.99" x2="119.82" y2="67.34"/>
  <line class="cls-1" x1="122.31" y1="67.28" x2="122.62" y2="67.32"/>
  <line class="cls-1" x1="121.89" y1="65.77" x2="122.31" y2="66.5"/>
  <line class="cls-1" x1="121.3" y1="65.36" x2="121.71" y2="65.41"/>
  <line class="cls-1" x1="121.87" y1="64.82" x2="121.33" y2="63.86"/>
  <line class="cls-1" x1="124.21" y1="68.93" x2="124.14" y2="67.94"/>
  <line class="cls-1" x1="121.26" y1="67" x2="121.89" y2="65.77"/>
  <line class="cls-1" x1="120.1" y1="67.52" x2="121.3" y2="65.36"/>
  <line class="cls-1" x1="120.33" y1="72.69" x2="119.86" y2="71.97"/>
  <line class="cls-1" x1="85.67" y1="66.77" x2="86.79" y2="66.91"/>
  <line class="cls-1" x1="85.06" y1="61.07" x2="85.19" y2="66.61"/>
  <line class="cls-1" x1="90.37" y1="60.28" x2="90.51" y2="67.23"/>
  <line class="cls-1" x1="89.62" y1="67.45" x2="90.8" y2="67.59"/>
  <line class="cls-1" x1="86.82" y1="68.26" x2="85.67" y2="66.77"/>
  <line class="cls-1" x1="122.62" y1="67.32" x2="122.62" y2="67.32"/>
  <line class="cls-1" x1="58.72" y1="65.29" x2="59.15" y2="62.17"/>
  <line class="cls-1" x1="124.83" y1="69.37" x2="124.83" y2="69.37"/>
  <line class="cls-1" x1="125.89" y1="69.49" x2="124.83" y2="69.37"/>
  <line class="cls-1" x1="54.31" y1="63.71" x2="54.33" y2="64.42"/>
  <line class="cls-1" x1="54" y1="55.75" x2="54.04" y2="56.79"/>
  <line class="cls-1" x1="54.33" y1="64.42" x2="53.99" y2="64.37"/>
  <line class="cls-1" x1="55.96" y1="63.61" x2="55.77" y2="64.6"/>
  <line class="cls-1" x1="53.81" y1="64.67" x2="55.98" y2="64.94"/>
  <line class="cls-1" x1="53.31" y1="59.48" x2="53.45" y2="63.32"/>
  <line class="cls-1" x1="54.95" y1="57.22" x2="55.82" y2="59.86"/>
  <line class="cls-1" x1="54.04" y1="56.79" x2="53.31" y2="59.48"/>
  <line class="cls-1" x1="53.71" y1="63.33" x2="53.56" y2="59.59"/>
  <path class="cls-1" d="M124.58,71.3a.16.16,0,0,0-.08.22c0,.08.13.15.21.1"/>
  <path class="cls-1" d="M124.79,71.48a.18.18,0,0,0-.06-.14.14.14,0,0,0-.15,0"/>
  <line class="cls-1" x1="53.45" y1="63.32" x2="53.45" y2="63.32"/>
  <line class="cls-1" x1="55.82" y1="59.86" x2="55.96" y2="63.61"/>
  <line class="cls-1" x1="54.85" y1="56.54" x2="55.11" y2="56.57"/>
  <line class="cls-1" x1="55.38" y1="63.86" x2="55.12" y2="63.83"/>
  <line class="cls-1" x1="54.57" y1="63.75" x2="54.31" y2="63.71"/>
  <line class="cls-1" x1="56.22" y1="63.7" x2="56.08" y2="59.86"/>
  <line class="cls-1" x1="55.98" y1="64.94" x2="56.22" y2="63.7"/>
  <line class="cls-1" x1="53.99" y1="64.37" x2="53.99" y2="64.37"/>
  <line class="cls-1" x1="54.31" y1="63.72" x2="54.31" y2="63.71"/>
  <line class="cls-1" x1="55.98" y1="64.94" x2="55.98" y2="64.94"/>
  <line class="cls-1" x1="53.56" y1="59.59" x2="53.56" y2="59.59"/>
  <line class="cls-1" x1="54.83" y1="56.17" x2="54.85" y2="56.54"/>
  <line class="cls-1" x1="89.65" y1="68.85" x2="87.11" y2="68.53"/>
  <line class="cls-1" x1="87.11" y1="68.53" x2="87.06" y2="66.61"/>
  <line class="cls-1" x1="87.06" y1="66.61" x2="85.47" y2="66.41"/>
  <line class="cls-1" x1="90.8" y1="67.59" x2="90.64" y2="59.98"/>
  <line class="cls-1" x1="90.51" y1="67.23" x2="90.51" y2="67.23"/>
  <line class="cls-1" x1="89.61" y1="67.12" x2="89.5" y2="61.59"/>
  <line class="cls-1" x1="89.5" y1="61.59" x2="85.06" y2="61.07"/>
  <line class="cls-1" x1="86.79" y1="66.91" x2="86.79" y2="66.91"/>
  <line class="cls-1" x1="89.66" y1="69.18" x2="89.66" y2="69.18"/>
  <line class="cls-1" x1="87.11" y1="68.53" x2="87.11" y2="68.53"/>
  <line class="cls-1" x1="53.45" y1="63.32" x2="53.81" y2="64.67"/>
  <line class="cls-1" x1="55.41" y1="64.55" x2="55.38" y2="63.86"/>
  <line class="cls-1" x1="89.22" y1="61.89" x2="89.36" y2="68.47"/>
  <line class="cls-1" x1="53.99" y1="64.37" x2="53.71" y2="63.33"/>
  <line class="cls-1" x1="54.59" y1="64.45" x2="54.57" y2="63.75"/>
  <line class="cls-1" x1="55.08" y1="55.88" x2="54" y2="55.75"/>
  <line class="cls-1" x1="89.64" y1="68.51" x2="89.64" y2="68.51"/>
  <line class="cls-1" x1="55.11" y1="56.57" x2="55.08" y2="55.88"/>
  <line class="cls-1" x1="55.12" y1="56.92" x2="54.29" y2="56.82"/>
  <line class="cls-1" x1="56.08" y1="59.86" x2="55.12" y2="56.92"/>
  <path class="cls-1" d="M124.71,71.62a.13.13,0,0,0,.08-.14"/>
  <line class="cls-1" x1="86.19" y1="59.46" x2="86.22" y2="60.86"/>
  <line class="cls-1" x1="89.62" y1="67.45" x2="89.62" y2="67.45"/>
  <line class="cls-1" x1="90.64" y1="59.98" x2="86.19" y2="59.46"/>
  <line class="cls-1" x1="90.51" y1="67.23" x2="89.61" y2="67.12"/>
  <line class="cls-1" x1="87.11" y1="68.53" x2="87.11" y2="68.53"/>
  <line class="cls-1" x1="85.19" y1="66.61" x2="86.91" y2="68.84"/>
  <line class="cls-1" x1="90.8" y1="67.59" x2="90.8" y2="67.59"/>
  <line class="cls-1" x1="89.36" y1="68.47" x2="89.64" y2="68.51"/>
  <line class="cls-1" x1="89.66" y1="69.18" x2="89.65" y2="68.85"/>
  <line class="cls-1" x1="85.47" y1="66.41" x2="85.35" y2="61.43"/>
  <line class="cls-1" x1="86.91" y1="68.84" x2="89.66" y2="69.18"/>
  <line class="cls-1" x1="85.35" y1="61.43" x2="89.22" y2="61.89"/>
  <line class="cls-1" x1="88.46" y1="63.38" x2="86.25" y2="63.12"/>
  <line class="cls-1" x1="88.46" y1="63.71" x2="88.46" y2="63.38"/>
  <line class="cls-1" x1="86.25" y1="63.12" x2="86.26" y2="63.45"/>
  <line class="cls-1" x1="86.26" y1="63.45" x2="88.46" y2="63.71"/>
  <line class="cls-1" x1="87.99" y1="62.88" x2="87.98" y2="62.55"/>
  <line class="cls-1" x1="86.23" y1="62.34" x2="86.24" y2="62.68"/>
  <line class="cls-1" x1="87.99" y1="62.88" x2="87.99" y2="62.88"/>
  <line class="cls-1" x1="86.23" y1="62.34" x2="86.23" y2="62.34"/>
  <line class="cls-1" x1="87.98" y1="62.55" x2="86.23" y2="62.34"/>
  <line class="cls-1" x1="86.79" y1="66.91" x2="86.79" y2="66.91"/>
  <line class="cls-1" x1="87.99" y1="62.88" x2="87.99" y2="62.88"/>
  <line class="cls-1" x1="89.64" y1="68.51" x2="89.62" y2="67.45"/>
  <line class="cls-1" x1="86.24" y1="62.68" x2="87.99" y2="62.88"/>
  <path class="cls-1" d="M124.71,71.62h0"/>
  <line class="cls-1" x1="125.28" y1="71.54" x2="125.89" y2="69.49"/>
  <line class="cls-1" x1="121.33" y1="63.86" x2="121.33" y2="63.86"/>
  <line class="cls-1" x1="123.14" y1="73.05" x2="120.33" y2="72.69"/>
  <line class="cls-1" x1="121.71" y1="65.41" x2="121.71" y2="65.41"/>
  <line class="cls-1" x1="122.62" y1="67.32" x2="122.62" y2="66.42"/>
  <line class="cls-1" x1="124.14" y1="67.94" x2="122.77" y2="65.18"/>
  <line class="cls-1" x1="122.77" y1="65.18" x2="122.09" y2="65.1"/>
  <line class="cls-1" x1="56.88" y1="60.6" x2="56.88" y2="60.6"/>
  <line class="cls-1" x1="59.15" y1="62.17" x2="59.39" y2="62.2"/>
  <line class="cls-1" x1="58.85" y1="61.82" x2="57" y2="61.59"/>
  <line class="cls-1" x1="119.82" y1="67.34" x2="119.82" y2="67.34"/>
  <line class="cls-1" x1="122.41" y1="63.98" x2="122.41" y2="63.98"/>
  <line class="cls-1" x1="119.86" y1="71.97" x2="119.86" y2="71.97"/>
  <line class="cls-1" x1="120.09" y1="67.52" x2="120.09" y2="67.52"/>
  <line class="cls-1" x1="59.12" y1="61.85" x2="58.87" y2="60.84"/>
  <line class="cls-1" x1="58.35" y1="59.28" x2="58.18" y2="59"/>
  <line class="cls-1" x1="125.47" y1="69.79" x2="124.96" y2="71.5"/>
  <line class="cls-1" x1="122.6" y1="65.51" x2="123.84" y2="67.97"/>
  <line class="cls-1" x1="123.84" y1="67.97" x2="123.91" y2="68.92"/>
  <line class="cls-1" x1="123.91" y1="68.92" x2="124.21" y2="68.93"/>
  <line class="cls-1" x1="119.55" y1="72.04" x2="120.18" y2="73.02"/>
  <line class="cls-1" x1="120.18" y1="73.02" x2="120.18" y2="73.02"/>
  <line class="cls-1" x1="121.71" y1="65.41" x2="121.71" y2="65.41"/>
  <line class="cls-1" x1="119.82" y1="67.34" x2="119.82" y2="67.34"/>
  <line class="cls-1" x1="120.75" y1="63.44" x2="120.75" y2="63.44"/>
  <line class="cls-1" x1="123.14" y1="73.39" x2="123.14" y2="73.05"/>
  <line class="cls-1" x1="122.09" y1="65.1" x2="122.98" y2="63.7"/>
  <line class="cls-1" x1="122.98" y1="63.7" x2="120.75" y2="63.44"/>
  <line class="cls-1" x1="121.71" y1="65.41" x2="121" y2="66.8"/>
  <line class="cls-1" x1="121" y1="66.8" x2="121.26" y2="67"/>
  <line class="cls-1" x1="119.82" y1="67.34" x2="119.55" y2="72.04"/>
  <line class="cls-1" x1="122.31" y1="66.5" x2="122.31" y2="67.28"/>
  <line class="cls-1" x1="125.38" y1="68.21" x2="125.11" y2="68.02"/>
  <line class="cls-1" x1="57.81" y1="61.03" x2="57.77" y2="59.8"/>
  <line class="cls-1" x1="58.88" y1="62.14" x2="58.5" y2="64.94"/>
  <line class="cls-1" x1="57.38" y1="65.12" x2="58.72" y2="65.29"/>
  <line class="cls-1" x1="56.74" y1="61.88" x2="57.38" y2="65.12"/>
  <line class="cls-1" x1="57" y1="61.59" x2="57.1" y2="60.95"/>
  <line class="cls-1" x1="59.38" y1="61.88" x2="59.12" y2="61.85"/>
  <line class="cls-1" x1="124.96" y1="71.5" x2="125.48" y2="73.34"/>
  <line class="cls-1" x1="125.48" y1="73.34" x2="123.8" y2="73.13"/>
  <line class="cls-1" x1="58.5" y1="64.94" x2="57.59" y2="64.83"/>
  <line class="cls-1" x1="58.18" y1="59" x2="57.5" y2="59.62"/>
  <line class="cls-1" x1="58.87" y1="60.84" x2="58.06" y2="60.74"/>
  <line class="cls-1" x1="57.77" y1="59.8" x2="58.35" y2="59.28"/>
  <line class="cls-1" x1="57" y1="61.59" x2="57" y2="61.59"/>
  <line class="cls-1" x1="57.59" y1="64.82" x2="57.01" y2="61.91"/>
  <line class="cls-1" x1="58.68" y1="61.14" x2="58.68" y2="61.14"/>
  <line class="cls-1" x1="57" y1="61.59" x2="57" y2="61.59"/>
  <line class="cls-1" x1="58.68" y1="61.14" x2="58.85" y2="61.81"/>
  <line class="cls-1" x1="58.07" y1="61.06" x2="58.68" y2="61.14"/>
  <line class="cls-1" x1="56.51" y1="61.85" x2="56.74" y2="61.88"/>
  <line class="cls-1" x1="56.5" y1="61.53" x2="56.51" y2="61.85"/>
  <line class="cls-1" x1="57.5" y1="59.62" x2="57.54" y2="60.68"/>
  <line class="cls-1" x1="121.13" y1="64.99" x2="121.13" y2="64.99"/>
  <line class="cls-1" x1="57.77" y1="59.8" x2="57.77" y2="59.8"/>
  <line class="cls-1" x1="58.5" y1="64.94" x2="58.5" y2="64.94"/>
  <line class="cls-1" x1="59.39" y1="62.2" x2="59.38" y2="61.88"/>
  <line class="cls-1" x1="57.5" y1="59.62" x2="57.5" y2="59.62"/>
  <line class="cls-1" x1="123.38" y1="73.42" x2="125.9" y2="73.74"/>
  <line class="cls-1" x1="123.36" y1="69.19" x2="123.99" y2="71.38"/>
  <line class="cls-1" x1="123.8" y1="73.13" x2="124.31" y2="71.42"/>
  <line class="cls-1" x1="124.83" y1="69.37" x2="124.83" y2="69.37"/>
  <line class="cls-1" x1="120.18" y1="73.02" x2="123.14" y2="73.39"/>
  <line class="cls-1" x1="123.37" y1="69.19" x2="123.36" y2="69.19"/>
  <line class="cls-1" x1="121.66" y1="65.05" x2="121.66" y2="65.05"/>
  <line class="cls-1" x1="124.49" y1="69.32" x2="123.37" y2="69.19"/>
  <line class="cls-1" x1="121.66" y1="65.05" x2="121.13" y2="64.99"/>
  <line class="cls-1" x1="119.86" y1="71.97" x2="120.1" y2="67.52"/>
  <line class="cls-1" x1="120.75" y1="63.44" x2="121.66" y2="65.05"/>
  <line class="cls-1" x1="125.11" y1="68.02" x2="124.49" y2="69.32"/>
  <line class="cls-1" x1="123.99" y1="71.38" x2="123.38" y2="73.42"/>
  <line class="cls-1" x1="121.33" y1="63.86" x2="122.41" y2="63.98"/>
  <line class="cls-1" x1="124.96" y1="71.5" x2="124.96" y2="71.5"/>
  <line class="cls-1" x1="125.89" y1="69.49" x2="125.89" y2="69.49"/>
  <line class="cls-1" x1="125.9" y1="73.74" x2="125.28" y2="71.54"/>
  <line class="cls-1" x1="86.22" y1="60.86" x2="86.22" y2="60.86"/>
  <line class="cls-1" x1="86.51" y1="60.89" x2="86.48" y2="59.83"/>
  <line class="cls-1" x1="86.22" y1="60.86" x2="86.5" y2="60.89"/>
  <line class="cls-1" x1="86.48" y1="59.83" x2="90.37" y2="60.28"/>
  <line class="cls-1" x1="86.79" y1="66.91" x2="86.82" y2="68.26"/>
  <line class="cls-1" x1="122.62" y1="66.42" x2="122.06" y2="65.45"/>
  <line class="cls-1" x1="122.05" y1="65.45" x2="122.6" y2="65.51"/>
  <line class="cls-1" x1="86.27" y1="63.89" x2="86.27" y2="63.89"/>
  <line class="cls-1" x1="87.2" y1="64" x2="87.2" y2="64"/>
  <line class="cls-1" x1="86.27" y1="63.89" x2="86.28" y2="64.22"/>
  <line class="cls-1" x1="87.21" y1="64.33" x2="87.2" y2="64"/>
  <line class="cls-1" x1="87.2" y1="64" x2="86.27" y2="63.89"/>
  <line class="cls-1" x1="115.83" y1="57.3" x2="115.84" y2="58.69"/>
  <line class="cls-1" x1="151.44" y1="61.17" x2="151.42" y2="62.61"/>
  <line class="cls-1" x1="115.84" y1="58.69" x2="151.42" y2="62.61"/>
  <line class="cls-1" x1="115.83" y1="57.3" x2="151.44" y2="61.17"/>
  <line class="cls-1" x1="117.59" y1="42.07" x2="117.73" y2="42.08"/>
  <line class="cls-1" x1="83.48" y1="38.98" x2="83.4" y2="38.97"/>
  <line class="cls-1" x1="83.41" y1="38.95" x2="83.48" y2="38.96"/>
  <line class="cls-1" x1="116.78" y1="44.6" x2="116.62" y2="44.59"/>
  <line class="cls-1" x1="117.72" y1="42.1" x2="117.58" y2="42.09"/>
  <line class="cls-1" x1="115.99" y1="46.69" x2="116.18" y2="46.63"/>
  <line class="cls-1" x1="153.71" y1="48.08" x2="153.94" y2="48.1"/>
  <line class="cls-1" x1="82.51" y1="41.38" x2="82.4" y2="41.37"/>
  <line class="cls-1" x1="83.05" y1="137.08" x2="82.98" y2="137.12"/>
  <path class="cls-1" d="M81.76,43.54l0,0"/>
  <line class="cls-1" x1="81.71" y1="43.55" x2="81.84" y2="43.52"/>
  <line class="cls-1" x1="115.76" y1="143.45" x2="115.63" y2="143.53"/>
  <line class="cls-1" x1="81.7" y1="43.58" x2="81.84" y2="43.55"/>
  <line class="cls-1" x1="153.44" y1="49.88" x2="153.17" y2="49.97"/>
  <line class="cls-1" x1="153.46" y1="49.84" x2="153.18" y2="49.93"/>
  <line class="cls-1" x1="151.12" y1="150.17" x2="150.92" y2="150.31"/>
  <line class="cls-1" x1="154.85" y1="45.46" x2="154.64" y2="45.44"/>
  <line class="cls-1" x1="116" y1="46.65" x2="116.19" y2="46.6"/>
  <line class="cls-1" x1="154.63" y1="45.46" x2="154.84" y2="45.48"/>
  <line class="cls-1" x1="157.19" y1="64.19" x2="157.02" y2="64.18"/>
  <path class="cls-1" d="M158.05,64.59a3.06,3.06,0,0,1-.12.85,1.88,1.88,0,0,1-.39.77"/>
  <path class="cls-1" d="M155.94,65.15a3.8,3.8,0,0,0,.11.95,1.58,1.58,0,0,0,.2.44.56.56,0,0,0,.37.26"/>
  <line class="cls-1" x1="157.54" y1="66.21" x2="157.14" y2="66.61"/>
  <path class="cls-1" d="M156.69,66.81a.58.58,0,0,0,.45-.2"/>
  <path class="cls-1" d="M156.62,66.8h0"/>
  <path class="cls-1" d="M157.08,62.79c-.24,0-.45.18-.58.35a2.43,2.43,0,0,0-.32.62,4.72,4.72,0,0,0-.24,1.39"/>
  <line class="cls-1" x1="157.55" y1="63.1" x2="157.84" y2="63.57"/>
  <path class="cls-1" d="M157.55,63.1a.6.6,0,0,0-.4-.31"/>
  <path class="cls-1" d="M157.84,63.57a1.92,1.92,0,0,1,.21,1"/>
  <line class="cls-1" x1="156.93" y1="65.64" x2="157.17" y2="65.67"/>
  <path class="cls-1" d="M157.43,64.41a1.22,1.22,0,0,0-.17-.61"/>
  <path class="cls-1" d="M157.11,62.79h0"/>
  <path class="cls-1" d="M157,65.85a.84.84,0,0,0,.2-.29"/>
  <line class="cls-1" x1="157.17" y1="65.67" x2="157.19" y2="64.19"/>
  <path class="cls-1" d="M156.69,65.12a3.21,3.21,0,0,1,.25-1.22,1.15,1.15,0,0,1,.38-.49c.21-.14.4,0,.52.16"/>
  <path class="cls-1" d="M157.24,66c-.19,0-.29-.26-.33-.4a2,2,0,0,1-.06-.54"/>
  <path class="cls-1" d="M157.15,62.79a.73.73,0,0,0-.58.35,2.67,2.67,0,0,0-.32.63,4.15,4.15,0,0,0-.24,1.39"/>
  <path class="cls-1" d="M156,65.16a3.05,3.05,0,0,0,.11,1,1.38,1.38,0,0,0,.19.43.56.56,0,0,0,.38.27"/>
  <path class="cls-1" d="M156.85,65.06a2.75,2.75,0,0,1,.14-.8,1.66,1.66,0,0,1,.18-.35.38.38,0,0,1,.33-.2"/>
  <line class="cls-1" x1="157.19" y1="64.19" x2="157.76" y2="64.7"/>
  <line class="cls-1" x1="157.17" y1="65.67" x2="157.76" y2="64.7"/>
  <path class="cls-1" d="M157.89,64.65a2.35,2.35,0,0,1-.14.79,1.22,1.22,0,0,1-.18.36.38.38,0,0,1-.33.2"/>
  <path class="cls-1" d="M157.5,63.71c.19,0,.29.26.33.4a2,2,0,0,1,.06.54"/>
  <path class="cls-1" d="M157.54,66.21c-.29.29-.55.14-.7-.2a2.25,2.25,0,0,1-.15-.89"/>
  <line class="cls-1" x1="156.69" y1="66.81" x2="156.62" y2="66.8"/>
  <line class="cls-1" x1="157.08" y1="62.79" x2="157.15" y2="62.79"/>
  <path class="cls-1" d="M166.47,153.25a2.31,2.31,0,0,1-.11.69,1.19,1.19,0,0,1-.36.58"/>
  <path class="cls-1" d="M166.5,150.63c0,.87,0,1.74,0,2.62"/>
  <polyline class="cls-2" points="12.15 14.82 13.82 20.29 11.05 20.44 12.15 14.82"/>
  <polyline class="cls-2" points="18.37 133.3 16.64 127.85 19.41 127.68 18.37 133.3"/>
  <g>
    <g class="cls-3">
      <path class="cls-4" d="M25,83.57a2.39,2.39,0,0,1-.39,1.57,1.88,1.88,0,0,1-1.28.8l-.16-.77a1.25,1.25,0,0,0,.84-.52,1.6,1.6,0,0,0,.25-1,1.46,1.46,0,0,0-.43-1,1.22,1.22,0,0,0-1-.33,1.25,1.25,0,0,0-.93.43,1.46,1.46,0,0,0-.27,1,1.19,1.19,0,0,0,.24.68l-.5.38L19.33,83,19.54,86l-.73,0-.27-4,.71,0,1.86,1.67a2,2,0,0,1,.33-1.56,1.84,1.84,0,0,1,1.41-.68,1.88,1.88,0,0,1,1.51.52A2.41,2.41,0,0,1,25,83.57Z"/>
      <path class="cls-4" d="M22.55,78.62a2.24,2.24,0,0,1-.5,1.64,2,2,0,0,1-1.49.72A2,2,0,0,1,19,80.44a2.28,2.28,0,0,1-.71-1.6,2.07,2.07,0,0,1,.67-1.74A3.25,3.25,0,0,1,21,76.32a3.84,3.84,0,0,1,2.67.63,2.64,2.64,0,0,1,1.08,2,2.68,2.68,0,0,1-.47,1.76l-.66-.37a2.06,2.06,0,0,0-.38-2.82,2.51,2.51,0,0,0-1.73-.51,1.57,1.57,0,0,1,.73.62A1.87,1.87,0,0,1,22.55,78.62Zm-3.22-.88a1.53,1.53,0,0,0,.13,2.07,1.43,1.43,0,0,0,1.07.34,1.34,1.34,0,0,0,1-.47,1.54,1.54,0,0,0-.14-2.07,1.36,1.36,0,0,0-1-.35A1.41,1.41,0,0,0,19.33,77.74Z"/>
      <path class="cls-4" d="M23.49,75.56l-.06-.88.93-.07.06.88Z"/>
      <path class="cls-4" d="M24.11,70.85l-1.53.1.22,3.32-.74,0L17.84,71.4l-.07-1,4-.26-.06-.91.73,0,.06.91L24.06,70ZM22,73.44,21.84,71l-3.08.21Z"/>
      <path class="cls-4" d="M17.42,66.17l1.81.36.06,1-1.84-.83Zm.08,1.32,1.81.37.07,1L17.54,68Z"/>
    </g>
    <g class="cls-3">
      <path class="cls-4" d="M13,84.69,7.72,85a2.83,2.83,0,0,1,.8,1.44l-.73,0A2.78,2.78,0,0,0,6.69,85l-.05-.65,6.29-.42Z"/>
      <path class="cls-4" d="M12.77,80.48A2.05,2.05,0,0,1,12,82.32a4,4,0,0,1-2.31.78,4,4,0,0,1-2.39-.47,2.27,2.27,0,0,1-.23-3.56,3.87,3.87,0,0,1,2.3-.78,3.93,3.93,0,0,1,2.39.47A2.07,2.07,0,0,1,12.77,80.48Zm-.73,0a1.28,1.28,0,0,0-.74-1.11,3.4,3.4,0,0,0-1.84-.29,3.52,3.52,0,0,0-1.8.53A1.35,1.35,0,0,0,7.81,82a3.55,3.55,0,0,0,1.85.28,3.45,3.45,0,0,0,1.79-.52A1.29,1.29,0,0,0,12,80.53Z"/>
      <path class="cls-4" d="M12.41,74.94a2.08,2.08,0,0,1-.75,1.84,4,4,0,0,1-2.31.78A4,4,0,0,1,7,77.09a2.27,2.27,0,0,1-.23-3.56A3.94,3.94,0,0,1,9,72.74a4,4,0,0,1,2.39.48A2.06,2.06,0,0,1,12.41,74.94Zm-.74,0a1.28,1.28,0,0,0-.74-1.11,3.4,3.4,0,0,0-1.84-.29,3.48,3.48,0,0,0-1.79.53,1.29,1.29,0,0,0-.6,1.2,1.31,1.31,0,0,0,.75,1.12,3.51,3.51,0,0,0,1.85.28,3.45,3.45,0,0,0,1.78-.52A1.29,1.29,0,0,0,11.67,75Z"/>
      <path class="cls-4" d="M12,69.4a2.08,2.08,0,0,1-.75,1.84A4,4,0,0,1,9,72a4,4,0,0,1-2.39-.47A2.27,2.27,0,0,1,6.36,68a4,4,0,0,1,2.3-.79,4,4,0,0,1,2.39.48A2.06,2.06,0,0,1,12,69.4Zm-.74,0a1.28,1.28,0,0,0-.74-1.11,3.39,3.39,0,0,0-1.84-.29,3.48,3.48,0,0,0-1.79.53,1.26,1.26,0,0,0-.59,1.2,1.28,1.28,0,0,0,.74,1.12,3.53,3.53,0,0,0,1.85.28,3.49,3.49,0,0,0,1.79-.52A1.28,1.28,0,0,0,11.3,69.45Z"/>
    </g>
  </g>
  <polyline class="cls-2" points="24.45 160.76 30.17 160.66 29.54 163.36 24.45 160.76"/>
  <polyline class="cls-2" points="129.47 184.4 123.75 184.54 124.36 181.83 129.47 184.4"/>
  <g>
    <g class="cls-3">
      <path class="cls-4" d="M66.51,179.74a2.4,2.4,0,0,1-1.4-.83,1.92,1.92,0,0,1-.4-1.44l.79.05a1.24,1.24,0,0,0,.26,1,1.59,1.59,0,0,0,.91.54,1.52,1.52,0,0,0,1.11-.13,1.38,1.38,0,0,0,.44-1.85,1.46,1.46,0,0,0-.93-.56,1.26,1.26,0,0,0-.72,0l-.23-.59,2.38-1.48-3-.67.16-.71,3.93.88-.16.69L67.53,176a1.94,1.94,0,0,1,1.4.76,1.84,1.84,0,0,1,.26,1.54,1.93,1.93,0,0,1-.94,1.31A2.41,2.41,0,0,1,66.51,179.74Z"/>
      <path class="cls-4" d="M71.62,180.89a2.45,2.45,0,0,1-1.38-.8,1.9,1.9,0,0,1-.45-1.4l.78,0a1.3,1.3,0,0,0,.29.92,1.61,1.61,0,0,0,.91.51,1.32,1.32,0,0,0,1.06-.16,1.42,1.42,0,0,0,.59-.92,1.37,1.37,0,0,0-.15-1.1,1.51,1.51,0,0,0-1-.6,1.58,1.58,0,0,0-1.53.43l-.55-.26,1.24-3.23,3.27.74-.16.71-2.68-.61L71.21,177a1.73,1.73,0,0,1,.66-.24,1.93,1.93,0,0,1,.72,0,2.18,2.18,0,0,1,1.41.92,2,2,0,0,1,.25,1.62,2.13,2.13,0,0,1-.93,1.4A2.21,2.21,0,0,1,71.62,180.89Z"/>
      <path class="cls-4" d="M75,180.61l.86.19-.21.91-.86-.19Z"/>
      <path class="cls-4" d="M78.62,182.46a2.39,2.39,0,0,1-1.4-.82,1.89,1.89,0,0,1-.4-1.45l.78.06a1.22,1.22,0,0,0,.27.95,1.59,1.59,0,0,0,.91.54,1.44,1.44,0,0,0,1.1-.12,1.21,1.21,0,0,0,.59-.84,1.25,1.25,0,0,0-.15-1,1.42,1.42,0,0,0-.92-.55,1.18,1.18,0,0,0-.72,0l-.23-.59,2.37-1.49-3-.67.16-.71,3.92.89-.15.69-2.13,1.31a1.92,1.92,0,0,1,1.39.76A1.84,1.84,0,0,1,81.3,181a1.89,1.89,0,0,1-.94,1.3A2.41,2.41,0,0,1,78.62,182.46Z"/>
      <path class="cls-4" d="M84.38,177.15l-.86,1.64-1-.22L83.88,177Zm1.3.3-.87,1.63-1-.22,1.32-1.53Z"/>
    </g>
    <g class="cls-3">
      <path class="cls-4" d="M71.83,168.61a2.52,2.52,0,0,1-1.48-.86,1.69,1.69,0,0,1-.31-1.47,1.59,1.59,0,0,1,.54-.89,1.65,1.65,0,0,1,1-.39,1.63,1.63,0,0,1-.54-.69,1.33,1.33,0,0,1-.07-.81,1.47,1.47,0,0,1,.79-1.05,2.49,2.49,0,0,1,2.81.63,1.51,1.51,0,0,1,.26,1.29,1.31,1.31,0,0,1-.42.7,1.46,1.46,0,0,1-.77.39,1.73,1.73,0,0,1,.71.78,1.62,1.62,0,0,1,.1,1,1.73,1.73,0,0,1-.91,1.2A2.36,2.36,0,0,1,71.83,168.61Zm.15-.69a1.52,1.52,0,0,0,1.07-.1,1.15,1.15,0,0,0,.38-1.66,1.52,1.52,0,0,0-.93-.54,1.56,1.56,0,0,0-1.08.08,1.14,1.14,0,0,0-.38,1.67A1.61,1.61,0,0,0,72,167.92Zm.68-3a1.23,1.23,0,0,0,.88-.08.93.93,0,0,0,.47-.63.87.87,0,0,0-.14-.77,1.32,1.32,0,0,0-.77-.45,1.33,1.33,0,0,0-.92.07.88.88,0,0,0-.47.63.92.92,0,0,0,.17.78A1.31,1.31,0,0,0,72.66,164.93Z"/>
      <path class="cls-4" d="M77.16,167.61a2.22,2.22,0,0,1-1.42-.94,2.08,2.08,0,0,1-.28-1.64,2.05,2.05,0,0,1,1-1.37,2.34,2.34,0,0,1,1.74-.23,2.11,2.11,0,0,1,1.48,1.14,3.23,3.23,0,0,1,.17,2.18,3.86,3.86,0,0,1-1.37,2.39,2.65,2.65,0,0,1-2.26.45,2.68,2.68,0,0,1-1.55-.94l.54-.53a2.08,2.08,0,0,0,2.81.44A2.5,2.5,0,0,0,79,167a1.6,1.6,0,0,1-.8.53A2,2,0,0,1,77.16,167.61Zm1.76-2.84a1.37,1.37,0,0,0-.92-.63,1.43,1.43,0,0,0-1.1.17,1.45,1.45,0,0,0-.63.93,1.35,1.35,0,0,0,.17,1.08,1.56,1.56,0,0,0,2,.46,1.34,1.34,0,0,0,.62-.91A1.35,1.35,0,0,0,78.92,164.77Z"/>
      <path class="cls-4" d="M83,166.73a2.27,2.27,0,0,1,1.43.94,2.2,2.2,0,0,1-.7,3,2.32,2.32,0,0,1-1.73.23,2.13,2.13,0,0,1-1.49-1.14,3.26,3.26,0,0,1-.16-2.19,3.9,3.9,0,0,1,1.36-2.38,2.84,2.84,0,0,1,3.81.49l-.54.53a2,2,0,0,0-1.17-.76,1.93,1.93,0,0,0-1.63.32,2.5,2.5,0,0,0-1,1.52,1.57,1.57,0,0,1,.79-.53A2,2,0,0,1,83,166.73Zm-1.76,2.84a1.43,1.43,0,0,0,.93.62,1.4,1.4,0,0,0,1.1-.17,1.44,1.44,0,0,0,.63-.92,1.35,1.35,0,0,0-.18-1.08,1.41,1.41,0,0,0-.92-.62,1.43,1.43,0,0,0-1.1.16,1.35,1.35,0,0,0-.63.91A1.4,1.4,0,0,0,81.28,169.57Z"/>
    </g>
  </g>
  <line class="cls-1" x1="155.33" y1="168.05" x2="190.55" y2="175.67"/>
  <line class="cls-1" x1="232.44" y1="136.58" x2="174.01" y2="185.09"/>
  <line class="cls-1" x1="171.67" y1="152.78" x2="208.62" y2="160.57"/>
  <polyline class="cls-2" points="186.44 174.81 183.02 179.39 181.27 177.25 186.44 174.81"/>
  <polyline class="cls-2" points="204.65 159.66 208.09 155.09 209.84 157.25 204.65 159.66"/>
  <g>
    <g class="cls-3">
      <path class="cls-4" d="M221.14,157.9l-3.43-4a3,3,0,0,1-.68,1.5l-.48-.55a2.79,2.79,0,0,0,.58-1.82l.49-.42,4.1,4.79Z"/>
      <path class="cls-4" d="M223.51,155.87l-3.43-4a3,3,0,0,1-.68,1.51l-.48-.55a2.74,2.74,0,0,0,.58-1.82l.5-.42,4.09,4.79Z"/>
      <path class="cls-4" d="M224.46,153.82l.67-.57.61.71-.67.58Z"/>
      <path class="cls-4" d="M228.23,151.92a2.47,2.47,0,0,1-1.57.67,1.7,1.7,0,0,1-1.37-.63,1.55,1.55,0,0,1-.39-1,1.63,1.63,0,0,1,.26-1,1.71,1.71,0,0,1-.87,0,1.32,1.32,0,0,1-.69-.43,1.47,1.47,0,0,1-.37-1.26A2.18,2.18,0,0,1,224,147a2.06,2.06,0,0,1,1.38-.58,1.49,1.49,0,0,1,1.19.56,1.4,1.4,0,0,1,.31.75,1.53,1.53,0,0,1-.16.86,1.67,1.67,0,0,1,1.05-.11,1.57,1.57,0,0,1,.88.54,1.66,1.66,0,0,1,.42,1.43A2.43,2.43,0,0,1,228.23,151.92Zm-2.45-2.86a1.32,1.32,0,0,0,.46-.75.91.91,0,0,0-.23-.76.88.88,0,0,0-.7-.35,1.54,1.54,0,0,0-1.32,1.13,1,1,0,0,0,.95,1.08A1.31,1.31,0,0,0,225.78,149.06Zm2,2.33a1.6,1.6,0,0,0,.57-.91,1.08,1.08,0,0,0-.27-.9,1.06,1.06,0,0,0-.85-.4,1.49,1.49,0,0,0-1,.42,1.56,1.56,0,0,0-.58.92,1.12,1.12,0,0,0,1.11,1.29A1.54,1.54,0,0,0,227.76,151.39Z"/>
      <path class="cls-4" d="M227.36,144.18l.79,1.67-.75.64-.43-2Zm1-.86.79,1.66-.75.65-.44-2Z"/>
    </g>
    <g class="cls-3">
      <path class="cls-4" d="M214.41,147.93a2.43,2.43,0,0,1-1.5.63,1.91,1.91,0,0,1-1.39-.55l.51-.59a1.27,1.27,0,0,0,.92.36,1.57,1.57,0,0,0,1-.41,1.51,1.51,0,0,0,.56-1,1.27,1.27,0,0,0-.32-1,1.23,1.23,0,0,0-.9-.48,1.47,1.47,0,0,0-1,.41,1.21,1.21,0,0,0-.39.6l-.61-.17.23-2.79-2.32,2-.48-.55,3.06-2.62.46.54-.23,2.49a2,2,0,0,1,1.45-.67,1.83,1.83,0,0,1,1.39.72,1.88,1.88,0,0,1,.49,1.52A2.45,2.45,0,0,1,214.41,147.93Z"/>
      <path class="cls-4" d="M218.54,144.39a2.07,2.07,0,0,1-1.92.5,4,4,0,0,1-2-1.38,3.9,3.9,0,0,1-1.06-2.2,2.25,2.25,0,0,1,2.71-2.31,3.91,3.91,0,0,1,2,1.37,4,4,0,0,1,1.05,2.19A2.06,2.06,0,0,1,218.54,144.39Zm-.48-.56a1.3,1.3,0,0,0,.45-1.26,3.41,3.41,0,0,0-.87-1.65,3.58,3.58,0,0,0-1.5-1.12,1.27,1.27,0,0,0-1.31.25,1.29,1.29,0,0,0-.46,1.26,4.31,4.31,0,0,0,2.37,2.77A1.29,1.29,0,0,0,218.06,143.83Z"/>
      <path class="cls-4" d="M222.76,140.77a2.05,2.05,0,0,1-1.92.51,4.71,4.71,0,0,1-3.06-3.58,2.06,2.06,0,0,1,.79-1.82,2.09,2.09,0,0,1,1.92-.5,4.71,4.71,0,0,1,3.06,3.57A2.06,2.06,0,0,1,222.76,140.77Zm-.48-.56a1.28,1.28,0,0,0,.45-1.25,3.44,3.44,0,0,0-.88-1.65,3.48,3.48,0,0,0-1.49-1.12,1.34,1.34,0,0,0-1.77,1.51,4.31,4.31,0,0,0,2.37,2.77A1.28,1.28,0,0,0,222.28,140.21Z"/>
    </g>
  </g>
</svg>
