<?xml version="1.0" encoding="UTF-8"?>
<svg id="Vrstva_1" data-name="Vrstva 1" xmlns="http://www.w3.org/2000/svg" viewBox="0 0 283.46 226.77">
  <defs>
    <style>
      .cls-1 {
        fill: #d7e6fb;
        stroke: #ffffff;
        stroke-miterlimit: 10;
      }

      .cls-1, .cls-2 {
        stroke-width: .25px;
      }

      .cls-3 {
        fill: #33507d;
      }

      .cls-3, .cls-4 {
        stroke-width: 0px;
      }

      .cls-4 {
        fill: #1d1d1b;
      }

      .cls-2 {
        fill: none;
        stroke: #eaf2ff;
        stroke-linecap: round;
        stroke-linejoin: round;
      }
    </style>
  </defs>
  <g>
    <g>
      <path class="cls-3" d="m56.77,194.2c.94-1.33,2.65-2.51,5.14-3.54l-3.1-1.7.35-.64,3.84,2.11-.35.64c-2.61,1.13-4.32,2.31-5.14,3.53l-.73-.4h-.01Z"/>
      <path class="cls-3" d="m60.04,195.99l.33-.63,3.06-.65c.91-.19,1.49-.53,1.76-1.01.17-.31.21-.61.12-.9s-.3-.52-.62-.7c-.38-.21-.75-.25-1.09-.11s-.61.42-.79.86l-.67-.43c.28-.6.68-.99,1.22-1.17s1.1-.11,1.68.21c.54.3.89.69,1.06,1.17.16.48.11.97-.17,1.47-.19.34-.46.61-.83.83-.37.21-.87.38-1.49.51l-2.2.45,2.72,1.5-.36.65-3.73-2.05h0Z"/>
      <path class="cls-3" d="m65.06,197.68l.77.42-.45.82-.77-.42.45-.82Z"/>
      <path class="cls-3" d="m66.47,199.53l2.54-4.62c-.52.13-1.06.09-1.65-.1l.35-.64c.63.19,1.27.16,1.9-.1l.57.31-3.03,5.52-.68-.37Z"/>
      <path class="cls-3" d="m72.23,195.42l-1.28,1.33-.86-.47,1.69-1.1.45.25h0Zm1.17.64l-1.28,1.33-.87-.48,1.69-1.1.46.25Z"/>
    </g>
    <g>
      <path class="cls-3" d="m62.17,183.44l2.54-4.62c-.52.13-1.06.09-1.65-.1l.35-.64c.63.19,1.27.16,1.9-.1l.57.31-3.03,5.52-.68-.37Z"/>
      <path class="cls-3" d="m65.67,185.44c-.59-.32-.98-.74-1.18-1.24s-.16-1,.11-1.5c.18-.32.43-.55.76-.7s.68-.19,1.05-.11c-.19-.25-.29-.51-.33-.81-.03-.29.02-.56.15-.8.24-.43.59-.69,1.05-.79.46-.09.96,0,1.49.3.52.28.86.65,1.03,1.09s.13.88-.1,1.31c-.13.24-.33.43-.6.56-.26.13-.55.18-.85.15.26.27.42.59.47.94.05.36-.01.7-.19,1.02-.27.49-.67.79-1.2.9-.53.1-1.08,0-1.66-.32h0Zm.33-.63c.37.21.72.27,1.05.21.33-.07.58-.25.75-.56s.2-.62.08-.93c-.12-.31-.37-.57-.74-.78-.38-.21-.73-.28-1.06-.21-.33.06-.58.25-.75.56s-.19.62-.07.94c.12.31.37.58.75.78h-.01Zm1.48-2.68c.3.17.59.22.86.17s.48-.21.63-.48c.15-.26.17-.52.07-.78s-.31-.47-.62-.65c-.33-.18-.63-.24-.9-.19-.28.05-.48.21-.62.48-.14.27-.16.53-.05.79.1.26.31.48.63.65h0Z"/>
      <path class="cls-3" d="m70.01,187.83c-.54-.3-.91-.69-1.11-1.18-.2-.49-.2-.99.02-1.5l.74.27c-.14.34-.14.67-.01.99s.38.58.73.77c.38.21.75.27,1.09.19s.61-.3.8-.65c.2-.36.24-.7.13-1.01-.11-.32-.35-.58-.73-.79-.22-.12-.46-.17-.7-.16l-.06-.63,2.69-.77-2.68-1.47.35-.64,3.53,1.94-.34.62-2.41.67c.58.25.95.62,1.13,1.12s.12,1.01-.18,1.56c-.29.54-.71.87-1.26.99-.54.13-1.12.02-1.72-.31h0Z"/>
      <path class="cls-3" d="m74.78,190.45c-.68-.37-1.06-.91-1.15-1.62-.09-.71.11-1.5.58-2.36.48-.87,1.04-1.46,1.68-1.76.64-.31,1.31-.27,1.98.1.67.37,1.05.91,1.14,1.62s-.1,1.5-.58,2.36c-.47.86-1.04,1.45-1.68,1.75-.65.31-1.31.28-1.98-.09h.01Zm.36-.65c.44.24.88.23,1.33-.03.45-.26.87-.72,1.24-1.4.37-.67.54-1.27.52-1.79-.02-.52-.25-.9-.69-1.14-.45-.25-.9-.24-1.35.02-.45.26-.86.73-1.23,1.41-.37.67-.54,1.27-.52,1.79.02.52.26.9.71,1.15h0Z"/>
    </g>
  </g>
  <path class="cls-2" d="m78.79,152.85c-16.79-9.24-33.58-18.47-50.37-27.71"/>
  <line class="cls-2" x1="32.1" y1="127.16" x2="32.1" y2="49.73"/>
  <path class="cls-2" d="m1.18,156.52c17.31-5.03,34.63-10.06,51.94-15.09"/>
  <line class="cls-2" x1="131.8" y1="225.15" x2="5.04" y2="155.4"/>
  <path class="cls-2" d="m127.01,226.54c17.63-5.12,35.25-10.24,52.88-15.36"/>
  <line class="cls-2" x1="181.25" y1="209.24" x2="183.09" y2="210.25"/>
  <line class="cls-2" x1="28.61" y1="47.72" x2="65.42" y2="68.98"/>
  <path class="cls-2" d="m68.06,70.5c1.01.58,2.02,1.17,3.04,1.75"/>
  <line class="cls-2" x1="243.88" y1="194.47" x2="276.12" y2="212.2"/>
  <path class="cls-2" d="m239.27,191.89c.61.34,1.23.68,1.84,1.01"/>
  <path class="cls-2" d="m82.26,150.45h-.07"/>
  <path class="cls-2" d="m98.53,127.06c4.52,9.06,9.03,18.09,13.52,27.09"/>
  <line class="cls-2" x1="76.44" y1="67.91" x2="68.05" y2="70.34"/>
  <path class="cls-2" d="m68.05,70.34h-.04s-.02.01-.02.02c-.01.01-.01.03,0,.04h0"/>
  <path class="cls-2" d="m111.97,154.38c-9.71-19.46-19.41-38.91-29.12-58.37"/>
  <path class="cls-2" d="m82.33,96.17c9.71,19.46,19.41,38.91,29.12,58.37"/>
  <path class="cls-2" d="m81.75,104.26l.05-8.03"/>
  <path class="cls-2" d="m106.38,153.86c-8.18-16.39-16.36-32.79-24.54-49.18"/>
  <line class="cls-2" x1="158.13" y1="173.67" x2="215.46" y2="157.02"/>
  <path class="cls-2" d="m158.24,173.72c1.89,2.2,3.78,4.4,5.67,6.6"/>
  <path class="cls-2" d="m221.03,164.94c.1-.33.19-.65.29-.98"/>
  <path class="cls-2" d="m237.53,192.39c.58-.17,1.17-.34,1.75-.51"/>
  <path class="cls-2" d="m241.12,192.9c-.58.17-1.17.34-1.75.51"/>
  <path class="cls-2" d="m140.36,79.31c9.71,19.46,19.41,38.91,29.12,58.37"/>
  <line class="cls-2" x1="141.1" y1="146.56" x2="171.85" y2="137.63"/>
  <line class="cls-2" x1="123.35" y1="151.71" x2="134.98" y2="148.34"/>
  <path class="cls-2" d="m71.1,72.26s.09.04.16.06c.03,0,.07.01.1.01h.1"/>
  <path class="cls-2" d="m76.8,67.97s-.09-.04-.16-.06c-.03,0-.07-.01-.1-.01h-.1"/>
  <path class="cls-2" d="m178.22,138.67s-.02-.09-.05-.14c-.02-.04-.06-.08-.11-.09"/>
  <line class="cls-2" x1="127.6" y1="143.12" x2="130.81" y2="149.55"/>
  <path class="cls-2" d="m77.69,67.62s.04.05.08.07"/>
  <path class="cls-2" d="m89.54,66.9c-1.01-.58-2.02-1.17-3.04-1.75"/>
  <path class="cls-2" d="m89.55,67.06h.04s.02-.01.02-.02c.01-.01.01-.03,0-.04h0"/>
  <line class="cls-2" x1="81.17" y1="69.5" x2="89.55" y2="67.06"/>
  <line class="cls-2" x1="128.42" y1="55.7" x2="169.61" y2="138.28"/>
  <path class="cls-2" d="m116.49,56.35s.04.05.08.07"/>
  <path class="cls-2" d="m106.27,122.7l.02-.02v-.03"/>
  <path class="cls-2" d="m128.36,55.79h.04s.02,0,.02-.02,0-.03,0-.04h0"/>
  <line class="cls-2" x1="151" y1="155.4" x2="199.51" y2="141.32"/>
  <path class="cls-2" d="m208.2,148.7c-.1.33-.19.65-.29.98"/>
  <path class="cls-2" d="m151.07,155.4c.69.09,1.37.18,2.06.27"/>
  <path class="cls-2" d="m208.13,148.4c-1.91-2.22-3.82-4.45-5.73-6.67"/>
  <line class="cls-2" x1="147.12" y1="153.57" x2="192.57" y2="140.37"/>
  <path class="cls-2" d="m198.64,141.37s-.02-.09-.05-.14c-.02-.04-.06-.08-.11-.09"/>
  <path class="cls-2" d="m198.67,141.56c0-.06-.02-.13-.03-.19"/>
  <line class="cls-2" x1="171.25" y1="188.94" x2="228.58" y2="172.29"/>
  <path class="cls-2" d="m171.36,188.99l5.67,6.6"/>
  <path class="cls-2" d="m234.14,180.22c.1-.33.19-.65.29-.98"/>
  <line class="cls-2" x1="109.02" y1="61.34" x2="150.22" y2="143.92"/>
  <path class="cls-2" d="m97.09,61.98s.04.05.08.07"/>
  <path class="cls-2" d="m108.94,61.27c-1.01-.58-2.02-1.17-3.04-1.75"/>
  <path class="cls-2" d="m108.96,61.43h.04s.02,0,.02-.02c.01,0,.01-.03,0-.04h0"/>
  <line class="cls-2" x1="100.57" y1="63.86" x2="108.96" y2="61.43"/>
  <path class="cls-2" d="m150.24,157.19c-3.82-4.45-7.64-8.9-11.46-13.35"/>
  <path class="cls-2" d="m133.53,145.37c3.82,4.45,7.64,8.9,11.46,13.35"/>
  <path class="cls-2" d="m138.22,143.38c-11.8-6.53-23.6-13.06-35.41-19.58"/>
  <path class="cls-2" d="m97.57,125.32c11.8,6.53,23.6,13.06,35.41,19.58"/>
  <path class="cls-2" d="m132.98,146.09c-11.53-6.38-23.06-12.75-34.59-19.13"/>
  <path class="cls-2" d="m143.76,158.55c-3.5-4.08-7-8.15-10.5-12.23"/>
  <path class="cls-2" d="m144.99,158.72c-.41-.05-.82-.11-1.24-.16"/>
  <path class="cls-2" d="m183.62,209.6v-5.45"/>
  <path class="cls-2" d="m183.41,203.59c-12.8-14.91-25.61-29.82-38.41-44.73"/>
  <path class="cls-2" d="m144.48,159.01c12.8,14.91,25.61,29.82,38.41,44.73"/>
  <path class="cls-2" d="m144.8,158.73c-10.94-1.45-21.89-2.9-32.83-4.35"/>
  <path class="cls-2" d="m111.45,154.53c10.94,1.45,21.89,2.9,32.83,4.35"/>
  <line class="cls-2" x1="145.15" y1="151.26" x2="185.76" y2="139.47"/>
  <line class="cls-2" x1="137.26" y1="153.56" x2="139.02" y2="153.04"/>
  <path class="cls-2" d="m137.29,153.55l2.46.33"/>
  <path class="cls-2" d="m191.83,140.47s-.02-.09-.05-.14c-.02-.04-.06-.08-.11-.09"/>
  <path class="cls-2" d="m87.39,64.8s.04.05.08.07"/>
  <path class="cls-2" d="m99.24,64.08c-1.01-.58-2.02-1.17-3.04-1.75"/>
  <path class="cls-2" d="m99.26,64.24h.04s.02-.01.02-.02c.01-.01.01-.03,0-.04h0"/>
  <line class="cls-2" x1="90.87" y1="66.68" x2="99.26" y2="64.24"/>
  <line class="cls-2" x1="118.72" y1="58.52" x2="159.92" y2="141.1"/>
  <path class="cls-2" d="m106.79,59.16s.04.05.08.07"/>
  <path class="cls-2" d="m118.64,58.45c-1.01-.58-2.02-1.17-3.04-1.75"/>
  <path class="cls-2" d="m118.66,58.61h.04s.02,0,.02-.02c.01,0,.01-.03,0-.04h0"/>
  <line class="cls-2" x1="110.27" y1="61.05" x2="118.66" y2="58.61"/>
  <line class="cls-2" x1="151.58" y1="166.03" x2="208.91" y2="149.38"/>
  <path class="cls-2" d="m151.68,166.08c1.89,2.2,3.78,4.4,5.67,6.6"/>
  <path class="cls-2" d="m214.47,157.31l.29-.98"/>
  <line class="cls-2" x1="164.69" y1="181.31" x2="222.02" y2="164.65"/>
  <path class="cls-2" d="m164.8,181.35c1.89,2.2,3.78,4.4,5.67,6.6"/>
  <path class="cls-2" d="m227.58,172.58c.09-.33.19-.65.29-.98"/>
  <line class="cls-2" x1="177.81" y1="196.58" x2="235.14" y2="179.93"/>
  <line class="cls-2" x1="241.19" y1="190.66" x2="183.86" y2="207.31"/>
  <path class="cls-2" d="m177.91,196.63c1.99,2.31,3.97,4.62,5.96,6.94"/>
  <path class="cls-2" d="m241.2,186.91c-1.98-2.31-3.97-4.62-5.96-6.93"/>
  <path class="cls-2" d="m241.26,190.52c0-1.13,0-2.26.02-3.38"/>
  <line class="cls-2" x1="143.17" y1="148.96" x2="178.95" y2="138.57"/>
  <line class="cls-2" x1="130.45" y1="152.65" x2="137.05" y2="150.74"/>
  <path class="cls-2" d="m185.03,139.57s-.02-.09-.05-.14c-.02-.04-.06-.08-.11-.09"/>
  <path class="cls-2" d="m159.48,163.19c.02-.08.05-.16.07-.24"/>
  <line class="cls-2" x1="150.81" y1="165.49" x2="159.55" y2="162.95"/>
  <path class="cls-2" d="m145.11,158.85c1.9,2.21,3.8,4.43,5.7,6.64"/>
  <path class="cls-2" d="m153.85,156.31c-.06-.07-.14-.14-.24-.15"/>
  <path class="cls-2" d="m140.18,154.38c-6.43-.85-12.85-1.7-19.28-2.55"/>
  <path class="cls-2" d="m153.61,156.16c-1.6-.21-3.2-.42-4.81-.64"/>
  <path class="cls-2" d="m112.16,154.37c10.53,1.39,21.06,2.79,31.6,4.18"/>
  <line class="cls-2" x1="102.81" y1="123.79" x2="106.31" y2="122.78"/>
  <path class="cls-2" d="m178.61,138.67c-.14-.02-.27-.04-.4-.05"/>
  <path class="cls-2" d="m106.29,122.66h-.02s-.02-.01-.03-.01c-.02,0-.04,0-.05.01"/>
  <path class="cls-2" d="m67.99,70.43s.04.05.08.07"/>
  <line class="cls-2" x1="101.22" y1="118.77" x2="98.11" y2="119.67"/>
  <line class="cls-2" x1="99.82" y1="116.88" x2="97.88" y2="117.45"/>
  <line class="cls-2" x1="99.3" y1="114.91" x2="96.18" y2="115.81"/>
  <line class="cls-2" x1="106.18" y1="122.66" x2="97.8" y2="125.09"/>
  <path class="cls-2" d="m79.84,69.72c-1.01-.58-2.02-1.17-3.04-1.75"/>
  <path class="cls-2" d="m79.85,69.88h.04s.02-.01.02-.02c.01-.01.01-.03,0-.04h0"/>
  <line class="cls-2" x1="71.46" y1="72.32" x2="79.85" y2="69.88"/>
  <line class="cls-2" x1="117.09" y1="57.55" x2="116.49" y2="56.35"/>
  <line class="cls-2" x1="97.69" y1="63.19" x2="97.09" y2="61.98"/>
  <path class="cls-2" d="m158,173.99c.03-.08.05-.17.07-.25"/>
  <line class="cls-2" x1="78.29" y1="68.82" x2="77.69" y2="67.62"/>
  <path class="cls-2" d="m178.23,138.78l-.02-.11"/>
  <line class="cls-2" x1="150.88" y1="165.7" x2="159.58" y2="163.18"/>
  <line class="cls-2" x1="97.53" y1="125.24" x2="97.47" y2="125.31"/>
  <path class="cls-2" d="m148.37,155.02c.54.07,1.07.14,1.61.21"/>
  <path class="cls-2" d="m171.12,189.27c.03-.08.05-.17.07-.25"/>
  <path class="cls-2" d="m106.27,153.63c-8-1.06-16-2.12-24.01-3.18"/>
  <path class="cls-2" d="m191.85,140.58l-.02-.11"/>
  <line class="cls-2" x1="129.82" y1="149.84" x2="129.81" y2="149.84"/>
  <line class="cls-2" x1="161.22" y1="143.72" x2="161.22" y2="143.72"/>
  <line class="cls-2" x1="149.22" y1="144.21" x2="149.21" y2="144.2"/>
  <line class="cls-2" x1="107.39" y1="60.37" x2="106.79" y2="59.16"/>
  <path class="cls-2" d="m97.8,125.09s-.1.04-.14.06-.09.06-.12.09"/>
  <path class="cls-2" d="m97.51,125.39s.04-.05.06-.07"/>
  <path class="cls-2" d="m171.51,137.73c-.5-.07-1.01-.13-1.51-.2"/>
  <line class="cls-2" x1="95.79" y1="115.02" x2="98.9" y2="114.11"/>
  <path class="cls-2" d="m198.67,141.54h.04"/>
  <line class="cls-2" x1="169.31" y1="137.66" x2="169.31" y2="137.66"/>
  <path class="cls-2" d="m169.48,137.68c.5.07,1.01.13,1.51.2"/>
  <line class="cls-2" x1="81.78" y1="98.09" x2="67.99" y2="70.43"/>
  <line class="cls-2" x1="87.99" y1="66.01" x2="87.39" y2="64.8"/>
  <path class="cls-2" d="m221.29,164.03c.19.22.38.45.57.67"/>
  <path class="cls-2" d="m234.41,179.3c.19.22.38.44.57.67"/>
  <path class="cls-2" d="m199.23,141.4c-.2-.03-.4-.05-.6-.08"/>
  <path class="cls-2" d="m192.22,140.47l-.41-.05"/>
  <path class="cls-2" d="m208.18,148.76c.19.22.38.45.57.67"/>
  <path class="cls-2" d="m238.91,191.99l-.46-.54"/>
  <line class="cls-2" x1="89.62" y1="66.97" x2="123.74" y2="135.37"/>
  <line class="cls-2" x1="158.92" y1="141.39" x2="158.92" y2="141.38"/>
  <path class="cls-2" d="m140.06,79.03c.07,0,.13.06.18.11.05.05.09.11.12.17"/>
  <line class="cls-2" x1="140.05" y1="79.02" x2="140.51" y2="78.88"/>
  <line class="cls-2" x1="98.9" y1="114.11" x2="99.3" y2="114.91"/>
  <path class="cls-2" d="m81.96,95.89c.08-.02.17.03.22.08.06.06.11.13.14.2"/>
  <line class="cls-2" x1="81.96" y1="95.89" x2="82.49" y2="95.74"/>
  <path class="cls-2" d="m82.85,96.01c-.04-.07-.08-.14-.14-.2-.06-.05-.14-.1-.22-.08"/>
  <path class="cls-2" d="m81.79,96.23c0-.07,0-.14.03-.2.02-.06.06-.12.13-.14"/>
  <path class="cls-2" d="m81.85,104.68c-.06-.13-.1-.28-.1-.42"/>
  <line class="cls-2" x1="111.97" y1="154.38" x2="111.45" y2="154.53"/>
  <path class="cls-2" d="m111.45,154.53c-1.69-.22-3.37-.45-5.06-.67"/>
  <path class="cls-2" d="m158.13,173.67h.06s.03.02.05.04"/>
  <path class="cls-2" d="m158.08,173.74s.03-.06.06-.07"/>
  <path class="cls-2" d="m215.57,157.07s-.03-.03-.05-.04-.04-.02-.06,0"/>
  <path class="cls-2" d="m221.24,163.67c-1.89-2.2-3.78-4.4-5.67-6.6"/>
  <path class="cls-2" d="m163.91,180.32s.06.09.07.14c0,.05.02.11,0,.16"/>
  <path class="cls-2" d="m221.31,163.97v-.16c0-.05-.04-.1-.07-.14"/>
  <path class="cls-2" d="m163.98,180.62c-.02.08-.05.17-.07.25"/>
  <path class="cls-2" d="m238.62,193.36c-.4-.22-.81-.44-1.21-.67"/>
  <path class="cls-2" d="m237.3,192.57c0-.05.05-.09.08-.12.04-.03.09-.05.14-.06"/>
  <path class="cls-2" d="m237.3,193.06c0,.06.06.1.1.13"/>
  <line class="cls-2" x1="237.3" y1="193.06" x2="237.3" y2="192.57"/>
  <path class="cls-2" d="m237.41,192.7s-.1-.07-.1-.13"/>
  <path class="cls-2" d="m237.41,193.19c.4.22.81.44,1.21.67"/>
  <path class="cls-2" d="m238.62,193.86c.11.06.26.08.37.09.12,0,.26,0,.38-.04"/>
  <path class="cls-2" d="m239.37,193.41c-.12.03-.26.05-.38.04-.12,0-.27-.03-.37-.09"/>
  <path class="cls-2" d="m239.37,193.9c.58-.17,1.17-.34,1.75-.51"/>
  <line class="cls-2" x1="241.12" y1="192.9" x2="241.12" y2="193.4"/>
  <path class="cls-2" d="m169.48,137.68c-.06,0-.11-.02-.17-.02"/>
  <path class="cls-2" d="m140.88,79.16c-.04-.07-.08-.14-.14-.2-.06-.05-.14-.1-.22-.08"/>
  <line class="cls-2" x1="169.48" y1="137.68" x2="170" y2="137.53"/>
  <line class="cls-2" x1="96.72" y1="116.89" x2="99.43" y2="116.11"/>
  <path class="cls-2" d="m170,137.53c-9.71-19.46-19.41-38.91-29.12-58.37"/>
  <line class="cls-2" x1="121.61" y1="155.66" x2="121.61" y2="155.66"/>
  <path class="cls-2" d="m123.38,151.71c2.06.27,4.12.55,6.18.82"/>
  <path class="cls-2" d="m171.85,137.63s-.02,0-.02,0"/>
  <path class="cls-2" d="m123.35,151.71h.03"/>
  <path class="cls-2" d="m123.28,151.83c0,.1-.01.21-.02.31"/>
  <path class="cls-2" d="m129.56,152.53s.09.05.11.09.04.09.05.14"/>
  <path class="cls-2" d="m171.88,137.62h-.03"/>
  <path class="cls-2" d="m123.28,151.83s0-.05.02-.07c0-.02.03-.04.05-.05"/>
  <path class="cls-2" d="m178.06,138.44c-2.06-.27-4.12-.55-6.18-.82"/>
  <path class="cls-2" d="m129.71,152.76c0,.08.03.16.04.25"/>
  <path class="cls-2" d="m77.76,67.69c1.01.58,2.02,1.17,3.04,1.75"/>
  <path class="cls-2" d="m89.62,66.97s-.04-.05-.08-.07"/>
  <path class="cls-2" d="m86.5,65.15s-.09-.04-.16-.06c-.03,0-.07-.01-.1-.01h-.1"/>
  <path class="cls-2" d="m80.8,69.44s.09.04.16.06c.03,0,.07.01.1.01h.1"/>
  <path class="cls-2" d="m77.75,67.53h-.04s-.02.01-.02.02c-.01.01-.01.03,0,.04h0"/>
  <line class="cls-2" x1="86.14" y1="65.09" x2="77.75" y2="67.53"/>
  <line class="cls-2" x1="159.58" y1="163.18" x2="159.51" y2="163.1"/>
  <line class="cls-2" x1="153.89" y1="155.81" x2="159.62" y2="162.49"/>
  <line class="cls-2" x1="119.97" y1="58.23" x2="128.36" y2="55.79"/>
  <path class="cls-2" d="m116.57,56.42c1.01.58,2.02,1.17,3.04,1.75"/>
  <path class="cls-2" d="m128.42,55.7s-.04-.05-.08-.07"/>
  <path class="cls-2" d="m125.31,53.88s-.09-.04-.16-.06c-.03,0-.07,0-.1,0h-.1"/>
  <path class="cls-2" d="m128.34,55.63c-1.01-.58-2.02-1.17-3.04-1.75"/>
  <path class="cls-2" d="m119.6,58.17s.09.04.16.06c.03,0,.07,0,.1,0h.1"/>
  <path class="cls-2" d="m116.55,56.25h-.04s-.02,0-.02.02c-.01,0-.01.03,0,.04h0"/>
  <line class="cls-2" x1="124.94" y1="53.82" x2="116.55" y2="56.25"/>
  <path class="cls-2" d="m153.13,155.67c.23.03.45.06.68.09"/>
  <path class="cls-2" d="m199.51,141.32h.07"/>
  <path class="cls-2" d="m151,155.4c-.08.02-.12.1-.14.17-.02.07-.03.15-.02.22"/>
  <path class="cls-2" d="m159.58,163.18c.04-.13.08-.26.12-.4"/>
  <path class="cls-2" d="m151.07,155.4h-.07"/>
  <path class="cls-2" d="m159.62,162.49s.06.09.07.14c0,.05.02.11,0,.16"/>
  <path class="cls-2" d="m153.81,155.76h0"/>
  <path class="cls-2" d="m202.32,141.67c-.91-.12-1.83-.24-2.74-.36"/>
  <path class="cls-2" d="m202.4,141.73s-.05-.05-.08-.05"/>
  <path class="cls-2" d="m153.83,155.77s.05.03.07.05"/>
  <path class="cls-2" d="m208.2,148.7v-.16c0-.05-.04-.1-.07-.14"/>
  <path class="cls-2" d="m192.57,140.37s-.02,0-.02,0"/>
  <path class="cls-2" d="m149.98,155.23s.09.05.11.09.04.09.05.14"/>
  <path class="cls-2" d="m192.6,140.37h-.03"/>
  <path class="cls-2" d="m198.48,141.15c-1.96-.26-3.93-.52-5.89-.78"/>
  <path class="cls-2" d="m150.14,155.46c0,.08.03.16.04.25"/>
  <path class="cls-2" d="m171.25,188.94h.06s.03.02.05.04"/>
  <path class="cls-2" d="m171.19,189.01s.03-.06.06-.07"/>
  <path class="cls-2" d="m228.69,172.34s-.03-.03-.05-.04c-.02,0-.04-.02-.06,0"/>
  <path class="cls-2" d="m234.36,178.94c-1.89-2.2-3.78-4.4-5.67-6.6"/>
  <path class="cls-2" d="m177.03,195.6s.06.09.07.14c0,.05.02.11,0,.16"/>
  <path class="cls-2" d="m234.43,179.24v-.16c0-.05-.04-.1-.07-.14"/>
  <path class="cls-2" d="m177.1,195.89c-.02.08-.05.17-.07.25"/>
  <path class="cls-2" d="m97.17,62.05c1.01.58,2.02,1.17,3.04,1.75"/>
  <path class="cls-2" d="m109.02,61.34s-.04-.05-.08-.07"/>
  <path class="cls-2" d="m105.9,59.51s-.09-.04-.16-.06c-.03,0-.07,0-.1,0h-.1"/>
  <path class="cls-2" d="m100.2,63.8s.09.04.16.06c.03,0,.07,0,.1,0h.1"/>
  <path class="cls-2" d="m97.15,61.89h-.04s-.02,0-.02.02c-.01,0-.01.03,0,.04h0"/>
  <line class="cls-2" x1="105.54" y1="59.45" x2="97.15" y2="61.89"/>
  <path class="cls-2" d="m183.09,204.31v5.94"/>
  <path class="cls-2" d="m144.28,158.88c.08,0,.15.07.2.13"/>
  <path class="cls-2" d="m81.74,150.6l24.65,3.26"/>
  <line class="cls-2" x1="131.12" y1="152.46" x2="131.12" y2="152.46"/>
  <line class="cls-2" x1="150.53" y1="146.83" x2="150.52" y2="146.82"/>
  <path class="cls-2" d="m130.48,152.65c1.96.26,3.93.52,5.89.78"/>
  <line class="cls-2" x1="99.32" y1="64.15" x2="139.49" y2="144.68"/>
  <path class="cls-2" d="m185.04,139.68l-.02-.11"/>
  <line class="cls-2" x1="79.92" y1="69.79" x2="106.29" y2="122.66"/>
  <path class="cls-2" d="m151.45,166.36c.02-.08.05-.17.07-.25"/>
  <path class="cls-2" d="m164.56,181.63c.02-.08.05-.17.07-.25"/>
  <path class="cls-2" d="m177.67,196.9c.02-.08.05-.17.07-.25"/>
  <path class="cls-2" d="m108.34,126.85c-.68-1.36-1.35-2.72-2.03-4.07"/>
  <path class="cls-2" d="m185.42,139.57c-.14-.02-.27-.04-.4-.05"/>
  <path class="cls-2" d="m151.79,149.34h0"/>
  <line class="cls-2" x1="151.78" y1="149.34" x2="151.78" y2="149.34"/>
  <line class="cls-2" x1="151.87" y1="149.32" x2="151.87" y2="149.31"/>
  <line class="cls-2" x1="99.43" y1="116.11" x2="99.82" y2="116.88"/>
  <path class="cls-2" d="m183.62,208.06c.11-.02.23-.02.34,0,.1,0,.23.03.32.08"/>
  <path class="cls-2" d="m138.78,143.85c-.16-.18-.34-.35-.56-.47"/>
  <path class="cls-2" d="m132.98,144.9c.21.12.4.29.56.47"/>
  <line class="cls-2" x1="97.57" y1="125.32" x2="102.81" y2="123.79"/>
  <path class="cls-2" d="m98.39,126.96c-.27-.55-.55-1.09-.82-1.64"/>
  <path class="cls-2" d="m133.25,146.32c-.08-.09-.17-.18-.28-.24"/>
  <line class="cls-2" x1="150.24" y1="157.19" x2="144.99" y2="158.72"/>
  <path class="cls-2" d="m81.67,150.6h.07"/>
  <line class="cls-2" x1="81.67" y1="150.6" x2="82.19" y2="150.45"/>
  <path class="cls-2" d="m81.5,150.95c0-.07,0-.14.03-.2.02-.06.07-.12.13-.14"/>
  <path class="cls-2" d="m81.5,154.35v-3.4"/>
  <path class="cls-2" d="m89.58,158.8c-2.69-1.48-5.38-2.96-8.08-4.44"/>
  <path class="cls-2" d="m89.66,158.82s-.06,0-.08-.03"/>
  <path class="cls-2" d="m144.02,166.02c-18.12-2.4-36.24-4.8-54.36-7.2"/>
  <path class="cls-2" d="m144.21,166.15c-.05-.06-.12-.12-.2-.13"/>
  <path class="cls-2" d="m181.13,209.14c-12.31-14.33-24.61-28.66-36.92-42.99"/>
  <path class="cls-2" d="m181.25,209.24s-.08-.06-.12-.1"/>
  <line class="cls-2" x1="183.09" y1="210.25" x2="183.62" y2="210.1"/>
  <path class="cls-2" d="m183.62,204.16c0-.1-.02-.21-.05-.3s-.08-.19-.15-.27"/>
  <path class="cls-2" d="m182.89,203.74c.07.08.12.17.15.27s.05.2.05.3"/>
  <path class="cls-2" d="m145,158.86c-.05-.06-.12-.12-.2-.13"/>
  <path class="cls-2" d="m185.76,139.47s-.02,0-.02,0"/>
  <path class="cls-2" d="m137.26,153.56h.03"/>
  <path class="cls-2" d="m137.2,153.75c0,.08.03.16.04.25"/>
  <path class="cls-2" d="m137.2,153.75v-.11s.02-.07.06-.08"/>
  <path class="cls-2" d="m185.79,139.47h-.03"/>
  <path class="cls-2" d="m191.68,140.25c-1.96-.26-3.93-.52-5.89-.78"/>
  <path class="cls-2" d="m185.59,208.92c0,.05-.05.09-.08.12-.04.03-.09.05-.14.06"/>
  <path class="cls-2" d="m185.36,209.1c-.58.17-1.17.34-1.75.51"/>
  <line class="cls-2" x1="185.59" y1="208.92" x2="185.59" y2="209.42"/>
  <path class="cls-2" d="m183.62,210.1c.58-.17,1.17-.34,1.75-.51"/>
  <line class="cls-2" x1="183.62" y1="209.6" x2="183.62" y2="210.1"/>
  <path class="cls-2" d="m185.36,209.59s.1-.03.14-.06c.04-.02.08-.06.08-.12"/>
  <path class="cls-2" d="m185.48,208.8s.1.07.1.13"/>
  <path class="cls-2" d="m184.27,208.13c.4.22.81.44,1.21.67"/>
  <path class="cls-2" d="m87.47,64.87c1.01.58,2.02,1.17,3.04,1.75"/>
  <path class="cls-2" d="m99.32,64.15s-.04-.05-.08-.07"/>
  <path class="cls-2" d="m96.2,62.33s-.09-.04-.16-.06c-.03,0-.07,0-.1,0h-.1"/>
  <path class="cls-2" d="m90.5,66.62s.09.04.16.06c.03,0,.07.01.1.01h.1"/>
  <path class="cls-2" d="m87.45,64.71h-.04s-.02.01-.02.02c-.01.01-.01.03,0,.04h0"/>
  <line class="cls-2" x1="95.84" y1="62.27" x2="87.45" y2="64.71"/>
  <path class="cls-2" d="m106.87,59.23c1.01.58,2.02,1.17,3.04,1.75"/>
  <path class="cls-2" d="m118.72,58.52s-.04-.05-.08-.07"/>
  <path class="cls-2" d="m115.61,56.69s-.09-.04-.16-.06c-.03,0-.07,0-.1,0h-.11"/>
  <path class="cls-2" d="m109.9,60.99s.09.04.16.06c.03,0,.07,0,.1,0h.1"/>
  <path class="cls-2" d="m106.85,59.07h-.04s-.02,0-.02.02c-.01,0-.01.03,0,.04h0"/>
  <line class="cls-2" x1="115.24" y1="56.64" x2="106.85" y2="59.07"/>
  <line class="cls-2" x1="98.11" y1="119.67" x2="96.72" y2="116.89"/>
  <line class="cls-2" x1="96.18" y1="115.81" x2="95.79" y2="115.02"/>
  <path class="cls-2" d="m241.12,190.68v2.22"/>
  <path class="cls-2" d="m214.74,156.4c.19.22.38.45.57.67"/>
  <path class="cls-2" d="m227.85,171.67c.19.22.38.45.57.67"/>
  <path class="cls-2" d="m151.58,166.03h.06s.03.02.05.04"/>
  <path class="cls-2" d="m151.52,166.1s.03-.06.06-.07"/>
  <path class="cls-2" d="m209.01,149.43s-.03-.03-.05-.04c-.02,0-.04-.02-.06,0"/>
  <path class="cls-2" d="m214.68,156.04c-1.89-2.2-3.78-4.4-5.67-6.6"/>
  <path class="cls-2" d="m157.35,172.69s.06.09.07.14c0,.05.02.11,0,.16"/>
  <path class="cls-2" d="m214.76,156.33v-.16c0-.05-.04-.1-.07-.14"/>
  <path class="cls-2" d="m157.43,172.98c-.03.08-.05.17-.07.25"/>
  <path class="cls-2" d="m164.69,181.31h.06s.03.02.05.04"/>
  <path class="cls-2" d="m164.63,181.38s.03-.06.06-.07"/>
  <path class="cls-2" d="m222.13,164.7s-.03-.03-.05-.04c-.02,0-.04-.02-.06,0"/>
  <path class="cls-2" d="m227.8,171.31c-1.89-2.2-3.78-4.4-5.67-6.6"/>
  <path class="cls-2" d="m170.47,187.96s.06.09.07.14c0,.05.02.11,0,.16"/>
  <path class="cls-2" d="m227.87,171.6v-.16c0-.05-.04-.1-.07-.14"/>
  <path class="cls-2" d="m170.54,188.26c-.02.08-.05.17-.07.25"/>
  <path class="cls-2" d="m177.81,196.58h.06s.03.02.05.04"/>
  <path class="cls-2" d="m183.93,207.18s0,.05,0,.08c0,.02-.03.05-.05.06"/>
  <path class="cls-2" d="m183.86,207.31h-.06s-.03-.02-.05-.04"/>
  <path class="cls-2" d="m241.19,190.66s.04-.03.05-.06c0-.02,0-.05,0-.08"/>
  <path class="cls-2" d="m183.76,207.26c-.05-.05-.09-.11-.14-.16"/>
  <path class="cls-2" d="m177.75,196.65s.03-.06.06-.07"/>
  <path class="cls-2" d="m235.24,179.98s-.03-.03-.05-.04-.04-.02-.06,0"/>
  <path class="cls-2" d="m183.87,203.56c.05.06.08.15.08.23"/>
  <path class="cls-2" d="m241.28,187.14c0-.08-.03-.17-.08-.23"/>
  <path class="cls-2" d="m183.95,203.79c0,1.13,0,2.26-.02,3.38"/>
  <path class="cls-2" d="m178.95,138.57s-.02,0-.02,0"/>
  <path class="cls-2" d="m130.45,152.65h.03"/>
  <path class="cls-2" d="m130.39,152.85c0,.08.03.16.04.25"/>
  <path class="cls-2" d="m130.39,152.85v-.11s.02-.07.06-.08"/>
  <path class="cls-2" d="m178.98,138.56h-.03"/>
  <path class="cls-2" d="m184.87,139.34c-1.96-.26-3.93-.52-5.89-.78"/>
  <path class="cls-2" d="m136.37,153.43s.09.05.11.09.04.09.05.14"/>
  <path class="cls-2" d="m136.52,153.66c0,.08.03.16.04.25"/>
  <line class="cls-2" x1="106.17" y1="122.82" x2="106.27" y2="122.7"/>
  <path class="cls-2" d="m150.81,165.49s-.02.06-.03.09"/>
  <path class="cls-2" d="m159.55,162.95c-1.9-2.21-3.8-4.43-5.7-6.64"/>
  <path class="cls-2" d="m144.87,158.7c.1,0,.18.08.24.15"/>
  <path class="cls-2" d="m120.9,151.83s-.08-.03-.11-.06-.05-.07-.07-.1"/>
  <path class="cls-2" d="m111.98,154.2s.04.07.07.1.07.06.11.06"/>
  <path class="cls-2" d="m120.72,151.66c-2.84-5.69-5.68-11.38-8.51-17.06"/>
  <line class="cls-2" x1="159.48" y1="163.19" x2="150.87" y2="165.69"/>
  <path class="cls-2" d="m202.83,141.87c-.12-.02-.23-.03-.35-.05"/>
  <line class="cls-2" x1="98.48" y1="118.66" x2="100.83" y2="117.98"/>
  <path class="cls-2" d="m203.03,142c-.05-.06-.12-.12-.2-.13"/>
  <line class="cls-2" x1="100.83" y1="117.98" x2="101.22" y2="118.77"/>
  <path class="cls-2" d="m241.44,186.73c-12.8-14.91-25.61-29.82-38.41-44.73"/>
  <path class="cls-2" d="m241.64,187.3c0-.1-.02-.21-.05-.3s-.08-.19-.15-.27"/>
  <path class="cls-2" d="m241.64,193.24v-5.94"/>
  <line class="cls-2" x1="241.64" y1="193.24" x2="241.12" y2="193.4"/>
  <line class="cls-2" x1="97.88" y1="117.45" x2="98.48" y2="118.66"/>
  <line class="cls-2" x1="96.74" y1="116.92" x2="99.39" y2="116.15"/>
  <line class="cls-2" x1="95.81" y1="115.05" x2="98.86" y2="114.16"/>
  <path class="cls-2" d="m79.92,69.79s-.04-.05-.08-.07"/>
  <line class="cls-2" x1="99.39" y1="116.15" x2="99.76" y2="116.9"/>
  <line class="cls-2" x1="97.83" y1="117.5" x2="98.44" y2="118.71"/>
  <line class="cls-2" x1="100.79" y1="118.03" x2="101.17" y2="118.79"/>
  <line class="cls-2" x1="99.43" y1="116.11" x2="99.39" y2="116.15"/>
  <line class="cls-2" x1="97.88" y1="117.45" x2="97.83" y2="117.5"/>
  <line class="cls-2" x1="100.83" y1="117.98" x2="100.79" y2="118.03"/>
  <line class="cls-2" x1="98.44" y1="118.71" x2="100.79" y2="118.03"/>
  <line class="cls-2" x1="98.48" y1="118.66" x2="98.44" y2="118.71"/>
  <line class="cls-2" x1="98.86" y1="114.16" x2="99.24" y2="114.92"/>
  <line class="cls-2" x1="98.9" y1="114.11" x2="98.86" y2="114.16"/>
  <line class="cls-2" x1="202.83" y1="141.87" x2="202.59" y2="141.95"/>
  <line class="cls-2" x1="125.2" y1="136.17" x2="90.5" y2="66.62"/>
  <line class="cls-2" x1="140.88" y1="79.16" x2="140.36" y2="79.31"/>
  <line class="cls-2" x1="141.44" y1="146.46" x2="100.2" y2="63.8"/>
  <line class="cls-2" x1="131.74" y1="149.28" x2="129.07" y2="143.92"/>
  <line class="cls-2" x1="151.14" y1="143.64" x2="109.9" y2="60.99"/>
  <line class="cls-2" x1="153.83" y1="156.29" x2="153.83" y2="155.77"/>
  <line class="cls-2" x1="160.84" y1="140.83" x2="119.6" y2="58.17"/>
  <line class="cls-2" x1="171.88" y1="137.62" x2="141.11" y2="146.56"/>
  <line class="cls-2" x1="134.99" y1="148.34" x2="123.38" y2="151.71"/>
  <line class="cls-2" x1="133.28" y1="145.11" x2="138.52" y2="143.59"/>
  <line class="cls-2" x1="110.04" y1="127.75" x2="80.98" y2="69.5"/>
  <line class="cls-2" x1="122.15" y1="152.03" x2="113.91" y2="135.5"/>
  <line class="cls-2" x1="112.05" y1="154.31" x2="120.79" y2="151.77"/>
  <line class="cls-2" x1="97.58" y1="125.15" x2="71.22" y2="72.3"/>
  <line class="cls-2" x1="136.86" y1="150.53" x2="129.67" y2="152.62"/>
  <line class="cls-2" x1="178.17" y1="138.53" x2="142.99" y2="148.75"/>
  <line class="cls-2" x1="138.84" y1="152.83" x2="136.47" y2="153.52"/>
  <line class="cls-2" x1="184.98" y1="139.43" x2="144.97" y2="151.06"/>
  <line class="cls-2" x1="191.78" y1="140.34" x2="147" y2="153.34"/>
  <line class="cls-2" x1="198.59" y1="141.24" x2="150.09" y2="155.32"/>
  <line class="cls-2" x1="202.36" y1="141.69" x2="153.86" y2="155.78"/>
  <line class="cls-2" x1="145" y1="158.76" x2="153.74" y2="156.22"/>
  <line class="cls-2" x1="159.69" y1="162.63" x2="208.2" y2="148.54"/>
  <line class="cls-2" x1="214.75" y1="156.18" x2="157.42" y2="172.83"/>
  <line class="cls-2" x1="221.31" y1="163.81" x2="163.98" y2="180.46"/>
  <line class="cls-2" x1="227.87" y1="171.45" x2="170.54" y2="188.1"/>
  <line class="cls-2" x1="234.43" y1="179.08" x2="177.1" y2="195.74"/>
  <line class="cls-2" x1="241.26" y1="187.02" x2="183.93" y2="203.67"/>
  <line class="cls-2" x1="241.59" y1="187" x2="241.27" y2="187.09"/>
  <line class="cls-2" x1="238.99" y1="193.45" x2="238.99" y2="193.94"/>
  <line class="cls-2" x1="183.04" y1="204.01" x2="183.56" y2="203.85"/>
  <line class="cls-2" x1="144.39" y1="158.93" x2="144.91" y2="158.77"/>
  <line class="cls-2" x1="203.03" y1="142" x2="202.71" y2="142.09"/>
  <polyline class="cls-1" points="32.04 49.77 33.33 54.81 30.86 54.81 32.04 49.77"/>
  <polyline class="cls-1" points="32.13 127.1 30.96 122.5 33.21 122.5 32.13 127.1"/>
  <polyline class="cls-1" points="5.05 155.44 10.08 156.78 8.87 158.94 5.05 155.44"/>
  <polyline class="cls-1" points="131.78 225.13 126.75 223.79 127.95 221.63 131.78 225.13"/>
  <polyline class="cls-1" points="272.46 210.13 273.68 205.07 271.21 205.1 272.46 210.13"/>
  <g>
    <g>
      <path class="cls-4" d="m89.88,21.07c.62-.18,1.18-.13,1.68.14.51.27.84.7,1.01,1.29.17.6.1,1.15-.19,1.65-.3.5-.77.84-1.4,1.02-.67.19-1.28.09-1.83-.29-.55-.38-.94-.99-1.18-1.82-.31-1.07-.29-1.98.06-2.72s.93-1.23,1.75-1.46c.63-.18,1.22-.15,1.79.08l-.22.72c-.45-.21-.91-.24-1.38-.11-.58.16-1,.51-1.26,1.05-.27.54-.31,1.13-.14,1.78.06-.31.21-.59.44-.83.24-.24.52-.41.86-.51h.01Zm-.19,3.29c.33.18.7.22,1.1.1.4-.11.69-.34.87-.67s.22-.7.11-1.1c-.11-.39-.33-.68-.67-.86-.33-.18-.7-.21-1.1-.1-.4.11-.69.33-.88.66-.19.33-.22.69-.11,1.08.11.4.34.69.67.87v.02Z"/>
      <path class="cls-4" d="m94.28,24.16c-.26-1.59.12-3.61,1.16-6.06l-3.37.96-.2-.69,4.17-1.19.2.69c-1.05,2.6-1.44,4.62-1.16,6.06,0,0-.8.23-.8.23Z"/>
      <path class="cls-4" d="m100.43,22.48c-.74.21-1.38.1-1.93-.34s-.96-1.13-1.23-2.07c-.27-.94-.28-1.74-.04-2.41.24-.66.73-1.1,1.47-1.31.73-.21,1.37-.09,1.93.35s.97,1.13,1.23,2.06c.27.94.28,1.74.04,2.41s-.73,1.1-1.46,1.31h-.01Zm-.2-.7c.47-.13.78-.45.92-.95s.11-1.11-.1-1.84-.5-1.27-.88-1.62-.81-.46-1.28-.32c-.49.14-.8.45-.93.95s-.1,1.11.11,1.85c.21.73.5,1.27.88,1.62s.81.46,1.29.32h-.01Z"/>
    </g>
    <g>
      <path class="cls-4" d="m89.51,38.15l-.2-.67,1.7-2.58c.5-.77.68-1.41.53-1.93-.1-.34-.28-.57-.54-.72-.27-.14-.57-.16-.92-.06-.42.12-.7.35-.84.68s-.13.72.04,1.15l-.77.16c-.22-.61-.21-1.17.05-1.67s.7-.84,1.33-1.02c.59-.17,1.11-.14,1.56.09s.75.61.91,1.15c.1.36.1.75-.01,1.16s-.34.87-.7,1.39l-1.23,1.85,2.95-.84.2.7-4.05,1.15h-.01Z"/>
      <path class="cls-4" d="m95.38,32.14c.62-.18,1.18-.13,1.68.14.51.27.84.7,1.01,1.29.17.6.1,1.15-.19,1.65-.3.5-.77.84-1.4,1.02-.67.19-1.28.09-1.83-.29s-.94-.99-1.18-1.82c-.31-1.07-.29-1.98.05-2.72.34-.74.93-1.23,1.75-1.46.63-.18,1.23-.15,1.79.08l-.22.72c-.45-.21-.91-.24-1.38-.11-.58.16-1,.51-1.26,1.05-.27.53-.31,1.13-.14,1.78.06-.31.21-.59.44-.83.24-.24.52-.41.86-.51h.02Zm-.19,3.29c.33.18.7.22,1.1.1.4-.11.69-.34.87-.67.18-.33.22-.7.11-1.1-.11-.39-.33-.68-.67-.86-.33-.18-.7-.21-1.1-.1s-.69.33-.88.66c-.19.33-.23.69-.11,1.08.11.4.34.69.67.87v.02Z"/>
      <path class="cls-4" d="m99.28,34.41l.84-.24.25.89-.84.24-.25-.89Z"/>
      <path class="cls-4" d="m103.95,34.04l-.42-1.46-3.16.9-.2-.7,1.95-4.69.9-.26,1.09,3.83.86-.25.2.7-.86.25.42,1.46s-.78.22-.78.22Zm-2.93-1.51l2.32-.66-.83-2.94-1.48,3.6h0Z"/>
      <path class="cls-4" d="m105.84,26.96l.02,1.83-.93.27.43-1.95.49-.14h0Zm1.27-.36l.02,1.83-.94.27.43-1.95.5-.14h0Z"/>
    </g>
  </g>
  <path class="cls-2" d="m205.01,142.19c23.81,13.01,47.62,26.01,71.44,39.02"/>
  <path class="cls-2" d="m272.46,210.11v-30.93"/>
  <path class="cls-2" d="m67.56,34.92c19.17-5.53,38.34-11.06,57.52-16.59"/>
  <line class="cls-2" x1="67.41" y1="67.19" x2="67.41" y2="30.47"/>
  <line class="cls-2" x1="125.15" y1="51.29" x2="125.15" y2="13.97"/>
  <polyline class="cls-1" points="125.14 18.32 120.61 20.89 119.96 18.5 125.14 18.32"/>
  <polyline class="cls-1" points="67.43 34.92 71.96 32.36 72.61 34.74 67.43 34.92"/>
  <polyline class="cls-1" points="272.46 179.04 271.23 184.1 273.7 184.07 272.46 179.04"/>
  <g>
    <g>
      <path class="cls-3" d="m281.42,200.21h-5.27c.36.39.59.89.7,1.49h-.73c-.14-.65-.47-1.19-1-1.62v-.65h6.3v.77h0Z"/>
      <path class="cls-3" d="m281.42,198.68h-.71l-2.04-2.36c-.61-.7-1.18-1.05-1.73-1.05-.35,0-.64.11-.85.33s-.31.51-.31.88c0,.44.14.77.43,1.01.29.23.66.33,1.13.28l-.05.79c-.66.05-1.2-.12-1.61-.51-.41-.39-.62-.91-.62-1.57,0-.62.17-1.11.52-1.49s.8-.56,1.37-.56c.38,0,.76.11,1.12.33.37.22.75.58,1.16,1.06l1.46,1.71v-3.1h.74v4.26h0Z"/>
      <path class="cls-3" d="m280.48,193.46v-.88h.94v.88h-.94Z"/>
      <path class="cls-3" d="m281.42,191.33h-5.27c.36.39.59.89.7,1.49h-.73c-.14-.65-.47-1.19-1-1.62v-.65h6.3v.77h0Z"/>
      <path class="cls-3" d="m275.05,186.93l1.78.49v.99l-1.78-.95v-.52h0Zm0,1.33l1.78.49v.98l-1.78-.95v-.51h0Z"/>
    </g>
    <g>
      <path class="cls-3" d="m269.46,199.44c0,.62-.17,1.13-.5,1.54-.33.41-.77.65-1.32.71l-.12-.77c.37-.04.66-.2.87-.47s.32-.61.32-1.01c0-.44-.12-.79-.36-1.05-.24-.26-.56-.39-.95-.39s-.73.12-.95.37c-.23.25-.34.59-.34,1.03,0,.25.07.48.2.69l-.52.35-1.97-1.99v3.06h-.73v-4.02h.71l1.75,1.79c-.06-.62.08-1.13.43-1.53s.83-.59,1.45-.59,1.1.21,1.48.63c.37.42.56.97.56,1.66h-.01Z"/>
      <path class="cls-3" d="m269.46,193.99c0,.77-.29,1.37-.87,1.79s-1.36.63-2.35.63-1.77-.21-2.35-.63c-.58-.42-.87-1.01-.87-1.79s.29-1.36.87-1.78,1.37-.63,2.35-.63,1.77.21,2.35.63.87,1.01.87,1.78Zm-.74,0c0-.5-.22-.88-.67-1.16s-1.05-.41-1.82-.41-1.38.14-1.82.41c-.45.27-.67.66-.67,1.16s.22.9.67,1.17c.44.27,1.05.4,1.83.4s1.37-.13,1.82-.4.67-.66.67-1.17h0Z"/>
      <path class="cls-3" d="m269.39,190.65c-1.62-.19-3.48-1.12-5.57-2.8v3.54h-.73v-4.38h.73c2.24,1.74,4.1,2.68,5.57,2.81v.84h0Z"/>
    </g>
  </g>
  <g>
    <g>
      <path class="cls-4" d="m29.03,94.79c-1.62-.19-3.48-1.12-5.57-2.8v3.54h-.73v-4.38h.73c2.24,1.74,4.1,2.68,5.57,2.81v.84Z"/>
      <path class="cls-4" d="m29.03,89.84c-1.62-.19-3.48-1.12-5.57-2.8v3.54h-.73v-4.38h.73c2.24,1.74,4.1,2.68,5.57,2.81v.84Z"/>
      <path class="cls-4" d="m29.1,83.39c0,.77-.29,1.37-.87,1.79-.58.42-1.36.62-2.35.62s-1.77-.21-2.35-.62c-.58-.42-.87-1.01-.87-1.79s.29-1.36.87-1.78c.58-.42,1.37-.63,2.35-.63s1.77.21,2.35.63c.58.42.87,1.01.87,1.78Zm-.74,0c0-.5-.22-.88-.67-1.16s-1.05-.41-1.82-.41-1.38.14-1.82.41c-.45.27-.67.66-.67,1.16s.22.9.67,1.17c.44.27,1.05.41,1.83.41s1.37-.13,1.82-.41c.44-.27.67-.66.67-1.17Z"/>
    </g>
    <g>
      <path class="cls-4" d="m41.09,96.39c0,.62-.17,1.13-.5,1.54s-.77.65-1.32.71l-.12-.77c.37-.04.66-.2.87-.47.22-.27.32-.61.32-1.01,0-.44-.12-.79-.36-1.05-.24-.26-.56-.39-.95-.39s-.73.12-.95.37c-.23.25-.34.59-.34,1.03,0,.25.07.48.2.69l-.52.35-1.97-1.99v3.06h-.73v-4.02h.71l1.75,1.79c-.06-.62.08-1.13.43-1.53.35-.4.83-.59,1.45-.59s1.1.21,1.48.62.56.97.56,1.66Z"/>
      <path class="cls-4" d="m41.09,90.95c0,.77-.29,1.37-.87,1.79-.58.42-1.36.62-2.35.62s-1.77-.21-2.35-.62c-.58-.42-.87-1.01-.87-1.79s.29-1.36.87-1.78c.58-.42,1.37-.63,2.35-.63s1.77.21,2.35.63c.58.42.87,1.01.87,1.78Zm-.74,0c0-.5-.22-.88-.67-1.16s-1.05-.41-1.82-.41-1.38.14-1.82.41c-.45.27-.67.66-.67,1.16s.22.9.67,1.17c.44.27,1.05.41,1.83.41s1.37-.13,1.82-.41c.44-.27.67-.66.67-1.17Z"/>
      <path class="cls-4" d="m40.08,87.55v-.88h.94v.88h-.94Z"/>
      <path class="cls-4" d="m41.09,83.58c0,.62-.17,1.13-.5,1.54s-.77.65-1.32.71l-.12-.77c.37-.04.66-.2.87-.47.22-.27.32-.61.32-1.01,0-.44-.12-.79-.36-1.05-.24-.26-.56-.39-.95-.39s-.73.12-.95.37c-.23.25-.34.59-.34,1.03,0,.25.07.48.2.69l-.52.35-1.97-1.99v3.06h-.73v-4.02h.71l1.75,1.79c-.06-.62.08-1.13.43-1.53.35-.4.83-.59,1.45-.59s1.1.21,1.48.62.56.97.56,1.66Z"/>
      <path class="cls-4" d="m34.64,77.79l1.78.49v.99l-1.78-.95v-.52Zm0,1.33l1.78.49v.98l-1.78-.95v-.51Z"/>
    </g>
  </g>
</svg>