<svg id="Vrstva_1" data-name="Vrstva 1" xmlns="http://www.w3.org/2000/svg" viewBox="0 0 226.77 226.77">
  <defs>
    <style>
      .cls-1 {
        fill: none;
        stroke: #010101;
        stroke-linecap: round;
        stroke-linejoin: round;
      }

      .cls-1, .cls-2 {
        stroke-width:.7px;
      }

      .cls-2 {
        fill: #010202;
        stroke: #010202;
        stroke-miterlimit: 10;
      }

      .cls-3 {
        isolation: isolate;
      }

      .cls-4 {
        fill: #1d1d1b;
      }
    
.cls-1{stroke:#ffffff}
.cls-2{stroke:#ffffff;fill:#ffffff}
.cls-4{fill:#ffffff}
</style>
  </defs>
  <line class="cls-1" x1="22.62" y1="153.31" x2="18.47" y2="14.6"/>
  <line class="cls-1" x1="66.83" y1="164.31" x2="24.32" y2="188.54"/>
  <line class="cls-1" x1="141.08" y1="182.19" x2="103.14" y2="206.12"/>
  <path class="cls-1" d="M160.38,29.93a1.21,1.21,0,0,0-.7-.61"/>
  <line class="cls-1" x1="144.35" y1="24.23" x2="159.68" y2="29.32"/>
  <path class="cls-1" d="M65.62,37a.33.33,0,0,0,0,.17.14.14,0,0,0,.15.09"/>
  <path class="cls-1" d="M83.51,33.67c.06,0,.11-.08.13-.13a.63.63,0,0,0,0-.19"/>
  <line class="cls-1" x1="106.38" y1="170.75" x2="105.88" y2="170.64"/>
  <path class="cls-1" d="M160.38,40.25c.05,0,.08,0,.1,0"/>
  <line class="cls-1" x1="65.7" y1="37.43" x2="83.13" y2="33.76"/>
  <line class="cls-1" x1="144.54" y1="179.1" x2="106.38" y2="170.75"/>
  <path class="cls-1" d="M65.58,37.53a.23.23,0,0,1,.12-.1"/>
  <path class="cls-1" d="M159.68,29.32a1.09,1.09,0,0,0-.26-.05"/>
  <line class="cls-1" x1="83.16" y1="33.76" x2="83.36" y2="33.77"/>
  <path class="cls-1" d="M83.73,24.32a.6.6,0,0,0-.26.56"/>
  <path class="cls-1" d="M144.08,24.17a1.27,1.27,0,0,1,1,.7"/>
  <line class="cls-1" x1="105.88" y1="170.64" x2="70.46" y2="162.89"/>
  <path class="cls-1" d="M83.85,24.29a.24.24,0,0,0-.12,0"/>
  <line class="cls-1" x1="120.34" y1="36.88" x2="120.03" y2="36.86"/>
  <line class="cls-1" x1="65.08" y1="19.93" x2="65.62" y2="36.99"/>
  <path class="cls-1" d="M106.38,170.75a.49.49,0,0,1-.31-.33A1.44,1.44,0,0,1,106,170"/>
  <line class="cls-1" x1="66.27" y1="37.3" x2="65.78" y2="37.25"/>
  <path class="cls-1" d="M66,18.72a.86.86,0,0,0-.71.41,1.51,1.51,0,0,0-.25.8"/>
  <path class="cls-1" d="M83.13,33.76h.06"/>
  <path class="cls-1" d="M144.54,179.1h0"/>
  <path class="cls-1" d="M160.53,30.66a1.34,1.34,0,0,0-.15-.73"/>
  <path class="cls-1" d="M120,36.86h.06"/>
  <path class="cls-1" d="M161,41.17a20.56,20.56,0,0,1,1.26,3.12,28,28,0,0,1,.93,3.71,42.93,42.93,0,0,1,.68,8.39L163.65,72l-.36,31.27-.36,31.27c0,2.87-.07,5.74-.1,8.6,0,1.43,0,2.85-.05,4.27,0,.93-.05,1.84-.11,2.76a50.49,50.49,0,0,1-3.48,15.18"/>
  <path class="cls-1" d="M69.68,162.52a1.09,1.09,0,0,1-.11-.43c0-.09,0-.34,0-.43l0-.88L69.47,159"/>
  <path class="cls-1" d="M160.48,40.3q.26.44.48.87"/>
  <line class="cls-1" x1="70.46" y1="162.89" x2="69.99" y2="162.79"/>
  <path class="cls-1" d="M70,162.79a.47.47,0,0,1-.31-.27"/>
  <line class="cls-1" x1="145.08" y1="179.22" x2="144.54" y2="179.1"/>
  <path class="cls-1" d="M69.47,159a10.19,10.19,0,0,1-2-2.32A15.24,15.24,0,0,1,66,153.47a22.07,22.07,0,0,1-1-3.94c-.12-.71-.2-1.42-.27-2.14,0-.36,0-.73-.07-1.09s0-1-.05-1.46q-.25-7.71-.52-15.43-.52-15.4-1-30.83T62,67.74c-.1-2.86-.19-5.72-.29-8.58,0-.71,0-1.43-.07-2.15,0-.36,0-.72,0-1.08l0-.86c0-.92,0-1.84,0-2.77a37.89,37.89,0,0,1,1.25-7.92,30.27,30.27,0,0,1,2.74-6.85"/>
  <path class="cls-1" d="M160.29,40.12c.06,0,.1-.11.12-.16a.69.69,0,0,0,0-.2"/>
  <line class="cls-1" x1="160.44" y1="39.76" x2="160.53" y2="30.66"/>
  <line class="cls-1" x1="160.26" y1="40.28" x2="159.92" y2="40.25"/>
  <line class="cls-1" x1="83.85" y1="24.29" x2="144.65" y2="28.8"/>
  <line class="cls-1" x1="66.04" y1="18.72" x2="144.08" y2="24.17"/>
  <line class="cls-1" x1="160.38" y1="40.25" x2="159.96" y2="40.21"/>
  <line class="cls-1" x1="83.67" y1="33.35" x2="83.47" y2="24.88"/>
  <path class="cls-1" d="M144.54,179.1a.35.35,0,0,1-.23-.21"/>
  <line class="cls-1" x1="66.31" y1="37.29" x2="83.51" y2="33.67"/>
  <path class="cls-1" d="M159.19,165.39l0,2.65v.38a2.31,2.31,0,0,1,0,.37,2.41,2.41,0,0,1-.23.78,1.67,1.67,0,0,1-.18.28.65.65,0,0,1-.18.15l-.41.28q-2.16,1.51-4.34,3l-4.34,3-2.17,1.5-1.11.78-.56.39-.28.19a.33.33,0,0,1-.25.06"/>
  <path class="cls-1" d="M83.56,33.73h.12"/>
  <line class="cls-1" x1="120.64" y1="36.83" x2="144.62" y2="38.84"/>
  <line class="cls-1" x1="83.68" y1="33.72" x2="119.61" y2="36.74"/>
  <path class="cls-1" d="M119.88,36.89a.38.38,0,0,0-.38-.14"/>
  <path class="cls-1" d="M120.54,36.83h.1"/>
  <line class="cls-1" x1="66.2" y1="37.47" x2="66.92" y2="37.32"/>
  <path class="cls-1" d="M70.28,159l-.34.17"/>
  <path class="cls-1" d="M106,166.87c0,1,0,2.06,0,3.09"/>
  <line class="cls-1" x1="65.7" y1="37.43" x2="83.13" y2="33.76"/>
  <path class="cls-1" d="M65.58,37.53a.23.23,0,0,1,.12-.1"/>
  <path class="cls-1" d="M66.08,37.57a.18.18,0,0,1,.12-.1"/>
  <line class="cls-1" x1="65.7" y1="37.43" x2="66.2" y2="37.47"/>
  <path class="cls-1" d="M70,162.11l-.09-3"/>
  <line class="cls-1" x1="65.58" y1="37.53" x2="66.08" y2="37.57"/>
  <path class="cls-1" d="M144.66,25.59a.73.73,0,0,0-.09-.35"/>
  <line class="cls-1" x1="65.58" y1="19.96" x2="66.11" y2="37.03"/>
  <path class="cls-1" d="M160.29,40.12c.06,0,.1-.11.12-.16a.69.69,0,0,0,0-.2"/>
  <line class="cls-1" x1="160.44" y1="39.76" x2="160.53" y2="30.66"/>
  <path class="cls-1" d="M105.61,170.4a1.19,1.19,0,0,1-.12-.55"/>
  <line class="cls-1" x1="105.95" y1="166.87" x2="105.95" y2="166.87"/>
  <line class="cls-1" x1="101.42" y1="157.59" x2="101.3" y2="157.56"/>
  <path class="cls-1" d="M160.38,29.93a1.21,1.21,0,0,0-.7-.61"/>
  <path class="cls-1" d="M144.57,25.24a.75.75,0,0,0-.43-.37"/>
  <path class="cls-1" d="M144.2,175.09a10,10,0,0,1-1.66-2.45,17.47,17.47,0,0,1-1.25-3.51,27.31,27.31,0,0,1-.72-4.31c-.08-.78-.12-1.56-.15-2.35,0-.4,0-.8,0-1.2v-1.84l0-16.49q0-16.49.05-33l0-33q0-4.59,0-9.19V65.51c0-.67,0-1.34,0-2,0-1,.05-2,.12-3A51.31,51.31,0,0,1,142,52a39.69,39.69,0,0,1,2.57-7.39"/>
  <path class="cls-1" d="M144.75,175.21a9.68,9.68,0,0,1-1.66-2.46,17.6,17.6,0,0,1-1.25-3.5,28.72,28.72,0,0,1-.72-4.31c-.08-.79-.12-1.57-.15-2.36,0-.4,0-.8,0-1.2,0-.62,0-1.23,0-1.85L141,143l.05-33,.05-33c0-3.06,0-6.13,0-9.2V63.56c0-1,.06-2,.13-3a51.15,51.15,0,0,1,1.33-8.53,39.54,39.54,0,0,1,2.57-7.4"/>
  <line class="cls-1" x1="106.27" y1="166.68" x2="143.9" y2="174.76"/>
  <line class="cls-1" x1="144.2" y1="175.09" x2="105.95" y2="166.87"/>
  <line class="cls-1" x1="105.11" y1="166.43" x2="70.28" y2="158.95"/>
  <line class="cls-1" x1="145.31" y1="44.34" x2="144.73" y2="44.29"/>
  <path class="cls-1" d="M145.22,44.27s.05.07.09.07"/>
  <line class="cls-1" x1="83.13" y1="33.76" x2="83.35" y2="33.78"/>
  <path class="cls-1" d="M66,18.72a.86.86,0,0,0-.71.41,1.51,1.51,0,0,0-.25.8"/>
  <line class="cls-1" x1="67.99" y1="37.09" x2="82.58" y2="34.02"/>
  <path class="cls-1" d="M145.31,44.34h0"/>
  <line class="cls-1" x1="65.62" y1="36.99" x2="66.11" y2="37.03"/>
  <line class="cls-1" x1="66.27" y1="37.3" x2="65.78" y2="37.25"/>
  <path class="cls-1" d="M160.53,30.66a1.34,1.34,0,0,0-.15-.73"/>
  <path class="cls-1" d="M103.6,40.82h0"/>
  <path class="cls-1" d="M103.51,40.92a.28.28,0,0,1,.09-.1"/>
  <path class="cls-1" d="M120,36.86h.06"/>
  <line class="cls-1" x1="83.85" y1="24.29" x2="144.65" y2="28.8"/>
  <path class="cls-1" d="M83.13,33.76h.06"/>
  <line class="cls-1" x1="144" y1="24.84" x2="65.96" y2="19.33"/>
  <line class="cls-1" x1="66.04" y1="18.72" x2="144.08" y2="24.17"/>
  <line class="cls-1" x1="70.46" y1="162.89" x2="69.99" y2="162.79"/>
  <path class="cls-1" d="M104.13,40.87h0"/>
  <line class="cls-1" x1="103.51" y1="40.92" x2="104.04" y2="40.97"/>
  <path class="cls-1" d="M83.51,33.67c.06,0,.11-.08.13-.13a.63.63,0,0,0,0-.19"/>
  <path class="cls-1" d="M83.73,24.32a.6.6,0,0,0-.26.56"/>
  <path class="cls-1" d="M83.85,24.29a.24.24,0,0,0-.12,0"/>
  <path class="cls-1" d="M65.58,20a.75.75,0,0,1,.07-.39.4.4,0,0,1,.31-.24"/>
  <line class="cls-1" x1="66.31" y1="37.29" x2="83.51" y2="33.67"/>
  <line class="cls-1" x1="83.67" y1="33.35" x2="83.47" y2="24.88"/>
  <line class="cls-1" x1="65.08" y1="19.93" x2="65.62" y2="36.99"/>
  <line class="cls-1" x1="160.38" y1="40.25" x2="159.96" y2="40.21"/>
  <line class="cls-1" x1="144.66" y1="44.48" x2="145.24" y2="44.53"/>
  <line class="cls-1" x1="144.2" y1="175.09" x2="144.75" y2="175.21"/>
  <path class="cls-1" d="M65.62,37a.33.33,0,0,0,0,.17.14.14,0,0,0,.15.09"/>
  <line class="cls-1" x1="106.38" y1="170.75" x2="105.88" y2="170.64"/>
  <line class="cls-1" x1="105.44" y1="166.76" x2="105.95" y2="166.87"/>
  <path class="cls-1" d="M145.13,44.65a.24.24,0,0,1,.09-.11"/>
  <path class="cls-1" d="M144.19,178.29c0-1.07,0-2.13,0-3.2"/>
  <path class="cls-1" d="M144.31,178.89a1.37,1.37,0,0,1-.12-.6"/>
  <path class="cls-1" d="M66.11,37a.41.41,0,0,0,0,.18.13.13,0,0,0,.15.08"/>
  <line class="cls-1" x1="144.54" y1="179.1" x2="106.38" y2="170.75"/>
  <path class="cls-1" d="M144.6,44a.57.57,0,0,0,0,.18c0,.05.06.12.13.1"/>
  <line class="cls-1" x1="105.99" y1="169.96" x2="144.19" y2="178.29"/>
  <path class="cls-1" d="M105.44,166.76l0,3.09"/>
  <line class="cls-1" x1="69.94" y1="159.12" x2="105.44" y2="166.76"/>
  <line class="cls-1" x1="110.82" y1="167.65" x2="111.13" y2="167.47"/>
  <path class="cls-1" d="M145.18,44.06a.52.52,0,0,0,0,.21"/>
  <line class="cls-1" x1="144.66" y1="25.59" x2="144.6" y2="44.01"/>
  <line class="cls-1" x1="144.6" y1="44.01" x2="145.18" y2="44.06"/>
  <path class="cls-1" d="M106.38,170.75a.49.49,0,0,1-.31-.33A1.44,1.44,0,0,1,106,170"/>
  <path class="cls-1" d="M106,166.87a9.87,9.87,0,0,1-1.83-2.39,16.06,16.06,0,0,1-1.42-3.37,25.13,25.13,0,0,1-.86-4.12c-.1-.74-.17-1.49-.21-2.24-.06-.93-.06-1.86-.08-2.79q-.14-8-.26-16l-.54-31.87q-.25-15.94-.53-31.88l-.14-8.88c0-.74,0-1.49,0-2.23s0-1.32,0-2c0-1,0-1.92.08-2.88a42.28,42.28,0,0,1,1.29-8.21A34.31,34.31,0,0,1,104,41"/>
  <line class="cls-1" x1="145.34" y1="44.34" x2="160.29" y2="40.12"/>
  <line class="cls-1" x1="145.24" y1="25.64" x2="145.18" y2="44.06"/>
  <line class="cls-1" x1="83.16" y1="33.76" x2="83.36" y2="33.77"/>
  <path class="cls-1" d="M70,162.79a.47.47,0,0,1-.31-.27"/>
  <path class="cls-1" d="M70.46,162.89a.51.51,0,0,1-.33-.31,1.24,1.24,0,0,1-.1-.47"/>
  <path class="cls-1" d="M159.19,165.39l0,2.65v.38a2.31,2.31,0,0,1,0,.37,2.41,2.41,0,0,1-.23.78,1.67,1.67,0,0,1-.18.28.65.65,0,0,1-.18.15l-.41.28q-2.16,1.51-4.34,3l-4.34,3-2.17,1.5-1.11.78-.56.39-.28.19a.33.33,0,0,1-.25.06"/>
  <path class="cls-1" d="M67.3,155.63a20.65,20.65,0,0,1-1.85-5.88,29.92,29.92,0,0,1-.36-3.4c0-.37,0-.74,0-1.1s0-.93,0-1.39c0-.93-.06-1.86-.1-2.79l-.49-14.88q-.49-14.86-1-29.74l-1-29.76-.28-8.45c0-.7,0-1.41-.07-2.12,0-.52,0-1,0-1.57,0-.92,0-1.83.08-2.75a36.66,36.66,0,0,1,1.29-7.64,30.36,30.36,0,0,1,2.67-6.59"/>
  <path class="cls-1" d="M161,41.17a20.56,20.56,0,0,1,1.26,3.12,28,28,0,0,1,.93,3.71,42.93,42.93,0,0,1,.68,8.39L163.65,72l-.36,31.27-.36,31.27c0,2.87-.07,5.74-.1,8.6,0,1.43,0,2.85-.05,4.27,0,.93-.05,1.84-.11,2.76a50.49,50.49,0,0,1-3.48,15.18"/>
  <line class="cls-1" x1="105.88" y1="170.64" x2="70.46" y2="162.89"/>
  <path class="cls-1" d="M145.22,44.54h0"/>
  <path class="cls-1" d="M160.48,40.3q.26.44.48.87"/>
  <path class="cls-1" d="M144.55,44.6a.24.24,0,0,1,.09-.11"/>
  <path class="cls-1" d="M145.08,179.22c-.18,0-.26-.25-.3-.39a2.24,2.24,0,0,1,0-.52v-1c0-.69,0-1.38,0-2.07"/>
  <path class="cls-1" d="M69.94,159.12a11.38,11.38,0,0,1-2.64-3.49"/>
  <path class="cls-1" d="M69.47,159a10.19,10.19,0,0,1-2-2.32A15.24,15.24,0,0,1,66,153.47a22.07,22.07,0,0,1-1-3.94c-.12-.71-.2-1.42-.27-2.14,0-.36,0-.73-.07-1.09s0-1-.05-1.46q-.25-7.71-.52-15.43-.52-15.4-1-30.83T62,67.74c-.1-2.86-.19-5.72-.29-8.58,0-.71,0-1.43-.07-2.15,0-.36,0-.72,0-1.08l0-.86c0-.92,0-1.84,0-2.77a37.89,37.89,0,0,1,1.25-7.92,30.27,30.27,0,0,1,2.74-6.85"/>
  <path class="cls-1" d="M144.64,44.49h0"/>
  <path class="cls-1" d="M160.38,40.25c.05,0,.08,0,.1,0"/>
  <line class="cls-1" x1="104.16" y1="40.86" x2="119.64" y2="37.12"/>
  <path class="cls-1" d="M144.54,179.1h0"/>
  <line class="cls-1" x1="160.26" y1="40.28" x2="159.92" y2="40.25"/>
  <path class="cls-1" d="M144.08,24.17a1.27,1.27,0,0,1,1,.7"/>
  <path class="cls-1" d="M69.68,162.52a1.09,1.09,0,0,1-.11-.43c0-.09,0-.34,0-.43l0-.88L69.47,159"/>
  <path class="cls-1" d="M104,41s0-.08.09-.1"/>
  <line class="cls-1" x1="103.63" y1="40.81" x2="120.03" y2="36.86"/>
  <line class="cls-1" x1="103.63" y1="40.81" x2="104.16" y2="40.86"/>
  <line class="cls-1" x1="69.47" y1="159.02" x2="69.94" y2="159.12"/>
  <line class="cls-1" x1="120.34" y1="36.88" x2="120.03" y2="36.86"/>
  <path class="cls-1" d="M105.44,166.76a12.07,12.07,0,0,1-2.79-4.43"/>
  <path class="cls-1" d="M101.42,157.59q-.18-1.2-.27-2.4c0-.41-.05-.82-.07-1.23s0-1,0-1.51c0-2.67-.09-5.33-.14-8q-.1-6.57-.22-13.15-.22-13.14-.44-26.28L99.8,78.74q-.1-6.58-.22-13.15c0-1.41,0-2.82-.07-4.23,0-.67,0-1.34,0-2q0-.68,0-1.35a43.14,43.14,0,0,1,.47-5.55"/>
  <path class="cls-1" d="M100.92,47.73a35.89,35.89,0,0,1,1.83-5.22"/>
  <path class="cls-1" d="M102.76,42.49c.23-.53.48-1.05.75-1.57"/>
  <line class="cls-1" x1="144.55" y1="44.6" x2="145.13" y2="44.65"/>
  <line class="cls-1" x1="140.46" y1="165.66" x2="140.66" y2="165.7"/>
  <line class="cls-1" x1="144.66" y1="44.48" x2="145.19" y2="44.33"/>
  <path class="cls-1" d="M106,166.87l.32-.19"/>
  <path class="cls-1" d="M105.44,166.76h0"/>
  <line class="cls-1" x1="75.48" y1="159.82" x2="75.15" y2="159.99"/>
  <path class="cls-1" d="M105.88,170.64a.41.41,0,0,1-.27-.24"/>
  <path class="cls-1" d="M144.54,179.1a.35.35,0,0,1-.23-.21"/>
  <line class="cls-1" x1="145.08" y1="179.22" x2="144.54" y2="179.1"/>
  <line class="cls-1" x1="145.24" y1="44.53" x2="160.38" y2="40.25"/>
  <line class="cls-1" x1="105.49" y1="169.85" x2="70.03" y2="162.11"/>
  <path class="cls-1" d="M159.68,29.32a1.09,1.09,0,0,0-.26-.05"/>
  <line class="cls-1" x1="144.35" y1="24.23" x2="159.68" y2="29.32"/>
  <path class="cls-1" d="M145.08,24.87a1.57,1.57,0,0,1,.16.77"/>
  <line class="cls-1" x1="146.48" y1="69.04" x2="146.77" y2="69.08"/>
  <line class="cls-1" x1="146.78" y1="67.42" x2="146.58" y2="67.39"/>
  <line class="cls-1" x1="147.27" y1="69.65" x2="146.86" y2="70.09"/>
  <line class="cls-1" x1="147.29" y1="66.25" x2="147.6" y2="66.77"/>
  <line class="cls-1" x1="146.25" y1="70.37" x2="146.18" y2="70.37"/>
  <path class="cls-1" d="M146.36,65.9a2.07,2.07,0,0,0-.8,1.17,4.58,4.58,0,0,0-.22,1.42"/>
  <line class="cls-1" x1="145.34" y1="68.49" x2="145.41" y2="68.5"/>
  <path class="cls-1" d="M146.25,70.37a.74.74,0,0,0,.61-.28"/>
  <path class="cls-1" d="M146.69,65.83a.55.55,0,0,0-.33.07"/>
  <line class="cls-1" x1="146.69" y1="65.83" x2="146.76" y2="65.84"/>
  <path class="cls-1" d="M146.63,69.32a1.34,1.34,0,0,0,.37-.58"/>
  <path class="cls-1" d="M147.29,66.25a.64.64,0,0,0-.81-.37,1.59,1.59,0,0,0-.65.71,4.39,4.39,0,0,0-.42,1.91"/>
  <path class="cls-1" d="M146.18,68.46a3.44,3.44,0,0,1,.16-1,1.73,1.73,0,0,1,.51-.87.45.45,0,0,1,.47-.09.76.76,0,0,1,.33.38,2.46,2.46,0,0,1,.18,1"/>
  <line class="cls-1" x1="145.41" y1="68.5" x2="146.18" y2="68.46"/>
  <path class="cls-1" d="M145.41,68.5a3.68,3.68,0,0,0,.15,1.09c.09.29.31.74.69.78"/>
  <path class="cls-1" d="M145.34,68.49a3.81,3.81,0,0,0,.15,1.11c.1.3.33.75.73.77"/>
  <path class="cls-1" d="M147,66.9a.3.3,0,0,1,.34,0,.75.75,0,0,1,.21.29,2,2,0,0,1,.12.72"/>
  <line class="cls-1" x1="147.38" y1="67.91" x2="147.64" y2="67.94"/>
  <path class="cls-1" d="M146.86,69.46c-.22,0-.34-.28-.39-.45a1.9,1.9,0,0,1-.09-.62"/>
  <path class="cls-1" d="M146.39,69.49a2.29,2.29,0,0,1-.21-1"/>
  <path class="cls-1" d="M147.64,67.94a2.5,2.5,0,0,1-.13.81,1.16,1.16,0,0,1-.46.67"/>
  <path class="cls-1" d="M147.83,67.87a3.25,3.25,0,0,1-.33,1.46,1,1,0,0,1-.52.52c-.28.08-.48-.14-.59-.36"/>
  <path class="cls-1" d="M146.38,68.39a2.56,2.56,0,0,1,.13-.82,1.16,1.16,0,0,1,.46-.67"/>
  <path class="cls-1" d="M147.05,69.42a.31.31,0,0,1-.19,0"/>
  <line class="cls-1" x1="146.78" y1="67.42" x2="147.48" y2="67.99"/>
  <line class="cls-1" x1="146.77" y1="69.08" x2="147.48" y2="67.99"/>
  <line class="cls-1" x1="146.77" y1="69.08" x2="146.78" y2="67.42"/>
  <path class="cls-1" d="M147.13,67.71a1.32,1.32,0,0,0-.24-.76"/>
  <line class="cls-1" x1="73.57" y1="69.33" x2="73.28" y2="68.14"/>
  <line class="cls-1" x1="73.89" y1="69.74" x2="73.88" y2="69.36"/>
  <line class="cls-1" x1="69.53" y1="72.54" x2="69.09" y2="72.49"/>
  <line class="cls-1" x1="106.69" y1="67.08" x2="106.69" y2="67.08"/>
  <line class="cls-1" x1="70.72" y1="69.36" x2="71.46" y2="73.16"/>
  <line class="cls-1" x1="70.45" y1="69.32" x2="70.72" y2="69.36"/>
  <line class="cls-1" x1="105.05" y1="71.03" x2="105.05" y2="71.03"/>
  <line class="cls-1" x1="67.78" y1="71.5" x2="67.81" y2="72.33"/>
  <line class="cls-1" x1="67.78" y1="71.5" x2="67.78" y2="71.5"/>
  <line class="cls-1" x1="107.88" y1="67.22" x2="107.88" y2="67.22"/>
  <line class="cls-1" x1="107.82" y1="70.95" x2="108.15" y2="70.99"/>
  <line class="cls-1" x1="107.88" y1="67.22" x2="107.3" y2="68.17"/>
  <line class="cls-1" x1="107.51" y1="68.88" x2="107.51" y2="68.88"/>
  <line class="cls-1" x1="106.69" y1="67.08" x2="107.88" y2="67.22"/>
  <line class="cls-1" x1="109.51" y1="71.72" x2="109.6" y2="72.8"/>
  <line class="cls-1" x1="109.6" y1="72.8" x2="109.6" y2="72.8"/>
  <line class="cls-1" x1="107.82" y1="70.95" x2="107.82" y2="70.95"/>
  <line class="cls-1" x1="106.36" y1="70.41" x2="106.36" y2="70.41"/>
  <line class="cls-1" x1="106.67" y1="68.78" x2="106.67" y2="68.78"/>
  <line class="cls-1" x1="69.53" y1="72.54" x2="69.53" y2="72.54"/>
  <path class="cls-1" d="M110.35,75.49a.2.2,0,0,0-.07.25.19.19,0,0,0,.22.12"/>
  <line class="cls-1" x1="106.36" y1="70.41" x2="106.65" y2="70.63"/>
  <line class="cls-1" x1="106.67" y1="68.78" x2="106.67" y2="68.78"/>
  <line class="cls-1" x1="105.67" y1="77.08" x2="105.67" y2="77.08"/>
  <line class="cls-1" x1="105.15" y1="76.25" x2="105.36" y2="71.23"/>
  <line class="cls-1" x1="68.5" y1="63.08" x2="68.81" y2="63.12"/>
  <line class="cls-1" x1="105.36" y1="71.23" x2="106.67" y2="68.78"/>
  <line class="cls-1" x1="72.32" y1="68.4" x2="73.05" y2="68.49"/>
  <line class="cls-1" x1="109" y1="73.1" x2="109" y2="73.1"/>
  <line class="cls-1" x1="108.79" y1="77.47" x2="105.67" y2="77.08"/>
  <line class="cls-1" x1="106.05" y1="66.61" x2="107.07" y2="68.43"/>
  <line class="cls-1" x1="106.67" y1="68.78" x2="107.13" y2="68.83"/>
  <line class="cls-1" x1="107.8" y1="70.06" x2="107.82" y2="70.95"/>
  <line class="cls-1" x1="107.34" y1="69.24" x2="107.8" y2="70.06"/>
  <line class="cls-1" x1="109.52" y1="77.56" x2="109.52" y2="77.56"/>
  <line class="cls-1" x1="71.7" y1="72.82" x2="71.7" y2="72.82"/>
  <line class="cls-1" x1="107.13" y1="68.83" x2="106.36" y2="70.41"/>
  <line class="cls-1" x1="68.83" y1="63.53" x2="67.83" y2="63.41"/>
  <line class="cls-1" x1="110.78" y1="75.72" x2="111.38" y2="77.79"/>
  <line class="cls-1" x1="72.47" y1="65.99" x2="71.65" y2="66.71"/>
  <line class="cls-1" x1="73.88" y1="69.36" x2="73.57" y2="69.33"/>
  <line class="cls-1" x1="111.14" y1="75.76" x2="111.8" y2="73.44"/>
  <line class="cls-1" x1="69.77" y1="71.38" x2="69.53" y2="72.54"/>
  <line class="cls-1" x1="70.9" y1="67.86" x2="70.9" y2="67.86"/>
  <line class="cls-1" x1="108.12" y1="68.95" x2="109.51" y2="71.72"/>
  <path class="cls-1" d="M110.57,75.59a.17.17,0,0,0-.22-.1"/>
  <line class="cls-1" x1="71.69" y1="67.95" x2="70.9" y2="67.86"/>
  <line class="cls-1" x1="108.11" y1="68.95" x2="108.12" y2="68.95"/>
  <line class="cls-1" x1="73.28" y1="68.14" x2="72.31" y2="68.03"/>
  <line class="cls-1" x1="109.93" y1="72.81" x2="109.85" y2="71.69"/>
  <line class="cls-1" x1="107.51" y1="68.87" x2="108.12" y2="68.95"/>
  <line class="cls-1" x1="73.27" y1="69.67" x2="72.79" y2="72.95"/>
  <line class="cls-1" x1="72.79" y1="72.95" x2="72.79" y2="72.95"/>
  <line class="cls-1" x1="66.93" y1="66.66" x2="67.76" y2="63.78"/>
  <line class="cls-1" x1="72.31" y1="68.03" x2="72.32" y2="68.4"/>
  <line class="cls-1" x1="72.01" y1="68.37" x2="71.97" y2="66.92"/>
  <line class="cls-1" x1="71.7" y1="72.82" x2="71.04" y2="69.4"/>
  <line class="cls-1" x1="71.04" y1="69.4" x2="73.27" y2="69.67"/>
  <line class="cls-1" x1="72.79" y1="72.95" x2="71.7" y2="72.82"/>
  <line class="cls-1" x1="108.52" y1="66.9" x2="106.05" y2="66.61"/>
  <line class="cls-1" x1="106.48" y1="68.36" x2="105.05" y2="71.03"/>
  <line class="cls-1" x1="105.05" y1="71.03" x2="104.81" y2="76.34"/>
  <line class="cls-1" x1="105.52" y1="77.44" x2="105.52" y2="77.44"/>
  <line class="cls-1" x1="109.72" y1="75.58" x2="109.06" y2="77.89"/>
  <line class="cls-1" x1="110.62" y1="73.3" x2="111.22" y2="71.99"/>
  <line class="cls-1" x1="111.33" y1="73.78" x2="110.78" y2="75.72"/>
  <line class="cls-1" x1="109.52" y1="77.56" x2="110.07" y2="75.63"/>
  <line class="cls-1" x1="109.47" y1="73.55" x2="111.33" y2="73.78"/>
  <line class="cls-1" x1="107.07" y1="68.43" x2="107.07" y2="68.43"/>
  <line class="cls-1" x1="67.81" y1="72.33" x2="67.39" y2="72.27"/>
  <line class="cls-1" x1="68.79" y1="62.31" x2="67.49" y2="62.16"/>
  <line class="cls-1" x1="67.83" y1="63.41" x2="67.81" y2="62.57"/>
  <line class="cls-1" x1="68.83" y1="63.53" x2="67.83" y2="63.41"/>
  <line class="cls-1" x1="67.17" y1="72.62" x2="69.78" y2="72.95"/>
  <line class="cls-1" x1="108.3" y1="68.58" x2="107.55" y2="68.49"/>
  <line class="cls-1" x1="109.6" y1="72.8" x2="109.6" y2="72.8"/>
  <line class="cls-1" x1="109.85" y1="71.69" x2="108.3" y2="68.57"/>
  <line class="cls-1" x1="72.47" y1="65.99" x2="72.47" y2="65.99"/>
  <line class="cls-1" x1="71.97" y1="66.92" x2="72.68" y2="66.31"/>
  <line class="cls-1" x1="110.51" y1="75.85" x2="110.51" y2="75.85"/>
  <line class="cls-1" x1="70.43" y1="68.95" x2="70.45" y2="69.32"/>
  <line class="cls-1" x1="106.65" y1="70.63" x2="106.65" y2="70.63"/>
  <line class="cls-1" x1="71.03" y1="69.02" x2="71.03" y2="69.02"/>
  <line class="cls-1" x1="66.93" y1="66.66" x2="66.93" y2="66.66"/>
  <line class="cls-1" x1="70.44" y1="69.32" x2="70.45" y2="69.32"/>
  <line class="cls-1" x1="70.9" y1="67.86" x2="70.9" y2="67.86"/>
  <line class="cls-1" x1="71.45" y1="73.16" x2="73.05" y2="73.36"/>
  <line class="cls-1" x1="73.06" y1="73.36" x2="73.59" y2="69.71"/>
  <line class="cls-1" x1="71.03" y1="69.02" x2="71.03" y2="69.02"/>
  <line class="cls-1" x1="73.59" y1="69.71" x2="73.89" y2="69.74"/>
  <line class="cls-1" x1="70.9" y1="67.86" x2="70.71" y2="68.98"/>
  <line class="cls-1" x1="69.09" y1="72.49" x2="69.06" y2="71.68"/>
  <line class="cls-1" x1="69.63" y1="66.99" x2="69.77" y2="71.38"/>
  <line class="cls-1" x1="73.06" y1="73.36" x2="73.06" y2="73.36"/>
  <path class="cls-1" d="M110.5,75.86h0"/>
  <line class="cls-1" x1="66.63" y1="66.53" x2="66.76" y2="71.04"/>
  <line class="cls-1" x1="73.28" y1="68.14" x2="73.28" y2="68.14"/>
  <line class="cls-1" x1="73.89" y1="69.74" x2="73.89" y2="69.74"/>
  <line class="cls-1" x1="71.68" y1="67.95" x2="71.68" y2="67.95"/>
  <line class="cls-1" x1="71.65" y1="66.71" x2="71.69" y2="67.95"/>
  <line class="cls-1" x1="70.9" y1="67.86" x2="70.9" y2="67.86"/>
  <line class="cls-1" x1="68.62" y1="63.88" x2="69.63" y2="66.99"/>
  <line class="cls-1" x1="67.39" y1="72.27" x2="67.07" y2="71.05"/>
  <line class="cls-1" x1="68.12" y1="72.36" x2="68.09" y2="71.54"/>
  <line class="cls-1" x1="68.75" y1="71.64" x2="68.78" y2="72.45"/>
  <line class="cls-1" x1="67.49" y1="62.16" x2="67.53" y2="63.38"/>
  <line class="cls-1" x1="73.05" y1="68.49" x2="73.25" y2="69.29"/>
  <line class="cls-1" x1="68.49" y1="62.65" x2="68.5" y2="63.08"/>
  <line class="cls-1" x1="67.81" y1="62.57" x2="68.49" y2="62.65"/>
  <line class="cls-1" x1="72.68" y1="66.31" x2="72.47" y2="65.99"/>
  <line class="cls-1" x1="69.95" y1="66.99" x2="68.83" y2="63.53"/>
  <line class="cls-1" x1="71.97" y1="66.92" x2="71.97" y2="66.92"/>
  <line class="cls-1" x1="109.52" y1="77.56" x2="109.52" y2="77.56"/>
  <line class="cls-1" x1="70.08" y1="71.5" x2="69.95" y2="66.99"/>
  <line class="cls-1" x1="67.17" y1="72.62" x2="67.17" y2="72.62"/>
  <line class="cls-1" x1="110.78" y1="75.72" x2="110.78" y2="75.72"/>
  <line class="cls-1" x1="108.8" y1="77.86" x2="108.79" y2="77.47"/>
  <line class="cls-1" x1="69.09" y1="72.49" x2="69.09" y2="72.49"/>
  <path class="cls-1" d="M110.51,75.85a.17.17,0,0,0,.09-.16"/>
  <line class="cls-1" x1="109" y1="73.1" x2="109.72" y2="75.58"/>
  <line class="cls-1" x1="68.81" y1="63.12" x2="68.79" y2="62.31"/>
  <line class="cls-1" x1="104.81" y1="76.34" x2="105.52" y2="77.44"/>
  <line class="cls-1" x1="110.07" y1="75.63" x2="109.47" y2="73.55"/>
  <line class="cls-1" x1="110.91" y1="71.77" x2="110.24" y2="73.25"/>
  <line class="cls-1" x1="111.8" y1="73.44" x2="110.62" y2="73.3"/>
  <line class="cls-1" x1="111.85" y1="78.24" x2="111.14" y2="75.76"/>
  <line class="cls-1" x1="69.78" y1="72.95" x2="70.08" y2="71.5"/>
  <line class="cls-1" x1="109.06" y1="77.89" x2="111.85" y2="78.24"/>
  <line class="cls-1" x1="110.24" y1="73.25" x2="109" y2="73.1"/>
  <line class="cls-1" x1="66.76" y1="71.04" x2="67.17" y2="72.62"/>
  <line class="cls-1" x1="107.3" y1="68.17" x2="106.69" y2="67.08"/>
  <line class="cls-1" x1="107.3" y1="68.17" x2="107.3" y2="68.17"/>
  <path class="cls-1" d="M110.6,75.69a.36.36,0,0,0,0-.1"/>
  <line class="cls-1" x1="111.38" y1="77.79" x2="109.52" y2="77.56"/>
  <line class="cls-1" x1="107.55" y1="68.49" x2="107.55" y2="68.49"/>
  <line class="cls-1" x1="108.15" y1="70.99" x2="108.15" y2="70.99"/>
  <line class="cls-1" x1="107.82" y1="70.95" x2="107.82" y2="70.95"/>
  <line class="cls-1" x1="106.36" y1="70.41" x2="106.36" y2="70.41"/>
  <line class="cls-1" x1="108.8" y1="77.86" x2="108.8" y2="77.86"/>
  <line class="cls-1" x1="70.71" y1="68.98" x2="70.43" y2="68.95"/>
  <line class="cls-1" x1="71.16" y1="68.26" x2="71.16" y2="68.26"/>
  <line class="cls-1" x1="69.06" y1="71.68" x2="68.75" y2="71.64"/>
  <line class="cls-1" x1="68.09" y1="71.54" x2="67.78" y2="71.5"/>
  <line class="cls-1" x1="68.78" y1="72.45" x2="68.12" y2="72.36"/>
  <line class="cls-1" x1="67.53" y1="63.38" x2="66.63" y2="66.53"/>
  <line class="cls-1" x1="68.12" y1="72.36" x2="68.12" y2="72.36"/>
  <line class="cls-1" x1="110.62" y1="73.3" x2="110.62" y2="73.3"/>
  <line class="cls-1" x1="111.14" y1="75.76" x2="111.14" y2="75.76"/>
  <line class="cls-1" x1="106.65" y1="70.63" x2="106.65" y2="70.63"/>
  <line class="cls-1" x1="107.55" y1="68.49" x2="108.52" y2="66.9"/>
  <line class="cls-1" x1="107.07" y1="68.43" x2="106.48" y2="68.36"/>
  <line class="cls-1" x1="105.52" y1="77.44" x2="108.8" y2="77.86"/>
  <line class="cls-1" x1="73.25" y1="69.29" x2="71.03" y2="69.02"/>
  <line class="cls-1" x1="69.53" y1="72.54" x2="69.53" y2="72.54"/>
  <line class="cls-1" x1="67.39" y1="72.27" x2="67.39" y2="72.27"/>
  <line class="cls-1" x1="67.78" y1="71.5" x2="67.78" y2="71.5"/>
  <line class="cls-1" x1="66.62" y1="66.53" x2="66.62" y2="66.53"/>
  <line class="cls-1" x1="111.22" y1="71.99" x2="110.91" y2="71.77"/>
  <line class="cls-1" x1="67.49" y1="62.16" x2="67.49" y2="62.16"/>
  <line class="cls-1" x1="106.65" y1="70.63" x2="107.34" y2="69.24"/>
  <line class="cls-1" x1="68.81" y1="63.12" x2="68.81" y2="63.12"/>
  <line class="cls-1" x1="108.3" y1="68.57" x2="108.3" y2="68.57"/>
  <line class="cls-1" x1="109.6" y1="72.8" x2="109.93" y2="72.81"/>
  <line class="cls-1" x1="67.81" y1="62.57" x2="67.81" y2="62.57"/>
  <line class="cls-1" x1="69.78" y1="72.95" x2="69.78" y2="72.95"/>
  <line class="cls-1" x1="108.14" y1="69.98" x2="107.51" y2="68.87"/>
  <line class="cls-1" x1="67.76" y1="63.78" x2="67.76" y2="63.78"/>
  <line class="cls-1" x1="108.15" y1="70.99" x2="108.14" y2="69.98"/>
  <line class="cls-1" x1="67.76" y1="63.78" x2="68.62" y2="63.88"/>
  <line class="cls-1" x1="105.67" y1="77.08" x2="105.15" y2="76.25"/>
  <line class="cls-1" x1="106.69" y1="67.08" x2="106.69" y2="67.08"/>
  <line class="cls-1" x1="67.07" y1="71.05" x2="66.93" y2="66.66"/>
  <line class="cls-1" x1="71.16" y1="68.26" x2="72.01" y2="68.37"/>
  <line class="cls-1" x1="72.32" y1="68.4" x2="72.32" y2="68.4"/>
  <line class="cls-1" x1="71.03" y1="69.02" x2="71.16" y2="68.26"/>
  <line class="cls-1" x1="72.32" y1="68.4" x2="72.32" y2="68.4"/>
  <line class="cls-1" x1="110.07" y1="75.63" x2="110.07" y2="75.63"/>
  <line class="cls-1" x1="102.63" y1="42.48" x2="102.76" y2="42.49"/>
  <line class="cls-1" x1="100.72" y1="47.82" x2="100.91" y2="47.77"/>
  <line class="cls-1" x1="100.73" y1="47.78" x2="100.92" y2="47.73"/>
  <line class="cls-1" x1="140.58" y1="164.98" x2="140.4" y2="165.1"/>
  <line class="cls-1" x1="142.76" y1="49.21" x2="142.53" y2="49.19"/>
  <line class="cls-1" x1="143.63" y1="46.22" x2="143.83" y2="46.24"/>
  <line class="cls-1" x1="143.83" y1="46.26" x2="143.63" y2="46.24"/>
  <line class="cls-1" x1="101.4" y1="157.44" x2="101.29" y2="157.5"/>
  <line class="cls-1" x1="141.86" y1="51.51" x2="142.13" y2="51.43"/>
  <line class="cls-1" x1="141.87" y1="51.46" x2="142.14" y2="51.38"/>
  <line class="cls-1" x1="102.75" y1="42.51" x2="102.63" y2="42.5"/>
  <line class="cls-1" x1="101.65" y1="45.34" x2="101.49" y2="45.33"/>
  <line class="cls-1" x1="144.36" y1="44.18" x2="104.99" y2="40.68"/>
  <path class="cls-1" d="M140.16,160.82a35.13,35.13,0,0,0,.45,5.79,19.59,19.59,0,0,0,1.7,5.53"/>
  <path class="cls-1" d="M139.85,161a34.35,34.35,0,0,0,.63,6.86,16.3,16.3,0,0,0,2.54,6.35"/>
  <line class="cls-1" x1="83.23" y1="34.75" x2="116.74" y2="37.6"/>
  <line class="cls-1" x1="116.74" y1="36.99" x2="83.21" y2="34.16"/>
  <line class="cls-1" x1="143.02" y1="174.22" x2="105.75" y2="166.23"/>
  <path class="cls-1" d="M143.46,174.28a.29.29,0,0,1-.44-.06"/>
  <line class="cls-1" x1="143.21" y1="174.35" x2="105.95" y2="166.35"/>
  <path class="cls-1" d="M119.88,36.89a.38.38,0,0,0-.38-.14"/>
  <line class="cls-1" x1="119.5" y1="36.98" x2="119.5" y2="36.75"/>
  <line class="cls-1" x1="143.46" y1="174.28" x2="143.51" y2="174.25"/>
  <path class="cls-1" d="M105.75,166.23a15.54,15.54,0,0,1-2.85-6.12,30,30,0,0,1-.81-6.74"/>
  <path class="cls-1" d="M144.14,45.07a41.23,41.23,0,0,0-2.92,9.18,50.62,50.62,0,0,0-.95,9.59"/>
  <path class="cls-1" d="M140,64a51,51,0,0,1,1-9.86,41.86,41.86,0,0,1,3-9.44"/>
  <line class="cls-1" x1="69.92" y1="37.05" x2="103.65" y2="40.04"/>
  <path class="cls-1" d="M100.89,152.88a25.79,25.79,0,0,0,1.76,9.45"/>
  <path class="cls-1" d="M103.17,41.39a35,35,0,0,0-3,8.77,42.13,42.13,0,0,0-.87,9.24"/>
  <line class="cls-1" x1="98.95" y1="59.5" x2="100.55" y2="153.06"/>
  <line class="cls-1" x1="103.4" y1="41.16" x2="103.39" y2="40.53"/>
  <line class="cls-1" x1="103.17" y1="41.39" x2="102.93" y2="40.98"/>
  <path class="cls-1" d="M102.79,163.69a12,12,0,0,0,1.44,2.21"/>
  <line class="cls-1" x1="102.93" y1="40.98" x2="66.52" y2="37.72"/>
  <line class="cls-1" x1="62.55" y1="55.55" x2="98.95" y2="59.5"/>
  <path class="cls-1" d="M99,59.5a43.33,43.33,0,0,1,.89-9.5,36,36,0,0,1,3.09-9"/>
  <line class="cls-1" x1="103.39" y1="40.53" x2="67" y2="37.29"/>
  <path class="cls-1" d="M66.87,37.34l.13-.05"/>
  <line class="cls-1" x1="65.55" y1="145.98" x2="100.55" y2="153.06"/>
  <line class="cls-1" x1="116.74" y1="36.99" x2="116.74" y2="37.6"/>
  <line class="cls-1" x1="82.85" y1="33.88" x2="83.56" y2="33.73"/>
  <line class="cls-1" x1="83.56" y1="33.73" x2="119.5" y2="36.75"/>
  <line class="cls-1" x1="119.5" y1="36.75" x2="118.83" y2="36.91"/>
  <line class="cls-1" x1="120.38" y1="37.9" x2="144.62" y2="39.97"/>
  <line class="cls-1" x1="144.62" y1="39.34" x2="120.37" y2="37.3"/>
  <line class="cls-1" x1="67" y1="37.29" x2="67.77" y2="37.13"/>
  <line class="cls-1" x1="144.61" y1="44.11" x2="144.36" y2="44.18"/>
  <line class="cls-1" x1="143.93" y1="44.65" x2="104.53" y2="41.12"/>
  <line class="cls-1" x1="100.55" y1="59.68" x2="139.95" y2="63.95"/>
  <path class="cls-1" d="M104.53,41.12a36.33,36.33,0,0,0-3.09,9,43.45,43.45,0,0,0-.89,9.52"/>
  <line class="cls-1" x1="120.38" y1="37.9" x2="120.37" y2="37.3"/>
  <path class="cls-1" d="M120.37,37.3l-.37,0c-.06,0-.32,0-.35-.12"/>
  <line class="cls-1" x1="119.65" y1="37.72" x2="119.64" y2="37.11"/>
  <path class="cls-1" d="M83.21,34.16a2.65,2.65,0,0,1-.48-.07c-.07,0-.21-.07-.11-.13a.7.7,0,0,1,.23-.08"/>
  <line class="cls-1" x1="82.6" y1="34.59" x2="82.58" y2="34"/>
  <line class="cls-1" x1="107.9" y1="40.41" x2="144.4" y2="43.64"/>
  <path class="cls-1" d="M119.65,37.73c0,.08.3.12.35.13l.38,0"/>
  <line class="cls-1" x1="119.87" y1="37" x2="120.54" y2="36.83"/>
  <line class="cls-1" x1="120.54" y1="36.83" x2="144.62" y2="38.86"/>
  <path class="cls-1" d="M119.65,37.13s0-.05,0-.06l.06,0,.14,0"/>
  <path class="cls-1" d="M103.4,41.16a.4.4,0,0,0-.23.23"/>
  <path class="cls-1" d="M67.77,37.13a9.11,9.11,0,0,1,2.15-.08"/>
  <line class="cls-1" x1="104.43" y1="166.03" x2="69.86" y2="158.61"/>
  <path class="cls-1" d="M104.71,166a.35.35,0,0,1-.48-.07"/>
  <line class="cls-1" x1="104.23" y1="165.9" x2="69.65" y2="158.48"/>
  <path class="cls-1" d="M104.53,41.12a.89.89,0,0,1,.36-.41"/>
  <path class="cls-1" d="M144.36,44.18l-.07,0"/>
  <line class="cls-1" x1="102.09" y1="153.37" x2="100.57" y2="61.25"/>
  <line class="cls-1" x1="120.64" y1="36.83" x2="144.62" y2="38.84"/>
  <line class="cls-1" x1="102.09" y1="153.37" x2="139.85" y2="161.01"/>
  <line class="cls-1" x1="103.39" y1="41.16" x2="103.4" y2="41.16"/>
  <path class="cls-1" d="M82.6,34.6c0,.06.25.1.3.11l.33,0"/>
  <line class="cls-1" x1="83.68" y1="33.72" x2="119.61" y2="36.74"/>
  <path class="cls-1" d="M116.74,37.6h.18"/>
  <path class="cls-1" d="M82.6,34.59h0"/>
  <line class="cls-1" x1="119.69" y1="36.94" x2="119.69" y2="36.94"/>
  <line class="cls-1" x1="104.38" y1="165.56" x2="104.23" y2="165.9"/>
  <line class="cls-1" x1="118.83" y1="37.15" x2="118.83" y2="36.91"/>
  <path class="cls-1" d="M121,38a19.13,19.13,0,0,1,1.79,3.77"/>
  <path class="cls-1" d="M159.68,40.3h0"/>
  <path class="cls-1" d="M120.54,36.83h.1"/>
  <path class="cls-1" d="M119.65,37.72h0"/>
  <line class="cls-1" x1="144.36" y1="44.84" x2="144.36" y2="44.18"/>
  <path class="cls-1" d="M103.29,40.57a.85.85,0,0,0-.36.41"/>
  <line class="cls-1" x1="104.12" y1="40.36" x2="104.12" y2="40.69"/>
  <line class="cls-1" x1="159.64" y1="40.3" x2="159.68" y2="40.3"/>
  <line class="cls-1" x1="144.14" y1="45.07" x2="143.93" y2="44.65"/>
  <line class="cls-1" x1="143.19" y1="173.79" x2="143.02" y2="174.22"/>
  <line class="cls-1" x1="139.95" y1="63.95" x2="139.85" y2="161.01"/>
  <line class="cls-1" x1="104.12" y1="40.36" x2="103.39" y2="40.53"/>
  <line class="cls-1" x1="144.45" y1="44.81" x2="144.45" y2="44.81"/>
  <path class="cls-1" d="M104.89,40.71l.1,0"/>
  <path class="cls-1" d="M144.32,44.85a.55.55,0,0,0-.18.22"/>
  <line class="cls-1" x1="100.55" y1="59.68" x2="100.55" y2="59.68"/>
  <path class="cls-1" d="M104.37,40.21v0"/>
  <path class="cls-1" d="M104.31,40.3a1.39,1.39,0,0,1-.19.06"/>
  <line class="cls-1" x1="144.14" y1="45.07" x2="143.93" y2="44.65"/>
  <line class="cls-1" x1="145.04" y1="44.32" x2="145.04" y2="44.38"/>
  <line class="cls-1" x1="62.55" y1="55.55" x2="62.55" y2="55.55"/>
  <path class="cls-1" d="M66.52,37.72a.92.92,0,0,1,.35-.38"/>
  <path class="cls-1" d="M144.36,44.84h0"/>
  <path class="cls-1" d="M118.83,36.91a8.14,8.14,0,0,1-2.09.08"/>
  <path class="cls-1" d="M100.55,153.06a25.25,25.25,0,0,0,2.24,10.63"/>
  <line class="cls-1" x1="65.55" y1="145.98" x2="62.6" y2="57.07"/>
  <path class="cls-1" d="M69.65,158.48a14.9,14.9,0,0,1-3.1-5.88,27.06,27.06,0,0,1-1-6.62"/>
  <path class="cls-1" d="M103.39,40.53l-.1,0"/>
  <line class="cls-1" x1="100.89" y1="152.88" x2="99.3" y2="59.4"/>
  <line class="cls-1" x1="99.3" y1="59.4" x2="98.95" y2="59.5"/>
  <line class="cls-1" x1="100.89" y1="152.88" x2="100.55" y2="153.06"/>
  <path class="cls-1" d="M69.65,158.48a.36.36,0,0,0,.21.13"/>
  <path class="cls-1" d="M66.52,37.72a31.84,31.84,0,0,0-3.15,8.65,38.23,38.23,0,0,0-.82,9.18"/>
  <line class="cls-1" x1="143.46" y1="174.19" x2="143.46" y2="174.28"/>
  <path class="cls-1" d="M104.37,40.23s0,.06-.06.07"/>
  <line class="cls-1" x1="104.37" y1="40.23" x2="104.38" y2="40.63"/>
  <path class="cls-1" d="M103.65,40l.37,0c.06,0,.31.06.35.13"/>
  <path class="cls-1" d="M105.71,40.5a8.49,8.49,0,0,1,2.19-.09"/>
  <path class="cls-1" d="M84.1,34.82a10.47,10.47,0,0,1,.73,1.4c.13.28.91,2.07.91,2.07"/>
  <path class="cls-1" d="M83.56,33.73h.12"/>
  <path class="cls-1" d="M105.75,166.23a.3.3,0,0,0,.2.12"/>
  <line class="cls-1" x1="83.23" y1="34.75" x2="83.21" y2="34.16"/>
  <path class="cls-1" d="M144.29,44.21a.91.91,0,0,0-.36.44"/>
  <line class="cls-1" x1="104.99" y1="40.68" x2="105.71" y2="40.5"/>
  <path class="cls-1" d="M144.4,43.64l.2,0"/>
  <line class="cls-1" x1="140.16" y1="160.82" x2="140.27" y2="63.84"/>
  <line class="cls-1" x1="140.27" y1="63.84" x2="139.95" y2="63.95"/>
  <line class="cls-1" x1="144.36" y1="44.84" x2="144.45" y2="44.81"/>
  <line class="cls-1" x1="140.16" y1="160.82" x2="139.85" y2="161.01"/>
  <line class="cls-1" x1="100.54" y1="59.68" x2="139.94" y2="63.96"/>
  <line class="cls-1" x1="100.56" y1="61.25" x2="139.94" y2="65.58"/>
  <line class="cls-1" x1="100.54" y1="59.68" x2="100.56" y2="61.25"/>
  <line class="cls-1" x1="139.94" y1="63.96" x2="139.94" y2="65.58"/>
  <line class="cls-1" x1="62.54" y1="55.55" x2="98.94" y2="59.51"/>
  <line class="cls-1" x1="62.59" y1="57.07" x2="98.97" y2="61.07"/>
  <line class="cls-1" x1="98.94" y1="59.51" x2="98.97" y2="61.07"/>
  <line class="cls-1" x1="62.54" y1="55.55" x2="62.59" y2="57.07"/>
  <line class="cls-1" x1="107.13" y1="203.59" x2="28.2" y2="186.42"/>
  <line class="cls-1" x1="64.13" y1="161.62" x2="18.44" y2="152.5"/>
  <line class="cls-1" x1="14.13" y1="14.18" x2="60.85" y2="18.22"/>
  <line class="cls-1" x1="145.51" y1="182.49" x2="180.08" y2="189.96"/>
  <line class="cls-1" x1="223.46" y1="152.09" x2="163.32" y2="198.48"/>
  <line class="cls-1" x1="163.79" y1="167.76" x2="198.82" y2="175.02"/>
  <polyline class="cls-2" points="175.65 188.98 172.07 193.44 170.39 191.23 175.65 188.98"/>
  <polyline class="cls-2" points="194.86 174.16 198.46 169.71 200.13 171.93 194.86 174.16"/>
  <g>
    <g class="cls-3">
      <path class="cls-4" d="M211.4,173l-3.29-4.12a2.84,2.84,0,0,1-.73,1.47l-.45-.57a2.78,2.78,0,0,0,.64-1.79l.51-.4,3.92,4.93Z"/>
      <path class="cls-4" d="M213.84,171.05l-3.28-4.13a3,3,0,0,1-.74,1.48l-.45-.57A2.75,2.75,0,0,0,210,166l.51-.4,3.93,4.92Z"/>
      <path class="cls-4" d="M214.86,169l.69-.55.59.73-.69.55Z"/>
      <path class="cls-4" d="M218.7,167.27a2.48,2.48,0,0,1-1.6.61,1.65,1.65,0,0,1-1.34-.68,1.57,1.57,0,0,1-.36-1,1.71,1.71,0,0,1,.3-1,1.48,1.48,0,0,1-.86,0,1.29,1.29,0,0,1-.68-.44,1.47,1.47,0,0,1-.32-1.28,2.09,2.09,0,0,1,.85-1.26,2.07,2.07,0,0,1,1.4-.53,1.5,1.5,0,0,1,1.16.6,1.3,1.3,0,0,1,.29.77,1.48,1.48,0,0,1-.19.84,1.72,1.72,0,0,1,1.05-.06,1.63,1.63,0,0,1,.87.56,1.72,1.72,0,0,1,.37,1.45A2.42,2.42,0,0,1,218.7,167.27Zm-2.35-3a1.25,1.25,0,0,0,.49-.74.9.9,0,0,0-.2-.76.86.86,0,0,0-.69-.37,1.26,1.26,0,0,0-.83.32,1.28,1.28,0,0,0-.52.76.86.86,0,0,0,.2.76.89.89,0,0,0,.71.35A1.29,1.29,0,0,0,216.35,164.32Zm1.9,2.4a1.61,1.61,0,0,0,.6-.89,1.09,1.09,0,0,0-.23-.91,1.06,1.06,0,0,0-.84-.43,1.79,1.79,0,0,0-1.61,1.28,1.09,1.09,0,0,0,.23.91,1.06,1.06,0,0,0,.84.43A1.54,1.54,0,0,0,218.25,166.72Z"/>
      <path class="cls-4" d="M218.11,159.5l.73,1.7-.77.61-.36-2Zm1-.83.73,1.7-.77.62-.37-2Z"/>
    </g>
    <g class="cls-3">
      <path class="cls-4" d="M205,162.78a2.37,2.37,0,0,1-1.51.58,1.9,1.9,0,0,1-1.38-.6l.53-.57a1.26,1.26,0,0,0,.91.39,1.54,1.54,0,0,0,1-.37,1.52,1.52,0,0,0,.6-.94,1.4,1.4,0,0,0-1.17-1.51,1.45,1.45,0,0,0-1,.38,1.21,1.21,0,0,0-.42.58l-.6-.19.33-2.78-2.39,1.91-.46-.57,3.15-2.51.44.56-.31,2.48a2,2,0,0,1,1.47-.62,1.82,1.82,0,0,1,1.36.77,1.86,1.86,0,0,1,.43,1.54A2.38,2.38,0,0,1,205,162.78Z"/>
      <path class="cls-4" d="M209.29,159.39a2.08,2.08,0,0,1-1.94.44,4.79,4.79,0,0,1-2.93-3.69,2.27,2.27,0,0,1,2.8-2.22,4,4,0,0,1,1.95,1.45,3.92,3.92,0,0,1,1,2.23A2,2,0,0,1,209.29,159.39Zm-.46-.58a1.29,1.29,0,0,0,.49-1.24,3.42,3.42,0,0,0-.81-1.67,3.49,3.49,0,0,0-1.46-1.18,1.35,1.35,0,0,0-1.82,1.45A4.3,4.3,0,0,0,207.5,159,1.29,1.29,0,0,0,208.83,158.81Z"/>
      <path class="cls-4" d="M213.64,155.93a2.07,2.07,0,0,1-1.94.44,4.78,4.78,0,0,1-2.94-3.69,2.27,2.27,0,0,1,2.8-2.22,4,4,0,0,1,2,1.45,4,4,0,0,1,1,2.23A2.06,2.06,0,0,1,213.64,155.93Zm-.46-.57a1.3,1.3,0,0,0,.49-1.24,4.3,4.3,0,0,0-2.27-2.85,1.34,1.34,0,0,0-1.82,1.44,3.35,3.35,0,0,0,.82,1.68,3.42,3.42,0,0,0,1.45,1.17A1.31,1.31,0,0,0,213.18,155.36Z"/>
    </g>
  </g>
  <polyline class="cls-2" points="18.44 14.57 20.07 20.05 17.3 20.17 18.44 14.57"/>
  <polyline class="cls-2" points="22.62 153.24 21.11 147.73 23.88 147.66 22.62 153.24"/>
  <g>
    <g class="cls-3">
      <path class="cls-4" d="M30.17,94.35a2.45,2.45,0,0,1-.43,1.56,1.89,1.89,0,0,1-1.29.77l-.15-.77a1.24,1.24,0,0,0,.85-.51,1.52,1.52,0,0,0,.28-1,1.49,1.49,0,0,0-.41-1,1.27,1.27,0,0,0-1-.35,1.24,1.24,0,0,0-.94.42,1.47,1.47,0,0,0-.29,1,1.26,1.26,0,0,0,.23.68l-.51.38-2.06-1.9.15,3.06-.73,0-.19-4,.71,0,1.83,1.71a1.93,1.93,0,0,1,.36-1.55A1.83,1.83,0,0,1,28,92.16a1.86,1.86,0,0,1,1.5.55A2.47,2.47,0,0,1,30.17,94.35Z"/>
      <path class="cls-4" d="M27.78,89.35A2.2,2.2,0,0,1,27.25,91a2.19,2.19,0,0,1-3.08.13,2.27,2.27,0,0,1-.68-1.61,2.06,2.06,0,0,1,.7-1.73A3.17,3.17,0,0,1,26.25,87a3.87,3.87,0,0,1,2.67.68,2.65,2.65,0,0,1,1,2.06,2.72,2.72,0,0,1-.49,1.75l-.66-.39a1.91,1.91,0,0,0,.41-1.33,2,2,0,0,0-.73-1.49,2.52,2.52,0,0,0-1.72-.54,1.67,1.67,0,0,1,.72.63A2,2,0,0,1,27.78,89.35Zm-3.21-.94a1.51,1.51,0,0,0,.1,2.07,1.46,1.46,0,0,0,1.06.36,1.38,1.38,0,0,0,1-.45,1.55,1.55,0,0,0-.1-2.08,1.36,1.36,0,0,0-1-.36A1.41,1.41,0,0,0,24.57,88.41Z"/>
      <path class="cls-4" d="M28.78,86.3l0-.88.93,0,0,.88Z"/>
      <path class="cls-4" d="M29.5,81.61,28,81.68,28.11,85l-.73,0-4.17-3-.05-.94,4-.19,0-.91.74,0,0,.9,1.54-.07Zm-2.16,2.54-.12-2.43-3.08.14Z"/>
      <path class="cls-4" d="M22.89,76.8l1.8.4,0,1-1.83-.86ZM23,78.12l1.81.41,0,1L23,78.64Z"/>
    </g>
    <g class="cls-3">
      <path class="cls-4" d="M18.1,95.23l-5.27.24a2.86,2.86,0,0,1,.77,1.46l-.73,0A2.76,2.76,0,0,0,11.8,95.4l0-.65,6.29-.3Z"/>
      <path class="cls-4" d="M18,91a2.05,2.05,0,0,1-.78,1.83,4,4,0,0,1-2.32.74,4,4,0,0,1-2.38-.52,2.27,2.27,0,0,1-.17-3.56,3.91,3.91,0,0,1,2.32-.74,3.87,3.87,0,0,1,2.38.52A2,2,0,0,1,18,91Zm-.73,0a1.3,1.3,0,0,0-.72-1.12,3.45,3.45,0,0,0-1.84-.33,3.44,3.44,0,0,0-1.8.5,1.3,1.3,0,0,0-.62,1.18A1.32,1.32,0,0,0,13,92.42a3.5,3.5,0,0,0,1.85.32,3.56,3.56,0,0,0,1.8-.49A1.3,1.3,0,0,0,17.24,91.05Z"/>
      <path class="cls-4" d="M17.71,85.47a2.07,2.07,0,0,1-.78,1.83,4,4,0,0,1-2.32.73,3.92,3.92,0,0,1-2.38-.51A2.28,2.28,0,0,1,12.06,84a4,4,0,0,1,2.32-.74,3.94,3.94,0,0,1,2.38.52A2,2,0,0,1,17.71,85.47Zm-.74,0a1.28,1.28,0,0,0-.71-1.12,3.46,3.46,0,0,0-1.84-.32,3.44,3.44,0,0,0-1.8.49,1.35,1.35,0,0,0,.1,2.33,3.59,3.59,0,0,0,1.85.31,3.4,3.4,0,0,0,1.79-.49A1.26,1.26,0,0,0,17,85.5Z"/>
      <path class="cls-4" d="M17.45,79.92a2.06,2.06,0,0,1-.78,1.83,4,4,0,0,1-2.32.73A3.91,3.91,0,0,1,12,82a2.28,2.28,0,0,1-.17-3.57,4.05,4.05,0,0,1,2.32-.74,4,4,0,0,1,2.38.52A2.07,2.07,0,0,1,17.45,79.92Zm-.74,0A1.29,1.29,0,0,0,16,78.83a3.4,3.4,0,0,0-1.83-.32,3.53,3.53,0,0,0-1.8.49,1.35,1.35,0,0,0,.1,2.33,3.58,3.58,0,0,0,1.85.32,3.52,3.52,0,0,0,1.79-.49A1.26,1.26,0,0,0,16.71,80Z"/>
    </g>
  </g>
  <polyline class="cls-2" points="28.14 186.38 33.86 186.22 33.26 188.93 28.14 186.38"/>
  <polyline class="cls-2" points="107.08 203.59 101.36 203.74 101.96 201.03 107.08 203.59"/>
  <g>
    <g class="cls-3">
      <path class="cls-4" d="M54.37,201.43l.16-.69,2.79-1.41a2.46,2.46,0,0,0,1.44-1.43,1.11,1.11,0,0,0-.11-.9,1.2,1.2,0,0,0-.78-.52,1.25,1.25,0,0,0-1.08.18,1.46,1.46,0,0,0-.54,1l-.76-.25a2,2,0,0,1,2.56-1.66,2.09,2.09,0,0,1,1.32.86,1.75,1.75,0,0,1,.21,1.46,2.17,2.17,0,0,1-.59,1,5.12,5.12,0,0,1-1.31.87l-2,1,3,.75-.18.71Z"/>
      <path class="cls-4" d="M61.27,203.21a2.34,2.34,0,0,1-1.38-.85,1.86,1.86,0,0,1-.37-1.45l.78.07a1.24,1.24,0,0,0,.24,1,1.61,1.61,0,0,0,.9.56,1.53,1.53,0,0,0,1.11-.1,1.39,1.39,0,0,0,.48-1.85,1.49,1.49,0,0,0-.92-.58,1.26,1.26,0,0,0-.72,0l-.21-.59,2.4-1.43-3-.74.18-.71,3.9,1-.17.69-2.16,1.26a2,2,0,0,1,1.39.79,1.82,1.82,0,0,1,.22,1.55,1.85,1.85,0,0,1-1,1.28A2.37,2.37,0,0,1,61.27,203.21Z"/>
      <path class="cls-4" d="M64.7,203l.85.21-.22.91-.86-.22Z"/>
      <path class="cls-4" d="M69.64,200.87a2.18,2.18,0,0,1,1.4,1,2,2,0,0,1,.24,1.64,2.05,2.05,0,0,1-1,1.35,2.29,2.29,0,0,1-1.74.19,2.1,2.1,0,0,1-1.46-1.17,3.22,3.22,0,0,1-.12-2.19,3.94,3.94,0,0,1,1.42-2.36,2.66,2.66,0,0,1,2.27-.4,2.75,2.75,0,0,1,1.53,1l-.55.53a2,2,0,0,0-1.16-.79,2,2,0,0,0-1.64.28,2.49,2.49,0,0,0-1,1.5,1.57,1.57,0,0,1,.81-.51A1.92,1.92,0,0,1,69.64,200.87Zm-1.82,2.79a1.39,1.39,0,0,0,.91.64,1.35,1.35,0,0,0,1.1-.14,1.44,1.44,0,0,0,.65-.91,1.34,1.34,0,0,0-.15-1.08,1.42,1.42,0,0,0-.91-.64,1.45,1.45,0,0,0-1.11.13,1.5,1.5,0,0,0-.49,2Z"/>
      <path class="cls-4" d="M74.44,199.84l-.9,1.62-1-.24,1.35-1.5Zm1.3.32-.91,1.62-1-.24,1.36-1.5Z"/>
    </g>
    <g class="cls-3">
      <path class="cls-4" d="M62.87,186.8a2.22,2.22,0,0,1,1.4,1,2.19,2.19,0,0,1-.76,3,2.29,2.29,0,0,1-1.74.19,2.06,2.06,0,0,1-1.45-1.17,3.15,3.15,0,0,1-.13-2.19,3.93,3.93,0,0,1,1.42-2.35,2.85,2.85,0,0,1,3.8.57l-.55.52a2,2,0,0,0-1.16-.79,1.92,1.92,0,0,0-1.63.29,2.45,2.45,0,0,0-1,1.49,1.71,1.71,0,0,1,.81-.51A1.92,1.92,0,0,1,62.87,186.8Zm-1.82,2.79a1.41,1.41,0,0,0,.91.65,1.39,1.39,0,0,0,1.1-.15,1.42,1.42,0,0,0,.65-.9,1.37,1.37,0,0,0-.15-1.09,1.55,1.55,0,0,0-2-.5,1.35,1.35,0,0,0-.64.89A1.38,1.38,0,0,0,61.05,189.59Z"/>
      <path class="cls-4" d="M67.07,192.26A2.06,2.06,0,0,1,65.54,191a3.89,3.89,0,0,1,0-2.43,4,4,0,0,1,1.17-2.14,2.27,2.27,0,0,1,3.47.87A4.74,4.74,0,0,1,69,191.85,2.07,2.07,0,0,1,67.07,192.26Zm.17-.71a1.29,1.29,0,0,0,1.29-.37,4.27,4.27,0,0,0,.87-3.53,1.29,1.29,0,0,0-1-.93,1.27,1.27,0,0,0-1.29.36,3.58,3.58,0,0,0-.84,1.68,3.48,3.48,0,0,0,0,1.86A1.28,1.28,0,0,0,67.24,191.55Z"/>
      <path class="cls-4" d="M72.46,193.6a2,2,0,0,1-1.53-1.27,3.92,3.92,0,0,1,0-2.44,4,4,0,0,1,1.17-2.13,2.28,2.28,0,0,1,3.47.86,4,4,0,0,1,0,2.43,3.86,3.86,0,0,1-1.18,2.13A2,2,0,0,1,72.46,193.6Zm.17-.72a1.31,1.31,0,0,0,1.29-.36,3.45,3.45,0,0,0,.83-1.67,3.51,3.51,0,0,0,0-1.87,1.34,1.34,0,0,0-2.26-.56,3.63,3.63,0,0,0-.83,1.67,3.51,3.51,0,0,0,0,1.87A1.28,1.28,0,0,0,72.63,192.88Z"/>
    </g>
  </g>
</svg>
